<svg height="494pt" viewBox="-135 0 494 494.088" width="494pt" xmlns="http://www.w3.org/2000/svg"><path d="m190.722656 281.777344c4.667969 3.929687 10.851563 5.585937 16.953125 4.527344 9.632813-1.691407 16.898438-10.828126 16.898438-21.246094v-88.851563c0-29.503906-24.003907-53.511719-53.511719-53.511719h-21.015625c-2.320313 0-4.210937-1.886718-4.210937-4.210937 0-1.492187.726562-2.878906 1.882812-3.5625 16.171875-9.773437 25.828125-26.835937 25.828125-45.652344 0-29.320312-23.871094-53.21875-53.226563-53.269531-29.367187.050781-53.257812 23.949219-53.257812 53.269531 0 18.777344 9.65625 35.84375 25.898438 45.6875 1.132812.65625 1.867187 2.039063 1.867187 3.527344 0 2.324219-1.914063 4.210937-4.261719 4.210937h-21.019531c-29.507813 0-53.511719 24.003907-53.511719 53.511719v88.855469c0 10.421875 7.285156 19.558594 16.957032 21.246094 6.0625 1.042968 12.226562-.597656 16.882812-4.515625 4.667969-3.933594 7.347656-9.6875 7.347656-15.796875v-69.550782c0-.773437.652344-1.425781 1.425782-1.425781h1.660156c.769531 0 1.421875.652344 1.421875 1.425781v271.792969c0 14.253907 11.59375 25.851563 25.847656 25.851563 14.257813 0 25.851563-11.597656 25.851563-25.851563v-149.753906c0-3.890625 3.042968-6.96875 6.867187-7 3.824219.03125 6.929687 3.167969 6.929687 7v69.695313c0 2.207031 1.789063 4 4 4h39.988282v76.054687c0 14.253906 11.59375 25.851563 25.84375 25.851563 10.515625 0 19.890625-6.28125 23.910156-15.988282 1.800781-4.351562 1.9375-15 1.9375-17.210937v-27.148438c0-2.207031 0-15.433593 0-17.640625v-27.917968c0-2.207032-1.785156-4-4-4h-39.984375v-187.734376c0-.773437.648437-1.425781 1.421875-1.425781h1.613281c.800781 0 1.421875.628907 1.421875 1.425781v69.550782c.007813 6.101562 2.683594 11.851562 7.34375 15.78125zm0 0" fill="#e6e7e8"/><path d="m202.914062 372.179688v80.058593c0 12.074219-9.773437 21.851563-21.847656 21.851563-12.070312 0-21.847656-9.777344-21.847656-21.851563v-80.058593zm0 0" fill="#fff"/><path d="m173.882812 374.84375v80.058594c0 8.054687 4.363282 15.070312 10.84375 18.859375 10.324219-1.746094 18.1875-10.699219 18.1875-21.519531v-77.398438zm0 0" fill="#6dc9f7"/><path d="m204.574219 160.207031v88.855469c0 8.214844-5.523438 15.886719-13.585938 17.304688-10.507812 1.808593-19.601562-6.207032-19.601562-16.371094v-69.550782c0-2.980468-2.394531-5.425781-5.421875-5.425781h-1.613282c-2.980468 0-5.421874 2.445313-5.421874 5.425781v191.738282h-43.699219v-69.699219c0-6.058594-4.886719-10.949219-10.898438-10.996094-6.058593.046875-10.898437 4.9375-10.898437 10.996094v149.753906c0 12.074219-9.824219 21.851563-21.847656 21.851563-12.074219 0-21.851563-9.777344-21.851563-21.851563v-271.792969c0-2.980468-2.441406-5.425781-5.421875-5.425781h-1.660156c-2.980469 0-5.425782 2.445313-5.425782 5.425781v69.550782c0 10.167968-9.089843 18.179687-19.550781 16.371094-8.113281-1.414063-13.636719-9.089844-13.636719-17.304688v-88.855469c0-27.320312 22.1875-49.511719 49.511719-49.511719h21.015625c4.546875 0 8.261719-3.664062 8.261719-8.210937 0-2.835937-1.417969-5.574219-3.859375-6.988281-14.273438-8.652344-23.902344-24.292969-23.902344-42.226563 0-27.175781 22.046875-49.21875 49.269532-49.269531 27.171874.050781 49.214843 22.09375 49.214843 49.269531 0 17.933594-9.578125 33.574219-23.898437 42.226563-2.394532 1.414062-3.8125 4.15625-3.8125 6.988281 0 4.542969 3.664062 8.210937 8.210937 8.210937h21.015625c27.371094 0 49.507813 22.191407 49.507813 49.511719zm0 0" fill="#fa759e"/><g fill="#3a2c60"><path d="m202.910156 413.742188c-2.210937 0-4 1.792968-4 4v27.152343c0 2.210938 1.789063 4 4 4 2.214844 0 4-1.789062 4-4v-27.152343c0-2.207032-1.785156-4-4-4zm0 0"/><path d="m174.726562 265.777344c4.667969 3.929687 10.851563 5.582031 16.953126 4.527344 9.632812-1.691407 16.898437-10.828126 16.898437-21.246094v-88.851563c0-29.503906-24.003906-53.511719-53.511719-53.511719h-21.015625c-2.324219 0-4.214843-1.886718-4.214843-4.210937 0-1.492187.726562-2.878906 1.878906-3.5625 16.179687-9.773437 25.835937-26.835937 25.835937-45.652344 0-29.320312-23.871093-53.2187498-53.226562-53.269531-29.367188.0507812-53.257813 23.953125-53.257813 53.269531 0 18.777344 9.652344 35.84375 25.898438 45.6875 1.132812.660157 1.867187 2.039063 1.867187 3.527344 0 2.324219-1.910156 4.210937-4.261719 4.210937h-21.015624c-29.507813 0-53.5117192 24.003907-53.5117192 53.511719v88.855469c0 10.421875 7.2851562 19.558594 16.9570312 21.246094 6.0625 1.042968 12.226562-.597656 16.882812-4.515625 4.667969-3.933594 7.347657-9.6875 7.347657-15.796875v-69.550782c0-.773437.652343-1.425781 1.425781-1.425781h1.660156c.773438 0 1.421875.652344 1.421875 1.425781v271.792969c0 14.253907 11.59375 25.851563 25.851563 25.851563 14.253906 0 25.847656-11.597656 25.847656-25.851563v-149.753906c0-3.890625 3.042969-6.96875 6.867188-7 3.820312.03125 6.925781 3.167969 6.925781 7v69.695313c0 2.207031 1.789062 4 4 4h39.988281v76.058593c0 14.253907 11.59375 25.851563 25.847656 25.851563 10.511719 0 19.898438-6.277344 23.90625-15.988282.839844-2.046874-.132812-4.382812-2.175781-5.226562-2.011719-.84375-4.382813.125-5.226563 2.171875-2.761718 6.707031-9.242187 11.042969-16.503906 11.042969-9.839844 0-17.847656-8.003906-17.847656-17.851563v-76.058593h35.695312v23.921874c0 2.207032 1.789063 4 4 4 2.214844 0 4-1.792968 4-4v-27.921874c0-2.207032-1.785156-4-4-4h-39.984374v-187.734376c0-.773437.648437-1.425781 1.421874-1.425781h1.613282c.800781 0 1.421875.628907 1.421875 1.425781v69.550782c.003906 6.101562 2.679687 11.851562 7.339843 15.78125zm-8.761718-94.761719h-1.613282c-5.199218 0-9.421874 4.226563-9.421874 9.425781v187.738282h-35.699219v-65.695313c0-8.203125-6.667969-14.933594-14.925781-15-8.199219.066406-14.867188 6.796875-14.867188 15v149.75c0 9.839844-8.007812 17.851563-17.847656 17.851563-9.84375 0-17.851563-8.007813-17.851563-17.851563v-271.789063c0-5.199218-4.226562-9.425781-9.421875-9.425781h-1.660156c-5.199219 0-9.425781 4.226563-9.425781 9.425781v69.550782c0 3.742187-1.636719 7.269531-4.5 9.675781-2.890625 2.433594-6.566407 3.40625-10.363281 2.757813-5.886719-1.03125-10.324219-6.773438-10.324219-13.367188v-88.855469c0-25.09375 20.417969-45.511719 45.511719-45.511719h21.015624c6.761719 0 12.261719-5.480468 12.261719-12.210937 0-4.351563-2.246093-8.355469-5.789062-10.410156-13.753907-8.34375-21.972657-22.851563-21.972657-38.804688 0-24.917969 20.308594-45.226562 45.257813-45.269531 24.9375.042969 45.226563 20.351562 45.226563 45.269531 0 15.988281-8.214844 30.496094-21.933594 38.78125-3.566406 2.109375-5.777344 6.105469-5.777344 10.433594 0 6.730469 5.480469 12.210937 12.214844 12.210937h21.015625c25.09375 0 45.515625 20.417969 45.515625 45.511719v88.855469c0 6.589844-4.421875 12.332031-10.269532 13.363281-3.816406.660157-7.527343-.324219-10.425781-2.765625-2.855469-2.40625-4.492187-5.929687-4.492187-9.667968v-69.546876c-.011719-5.203124-4.238282-9.429687-9.4375-9.429687zm0 0"/></g></svg>