<svg height="459pt" viewBox="-24 0 459 459.208" width="459pt" xmlns="http://www.w3.org/2000/svg"><path d="m411.101562 453.246094c-7.101562-12.640625-15.878906-24.515625-26.066406-35.277344-25.339844-26.960938-57.71875-45.371094-93.636718-53.253906-4.464844-.984375-8.972657-1.746094-13.476563-2.386719-3.085937-.445313-6.179687-.863281-9.257813-1.144531 43.171876-17.898438 75.78125-56.277344 85.632813-102.957032 2.367187 1.011719 4.808594 1.582032 7.3125 1.582032 13.671875 0 24.789063-14.964844 24.789063-33.355469 0-18.394531-11.117188-33.355469-24.789063-33.355469-1.425781 0-2.824219.203125-4.210937.519532v-34.085938c0-79.140625-64.386719-143.523438-143.527344-143.523438s-143.519532 64.375-143.519532 143.519532v34.085937c-1.382812-.316406-2.785156-.519531-4.210937-.519531-13.667969 0-24.789063 14.960938-24.789063 33.355469 0 18.390625 11.121094 33.355469 24.789063 33.355469 2.503906 0 4.941406-.570313 7.3125-1.582032 9.851563 46.679688 42.453125 85.058594 85.628906 102.960938-4.945312.457031-9.910156 1.195312-14.863281 2.0625-2.617188.460937-5.242188.898437-7.835938 1.46875-35.972656 7.894531-68.375 26.304687-93.695312 53.246094-10.195312 10.769531-18.96875 22.644531-26.070312 35.285156-.699219 1.242187-.679688 2.753906.035156 3.980468.71875 1.226563 2.03125 1.980469 3.453125 1.980469h387.503906c1.417969 0 2.734375-.75 3.449219-1.980469.722656-1.226562.738281-2.742187.042968-3.980468zm0 0" fill="#e6e7e8"/><path d="m345.609375 181.09375c-2.917969 0-5.691406.863281-8.210937 2.394531v29.0625c0 7.957031-.699219 15.75-1.980469 23.339844 3.027343 2.421875 6.46875 3.914063 10.191406 3.914063 11.480469 0 20.789063-13.144532 20.789063-29.355469 0-16.214844-9.308594-29.355469-20.789063-29.355469zm0 0" fill="#fff"/><path d="m58.347656 212.546875v-29.0625c-2.519531-1.53125-5.292968-2.394531-8.207031-2.394531-11.484375 0-20.792969 13.140625-20.792969 29.355468 0 16.210938 9.308594 29.355469 20.792969 29.355469 3.722656 0 7.167969-1.492187 10.1875-3.914062-1.277344-7.589844-1.980469-15.382813-1.980469-23.339844zm0 0" fill="#fff"/><path d="m391.613281 439.207031h-387.503906c7.035156-12.527343 15.609375-24.066406 25.484375-34.5 24.132812-25.671875 55.914062-44.246093 91.644531-52.085937 7.285157-1.605469 14.75-2.777344 22.339844-3.457032 5.433594-.492187 10.925781-.800781 16.476563-.800781h75.601562c2.34375 0 4.691406.0625 7.035156.183594 1.421875.0625 2.839844.125 4.195313.25 1.789062.058594 3.582031.183594 5.308593.367187 7.59375.679688 15.054688 1.851563 22.339844 3.457032 35.734375 7.835937 67.453125 26.410156 91.585938 52.085937 9.878906 10.433594 18.453125 21.972657 25.492187 34.5zm0 0" fill="#fa759e"/><path d="m197.875 421.199219c39.703125 0 72.371094-30.003907 76.640625-68.570313-7.289063-1.609375-14.730469-2.785156-22.320313-3.480468-3.253906 27.128906-26.3125 48.171874-54.320312 48.171874s-51.0625-21.039062-54.320312-48.171874c-7.585938.691406-15.035157 1.867187-22.320313 3.480468 4.269531 38.566406 36.9375 68.570313 76.640625 68.570313zm0 0" fill="#6dc9f7"/><g fill="#fff"><path d="m229.789062 348.363281c-10.253906 2.402344-20.929687 3.707031-31.914062 3.707031s-21.65625-1.304687-31.910156-3.707031h-5.886719c-5.570313 0-11.078125.292969-16.523437.789063 3.257812 27.128906 26.3125 48.171875 54.320312 48.171875s51.066406-21.039063 54.320312-48.171875c-5.445312-.496094-10.949218-.789063-16.523437-.789063zm0 0"/><path d="m197.875 4c77.0625 0 139.523438 62.46875 139.523438 139.523438v69.019531c0 77.0625-62.464844 139.523437-139.523438 139.523437s-139.523438-62.464844-139.523438-139.523437v-69.015625c-.003906-77.058594 62.464844-139.527344 139.523438-139.527344zm0 0"/><path d="m197.875 4c77.0625 0 139.523438 62.46875 139.523438 139.523438v69.019531c0 77.0625-62.464844 139.523437-139.523438 139.523437s-139.523438-62.464844-139.523438-139.523437v-69.015625c-.003906-77.058594 62.464844-139.527344 139.523438-139.527344zm0 0"/></g><path d="m196.910156 163.851562v-16.132812h-16.765625c0-12.335938-10-22.339844-22.339843-22.339844-12.339844 0-22.339844 10-22.339844 22.339844h-15.496094v16.132812c-12.335938 0-22.339844 10-22.339844 22.339844 0 12.335938 10 22.339844 22.339844 22.339844v7.59375c0 4.714844 3.824219 8.539062 8.539062 8.539062h68.398438v-16.132812c-12.335938 0-22.339844-10-22.339844-22.339844.003906-12.335937 10.003906-22.339844 22.34375-22.339844zm0 0" fill="#0089ef"/><path d="m235.378906 170.058594c-12.335937 0-22.339844-10-22.339844-22.339844h-16.132812v16.132812c-12.335938 0-22.339844 10-22.339844 22.339844 0 12.335938 10 22.339844 22.339844 22.339844v16.132812h16.132812c0 12.335938 10 22.339844 22.339844 22.339844 12.335938 0 22.339844-10 22.339844-22.339844h7.59375c4.714844 0 8.539062-3.824218 8.539062-8.539062v-68.402344h-16.132812c0 12.335938-10 22.335938-22.339844 22.335938zm0 0" fill="#fff"/><path d="m235.378906 170.058594c-12.335937 0-22.339844-10-22.339844-22.339844h-16.132812v16.132812c-12.335938 0-22.339844 10-22.339844 22.339844 0 7.578125 3.78125 14.261719 9.550782 18.300782.261718.007812.523437.039062.789062.039062v.484375c3.46875 2.214844 7.582031 3.515625 12 3.515625v12.132812h4.132812c0 1.367188.140626 2.699219.375 4h11.625c0 7.574219 3.78125 14.261719 9.546876 18.300782.265624.007812.527343.039062.792968.039062 12.335938 0 22.339844-10 22.339844-22.339844h7.59375c4.714844 0 8.539062-3.824218 8.539062-8.539062v-64.402344h-4.132812c0 12.335938-10 22.335938-22.339844 22.335938zm0 0" fill="#fa759e"/><path d="m273.851562 86.910156v-7.589844c0-4.714843-3.824218-8.539062-8.539062-8.539062h-68.402344v16.128906c12.335938 0 22.339844 10 22.339844 22.34375 0 12.335938-10 22.339844-22.339844 22.339844v16.128906h16.132813c0 12.335938 10 22.339844 22.339843 22.339844 12.335938 0 22.339844-10 22.339844-22.339844h16.132813v-16.128906c12.335937 0 22.339843-10 22.339843-22.339844-.003906-12.34375-10.007812-22.34375-22.34375-22.34375zm0 0" fill="#6dc9f7"/><path d="m196.910156 86.910156v-16.128906h-16.796875c.007813-.214844.03125-.421875.03125-.636719 0-12.335937-10-22.339843-22.339843-22.339843-12.339844 0-22.339844 10-22.339844 22.339843 0 .210938.027344.417969.03125.636719h-6.988282c-4.714843 0-8.539062 3.824219-8.539062 8.539062v68.398438h15.496094c0-12.335938 10-22.339844 22.339844-22.339844 12.339843 0 22.339843 10 22.339843 22.339844h16.765625v-16.128906c12.335938 0 22.339844-10 22.339844-22.34375-.003906-12.335938-10.003906-22.335938-22.339844-22.335938zm0 0" fill="#ffd7e5"/><path d="m395.101562 437.253906c-7.097656-12.644531-15.871093-24.523437-26.066406-35.28125-25.339844-26.964844-57.71875-45.378906-93.636718-53.253906-4.503907-.992188-9.050782-1.753906-13.589844-2.402344-3.054688-.4375-6.105469-.851562-9.140625-1.128906 43.1875-17.90625 75.800781-56.304688 85.644531-103.007812 2.363281 1.03125 4.796875 1.628906 7.300781 1.628906 13.667969 0 24.789063-14.964844 24.789063-33.355469 0-18.394531-11.121094-33.355469-24.789063-33.355469-1.425781 0-2.828125.167969-4.210937.488282v-34.0625c0-79.140626-64.382813-143.523438-143.523438-143.523438s-143.53125 64.382812-143.53125 143.523438v34.054687c-1.378906-.316406-2.785156-.484375-4.207031-.484375-13.671875 0-24.792969 14.960938-24.792969 33.355469 0 18.390625 11.121094 33.355469 24.792969 33.355469 2.5 0 4.933594-.59375 7.300781-1.628907 9.84375 46.703125 42.453125 85.101563 85.640625 103.007813-4.5625.421875-9.140625 1.078125-13.71875 1.851562-3.003906.507813-6.007812 1.027344-8.984375 1.683594-35.96875 7.890625-68.371094 26.300781-93.691406 53.246094-10.203125 10.769531-18.976562 22.648437-26.070312 35.292968-.6992192 1.238282-.679688 2.75.035156 3.972657.714844 1.230469 2.03125 1.980469 3.453125 1.980469h387.503906c1.417969 0 2.734375-.75 3.449219-1.980469.722656-1.226563.738281-2.738281.042968-3.976563zm-243.640624-84.636718c.4375-.023438.882812-.054688 1.320312-.070313 2.464844-.109375 4.875-.179687 7.226562-.179687h5.566407c10.394531 2.402343 21.195312 3.710937 32.304687 3.710937 11.113282 0 21.914063-1.308594 32.304688-3.710937h5.527344c1.367187 0 2.753906.039062 4.136718.078124.949219.03125 1.894532.0625 2.910156.113282 1.277344.058594 2.554688.109375 4 .238281.265626.007813.53125.042969.792969.054687-4.785156 23.347657-25.4375 40.476563-49.667969 40.476563-24.226562 0-44.878906-17.125-49.667968-40.476563 1.074218-.078124 2.191406-.179687 3.246094-.234374zm194.148437-167.523438c9.101563 0 16.789063 11.609375 16.789063 25.355469 0 13.742187-7.6875 25.355469-16.789063 25.355469-1.953125 0-3.902344-.585938-5.824219-1.738282.496094-3.285156.84375-6.617187 1.109375-9.972656.046875-.546875.089844-1.089844.125-1.632812.222657-3.277344.378907-6.574219.378907-9.90625v-26.613282c1.382812-.570312 2.789062-.847656 4.210937-.847656zm-295.46875 50.710938c-9.105469 0-16.792969-11.613282-16.792969-25.355469 0-13.746094 7.6875-25.355469 16.792969-25.355469 1.417969 0 2.828125.277344 4.207031.839844v26.613281c0 3.335937.15625 6.636719.378906 9.917969.039063.53125.082032 1.0625.121094 1.59375.269532 3.367187.617188 6.710937 1.117188 10.003906-1.921875 1.152344-3.875 1.742188-5.824219 1.742188zm12.207031-23.257813v-69.023437c0-74.726563 60.796875-135.523438 135.527344-135.523438s135.523438 60.796875 135.523438 135.523438v69.023437c0 74.734375-60.792969 135.527344-135.523438 135.527344s-135.527344-60.792969-135.527344-135.527344zm55.609375 144.972656c1.363281 8.160157 3.882813 16.035157 7.664063 23.433594 1.003906 1.960937 3.410156 2.746094 5.378906 1.742187 1.96875-1.007812 2.746094-3.414062 1.738281-5.382812-3.457031-6.773438-5.816406-13.972656-7.027343-21.457031 4.8125-.957031 9.652343-1.703125 14.488281-2.242188.046875.242188.121093.480469.167969.722657.160156.796874.359374 1.570312.550781 2.355468.234375.945313.46875 1.878906.746093 2.804688.230469.773437.492188 1.527344.753907 2.289062.3125.898438.628906 1.789063.980469 2.671875.300781.742188.621093 1.476563.949218 2.203125.382813.855469.78125 1.699219 1.199219 2.53125.363281.710938.746094 1.414063 1.136719 2.109375.453125.804688.917968 1.597657 1.40625 2.378907.425781.679687.867187 1.347656 1.316406 2.007812.515625.757812 1.050781 1.496094 1.601562 2.222656.480469.636719.972657 1.269532 1.476563 1.886719.578125.703125 1.175781 1.386719 1.785156 2.0625.53125.59375 1.070313 1.175781 1.625 1.75.636719.652344 1.296875 1.277344 1.960938 1.898437.582031.539063 1.160156 1.082032 1.765625 1.597657.691406.59375 1.40625 1.164062 2.125 1.726562.625.488281 1.242187.976563 1.886718 1.4375.746094.539063 1.519532 1.039063 2.289063 1.542969.65625.425781 1.308594.859375 1.984375 1.261719.800781.476562 1.628906.914062 2.453125 1.355469.6875.367187 1.367187.742187 2.074219 1.082031.855468.414062 1.738281.777343 2.617187 1.152343.703125.300782 1.402344.617188 2.121094.886719.917969.347657 1.867187.640625 2.8125.941407.707031.226562 1.40625.480468 2.128906.679687 1.003907.28125 2.03125.496094 3.054688.71875.6875.152344 1.363281.335937 2.054687.464844 1.152344.210937 2.324219.347656 3.496094.492187.59375.074219 1.171875.183594 1.765625.238282 1.773437.160156 3.574219.25 5.390625.25s3.613281-.089844 5.394531-.25c.589844-.058594 1.167969-.164063 1.75-.238282 1.175781-.144531 2.355469-.28125 3.511719-.492187.6875-.128907 1.359375-.308594 2.039062-.460938 1.03125-.226562 2.066407-.441406 3.074219-.722656.714844-.199219 1.40625-.449219 2.109375-.675781.949219-.304688 1.902344-.597656 2.828125-.949219.714844-.265625 1.40625-.582031 2.105469-.878906.882812-.375 1.773438-.738281 2.636719-1.160157.695312-.335937 1.371093-.710937 2.050781-1.070312.832031-.445312 1.664062-.882812 2.472656-1.367188.667969-.394531 1.3125-.828124 1.964844-1.25.777344-.507812 1.558594-1.015624 2.3125-1.554687.632812-.457031 1.246094-.941406 1.863281-1.425781.726563-.566406 1.449219-1.140625 2.148438-1.738282.59375-.511718 1.171875-1.050781 1.746093-1.585937.671876-.625 1.335938-1.257813 1.976563-1.914063.550781-.566406 1.085937-1.144531 1.613281-1.730468.613282-.679688 1.214844-1.371094 1.800782-2.078125.503906-.613281.984374-1.238281 1.464843-1.871094.554688-.734375 1.089844-1.476563 1.609375-2.238281.449219-.65625.882813-1.320313 1.308594-2 .488281-.785156.957031-1.574219 1.40625-2.382813.394531-.695312.773438-1.398437 1.136719-2.113281.425781-.832031.816406-1.675781 1.199219-2.527344.328124-.726562.652343-1.460937.953124-2.207031.351563-.878906.667969-1.773437.980469-2.671875.257813-.761719.523438-1.515625.753907-2.289062.277343-.925782.515624-1.863282.746093-2.804688.191407-.785156.390625-1.558594.550781-2.355469.050782-.242187.125-.480469.171876-.726562 2.316406.257812 4.628906.496093 6.945312.847656.164062.023437.328125.046875.492188.070313 2.359374.367187 4.703124.855468 7.050781 1.320312-5.683594 35.230469-36.078125 61.355469-72.164063 61.355469-14.003906 0-27.609375-3.96875-39.347656-11.480469-1.859375-1.195312-4.332031-.648438-5.523438 1.214844-1.191406 1.859375-.648437 4.335937 1.210938 5.523437 13.023438 8.339844 28.125 12.746094 43.660156 12.746094 39.894532 0 73.441406-28.8125 79.917969-67.6875 30.910156 7.5625 58.925781 23.351563 81.554687 45.976563-14.667968 7.328124-27.085937 18.191406-36.28125 31.71875h-250.363281c-9.25-13.539063-21.6875-24.398438-36.335937-31.71875 22.609375-22.605469 50.636718-38.390626 81.585937-45.972657zm-87.378906 52.074219c12.699219 5.914062 23.707031 14.644531 32.257813 25.613281h-51.726563c5.589844-9.050781 12.140625-17.613281 19.46875-25.613281zm302.34375 25.613281c8.511719-10.960937 19.5-19.695312 32.21875-25.617187 7.328125 7.996094 13.878906 16.5625 19.472656 25.617187zm0 0" fill="#3a2c60"/><path d="m143.671875 404.425781c.765625.6875 1.71875 1.027344 2.671875 1.027344 1.097656 0 2.1875-.445313 2.976562-1.324219 1.476563-1.644531 1.339844-4.171875-.300781-5.648437-3.777343-3.402344-7.210937-7.203125-10.21875-11.3125-1.304687-1.785157-3.808593-2.175781-5.589843-.871094-1.785157 1.304687-2.171876 3.808594-.867188 5.585937 3.332031 4.5625 7.140625 8.777344 11.328125 12.542969zm0 0" fill="#3a2c60"/><path d="m235.378906 251c13.164063 0 24.105469-9.707031 26.035156-22.339844h3.894532c6.914062 0 12.539062-5.625 12.539062-12.539062v-80.832032c12.632813-1.929687 22.339844-12.875 22.339844-26.035156 0-13.164062-9.707031-24.105468-22.339844-26.039062v-3.890625c0-6.917969-5.625-12.542969-12.539062-12.542969h-81.386719c-1.65625-12.9375-12.738281-22.972656-26.121094-22.972656-13.386719 0-24.46875 10.035156-26.125 22.972656h-3.167969c-6.917968 0-12.539062 5.621094-12.539062 12.542969v80.835937c-12.632812 1.929688-22.339844 12.871094-22.339844 26.035156 0 13.164063 9.707032 24.105469 22.339844 26.035157v3.898437c0 6.914063 5.621094 12.539063 12.539062 12.539063h80.832032c1.9375 12.628906 12.875 22.332031 26.039062 22.332031zm34.472656-171.675781v7.585937c0 2.214844 1.792969 4 4 4 10.113282 0 18.339844 8.230469 18.339844 18.34375 0 10.109375-8.226562 18.339844-18.339844 18.339844-2.207031 0-4 1.785156-4 4v12.125h-12.132812c-2.207031 0-4 1.789062-4 4 0 10.113281-8.226562 18.339844-18.339844 18.339844-10.109375 0-18.339844-8.226563-18.339844-18.339844 0-2.210938-1.792968-4-4-4h-12.132812v-8.429688c12.632812-1.929687 22.335938-12.875 22.335938-26.035156 0-13.164062-9.707032-24.105468-22.335938-26.039062v-8.433594h64.402344c2.507812 0 4.542968 2.039062 4.542968 4.542969zm-145.882812 0c0-2.503907 2.035156-4.542969 4.539062-4.542969h6.988282c1.078125 0 2.117187-.4375 2.867187-1.214844.753907-.769531 1.164063-1.820312 1.132813-2.898437l-.03125-.523438c0-10.113281 8.226562-18.339843 18.339844-18.339843 10.109374 0 18.335937 8.226562 18.332031 18.421874 0 .058594-.019531.386719-.019531.4375-.035157 1.078126.375 2.125 1.128906 2.898438s1.789062 1.214844 2.871094 1.214844h12.796874v12.128906c0 2.214844 1.792969 4 4 4 10.113282 0 18.335938 8.230469 18.335938 18.339844 0 10.113281-8.226562 18.34375-18.335938 18.34375-2.207031 0-4 1.785156-4 4v12.125h-9.101562c-1.9375-12.621094-12.839844-22.335938-26-22.335938s-24.066406 9.710938-26.003906 22.335938h-7.832032v-64.390625zm0 136.800781v-7.589844c0-2.210937-1.792969-4-4-4-10.113281 0-18.339844-8.226562-18.339844-18.339844 0-10.109374 8.226563-18.339843 18.339844-18.339843 2.207031 0 4-1.789063 4-4v-12.132813h15.496094v-4c0-10.105468 8.226562-18.335937 18.339844-18.335937 10.109374 0 18.335937 8.230469 18.335937 18.335937v4h16.765625v8.4375c-12.628906 1.929688-22.339844 12.871094-22.339844 26.035156 0 13.164063 9.710938 24.105469 22.339844 26.035157v8.433593h-64.398438c-2.5-.003906-4.539062-2.035156-4.539062-4.539062zm72.941406-11.59375c-10.109375 0-18.339844-8.226562-18.339844-18.339844 0-10.113281 8.230469-18.339844 18.339844-18.339844 2.210938 0 4-1.789062 4-4v-12.132812h8.433594c1.933594 12.632812 12.871094 22.339844 26.035156 22.339844 13.164063 0 24.105469-9.707032 26.035156-22.339844h8.433594v64.40625c0 2.503906-2.035156 4.539062-4.539062 4.539062h-7.589844c-2.207031 0-4 1.789063-4 4 0 10.113282-8.226562 18.339844-18.339844 18.339844-10.109375 0-18.339844-8.226562-18.339844-18.339844 0-2.210937-1.792968-4-4-4h-12.132812v-12.128906c.003906-2.210937-1.785156-4.003906-3.996094-4.003906zm0 0" fill="#3a2c60"/></svg>