<svg height="484pt" viewBox="0 -8 484.152 484" width="484pt" xmlns="http://www.w3.org/2000/svg"><path d="m475.769531 423.121094v-153.074219c0-10.03125-7.878906-18.195313-17.5625-18.195313-9.683593 0-17.5625 8.164063-17.5625 18.195313v14.660156c-1.269531-.761719-2.675781-1.335937-4.214843-1.59375l-20.609376-3.496093c.316407-.238282.644532-.449219.949219-.707032 5.53125-4.589844 8.703125-11.347656 8.703125-18.535156 0-11.683594-8.347656-21.660156-19.851562-23.71875l-53.660156-9.605469c-13.253907-2.375-26.714844-2.5-40.011719-.378906l-70.25 11.191406-95.375-35.996093c-7.570313-2.46875-15.65625-1.332032-22.144531 2.808593-2.636719-9.570312-9.882813-17.429687-19.617188-20.65625-15.421875-5.105469-32.871094 3.554688-38.113281 18.914063-2.640625 7.722656-2.085938 15.996094 1.558593 23.289062.675782 1.347656 1.46875 2.609375 2.3125 3.824219-.441406.230469-.894531.414063-1.316406.683594-2.203125 1.4375-3.894531 3.410156-5.070312 5.671875v-1.582032c0-9.207031-5.265625-17.140624-12.820313-20.789062v-166.617188h38.046875c-6.039062 1.757813-10.496094 7.28125-10.496094 13.882813v23.136719c0 8.003906 6.511719 14.515625 14.515626 14.515625 8.003906 0 14.515624-6.511719 14.515624-14.515625v-23.136719c0-7.386719-5.5625-13.433594-12.710937-14.332031 1.3125-.65625 2.234375-1.980469 2.234375-3.542969 0-2.210937-1.785156-4-4-4h-42.105469v-16.351563c0-3.847656-3.148437-6.992187-6.992187-6.992187h-4.941406c-3.847657 0-6.996094 3.148437-6.996094 6.992187v191.164063c-7.335938 3.734375-12.410156 11.546875-12.410156 20.585937v193.082032c0 .261718.03125.53125.042968.789062-2.40625 3.933594-3.8125 8.527344-3.8125 13.464844 0 14.292969 11.625 25.917969 25.917969 25.917969 14.289063 0 25.917969-11.625 25.917969-25.917969 0-5.082031-1.488282-9.804688-4.023438-13.808594.046875-.25.117188-.5.117188-.757812v-75.195313l376.714844.003907v70.769531c-5.113282 4.734375-8.332032 11.484375-8.332032 18.988281 0 14.292969 11.625 25.917969 25.914063 25.917969 14.292969 0 25.921875-11.625 25.921875-25.917969.003906-7.527344-3.246094-14.296875-8.382813-19.035156zm-351.84375-169.992188c.300781-1.4375.316407-2.875.203125-4.300781 1.835938 1.171875 3.820313 2.148437 5.964844 2.847656l89.148438 29.355469-98.574219-21.375c1.578125-1.871094 2.738281-4.070312 3.257812-6.527344zm91.757813 57.613282h-151.75v-33.433594c1.070312.546875 2.199218 1.007812 3.421875 1.277344zm224.964844 0h-.445313c.148437-.09375.300781-.167969.445313-.269532zm-197.585938 0 82.242188-13.953126c2.695312-.457031 5.011718-1.808593 6.785156-3.675781 1.769531 1.867188 4.085937 3.21875 6.78125 3.675781l82.238281 13.953126zm-178.90625-60.144532c-.078125.035156-.148438.078125-.222656.113282v-.546876c.070312.144532.140625.289063.222656.433594zm0 0" fill="#e6e7e8"/><path d="m388.921875 224.597656-53.664063-9.605468c-12.78125-2.289063-25.859374-2.414063-38.679687-.367188l-71.292969 11.363281-96.191406-36.3125c-8.804688-2.867187-18.164062.132813-23.824219 6.8125-.097656-10.917969-7.039062-21.039062-17.957031-24.660156-13.402344-4.445313-28.507812 3.046875-33.078125 16.402344-3.390625 9.933593-.46875 20.429687 6.542969 27.269531.589844.023438 1.183594.0625 1.777344.1875l25.878906 5.445312c4.582031-1.773437 8.675781-4.753906 11.667968-8.785156.640626 8.730469 6.4375 16.667969 15.242188 19.535156l96.183594 31.667969c9.03125 2.972657 18.660156 3.660157 28.019531 1.996094l66.304687-11.777344c6.902344-1.230469 13.964844-1.199219 20.855469.089844l54.984375 10.277344c12.363282 2.3125 23.789063-7.175781 23.789063-19.753907-.007813-9.738281-6.980469-18.074218-16.558594-19.785156zm0 0" fill="#fa759e"/><path d="m428.648438 408.976562c3.734374-2.960937 8.449218-4.742187 13.585937-4.742187 5.113281 0 9.808594 1.765625 13.539063 4.703125v-154.890625c0-7.808594-6.105469-14.195313-13.5625-14.195313-7.457032 0-13.558594 6.386719-13.558594 14.195313v44.695313h-384.722656v-79.925782c0-10.414062-8.136719-18.929687-18.082032-18.929687-9.945312 0-18.078125 8.519531-18.078125 18.929687v193.082032c0 .597656.113281 1.15625.167969 1.738281 3.957031-5.679688 10.53125-9.40625 17.976562-9.40625 7.378907 0 13.886719 3.65625 17.863282 9.242187.042968-.527344.152344-1.035156.152344-1.574218v-79.503907h384.714843v76.582031zm0 0" fill="#fff"/><path d="m428.648438 344.394531v64.582031c3.734374-2.960937 8.449218-4.742187 13.585937-4.742187 5.113281 0 9.808594 1.765625 13.539063 4.703125v-142.890625c0-7.808594-6.105469-14.195313-13.5625-14.195313-7.453126 0-13.558594 6.386719-13.558594 14.195313v44.695313h-384.722656v-79.925782c0-10.414062-8.136719-18.929687-18.082032-18.929687-9.945312 0-18.078125 8.519531-18.078125 18.929687v183.046875c3.941407-5.808593 10.597657-9.628906 18.144531-9.628906 7.46875 0 14.054688 3.742187 18.015626 9.445313v-81.285157h384.714843v12zm0 0" fill="#0089ef"/><g fill="#6dc9f7"><path d="m206.292969 285.519531-.738281-4.609375c-.730469-4.582031 2.257812-8.933594 6.660156-9.796875-.136719-.039062-.253906-.101562-.390625-.128906l-155.261719-33.664063c-5.695312-1.234374-11.339844 2.558594-12.535156 8.433594-1.199219 5.871094 2.484375 11.6875 8.179687 12.921875l155.261719 33.664063c1.546875.335937 3.082031.273437 4.535156-.074219-2.886718-.957031-5.1875-3.46875-5.710937-6.746094zm0 0"/><path d="m323.539062 276.84375 92.785157 15.746094c4.515625.765625 8.816406-2.417969 9.558593-7.070313l.738282-4.609375c.742187-4.648437-2.34375-9.085937-6.855469-9.855468l-92.785156-15.742188c-4.515625-.769531-8.816407 2.414062-9.558594 7.066406l-.738281 4.609375c-.742188 4.65625 2.339844 9.085938 6.855468 9.855469zm0 0"/><path d="m308.636719 276.84375-92.785157 15.746094c-4.515624.765625-8.816406-2.417969-9.558593-7.070313l-.738281-4.609375c-.742188-4.648437 2.34375-9.085937 6.855468-9.855468l92.785156-15.742188c4.515626-.769531 8.816407 2.414062 9.5625 7.066406l.734376 4.609375c.742187 4.65625-2.339844 9.085938-6.855469 9.855469zm0 0"/></g><path d="m90.042969 243.984375-32.027344-6.738281c-5.929687-1.246094-9.757813-7.117188-8.515625-13.050782 1.246094-5.929687 7.121094-9.757812 13.050781-8.515624l32.027344 6.734374c5.933594 1.25 9.761719 7.121094 8.519531 13.054688-1.25 5.929688-7.121094 9.761719-13.054687 8.515625zm0 0" fill="#ffd7e5"/><path d="m47.835938 426.15625c0 12.105469-9.8125 21.917969-21.921876 21.917969-12.105468 0-21.917968-9.8125-21.917968-21.917969s9.8125-21.921875 21.917968-21.921875c12.109376 0 21.921876 9.816406 21.921876 21.921875zm0 0" fill="#d4fbff"/><path d="m464.152344 426.15625c0 12.105469-9.8125 21.917969-21.921875 21.917969-12.105469 0-21.917969-9.8125-21.917969-21.917969s9.8125-21.921875 21.917969-21.921875c12.109375 0 21.921875 9.816406 21.921875 21.921875zm0 0" fill="#d4fbff"/><path d="m77.175781 78.949219c-5.785156 0-10.515625-4.734375-10.515625-10.515625v-23.136719c0-5.785156 4.730469-10.515625 10.515625-10.515625 5.785157 0 10.515625 4.730469 10.515625 10.515625v23.136719c0 5.78125-4.730468 10.515625-10.515625 10.515625zm0 0" fill="#6dc9f7"/><path d="m203.78125 328.394531h-25.714844c-2.210937 0-4 1.792969-4 4 0 2.210938 1.789063 4 4 4h25.714844c2.210938 0 4-1.789062 4-4 0-2.207031-1.789062-4-4-4zm0 0" fill="#3a2c60"/><path d="m459.769531 407.121094v-153.074219c0-10.03125-7.878906-18.195313-17.5625-18.195313-9.683593 0-17.5625 8.164063-17.5625 18.195313v14.664063c-1.269531-.761719-2.675781-1.335938-4.214843-1.59375l-20.609376-3.496094c.316407-.238282.644532-.449219.949219-.707032 5.53125-4.589843 8.703125-11.347656 8.703125-18.535156 0-11.683594-8.347656-21.660156-19.851562-23.71875l-53.660156-9.605468c-13.253907-2.371094-26.714844-2.503907-40.011719-.378907l-70.253907 11.191407-95.375-35.996094c-7.585937-2.472656-15.65625-1.335938-22.144531 2.808594-2.636719-9.566407-9.886719-17.425782-19.617187-20.65625-15.417969-5.101563-32.867188 3.554687-38.113282 18.914062-2.640624 7.722656-2.085937 15.996094 1.558594 23.289062.496094.992188 1.0625 1.929688 1.65625 2.839844-2.296875 1.136719-4.308594 2.800782-5.777344 4.945313-.296874-8.855469-5.445312-16.4375-12.773437-19.976563v-166.621094h38.046875c-6.039062 1.757813-10.496094 7.28125-10.496094 13.882813v23.136719c0 8.003906 6.511719 14.515625 14.515625 14.515625 8.003907 0 14.515625-6.511719 14.515625-14.515625v-23.136719c0-7.386719-5.5625-13.433594-12.710937-14.332031 1.3125-.65625 2.234375-1.980469 2.234375-3.542969 0-2.210937-1.785156-4-4-4h-42.101563v-16.355469c0-3.847656-3.148437-6.9921872-6.992187-6.9921872h-4.945313c-3.847656 0-6.996093 3.1484372-6.996093 6.9921872v191.167969c-7.335938 3.734375-12.410157 11.546875-12.410157 20.585937v193.945313c-2.378906 3.914063-3.769531 8.488281-3.769531 13.390625 0 14.292969 11.625 25.917969 25.914062 25.917969 14.292969 0 25.921876-11.625 25.921876-25.917969 0-5-1.449219-9.660156-3.910157-13.625v-76.136719h110.136719c2.214844 0 4-1.789062 4-4 0-2.207031-1.785156-4-4-4h-114.132812c-2.214844 0-4 1.792969-4 4v71.96875c-.097657-.058593-.207032-.097656-.300782-.160156-3.984375-2.496094-8.675781-3.964844-13.714844-3.964844-3.882812 0-7.550781.882813-10.863281 2.417969-.046875.019531-.09375.046875-.144531.066406-.925781.4375-1.820312.925782-2.683594 1.464844-.148437.09375-.3125.15625-.457031.253906v-185.621094c0-8.230468 6.3125-14.929687 14.082031-14.929687 7.761719 0 14.082032 6.699219 14.082032 14.929687v79.921876c0 2.210937 1.785156 4 4 4h384.71875c2.210937 0 4-1.789063 4-4v-44.695313c0-5.621094 4.289062-10.195313 9.5625-10.195313 5.269531 0 9.5625 4.578126 9.5625 10.195313v148c-.113282-.042969-.238282-.054687-.351563-.097656-1.378906-.523438-2.804687-.949219-4.28125-1.234375-.050781-.011719-.109375-.015625-.160156-.023438-1.539063-.289062-3.121094-.457031-4.742188-.457031-1.644531 0-3.253906.171875-4.816406.46875-.046875.007813-.085937.011719-.128906.019531-1.480469.289063-2.910157.71875-4.289063 1.246094-.117187.042969-.238281.054688-.351562.101562v-69.675781c0-1.0625-.421875-2.078125-1.171875-2.832031-.753907-.75-1.769531-1.167969-2.828125-1.167969h-.003906l-204.863282.21875c-2.214844 0-4 1.792969-3.996094 4.003907.003907 2.207031 1.789063 3.996093 4 3.996093h.003907l200.859375-.214843v70.773437c-5.113282 4.734375-8.332032 11.484375-8.332032 18.988281 0 14.292969 11.625 25.917969 25.914063 25.917969 14.292969 0 25.921875-11.625 25.921875-25.917969 0-7.53125-3.25-14.300781-8.386719-19.039062zm-376.078125-361.824219v23.136719c0 3.589844-2.917968 6.515625-6.515625 6.515625-3.597656 0-6.515625-2.925781-6.515625-6.515625v-23.136719c0-3.59375 2.917969-6.515625 6.515625-6.515625 3.597657 0 6.515625 2.921875 6.515625 6.515625zm-57.777344 398.777344c-9.878906 0-17.914062-8.039063-17.914062-17.917969s8.039062-17.921875 17.914062-17.921875c9.886719 0 17.921876 8.042969 17.921876 17.921875s-8.035157 17.917969-17.921876 17.917969zm396.753907-163.792969-.734375 4.605469c-.203125 1.234375-.855469 2.304687-1.847656 3.015625-.917969.660156-1.992188.917968-3.097657.738281l-92.78125-15.746094c-2.332031-.394531-3.972656-2.816406-3.578125-5.273437l.738282-4.613282c.199218-1.234374.851562-2.308593 1.847656-3.019531.726562-.519531 1.566406-.792969 2.417968-.792969.222657 0 .445313.019532.675782.058594l92.785156 15.742188c2.335938.398437 3.96875 2.816406 3.574219 5.285156zm-315.660157-43.988281c.289063-1.378907.3125-2.734375.222657-4.070313 2.078125 1.449219 4.367187 2.640625 6.863281 3.453125l89.148438 29.355469-99.90625-21.664062c1.78125-1.925782 3.097656-4.328126 3.671874-7.074219zm200.964844 36.605469-92.789062 15.746093c-1.082032.183594-2.179688-.082031-3.085938-.738281-.996094-.710938-1.648437-1.78125-1.851562-3.019531l-.738282-4.605469c-.394531-2.464844 1.25-4.886719 3.582032-5.28125l92.78125-15.742188c.226562-.042968.449218-.058593.671875-.058593.855469 0 1.695312.273437 2.417969.792969.996093.710937 1.652343 1.789062 1.851562 3.019531l.734375 4.613281c.394531 2.460938-1.246094 4.878906-3.574219 5.273438zm-260.042968-26.199219c.007812-.046875.003906-.097657.015624-.148438.378907-1.839843 1.429688-3.40625 2.96875-4.414062 1.066407-.691407 2.265626-1.050781 3.480469-1.050781.441407 0 .886719.046874 1.320313.136718l147.472656 31.976563c-1.398438 2.441406-2.058594 5.339843-1.578125 8.339843l.738281 4.605469c.054688.359375.1875.695313.273438 1.042969l-149.566406-32.425781c-2.671876-.582031-4.621094-2.785157-5.121094-5.421875v-2.640625zm261.378906 34.089843c2.710937-.460937 5.039062-1.828124 6.816406-3.71875 1.765625 1.875 4.054688 3.257813 6.75 3.71875l82.238281 13.953126h-178.050781zm-251.292969-91.273437c3.859375-11.292969 16.6875-17.664063 28.03125-13.902344 9.015625 2.988281 15.128906 11.386719 15.21875 20.898438.015625 1.671875 1.066406 3.160156 2.636719 3.726562 1.574218.570313 3.332031.101563 4.414062-1.175781 4.824219-5.6875 12.492188-7.890625 19.359375-5.652344l96.195313 36.3125c.652344.253906 1.371094.324219 2.042968.210938l71.296876-11.363282c12.421874-1.96875 24.976562-1.851562 37.34375.359376l53.664062 9.601562c7.679688 1.375 13.257812 8.039062 13.257812 15.84375 0 4.800781-2.117187 9.316406-5.8125 12.386719-3.699218 3.066406-8.519531 4.316406-13.242187 3.4375l-54.984375-10.273438c-7.394531-1.386719-14.890625-1.417969-22.289062-.101562l-66.300782 11.78125c-8.675781 1.542969-17.691406.898437-26.070312-1.859375l-96.199219-31.671875c-7.042969-2.292969-11.941406-8.582031-12.488281-16.023438-.121094-1.667969-1.265625-3.082031-2.875-3.546875-.371094-.109375-.746094-.160156-1.113282-.160156-1.246093 0-2.445312.585938-3.214843 1.617188-2.335938 3.144531-5.386719 5.507812-8.789063 7.011718l-24.71875-5.199218c-.199218-.042969-.394531-.03125-.59375-.066407-1.402344-1.511719-2.667968-3.160156-3.621094-5.054687-2.679687-5.371094-3.089843-11.453125-1.148437-17.136719zm-4.601563 35.503906c.796876-3.785156 4.5-6.226562 8.3125-5.421875l32.03125 6.738282c3.785157.796874 6.222657 4.523437 5.421876 8.3125-.796876 3.789062-4.519532 6.21875-8.3125 5.421874l-32.027344-6.738281c-3.789063-.796875-6.21875-4.523437-5.425782-8.3125zm-5.484374 36.304688c1.070312.542969 2.207031.992187 3.425781 1.253906l148.324219 32.160156h-151.75zm376.273437 33.417969c.148437-.09375.300781-.167969.445313-.269532v.269532zm18.027344 149.332031c-9.878907 0-17.914063-8.039063-17.914063-17.917969s8.039063-17.921875 17.914063-17.921875c9.886719 0 17.921875 8.042969 17.921875 17.921875s-8.035156 17.917969-17.921875 17.917969zm0 0" fill="#3a2c60"/></svg>