<svg height="468pt" viewBox="0 -66 468.828 468" width="468pt" xmlns="http://www.w3.org/2000/svg"><path d="m468.828125 330.085938v-275.75c0-.675782-.121094-1.3125-.292969-1.929688-.042968-.152344-.085937-.300781-.140625-.449219-.414062-1.195312-1.121093-2.234375-2.054687-3.054687-.117188-.105469-.230469-.195313-.355469-.292969-.492187-.378906-1.015625-.722656-1.597656-.96875-.867188-.367187-1.824219-.570313-2.828125-.570313h-6.730469v-13.5625c0-3.757812-3.042969-6.800781-6.800781-6.800781h-167.703125l-1.234375 1.28125c-14.242188 14.808594-38.113282 14.214844-51.59375-1.28125h-179.875c-3.757813 0-6.800782 3.042969-6.800782 6.800781v13.5625h-6.730468c-4.015625 0-7.261719 3.25-7.261719 7.257813v275.753906c0 1.503907.457031 2.898438 1.238281 4.058594 1.304688 1.933594 3.519532 3.203125 6.023438 3.203125h199.730468c3.074219 0 5.566407-2.492188 5.566407-5.570312v-27.351563c0-1.097656.113281-2.164063.324219-3.195313.632812-3.097656 2.167968-5.859374 4.320312-8.011718.714844-.71875 1.503906-1.363282 2.34375-1.9375.84375-.566406 1.746094-1.058594 2.691406-1.460938 1.898438-.800781 3.980469-1.242187 6.167969-1.242187 1.097656 0 2.164063.113281 3.199219.324219 2.0625.421874 3.976562 1.242187 5.667968 2.382812.84375.570312 1.625 1.222656 2.34375 1.9375 2.152344 2.152344 3.6875 4.914062 4.320313 8.011719.210937 1.03125.324219 2.097656.324219 3.195312v27.351563c0 3.078125 2.488281 5.570312 5.566406 5.570312h184.914062c1.671876 0 3.199219-.589844 4.425782-1.542968.121094-.09375.234375-.1875.351562-.289063.933594-.820313 1.640625-1.867187 2.054688-3.058594.054687-.148437.097656-.296875.140625-.445312.160156-.613281.285156-1.253907.285156-1.925781zm0 0" fill="#e6e7e8"/><path d="m17.992188 284.042969v-259.265625h-6.730469c-4.015625 0-7.261719 3.253906-7.261719 7.261718v275.75c0 4.011719 3.253906 7.261719 7.261719 7.261719h205.292969v-24.210937h-191.757813c-3.757813.007812-6.804687-3.042969-6.804687-6.796875zm0 0" fill="#0089ef"/><path d="m438.738281 24.777344h-6.730469v259.265625c0 3.753906-3.042968 6.800781-6.800781 6.800781h-176.949219v24.210938h190.480469c4.015625 0 7.261719-3.253907 7.261719-7.261719v-275.75c0-4.011719-3.253906-7.265625-7.261719-7.265625zm0 0" fill="#0089ef"/><path d="m425.203125 4.414062h-167.703125l-1.234375 1.285157c-14.242187 14.808593-38.113281 14.210937-51.597656-1.285157h-179.871094c-3.757813 0-6.800781 3.042969-6.800781 6.800782v272.828125c0 3.753906 3.042968 6.804687 6.804687 6.804687h191.757813v-8.710937c0-8.75 7.097656-15.847657 15.847656-15.847657 8.753906 0 15.851562 7.097657 15.851562 15.847657v8.710937h176.945313c3.757813 0 6.800781-3.046875 6.800781-6.800781v-272.828125c0-3.761719-3.042968-6.804688-6.800781-6.804688zm0 0" fill="#fff"/><path d="m269.5 16.414062-1.234375 1.285157c-14.242187 14.808593-38.113281 14.210937-51.597656-1.285157h-179.871094c-3.757813 0-6.800781 3.042969-6.800781 6.800782v267.628906h186.5625v-8.710938c0-8.75 7.097656-15.847656 15.847656-15.847656 7.566406 0 13.875 5.3125 15.449219 12.402344 6.03125 1.339844 10.769531 6.097656 12.046875 12.15625h165.300781c3.757813 0 6.800781-3.046875 6.800781-6.800781v-267.628907zm0 0" fill="#d4fbff"/><path d="m114.511719 148.199219c0 8.507812-6.898438 15.40625-15.40625 15.40625-8.511719 0-15.410157-6.898438-15.410157-15.40625 0-8.511719 6.898438-15.410157 15.410157-15.410157 8.507812 0 15.40625 6.898438 15.40625 15.410157zm0 0" fill="#0089ef"/><path d="m319.84375 148.199219c0 8.507812-6.898438 15.40625-15.40625 15.40625-8.511719 0-15.410156-6.898438-15.410156-15.40625 0-8.511719 6.898437-15.410157 15.410156-15.410157 8.507812 0 15.40625 6.898438 15.40625 15.410157zm0 0" fill="#0089ef"/><path d="m319.84375 194.96875c0 8.511719-6.898438 15.410156-15.40625 15.410156-8.511719 0-15.410156-6.898437-15.410156-15.410156 0-8.507812 6.898437-15.40625 15.410156-15.40625 8.507812 0 15.40625 6.898438 15.40625 15.40625zm0 0" fill="#0089ef"/><g fill="#3a2c60"><path d="m438.738281 20.777344h-2.734375v-9.5625c0-5.957032-4.84375-10.800782-10.800781-10.800782h-167.703125c-1.085938 0-2.125.441407-2.878906 1.222657l-1.246094 1.289062c-6.09375 6.339844-14.191406 9.785157-23.09375 9.496094-8.796875-.21875-16.820312-3.996094-22.59375-10.632813-.757812-.871093-1.863281-1.375-3.019531-1.375h-37.148438c-2.210937 0-4 1.792969-4 4 0 2.207032 1.789063 4 4 4h35.386719c5.832031 6.089844 13.515625 10.066407 21.773438 11.445313v80.757813c0 2.207031 1.789062 4 4 4 2.210937 0 4-1.792969 4-4v-80.273438c9.855468-.449219 19.507812-4.636719 26.460937-11.871094l166.0625-.058594c1.542969 0 2.800781 1.257813 2.800781 2.800782v272.828125c0 1.542969-1.257812 2.800781-2.800781 2.800781h-172.945313v-4.710938c0-9.570312-6.816406-17.582031-15.851562-19.4375v-83.582031c0-2.207031-1.785156-4-4-4-2.210938 0-4 1.792969-4 4v83.582031c-9.035156 1.855469-15.851562 9.867188-15.851562 19.441407v4.710937h-187.757813c-1.542969 0-2.800781-1.257812-2.800781-2.800781v-272.832031c0-1.542969 1.257812-2.800782 2.800781-2.800782h81.097656c2.214844 0 4-1.792968 4-4 0-2.207031-1.785156-4-4-4h-81.097656c-5.957031 0-10.800781 4.84375-10.800781 10.800782v9.5625h-2.734375c-6.214844 0-11.261719 5.050781-11.261719 11.261718v275.75c0 6.207032 5.050781 11.261719 11.261719 11.261719h205.292969c2.214843 0 4-1.792969 4-4v-32.921875c0-6.53125 5.316406-11.847656 11.851562-11.847656s11.851562 5.316406 11.851562 11.847656v32.921875c0 2.207031 1.785157 4 4 4h190.480469c6.214844 0 11.261719-5.054687 11.261719-11.261719v-275.746093c0-6.214844-5.046875-11.265625-11.261719-11.265625zm-427.476562 290.277344c-1.796875 0-3.261719-1.464844-3.261719-3.261719v-275.75c0-1.800781 1.464844-3.261719 3.261719-3.261719h2.734375v255.261719c0 5.953125 4.84375 10.800781 10.800781 10.800781h187.757813v16.210938zm430.738281-3.261719c0 1.800781-1.464844 3.261719-3.261719 3.261719h-186.480469v-16.210938h172.945313c5.957031 0 10.800781-4.847656 10.800781-10.800781v-255.265625h2.734375c1.796875 0 3.261719 1.464844 3.261719 3.261718zm0 0"/><path d="m126.859375 8.414062h20.945313c2.210937 0 4-1.792968 4-4 0-2.207031-1.789063-4-4-4h-20.945313c-2.210937 0-4 1.792969-4 4 0 2.207032 1.792969 4 4 4zm0 0"/><path d="m79.695312 148.199219c0 10.699219 8.707032 19.40625 19.410157 19.40625s19.410156-8.707031 19.410156-19.40625c0-10.707031-8.707031-19.414063-19.410156-19.414063-10.703125.003906-19.410157 8.707032-19.410157 19.414063zm30.816407 0c0 6.289062-5.117188 11.40625-11.410157 11.40625-6.289062 0-11.410156-5.117188-11.410156-11.40625 0-6.292969 5.117188-11.414063 11.410156-11.414063 6.292969.003906 11.410157 5.121094 11.410157 11.414063zm0 0"/><path d="m99.105469 175.558594c-10.703125 0-19.410157 8.707031-19.410157 19.410156 0 10.707031 8.707032 19.414062 19.410157 19.414062s19.410156-8.707031 19.410156-19.414062c0-10.703125-8.707031-19.410156-19.410156-19.410156zm0 30.820312c-6.289063 0-11.410157-5.121094-11.410157-11.414062 0-6.289063 5.117188-11.410156 11.410157-11.410156 6.289062 0 11.410156 5.121093 11.410156 11.410156 0 6.292968-5.121094 11.414062-11.410156 11.414062zm0 0"/><path d="m99.105469 222.328125c-10.703125 0-19.410157 8.710937-19.410157 19.414063 0 10.703124 8.707032 19.410156 19.410157 19.410156s19.410156-8.707032 19.410156-19.410156c0-10.703126-8.707031-19.414063-19.410156-19.414063zm0 30.820313c-6.289063 0-11.410157-5.117188-11.410157-11.410157s5.117188-11.414062 11.410157-11.414062c6.289062 0 11.410156 5.121093 11.410156 11.414062s-5.121094 11.410157-11.410156 11.410157zm0 0"/><path d="m149.675781 128.789062c-10.699219 0-19.40625 8.707032-19.40625 19.414063 0 10.699219 8.707031 19.40625 19.40625 19.40625 10.703125 0 19.414063-8.707031 19.414063-19.40625 0-10.710937-8.710938-19.414063-19.414063-19.414063zm0 30.816407c-6.289062 0-11.40625-5.117188-11.40625-11.40625 0-6.292969 5.113281-11.414063 11.40625-11.414063s11.414063 5.121094 11.414063 11.414063c0 6.289062-5.117188 11.40625-11.414063 11.40625zm0 0"/><path d="m149.675781 175.558594c-10.699219 0-19.40625 8.707031-19.40625 19.410156 0 10.707031 8.707031 19.414062 19.40625 19.414062 10.703125 0 19.414063-8.707031 19.414063-19.414062 0-10.703125-8.710938-19.410156-19.414063-19.410156zm0 30.820312c-6.289062 0-11.40625-5.121094-11.40625-11.414062 0-6.289063 5.113281-11.410156 11.40625-11.410156s11.414063 5.121093 11.414063 11.410156c0 6.292968-5.117188 11.414062-11.414063 11.414062zm0 0"/><path d="m149.675781 222.328125c-10.699219 0-19.40625 8.710937-19.40625 19.414063 0 10.703124 8.707031 19.410156 19.40625 19.410156 10.703125 0 19.414063-8.707032 19.414063-19.410156 0-10.703126-8.710938-19.414063-19.414063-19.414063zm0 30.820313c-6.289062 0-11.40625-5.117188-11.40625-11.410157s5.113281-11.414062 11.40625-11.414062 11.414063 5.121093 11.414063 11.414062-5.117188 11.410157-11.414063 11.410157zm0 0"/><path d="m304.4375 167.605469c10.703125 0 19.410156-8.707031 19.410156-19.40625 0-10.707031-8.707031-19.414063-19.410156-19.414063-10.707031 0-19.414062 8.707032-19.414062 19.414063 0 10.699219 8.707031 19.40625 19.414062 19.40625zm0-30.816407c6.289062 0 11.410156 5.121094 11.410156 11.414063 0 6.289063-5.117187 11.40625-11.410156 11.40625-6.296875 0-11.414062-5.117187-11.414062-11.40625 0-6.292969 5.121093-11.414063 11.414062-11.414063zm0 0"/><path d="m304.4375 214.378906c10.703125 0 19.410156-8.707031 19.410156-19.414062 0-10.703125-8.707031-19.410156-19.410156-19.410156-10.707031 0-19.414062 8.707031-19.414062 19.410156 0 10.707031 8.707031 19.414062 19.414062 19.414062zm0-30.820312c6.289062 0 11.410156 5.121094 11.410156 11.410156 0 6.292969-5.117187 11.414062-11.410156 11.414062-6.296875 0-11.414062-5.121093-11.414062-11.414062 0-6.289062 5.121093-11.410156 11.414062-11.410156zm0 0"/><path d="m304.4375 261.148438c10.703125 0 19.410156-8.707032 19.410156-19.410157s-8.707031-19.414062-19.410156-19.414062c-10.707031 0-19.414062 8.710937-19.414062 19.414062s8.707031 19.410157 19.414062 19.410157zm0-30.820313c6.289062 0 11.410156 5.121094 11.410156 11.414063 0 6.292968-5.117187 11.410156-11.410156 11.410156-6.296875 0-11.414062-5.117188-11.414062-11.410156 0-6.292969 5.121093-11.414063 11.414062-11.414063zm0 0"/><path d="m355.007812 167.605469c10.703126 0 19.414063-8.707031 19.414063-19.40625 0-10.707031-8.710937-19.414063-19.414063-19.414063-10.703124 0-19.410156 8.707032-19.410156 19.414063.003906 10.699219 8.710938 19.40625 19.410156 19.40625zm0-30.816407c6.292969 0 11.414063 5.121094 11.414063 11.414063 0 6.289063-5.117187 11.40625-11.414063 11.40625-6.296874 0-11.410156-5.117187-11.410156-11.40625 0-6.292969 5.117188-11.414063 11.410156-11.414063zm0 0"/><path d="m355.007812 214.378906c10.703126 0 19.414063-8.707031 19.414063-19.414062 0-10.703125-8.710937-19.410156-19.414063-19.410156-10.703124 0-19.410156 8.707031-19.410156 19.410156 0 10.707031 8.710938 19.414062 19.410156 19.414062zm0-30.820312c6.292969 0 11.414063 5.121094 11.414063 11.410156 0 6.292969-5.117187 11.414062-11.414063 11.414062-6.296874 0-11.410156-5.121093-11.410156-11.414062 0-6.289062 5.117188-11.410156 11.410156-11.410156zm0 0"/><path d="m355.007812 261.148438c10.703126 0 19.414063-8.707032 19.414063-19.410157s-8.710937-19.414062-19.414063-19.414062c-10.703124 0-19.410156 8.710937-19.410156 19.414062s8.710938 19.410157 19.410156 19.410157zm0-30.820313c6.292969 0 11.414063 5.121094 11.414063 11.414063 0 6.292968-5.117187 11.410156-11.414063 11.410156-6.296874 0-11.410156-5.117188-11.410156-11.410156 0-6.292969 5.117188-11.414063 11.410156-11.414063zm0 0"/></g><path d="m137.796875 92.738281-2.835937-7.453125h-24.132813l-2.835937 7.613282c-1.105469 2.972656-2.050782 4.976562-2.832032 6.011718-.785156 1.039063-2.066406 1.558594-3.847656 1.558594-1.511719 0-2.847656-.550781-4.007812-1.660156-1.160157-1.101563-1.746094-2.359375-1.746094-3.761719 0-.808594.136718-1.648437.410156-2.507813.269531-.859374.714844-2.066406 1.335938-3.605468l15.183593-38.546875c.425781-1.105469.953125-2.4375 1.558594-3.988281.609375-1.550782 1.253906-2.839844 1.945313-3.867188.6875-1.023438 1.585937-1.855469 2.710937-2.492188 1.121094-.632812 2.503906-.953124 4.152344-.953124 1.671875 0 3.074219.320312 4.191406.953124 1.117187.636719 2.023437 1.449219 2.714844 2.449219.6875 1 1.265625 2.074219 1.742187 3.222657.472656 1.148437 1.070313 2.679687 1.800782 4.59375l15.507812 38.304687c1.214844 2.917969 1.824219 5.035156 1.824219 6.355469 0 1.378906-.578125 2.640625-1.726563 3.785156-1.144531 1.144531-2.53125 1.71875-4.144531 1.71875-.945313 0-1.757813-.167969-2.429687-.503906-.675782-.335938-1.242188-.792969-1.703126-1.375-.457031-.578125-.949218-1.472656-1.476562-2.671875s-.988281-2.261719-1.359375-3.179688zm-23.808594-16.480469h17.734375l-8.949218-24.496093zm0 0" fill="#fa759e"/><path d="m331.101562 99.457031h-18.140624c-2.621094 0-4.488282-.585937-5.609376-1.757812-1.121093-1.171875-1.679687-3.046875-1.679687-5.609375v-44.621094c0-2.617188.574219-4.5 1.71875-5.648438 1.148437-1.144531 3.003906-1.722656 5.574219-1.722656h19.230468c2.835938 0 5.292969.175782 7.371094.527344 2.082032.351562 3.941406 1.023438 5.585938 2.023438 1.40625.835937 2.648437 1.898437 3.726562 3.175781 1.082032 1.285156 1.90625 2.703125 2.46875 4.253906.574219 1.550781.851563 3.191406.851563 4.917969 0 5.9375-2.96875 10.285156-8.90625 13.039062 7.800781 2.484375 11.699219 7.316406 11.699219 14.496094 0 3.320312-.847657 6.3125-2.550782 8.964844-1.703125 2.660156-3.992187 4.625-6.886718 5.894531-1.808594.753906-3.886719 1.289063-6.234376 1.597656-2.347656.3125-5.09375.46875-8.21875.46875zm-13.410156-50.328125v15.34375h11.015625c2.996094 0 5.308594-.28125 6.945313-.851562 1.632812-.566406 2.878906-1.644532 3.746094-3.238282.671874-1.136718 1.011718-2.40625 1.011718-3.808593 0-2.996094-1.066406-4.988281-3.199218-5.972657-2.132813-.984374-5.386719-1.476562-9.753907-1.476562h-9.765625zm12.511719 23.972656h-12.511719v17.332032h12.917969c8.121094 0 12.1875-2.925782 12.1875-8.789063 0-2.996093-1.054687-5.167969-3.15625-6.519531-2.105469-1.351562-5.25-2.023438-9.4375-2.023438zm0 0" fill="#fa759e"/></svg>