<svg height="484pt" viewBox="-93 0 484 484.452" width="484pt" xmlns="http://www.w3.org/2000/svg"><path d="m226.777344 261.925781c1.089844-1.070312 1.710937-2.457031 1.621094-3.917969-.253907-3.917968-4.664063-5.230468-6.324219-5.722656-2.914063-.863281-5.902344-1.265625-8.878907-1.265625 18.101563-12.371093 31.390626-31.265625 36.492188-53.265625 1.089844.292969 2.1875.5 3.296875.5 9.328125 0 16.632813-9.589844 16.632813-21.832031 0-7.3125-2.640626-13.621094-6.726563-17.566406 6.984375-4.503907 11.617187-12.335938 11.617187-21.261719 0-7.78125-3.515624-14.730469-9.035156-19.375 5.519532-4.644531 9.035156-11.589844 9.035156-19.371094 0-11.988281-8.34375-22.007812-19.535156-24.625 1.886719-3.070312 3.035156-6.65625 3.035156-10.527344 0-11.15625-9.042968-20.199218-20.199218-20.199218-1.847656 0-3.601563.328125-5.300782.792968-1.527343-9.644531-9.808593-17.042968-19.882812-17.042968-4.59375 0-8.777344 1.59375-12.167969 4.175781-2.15625-8.835937-10.070312-15.421875-19.574219-15.421875-7.644531 0-14.222656 4.304688-17.65625 10.570312-3.425781-6.265624-10.003906-10.570312-17.652343-10.570312-9.5 0-17.417969 6.585938-19.574219 15.421875-3.390625-2.582031-7.574219-4.175781-12.167969-4.175781-10.070312 0-18.355469 7.398437-19.882812 17.042968-1.699219-.464843-3.453125-.792968-5.300781-.792968-11.15625 0-20.199219 9.042968-20.199219 20.199218 0 3.871094 1.144531 7.457032 3.035156 10.527344-11.191406 2.617188-19.535156 12.632813-19.535156 24.625 0 7.78125 3.515625 14.726563 9.035156 19.371094-5.519531 4.644531-9.035156 11.59375-9.035156 19.375 0 8.925781 4.636719 16.757812 11.617187 21.261719-4.085937 3.945312-6.726562 10.253906-6.726562 17.566406 0 12.242187 7.304687 21.832031 16.632812 21.832031 1.109375 0 2.207032-.203125 3.296875-.5 5.839844 25.175782 22.402344 46.28125 44.617188 58.207032-53.332031 9.011718-94.089844 55.5-94.089844 111.359374v54.359376c-2.25 2.796874-4.039063 5.960937-5.316406 9.375-1.242188 1.929687-2.28125 3.980468-3.09375 6.140624-2.566407 6.835938-4.585938 17.027344.371093 26.738282 4.597657 9.003906 14.222657 15.566406 28.59375 19.496094 2.480469.679687 5.230469 1.023437 8.167969 1.023437h54.207031c7.761719 0 15.042969-2.820313 20.804688-7.5h48.59375c.007812 0 .011719-.003906.015625-.003906 5.558594-.003907 10.796875-1.375 15.433594-3.75h36.175781c.089844.007812.167969.054687.257812.054687h63.640626c2.210937 0 4-1.792968 4-4v-101.9375c.011718-47.984375-30.074219-89.050781-72.371094-105.390625zm0 0" fill="#e6e7e8"/><path d="m236.988281 142.585938c-1.773437 0-3.457031.523437-4.988281 1.453124v17.65625c0 4.835938-.425781 9.570313-1.203125 14.179688 1.835937 1.46875 3.925781 2.378906 6.191406 2.378906 6.976563 0 12.632813-7.984375 12.632813-17.839844 0-9.851562-5.65625-17.828124-12.632813-17.828124zm0 0" fill="#fff"/><path d="m62.464844 161.695312v-17.65625c-1.53125-.929687-3.214844-1.453124-4.988282-1.453124-6.976562 0-12.632812 7.980468-12.632812 17.835937 0 9.851563 5.65625 17.835937 12.632812 17.835937 2.261719 0 4.355469-.910156 6.191407-2.378906-.78125-4.613281-1.203125-9.347656-1.203125-14.183594zm0 0" fill="#fff"/><path d="m170.195312 244.210938h-45.925781c-60.179687 0-108.96875 48.789062-108.96875 108.96875v99.996093h263.859375v-100c0-60.179687-48.785156-108.964843-108.964844-108.964843zm0 0" fill="#fff"/><path d="m170.195312 253.605469h-45.925781c-60.179687 0-108.96875 48.785156-108.96875 108.964843v90.605469h263.859375v-90.609375c0-60.179687-48.785156-108.960937-108.964844-108.960937zm0 0" fill="#6dc9f7"/><path d="m137.355469 287.378906 13.550781-13.644531c-1.210938.132813-2.429688.222656-3.671875.222656-17.019531 0-31.027344-12.785156-33-29.269531-4.613281.421875-9.136719 1.136719-13.5625 2.113281 2.226563 20.140625 17.207031 36.394531 36.683594 40.578125zm0 0" fill="#ffd7e5"/><path d="m147.234375 246.464844c-11.808594 0-23.054687-2.421875-33.265625-6.785156v1.007812c0 18.371094 14.890625 33.265625 33.265625 33.265625 18.371094 0 33.261719-14.894531 33.261719-33.265625v-1.007812c-10.214844 4.363281-21.457032 6.785156-33.261719 6.785156zm0 0" fill="#fff"/><path d="m220.515625 114.296875c-11.15625 0-20.199219-9.042969-20.199219-20.199219 0-.054687.015625-.097656.015625-.148437-3.355469 2.476562-7.460937 3.992187-11.953125 3.992187-9.96875 0-18.203125-7.242187-19.851562-16.742187-3.007813 8.886719-11.394532 15.289062-21.292969 15.289062-9.902344 0-18.289063-6.402343-21.296875-15.289062-1.648438 9.5-9.882812 16.742187-19.851562 16.742187-4.492188 0-8.597657-1.515625-11.953126-3.992187 0 .050781.015626.09375.015626.148437 0 11.15625-9.042969 20.199219-20.199219 20.199219-4.273438 0-8.222657-1.34375-11.484375-3.609375v51.007812c0 46.816407 37.953125 84.769532 84.769531 84.769532 46.8125 0 84.765625-37.953125 84.765625-84.769532v-51.007812c-3.261719 2.265625-7.210938 3.609375-11.484375 3.609375zm0 0" fill="#fff"/><path d="m49.96875 375.410156h-34.667969v17.757813h17.039063zm0 0" fill="#ffd7e5"/><path d="m215.519531 393.167969h63.640625v60.089843h-63.640625zm0 0" fill="#fff"/><path d="m215.519531 375.410156h63.640625v17.757813h-63.640625zm0 0" fill="#ffd7e5"/><path d="m163.628906 396.914062h-21.523437l-20.601563 48.46875c-1.664062 4.558594-4.417968 8.464844-7.867187 11.570313h49.996093c16.507813 0 30.015626-13.507813 30.015626-30.015625 0-16.511719-13.507813-30.023438-30.019532-30.023438zm0 0" fill="#fff"/><path d="m176.757812 247.691406-163.574218 164.777344c-2.867188 2.886719-5.109375 6.328125-6.542969 10.136719-4.113281 10.933593-6.914063 31.894531 26.273437 40.960937 2.308594.632813 4.714844.882813 7.109376.882813h54.210937c12.191406 0 23.082031-7.617188 27.265625-19.066407l85.789062-201.835937s3.691407-1.636719-2.355468-3.429687c-10-2.96875-20.828125.171874-28.175782 7.574218zm0 0" fill="#fa759e"/><g fill="#3a2c60"><path d="m210.710938 245.992188c1.136718-1.078126 1.78125-2.496094 1.6875-3.984376-.253907-3.917968-4.664063-5.230468-6.324219-5.722656-2.914063-.863281-5.902344-1.265625-8.875-1.265625 18.09375-12.367187 31.378906-31.253906 36.484375-53.246093 1.089844.300781 2.195312.480468 3.304687.480468 9.328125 0 16.632813-9.589844 16.632813-21.832031 0-7.3125-2.640625-13.625-6.722656-17.566406 6.976562-4.503907 11.613281-12.335938 11.613281-21.261719 0-7.78125-3.515625-14.730469-9.035157-19.375 5.519532-4.644531 9.035157-11.589844 9.035157-19.371094 0-11.988281-8.34375-22.007812-19.535157-24.625 1.886719-3.070312 3.035157-6.65625 3.035157-10.527344 0-11.15625-9.042969-20.199218-20.199219-20.199218-1.847656 0-3.601562.328125-5.300781.792968-1.527344-9.644531-9.808594-17.042968-19.882813-17.042968-4.59375 0-8.777344 1.59375-12.167968 4.175781-2.15625-8.835937-10.070313-15.421875-19.574219-15.421875-7.644531 0-14.222657 4.304688-17.652344 10.570312-3.429687-6.265624-10.007813-10.570312-17.65625-10.570312-9.5 0-17.417969 6.585938-19.574219 15.421875-3.390625-2.582031-7.574218-4.175781-12.167968-4.175781-10.070313 0-18.355469 7.398437-19.882813 17.042968-1.699219-.464843-3.453125-.792968-5.300781-.792968-11.15625 0-20.199219 9.042968-20.199219 20.199218 0 3.871094 1.144531 7.457032 3.035156 10.527344-11.191406 2.617188-19.535156 12.632813-19.535156 24.625 0 7.78125 3.515625 14.726563 9.035156 19.371094-5.519531 4.644531-9.035156 11.59375-9.035156 19.375 0 8.925781 4.632813 16.757812 11.617187 21.261719-4.085937 3.945312-6.726562 10.253906-6.726562 17.566406 0 12.242187 7.304688 21.832031 16.632812 21.832031 1.113282 0 2.214844-.179687 3.308594-.480468 5.84375 25.171874 22.40625 46.269531 44.621094 58.191406-53.339844 9.007812-94.105469 55.496094-94.105469 111.355468v54.402344c-2.273437 2.828125-4.117187 6.011719-5.394531 9.476563-1.207031 1.890625-2.21875 3.890625-3.007812 6-2.570313 6.835937-4.589844 17.027343.367187 26.738281 4.597656 9.007812 14.222656 15.566406 28.589844 19.496094 2.480469.679687 5.230469 1.023437 8.167969 1.023437h54.214843c7.757813 0 15.035157-2.820312 20.796875-7.5h48.59375c.007813 0 .011719-.003906.015625-.003906 5.558594-.003906 10.796875-1.375 15.4375-3.75h36.175781c.089844.007813.167969.054687.257813.054687h63.644531c2.210938 0 4-1.792968 4-4v-101.9375c.003906-48-30.140625-88.996093-72.449218-105.328124zm64.453124 143.175781h-55.644531v-9.757813h55.644531zm-55.644531 60.035156v-52.035156h55.644531v52.035156zm55.644531-77.792969h-55.652343v-24.203125c0-2.207031-1.789063-4-4-4-2.210938 0-4 1.792969-4 4v89.105469c0 .011719.007812.023438.007812.039062v12.851563h-22.230469c5.191407-5.972656 8.359376-13.746094 8.359376-22.265625 0-18.757812-15.261719-34.015625-34.019532-34.015625h-15.480468l59.335937-139.601563c13.761719 5.25 26.152344 13.269532 36.449219 23.4375-6.921875 3.578126-13.179688 8.429688-18.210938 14.363282-1.425781 1.683594-1.222656 4.210937.464844 5.640625.753906.632812 1.667969.945312 2.585938.945312 1.136718 0 2.257812-.480469 3.054687-1.410156 4.847656-5.71875 10.996094-10.304687 17.8125-13.453125 15.890625 18.390625 25.527344 42.324219 25.527344 68.480469v20.085937zm-130.414062 29.503906h8.417969l-14.992188 51.042969c-.09375.332031-.074219.664063-.082031.996094h-15.949219c1.1875-1.890625 2.257813-3.863281 3.035157-6zm37.929688 8.359376c4.308593 4.640624 6.96875 10.839843 6.96875 17.660156 0 12.40625-8.738282 22.800781-20.382813 25.382812zm-21.996094 43.679687h-14.457032l15.285157-52.039063h2.117187c4.449219 0 8.640625 1.128907 12.304688 3.105469zm-24.5625-170.007813c-15.550782-4.15625-27.738282-16.78125-30.929688-32.976562 1.914063-.351562 3.828125-.652344 5.75-.898438.058594.257813.144532.5.207032.753907.191406.753906.378906 1.511719.617187 2.246093.101563.328126.238281.644532.351563.972657.375 1.0625.792968 2.097656 1.253906 3.109375.292968.640625.585937 1.285156.914062 1.902344.195313.375.414063.726562.625 1.089843.359375.628907.722656 1.25 1.113282 1.855469.21875.332031.449218.65625.675781.980469.429687.613281.875 1.214843 1.332031 1.800781.234375.289062.46875.578125.710938.863281.503906.597657 1.027343 1.179688 1.566406 1.742188.230468.246093.460937.488281.699218.726562.613282.605469 1.253907 1.1875 1.90625 1.75.191407.167969.378907.34375.574219.507813 1.738281 1.441406 3.605469 2.726562 5.585938 3.832031.238281.136719.492187.25.730469.382813.738281.390624 1.492187.769531 2.261718 1.113281.355469.160156.71875.304687 1.082032.453125.683593.28125 1.371093.542968 2.070312.785156.402344.132812.804688.261719 1.214844.386719.703125.210937 1.414062.402343 2.132812.574219.398438.097656.796875.199218 1.207032.28125.585937.121093 1.183593.214843 1.777343.308593zm-6.347656 6.394532-46.820313 47.164062v-6.675781c0-22.539063-12.574219-42.953125-32.378906-53.164063 12.753906-12.59375 28.710937-21.945312 46.523437-26.722656 3.039063 18.441406 15.8125 33.246094 32.675782 39.398438zm19.394531-19.539063c-.648438.042969-1.277344.15625-1.933594.15625-.917969 0-1.824219-.046875-2.722656-.128906-.199219-.019531-.390625-.058594-.585938-.082031-.691406-.078125-1.386719-.160156-2.0625-.285156-.257812-.050782-.507812-.121094-.761719-.175782-.609374-.132812-1.21875-.261718-1.808593-.429687-.285157-.078125-.554688-.183594-.835938-.269531-.550781-.175782-1.105469-.347657-1.640625-.550782-.3125-.121094-.617187-.261718-.925781-.390625-.480469-.203125-.96875-.40625-1.4375-.632812-.339844-.164063-.664063-.351563-.992187-.53125-.425782-.226563-.847657-.449219-1.257813-.691407-.347656-.214843-.683594-.441406-1.023437-.667968-.367188-.246094-.742188-.480469-1.097657-.742188-.347656-.25-.679687-.527344-1.023437-.792968-.324219-.261719-.65625-.519532-.972656-.792969-.332032-.289063-.644532-.59375-.960938-.894531-.300781-.28125-.605469-.566407-.898438-.867188-.292968-.308594-.578124-.628906-.863281-.945312-.28125-.324219-.570312-.644532-.84375-.980469-.25-.3125-.488281-.632813-.726562-.957031-.28125-.375-.558594-.757813-.824219-1.148438-.199219-.296875-.382812-.597656-.570312-.898438-.277344-.449218-.554688-.898437-.804688-1.363281-.144531-.257812-.28125-.527343-.417969-.792969-.269531-.535156-.53125-1.074218-.769531-1.625-.09375-.210937-.183594-.429687-.269531-.644531-.257813-.628906-.492188-1.269531-.703125-1.917969-.054688-.152343-.101563-.308593-.144532-.464843-.222656-.730469-.425781-1.46875-.589843-2.222657-.019531-.09375-.042969-.191406-.0625-.289062-.019531-.089844-.027344-.179688-.042969-.269531.730469-.039063 1.472656-.046875 2.207031-.070313 1.460938.453125 2.9375.875 4.425781 1.253906.25.066407.5.113282.753907.171876 2.035156.503906 4.105469.929687 6.191406 1.289062.21875.035156.441406.082031.664063.121094 2.261718.371094 4.542968.648437 6.855468.84375.15625.011718.316406.023437.472656.035156 2.335938.183594 4.6875.308594 7.074219.308594 2.382813 0 4.734375-.125 7.074219-.308594.152344-.011719.308594-.023438.460938-.035156 2.316406-.195313 4.605468-.472656 6.871093-.84375.214844-.039063.425781-.082032.640625-.117188 2.101563-.359375 4.183594-.789062 6.230469-1.296875.242187-.058593.480469-.101562.722656-.167969.875-.222656 1.734375-.484374 2.601563-.730468zm96.453125-109.378906c0 8.464844-5.074219 15.652344-10.46875 13.453125.015625-.121094.019531-.242188.039062-.367188.226563-1.683593.402344-3.382812.527344-5.097656.03125-.359375.0625-.71875.085938-1.074218.117187-1.863282.195312-3.738282.195312-5.636719v-14.960938c.132812-.015625.261719-.042969.390625-.058593 4.851563-.589844 9.230469 5.925781 9.230469 13.742187zm-186.308594 13.453125c-5.382812 2.195312-10.46875-4.988281-10.46875-13.453125 0-7.496094 3.949219-13.828125 8.625-13.835937.332031.050781.660156.113281.996094.148437v14.960937c0 1.898438.078125 3.773438.195312 5.636719.023438.359375.054688.714844.085938 1.074219.125 1.714844.300781 3.414062.527344 5.097656.015624.125.023437.25.039062.371094zm7.152344-12.179688v-44.585937c2.398437.78125 4.914062 1.1875 7.480468 1.1875 11.210938 0 20.664063-7.660156 23.402344-18.019531 2.777344 1.09375 5.726563 1.664062 8.742188 1.664062 8.5625 0 16.191406-4.464844 20.488281-11.371094 4.925781 6.148438 12.457031 9.917969 20.660156 9.917969 8.195313 0 15.726563-3.769531 20.652344-9.917969 4.296875 6.910157 11.925781 11.371094 20.488281 11.371094 3.019532 0 5.960938-.570312 8.742188-1.664062 2.738281 10.359375 12.191406 18.019531 23.402344 18.019531 2.566406 0 5.085937-.40625 7.480468-1.1875v44.585937c0 44.535157-36.234375 80.769532-80.765625 80.769532-44.535156 0-80.773437-36.234375-80.773437-80.769532zm-21.621094 121.113282c18.328125 8.464844 30.109375 26.726562 30.109375 47.019531v14.734375l-26.652344 26.847656h-29v-20.089844c0-26.167968 9.648438-50.109374 25.542969-68.511718zm-25.542969 114.359375h2.179688c-.742188.40625-1.46875.851562-2.179688 1.316406zm11.375-8h-11.375v-9.757813h21.058594zm9.347657 71.285156c-2.226563 0-4.261719-.25-6.058594-.742187-12.113282-3.3125-20.042969-8.496094-23.582032-15.414063-3.625-7.105469-2.003906-14.953125-.003906-20.28125 1.230469-3.253906 3.125-6.191406 5.640625-8.726563l163.574219-164.773437c6.261719-6.3125 15.113281-8.859375 23.28125-6.8125l-85.128906 200.3125c-3.59375 9.832031-13.046875 16.4375-23.511719 16.4375zm0 0"/><path d="m222.339844 302.777344c-2.023438-.933594-4.386719-.054688-5.3125 1.949218-3.660156 7.921876-5.515625 16.367188-5.515625 25.097657 0 2.207031 1.789062 4 4 4 2.210937 0 4-1.792969 4-4 0-7.5625 1.609375-14.878907 4.78125-21.746094.921875-2 .050781-4.375-1.953125-5.300781zm0 0"/><path d="m109.832031 141.351562c-4.679687 0-8.476562 3.796876-8.476562 8.476563s3.796875 8.476563 8.476562 8.476563c4.679688 0 8.476563-3.796876 8.476563-8.476563.003906-4.679687-3.792969-8.476563-8.476563-8.476563zm0 0"/><path d="m184.628906 141.351562c-4.679687 0-8.476562 3.796876-8.476562 8.476563s3.796875 8.476563 8.476562 8.476563c4.679688 0 8.476563-3.796876 8.476563-8.476563.003906-4.679687-3.792969-8.476563-8.476563-8.476563zm0 0"/><path d="m147.234375 191.558594c7.519531 0 13.632813-6.117188 13.632813-13.636719v-5.652344c0-2.210937-1.785157-4-4-4-2.210938 0-4 1.789063-4 4v5.652344c0 3.105469-2.527344 5.636719-5.632813 5.636719-3.109375 0-5.640625-2.53125-5.640625-5.636719v-5.652344c0-2.210937-1.789062-4-4-4-2.214844 0-4 1.789063-4 4v5.652344c0 7.523437 6.117188 13.636719 13.640625 13.636719zm0 0"/><path d="m178.136719 133.660156 16.597656 2.890625c.234375.042969.460937.0625.691406.0625 1.910157 0 3.59375-1.371093 3.933594-3.3125.382813-2.175781-1.078125-4.25-3.25-4.628906l-16.597656-2.890625c-2.210938-.359375-4.25 1.078125-4.628907 3.25-.378906 2.175781 1.078126 4.25 3.253907 4.628906zm0 0"/><path d="m114.953125 125.777344-16.597656 2.890625c-2.175781.378906-3.632813 2.453125-3.25 4.628906.339843 1.941406 2.027343 3.3125 3.933593 3.3125.230469 0 .457032-.019531.695313-.0625l16.59375-2.890625c2.175781-.378906 3.632813-2.453125 3.253906-4.628906-.378906-2.171875-2.421875-3.617188-4.628906-3.25zm0 0"/><path d="m169.203125 203.457031c1.328125-1.753906.984375-4.242187-.753906-5.582031-1.75-1.332031-4.25-1.011719-5.601563.730469-.226562.289062-5.652344 7.109375-15.605468 7.109375-10.152344 0-15.304688-6.699219-15.558594-7.039063-1.296875-1.773437-3.777344-2.167969-5.570313-.882812-1.792969 1.292969-2.195312 3.792969-.90625 5.582031.304688.421875 7.625 10.335938 22.03125 10.335938 14.03125.003906 21.644531-9.839844 21.964844-10.253907zm0 0"/></g></svg>