<svg height="486pt" viewBox="0 -47 486.07181 486" width="486pt" xmlns="http://www.w3.org/2000/svg"><path d="m484.261719 335.984375-28.332031-69.914063c-5.714844-14.101562-18.066407-24.140624-33.035157-26.855468l-38.488281-6.984375c-1.726562-3.105469-3.621094-6.148438-5.671875-9.105469-2.21875-3.207031-4.601563-6.25-7.113281-9.15625l-2.144532-80.789062c-.269531-9.9375-4.65625-19.171876-11.984374-25.636719 8.765624-7.492188 13.863281-18.664063 13.550781-30.316407-.273438-10.28125-4.535157-19.84375-12-26.917968-7.464844-7.078125-17.171875-10.84375-27.519531-10.546875-21.230469.5625-38.035157 18.289062-37.476563 39.519531.308594 11.421875 5.792969 22.082031 14.632813 29.105469l-41.796876 22.773437c-11.6875 6.367188-16.015624 21.054688-9.648437 32.738282l8.625 15.832031c-40.339844 9.535156-73.308594 42.082031-81.164063 85.398437-10.578124 58.296875 28.246094 114.332032 86.539063 124.90625 6.457031 1.171875 12.886719 1.738282 19.230469 1.738282 50.921875 0 96.269531-36.441407 105.679687-88.277344 1.152344-6.375 1.707031-12.769532 1.722657-19.117188l3.578124.648438c6.347657 1.152344 11.585938 5.414062 14.011719 11.390625l23.480469 57.929687c3.847656 9.5 13.023438 15.273438 22.695312 15.273438 3.058594 0 6.15625-.578125 9.15625-1.792969 6.054688-2.457031 10.789063-7.121094 13.335938-13.136719 2.550781-6.015625 2.59375-12.65625.136719-18.707031zm-127.175781-32.875c-.207032.742187-.480469 1.457031-.710938 2.195313-.421875 1.332031-.839844 2.664062-1.339844 3.960937-.359375.929687-.78125 1.839844-1.179687 2.753906-.453125 1.042969-.902344 2.089844-1.40625 3.109375-.5 1.007813-1.054688 1.992188-1.601563 2.976563-2.59375 4.640625-5.703125 8.96875-9.316406 12.910156-.734375.800781-1.476562 1.585937-2.246094 2.351563-.804687.804687-1.644531 1.578124-2.5 2.339843-.730468.65625-1.457031 1.320313-2.214844 1.945313-1.515624 1.25-3.0625 2.472656-4.699218 3.605468-3.285156 2.273438-6.742188 4.183594-10.289063 5.84375-.824219.382813-1.640625.777344-2.472656 1.125-1.242187.523438-2.507813.980469-3.773437 1.425782-.679688.238281-1.347657.519531-2.035157.734375-1.914062.609375-3.855469 1.125-5.808593 1.566406-.648438.144531-1.308594.238281-1.960938.367187-1.40625.273438-2.8125.519532-4.234375.699219-.75.097657-1.503906.164063-2.257813.238281-1.351562.125-2.710937.21875-4.078124.265626-.761719.027343-1.527344.046874-2.289063.046874-1.429687.003907-2.859375-.054687-4.296875-.136718-.679688-.042969-1.355469-.0625-2.035156-.121094-2.097656-.1875-4.191406-.449219-6.289063-.828125-18.207031-3.304687-34.039062-13.5-44.578125-28.710937-10.542968-15.210938-14.527344-33.613282-11.222656-51.820313.40625-2.234375.929688-4.410156 1.53125-6.550781.199219-.695313.453125-1.363282.667969-2.050782.453125-1.417968.914062-2.835937 1.449219-4.210937.304687-.785156.65625-1.542969.988281-2.3125.535156-1.234375 1.085937-2.460937 1.683593-3.65625.390626-.777344.808594-1.53125 1.226563-2.289063.632813-1.140624 1.285156-2.261718 1.972656-3.359374.460938-.726563.929688-1.449219 1.417969-2.15625.734375-1.078126 1.503906-2.128907 2.300781-3.160157.507813-.660156 1.011719-1.316406 1.539063-1.957031.867187-1.042969 1.773437-2.050781 2.699218-3.039062.519532-.554688 1.023438-1.128907 1.558594-1.664063 1.074219-1.074219 2.199219-2.09375 3.332032-3.097656.445312-.394531.867187-.804688 1.316406-1.183594 3.261718-2.730469 6.761718-5.152344 10.460937-7.246094.472657-.269531.96875-.492187 1.445313-.746093 1.378906-.742188 2.773437-1.457032 4.207031-2.101563.660156-.296875 1.339844-.554687 2.011719-.832031 1.289062-.53125 2.585937-1.042969 3.902344-1.5.753906-.261719 1.519531-.488282 2.28125-.722656 1.277343-.394532 2.566406-.753907 3.867187-1.074219.808594-.195313 1.617187-.375 2.433594-.542969 1.300781-.269531 2.613281-.492188 3.933593-.683594.824219-.121094 1.652344-.246094 2.488282-.332031.753906-.082031 1.519531-.109375 2.273437-.167969l.210938.386719c3.214843 5.898437 9.304687 9.238281 15.585937 9.238281 2.863282 0 5.757813-.695312 8.445313-2.15625 1.734375-.945312 3.183593-2.191406 4.453125-3.570312 13.46875 4.835937 25.109375 13.648437 33.417968 25.648437 10.539063 15.210938 14.523438 33.617188 11.21875 51.824219-.386718 2.171875-.894531 4.3125-1.484374 6.421875zm-57.636719-135.773437-5.703125-10.464844 5.347656-2.910156zm0 0" fill="#e6e7e8"/><path d="m295.40625 256.800781c-15.210938-2.753906-29.75 7.351563-32.507812 22.519531-1.332032 7.347657.277343 14.777344 4.53125 20.914063 4.253906 6.140625 10.644531 10.253906 17.992187 11.589844 1.6875.308593 3.375.457031 5.054687.457031 5.632813 0 11.128907-1.710938 15.867188-4.988281 6.136719-4.253907 10.25-10.644531 11.585938-17.992188 2.753906-15.164062-7.351563-29.746093-22.523438-32.5zm0 0" fill="#e6e7e8"/><path d="m170.265625 308.984375c-1.320313-8.648437-4.019531-16.972656-8.023437-24.75l-27.707032-53.785156 5.492188-63.84375 55.238281 29.628906c2.566406 1.28125 5.390625 1.925781 8.21875 1.925781 2.074219 0 4.15625-.347656 6.132813-1.050781 7.074218-2.511719 11.746093-8.726563 12.195312-16.214844.445312-7.492187-3.445312-14.21875-10.167969-17.558593l-46.738281-23.226563-24.953125-41.292969c-.078125-.132812-.203125-.203125-.292969-.324218-2.929687-5.292969-7.105468-9.875-12.332031-13.171876 9.710937-7.148437 15.679687-18.601562 15.679687-30.910156 0-21.160156-17.21875-38.375-38.378906-38.375-21.15625 0-38.375 17.214844-38.375 38.375 0 10.78125 4.597656 20.992188 12.378906 28.183594-12.125 5.125-20.773437 16.601562-21.980468 30.175781l-10.882813 126.085938c-.015625.195312-.019531.394531-.003906.59375l-4.40625 54.027343c-.800781 9.78125-3.175781 19.308594-7.070313 28.320313l-16.808593 38.9375c-2.449219 6.878906-1.832031 14.234375 1.691406 20.183594 3.386719 5.726562 8.984375 9.472656 15.746094 10.5625 10.824219 1.71875 21.351562-4.476563 24.949219-14.582031l23.140624-55.503907c3.097657-7.441406 5.0625-15.285156 5.835938-23.304687l4.101562-42.753906 22.386719 41.4375c4.914063 9.097656 8.199219 18.898437 9.757813 29.121093l7.121094 46.617188c1.703124 11.160156 11.136718 19.261719 22.417968 19.261719h1.871094c6.617188 0 12.890625-2.882813 17.203125-7.90625 4.316406-5.019532 6.214844-11.660157 5.21875-18.203126zm0 0" fill="#e6e7e8"/><path d="m464.558594 321.484375-28.332032-69.914063c-5.167968-12.75-16.503906-21.964843-30.039062-24.421874l-40.421875-7.332032c7.074219 13.300782 11.285156 28.195313 11.984375 43.753906l8.414062 1.53125c7.664063 1.390626 14.078126 6.605469 17.003907 13.824219l23.476562 57.925781c4.242188 10.472657 16.171875 15.519532 26.636719 11.277344 10.46875-4.246094 15.519531-16.171875 11.277344-26.644531zm0 0" fill="#fa759e"/><path d="m287.835938 165.738281c1.679687.222657 3.359374.480469 5.046874.785157 23.664063 4.292968 43.953126 16.335937 58.78125 33.015624l-2.1875-82.25c-.292968-10.90625-6.101562-20.359374-14.6875-25.777343 10.03125-6.269531 16.59375-17.5 16.253907-30.175781-.507813-19.050782-16.363281-34.089844-35.417969-33.578126-19.050781.507813-34.085938 16.363282-33.578125 35.414063.335937 12.675781 7.488281 23.539063 17.835937 29.269531-.785156.554688-1.511718 1.175782-2.238281 1.796875l-44.851562 24.433594c-9.761719 5.320313-13.367188 17.546875-8.046875 27.3125l28.21875 51.796875c3.625 6.652344 11.953125 9.101562 18.605468 5.480469 6.652344-3.625 9.105469-11.953125 5.484376-18.605469l-24.730469-45.382812 14.59375-7.953126zm0 0" fill="#fa759e"/><path d="m292.882812 166.523438c-2.074218-.375-4.144531-.667969-6.210937-.914063l10.378906 19.050781c2.464844 4.523438 2.0625 9.792969-.503906 13.859375 34.660156 10.953125 56.628906 46.164063 49.96875 82.871094-7.226563 39.820313-45.359375 66.246094-85.179687 59.019531-39.820313-7.222656-66.246094-45.359375-59.019532-85.179687 6.246094-34.433594 35.621094-58.800781 69.203125-60.101563l-15.589843-28.613281c-41.191407 7.488281-75.386719 39.703125-83.304688 83.328125-10.199219 56.214844 27.105469 110.054688 83.320312 120.257812 56.21875 10.199219 110.058594-27.105468 120.257813-83.320312 10.199219-56.21875-27.105469-110.058594-83.320313-120.257812zm0 0" fill="#0089ef"/><path d="m298.378906 268.3125c0 13.234375-10.730468 23.964844-23.964844 23.964844-13.234374 0-23.964843-10.730469-23.964843-23.964844s10.730469-23.964844 23.964843-23.964844c13.234376 0 23.964844 10.730469 23.964844 23.964844zm0 0" fill="#0089ef"/><path d="m158.972656 350.28125-8.65625-56.6875c-1.253906-8.203125-3.828125-16.144531-7.628906-23.523438l-28.238281-54.808593 9.667969-112.410157c1.339843-15.035156-7.832032-28.375-21.191407-33.203124 11.835938-5.429688 20.078125-17.355469 20.078125-31.234376 0-18.980468-15.394531-34.375-34.378906-34.375-18.980469 0-34.375 15.394532-34.375 34.375 0 12.730469 6.9375 23.816407 17.214844 29.757813-14.269532 2.371094-25.515625 14.101563-26.835938 28.945313l-10.878906 126.089843h.039062l-4.449218 54.605469c-.832032 10.195312-3.324219 20.1875-7.382813 29.574219l-16.714843 38.695312c-4.101563 11.523438 2.238281 23.519531 14.308593 25.457031 9.074219 1.457032 17.636719-3.789062 20.625-12.167968l23.136719-55.503906c2.941406-7.0625 4.8125-14.53125 5.546875-22.152344l5.363281-55.828125 28.628906 52.996093c5.121094 9.480469 8.566407 19.773438 10.195313 30.421876l7.121094 46.613281c1.390625 9.125 9.238281 15.863281 18.464843 15.863281h1.871094c11.441406 0 20.195313-10.191406 18.46875-21.5zm0 0" fill="#fff"/><path d="m193.1875 150.589844-47.097656-23.410156-25.558594-42.296876-.03125.027344c-3.726562-7.007812-9.964844-12.515625-17.570312-15.261718 11.835937-5.429688 20.078124-17.355469 20.078124-31.234376 0-16.933593-12.257812-30.972656-28.378906-33.816406-16.117187 2.84375-28.375 16.882813-28.375 33.816406 0 9.550782 3.902344 18.167969 10.1875 24.394532 2.417969 2.390625 1.960938 6.449218-1.128906 7.867187-10.222656 4.691407-17.621094 14.570313-18.683594 26.445313l-10.878906 126.089844h.039062l-4.449218 54.605468c-.832032 10.195313-3.324219 20.1875-7.382813 29.574219l-16.714843 38.699219c-3.738282 10.492187 1.207031 21.363281 11.25 24.679687 5.335937-1.789062 9.71875-5.894531 11.683593-11.398437l23.136719-55.503906c2.941406-7.0625 4.8125-14.53125 5.546875-22.152344l5.363281-55.828125 28.628906 52.996093c5.121094 9.480469 8.566407 19.769532 10.195313 30.421876l7.121094 46.613281c1.390625 9.125 9.238281 15.863281 18.464843 15.863281h1.871094c11.441406 0 20.195313-10.191406 18.46875-21.503906l-8.65625-56.683594c-1.253906-8.203125-3.828125-16.144531-7.628906-23.523438l-28.238281-54.808593 6.113281-71.050781 60.488281 32.453124c4.308594 2.148438 9.46875 2.023438 13.726563-.484374 9.820312-5.78125 8.609375-20.523438-1.589844-25.589844zm0 0" fill="#6dc9f7"/><g fill="#3a2c60"><path d="m468.261719 319.984375-28.332031-69.917969c-5.714844-14.097656-18.066407-24.136718-33.035157-26.855468l-38.488281-6.980469c-1.726562-3.105469-3.621094-6.148438-5.671875-9.105469-2.21875-3.207031-4.605469-6.25-7.113281-9.15625l-2.144532-80.789062c-.269531-9.933594-4.65625-19.167969-11.984374-25.632813 8.765624-7.492187 13.863281-18.664063 13.550781-30.316406-.566407-21.222657-18.464844-38.023438-39.519531-37.46875-21.230469.5625-38.035157 18.292969-37.476563 39.523437.308594 11.421875 5.792969 22.082032 14.632813 29.101563l-41.796876 22.773437c-5.664062 3.082032-9.785156 8.1875-11.605468 14.371094-1.820313 6.183594-1.125 12.703125 1.957031 18.367188l8.613281 15.808593c-12.953125 3.039063-25.355468 8.480469-36.625 16.285157-23.59375 16.34375-39.40625 40.898437-44.527344 69.140624-5.125 28.238282 1.054688 56.78125 17.398438 80.375s40.902344 39.40625 69.140625 44.527344c6.476563 1.175782 12.964844 1.757813 19.414063 1.757813 21.652343 0 42.78125-6.5625 60.960937-19.160157 23.59375-16.34375 39.410156-40.902343 44.535156-69.140624 1.152344-6.375 1.703125-12.769532 1.722657-19.117188l3.578124.652344c6.347657 1.152344 11.585938 5.410156 14.011719 11.390625l23.480469 57.929687c2.453125 6.054688 7.117188 10.792969 13.132812 13.335938 3.070313 1.296875 6.296876 1.949218 9.527344 1.949218 3.109375 0 6.226563-.601562 9.191406-1.804687 12.488282-5.0625 18.539063-19.347656 13.472657-31.84375zm-185.167969-182.027344.355469 13.375-5.699219-10.464843zm-36.144531-6.160156c1.222656-4.136719 3.976562-7.550781 7.761719-9.609375l45.316406-24.691406c.488281-.265625.894531-.617188 1.21875-1.023438.316406-.257812.617187-.527344.949218-.765625 1.121094-.796875 1.753907-2.109375 1.679688-3.488281-.078125-1.371094-.851562-2.609375-2.054688-3.273438-9.441406-5.226562-15.488281-15.136718-15.773437-25.875-.445313-16.820312 12.871094-30.863281 29.6875-31.3125 16.933594-.363281 30.863281 12.871094 31.308594 29.6875.289062 10.730469-5.21875 20.949219-14.371094 26.671876-1.164063.730468-1.878906 2.007812-1.882813 3.382812-.003906 1.375.703126 2.660156 1.867188 3.390625 7.777344 4.914063 12.574219 13.324219 12.820312 22.5l1.914063 72.050781c-3.683594-3.425781-7.589844-6.574218-11.695313-9.425781-.152343-.105469-.304687-.207031-.457031-.3125-1.8125-1.242187-3.660156-2.433594-5.546875-3.5625-.265625-.160156-.523437-.324219-.789062-.480469-1.957032-1.148437-3.949219-2.242187-5.980469-3.261718-.445313-.222657-.898437-.429688-1.351563-.652344-1.605468-.777344-3.226562-1.519532-4.871093-2.21875-.589844-.25-1.167969-.503906-1.761719-.742188-2.023438-.820312-4.070312-1.59375-6.15625-2.289062-.402344-.136719-.808594-.25-1.21875-.378906-1.792969-.578126-3.605469-1.105469-5.433594-1.59375-.605468-.160157-1.21875-.320313-1.832031-.472657-2.210937-.546875-4.441406-1.050781-6.707031-1.457031-.015625-.003906-.027344-.003906-.042969-.011719-.605469-.105469-1.203125-.210937-1.808594-.308593l-.757812-28.613282 22.164062-12.078125c1.933594-1.054687 2.652344-3.480469 1.59375-5.421875-1.054687-1.9375-3.476562-2.664062-5.421875-1.597656l-38.917968 21.203125c-.925782.503906-1.621094 1.363281-1.917969 2.378906-.300781 1.015625-.1875 2.113281.320312 3.042969l24.734375 45.390625c2.558594 4.707031.816406 10.617187-3.886718 13.183594-4.71875 2.5625-10.617188.8125-13.183594-3.886719l-28.207032-51.804688c-2.0625-3.78125-2.527343-8.140624-1.308593-12.273437zm125.3125 154.269531c-4.742188 26.140625-19.375 48.867188-41.210938 63.992188-21.835937 15.132812-48.253906 20.839844-74.390625 16.109375-26.140625-4.742188-48.867187-19.378907-63.996094-41.214844-15.128906-21.832031-20.847656-48.253906-16.105468-74.394531 4.742187-26.140625 19.378906-48.863282 41.210937-63.992188 11.054688-7.660156 23.289063-12.84375 36.058594-15.539062l11.246094 20.648437c-12.320313 1.472657-24.1875 5.847657-34.675781 13.117188-16.96875 11.753906-28.339844 29.414062-32.023438 49.722656-7.609375 41.929687 20.316406 82.222656 62.238281 89.832031 4.660157.84375 9.328125 1.265625 13.964844 1.265625 11.984375 0 23.765625-2.804687 34.660156-8.3125 1.972657-1 2.761719-3.40625 1.765625-5.375-.996094-1.972656-3.410156-2.761719-5.378906-1.765625-13.542969 6.847656-28.605469 9.03125-43.582031 6.316406-18.207031-3.304687-34.039063-13.5-44.582031-28.710937-10.539063-15.210937-14.523438-33.613281-11.21875-51.820313 3.304687-18.210937 13.5-34.042968 28.707031-44.582031 10.300781-7.136719 22.074219-11.226562 34.25-12.121093l.242187.449218c2.265625 4.15625 6.011719 7.179688 10.550782 8.515625 1.660156.488281 3.351562.734375 5.03125.734375 2.917968 0 5.816406-.734375 8.453124-2.167968 1.738282-.949219 3.191407-2.199219 4.464844-3.578126 13.46875 4.835938 25.097656 13.660157 33.410156 25.65625 10.539063 15.210938 14.523438 33.617188 11.21875 51.824219-1.449218 7.992188-4.234374 15.5625-8.28125 22.507813-1.105468 1.910156-.460937 4.355468 1.445313 5.472656 1.914063 1.113281 4.359375.464844 5.46875-1.445312 4.515625-7.75 7.625-16.199219 9.242187-25.105469 3.683594-20.3125-.757812-40.835938-12.515624-57.808594-8.996094-12.980469-21.5-22.570313-35.949219-28.054687 1.289062-4.355469.917969-9.203126-1.421875-13.503907l-6.480469-11.890625c25.328125 5.101563 47.320313 19.519532 62.074219 40.816406 15.132812 21.84375 20.855468 48.265626 16.109375 74.402344zm79.515625 58.351563c-4.070313 1.648437-8.546875 1.617187-12.589844-.09375-4.042969-1.710938-7.183594-4.898438-8.835938-8.976563l-23.480468-57.929687c-3.460938-8.539063-10.9375-14.613281-19.996094-16.253907l-5.292969-.960937c-.894531-12.082031-3.835937-23.902344-8.742187-35.035156l32.625 5.921875c12.257812 2.222656 22.375 10.441406 27.054687 21.988281l28.332031 69.917969c3.402344 8.398437-.660156 18.011718-9.074218 21.421875zm0 0"/><path d="m326.625 313.859375c-2.667969 3.050781-5.621094 5.886719-8.789062 8.433594-1.722657 1.382812-1.992188 3.898437-.609376 5.621093.789063.984376 1.949219 1.496094 3.121094 1.496094.878906 0 1.757813-.285156 2.503906-.882812 3.527344-2.835938 6.824219-6 9.800782-9.402344 1.449218-1.664062 1.28125-4.1875-.382813-5.644531-1.65625-1.449219-4.1875-1.289063-5.644531.378906zm0 0"/><path d="m279.410156 240.800781c-7.355468-1.339843-14.777344.269531-20.914062 4.527344-6.140625 4.25-10.257813 10.644531-11.589844 17.992187-1.332031 7.347657.273438 14.777344 4.523438 20.914063 4.253906 6.140625 10.644531 10.257813 17.992187 11.589844 1.679687.304687 3.355469.453125 5.003906.453125 13.253907 0 25.0625-9.484375 27.507813-22.976563 2.746094-15.167969-7.355469-29.75-22.523438-32.5zm14.648438 31.074219c-1.960938 10.832031-12.375 18.042969-23.207032 16.082031-5.25-.953125-9.808593-3.894531-12.84375-8.273437-3.042968-4.382813-4.183593-9.6875-3.234374-14.9375.949218-5.246094 3.890624-9.804688 8.269531-12.84375 4.382812-3.03125 9.683593-4.1875 14.933593-3.230469 10.832032 1.964844 18.046876 12.375 16.082032 23.203125zm0 0"/><path d="m154.265625 292.988281c-1.320313-8.644531-4.019531-16.972656-8.023437-24.75l-27.707032-53.785156 5.492188-63.84375 55.238281 29.628906c2.566406 1.28125 5.390625 1.925781 8.21875 1.925781 2.074219 0 4.15625-.347656 6.132813-1.050781 7.074218-2.511719 11.746093-8.730469 12.195312-16.222656.445312-7.488281-3.445312-14.214844-10.164062-17.550781l-46.738282-23.226563-24.957031-41.296875c-.078125-.132812-.207031-.207031-.296875-.328125-2.921875-5.296875-7.101562-9.871093-12.328125-13.167969 9.710937-7.148437 15.679687-18.601562 15.679687-30.910156 0-21.160156-17.21875-38.3749998-38.378906-38.3749998-21.15625 0-38.375 17.2148438-38.375 38.3749998 0 10.78125 4.601563 20.992188 12.378906 28.183594-12.128906 5.125-20.773437 16.601562-21.980468 30.175781l-10.882813 126.089844c-.015625.191406-.019531.386719-.007812.582031l-4.402344 54.046875c-.800781 9.785157-3.175781 19.3125-7.070313 28.316407l-16.808593 38.933593c-2.453125 6.878907-1.832031 14.238281 1.691406 20.191407 3.386719 5.722656 8.984375 9.46875 15.75 10.558593 10.832031 1.71875 21.355469-4.476562 24.949219-14.582031l23.136718-55.503906c3.097657-7.433594 5.066407-15.277344 5.835938-23.304688l4.105469-42.753906 22.386719 41.4375c4.914062 9.101562 8.199218 18.902344 9.757812 29.121094l7.121094 46.617187c1.703125 11.160157 11.136718 19.257813 22.425781 19.257813h1.867187c6.617188 0 12.890626-2.882813 17.207032-7.90625 4.316406-5.023438 6.214844-11.660156 5.214844-18.203125zm-2.621094 69.679688c-2.792969 3.25-6.855469 5.117187-11.136719 5.117187h-1.875c-7.304687 0-13.410156-5.246094-14.511718-12.464844l-7.117188-46.617187c-1.703125-11.132813-5.277344-21.804687-10.632812-31.714844l-28.628906-52.996093c-.707032-1.3125-2.070313-2.101563-3.515626-2.101563-.265624 0-.527343.023437-.796874.082031-1.726563.347656-3.019532 1.785156-3.1875 3.535156l-5.363282 55.828126c-.691406 7.230468-2.464844 14.296874-5.257812 20.996093l-23.210938 55.703125c-2.375 6.667969-9.199218 10.683594-16.222656 9.5625-4.378906-.707031-7.980469-3.097656-10.136719-6.738281-2.3125-3.902344-2.6875-8.796875-1.136719-13.183594l16.714844-38.695312c4.238282-9.808594 6.828125-20.183594 7.699219-30.835938l4.449219-54.605469c.015625-.179687.015625-.359374.003906-.539062l10.832031-125.519531c1.140625-12.820313 10.808594-23.246094 23.507813-25.351563 1.667968-.277344 2.980468-1.570312 3.28125-3.234375.304687-1.660156-.472656-3.332031-1.929688-4.175781-9.390625-5.421875-15.222656-15.5-15.222656-26.292969 0-16.75 13.628906-30.378906 30.375-30.378906 16.75 0 30.378906 13.628906 30.378906 30.378906 0 11.816407-6.964844 22.648438-17.746094 27.589844-1.476562.675781-2.394531 2.179687-2.328124 3.804687.070312 1.625 1.109374 3.042969 2.636718 3.59375 7.058594 2.550782 12.53125 7.742188 15.6875 14.132813l.136719-.105469 25.273437 41.820313c.390626.648437.960938 1.175781 1.644532 1.511719l47.777344 23.742187c4.53125 2.253906 5.9375 6.597656 5.742187 9.914063-.203125 3.3125-2.113281 7.460937-6.886719 9.160156-2.648437.9375-5.59375.753906-8-.441406l-60.558594-32.488282-22.25-38.398437c-1.105468-1.914063-3.554687-2.566407-5.464843-1.457031-1.914063 1.105468-2.566407 3.554687-1.457031 5.46875l22.820312 39.378906c.097656.167968.234375.304687.355469.457031l-5.921875 68.816406c-.066406.75.085937 1.503907.429687 2.175781l28.234375 54.808594c3.609375 7.003906 6.042969 14.503906 7.230469 22.292969l8.660156 56.683594c.648438 4.234375-.585937 8.527343-3.375 11.78125zm0 0"/></g></svg>