<svg height="493pt" viewBox="-105 0 493 493.99094" width="493pt" xmlns="http://www.w3.org/2000/svg"><path d="m282.191406 271.527344s0-.003906-.003906-.007813l-43.976562-109.609375c-6.46875-16.222656-21.230469-27.90625-38.511719-30.488281l-21.800781-3.25c-3.085938-.460937-5.332032-2.957031-5.332032-5.9375v-2.75c0-2.167969 1.214844-4.195313 3.160156-5.289063 9.445313-5.300781 16.9375-13.371093 21.566407-22.980468 4.148437 9.097656 10.242187 15.710937 18.203125 19.730468 19.320312 9.757813 42.285156.382813 43.253906-.027343 1.757812-.734375 2.753906-2.605469 2.382812-4.476563-.371093-1.867187-2.015624-3.214844-3.921874-3.214844-3.421876 0-4.417969-2.414062-6.566407-12.007812-1.644531-7.351562-3.691406-16.503906-9.773437-25.019531-10.160156-14.222657-28.519532-9.304688-38.820313-4.9375-3.449219-24.960938-24.757812-44.472657-50.363281-45.238281-14.226562-.433594-27.625 4.734374-37.847656 14.523437-8.746094 8.371094-14.210938 19.21875-15.746094 31.03125-14.195312-6.265625-30.710938-7.84375-39.609375 4.625-6.085937 8.515625-8.128906 17.667969-9.773437 25.019531-2.144532 9.59375-3.136719 12.007813-6.566407 12.007813-1.90625 0-3.546875 1.34375-3.921875 3.214843-.371094 1.875.621094 3.746094 2.386719 4.476563.984375.414063 24.285156 9.917969 43.679687-.222656 8.003907-4.183594 14.082032-11.023438 18.160157-20.414063 4.550781 10 12.160156 18.382813 21.941406 23.890625 1.972656 1.109375 3.203125 3.148438 3.203125 5.316407v2.75c0 2.980468-2.246094 5.476562-5.425781 5.949218l-21.707031 3.238282c-17.28125 2.582031-32.039063 14.261718-38.507813 30.480468l-43.984375 109.617188c-2.121094 5.316406-1.941406 11.335937.484375 16.515625.078125.167969.199219.308593.285156.472656v191.996094c0 7.148437 5.8125 12.964843 12.960938 12.964843h1.269531c7.148438 0 12.964844-5.816406 12.964844-12.964843v-182.4375c4.695312-2.160157 8.589844-6.042969 10.625-11.171875l37.367187-93.644532c.683594-1.722656 2.101563-2.992187 3.898438-3.484374 1.828125-.496094 3.71875-.09375 5.316406 1.148437 1.824219 1.417969 2.492187 4.199219 1.621094 6.769531l-48.976563 143.96875c-1.4375 4.226563-.773437 8.730469 1.824219 12.355469 2.59375 3.628906 6.648437 5.707031 11.105469 5.707031h36.152344v113.652344c0 11.363281 9.25 20.613281 20.613281 20.613281s20.613281-9.25 20.613281-20.613281v-113.648438h6.730469v113.652344c0 11.363282 9.25 20.613282 20.613281 20.613282h1.238281c11.367188 0 20.613281-9.25 20.613281-20.613282v-113.652344h36.152344c4.457032 0 8.511719-2.078124 11.105469-5.707031 2.597656-3.628906 3.261719-8.132812 1.824219-12.355469l-50.050782-147.140624c-.445312-1.3125-.394531-2.449219.144532-3.195313.535156-.753906 1.589844-1.164063 2.980468-1.164063.464844 0 .921876-.082031 1.363282-.242187 2.996094-1.070313 6.25.386719 7.429687 3.34375l37.355469 93.632813c4.03125 10.160156 15.320312 15.476562 25.738281 12.085937 5.4375-1.769531 9.949219-5.757813 12.378907-10.9375 2.425781-5.183594 2.605468-11.203125.480468-16.519531zm0 0" fill="#e6e7e8"/><path d="m16.066406 279.179688c-4.15625-1.355469-7.34375-4.207032-9.328125-7.722657v193.058594c0 4.925781 4.03125 8.960937 8.960938 8.960937h1.273437c4.925782 0 8.964844-4.035156 8.964844-8.960937v-185.214844c-3.132812.914063-6.550781.957031-9.871094-.121093zm0 0" fill="#0089ef"/><path d="m262.476562 257.011719-43.976562-109.617188c-5.972656-14.96875-19.449219-25.632812-35.386719-28.011719l-21.707031-3.238281c-.03125-.003906-.0625-.007812-.089844-.011719-4.980468-.738281-8.75-4.863281-8.75-9.894531v-2.75c0-3.660156 2.015625-6.984375 5.207032-8.777343 11.828124-6.640626 20.535156-18.117188 23.558593-31.730469 11.816407 48.308593 59.871094 28.253906 59.871094 28.253906-12.867187 0-7.105469-21.222656-19.589844-38.703125-10.515625-14.722656-32.484375-4.671875-39.171875-1.125-.011718-.480469.054688-.9375.03125-1.417969-1.230468-24.828125-22.054687-45.21875-46.90625-45.960937-27.214844-.816406-49.546875 20.828125-49.90625 47.777344-5.699218-3.125-29.007812-14.550782-39.917968.726562-12.484376 17.480469-6.726563 38.703125-19.59375 38.703125 0 0 49.34375 20.574219 60.316406-30.269531 2.574218 14.476562 11.503906 26.757812 23.886718 33.726562 3.203126 1.804688 5.242188 5.128906 5.242188 8.804688v2.746094c0 5.03125-3.769531 9.15625-8.75 9.894531-.027344.003906-.058594.007812-.085938.011719l-21.710937 3.238281c-15.9375 2.378906-29.410156 13.042969-35.386719 28.011719l-43.976562 109.613281c-3.589844 9 1.167968 19.167969 10.382812 22.167969 8.417969 2.738281 17.519532-1.53125 20.78125-9.761719l37.355469-93.636719c2.351563-5.925781 9.839844-8.328125 15.390625-4.023438 3.332031 2.585938 4.3125 7.226563 2.949219 11.21875l-48.976563 143.972657c-2.128906 6.269531 2.53125 12.777343 9.152344 12.777343h40.152344v117.652344c0 9.175782 7.441406 16.613282 16.613281 16.613282 9.175781 0 16.613281-7.441407 16.613281-16.613282v-117.652344h14.726563v117.652344c0 9.175782 7.441406 16.613282 16.613281 16.613282h1.238281c9.175781 0 16.613281-7.441407 16.613281-16.613282v-117.652344h40.152344c6.621094 0 11.28125-6.507812 9.152344-12.777343l-50.058594-147.136719c-1.804687-5.308594 1.304688-9.648438 6.910156-9.648438 5.003907-1.816406 10.542969.675782 12.507813 5.621094l37.355469 93.636719c3.269531 8.230469 12.363281 12.5 20.78125 9.761719 9.21875-3.003906 13.976562-13.171875 10.386718-22.171875zm0 0" fill="#fff"/><path d="m215.441406 339.726562c3.398438 0 6.257813-1.726562 7.972656-4.242187l-48.882812-143.671875c-1.0625-3.132812-.382812-5.902344 1.476562-7.667969l-1.476562-4.332031c-1.804688-5.308594 1.304688-9.648438 6.910156-9.648438 5.003906-1.816406 10.542969.675782 12.507813 5.621094l37.355469 93.636719c3.269531 8.230469 12.363281 12.5 20.78125 9.761719 5.046874-1.644532 8.6875-5.464844 10.417968-10.039063-.015625-.042969-.019531-.085937-.035156-.128906l-43.96875-109.621094c-5.972656-14.964843-19.449219-25.632812-35.386719-28.011719l-21.707031-3.238281c-.03125-.003906-.0625-.007812-.089844-.011719-4.980468-.738281-8.75-4.863281-8.75-9.894531v-2.75c0-1.648437.460938-3.210937 1.203125-4.613281-.75-1.386719-1.203125-2.953125-1.203125-4.636719v-2.75c0-3.660156 2.015625-6.984375 5.207032-8.777343 11.828124-6.640626 20.535156-18.117188 23.558593-31.730469 8.589844 35.113281 36.3125 34.105469 50.820313 30.9375-2.175782-7.785157-3.269532-19.207031-10.539063-29.386719-10.515625-14.722656-32.484375-4.671875-39.171875-1.125-.011718-.480469.054688-.9375.03125-1.417969-1.234375-24.828125-22.054687-45.21875-46.90625-45.960937-27.214844-.816406-49.546875 20.828125-49.90625 47.777344-5.699218-3.125-29.007812-14.550782-39.917968.726562-7.269532 10.175781-8.363282 21.59375-10.542969 29.382812 14.777343 3.222657 43.25 4.1875 51.261719-32.949218 2.574218 14.476562 11.503906 26.757812 23.886718 33.726562 3.203125 1.804688 5.242188 5.128906 5.242188 8.804688v2.746094c0 1.6875-.453125 3.257812-1.207032 4.644531.746094 1.402343 1.207032 2.957031 1.207032 4.609375v2.746094c0 5.03125-3.769532 9.15625-8.75 9.894531-.027344.003906-.058594.007812-.085938.011719l-21.710937 3.238281c-15.9375 2.378906-29.410157 13.042969-35.386719 28.011719l-43.972656 109.613281c-.015625.039062-.019532.082031-.035156.128906 1.734374 4.574219 5.371093 8.394531 10.417968 10.039063 8.417969 2.738281 17.519532-1.53125 20.78125-9.761719l37.355469-93.636719c2.351563-5.925781 9.839844-8.328125 15.390625-4.023438 3.332031 2.585938 4.3125 7.230469 2.949219 11.21875l-1.003907 2.945313c1.691407 2.601563 2.042969 6.007813 1.003907 9.054687l-47.796875 140.503907c1.710937 2.515625 4.570312 4.242187 7.96875 4.242187h40.152344v117.652344c0 9.175781 7.441406 16.613281 16.613281 16.613281 9.175781 0 16.613281-7.441406 16.613281-16.613281v-117.648438h14.726562v117.652344c0 9.175782 7.441407 16.613282 16.613282 16.613282h1.238281c9.175781 0 16.613281-7.441407 16.613281-16.613282v-117.652344zm0 0" fill="#fa759e"/><g fill="#3a2c60"><path d="m6.738281 379.734375c2.210938 0 4-1.792969 4-4v-29.449219c0-2.207031-1.789062-4-4-4-2.214843 0-4 1.792969-4 4v29.449219c0 2.210937 1.789063 4 4 4zm0 0"/><path d="m266.191406 255.527344s0-.003906-.003906-.007813l-43.972656-109.609375c-6.476563-16.222656-21.234375-27.902344-38.511719-30.484375l-21.796875-3.25c-3.089844-.457031-5.332031-2.957031-5.332031-5.9375v-2.75c0-2.167969 1.210937-4.191406 3.15625-5.289062 9.441406-5.304688 16.933593-13.375 21.566406-22.980469 4.148437 9.101562 10.242187 15.714844 18.203125 19.734375 19.328125 9.753906 42.28125.378906 43.25-.027344 1.757812-.734375 2.753906-2.605469 2.382812-4.476562-.371093-1.867188-2.015624-3.214844-3.921874-3.214844-3.417969 0-4.414063-2.414063-6.5625-12.003906-1.644532-7.355469-3.6875-16.507813-9.773438-25.023438-10.164062-14.230469-28.523438-9.300781-38.820312-4.9375-3.453126-24.964843-24.761719-44.480469-50.363282-45.2460935-14.257812-.4140625-27.628906 4.7343745-37.855468 14.5273435-8.738282 8.371094-14.207032 19.214844-15.738282 31.027344-14.203125-6.269531-30.71875-7.839844-39.609375 4.625-6.082031 8.515625-8.132812 17.671875-9.777343 25.023437-2.136719 9.59375-3.132813 12.003907-6.5625 12.003907-1.90625 0-3.546876 1.34375-3.921876 3.214843-.371093 1.875.621094 3.746094 2.386719 4.476563.984375.414063 24.285157 9.921875 43.679688-.222656 8.003906-4.183594 14.082031-11.023438 18.15625-20.414063 4.550781 10 12.160156 18.378906 21.941406 23.886719 1.972656 1.109375 3.203125 3.148437 3.203125 5.316406v2.75c0 2.980469-2.246094 5.480469-5.421875 5.949219l-21.710937 3.238281c-17.277344 2.582031-32.03125 14.261719-38.507813 30.480469l-43.984375 109.621094c-2.121094 5.316406-1.9453125 11.332031.480469 16.515625.078125.171875.203125.3125.289062.480469v57.054687c0 2.207031 1.785157 4 4 4 2.210938 0 4-1.792969 4-4v-48.457031c.027344.019531.058594.03125.085938.046875.136719.078125.277343.140625.414062.214843 1.140625.640626 2.339844 1.1875 3.59375 1.597657 1.222657.398437 2.476563.664062 3.742188.828125.5.0625.992187.042968 1.492187.070312.625.03125 1.242188.121094 1.867188.09375v180.539063c0 2.734375-2.230469 4.960937-4.960938 4.960937h-1.273437c-2.734375 0-4.957031-2.226562-4.957031-4.960937v-72.816407c0-2.207031-1.789063-4-4-4-2.214844 0-4 1.792969-4 4v72.816407c0 7.148437 5.808593 12.960937 12.957031 12.960937h1.273437c7.148438 0 12.960938-5.816406 12.960938-12.960937v-182.441407c4.695312-2.160156 8.59375-6.039062 10.628906-11.167968l37.363281-93.644532c.683594-1.722656 2.101563-2.996093 3.902344-3.484374 1.828125-.496094 3.71875-.089844 5.3125 1.148437 1.828125 1.417969 2.492187 4.199219 1.621094 6.769531l-48.980469 143.96875c-1.4375 4.222656-.773438 8.726563 1.824219 12.355469 2.597656 3.628906 6.648437 5.710937 11.109375 5.710937h36.152344v113.652344c0 11.363282 9.25 20.613282 20.613281 20.613282s20.613281-9.25 20.613281-20.613282v-113.652344h6.726562v113.652344c0 11.363282 9.246094 20.613282 20.613282 20.613282h1.238281c11.367187 0 20.613281-9.25 20.613281-20.613282v-113.652344h36.152344c4.460938 0 8.511719-2.082031 11.109375-5.710937s3.261719-8.132813 1.824219-12.355469l-50.050782-147.136718c-.445312-1.3125-.394531-2.449219.144532-3.195313.535156-.753906 1.589844-1.164063 2.980468-1.164063.464844 0 .921876-.082031 1.363282-.242187 2.996094-1.074219 6.25.386719 7.429687 3.34375l37.351563 93.632813c4.039062 10.164062 15.335937 15.472656 25.738281 12.085937 5.441406-1.769531 9.953125-5.757813 12.382813-10.9375 2.425781-5.183594 2.601562-11.203125.480468-16.519531zm-7.726562 13.121094c-1.515625 3.230468-4.21875 5.617187-7.613282 6.726562-6.414062 2.078125-13.34375-1.1875-15.828124-7.4375l-37.351563-93.628906c-2.691406-6.785156-10.042969-10.261719-16.921875-8.128906-3.6875.179687-6.863281 1.792968-8.785156 4.488281-2.050782 2.863281-2.492188 6.664062-1.210938 10.429687l50.058594 147.140625c.59375 1.753907.316406 3.617188-.757812 5.121094-1.078126 1.503906-2.753907 2.367187-4.605469 2.367187h-40.160157c-2.210937 0-4 1.792969-4 4v117.652344c0 6.957032-5.660156 12.613282-12.613281 12.613282h-1.238281c-6.953125 0-12.613281-5.660157-12.613281-12.613282v-117.652344c0-2.207031-1.789063-4-4-4h-14.726563c-2.214844 0-4 1.792969-4 4v117.652344c0 6.957032-5.660156 12.613282-12.613281 12.613282s-12.613281-5.660157-12.613281-12.613282v-117.652344c0-2.207031-1.785156-4-4-4h-40.152344c-1.851562 0-3.53125-.863281-4.605469-2.367187-1.078125-1.5-1.351562-3.367187-.757812-5.121094l48.980469-143.972656c1.988281-5.839844.265624-12.132813-4.285157-15.667969-3.578125-2.769531-8.070312-3.703125-12.324219-2.542968-4.183593 1.140624-7.628906 4.222656-9.230468 8.246093l-37.359375 93.640625c-2.484375 6.253906-9.453125 9.503906-15.824219 7.433594-3.394531-1.105469-6.097656-3.496094-7.613281-6.726562-1.515625-3.234376-1.617188-6.839844-.300781-10.148438l43.980468-109.625c5.429688-13.59375 17.789063-23.375 32.261719-25.535156l21.792969-3.253906c7.046875-1.042969 12.160156-6.867188 12.160156-13.847657v-2.75c0-5.054687-2.789062-9.761719-7.277344-12.289062-11.585937-6.519531-19.574218-17.800781-21.910156-30.945313-.332031-1.882812-1.953125-3.261718-3.867188-3.300781-.027343 0-.050781 0-.074218 0-1.878906 0-3.511719 1.3125-3.914063 3.15625-2.914062 13.523437-8.949219 22.765625-17.929687 27.476563-9.648438 5.0625-20.96875 4.050781-28.515625 2.417968 2.277343-3.496094 3.359375-8.304687 4.414062-13.03125 1.566407-6.996094 3.335938-14.925781 8.476563-22.121094 9.085937-12.71875 30.53125-1.851562 34.746094.453126 1.226562.671874 2.726562.652343 3.933593-.054688 1.210938-.707031 1.964844-2 1.984375-3.402344.160156-12.011718 5.027344-23.207031 13.710938-31.519531 8.664062-8.300781 20.085937-12.691406 32.082031-12.3125 22.601563.675781 41.90625 19.585937 43.015625 42.511719-.015625.320312-.03125.640625-.023438.96875.035157 1.382812.78125 2.65625 1.980469 3.355468 1.195313.695313 2.664063.726563 3.894531.082032 5.800782-3.078125 25.40625-12.167969 34.042969-.082032 5.140625 7.195313 6.914063 15.125 8.472657 22.121094 1.058593 4.734375 2.136718 9.554688 4.429687 13.050782-7.4375 1.621093-18.558594 2.636718-28.15625-2.210938-8.769531-4.429688-14.785156-13.105469-17.890625-25.789062-.4375-1.792969-2.046875-3.046876-3.886719-3.046876-.011719 0-.027343 0-.042969 0-1.859374.019532-3.457031 1.3125-3.863281 3.128907-2.742187 12.328125-10.617187 22.9375-21.613281 29.113281-4.464844 2.511719-7.246094 7.210938-7.246094 12.265625v2.75c0 6.984375 5.113282 12.808594 12.246094 13.863281l21.710938 3.242188c14.472656 2.160156 26.832031 11.941406 32.265624 25.542968l43.972657 109.609376c1.324219 3.320312 1.21875 6.921874-.296875 10.15625zm0 0"/></g></svg>