<svg height="494pt" viewBox="0 -70 494.64 494" width="494pt" xmlns="http://www.w3.org/2000/svg"><path d="m490.640625 346.367188h-17.210937v-13.917969c0-9.125-7.421876-16.550781-16.550782-16.550781h-5.6875v-157.273438h7.320313c2.210937 0 4-1.789062 4-4v-15.933594c0-9.863281-8.027344-17.890625-17.890625-17.890625h-67.496094v-15.027343h8.226562c2.210938 0 4-1.789063 4-4v-28.660157c0-6.976562-5.675781-12.652343-12.652343-12.652343h-63.558594v-19.382813c0-13.648437-11.109375-24.757813-24.761719-24.757813h-65.21875c-13.652344 0-24.761718 11.109376-24.761718 24.757813v19.382813h-63.558594c-6.976563 0-12.652344 5.675781-12.652344 12.652343v28.660157c0 2.210937 1.789062 4 4 4h8.226562v15.027343h-67.503906c-9.863281 0-17.890625 8.027344-17.890625 17.890625v15.933594c0 2.210938 1.789063 4 4 4h7.320313v157.273438h-6.582032c-9.125 0-16.550781 7.421874-16.550781 16.550781v13.917969h-17.207031c-2.210938 0-4 1.789062-4 4 0 2.210937 1.789062 4 4 4h470.640625c2.210937 0 4-1.789063 4-4 0-2.210938-1.789063-4-4-4zm0 0" fill="#e6e7e8"/><g fill="#d4fbff"><path d="m192.007812 121.242188c3.789063 4.070312 9.152344 6.652343 15.152344 6.652343h65.21875c6 0 11.359375-2.582031 15.152344-6.652343zm0 0"/><path d="m48.34375 138.625h74.066406v165.273438h-74.066406zm0 0"/><path d="m357.128906 138.625h74.066406v165.273438h-74.066406zm0 0"/><path d="m293.140625 85.769531v21.367188c0 11.464843-9.296875 20.757812-20.761719 20.757812h-65.21875c-11.464844 0-20.761718-9.289062-20.761718-20.757812v-21.367188h-63.988282v218.125h234.71875v-218.125zm0 0"/></g><path d="m186.398438 48.460938h-67.558594c-4.78125 0-8.652344 3.871093-8.652344 8.652343v28.660157h76.210938zm0 0" fill="#0089ef"/><path d="m360.699219 48.460938h-67.558594v37.3125h76.210937v-28.660157c-.003906-4.78125-3.875-8.652343-8.652343-8.652343zm0 0" fill="#0089ef"/><path d="m210.539062 177.203125h58.460938v126.695313h-58.460938zm0 0" fill="#6dc9f7"/><path d="m272.378906 4.320312h-65.21875c-11.464844 0-20.761718 9.296876-20.761718 20.757813v82.0625c0 11.464844 9.296874 20.757813 20.761718 20.757813h65.21875c11.464844 0 20.761719-9.289063 20.761719-20.757813v-82.066406c0-11.460938-9.296875-20.753907-20.761719-20.753907zm0 0" fill="#fa759e"/><path d="m146.0625 172.765625h43.890625v120.535156h-43.890625zm0 0" fill="#6dc9f7"/><path d="m72.539062 172.765625h27.996094v120.535156h-27.996094zm0 0" fill="#6dc9f7"/><path d="m380.121094 172.765625h27.996094v120.535156h-27.996094zm0 0" fill="#6dc9f7"/><path d="m289.585938 172.765625h43.886718v120.535156h-43.886718zm0 0" fill="#6dc9f7"/><path d="m440.882812 303.898438h-403.125c-6.929687 0-12.550781 5.617187-12.550781 12.550781v17.917969h428.222657v-17.917969c0-6.933594-5.617188-12.550781-12.546876-12.550781zm0 0" fill="#fff"/><path d="m37.207031 334.367188h416.222657v-17.921876c0-.171874-.046876-.328124-.054688-.496093-.167969-.007813-.328125-.054688-.496094-.054688h-403.121094c-6.929687 0-12.550781 5.617188-12.550781 12.550781zm0 0" fill="#fa759e"/><path d="m50.914062 108.796875h71.496094v29.828125h-85.390625v-15.9375c0-7.671875 6.21875-13.890625 13.894531-13.890625zm0 0" fill="#0089ef"/><path d="m428.625 108.796875h-71.496094v29.828125h85.390625v-15.9375c-.003906-7.671875-6.222656-13.890625-13.894531-13.890625zm0 0" fill="#0089ef"/><path d="m474.640625 330.367188h-17.210937v-13.917969c0-9.125-7.421876-16.550781-16.550782-16.550781h-5.6875v-157.273438h7.320313c2.210937 0 4-1.789062 4-4v-15.9375c0-9.863281-8.027344-17.890625-17.890625-17.890625h-67.496094v-15.027344h8.226562c2.210938 0 4-1.789062 4-4v-28.660156c0-6.972656-5.675781-12.648437-12.652343-12.648437h-63.558594v-19.386719c0-13.648438-11.109375-24.753907-24.761719-24.753907h-65.21875c-13.652344 0-24.761718 11.105469-24.761718 24.753907v19.386719h-63.558594c-6.976563 0-12.652344 5.675781-12.652344 12.648437v28.660156c0 2.210938 1.789062 4 4 4h8.226562v15.027344h-67.5c-9.863281 0-17.890624 8.027344-17.890624 17.890625v15.9375c0 2.210938 1.789062 4 4 4h7.320312v157.269531h-6.582031c-9.125 0-16.550781 7.421875-16.550781 16.550781v13.917969h-17.210938c-2.210938 0-4 1.789063-4 4 0 2.210938 1.789062 4 4 4h218.191406c2.210938 0 4-1.789062 4-4 0-2.210937-1.789062-4-4-4h-192.980468v-13.917969c0-4.714843 3.835937-8.550781 8.550781-8.550781h403.121093c4.714844 0 8.550782 3.835938 8.550782 8.550781v13.917969h-155.847656c-2.214844 0-4 1.789063-4 4 0 2.210938 1.785156 4 4 4h181.054687c2.210937 0 4-1.789062 4-4 0-2.210937-1.789063-3.996093-4-3.996093zm-47.445313-30.472657h-66.070312v-157.269531h66.070312zm1.429688-187.097656c5.449219 0 9.890625 4.433594 9.890625 9.890625v11.9375h-77.390625v-21.828125zm-67.925781-60.335937c2.570312 0 4.652343 2.082031 4.652343 4.648437v24.660156h-68.210937v-29.308593zm-170.300781-27.386719c0-9.242188 7.523437-16.753907 16.761718-16.753907h65.21875c9.246094 0 16.761719 7.515626 16.761719 16.753907v82.0625c0 9.242187-7.519531 16.757812-16.761719 16.757812h-65.21875c-9.246094 0-16.761718-7.519531-16.761718-16.757812zm-76.210938 32.035156c0-2.566406 2.085938-4.648437 4.652344-4.648437h63.558594v29.308593h-68.210938zm68.210938 32.660156v17.367188c0 13.652343 11.109374 24.757812 24.761718 24.757812h65.21875c13.652344 0 24.761719-11.105469 24.761719-24.757812v-17.367188h55.984375v210.125h-80.125v-122.691406c0-2.210937-1.789062-4-4-4h-58.460938c-2.210937 0-4 1.789063-4 4v122.695313h-80.125v-210.128907zm32.140624 210.125v-118.691406h20.667969v118.695313h-20.667969zm28.667969 0v-118.691406h21.792969v118.695313h-21.792969zm-202.183593-177.207031c0-5.453125 4.4375-9.890625 9.890624-9.890625h67.5v21.828125h-77.390624zm11.320312 19.9375h66.070312v157.269531h-66.070312zm0 0" fill="#3a2c60"/><path d="m273.335938 330.367188h-31.144532c-2.210937 0-4 1.789062-4 4 0 2.210937 1.789063 4 4 4h31.144532c2.210937 0 4-1.789063 4-4 0-2.210938-1.789063-4-4-4zm0 0" fill="#3a2c60"/><path d="m278.121094 97.109375-7.441406-18.355469c-1.355469-3.351562-4.332032-5.769531-7.886719-6.414062l-10.632813-1.929688c-1.015625-1.902344-2.253906-3.679687-3.683594-5.292968l-.578124-21.625c-.074219-2.863282-1.601563-5.34375-3.855469-6.769532 2.632812-1.644531 4.355469-4.59375 4.269531-7.921875-.132812-5.003906-4.296875-8.953125-9.300781-8.816406-5.003907.132813-8.953125 4.296875-8.816407 9.300781.089844 3.328125 1.96875 6.179688 4.683594 7.683594-.167968.121094-.300781.285156-.457031.414062l-.007813-.011718-11.898437 6.484375c-2.5625 1.398437-3.511719 4.609375-2.113281 7.171875l2.953125 5.417968c-10.820313 1.960938-19.808594 10.398438-21.886719 21.855469-2.679688 14.757813 7.117188 28.898438 21.878906 31.574219 14.761719 2.679688 28.898438-7.113281 31.578125-21.875.371094-2.054688.476563-4.097656.386719-6.101562l2.222656.40625c2.011719.363281 3.695313 1.734374 4.464844 3.628906l6.164062 15.210937c1.117188 2.746094 4.246094 4.074219 6.996094 2.960938 2.746094-1.113281 4.074219-4.246094 2.960938-6.996094zm-46.644532-49.933594.238282 9.070313c-.09375-.011719-.191406-.023438-.285156-.035156l-3.785157-6.945313zm15.648438 39.410157c-1.898438 10.453124-11.914062 17.390624-22.367188 15.492187-10.457031-1.894531-17.398437-11.910156-15.496093-22.367187 1.636719-9.042969 9.359375-15.425782 18.179687-15.765626l.371094.683594c.953125 1.746094 3.140625 2.390625 4.882812 1.4375.53125-.289062.921876-.714844 1.238282-1.1875 9.121094 2.859375 14.941406 12.054688 13.191406 21.707032zm0 0" fill="#fff"/><path d="m229.316406 76.957031c-3.421875-.621093-6.695312 1.648438-7.316406 5.066407-.621094 3.421874 1.648438 6.695312 5.066406 7.316406 3.421875.621094 6.699219-1.648438 7.316406-5.066406.621094-3.421876-1.648437-6.699219-5.066406-7.316407zm0 0" fill="#fff"/></svg>