<svg height="499pt" viewBox="-94 0 499 499.866" width="499pt" xmlns="http://www.w3.org/2000/svg"><path d="m295.460938 96.867188c.535156-1.238282.839843-2.59375.839843-4.019532 0-3.386718-1.679687-6.371094-4.230469-8.214844l14.371094-14.371093c1.5625-1.5625 1.5625-4.089844 0-5.65625l-27.722656-27.722657c-1.566406-1.566406-4.09375-1.566406-5.65625 0l-11.316406 11.316407-11.316406-11.316407c-1.566407-1.566406-4.09375-1.566406-5.65625 0l-27.722657 27.722657c-1.566406 1.566406-1.566406 4.09375 0 5.65625l14.371094 14.371093c-2.554687 1.84375-4.238281 4.828126-4.238281 8.214844 0 1.425782.304687 2.785156.839844 4.019532-10.28125 9.328124-16.429688 22.679687-16.429688 37.109374 0 27.652344 22.496094 50.148438 50.148438 50.148438 27.652343 0 50.148437-22.496094 50.148437-50.148438 0-14.429687-6.148437-27.777343-16.429687-37.109374zm0 0" fill="#e6e7e8"/><path d="m234.070312 197.953125h-40.011718v-51.882813c0-20.597656-16.757813-37.351562-37.359375-37.351562h-25.121094c-1.71875 0-3.410156-.710938-4.636719-1.960938-1.175781-1.1875-1.8125-2.722656-1.792968-4.324218.042968-3.613282 1.925781-7.027344 5.03125-9.140625 11.226562-7.613281 18.15625-20.234375 18.550781-33.757813.324219-11.148437-3.824219-21.863281-11.671875-30.171875-7.835938-8.296875-18.277344-13.039062-29.398438-13.34375-.820312-.027343-4.011718-.027343-4.832031 0-11.132813.308594-21.582031 5.058594-29.417969 13.371094-7.832031 8.308594-11.972656 19.011719-11.648437 30.148437.390625 13.523438 7.328125 26.144532 18.546875 33.757813 3.109375 2.109375 4.988281 5.523437 5.03125 9.140625.019531 1.597656-.613282 3.132812-1.789063 4.324219-1.234375 1.25-2.921875 1.960937-4.636719 1.960937h-25.125c-20.597656 0-37.355468 16.753906-37.355468 37.351563v117.246093c0 8.898438 6.230468 16.6875 14.496094 18.121094 5.195312.90625 10.472656-.503906 14.460937-3.859375 3.992187-3.355469 6.277344-8.273437 6.277344-13.484375v-91.144531c0-1.871094 1.25-3.535156 2.839843-3.796875 1.417969-.210938 2.390626.386719 2.839844.769531.773438.660157 1.21875 1.617188 1.21875 2.628907v226.667968c0 10.238282 6.8125 19.128906 16.046875 21.746094v74.898438c0 2.207031 1.792969 4 4 4s4-1.792969 4-4v-74.21875c4.585938-.484376 8.960938-2.398438 12.40625-5.535157 4.539063-4.125 7.140625-10.003906 7.140625-16.132812v-98.554688c0-2.109375 1.289063-4.011719 3.105469-4.621093 1.753906.582031 3.066406 2.5 3.066406 4.621093v176.640625c0 6.128906 2.601563 12.007813 7.140625 16.132813 4.019532 3.65625 9.289063 5.664062 14.707032 5.664062.691406 0 1.390624-.035156 2.085937-.097656 11.027344-1.050781 19.667969-10.917969 19.667969-22.464844 0 0 0-158.289062 0-160.5v-144.246093c0-1.011719.445312-1.972657 1.214844-2.628907.453124-.386719 1.4375-1 2.839843-.769531 1.59375.257812 2.835938 1.925781 2.835938 3.796875v44.289063c0 4.738281 1.859375 9.175781 5.246093 12.496093 3.207032 3.148438 7.398438 4.914063 11.882813 5.039063.261719.058594.53125.085937.808594.085937h57.3125c10.175781 0 18.449219-8.277343 18.449219-18.453125 0-10.179687-8.277344-18.457031-18.453126-18.457031zm0 0" fill="#e6e7e8"/><path d="m263.617188 75.425781 23.992187-23.992187-27.722656-27.722656-14.144531 14.144531-14.140626-14.144531-27.722656 27.722656 23.988282 23.992187c-16.605469 6.984375-28.269532 23.402344-28.269532 42.550781 0 25.488282 20.660156 46.148438 46.148438 46.148438 25.488281 0 46.148437-20.660156 46.148437-46.148438 0-19.148437-11.667969-35.566406-28.277343-42.550781zm0 0" fill="#fa759e"/><path d="m270.152344 70.699219h-48.820313c-3.394531 0-6.144531 2.75-6.144531 6.148437 0 3.394532 2.753906 6.140625 6.144531 6.140625h48.820313c3.398437 0 6.144531-2.75 6.144531-6.140625.003906-3.398437-2.746094-6.148437-6.144531-6.148437zm0 0" fill="#ffd7e5"/><path d="m218.070312 185.953125h-44.011718v-55.882813c0-18.421874-14.933594-33.355468-33.359375-33.355468h-25.121094c-5.679687 0-10.496094-4.652344-10.429687-10.328125.0625-5 2.640624-9.585938 6.785156-12.402344 9.855468-6.6875 16.425781-17.847656 16.796875-30.5625.601562-20.8125-16.371094-38.824219-37.179688-39.40625-.78125-.023437-3.832031-.023437-4.613281 0-20.8125.578125-37.785156 18.59375-37.179688 39.40625.367188 12.714844 6.941407 23.875 16.796876 30.5625 4.140624 2.8125 6.722656 7.402344 6.78125 12.402344.070312 5.679687-4.75 10.328125-10.425782 10.328125h-25.125c-18.421875 0-33.355468 14.929687-33.355468 33.355468v117.246094c0 6.746094 4.535156 13.027344 11.179687 14.175782 8.59375 1.492187 16.054687-5.082032 16.054687-13.402344v-91.136719c0-3.710937 2.535157-7.148437 6.195313-7.742187 4.667969-.761719 8.703125 2.824218 8.703125 7.347656v226.667968c0 9.296876 6.792969 17.59375 16.046875 18.480469 10.617187 1.011719 19.546875-7.308593 19.546875-17.71875v-98.558593c0-4.167969 2.847656-8.03125 6.964844-8.703126.039062-.007812.199218-.007812.242187 0 4.117188.667969 6.964844 4.53125 6.964844 8.703126v176.640624c0 10.40625 8.933594 18.726563 19.550781 17.714844 9.25-.882812 16.046875-9.183594 16.046875-18.480468v-304.75c0-4.523438 4.03125-8.105469 8.699219-7.347657 3.664062.59375 6.195312 4.035157 6.195312 7.742188v44.289062c0 7.613281 6.261719 13.683594 13.90625 13.535157l.03125.082031h57.3125c7.984376 0 14.449219-6.472657 14.449219-14.453125.003907-7.980469-6.464843-14.449219-14.449219-14.449219zm0 0" fill="#fff"/><path d="m231.113281 206.539062c-2.183593-5.214843-7.328125-8.875-13.332031-8.875h-44.011719v-55.882812c0-18.417969-14.933593-33.355469-33.355469-33.355469h-25.125c-5.679687 0-10.496093-4.652343-10.429687-10.328125.03125-2.355468.632813-4.609375 1.679687-6.636718-.875-1.507813-1.410156-3.222657-1.390624-5.074219.0625-5 2.640624-9.585938 6.785156-12.402344 8.339844-5.660156 14.28125-14.535156 16.148437-24.832031-2.433593-18.164063-18.035156-32.898438-36.820312-33.425782-.78125-.019531-3.832031-.019531-4.613281 0-18.117188.507813-33.3125 14.226563-36.546876 31.5 1.433594 11.117188 7.597657 20.746094 16.453126 26.757813 4.140624 2.8125 6.722656 7.402344 6.78125 12.402344.023437 2.074219-.613282 4.007812-1.699219 5.636719.875 1.882812 1.386719 3.933593 1.414062 6.074218.066407 5.679688-4.753906 10.328125-10.429687 10.328125h-25.125c-17.003906 0-31.007813 12.734375-33.066406 29.183594v109.707031c0 6.746094 4.535156 13.027344 11.179687 14.175782 7.675781 1.332031 14.40625-3.78125 15.769531-10.816407v-82.011719c0-.699218.113282-1.382812.285156-2.046874v-9.664063c0-3.710937 2.535157-7.148437 6.195313-7.742187 4.667969-.761719 8.703125 2.824218 8.703125 7.347656v226.667968c0 9.296876 6.792969 17.59375 16.046875 18.480469 9.667969.921875 17.859375-5.925781 19.257813-15.011719v-89.558593c0-.738281.121093-1.453125.289062-2.160157v-9.550781c0-4.167969 2.847656-8.03125 6.964844-8.703125.039062-.007812.199218-.007812.242187 0 4.117188.667969 6.964844 4.53125 6.964844 8.703125v176.640625c0 10.40625 8.933594 18.726563 19.550781 17.714844 8.175782-.777344 14.414063-7.359375 15.757813-15.292969v-296.222656c0-.679687.117187-1.328125.289062-1.957031v-9.753906c0-4.523438 4.03125-8.105469 8.699219-7.347657 3.664062.59375 6.195312 4.035157 6.195312 7.742188v44.289062c0 7.613281 6.261719 13.683594 13.90625 13.535157l.03125.082031h57.3125c5.78125.003906 10.730469-3.414063 13.042969-8.316407zm0 0" fill="#6dc9f7"/><g fill="#3a2c60"><path d="m279.4375 80.90625c.546875-1.246094.859375-2.617188.859375-4.058594 0-3.386718-1.679687-6.371094-4.230469-8.214844l14.371094-14.371093c1.5625-1.5625 1.5625-4.089844 0-5.65625l-27.722656-27.722657c-1.566406-1.566406-4.09375-1.566406-5.65625 0l-11.316406 11.316407-11.316407-11.316407c-1.566406-1.566406-4.09375-1.566406-5.65625 0l-27.722656 27.722657c-1.566406 1.566406-1.566406 4.09375 0 5.65625l14.371094 14.371093c-2.554688 1.84375-4.238281 4.828126-4.238281 8.214844 0 1.441406.316406 2.8125.859374 4.058594-10.273437 9.328125-16.449218 22.644531-16.449218 37.070312 0 27.652344 22.496094 50.148438 50.148437 50.148438 27.652344 0 50.148438-22.496094 50.148438-50.148438.003906-14.425781-6.167969-27.742187-16.449219-37.070312zm-58.101562-1.914062c-1.183594 0-2.148438-.960938-2.148438-2.144532 0-1.1875.964844-2.148437 2.148438-2.148437h48.820312c1.179688 0 2.144531.960937 2.144531 2.148437 0 1.183594-.964843 2.144532-2.144531 2.144532zm10.265624-49.625 11.316407 11.316406c1.5625 1.5625 4.089843 1.5625 5.65625 0l11.316406-11.316406 22.066406 22.066406-15.265625 15.265625h-41.890625l-15.265625-15.265625zm14.144532 130.757812c-23.242188 0-42.148438-18.90625-42.148438-42.148438 0-12.359374 5.375-23.761718 14.324219-31.617187 1.070313.386719 2.210937.628906 3.414063.628906h48.820312c1.203125 0 2.339844-.246093 3.414062-.628906 8.945313 7.855469 14.324219 19.253906 14.324219 31.617187-.003906 23.242188-18.910156 42.148438-42.148437 42.148438zm0 0"/><path d="m256.363281 117.308594c-.945312-.867188-2.039062-1.539063-3.242187-1.996094-1.085938-.414062-2.53125-.871094-4.308594-1.367188v-8.644531c1.429688.644531 2.332031 1.726563 2.746094 3.296875.507812 1.863282 1.707031 2.851563 3.457031 2.851563.945313 0 1.765625-.335938 2.429687-1 .664063-.664063 1-1.46875 1-2.378907 0-.773437-.207031-1.621093-.621093-2.527343-.398438-.886719-.976563-1.753907-1.703125-2.582031-.9375-1.097657-2.050782-1.933594-3.3125-2.480469-1.128906-.488281-2.472656-.828125-4-1.019531v-2.082032c0-2.109375-1.25-2.421875-2-2.421875-.738282 0-1.976563.320313-1.976563 2.46875v2.03125c-3.117187.34375-5.566406 1.390625-7.269531 3.101563-1.800781 1.808594-2.714844 4.152344-2.714844 6.964844 0 2.15625.472656 3.945312 1.398438 5.339843.917968 1.378907 2.136718 2.453125 3.609375 3.203125 1.347656.679688 3.023437 1.308594 4.976562 1.867188v9.832031c-.679687-.25-1.246093-.578125-1.6875-.972656-.578125-.511719-1.011719-1.082031-1.296875-1.699219-.300781-.660156-.667968-1.632812-1.078125-2.882812-.21875-.699219-.628906-1.257813-1.203125-1.648438-.570312-.382812-1.261718-.582031-2.066406-.582031-1.011719 0-1.867188.355469-2.546875 1.054687-.675781.695313-1.019531 1.496094-1.019531 2.375 0 1.074219.234375 2.183594.695312 3.296875.457032 1.101563 1.171875 2.179688 2.125 3.195313.949219 1.015625 2.15625 1.878906 3.570313 2.558594 1.300781.625 2.816406 1.054687 4.507812 1.28125v2.304687c0 .828125.140625 1.433594.421875 1.867187.222656.335938.679688.738282 1.597656.738282 1.03125 0 1.460938-.507813 1.644532-.933594.207031-.488281.308594-1.210938.308594-2.210938v-1.804687c2.113281-.234375 3.976562-.832031 5.546874-1.785156 1.695313-1.027344 3-2.371094 3.875-4 .871094-1.621094 1.3125-3.382813 1.3125-5.238281 0-1.484376-.273437-2.875-.824218-4.128907-.542969-1.25-1.34375-2.34375-2.351563-3.242187zm-11.527343-4.582032c-1.003907-.421874-1.773438-.875-2.304688-1.355468-.582031-.542969-.867188-1.335938-.867188-2.433594 0-1.15625.304688-1.984375.929688-2.527344.554688-.484375 1.308594-.898437 2.242188-1.234375zm6.765624 15.726563c-.671874.746094-1.609374 1.28125-2.785156 1.601563v-8.9375c1.234375.449218 2.191406.972656 2.859375 1.566406.734375.652344 1.085938 1.558594 1.085938 2.777344 0 1.144531-.378907 2.125-1.160157 2.992187zm0 0"/><path d="m218.070312 181.953125h-40.011718v-51.882813c0-20.597656-16.757813-37.351562-37.359375-37.351562h-25.121094c-1.71875 0-3.410156-.710938-4.636719-1.960938-1.175781-1.1875-1.8125-2.722656-1.792968-4.324218.042968-3.613282 1.925781-7.027344 5.03125-9.140625 11.226562-7.613281 18.15625-20.234375 18.550781-33.757813.324219-11.148437-3.824219-21.863281-11.671875-30.171875-7.835938-8.296875-18.277344-13.039062-29.398438-13.3437498-.820312-.0273437-4.011718-.0273437-4.832031 0-11.132813.3085938-21.582031 5.0585938-29.417969 13.3710938-7.832031 8.308594-11.972656 19.011719-11.648437 30.148437.390625 13.523438 7.328125 26.144532 18.546875 33.757813 3.109375 2.109375 4.988281 5.523437 5.03125 9.140625.019531 1.597656-.613282 3.132812-1.789063 4.324219-1.234375 1.25-2.921875 1.960937-4.636719 1.960937h-25.125c-20.597656 0-37.355468 16.753906-37.355468 37.351563v117.246093c0 8.898438 6.230468 16.6875 14.496094 18.121094 5.195312.90625 10.472656-.503906 14.460937-3.859375 3.992187-3.355469 6.277344-8.273437 6.277344-13.484375v-91.144531c0-1.871094 1.25-3.535156 2.839843-3.796875 1.417969-.210938 2.390626.386719 2.839844.769531.773438.660157 1.21875 1.617188 1.21875 2.628907v226.667968c0 10.238282 6.8125 19.128906 16.046875 21.746094v74.898438c0 2.207031 1.792969 4 4 4s4-1.792969 4-4v-74.21875c4.585938-.484376 8.960938-2.398438 12.40625-5.535157 4.539063-4.125 7.140625-10.003906 7.140625-16.132812v-98.554688c0-2.109375 1.289063-4.011719 3.105469-4.621093 1.753906.582031 3.066406 2.5 3.066406 4.621093v176.640625c0 6.128906 2.601563 12.007813 7.140625 16.132813 4.019532 3.65625 9.289063 5.664062 14.707032 5.664062.691406 0 1.390624-.035156 2.085937-.097656 11.027344-1.050781 19.667969-10.917969 19.667969-22.464844v-114.085937c0-2.207032-1.792969-4-4-4-2.207032 0-4 1.792968-4 4v114.082031c0 7.464844-5.460938 13.832031-12.429688 14.5-3.953125.382813-7.734375-.871094-10.648437-3.519531-2.871094-2.613282-4.519531-6.332032-4.519531-10.210938v-176.640625c0-6.25-4.433594-11.691406-10.214844-12.632812-.457032-.085938-1.171875-.09375-1.636719-.015625-5.882813.957031-10.320313 6.398437-10.320313 12.648437v98.5625c0 3.882813-1.648437 7.601563-4.519531 10.214844-2.914062 2.648437-6.714843 3.902344-10.648437 3.519531-6.972656-.664062-12.425782-7.03125-12.425782-14.5v-226.667968c0-3.363282-1.472656-6.542969-4.039062-8.726563-2.5625-2.179687-5.949219-3.117187-9.300781-2.570313-5.449219.882813-9.558594 5.914063-9.558594 11.691407v91.140625c0 2.84375-1.25 5.527344-3.429687 7.363281-2.210938 1.859375-5.03125 2.613281-7.941407 2.101563-4.484375-.777344-7.863281-5.175782-7.863281-10.238282v-117.246094c0-16.183593 13.167969-29.351562 29.355469-29.351562h25.125c3.839843 0 7.601562-1.582031 10.328125-4.335938 2.691406-2.726562 4.148437-6.289062 4.101562-10.042968-.074218-6.230469-3.265625-12.085938-8.539062-15.664063-9.097656-6.179687-14.726563-16.410156-15.042969-27.371093-.261719-9 3.101563-17.675782 9.472656-24.425782 6.367188-6.753906 14.832031-10.613281 23.820313-10.863281.742187-.023437 3.644531-.023437 4.390625 0 8.980469.25 17.433593 4.097656 23.804687 10.84375 6.378906 6.753906 9.75 15.433594 9.492188 24.445313-.320313 10.960937-5.945313 21.191406-15.050782 27.375-5.265624 3.578124-8.457031 9.429687-8.535156 15.660156-.042968 3.75 1.414063 7.316406 4.105469 10.042968 2.71875 2.753907 6.488281 4.335938 10.328125 4.335938h25.125c16.1875 0 29.355469 13.167969 29.355469 29.351562v55.882813c0 2.207031 1.789062 4 4 4h44.011719c5.761718 0 10.449218 4.6875 10.449218 10.453125s-4.6875 10.453125-10.449218 10.453125h-56.574219c-.277344-.058594-.558594-.085937-.863281-.082031-2.535157.109375-5.117188-.921875-6.980469-2.75-1.835938-1.800782-2.84375-4.210938-2.84375-6.785156v-44.289063c0-5.78125-4.105469-10.808594-9.554688-11.691406-3.355469-.550781-6.746093.390625-9.308593 2.574219-2.5625 2.179687-4.035157 5.359374-4.035157 8.722656v144.242187c0 2.210938 1.792969 4 4 4s4-1.789062 4-4v-144.246093c0-1.011719.441407-1.972657 1.214844-2.628907.453125-.386719 1.4375-1 2.839844-.769531 1.59375.257812 2.835937 1.925781 2.835937 3.796875v44.289063c0 4.738281 1.859375 9.175781 5.246094 12.496093 3.207031 3.148438 7.398438 4.914063 11.882812 5.039063.257813.058594.53125.085937.808594.085937h57.3125c10.175782 0 18.449219-8.277343 18.449219-18.453125.007813-10.179687-8.269531-18.457031-18.445313-18.457031zm0 0"/><path d="m131.925781 312.414062c-2.207031 0-4 1.792969-4 4v15.183594c0 2.207032 1.792969 4 4 4s4-1.792968 4-4v-15.183594c0-2.207031-1.792969-4-4-4zm0 0"/></g></svg>