<svg height="479pt" viewBox="-141 0 479 479.16827" width="479pt" xmlns="http://www.w3.org/2000/svg"><path d="m195.585938 196.140625-8.710938-19.742187v-30.421876c0-14.066406-7.714844-26.34375-19.117188-32.894531.222657-2.070312.367188-4.140625.367188-6.21875v-10.679687c0-1.832032-1.246094-3.421875-3.011719-3.875l-28.988281-7.375c-.261719-.070313-.527344-.074219-.796875-.105469 6.203125-7.449219 9.765625-16.863281 9.765625-26.816406 0-11.445313-4.523438-22.144531-12.730469-30.125-8.207031-7.976563-19.066406-12.222657-30.488281-11.871094-11.042969.308594-21.414062 5.015625-29.199219 13.253906-7.796875 8.253907-11.914062 18.902344-11.59375 29.980469.390625 13.425781 7.277344 25.964844 18.425781 33.53125 3.117188 2.117188 4.980469 5.550781 4.980469 9.179688 0 3.347656-2.726562 6.074218-6.074219 6.074218h-25.222656c-20.464844 0-37.109375 16.648438-37.109375 37.113282v116.394531c0 9.753906 7.28125 17.773437 16.582031 18.257812 4.878907.28125 9.476563-1.445312 12.996094-4.785156 3.472656-3.292969 5.460938-7.921875 5.460938-12.707031v-82.96875c0-1.84375 1.226562-3.488282 2.792968-3.742188 1.390626-.222656 2.351563.375 2.792969.753906.761719.648438 1.199219 1.589844 1.199219 2.589844v214.554688c0 10.582031 7.625 19.398437 17.667969 21.285156v60.136719c0 2.207031 1.789062 4 4 4 2.214843 0 4-1.792969 4-4v-60.132813c10.046875-1.886718 17.667969-10.703125 17.667969-21.285156v-94.128906c0-2.308594 1.5625-4.367188 3.558593-4.691406 1.300781-.210938 2.5625.132812 3.539063.960937.964844.824219 1.519531 2.019531 1.519531 3.285156v158.574219c0 11.949219 9.722656 21.667969 21.980469 21.667969 11.949218 0 21.667968-9.71875 21.667968-21.667969v-267.257812c0-.527344.066407-1.03125.175782-1.523438l9.566406 21.683594c2.914062 6.601562 9.398438 10.539062 16.191406 10.539062 2.375 0 4.789063-.484375 7.097656-1.5 4.320313-1.910156 7.636719-5.378906 9.34375-9.777344 1.71875-4.402343 1.605469-9.203124-.296874-13.523437zm0 0" fill="#e6e7e8"/><path d="m132.9375 96.039062h-21.195312c-5.5625 0-10.074219-4.511718-10.074219-10.074218v-.003906c0-4.9375 2.40625-9.589844 6.511719-12.332032 10.195312-6.816406 16.917968-18.429687 16.917968-31.617187 0-21.355469-17.613281-38.597657-39.101562-37.996094-20.660156.578125-37.507813 18.460937-36.90625 39.121094.363281 12.625 6.890625 23.699219 16.671875 30.339843 4.164062 2.828126 6.734375 7.457032 6.734375 12.488282 0 5.5625-4.511719 10.074218-10.074219 10.074218h-25.222656c-18.285157 0-33.109375 14.824219-33.109375 33.113282v116.390625c0 7.320312 5.476562 13.882812 12.789062 14.265625 7.796875.40625 14.246094-5.792969 14.246094-13.5v-82.96875c0-3.683594 2.515625-7.09375 6.152344-7.6875 4.628906-.753906 8.636718 2.804687 8.636718 7.292968v214.554688c0 9.757812 7.910157 17.667969 17.667969 17.667969 9.753907 0 17.667969-7.910157 17.667969-17.667969v-94.128906c0-4.140625 2.824219-7.972656 6.910156-8.640625 5.203125-.847657 9.703125 3.148437 9.703125 8.195312v158.574219c0 9.757812 7.914063 17.667969 17.667969 17.667969h.3125c9.757812 0 17.667969-7.910157 17.667969-17.667969v-267.257812c0-6.070313 4.921875-10.988282 10.988281-10.988282h22.371094v-33.273437c.003906-18.746094-15.191406-33.941407-33.933594-33.941407zm0 0" fill="#fff"/><path d="m144.589844 110.136719c-1.15625 3.097656-2.554688 6.113281-4.21875 8.980469-6.648438 11.46875-21.691406 19.460937-21.691406 19.460937s-15.152344-8.257813-21.6875-19.460937c-5.269532-9.03125-7.753907-18.222657-7.753907-28.25v-10.683594l16.152344-4.109375c.8125-.921875 1.742187-1.75 2.789063-2.445313 8.621093-5.761718 14.699218-14.964844 16.390624-25.632812-2.941406-18.472656-19.148437-32.523438-38.574218-31.980469-18.277344.511719-33.542969 14.574219-36.414063 32.113281 1.703125 10.523438 7.710938 19.597656 16.179688 25.347656 4.164062 2.828126 6.734375 7.457032 6.734375 12.488282 0 1.988281-.597656 3.832031-1.589844 5.390625 1.015625 2.023437 1.589844 4.269531 1.589844 6.609375 0 5.5625-4.511719 10.074218-10.074219 10.074218h-25.222656c-18.285157 0-33.109375 14.824219-33.109375 33.113282v104.390625c0 7.320312 5.476562 13.882812 12.789062 14.265625 7.796875.40625 14.246094-5.792969 14.246094-13.5v-82.96875c0-3.683594 2.515625-7.09375 6.152344-7.6875 4.628906-.753906 8.636718 2.804687 8.636718 7.292968v214.554688c0 9.757812 7.910157 17.667969 17.667969 17.667969 9.753907 0 17.667969-7.910157 17.667969-17.667969v-94.128906c0-4.140625 2.824219-7.972656 6.910156-8.640625 5.203125-.847657 9.703125 3.148437 9.703125 8.195312v158.574219c0 9.757812 7.914063 17.667969 17.667969 17.667969h.3125c9.757812 0 17.667969-7.910157 17.667969-17.667969v-267.257812c0-6.070313 4.921875-10.988282 10.988281-10.988282h22.371094v-21.273437c.003906-14.644531-9.285156-27.089844-22.28125-31.84375zm0 0" fill="#6dc9f7"/><path d="m118.242188 72.804688-29.007813 7.378906v10.683594c0 10.023437 2.484375 19.21875 7.753906 28.25 6.539063 11.207031 21.691407 19.460937 21.691407 19.460937s15.039062-7.992187 21.691406-19.460937c4.945312-8.527344 7.753906-18.222657 7.753906-28.25v-10.683594l-29.007812-7.378906c-.285157-.074219-.585938-.074219-.875 0zm0 0" fill="#fa759e"/><path d="m175.925781 181.757812-29.0625-65.878906c-3.046875-6.902344-11.113281-10.035156-18.019531-6.988281-6.902344 3.050781-10.035156 11.117187-6.988281 18.023437l29.0625 65.875c3.046875 6.90625 11.113281 10.035157 18.019531 6.988282 6.902344-3.050782 10.035156-11.113282 6.988281-18.019532zm0 0" fill="#6dc9f7"/><g fill="#3a2c60"><path d="m45.917969 281.933594c2.210937 0 4-1.792969 4-4v-17.53125c0-2.207032-1.789063-4-4-4-2.214844 0-4 1.792968-4 4v17.53125c0 2.207031 1.785156 4 4 4zm0 0"/><path d="m106.023438 92.671875c-2.085938 0-3.78125 1.691406-3.78125 3.78125 0 2.085937 1.695312 3.777344 3.78125 3.777344 2.089843 0 3.78125-1.691407 3.78125-3.777344 0-2.089844-1.691407-3.78125-3.78125-3.78125zm0 0"/><path d="m131.601562 100.226562c2.085938 0 3.777344-1.691406 3.777344-3.777343 0-2.089844-1.691406-3.78125-3.777344-3.78125-2.089843 0-3.78125 1.691406-3.78125 3.78125 0 2.085937 1.691407 3.777343 3.78125 3.777343zm0 0"/><path d="m179.585938 180.140625-8.710938-19.742187v-30.421876c0-14.050781-7.714844-26.277343-19.097656-32.832031.230468-2.089843.351562-4.183593.351562-6.277343v-10.683594c0-1.832032-1.246094-3.421875-3.011718-3.875l-28.988282-7.375c-.257812-.070313-.523437-.074219-.789062-.101563 6.203125-7.449219 9.757812-16.863281 9.757812-26.816406 0-11.441406-4.523437-22.144531-12.730468-30.125-8.207032-7.976563-19.066407-12.222656-30.488282-11.8710938-11.042968.3085938-21.414062 5.0156248-29.199218 13.2539068-7.796876 8.253906-11.914063 18.902343-11.59375 29.980468.390624 13.425782 7.277343 25.964844 18.425781 33.53125 3.117187 2.117188 4.980469 5.550782 4.980469 9.179688 0 3.347656-2.726563 6.074218-6.074219 6.074218h-25.222657c-20.464843 0-37.1093745 16.648438-37.1093745 37.113282v116.390625c0 9.753906 7.2812505 17.773437 16.5820315 18.257812 4.878906.28125 9.476562-1.445312 12.996093-4.785156 3.472657-3.292969 5.460938-7.921875 5.460938-12.707031v-82.96875c0-1.84375 1.226562-3.488282 2.792969-3.742188 1.390625-.222656 2.351562.375 2.792969.753906.761718.648438 1.203124 1.589844 1.203124 2.589844v82.140625c0 2.207031 1.785157 4 4 4 2.210938 0 4-1.792969 4-4v-82.136719c0-3.347656-1.464843-6.511718-4.019531-8.679687-2.550781-2.167969-5.945312-3.105469-9.257812-2.5625-5.421875.882813-9.511719 5.886719-9.511719 11.636719v82.96875c0 2.636718-1.058594 5.085937-2.96875 6.902344-1.914062 1.816406-4.4375 2.726562-7.066406 2.601562-4.964844-.261719-9.003906-4.867188-9.003906-10.269531v-116.390625c0-16.050782 13.058593-29.113282 29.109374-29.113282h25.222657c7.757812 0 14.074219-6.316406 14.074219-14.074218 0-6.285156-3.171876-12.1875-8.488282-15.800782-9.027344-6.128906-14.609375-16.277343-14.917968-27.144531-.261719-8.9375 3.082031-17.550781 9.414062-24.25 6.316406-6.683593 14.699219-10.503906 23.609375-10.753906 9.21875-.296875 18.046875 3.152344 24.683594 9.613281 6.644531 6.460938 10.304687 15.125 10.304687 24.386719 0 11.375-5.660156 21.953125-15.136718 28.289063-.953126.636718-1.800782 1.378906-2.605469 2.164062l-15.097657 3.839844c-1.773437.453125-3.019531 2.046875-3.019531 3.875v10.683594c0 10.796874 2.71875 20.691406 8.296875 30.261718 7.019532 12.03125 22.574219 20.597656 23.234375 20.960938.59375.328125 1.25.488281 1.914063.488281.644531 0 1.289062-.15625 1.875-.46875.160156-.085937 1.28125-.710937 2.886718-1.695313l10.34375 23.449219c-2.628906 2.683594-4.273437 6.324219-4.273437 10.371094v267.261719c0 7.535156-6.132813 13.667968-13.980469 13.667968-7.535156 0-13.667968-6.132812-13.667968-13.667968v-158.566406c0-3.617188-1.582032-7.039063-4.335938-9.382813-2.753906-2.339844-6.417969-3.359375-10.007812-2.757813-5.855469.953126-10.265626 6.363282-10.265626 12.582032v94.128906c0 7.535156-6.132812 13.667969-13.667968 13.667969-7.539063 0-13.667969-6.132813-13.667969-13.667969v-84.484375c0-2.207031-1.789063-4-4-4-2.214844 0-4 1.792969-4 4v84.488281c0 10.582032 7.621094 19.398438 17.667969 21.285156v60.136719c0 2.207031 1.785156 4 4 4 2.210937 0 4-1.792969 4-4v-60.140625c10.042968-1.886718 17.667968-10.703125 17.667968-21.285156v-94.128906c0-2.308594 1.558594-4.367188 3.554688-4.691406 1.300781-.210938 2.5625.132812 3.539062.960937.964844.824219 1.519532 2.019531 1.519532 3.285156v158.574219c0 11.949219 9.722656 21.667969 21.980468 21.667969 11.949219 0 21.667969-9.71875 21.667969-21.667969v-267.257812c0-.523438.074219-1.023438.183594-1.511719l9.5625 21.671875c2.914063 6.601562 9.398437 10.539062 16.191406 10.539062 2.375 0 4.792969-.484375 7.097657-1.5 4.320312-1.910156 7.636718-5.378906 9.34375-9.777344 1.703124-4.402343 1.589843-9.203124-.3125-13.523437zm-16.710938-50.164063v12.289063l-12.351562-28c-.539063-1.226563-1.238282-2.34375-2.015626-3.398437.636719-1.761719 1.167969-3.542969 1.640626-5.34375 7.6875 5.425781 12.726562 14.351562 12.726562 24.453124zm-44.175781 3.96875c-4.078125-2.507812-13.667969-8.984374-18.25-16.84375-4.847657-8.3125-7.210938-16.894531-7.210938-26.234374v-7.574219l25.441407-6.472657 25.445312 6.472657v7.574219c0 4.921874-.789062 9.84375-2.238281 14.636718-.386719-.183594-.738281-.417968-1.144531-.574218-4.398438-1.710938-9.203126-1.597657-13.515626.304687-4.320312 1.910156-7.632812 5.378906-9.34375 9.777344-1.707031 4.402343-1.59375 9.199219.308594 13.519531l1.976563 4.480469c-.515625.332031-1.054688.683593-1.46875.933593zm53.734375 56.824219c-.933594 2.40625-2.75 4.308594-5.109375 5.347657-2.367188 1.046874-4.988281 1.097656-7.398438.167968-2.410156-.933594-4.304687-2.753906-5.351562-5.113281l-29.058594-65.875c-2.152344-4.875.070313-10.59375 4.941406-12.746094 1.25-.550781 2.574219-.828125 3.898438-.828125 1.183593 0 2.363281.222656 3.5.660156 2.410156.933594 4.304687 2.753907 5.347656 5.113282l29.0625 65.875c1.039063 2.359375 1.097656 4.988281.167969 7.398437zm0 0"/></g></svg>