<svg height="459pt" viewBox="-23 0 459 459.687" width="459pt" xmlns="http://www.w3.org/2000/svg"><path d="m203.8125 13.1875-173.808594 44.234375c-10.386718 2.640625-17.660156 12-17.660156 22.71875v54.699219c0 53.851562 11.5 106.511718 33.140625 154.699218 26.429687 58.859376 70.472656 108.082032 124.679687 143.074219l40.960938 26.433594c1.320312.851563 3.015625.851563 4.339844 0l40.957031-26.433594c54.214844-34.992187 98.253906-84.214843 124.6875-143.074219 21.632813-48.1875 33.136719-100.847656 33.136719-154.699218v-54.703125c0-10.722657-7.269532-20.078125-17.660156-22.722657l-173.8125-44.226562c-6.222657-1.582031-12.742188-1.582031-18.960938 0zm0 0" fill="#e6e7e8"/><path d="m195.8125 5.1875-173.808594 44.226562c-10.386718 2.644532-17.660156 12-17.660156 22.722657v54.699219c0 53.851562 11.5 106.511718 33.140625 154.699218 26.429687 58.859375 70.472656 108.082032 124.679687 143.074219l43.128907 27.839844 43.125-27.835938c54.214843-34.992187 98.253906-84.214843 124.683593-143.074219 21.636719-48.1875 33.140626-100.847656 33.140626-154.699218v-54.703125c0-10.722657-7.269532-20.078125-17.660157-22.722657l-173.808593-44.226562c-6.222657-1.582031-12.742188-1.582031-18.960938 0zm0 0" fill="#fff"/><path d="m195.8125 5.1875-173.808594 44.226562c-10.386718 2.644532-17.660156 12-17.660156 22.722657v54.699219c0 53.851562 11.5 106.511718 33.140625 154.699218 26.429687 58.859375 70.472656 108.082032 124.679687 143.074219l43.128907 27.839844 43.125-27.835938c54.214843-34.992187 98.253906-84.214843 124.683593-143.074219 21.636719-48.1875 33.140626-100.847656 33.140626-154.699218v-54.703125c0-10.722657-7.269532-20.078125-17.660157-22.722657l-173.808593-44.226562c-6.222657-1.582031-12.742188-1.582031-18.960938 0zm0 0" fill="#6dc9f7"/><path d="m173.890625 402.839844c-50.988281-32.90625-90.429687-78.136719-114.074219-130.785156-20.257812-45.109376-30.523437-93.050782-30.523437-142.5v-53.203126c0-1.53125 1.035156-2.867187 2.523437-3.242187l169.050782-43.019531c1.449218-.371094 2.9375-.558594 4.425781-.558594s2.972656.1875 4.421875.554688l169.058594 43.023437c1.480468.378906 2.523437 1.710937 2.523437 3.242187v53.203126c0 49.449218-10.269531 97.394531-30.53125 142.5-23.636719 52.652343-63.082031 97.878906-114.070313 130.789062l-31.398437 20.265625zm0 0" fill="#d4fbff"/><path d="m310.285156 295.785156-21.539062-53.140625c-3.925782-9.691406-12.542969-16.695312-22.832032-18.566406l-30.769531-5.582031c5.382813 10.113281 8.578125 21.429687 9.113281 33.261718l6.4375 1.167969c5.824219 1.054688 10.703126 5.023438 12.925782 10.507813l17.84375 44.03125c3.222656 7.960937 12.289062 11.796875 20.246094 8.570312 7.960937-3.226562 11.796874-12.292968 8.574218-20.25zm0 0" fill="#fa759e"/><path d="m222.808594 140.578125c-.222656-8.285156-4.636719-15.472656-11.160156-19.589844 7.617187-4.765625 12.605468-13.300781 12.351562-22.9375-.382812-14.480469-12.4375-25.90625-26.921875-25.523437-14.480469.382812-25.90625 12.4375-25.523437 26.921875.257812 9.636719 5.691406 17.890625 13.558593 22.242187-.597656.421875-1.152343.898438-1.707031 1.367188l-34.082031 18.574218c-7.425781 4.042969-10.160157 13.339844-6.117188 20.757813l21.449219 39.371094c2.753906 5.054687 9.082031 6.917969 14.140625 4.167969 5.054687-2.757813 6.917969-9.085938 4.167969-14.140626l-18.796875-34.5 11.09375-6.046874.703125 26.265624c1.277344.167969 2.550781.265626 3.832031.496094 18.003906 3.269532 33.398437 12.46875 44.675781 25.164063h.003906zm0 0" fill="#fa759e"/><path d="m179.796875 178.003906c-1.566406-.285156-3.117187-.417968-4.671875-.609375l7.839844 14.394531c1.871094 3.4375 1.566406 7.441407-.386719 10.535157 26.34375 8.324219 43.042969 35.085937 37.980469 62.988281-5.492188 30.261719-34.480469 50.347656-64.742188 44.859375-30.269531-5.492187-50.351562-34.480469-44.859375-64.742187 4.746094-26.171876 27.074219-44.699219 52.597657-45.6875l-11.808594-21.671876c-31.316406 5.6875-57.339844 30.101563-63.355469 63.265626-7.75 42.726562 20.601563 83.652343 63.328125 91.402343 42.730469 7.753907 83.652344-20.597656 91.40625-63.328125 7.753906-42.730468-20.601562-83.652344-63.328125-91.40625zm0 0" fill="#fff"/><path d="m182.300781 190.566406.664063 1.222656c1.875 3.4375 1.566406 7.441407-.386719 10.539063 25.035156 7.910156 41.308594 32.476563 38.519531 58.851563.585938 5.253906.457032 10.671874-.535156 16.136718-5.492188 30.261719-34.480469 50.347656-64.742188 44.859375-28.886718-5.238281-48.4375-31.878906-45.398437-60.609375-.582031-5.25-.453125-10.671875.539063-16.132812 4.746093-26.171875 27.074218-44.699219 52.597656-45.6875l-5.75-10.554688c-33.980469 3.445313-63.011719 28.859375-69.417969 64.144532-.460937 2.542968-.773437 5.085937-.988281 7.609374 2.46875 34.992188 28.214844 65.242188 64.316406 71.792969 42.730469 7.753907 83.652344-20.597656 91.40625-63.328125.457031-2.542968.773438-5.082031.988281-7.605468-2.410156-34.175782-27.042969-63.761719-61.8125-71.238282zm0 0" fill="#0089ef"/><path d="m183.972656 255.371094c0 10.058594-8.15625 18.214844-18.214844 18.214844-10.054687 0-18.210937-8.15625-18.210937-18.214844s8.15625-18.210938 18.210937-18.210938c10.058594 0 18.214844 8.152344 18.214844 18.210938zm0 0" fill="#0089ef"/><g fill="#3a2c60"><path d="m398.445312 203.296875c-2.183593-.46875-4.289062.898437-4.761718 3.054687-1.863282 8.550782-4.054688 17.15625-6.519532 25.558594-.621093 2.121094.589844 4.34375 2.714844 4.964844.375.113281.753906.164062 1.125.164062 1.730469 0 3.328125-1.132812 3.839844-2.875 2.515625-8.589843 4.75-17.371093 6.660156-26.109374.46875-2.160157-.902344-4.289063-3.058594-4.757813zm0 0"/><path d="m389.566406 45.539062-173.808594-44.230468c-6.847656-1.746094-14.082031-1.746094-20.929687 0l-173.808594 44.230468c-12.171875 3.101563-20.675781 14.035157-20.675781 26.597657v54.699219c0 54.242187 11.269531 106.84375 33.492188 156.335937 26.210937 58.367187 69.835937 108.4375 126.160156 144.796875l43.128906 27.835938c.660156.421874 1.414062.640624 2.167969.640624.75 0 1.507812-.214843 2.167969-.640624l43.125-27.835938c56.328124-36.355469 99.953124-86.429688 126.160156-144.796875 4.421875-9.839844 8.46875-19.988281 12.03125-30.152344.730468-2.082031-.371094-4.367187-2.449219-5.09375-2.085937-.734375-4.371094.367188-5.097656 2.449219-3.488281 9.949219-7.445313 19.882812-11.773438 29.515625-25.578125 56.957031-68.175781 105.835937-123.203125 141.351563l-40.957031 26.4375-40.960937-26.4375c-55.023438-35.515626-97.628907-84.390626-123.203126-141.347657-21.757812-48.453125-32.789062-99.949219-32.789062-153.058593v-54.699219c0-8.902344 6.023438-16.648438 14.648438-18.839844l173.804687-44.234375c5.558594-1.414062 11.429687-1.414062 16.988281 0l173.804688 44.234375c8.625 2.195313 14.648437 9.941406 14.648437 18.839844v54.699219c0 19.042968-1.472656 38.234374-4.378906 57.039062-.335937 2.183594 1.160156 4.230469 3.34375 4.566406 2.1875.335938 4.226563-1.160156 4.5625-3.339844 2.96875-19.210937 4.472656-38.808593 4.472656-58.261718v-54.703125c0-12.5625-8.5-23.496094-20.671875-26.597657zm0 0"/><path d="m84.460938 240.621094c-3.941407 21.714844.8125 43.667968 13.378906 61.8125 12.566406 18.140625 31.453125 30.300781 53.167968 34.242187 4.96875.898438 9.910157 1.335938 14.789063 1.335938 39.160156 0 74.035156-28.023438 81.265625-67.886719.828125-4.558594 1.160156-9.082031 1.230469-13.570312l1.6875.304687c4.5.816406 8.214843 3.835937 9.929687 8.078125l17.84375 44.03125c3.082032 7.589844 10.417969 12.203125 18.144532 12.203125 2.4375 0 4.917968-.460937 7.316406-1.429687 9.984375-4.046876 14.820312-15.464844 10.773437-25.457032l-21.535156-53.140625c-4.464844-11.023437-14.121094-18.875-25.824219-20.996093l-28.878906-5.242188c-2.660156-4.722656-5.789062-9.167969-9.316406-13.285156l-1.625-61.148438c-.199219-7.453125-3.34375-14.40625-8.632813-19.445312 6.386719-5.863282 10.0625-14.300782 9.828125-23.082032-.445312-16.660156-14.285156-29.832031-31.027344-29.417968-16.664062.445312-29.855468 14.359375-29.417968 31.023437.230468 8.484375 4.101562 16.425781 10.394531 21.925781l-30.542969 16.640626c-9.34375 5.085937-12.808594 16.835937-7.714844 26.183593l6.007813 11.027344c-9.53125 2.378906-18.683594 6.351563-27.003906 12.117187-18.140625 12.574219-30.304688 31.457032-34.238281 53.175782zm157.613281-16.796875 23.121093 4.195312c8.992188 1.632813 16.414063 7.660157 19.839844 16.128907l21.539063 53.140624c2.394531 5.902344-.460938 12.652344-6.363281 15.039063-5.910157 2.386719-12.652344-.464844-15.042969-6.363281l-17.84375-44.03125c-2.757813-6.796875-8.707031-11.632813-15.917969-12.941406l-3.363281-.609376c-.019531-.257812-.070313-.511718-.09375-.769531-.144531-1.519531-.328125-3.023437-.558594-4.523437-.144531-.96875-.324219-1.925782-.5-2.882813-.246094-1.324219-.484375-2.644531-.800781-3.945312-.335938-1.414063-.75-2.808594-1.164063-4.203125-.492187-1.660156-1.03125-3.289063-1.621093-4.910156-.402344-1.113282-.773438-2.234376-1.230469-3.324219zm-80.808594-19.957031c2.640625 4.675781 7.527344 7.332031 12.570313 7.332031 2.332031 0 4.691406-.5625 6.875-1.75 1.203124-.65625 2.242187-1.507813 3.1875-2.445313 22.957031 8.597656 37.253906 32.652344 32.730468 57.601563-5.089844 28.046875-32.042968 46.738281-60.09375 41.632812-13.585937-2.460937-25.402344-10.070312-33.261718-21.421875-7.867188-11.347656-10.839844-25.085937-8.375-38.667968 4.242187-23.421876 23.730468-40.300782 46.367187-42.28125zm10.175781-45.988282.121094 4.621094-1.96875-3.613281zm-20.203125-12.734375 34.449219-18.769531c.21875-.117188.363281-.3125.550781-.464844.390625-.324218.769531-.65625 1.1875-.953125 1.125-.796875 1.761719-2.113281 1.6875-3.484375-.078125-1.375-.855469-2.613281-2.0625-3.28125-6.878906-3.808594-11.285156-11.027344-11.496093-18.847656-.324219-12.25 9.378906-22.488281 21.632812-22.816406 12.230469-.230469 22.488281 9.378906 22.816406 21.632812.207032 7.820313-3.804687 15.269532-10.476562 19.4375-1.167969.730469-1.875 2.007813-1.878906 3.382813-.003907 1.375.699218 2.65625 1.863281 3.390625 5.644531 3.5625 9.121093 9.660156 9.296875 16.3125l1.394531 52.585937c-.523437-.460937-1.074219-.882812-1.609375-1.324219-.625-.523437-1.246094-1.054687-1.890625-1.5625-1.824219-1.441406-3.691406-2.816406-5.625-4.089843-.179687-.121094-.371094-.226563-.554687-.34375-1.90625-1.242188-3.871094-2.378907-5.875-3.449219-.417969-.222656-.835938-.449219-1.257813-.664062-4.417969-2.269532-9.050781-4.128907-13.863281-5.5625-.542969-.164063-1.085938-.320313-1.632813-.472657-2.425781-.671875-4.878906-1.277343-7.386719-1.734375-.214843-.039062-.429687-.074218-.640624-.105468l-.542969-20.375 16.332031-8.902344c1.9375-1.054688 2.65625-3.488282 1.59375-5.421875-1.050781-1.941407-3.484375-2.660157-5.421875-1.597657l-29.578125 16.113282c-1.9375 1.054687-2.65625 3.488281-1.59375 5.421875l18.796875 34.5c.820313 1.503906 1.003906 3.246093.519531 4.890625-.484375 1.644531-1.585937 3.003906-3.089844 3.824218-1.503906.816407-3.242187 1.007813-4.886718.523438-1.648438-.484375-3.003906-1.585938-3.828125-3.089844l-21.449219-39.371094c-2.980469-5.472656-.953125-12.347656 4.519531-15.332031zm-1.578125 37.453125 7.515625 13.792969c-24.65625 3.613281-45.464843 22.472656-50.15625 48.320313-2.847656 15.6875.582031 31.550781 9.667969 44.65625 9.078125 13.109374 22.722656 21.894531 38.410156 24.742187 3.589844.652344 7.160156.964844 10.6875.960937 28.285156 0 53.480469-20.246093 58.710938-49.042968 5.152344-28.398438-10.847656-55.734375-36.6875-66.019532.792968-3.445312.371094-7.007812-1.332032-10.132812l-3.875-7.109375c38.496094 8.917969 63.71875 46.636719 56.589844 85.925781-7.34375 40.492188-46.269531 67.449219-86.757812 60.113282-19.613282-3.5625-36.667969-14.542969-48.019532-30.929688-11.351562-16.382812-15.640624-36.210938-12.082031-55.824219 3.558594-19.613281 14.542969-36.667969 30.925781-48.019531 8.097657-5.617188 17.0625-9.371094 26.402344-11.433594zm0 0"/><path d="m161.796875 277.226562c1.339844.246094 2.679687.367188 4.015625.367188 4.476562 0 8.839844-1.359375 12.597656-3.960938 4.878906-3.378906 8.148438-8.457031 9.207032-14.296874 2.183593-12.050782-5.839844-23.636719-17.894532-25.824219-5.832031-1.058594-11.734375.21875-16.613281 3.597656s-8.148437 8.453125-9.207031 14.289063c-1.058594 5.839843.21875 11.742187 3.597656 16.617187 3.378906 4.882813 8.457031 8.152344 14.296875 9.210937zm-10.019531-24.394531c.675781-3.734375 2.765625-6.984375 5.890625-9.144531 2.402343-1.667969 5.199219-2.535156 8.0625-2.535156.851562 0 1.714843.078125 2.570312.230468 7.710938 1.402344 12.847657 8.8125 11.445313 16.523438-.675782 3.738281-2.765625 6.984375-5.890625 9.144531-3.121094 2.164063-6.894531 2.984375-10.632813 2.300781-3.734375-.675781-6.984375-2.765624-9.148437-5.890624-2.164063-3.117188-2.980469-6.890626-2.296875-10.628907zm0 0"/></g></svg>