<svg height="489pt" viewBox="-79 0 489 489.862" width="489pt" xmlns="http://www.w3.org/2000/svg"><path d="m330.613281 118.734375-15.789062-35.058594c-.1875-.414062-.453125-.769531-.753907-1.089843-.082031-.089844-.179687-.15625-.273437-.238282-.265625-.234375-.550781-.425781-.863281-.582031-.121094-.058594-.238282-.121094-.367188-.171875-.4375-.164062-.902344-.28125-1.390625-.28125h-33.871093v-6.734375c0-6.417969-5.21875-11.632813-11.628907-11.632813-6.414062 0-11.632812 5.214844-11.632812 11.632813v6.734375h-32.230469c-.417969.023438-.824219.113281-1.222656.246094-.265625.085937-.503906.203125-.738282.339844-.160156.089843-.304687.195312-.453124.304687-.183594.140625-.367188.265625-.519532.433594-.289062.304687-.539062.644531-.714844 1.046875l-.027343.058594c-.003907.007812-.003907.011718-.007813.019531l-15.40625 34.59375c-.359375.574219-.636718 1.207031-.683594 1.90625-.007812.089843-.019531.410156-.019531.5 0 10.914062 8.878907 19.792969 19.792969 19.792969 10.910156 0 19.785156-8.878907 19.785156-19.792969 0-.03125-.007812-.257813-.015625-.394531 0-.550782-.09375-1.105469-.335937-1.640626l-13.246094-29.417968h26.039062v64.5625h-32.722656c-7.8125 0-14.167968 6.355468-14.167968 14.167968s6.355468 14.167969 14.167968 14.167969h88.707032c7.8125 0 14.167968-6.355469 14.167968-14.167969s-6.355468-14.167968-14.167968-14.167968h-32.722657v-64.5625h27.710938l-12.9375 29.0625c-.351563.570312-.625 1.199218-.671875 1.890625-.007813.089843-.019532.410156-.019532.5 0 10.914062 8.878907 19.792969 19.789063 19.792969 10.914063 0 19.792969-8.878907 19.792969-19.792969 0-.03125-.011719-.257813-.019532-.394531.007813-.546876-.089843-1.101563-.332031-1.632813zm-118.253906-2.359375 9.472656-21.273438 9.578125 21.273438zm108.417969 0h-19.046875l9.46875-21.273438zm0 0" fill="#e6e7e8"/><path d="m229.570312 194.128906h-39.082031v-50.707031c0-20.210937-16.445312-36.65625-36.65625-36.65625h-24.59375c-1.660156 0-3.292969-.6875-4.480469-1.890625-1.128906-1.148438-1.75-2.628906-1.730468-4.167969.042968-3.507812 1.871094-6.828125 4.886718-8.878906 11.011719-7.472656 17.816407-19.855469 18.199219-33.113281.316407-10.925782-3.742187-21.429688-11.421875-29.578125-7.691406-8.152344-17.9375-12.8125-28.871094-13.113281-.800781-.027344-3.921874-.027344-4.734374 0-10.917969.300781-21.167969 4.960937-28.859376 13.113281-7.683593 8.148437-11.742187 18.652343-11.421874 29.578125.382812 13.257812 7.1875 25.644531 18.199218 33.113281 3.019532 2.054687 4.84375 5.371094 4.886719 8.878906.019531 1.542969-.59375 3.023438-1.730469 4.171875-1.1875 1.203125-2.820312 1.890625-4.480468 1.890625h-24.59375c-20.210938 0-36.65625 16.445313-36.65625 36.65625v114.785157c0 8.746093 6.132812 16.40625 14.261718 17.820312 5.105469.882812 10.296875-.496094 14.226563-3.800781 3.925781-3.304688 6.175781-8.140625 6.175781-13.265625v-89.222656c0-1.792969 1.1875-3.386719 2.710938-3.632813 1.367187-.210937 2.277343.367187 2.71875.738281.738281.625 1.160156 1.539063 1.160156 2.507813v221.898437c0 10.039063 6.664062 18.765625 15.710937 21.355469v73.253906c0 2.207031 1.789063 4 4 4 2.210938 0 4-1.792969 4-4v-72.578125c4.492188-.488281 8.75-2.363281 12.117188-5.425781 4.457031-4.058594 7.015625-9.832031 7.015625-15.855469v-96.492187c0-2.054688 1.261718-3.90625 2.925781-4.445313 1.691406.554688 2.945313 2.398438 2.945313 4.445313v172.921875c0 6.023437 2.5625 11.804687 7.015624 15.855468 3.949219 3.589844 9.125 5.566407 14.449219 5.566407.679688 0 1.363281-.035157 2.046875-.097657 10.839844-1.03125 19.332032-10.726562 19.332032-22.070312v-298.335938c0-.96875.421874-1.882812 1.160156-2.507812.4375-.371094 1.351562-.949219 2.71875-.738281 1.519531.25 2.710937 1.84375 2.710937 3.636719v43.355468c0 4.664063 1.832031 9.027344 5.160157 12.292969 3.152343 3.089844 7.269531 4.835937 11.683593 4.957031.253907.050782.523438.078125.796875.078125h56.105469c10.007813 0 18.148437-8.140625 18.148437-18.148437 0-10.007813-8.148437-18.148438-18.15625-18.148438zm0 0" fill="#e6e7e8"/><g fill="#fa759e"><path d="m294.027344 141.875h-36.722656v-83.296875c0-4.214844-3.417969-7.632813-7.632813-7.632813-4.21875 0-7.632813 3.417969-7.632813 7.632813v83.296875h-36.722656c-5.617187 0-10.167968 4.550781-10.167968 10.167969 0 5.613281 4.550781 10.167969 10.167968 10.167969h88.703125c5.617188 0 10.167969-4.554688 10.167969-10.167969.007812-5.617188-4.542969-10.167969-10.160156-10.167969zm0 0"/><path d="m190.039062 104.375c-.003906.132812-.019531.257812-.019531.394531 0 8.71875 7.070313 15.792969 15.792969 15.792969 8.71875 0 15.789062-7.074219 15.789062-15.792969 0-.132812-.015624-.261719-.019531-.394531zm0 0"/><path d="m279.402344 104.375c-.003906.132812-.019532.257812-.019532.394531 0 8.71875 7.070313 15.792969 15.792969 15.792969 8.71875 0 15.792969-7.074219 15.792969-15.792969 0-.132812-.019531-.261719-.023438-.394531zm0 0"/></g><path d="m213.566406 182.128906h-43.082031v-54.707031c0-18.035156-14.621094-32.652344-32.652344-32.652344h-24.597656c-5.558594 0-10.273437-4.550781-10.210937-10.113281.058593-4.894531 2.582031-9.382812 6.640624-12.136719 9.648438-6.550781 16.082032-17.472656 16.441407-29.921875.59375-20.371094-16.023438-38.007812-36.398438-38.578125-.765625-.023437-3.753906-.023437-4.515625 0-20.375.566407-36.988281 18.203125-36.402344 38.578125.363282 12.453125 6.796876 23.371094 16.445313 29.921875 4.054687 2.753907 6.585937 7.242188 6.640625 12.136719.066406 5.5625-4.652344 10.113281-10.210938 10.113281h-24.597656c-18.035156 0-32.652344 14.621094-32.652344 32.652344v114.785156c0 6.597657 4.441407 12.75 10.945313 13.878907 8.414063 1.460937 15.71875-4.980469 15.71875-13.125v-89.21875c0-3.632813 2.480469-7 6.070313-7.585938 4.566406-.742188 8.515624 2.765625 8.515624 7.195312v221.898438c0 9.101562 6.652344 17.226562 15.710938 18.09375 10.390625.992188 19.136719-7.15625 19.136719-17.339844v-96.492187c0-4.082031 2.789062-7.867188 6.816406-8.523438.039063-.007812.195313-.007812.234375 0 4.027344.65625 6.816406 4.4375 6.816406 8.523438v172.921875c0 10.1875 8.742188 18.332031 19.136719 17.339844 9.058594-.863282 15.710937-8.992188 15.710937-18.089844v-298.332032c0-4.429687 3.949219-7.9375 8.515626-7.195312 3.585937.585938 6.070312 3.949219 6.070312 7.585938v43.355468c0 7.453125 6.125 13.398438 13.609375 13.253906l.03125.074219h56.109375c7.816406 0 14.148438-6.335937 14.148438-14.148437s-6.328126-14.148438-14.144532-14.148438zm0 0" fill="#fff"/><path d="m226.175781 202.578125c-2.070312-5.253906-7.15625-8.980469-13.144531-8.980469h-43.085938v-54.710937c0-18.035157-14.617187-32.652344-32.648437-32.652344h-24.597656c-5.558594 0-10.277344-4.550781-10.207031-10.113281.027343-2.398438.65625-4.695313 1.757812-6.742188-.769531-1.417968-1.246094-3.011718-1.222656-4.726562.058594-4.894532 2.582031-9.382813 6.640625-12.136719 7.964843-5.40625 13.675781-13.8125 15.652343-23.578125-2.050781-18.121094-17.5-32.941406-36.140624-33.460938-.765626-.019531-3.753907-.019531-4.515626 0-17.460937.488282-32.121093 13.519532-35.597656 30.058594 1.210938 11.210938 7.304688 20.953125 16.175782 26.980469 4.058593 2.753906 6.585937 7.242187 6.640624 12.136719.023438 2.128906-.65625 4.101562-1.8125 5.738281.792969 1.785156 1.253907 3.714844 1.28125 5.726563.066407 5.5625-4.652343 10.113281-10.207031 10.113281h-24.597656c-16.070313 0-29.402344 11.625-32.121094 26.914062v109.058594c0 6.597656 4.441407 12.75 10.945313 13.878906 7.136718 1.238281 13.425781-3.222656 15.183594-9.570312v-81.304688c0-.984375.195312-1.945312.535156-2.839843v-8.625c0-3.632813 2.480468-7 6.070312-7.585938 4.566406-.742188 8.515625 2.765625 8.515625 7.195312v221.898438c0 9.101562 6.652344 17.226562 15.710938 18.09375 8.933593.851562 16.613281-5.066406 18.601562-13.214844v-89.15625c0-1.050781.191407-2.078125.535157-3.042968v-8.421876c0-4.082031 2.789062-7.867187 6.816406-8.523437.039062-.007813.195312-.007813.238281 0 4.027344.65625 6.816406 4.4375 6.816406 8.523437v172.921876c0 10.1875 8.746094 18.332031 19.136719 17.339843 7.628906-.726562 13.496094-6.625 15.175781-13.894531v-291.0625c0-.9375.210938-1.824219.535157-2.648438v-8.8125c0-4.429687 3.949218-7.9375 8.515624-7.195312 3.585938.585938 6.070313 3.949219 6.070313 7.585938v43.355468c0 7.453125 6.125 13.398438 13.609375 13.253906l.035156.074219h56.105469c5.527344 0 10.277344-3.210937 12.597656-7.847656zm0 0" fill="#6dc9f7"/><path d="m275.402344 104.273438c-.007813.097656-.019532.398437-.019532.496093 0 10.914063 8.878907 19.792969 19.792969 19.792969 10.894531 0 19.757813-8.851562 19.765625-20.136719.007813-.566406-.078125-1.144531-.328125-1.691406l-15.789062-35.058594c-.1875-.414062-.453125-.769531-.753907-1.089843-.082031-.089844-.179687-.15625-.273437-.238282-.265625-.234375-.550781-.425781-.863281-.582031-.121094-.058594-.238282-.121094-.367188-.171875-.4375-.164062-.902344-.28125-1.390625-.28125h-33.871093v-6.734375c0-6.417969-5.222657-11.632813-11.632813-11.632813-6.414063 0-11.628906 5.214844-11.628906 11.632813v6.734375h-32.234375c-.003906 0-.007813 0-.007813 0-.488281 0-.945312.117188-1.386719.28125-.132812.046875-.246093.113281-.371093.171875-.308594.15625-.59375.34375-.851563.574219-.097656.082031-.195312.152344-.285156.246094-.304688.320312-.570312.679687-.753906 1.097656l-15.441406 34.6875c-.351563.574218-.625 1.199218-.671876 1.894531-.007812.089844-.019531.410156-.019531.5 0 10.914063 8.878907 19.792969 19.789063 19.792969 10.914062 0 19.789062-8.878906 19.789062-19.792969 0-.03125-.007812-.261719-.015625-.398437 0-.550782-.09375-1.105469-.335937-1.640626l-13.25-29.417968h26.042968v64.5625h-32.722656c-7.8125 0-14.167968 6.355468-14.167968 14.167968s6.355468 14.167969 14.167968 14.167969h88.707032c7.8125 0 14.167968-6.355469 14.167968-14.167969s-6.355468-14.167968-14.167968-14.167968h-32.722657v-64.5625h27.710938l-12.953125 29.09375c-.339844.570312-.605469 1.191406-.65625 1.871094zm-69.570313-25.171876 9.578125 21.273438h-19.050781zm-.023437 37.460938c-5.253906 0-9.71875-3.453125-11.238282-8.1875h22.464844c-1.523437 4.742188-5.980468 8.1875-11.226562 8.1875zm88.21875 29.3125c3.402344 0 6.167968 2.765625 6.167968 6.167969 0 3.398437-2.765624 6.167969-6.167968 6.167969h-88.707032c-3.40625 0-6.167968-2.769532-6.167968-6.167969 0-3.402344 2.761718-6.167969 6.167968-6.167969h36.722657c2.210937 0 4-1.792969 4-4v-83.296875c0-2 1.628906-3.632813 3.628906-3.632813 2.003906 0 3.632813 1.628907 3.632813 3.632813v83.296875c0 2.207031 1.785156 4 4 4zm10.75-45.5h-19.054688l9.472656-21.273438zm-9.601563 16.1875c-5.265625 0-9.738281-3.46875-11.25-8.1875h22.476563c-1.523438 4.742188-5.980469 8.1875-11.226563 8.1875zm0 0" fill="#3a2c60"/><path d="m213.570312 178.128906h-39.085937v-50.707031c0-20.210937-16.441406-36.65625-36.652344-36.65625h-24.59375c-1.660156 0-3.289062-.6875-4.480469-1.890625-1.128906-1.148438-1.75-2.632812-1.730468-4.171875.042968-3.507813 1.871094-6.828125 4.886718-8.878906 11.007813-7.46875 17.808594-19.851563 18.199219-33.113281.316407-10.925782-3.742187-21.429688-11.421875-29.578126-7.691406-8.15625-17.9375-12.8125-28.859375-13.1132808-.804687-.0273437-3.9375-.0273437-4.746093 0-10.917969.3007808-21.167969 4.9609378-28.859376 13.1132808-7.683593 8.148438-11.742187 18.652344-11.421874 29.578126.382812 13.257812 7.183593 25.640624 18.195312 33.113281 3.019531 2.050781 4.847656 5.367187 4.890625 8.875.019531 1.542969-.59375 3.023437-1.730469 4.171875-1.191406 1.203125-2.820312 1.890625-4.480468 1.890625h-24.59375c-20.210938 0-36.65625 16.445312-36.65625 36.65625v114.78125c0 8.746093 6.132812 16.410156 14.261718 17.824219 5.109375.886718 10.296875-.496094 14.226563-3.800782 3.925781-3.304687 6.175781-8.140625 6.175781-13.265625v-89.214843c0-1.792969 1.1875-3.386719 2.710938-3.632813 1.339843-.222656 2.277343.363281 2.714843.734375.738281.625 1.160157 1.542969 1.160157 2.507812v221.898438c0 10.039062 6.664062 18.765625 15.714843 21.355469v73.253906c0 2.207031 1.789063 4 4 4 2.210938 0 4-1.792969 4-4v-72.574219c4.476563-.488281 8.75-2.367187 12.117188-5.429687 4.457031-4.058594 7.015625-9.832031 7.015625-15.859375v-96.484375c0-2.066407 1.28125-3.925781 2.914062-4.449219 1.699219.550781 2.957032 2.398438 2.957032 4.449219v172.921875c0 6.019531 2.5625 11.800781 7.015624 15.851562 3.953126 3.59375 9.128907 5.570313 14.457032 5.570313.679687 0 1.363281-.035157 2.042968-.097657 10.839844-1.03125 19.332032-10.726562 19.332032-22.074218v-111.679688c0-2.210937-1.785156-4-4-4-2.210938 0-4 1.789063-4 4v111.683594c0 7.261719-5.3125 13.460938-12.085938 14.105469-3.871094.371093-7.527344-.851563-10.359375-3.421875-2.796875-2.542969-4.402343-6.160156-4.402343-9.933594v-172.925781c0-6.164063-4.375-11.523438-10.222657-12.476563-.414062-.066406-1.070312-.0625-1.476562.007813-5.796875.941406-10.171875 6.304687-10.171875 12.46875v96.484375c0 3.777344-1.601563 7.398437-4.398438 9.9375-2.832031 2.578125-6.53125 3.777344-10.359375 3.421875-6.777343-.648438-12.089843-6.839844-12.089843-14.109375v-221.894532c0-3.316406-1.449219-6.453124-3.976563-8.601562-2.527344-2.152344-5.871094-3.074219-9.179687-2.539062-5.375.871093-9.425782 5.832031-9.425782 11.53125v89.21875c0 2.761718-1.214844 5.363281-3.328125 7.144531-2.148437 1.804687-4.882812 2.523437-7.707031 2.039062-4.347656-.75-7.628906-5.027343-7.628906-9.9375v-114.785156c0-15.800781 12.855468-28.65625 28.65625-28.65625h24.59375c3.78125 0 7.488281-1.554687 10.167968-4.269531 2.652344-2.679688 4.082032-6.195313 4.042969-9.894532-.078125-6.125-3.21875-11.878906-8.398437-15.394531-8.890625-6.035156-14.382813-16.027343-14.6875-26.730469-.257813-8.789062 3.027344-17.257812 9.246094-23.855468 6.222656-6.59375 14.484374-10.363282 23.265624-10.605469.726563-.023437 3.5625-.023437 4.285157 0 8.78125.246094 17.046875 4.011719 23.265625 10.605469 6.21875 6.597656 9.503906 15.070312 9.246094 23.855468-.308594 10.707032-5.800782 20.699219-14.691407 26.734376-5.183593 3.519531-8.320312 9.273437-8.394531 15.398437-.042969 3.695313 1.390625 7.207031 4.042969 9.894531 2.679687 2.710938 6.390625 4.265625 10.167969 4.265625h24.59375c15.800781 0 28.652343 12.851563 28.652343 28.65625v54.703125c0 2.210938 1.785157 4 4 4h43.085938c5.597656 0 10.148437 4.554688 10.148437 10.152344s-4.550781 10.148438-10.148437 10.148438h-55.355469c-.253906-.050782-.519531-.078126-.789062-.078126-.089844 0-.179688 0-.265626 0-2.488281 0-4.816406-.945312-6.582031-2.671874-1.777343-1.75-2.757812-4.085938-2.757812-6.585938v-43.351562c0-5.699219-4.058594-10.660157-9.429688-11.527344-3.3125-.542969-6.648437.386718-9.179687 2.535156-2.527344 2.152344-3.976563 5.285156-3.976563 8.601562v141.210938c0 2.207031 1.789063 4 4 4 2.210938 0 4-1.792969 4-4v-141.210938c0-.96875.421875-1.882812 1.160157-2.507812.433593-.375 1.355468-.960938 2.714843-.738281 1.523438.25 2.714844 1.839843 2.714844 3.632812v43.355469c0 4.667969 1.832031 9.03125 5.160156 12.296875 3.152344 3.085937 7.261719 4.832031 11.671875 4.953125.257813.054688.535156.082031.808594.082031h56.105469c10.007812 0 18.148437-8.140625 18.148437-18.148437 0-10.007813-8.144531-18.148438-18.152344-18.148438zm0 0" fill="#3a2c60"/><path d="m129.234375 305.851562c-2.210937 0-4 1.789063-4 4v14.863282c0 2.207031 1.789063 4 4 4s4-1.792969 4-4v-14.863282c0-2.210937-1.789063-4-4-4zm0 0" fill="#3a2c60"/></svg>