<svg height="461pt" viewBox="-34 0 461 461.24883" width="461pt" xmlns="http://www.w3.org/2000/svg"><path d="m391.914062 416.246094-22.253906-54.910156c-4.597656-11.347657-14.539062-19.425782-26.582031-21.613282l-29.851563-5.417968c-1.316406-2.335938-2.734374-4.636719-4.28125-6.867188-1.699218-2.457031-3.527343-4.789062-5.445312-7.027344l-1.679688-63.144531c-.203124-7.710937-3.476562-14.910156-8.980468-20.101563 6.632812-6.035156 10.453125-14.753906 10.214844-23.839843-.222657-8.308594-3.664063-16.027344-9.691407-21.742188-6.023437-5.71875-13.8125-8.722656-22.230469-8.519531-8.304687.21875-16.023437 3.664062-21.742187 9.691406s-8.746094 13.917969-8.519531 22.226563c.234375 8.792969 4.273437 17.019531 10.832031 22.683593l-31.726563 17.285157c-4.648437 2.53125-8.03125 6.71875-9.527343 11.796875-1.496094 5.074218-.921875 10.429687 1.609375 15.078125l6.246094 11.46875c-9.882813 2.464843-19.359376 6.640625-27.984376 12.617187-18.714843 12.964844-31.261718 32.445313-35.328124 54.851563-4.066407 22.402343.835937 45.050781 13.804687 63.765625 12.96875 18.71875 32.449219 31.265625 54.851563 35.328125 5.140624.933593 10.289062 1.394531 15.40625 1.394531 17.179687 0 33.9375-5.207031 48.363281-15.195312 18.714843-12.96875 31.265625-32.449219 35.328125-54.855469.855468-4.71875 1.226562-9.445313 1.296875-14.152344l1.871093.34375c4.695313.851563 8.570313 4 10.363282 8.421875l18.4375 45.5c3.160156 7.792969 10.6875 12.527344 18.617187 12.527344 2.507813 0 5.054688-.472656 7.515625-1.472656 10.257813-4.140626 15.21875-15.867188 11.066406-26.121094zm-157.609374-93.609375c1.898437 3.394531 4.976562 5.875 8.714843 6.976562 1.382813.40625 2.792969.613281 4.195313.613281 2.433594 0 4.84375-.609374 7.042968-1.808593 1.277344-.695313 2.347657-1.59375 3.328126-2.574219 10.1875 3.78125 18.984374 10.527344 25.304687 19.648438 8.148437 11.757812 11.226563 25.984374 8.671875 40.054687-2.550781 14.078125-10.4375 26.3125-22.191406 34.460937-11.757813 8.148438-25.984375 11.226563-40.058594 8.671876-29.050781-5.269532-48.402344-33.195313-43.128906-62.246094 4.402344-24.285156 24.632812-41.78125 48.121094-43.796875zm10.710937-42.058594-2.363281-4.335937 2.214844-1.210938zm0 0" fill="#e6e7e8"/><path d="m234.796875 398.441406c1.378906.25 2.753906.371094 4.125.371094 4.601563 0 9.085937-1.390625 12.949219-4.066406 5.007812-3.472656 8.367187-8.683594 9.453125-14.683594 1.089843-6-.222657-12.0625-3.695313-17.074219s-8.683594-8.367187-14.683594-9.457031c-12.410156-2.253906-24.28125 6-26.527343 18.382812-2.242188 12.382813 6 24.28125 18.378906 26.527344zm0 0" fill="#e6e7e8"/><path d="m153.773438 131.101562c5.734374 9.246094 12.332031 21.605469 16.289062 34.695313 8.238281 27.257813 13.65625 78.675781 13.710938 79.191406.164062 1.585938 1.253906 2.917969 2.765624 3.402344.398438.125.808594.1875 1.210938.1875 1.132812 0 2.234375-.484375 3.007812-1.367187 1.730469-1.972657 42.210938-49.070313 22.878907-105.878907-5.195313-15.269531-14.683594-23.941406-24.980469-28.75 14.328125-.335937 30.105469.441407 43.550781 3.882813 29.191407 7.476562 49.582031 26.480468 49.78125 26.671875.757813.710937 1.746094 1.089843 2.75 1.089843.433594 0 .867188-.074218 1.289063-.214843 1.402344-.480469 2.425781-1.691407 2.664062-3.160157.078125-.503906 7.523438-50.496093-32.476562-64.894531-39.390625-14.1875-79.125 8.054688-99.410156 22.667969 6.742187-17.773438 12.609374-46.675781-8.132813-68.003906-30.878906-31.75-92.410156-2.085938-95.015625-.800782-1.617188.796876-2.503906 2.578126-2.164062 4.347657.339843 1.773437 1.828124 3.097656 3.628906 3.234375.421875.03125 42.425781 3.417968 63.949218 24.984375 6.851563 6.863281 12.425782 19.136719 16.363282 29.945312-12.132813-12.15625-32.101563-24.425781-59.671875-16.222656-47.382813 14.117187-59.015625 53.882813-59.488281 55.566406-.394532 1.40625.007812 2.914063 1.050781 3.933594.761719.742187 1.769531 1.144531 2.800781 1.144531.386719 0 .773438-.058594 1.152344-.167968.351562-.105469 35.46875-10.652344 64.363281-16.78125 11.777344-2.496094 29.253906-3.203126 42.316406-3.34375-9.546875 14.792968-33.558593 54.714843-48.816406 103.957031-33.152344 107.007812-37.765625 235.410156-37.8125 236.695312-.035156 1.082031.371094 2.136719 1.125 2.914063.757813.78125 1.792969 1.222656 2.875 1.222656h67.097656c1.175781 0 2.296875-.519531 3.054688-1.421875.761719-.898437 1.085937-2.085937.890625-3.25-.230469-1.34375-22.527344-135.492187 4.914062-239.140625 10.230469-38.621094 23.730469-68.921875 32.488282-86.335938zm0 0" fill="#e6e7e8"/><path d="m372.207031 401.75-22.253906-54.910156c-4.058594-10.015625-12.960937-17.25-23.589844-19.179688l-31.796875-5.765625c5.5625 10.445313 8.863282 22.136719 9.417969 34.363281l6.652344 1.207032c6.019531 1.09375 11.0625 5.1875 13.355469 10.859375l18.441406 45.496093c3.332031 8.222657 12.699218 12.1875 20.925781 8.855469 8.214844-3.335937 12.179687-12.703125 8.847656-20.925781zm0 0" fill="#fa759e"/><path d="m281.820312 241.375c-.226562-8.5625-4.789062-15.988281-11.53125-20.242188 7.875-4.925781 13.027344-13.742187 12.765626-23.695312-.402344-14.964844-12.851563-26.773438-27.816407-26.371094-14.964843.398438-26.773437 12.851563-26.371093 27.8125.261718 9.957032 5.878906 18.488282 14.007812 22.984375-.617188.4375-1.1875.925781-1.761719 1.414063l-35.21875 19.1875c-7.667969 4.179687-10.5 13.785156-6.320312 21.453125l22.164062 40.679687c2.84375 5.222656 9.386719 7.152344 14.613281 4.304688 5.222657-2.84375 7.148438-9.390625 4.300782-14.613282l-19.417969-35.648437 11.464844-6.242187.722656 27.132812c1.320313.171875 2.636719.273438 3.960937.511719 18.597657 3.378906 34.511719 12.882812 46.160157 26h.003906zm0 0" fill="#fa759e"/><path d="m237.378906 280.046875c-1.617187-.289063-3.222656-.429687-4.828125-.625l8.097657 14.867187c1.9375 3.550782 1.621093 7.691407-.394532 10.886719 27.222656 8.601563 44.476563 36.257813 39.242188 65.085938-5.675782 31.269531-35.625 52.023437-66.898438 46.351562-31.273437-5.675781-52.023437-35.628906-46.351562-66.902343 4.90625-27.042969 27.976562-46.179688 54.347656-47.199219l-12.199219-22.394531c-32.359375 5.871093-59.25 31.101562-65.46875 65.367187-8.011719 44.152344 21.289063 86.4375 65.4375 94.449219 44.152344 8.011718 86.433594-21.289063 94.445313-65.4375 8.015625-44.152344-21.28125-86.4375-65.429688-94.449219zm0 0" fill="#0089ef"/><path d="m241.691406 359.988281c0 10.394531-8.425781 18.820313-18.820312 18.820313-10.394532 0-18.820313-8.425782-18.820313-18.820313s8.425781-18.820312 18.820313-18.820312c10.394531 0 18.820312 8.425781 18.820312 18.820312zm0 0" fill="#0089ef"/><path d="m137.390625 107.105469c-4.367187-6.523438-7.585937-10.511719-7.585937-10.511719h-10.453126s-33.058593 46.636719-52.382812 109.015625c-33.375 107.730469-37.636719 235.644531-37.636719 235.644531h67.097657s-22.992188-135.148437 4.992187-240.832031c11.65625-44.042969 27.523437-77.335937 35.96875-93.316406zm0 0" fill="#fff"/><path d="m101.417969 200.417969c11.660156-44.039063 27.527343-77.332031 35.972656-93.316407-3.078125-4.597656-5.558594-7.898437-6.769531-9.46875-4.894532 7.148438-34 50.976563-51.65625 107.96875-33.375 107.730469-37.636719 235.644532-37.636719 235.644532h55.097656c0 .003906-22.992187-135.140625 4.992188-240.828125zm0 0" fill="#6dc9f7"/><g fill="#ffd7e5"><path d="m129.800781 96.589844s-23.203125-46.265625-68.894531-32.652344c-45.816406 13.648438-56.78125 52.816406-56.78125 52.816406s35.292969-10.628906 64.6875-16.859375c21.59375-4.578125 60.988281-3.304687 60.988281-3.304687zm0 0"/><path d="m129.800781 96.589844s55.671875-52.085938 109.058594-32.867188c37.347656 13.441406 29.878906 60.503906 29.878906 60.503906s-20.917969-19.796874-51.539062-27.636718c-36.070313-9.238282-87.398438 0-87.398438 0zm0 0"/><path d="m129.800781 96.589844s49.675781-12.199219 64.050781 30.027344c18.808594 55.277343-22.097656 101.957031-22.097656 101.957031s-5.414062-51.988281-13.863281-79.9375c-8.398437-27.765625-28.089844-52.046875-28.089844-52.046875zm0 0"/><path d="m129.800781 96.589844s29.601563-48.746094 0-79.179688c-29.207031-30.035156-90.382812 0-90.382812 0s43.617187 3.238282 66.480469 26.144532c14.996093 15.023437 23.902343 53.035156 23.902343 53.035156zm0 0"/></g><path d="m375.914062 400.246094-22.253906-54.910156c-4.597656-11.347657-14.535156-19.425782-26.582031-21.613282l-29.851563-5.417968c-1.316406-2.335938-2.734374-4.632813-4.28125-6.867188-1.699218-2.457031-3.527343-4.789062-5.445312-7.023438l-1.679688-63.148437c-.203124-7.710937-3.476562-14.910156-8.980468-20.097656 6.632812-6.035157 10.453125-14.753907 10.214844-23.84375-.222657-8.304688-3.664063-16.023438-9.691407-21.742188-6.023437-5.714843-13.816406-8.734375-22.230469-8.519531-8.304687.21875-16.027343 3.664062-21.742187 9.691406s-8.746094 13.917969-8.519531 22.226563c.234375 8.792969 4.273437 17.019531 10.832031 22.683593l-31.726563 17.285157c-4.648437 2.53125-8.03125 6.722656-9.527343 11.800781-1.496094 5.074219-.921875 10.429688 1.609375 15.078125l6.289062 11.542969c-9.894531 2.453125-19.398437 6.566406-28.027344 12.546875-18.714843 12.96875-31.261718 32.445312-35.328124 54.851562-4.066407 22.402344.835937 45.050781 13.804687 63.765625 12.96875 18.71875 32.449219 31.265625 54.851563 35.328125 5.140624.933594 10.289062 1.394531 15.402343 1.394531 17.183594 0 33.941407-5.203124 48.367188-15.195312 18.714843-12.96875 31.265625-32.449219 35.328125-54.855469.855468-4.71875 1.226562-9.445312 1.296875-14.148437l1.875.339844c4.695312.851562 8.570312 4 10.363281 8.421874l18.4375 45.496094c2.011719 4.96875 5.839844 8.855469 10.773438 10.945313 2.519531 1.0625 5.164062 1.59375 7.816406 1.59375 2.554687 0 5.105468-.492188 7.542968-1.480469 4.964844-2.011719 8.851563-5.839844 10.941407-10.773438 2.089843-4.9375 2.132812-10.390624.121093-15.355468zm-157.617187-93.621094c1.898437 3.398438 4.980469 5.882812 8.722656 6.988281 1.382813.40625 2.789063.613281 4.195313.609375 2.433594 0 4.84375-.609375 7.042968-1.808594 1.28125-.695312 2.359376-1.601562 3.339844-2.585937 10.1875 3.777344 18.976563 10.542969 25.292969 19.660156 8.148437 11.757813 11.226563 25.984375 8.671875 40.054688-5.269531 29.054687-33.183594 48.414062-62.25 43.132812-29.050781-5.269531-48.402344-33.195312-43.128906-62.246093 2.550781-14.078126 10.433594-26.3125 22.191406-34.460938 7.808594-5.402344 16.703125-8.566406 25.921875-9.34375zm10.570313-47.589844.148437 5.542969-2.363281-4.332031zm-26.746094-6.023437c.894531-3.027344 2.914062-5.523438 5.679687-7.035157l35.59375-19.390624c.195313-.109376.320313-.28125.492188-.414063.421875-.359375.839843-.71875 1.300781-1.042969 1.121094-.796875 1.753906-2.113281 1.679688-3.484375-.078126-1.375-.851563-2.613281-2.0625-3.28125-7.152344-3.953125-11.726563-11.460937-11.941407-19.589843-.164062-6.167969 2.082031-12.03125 6.332031-16.507813 4.246094-4.476563 9.984376-7.035156 16.152344-7.199219 6.128906-.160156 12.03125 2.082032 16.507813 6.332032 4.472656 4.246093 7.035156 9.976562 7.199219 16.148437.214843 8.128906-3.957032 15.871094-10.882813 20.203125-1.171875.730469-1.882813 2.007812-1.882813 3.382812s.699219 2.65625 1.863282 3.390626c5.871094 3.707031 9.484375 10.046874 9.667968 16.964843l1.449219 54.644531c-.230469-.207031-.484375-.390624-.71875-.597656-2.054687-1.777344-4.183593-3.449218-6.394531-5.019531-.71875-.515625-1.421875-1.054687-2.160156-1.542969-.960938-.640625-1.949219-1.226562-2.9375-1.828125-1.191406-.726562-2.398438-1.421875-3.621094-2.085937-.832031-.449219-1.660156-.910156-2.507812-1.328125-2.070313-1.039063-4.175782-2-6.332032-2.863281-.445312-.175782-.898437-.320313-1.347656-.492188-1.925781-.730469-3.878906-1.390625-5.863281-1.980469-.648438-.195312-1.296875-.386719-1.949219-.566406-2.414062-.660156-4.851562-1.253906-7.347656-1.707031-.257813-.046875-.515625-.089844-.773438-.128906l-.5625-21.253907 16.949219-9.238281c1.9375-1.054688 2.65625-3.488281 1.59375-5.421875-1.054687-1.9375-3.488281-2.660156-5.421875-1.597656l-30.5625 16.652343c-1.9375 1.054688-2.65625 3.488282-1.59375 5.425782l19.417969 35.644531c1.789062 3.277344.574219 7.402344-2.707031 9.191406-1.582032.867188-3.410157 1.054688-5.152344.546875-1.734375-.511718-3.167969-1.667968-4.03125-3.257812l-22.164063-40.679688c-1.507812-2.769531-1.847656-5.96875-.960937-8.992187zm96.757812 120.765625c-3.683594 20.304687-15.054687 37.957031-32.011718 49.707031-16.960938 11.753906-37.484376 16.191406-57.785157 12.507813-20.304687-3.683594-37.957031-15.050782-49.707031-32.011719-11.753906-16.960938-16.191406-37.484375-12.507812-57.785157 3.683593-20.300781 15.050781-37.953124 32.011718-49.707031 8.398438-5.820312 17.679688-9.828125 27.371094-11.960937l7.9375 14.570312c-9.367188 1.3125-18.367188 4.75-26.371094 10.292969-13.511718 9.363281-22.570312 23.425781-25.503906 39.601563-6.058594 33.398437 16.179688 65.492187 49.574219 71.546874 3.699219.671876 7.382812.996094 11.015625.996094 29.167968 0 55.148437-20.875 60.53125-50.566406 2.9375-16.175781-.605469-32.527344-9.96875-46.042969-7.023438-10.136719-16.730469-17.6875-27.957032-22.101562.808594-3.421875.464844-7.136719-1.347656-10.460938l-4.144531-7.609375c18.875 4.28125 35.257813 15.222656 46.351563 31.230469 11.75 16.972656 16.195312 37.492187 12.511718 57.792969zm69.546875 38.707031c-1.253906 2.96875-3.59375 5.269531-6.582031 6.480469-2.984375 1.210937-6.265625 1.1875-9.234375-.070313-2.96875-1.257812-5.265625-3.59375-6.480469-6.582031l-18.433594-45.5c-2.832031-6.980469-8.945312-11.945312-16.347656-13.289062l-3.578125-.648438c-.003906-.023438-.007812-.050781-.007812-.074219-.171875-2.058593-.429688-4.101562-.746094-6.136719-.046875-.289062-.09375-.570312-.140625-.855468-1.074219-6.363282-2.816406-12.597656-5.324219-18.582032l24.09375 4.371094c9.335938 1.695313 17.039063 7.957032 20.601563 16.75l22.25 54.910156c1.214844 2.980469 1.1875 6.257813-.070313 9.226563zm0 0" fill="#3a2c60"/><path d="m218.796875 382.441406c1.375.25 2.742187.367188 4.085937.367188 10.816407 0 20.441407-7.738282 22.441407-18.746094 1.089843-6-.222657-12.0625-3.695313-17.074219s-8.683594-8.367187-14.683594-9.457031c-12.402343-2.253906-24.28125 6-26.527343 18.382812-2.242188 12.382813 6 24.28125 18.378906 26.527344zm-10.507813-25.097656c.707032-3.894531 2.890626-7.28125 6.144532-9.535156 2.507812-1.738282 5.421875-2.644532 8.410156-2.644532.886719 0 1.78125.082032 2.675781.246094 3.894531.707032 7.28125 2.886719 9.535157 6.144532 2.25 3.25 3.105468 7.1875 2.398437 11.082031s-2.886719 7.285156-6.144531 9.535156c-3.25 2.257813-7.183594 3.109375-11.082032 2.402344-3.898437-.710938-7.285156-2.890625-9.535156-6.144531-2.253906-3.257813-3.109375-7.1875-2.402344-11.085938zm0 0" fill="#3a2c60"/><path d="m99.609375 207.472656c-2.140625-.492187-4.296875.855469-4.792969 3.007813-1.164062 5.085937-2.246094 10.355469-3.21875 15.667969-.398437 2.171874 1.035156 4.257812 3.210938 4.65625.246094.042968.488281.066406.730468.066406 1.890626 0 3.574219-1.347656 3.925782-3.273438.957031-5.195312 2.015625-10.355468 3.15625-15.332031.488281-2.15625-.859375-4.300781-3.011719-4.792969zm0 0" fill="#3a2c60"/><path d="m154.0625 149.796875c8.238281 27.257813 13.65625 78.675781 13.710938 79.191406.164062 1.585938 1.253906 2.917969 2.765624 3.402344.398438.125.808594.1875 1.210938.1875 1.132812 0 2.234375-.484375 3.007812-1.367187 1.730469-1.972657 42.210938-49.070313 22.878907-105.882813-5.195313-15.265625-14.679688-23.9375-24.976563-28.75 14.328125-.335937 30.101563.441406 43.546875 3.882813 29.191407 7.476562 49.582031 26.480468 49.78125 26.671874.757813.710938 1.746094 1.089844 2.75 1.089844.433594 0 .867188-.074218 1.289063-.214844 1.402344-.480468 2.425781-1.691406 2.664062-3.160156.078125-.503906 7.523438-50.496094-32.476562-64.894531-39.394532-14.179687-79.125 8.058594-99.410156 22.667969 6.742187-17.773438 12.609374-46.675782-8.132813-68.003906-30.882813-31.75-92.410156-2.082032-95.015625-.800782-1.617188.796875-2.503906 2.582032-2.164062 4.347656.347656 1.773438 1.832031 3.097657 3.632812 3.230469.421875.03125 42.382812 3.378907 63.949219 24.976563 6.847656 6.863281 12.421875 19.128906 16.359375 29.9375-12.128906-12.152344-32.09375-24.414063-59.667969-16.207032-47.386719 14.125-59.019531 53.890626-59.492187 55.578126-.394532 1.40625.007812 2.914062 1.050781 3.933593.761719.742188 1.769531 1.144531 2.800781 1.144531.386719 0 .773438-.058593 1.152344-.167968.351562-.105469 35.46875-10.652344 64.363281-16.78125 11.777344-2.496094 29.25-3.203125 42.316406-3.34375-9.546875 14.792968-33.558593 54.714844-48.816406 103.957031-33.152344 107.007813-37.765625 235.410156-37.8125 236.695313-.035156 1.082031.371094 2.136718 1.125 2.914062.757813.78125 1.792969 1.222656 2.875 1.222656h67.097656c1.175781 0 2.296875-.519531 3.054688-1.421875.761719-.898437 1.085937-2.085937.890625-3.25-.171875-1.019531-17.199219-103.148437-3.410156-197.773437.320312-2.183594-1.195313-4.214844-3.382813-4.535156-2.171875-.308594-4.214844 1.195312-4.535156 3.382812-12.28125 84.269531-.449219 174.34375 2.710937 195.597656h-58.246094c1.085938-22.789062 7.785157-135.265625 37.277344-230.464844 16.875-54.472656 44.679688-97.324218 50.667969-106.199218h6.394531c.726563.953125 1.785156 2.378906 3.039063 4.140625.136719.191406.257812.359375.398437.558593.25.351563.519532.746094.785156 1.125.214844.3125.4375.625.660157.953126-8.371094 16.132812-22.9375 47.339843-34.089844 87.96875-.582031 2.132812.667969 4.332031 2.800781 4.917968 2.132813.585938 4.328125-.667968 4.917969-2.800781 10.09375-36.78125 23.015625-65.660156 31.410156-82.359375 5.730469 9.25 12.332031 21.609375 16.292969 34.703125zm36-21.886719c13.4375 39.496094-5.300781 74.921875-15.492188 90.148438-2.019531-16.617188-6.578124-49.804688-12.851562-70.578125-6.238281-20.632813-18.328125-39.125-24.691406-47.957031.953125-.128907 2.011718-.273438 3.144531-.417969 14.214844-1.105469 40.402344.921875 49.890625 28.804687zm47.445312-60.425781c25.570313 9.207031 28.214844 35.660156 27.875 48.710937-8.527343-6.613281-25.402343-17.902343-47.1875-23.484374-12.472656-3.191407-26.578124-4.253907-39.828124-4.253907-13.273438 0-25.691407 1.066407-34.75 2.125 18.449218-13.539062 57.082031-36.351562 93.890624-23.097656zm-182.875-51.90625c18.992188-6.640625 53.429688-14.777344 72.300782 4.621094 19.773437 20.332031 10.511718 50.367187 3.976562 65.261719-3.8125-12.699219-11.421875-33.953126-22.179687-44.730469-15.265625-15.292969-38.824219-22.164063-54.097657-25.152344zm13.351563 80.40625c-20.878906 4.429687-44.929687 11.125-57.089844 14.625 5.488281-11.464844 19.75-33.480469 51.160157-42.835937 5.476562-1.632813 10.597656-2.339844 15.375-2.339844 23.6875 0 38.773437 17.5 45.21875 27.015625-12.539063-.140625-38.300782.0625-54.664063 3.535156zm0 0" fill="#3a2c60"/></svg>