<svg height="497pt" viewBox="-46 0 497 497.03852" width="497pt" xmlns="http://www.w3.org/2000/svg"><path d="m140.535156 404.4375c17.597656 0 31.917969-14.320312 31.917969-31.914062 0-17.597657-14.320313-31.917969-31.917969-31.917969s-31.914062 14.316406-31.914062 31.917969c0 17.597656 14.3125 31.914062 31.914062 31.914062zm0 0" fill="#e6e7e8"/><path d="m404.816406 178.386719-21.097656-12.179688c-1.542969-.890625-3.476562.222657-3.476562 2.003907v8.230468h-9.007813c-5.183594-90.316406-90.753906-155.242187-94.5-158.039062-2.566406-1.921875-5.726563-2.730469-8.898437-2.269532-3.167969.457032-5.972657 2.125-7.894532 4.695313-3.957031 5.292969-2.875 12.828125 2.417969 16.789063.128906.097656 2.175781 1.664062 5.523437 4.5l-79.011718 95.839843c1.535156-6.289062 1.730468-12.921875.371094-19.421875-2.414063-11.554687-9.1875-21.480468-19.066407-27.945312-9.882812-6.464844-21.691406-8.6875-33.246093-6.273438-11.554688 2.414063-21.476563 9.1875-27.941407 19.066406-6.464843 9.878907-8.691406 21.6875-6.277343 33.242188 1.203124 5.761719 3.609374 11.101562 6.859374 15.835938l-50.722656-5.160157c-12.453125-1.261719-23.644531 7.839844-24.914062 20.3125-1.265625 12.46875 7.839844 23.644531 20.3125 24.914063l65.195312 6.632812c.035156.15625.042969.308594.074219.464844l10.21875 48.890625c-63.613281 5.496094-113.710937 59-113.710937 124.011719 0 68.65625 55.855468 124.511718 124.511718 124.511718 2.617188 0 5.207032-.109374 7.789063-.269531.753906-.046875 1.503906-.109375 2.253906-.171875 1.945313-.15625 3.875-.355468 5.789063-.597656.730468-.09375 1.464843-.171875 2.191406-.28125 2.460937-.359375 4.898437-.777344 7.308594-1.277344.714843-.148437 1.421874-.332031 2.132812-.492187 1.734375-.390625 3.460938-.8125 5.167969-1.273438.511719-.140625 1.035156-.238281 1.546875-.386719.09375-.027343.160156-.09375.25-.125 6.394531-1.84375 12.585937-4.171874 18.519531-6.972656.082031-.03125.171875-.015625.25-.058594 7.289063-3.445312 14.285156-7.636718 20.789063-12.449218.082031-.066406.125-.15625.203124-.226563 5.296876-3.941406 10.257813-8.308593 14.859376-13.027343.113281-.09375.253906-.136719.355468-.242188 16.597656-17.125 27.703125-38.25 32.453125-61.121094.039063-.199218.09375-.398437.132813-.605468.339844-1.675782.636718-3.359376.902344-5.050782.0625-.382812.136718-.757812.199218-1.144531.230469-1.550781.417969-3.109375.59375-4.675781.0625-.515625.136719-1.027344.1875-1.542969.152344-1.53125.257813-3.074219.351563-4.617187.039062-.542969.09375-1.078126.117187-1.628907.105469-2.078125.160156-4.167969.160156-6.261719 0-6.039062-.457031-11.976562-1.292968-17.789062h33.460937v80.679688c0 14.59375 11.871094 26.46875 26.46875 26.46875 14.589844 0 26.46875-11.871094 26.46875-26.46875v-96.644532c0-18.132812-13.132812-33.230468-30.382812-36.359375 34.367187-36.761719 51.765625-76.148437 51.726562-117.578125 0-.132812-.011719-.265625-.011719-.402344h8.761719v8.128907c0 1.785156 1.933594 2.894531 3.476563 2.007812l21.097656-12.179687c1.546875-.894532 1.546875-3.125.003906-4.015625zm-186.40625 97.085937-3.167968-15.140625 34.183593 41.464844h-6.503906c-6.863281-9.910156-15.125-18.777344-24.511719-26.324219zm-77.875 15.691406c44.863282 0 81.359375 36.5 81.359375 81.359376 0 44.859374-36.5 81.359374-81.359375 81.359374s-81.363281-36.5-81.363281-81.359374c0-44.859376 36.5-81.359376 81.363281-81.359376zm119.265625 10.632813-48.078125-58.3125-8.4375-40.375h129.332032c5.308593 0 10.191406-1.84375 14.066406-4.910156-3.976563 36.0625-24.273438 70.78125-60.546875 103.59375h-26.335938zm85.433594-140.300781c-3.609375-2.421875-7.949219-3.835938-12.617187-3.835938h-143.769532c-1.972656 0-3.875.277344-5.703125.75-.160156-.117187-.339843-.210937-.5-.324218l91.25-110.691407c20.332031 18.375 61.332031 61.078125 71.339844 114.101563zm0 0" fill="#e6e7e8"/><path d="m316.617188 145.65625h-143.769532c-2.300781 0-4.484375.472656-6.523437 1.242188 6.328125 5.121093 11.039062 12.316406 12.835937 20.90625l3.199219 15.304687h134.257813c10.296874 0 18.726562-8.425781 18.726562-18.726563 0-10.300781-8.429688-18.726562-18.726562-18.726562zm0 0" fill="#fa759e"/><path d="m297.167969 289.796875h-72.285157c8.890626 13.34375 15.167969 28.566406 18.160157 44.9375h42.171875v84.679687c0 12.410157 10.058594 22.46875 22.46875 22.46875 12.40625 0 22.46875-10.058593 22.46875-22.46875v-96.628906c0-18.21875-14.769532-32.988281-32.984375-32.988281zm0 0" fill="#fa759e"/><path d="m179.160156 167.804688c-2.601562-12.4375-11.230468-22.066407-22.191406-26.484376 10.1875-9.269531 15.375-23.511718 12.351562-37.964843-4.546874-21.734375-25.84375-35.667969-47.578124-31.125-21.730469 4.542969-35.667969 25.84375-31.121094 47.578125 1.820312 8.726562 6.382812 16.144531 12.558594 21.652344l37.695312 3.835937c10.25 1.042969 17.78125 10.28125 16.734375 20.53125-1.042969 10.246094-10.277344 17.777344-20.527344 16.734375l-30.125-3.0625c.125 1.101562.242188 2.203125.472657 3.308594l11.15625 53.363281c1.972656-.097656 3.953124-.152344 5.949218-.152344 28.015625 0 53.777344 9.582031 74.238282 25.617188zm0 0" fill="#fa759e"/><path d="m124.535156 236.015625c-66.554687 0-120.511718 53.953125-120.511718 120.511719 0 66.554687 53.957031 120.511718 120.511718 120.511718 66.554688 0 120.511719-53.957031 120.511719-120.511718 0-66.5625-53.957031-120.511719-120.511719-120.511719zm0 205.871094c-47.144531 0-85.359375-38.214844-85.359375-85.359375 0-47.144532 38.214844-85.359375 85.359375-85.359375 47.144532 0 85.359375 38.214843 85.359375 85.359375 0 47.140625-38.214843 85.359375-85.359375 85.359375zm0 0" fill="#fff"/><path d="m136.535156 248.015625c-66.554687 0-120.511718 53.953125-120.511718 120.511719 0 30.222656 11.152343 57.824218 29.53125 78.980468 21.15625 18.378907 48.757812 29.53125 78.980468 29.53125 66.554688 0 120.511719-53.957031 120.511719-120.511718 0-30.226563-11.152344-57.824219-29.53125-78.980469-21.15625-18.382813-48.757813-29.53125-78.980469-29.53125zm0 205.871094c-26.628906 0-50.398437-12.203125-66.050781-31.308594-19.109375-15.65625-31.308594-39.421875-31.308594-66.050781 0-47.144532 38.214844-85.359375 85.359375-85.359375 26.628906 0 50.394532 12.203125 66.050782 31.304687 19.109374 15.65625 31.308593 39.425782 31.308593 66.054688 0 47.140625-38.214843 85.359375-85.359375 85.359375zm0 0" fill="#0089ef"/><path d="m152.453125 356.523438c0 15.417968-12.5 27.914062-27.917969 27.914062-15.417968 0-27.914062-12.496094-27.914062-27.914062 0-15.417969 12.496094-27.917969 27.914062-27.917969 15.417969 0 27.917969 12.5 27.917969 27.917969zm0 0" fill="#0089ef"/><path d="m137.082031 182.558594-98.433593-10.015625c-10.25-1.042969-17.78125-10.28125-16.738282-20.527344 1.046875-10.25 10.28125-17.78125 20.527344-16.738281l98.4375 10.015625c10.25 1.046875 17.78125 10.28125 16.734375 20.53125-1.039063 10.242187-10.277344 17.773437-20.527344 16.734375zm0 0" fill="#fa759e"/><path d="m253.554688 323.011719c-2.429688 0-4.832032-1.105469-6.40625-3.203125-2.652344-3.535156-1.933594-8.546875 1.597656-11.199219 57.582031-43.1875 86.765625-90.179687 86.75-139.667969-.03125-84.601562-85.871094-149.875-86.742188-150.527344-3.535156-2.648437-4.253906-7.660156-1.609375-11.195312 2.648438-3.535156 7.65625-4.265625 11.191407-1.617188 3.800781 2.835938 93.066406 70.59375 93.160156 163.246094.050781 54.832032-31.285156 106.164063-93.144532 152.5625-1.445312 1.082032-3.128906 1.601563-4.796874 1.601563zm0 0" fill="#6dc9f7"/><g fill="#3a2c60"><path d="m124.535156 324.609375c-17.597656 0-31.914062 14.316406-31.914062 31.917969 0 17.597656 14.3125 31.914062 31.914062 31.914062 17.601563 0 31.917969-14.316406 31.917969-31.914062 0-17.601563-14.320313-31.917969-31.917969-31.917969zm0 55.828125c-13.183594 0-23.914062-10.726562-23.914062-23.914062s10.726562-23.917969 23.914062-23.917969 23.917969 10.730469 23.917969 23.917969-10.730469 23.914062-23.917969 23.914062zm0 0"/><path d="m193.769531 450.242188c-6.085937 4.503906-12.628906 8.425781-19.449219 11.652343-2 .945313-2.847656 3.332031-1.90625 5.328125.683594 1.445313 2.121094 2.289063 3.617188 2.289063.574219 0 1.15625-.125 1.707031-.386719 7.289063-3.445312 14.285157-7.636719 20.789063-12.449219 1.777344-1.3125 2.152344-3.820312.835937-5.59375-1.308593-1.78125-3.820312-2.160156-5.59375-.839843zm0 0"/><path d="m213.898438 356.523438c0-49.273438-40.085938-89.359376-89.359376-89.359376-49.277343 0-89.363281 40.085938-89.363281 89.359376 0 49.269531 40.085938 89.359374 89.363281 89.359374 49.273438.003907 89.359376-40.085937 89.359376-89.359374zm-89.363282 81.363281c-44.863281 0-81.363281-36.5-81.363281-81.359375s36.5-81.359375 81.363281-81.359375c44.863282 0 81.359375 36.5 81.359375 81.359375s-36.496093 81.359375-81.359375 81.359375zm0 0"/><path d="m388.816406 162.386719-21.097656-12.179688c-1.542969-.890625-3.476562.222657-3.476562 2.003907v8.230468h-9.007813c-5.183594-90.316406-90.753906-155.242187-94.5-158.042968-2.566406-1.917969-5.722656-2.738282-8.898437-2.269532-3.167969.457032-5.972657 2.125-7.894532 4.695313-3.957031 5.292969-2.875 12.828125 2.417969 16.789062.128906.097657 2.175781 1.664063 5.523437 4.5l-79.015624 95.84375c1.535156-6.289062 1.730468-12.921875.371093-19.421875-2.414062-11.554687-9.1875-21.480468-19.066406-27.945312-9.882813-6.464844-21.6875-8.683594-33.246094-6.273438-11.554687 2.414063-21.480469 9.1875-27.941406 19.066406-6.464844 9.878907-8.691406 21.6875-6.277344 33.242188 1.203125 5.761719 3.589844 11.113281 6.855469 15.832031l-50.71875-5.160156c-12.453125-1.265625-23.644531 7.839844-24.914062 20.3125-1.265626 12.46875 7.839843 23.644531 20.3125 24.914063l65.199218 6.632812c.035156.152344.039063.308594.070313.464844l10.21875 48.894531c-63.613281 5.496094-113.7109378 59-113.7109378 124.011719 0 68.65625 55.8554688 124.507812 124.5117188 124.507812 11.613281 0 23.113281-1.597656 34.179688-4.753906 2.125-.601562 3.355468-2.820312 2.753906-4.941406-.609375-2.125-2.816406-3.347656-4.945313-2.753906-10.355469 2.949218-21.121093 4.445312-31.992187 4.445312-64.242188 0-116.511719-52.265625-116.511719-116.507812 0-62.3125 49.171875-113.351563 110.75-116.363282h.003906c1.730469-.085937 3.46875-.125 5.21875-.132812.179688 0 .355469-.011719.535157-.011719 2.890624 0 5.761718.144531 8.613281.351563.675781.046874 1.355469.089843 2.03125.15625 2.621093.234374 5.214843.558593 7.796875.96875.890625.140624 1.773437.308593 2.664062.472656 1.898438.34375 3.777344.75 5.65625 1.1875 1.378906.320312 2.75.671875 4.109375 1.042968 1.699219.464844 3.382813.96875 5.0625 1.511719 1.207031.390625 2.40625.792969 3.59375 1.21875 2.027344.734375 4.039063 1.519531 6.023438 2.367188 1.140625.488281 2.261719 1.007812 3.386719 1.535156 1.550781.722656 3.085937 1.476563 4.609374 2.269531 1.230469.640625 2.445313 1.296875 3.644532 1.976563 1.746094.992187 3.46875 2.023437 5.171875 3.109375.75.476562 1.503906.941406 2.246093 1.4375 2.097657 1.410156 4.160157 2.898437 6.183594 4.449218 14.308594 10.980469 26.015625 25.1875 33.992188 41.542969.097656.207031.203125.410157.300781.613281.644531 1.34375 1.253906 2.707032 1.851563 4.082032.191406.449218.394531.894531.582031 1.34375.476562 1.132812.921875 2.289062 1.359375 3.445312.28125.742188.570312 1.476563.832031 2.222656.316406.882813.613281 1.777344.910156 2.671876.347657 1.0625.699219 2.125 1.015625 3.203124.179688.601563.347656 1.214844.519532 1.824219.386718 1.386719.757812 2.78125 1.097656 4.1875.085937.347657.160156.695313.242187 1.042969.378907 1.644531.726563 3.300781 1.035157 4.96875 1.285156 6.910156 1.988281 14.027344 1.988281 21.308594 0 30.433594-11.664063 59.230468-32.839844 81.082031-1.535156 1.585937-1.5 4.117187.089844 5.65625 1.582031 1.535156 4.113281 1.5 5.652343-.085937 22.632813-23.351563 35.097657-54.125 35.097657-86.648438 0-6.039062-.457031-11.976562-1.292969-17.789062h33.460938v80.679687c0 14.59375 11.871093 26.46875 26.46875 26.46875 14.589843 0 26.46875-11.871094 26.46875-26.46875v-96.636719c0-18.148437-13.160157-33.203125-30.429688-36.3125 34.398438-36.777344 51.808594-76.175781 51.769531-117.625 0-.132812-.011719-.265625-.011719-.398437h8.761719v8.128906c0 1.785156 1.933594 2.894531 3.476563 2.003906l21.097656-12.179687c1.546875-.894532 1.546875-3.125.003906-4.015625zm-59.570312-16.84375c-3.613282-2.4375-7.945313-3.886719-12.625-3.886719h-143.773438c-1.976562 0-3.882812.269531-5.707031.75-.160156-.117188-.335937-.210938-.496094-.324219l91.253907-110.691406c20.335937 18.382813 61.351562 61.109375 71.347656 114.152344zm-88.234375 167.027343c-.28125-.742187-.582031-1.480468-.875-2.214843-.878907-2.183594-1.800781-4.335938-2.792969-6.457031-.433594-.917969-.875-1.835938-1.332031-2.742188-.957031-1.921875-1.964844-3.808594-3.015625-5.671875-.3125-.554687-.574219-1.132813-.894532-1.683594h7.929688l8.300781 10.070313c-.671875.511718-1.300781 1.03125-1.984375 1.539062-2.90625 2.179688-4.484375 5.4375-4.710937 8.804688-.207031-.550782-.421875-1.097656-.625-1.644532zm13.632812-13.617187-4.25-5.152344h10.53125c-2.058593 1.722657-4.128906 3.441407-6.28125 5.152344zm15.492188-13.152344h-26.335938l-48.078125-58.316406-8.4375-40.371094h129.332032c5.320312 0 10.195312-1.875 14.070312-4.957031-3.964844 36.082031-24.261719 70.8125-60.550781 103.644531zm-86.757813-117.355469h147.324219c-1.777344 6.140626-7.382813 10.667969-14.085937 10.667969h-131.007813zm-2.316406-8c-1.542969-3.929687-3.675781-7.558593-6.316406-10.789062h141.863281c6.75 0 12.394531 4.585938 14.125 10.789062zm-8.738281 0h-10.910157c-.460937-2.992187-1.515624-5.808593-3.046874-8.320312l3.15625-3.828125c4.578124 3.089844 8.292968 7.253906 10.800781 12.148437zm-11.179688 8h14.050781c.011719.0625.035157.121094.046876.179688l9.527343 45.574219-28.960937-35.132813c2.722656-3.007812 4.527344-6.644531 5.335937-10.621094zm-66.605469-49.457031c-1.980468-9.46875-.15625-19.136719 5.140626-27.230469 5.292968-8.089843 13.417968-13.636718 22.886718-15.617187 9.460938-1.976563 19.136719-.15625 27.230469 5.140625 8.089844 5.292969 13.636719 13.421875 15.613281 22.890625 2.609375 12.46875-1.65625 25.570313-11.125 34.1875-1.019531.921875-1.488281 2.3125-1.25 3.664063.167969.925781.667969 1.738281 1.371094 2.332031l-1.40625 1.707031c-3.273438-2.574219-7.273438-4.300781-11.710938-4.753906l-36.304687-3.691406c-5.21875-4.960938-8.9375-11.414063-10.445313-18.628907zm-68.648437 33.429688c.773437-7.574219 7.183594-13.238281 14.644531-13.238281.5 0 1 .023437 1.503906.074218l98.4375 10.011719c8.078126.824219 13.984376 8.070313 13.160157 16.148437-.398438 3.890626-2.296875 7.414063-5.359375 9.910157-3.0625 2.496093-6.882813 3.640625-10.78125 3.253906l-98.4375-10.011719c-8.082032-.828125-13.992188-8.066406-13.167969-16.148437zm98.644531 79.597656c-.910156 0-1.816406.011719-2.722656.03125l-10.046875-48.042969 24.914063 2.535156c.777343.078126 1.550781.121094 2.324218.121094 3.6875 0 7.261719-.9375 10.503906-2.652344l38.785157 47.046876 4.457031 21.328124c-.640625-.425781-1.3125-.785156-1.957031-1.191406-1.167969-.742187-2.355469-1.457031-3.546875-2.15625-1.121094-.660156-2.242188-1.328125-3.386719-1.953125-1.792969-.976562-3.609375-1.902343-5.453125-2.792969-1.40625-.679687-2.835938-1.304687-4.265625-1.929687-.804687-.351563-1.617187-.695313-2.433594-1.027344-4.691406-1.929687-9.488281-3.566406-14.382812-4.898437-1.085938-.296875-2.175781-.578125-3.273438-.847656-1.300781-.316407-2.59375-.632813-3.90625-.902344-2.242187-.472656-4.5-.894532-6.785156-1.242188-.84375-.125-1.695313-.214844-2.542969-.324218-1.894531-.246094-3.796875-.453126-5.71875-.617188-.84375-.074219-1.6875-.140625-2.535156-.195312-2.652344-.175782-5.324219-.289063-8.027344-.289063zm77.875 27.464844-3.167968-15.144531 34.1875 41.464843h-6.503907c-6.867187-9.914062-15.128906-18.78125-24.515625-26.320312zm94.757813 34.320312c15.984375 0 28.984375 13 28.984375 28.984375v96.632813c0 10.183593-8.285156 18.46875-18.46875 18.46875s-18.46875-8.285157-18.46875-18.46875v-84.679688c0-2.207031-1.792969-4-4-4h-38.871094c-.585938-2.75-1.277344-5.464843-2.035156-8.148437 2.261718 2.757812 5.664062 4.425781 9.246094 4.425781 2.613281 0 5.097656-.832031 7.195312-2.402344 13.378906-10.035156 25.265625-20.316406 35.824219-30.808593h.59375zm-41.214844 24.410157c-1.726563 1.292968-4.320313.910156-5.601563-.800782-1.324218-1.761718-.964843-4.277344.800782-5.601562 58.640625-43.984375 88.363281-92.054688 88.34375-142.871094-.023438-69.285156-56.035156-125.703125-78.832032-145.800781-.179687-.234375-.324218-.5-.570312-.695313-.171875-.144531-.378906-.191406-.566406-.304687-5.035156-4.386719-8.207032-6.796875-8.371094-6.921875-1.765625-1.324219-2.128906-3.835938-.808594-5.601563.640625-.855469 1.574219-1.410156 2.632813-1.566406.191406-.027344.386719-.039063.578125-.039063.855468 0 1.683594.269532 2.382812.796876 3.738282 2.789062 91.464844 69.332031 91.554688 160.046874.046875 53.503907-30.75 103.753907-91.542969 149.359376zm0 0"/></g></svg>