<svg height="502pt" viewBox="-23 0 502 502.292" width="502pt" xmlns="http://www.w3.org/2000/svg"><path d="m440.378906 140.375h-15.65625v-43.488281c0-2.207031-1.789062-4-4-4-2.210937 0-4 1.792969-4 4v43.492187h-15.660156c-2.554688 0-4.929688.699219-7.039062 1.832032v-106.09375c0-11.09375-9.027344-20.117188-20.113282-20.117188-11.09375 0-20.117187 9.023438-20.117187 20.117188v59.097656h-19.613281v-18.78125c0-12.195313-9.917969-22.109375-22.109376-22.109375h-152.5625c-12.195312 0-22.109374 9.914062-22.109374 22.109375v18.78125h-19.628907v-59.097656c0-11.09375-9.023437-20.117188-20.117187-20.117188-11.089844 0-20.113282 9.023438-20.113282 20.117188v106.089843c-2.109374-1.128906-4.480468-1.832031-7.035156-1.832031h-15.660156v-43.488281c0-2.207031-1.792969-4-4-4-2.210938 0-4 1.792969-4 4v43.492187h-15.660156c-8.292969 0-15.039063 6.75-15.039063 15.035156v5.902344c0 8.292969 6.75 15.035156 15.039063 15.035156h39.320312c2.554688 0 4.925782-.699218 7.035156-1.832031v307.65625c0 11.09375 9.023438 20.117188 20.113282 20.117188 8.0625 0 14.980468-4.796875 18.191406-11.660157 3.042969 2.628907 6.953125 4.273438 11.277344 4.273438h42.359375c9.570312 0 17.355469-7.78125 17.355469-17.351562 0-9.566407-7.785157-17.351563-17.355469-17.351563h-42.359375c-3.445313 0-6.648438 1.039063-9.351563 2.785156v-115.1875h17.324219v16.835938c0 14.261719 11.605469 25.871093 25.871094 25.871093 14.269531 0 25.875-11.605468 25.875-25.871093v-47.707031c0-14.265626-11.605469-25.875-25.875-25.875-14.265625 0-25.871094 11.605468-25.871094 25.875v22.871093h-17.324219v-127.253906h19.628907v15.597656c0 12.191407 9.914062 22.109375 22.109374 22.109375h152.558594c12.191406 0 22.109375-9.917968 22.109375-22.109375v-15.597656h19.613281v127.25h-17.316406v-22.871094c0-14.265625-11.601562-25.875-25.871094-25.875-14.265624 0-25.871093 11.605469-25.871093 25.875v47.707031c0 14.261719 11.605469 25.871094 25.871093 25.871094 14.269532 0 25.871094-11.605468 25.871094-25.871094v-16.835937h17.316406v116.480469c-3.011718-2.507813-6.828124-4.082032-11.042968-4.082032h-42.359375c-9.570313 0-17.351563 7.785157-17.351563 17.351563 0 9.570313 7.78125 17.351563 17.351563 17.351563h42.359375c4.90625 0 9.328125-2.066407 12.488281-5.355469 2.953125 7.445312 10.1875 12.738281 18.671875 12.738281 11.085938 0 20.113281-9.023438 20.113281-20.117188v-307.644531c2.109375 1.128907 4.484375 1.832031 7.039063 1.832031h39.316406c8.289062 0 15.039062-6.742187 15.039062-15.035156v-5.902344c.003907-8.289062-6.738281-15.039062-15.035156-15.039062zm-106.199218 64.171875v-17.308594c0-12.191406-9.917969-22.105469-22.109376-22.105469h-152.5625c-12.195312 0-22.109374 9.914063-22.109374 22.105469v17.308594h-19.628907v-101.332031h19.628907v14.125c0 12.191406 9.914062 22.109375 22.109374 22.109375h152.5625c12.191407 0 22.109376-9.917969 22.109376-22.109375v-14.125h19.613281v101.332031zm0 0" fill="#e6e7e8"/><path d="m81.652344 482.289062c-8.863282 0-16.113282-7.253906-16.113282-16.117187v-446.054687c0-8.863282 7.25-16.117188 16.113282-16.117188 8.867187 0 16.117187 7.253906 16.117187 16.117188v446.058593c0 8.859375-7.25 16.113281-16.117187 16.113281zm0 0" fill="#fa759e"/><path d="m357.910156 482.289062c-8.863281 0-16.117187-7.253906-16.117187-16.117187v-446.054687c0-8.863282 7.253906-16.117188 16.117187-16.117188 8.863282 0 16.117188 7.253906 16.117188 16.117188v446.058593c0 8.859375-7.253906 16.113281-16.117188 16.113281zm0 0" fill="#fa759e"/><path d="m296.066406 119.449219h-152.558594c-9.960937 0-18.109374-8.148438-18.109374-18.109375v-40.902344c0-9.960938 8.148437-18.109375 18.109374-18.109375h152.558594c9.960938 0 18.109375 8.148437 18.109375 18.109375v40.902344c0 9.960937-8.148437 18.109375-18.109375 18.109375zm0 0" fill="#fff"/><path d="m296.066406 230.257812h-152.558594c-9.960937 0-18.109374-8.148437-18.109374-18.109374v-40.910157c0-9.957031 8.148437-18.105469 18.109374-18.105469h152.558594c9.960938 0 18.109375 8.148438 18.109375 18.105469v40.90625c0 9.964844-8.148437 18.113281-18.109375 18.113281zm0 0" fill="#fff"/><g fill="#6dc9f7"><path d="m155.507812 54.324219c-9.960937 0-18.109374 8.148437-18.109374 18.113281v40.902344c0 1.832031.355468 3.566406.867187 5.238281 1.671875.515625 3.410156.871094 5.242187.871094h152.558594c9.960938 0 18.109375-8.148438 18.109375-18.109375v-40.902344c0-1.832031-.359375-3.570312-.871093-5.242188-1.671876-.511718-3.40625-.871093-5.238282-.871093zm0 0"/><path d="m155.507812 165.132812c-9.960937 0-18.109374 8.148438-18.109374 18.109376v40.90625c0 1.832031.355468 3.566406.867187 5.238281 1.671875.511719 3.410156.875 5.242187.875h152.558594c9.960938 0 18.109375-8.148438 18.109375-18.113281v-40.90625c0-1.832032-.359375-3.566407-.871093-5.238282-1.671876-.511718-3.40625-.871094-5.238282-.871094zm0 0"/><path d="m144.960938 370.503906c-12.027344 0-21.871094-9.839844-21.871094-21.871094v-47.703124c0-12.03125 9.839844-21.875 21.871094-21.875 12.027343 0 21.875 9.839843 21.875 21.875v47.707031c0 12.027343-9.84375 21.867187-21.875 21.867187zm0 0"/><path d="m294.605469 370.503906c12.027343 0 21.871093-9.839844 21.871093-21.871094v-47.703124c0-12.03125-9.839843-21.875-21.871093-21.875-12.027344 0-21.871094 9.839843-21.871094 21.875v47.707031c.003906 12.027343 9.84375 21.867187 21.871094 21.867187zm0 0"/><path d="m153.480469 474.90625h-42.359375c-7.34375 0-13.351563-6.007812-13.351563-13.351562s6.007813-13.351563 13.351563-13.351563h42.359375c7.34375 0 13.355469 6.007813 13.355469 13.351563s-6.011719 13.351562-13.355469 13.351562zm0 0"/><path d="m326.75 474.90625h-42.359375c-7.34375 0-13.351563-6.007812-13.351563-13.351562s6.007813-13.351563 13.351563-13.351563h42.359375c7.34375 0 13.351562 6.007813 13.351562 13.351563.003907 7.34375-6.007812 13.351562-13.351562 13.351562zm0 0"/><path d="m54.503906 156.351562h-39.320312c-6.074219 0-11.039063-4.96875-11.039063-11.035156v-5.902344c0-6.070312 4.96875-11.035156 11.039063-11.035156h39.320312c6.070313 0 11.035156 4.96875 11.035156 11.035156v5.902344c0 6.066406-4.96875 11.035156-11.035156 11.035156zm0 0"/><path d="m424.382812 156.351562h-39.320312c-6.074219 0-11.035156-4.96875-11.035156-11.035156v-5.902344c0-6.070312 4.964844-11.035156 11.035156-11.035156h39.320312c6.070313 0 11.035157 4.96875 11.035157 11.035156v5.902344c0 6.066406-4.96875 11.035156-11.035157 11.035156zm0 0"/></g><path d="m424.378906 124.375h-15.65625v-43.492188c0-2.207031-1.789062-4-4-4-2.210937 0-4 1.792969-4 4v43.492188h-15.660156c-2.566406 0-4.933594.71875-7.039062 1.863281v-106.121093c0-11.09375-9.027344-20.117188-20.113282-20.117188-11.09375 0-20.117187 9.023438-20.117187 20.117188v59.101562h-19.613281v-18.78125c0-12.195312-9.917969-22.113281-22.109376-22.113281h-152.5625c-12.195312 0-22.109374 9.917969-22.109374 22.113281v18.78125h-19.628907v-59.101562c0-11.09375-9.023437-20.117188-20.117187-20.117188-11.089844 0-20.113282 9.023438-20.113282 20.117188v106.121093c-2.105468-1.144531-4.472656-1.863281-7.035156-1.863281h-15.660156v-43.492188c0-2.207031-1.792969-4-4-4-2.210938 0-4 1.792969-4 4v43.492188h-15.660156c-8.292969 0-15.039063 6.75-15.039063 15.035156v5.902344c0 8.292969 6.75 15.035156 15.039063 15.035156h39.320312c2.5625 0 4.929688-.714844 7.035156-1.863281v307.6875c0 11.09375 9.023438 20.117187 20.113282 20.117187 8.046875 0 14.949218-4.777343 18.164062-11.617187 3.042969 2.628906 6.980469 4.234375 11.304688 4.234375h42.359375c9.570312 0 17.355469-7.78125 17.355469-17.351562 0-9.566407-7.785157-17.351563-17.355469-17.351563h-42.359375c-3.464844 0-6.660156 1.050781-9.351563 2.820313v-115.222657h17.324219v16.835938c0 14.261719 11.605469 25.871093 25.871094 25.871093 14.269531 0 25.875-11.605468 25.875-25.871093v-47.707031c0-14.265626-11.605469-25.875-25.875-25.875-14.265625 0-25.871094 11.605468-25.871094 25.875v22.871093h-17.324219v-127.25h19.628907v15.597657c0 12.191406 9.914062 22.113281 22.109374 22.113281h30.972657c2.210937 0 4-1.792969 4-4 0-2.210938-1.789063-4-4-4h-30.972657c-7.78125 0-14.109374-6.332031-14.109374-14.113281v-40.910157c0-7.777343 6.332031-14.105469 14.109374-14.105469h152.5625c7.78125 0 14.109376 6.332032 14.109376 14.105469v40.90625c0 7.78125-6.328126 14.113281-14.109376 14.113281h-64.28125c-2.207031 0-4 1.789063-4 4 0 2.207032 1.792969 4 4 4h64.28125c12.191407 0 22.109376-9.921874 22.109376-22.113281v-15.597656h19.613281v127.25h-17.316407v-22.871094c0-14.265625-11.601562-25.875-25.871093-25.875-14.265625 0-25.871094 11.605469-25.871094 25.875v47.707031c0 14.261719 11.605469 25.871094 25.871094 25.871094 14.269531 0 25.871093-11.605468 25.871093-25.871094v-16.835937h17.316407v116.480469c-2.992188-2.53125-6.820313-4.078125-11.042969-4.078125h-42.359375c-9.570313 0-17.351563 7.785156-17.351563 17.351562 0 9.570313 7.78125 17.351563 17.351563 17.351563h42.359375c4.925781 0 9.328125-2.09375 12.472656-5.410156 2.9375 7.472656 10.183594 12.792968 18.6875 12.792968 11.085938 0 20.113282-9.023437 20.113282-20.117187v-307.679688c2.101562 1.148438 4.46875 1.863281 7.039062 1.863281h39.316406c8.292969 0 15.039063-6.746093 15.039063-15.035156v-5.902344c0-8.289062-6.742188-15.039062-15.039063-15.039062zm-369.875 27.976562h-39.320312c-3.882813 0-7.039063-3.15625-7.039063-7.035156v-5.902344c0-3.878906 3.15625-7.035156 7.039063-7.035156h39.320312c3.878906 0 7.035156 3.15625 7.035156 7.035156v5.902344c0 3.878906-3.15625 7.035156-7.035156 7.035156zm72.589844 148.578126c0-9.855469 8.015625-17.875 17.871094-17.875 9.855468 0 17.875 8.015624 17.875 17.875v47.707031c0 9.851562-8.019532 17.871093-17.875 17.871093-9.855469 0-17.871094-8.015624-17.871094-17.871093v-16.835938h21.324219c2.207031 0 4-1.792969 4-4s-1.792969-4-4-4h-21.324219zm185.382812 47.707031c0 9.851562-8.015624 17.871093-17.871093 17.871093s-17.871094-8.015624-17.871094-17.871093v-47.707031c0-9.855469 8.015625-17.875 17.871094-17.875s17.871093 8.015624 17.871093 17.875v22.871093h-21.324218c-2.210938 0-4 1.792969-4 4s1.789062 4 4 4h21.324218zm-183.082031-288.199219c0-7.78125 6.332031-14.113281 14.109375-14.113281h152.5625c7.78125 0 14.109375 6.332031 14.109375 14.113281v40.902344c0 7.78125-6.328125 14.109375-14.109375 14.109375h-152.558594c-7.78125 0-14.109374-6.332031-14.109374-14.109375v-40.902344zm-35.625 405.738281c0 6.679688-5.433593 12.117188-12.117187 12.117188-6.679688 0-12.113282-5.4375-12.113282-12.117188v-446.058593c0-6.679688 5.433594-12.117188 12.113282-12.117188 6.683594 0 12.117187 5.4375 12.117187 12.117188zm17.351563-13.972656h42.359375c5.160156 0 9.355469 4.195313 9.355469 9.351563s-4.199219 9.351562-9.355469 9.351562h-42.359375c-5.160156 0-9.351563-4.195312-9.351563-9.351562s4.191407-9.351563 9.351563-9.351563zm207.058594-263.652344v-17.308593c0-12.191407-9.917969-22.105469-22.109376-22.105469h-152.5625c-12.195312 0-22.109374 9.914062-22.109374 22.105469v17.308593h-19.628907v-101.335937h19.628907v14.121094c0 12.191406 9.914062 22.109374 22.109374 22.109374h152.5625c12.191407 0 22.109376-9.917968 22.109376-22.109374v-14.121094h19.613281v101.332031h-19.613281zm8.570312 282.355469h-42.359375c-5.15625 0-9.351563-4.195312-9.351563-9.351562s4.195313-9.351563 9.351563-9.351563h42.359375c5.160156 0 9.355469 4.195313 9.355469 9.351563s-4.195313 9.351562-9.355469 9.351562zm43.277344-4.730469c0 6.679688-5.433594 12.117188-12.113282 12.117188-6.679687 0-12.117187-5.4375-12.117187-12.117188v-138.339843c0-.011719.007813-.023438.007813-.039063s-.007813-.023437-.007813-.039063v-307.640624c0-6.679688 5.4375-12.117188 12.117187-12.117188 6.679688 0 12.113282 5.4375 12.113282 12.117188zm61.390625-320.863281c0 3.878906-3.15625 7.035156-7.039063 7.035156h-39.316406c-3.882812 0-7.039062-3.15625-7.039062-7.035156v-5.902344c0-3.878906 3.15625-7.035156 7.039062-7.035156h39.316406c3.882813 0 7.039063 3.15625 7.039063 7.035156zm0 0" fill="#3a2c60"/><path d="m211.476562 226.257812h-19c-2.207031 0-4 1.789063-4 4 0 2.207032 1.792969 4 4 4h19c2.210938 0 4-1.792968 4-4 0-2.210937-1.785156-4-4-4zm0 0" fill="#3a2c60"/></svg>