<svg height="477pt" viewBox="-3 0 477 477.936" width="477pt" xmlns="http://www.w3.org/2000/svg"><path d="m470.945312 222.070312c0-32.351562-26.324218-58.671874-58.675781-58.671874h-4.441406c-7.136719 0-12.945313 5.808593-12.945313 12.945312s5.808594 12.945312 12.945313 12.945312h4.441406c18.078125 0 32.785157 14.707032 32.785157 32.785157v88.945312c-18.289063-20.179687-44.695313-32.875-74.015626-32.875-49.25 0-90.265624 35.835938-98.40625 82.800781-8.671874-3.976562-18.855468-6.21875-29.644531-6.21875-10.25 0-19.929687 2.046876-28.308593 5.652344-8.367188-46.6875-49.246094-82.238281-98.304688-82.238281-29.316406 0-55.722656 12.695313-74.015625 32.875v-88.945313c0-18.078124 14.707031-32.785156 32.789063-32.785156h4.441406c7.132812 0 12.941406-5.808594 12.941406-12.945312 0-7.136719-5.808594-12.945313-12.941406-12.945313h-4.441406c-32.351563 0-58.675782 26.320313-58.675782 58.671875v155.96875c0 55.085938 44.816406 99.902344 99.902344 99.902344 50.851562 0 92.921875-38.203125 99.09375-87.40625 5.117188-5.824219 16.046875-9.925781 27.519531-9.925781 13.0625 0 25.417969 5.320312 29.28125 12.441406 7.261719 47.988281 48.785157 84.890625 98.769531 84.890625 55.085938 0 99.90625-44.816406 99.90625-99.902344zm0 0" fill="#e6e7e8"/><path d="m202.5625 231.625c-2.097656 3.691406-1.613281 8.46875 1.535156 11.609375l14.976563 14.980469-14.976563 14.980468c-3.773437 3.773438-3.773437 9.914063 0 13.683594l10.945313 10.949219c3.773437 3.773437 9.914062 3.773437 13.683593 0l14.980469-14.980469 14.980469 14.980469c1.886719 1.886719 4.363281 2.832031 6.839844 2.832031 2.476562 0 4.957031-.945312 6.839844-2.832031l10.949218-10.949219c3.773438-3.769531 3.773438-9.910156 0-13.683594l-14.980468-14.980468 14.980468-14.980469c3.144532-3.140625 3.628906-7.914063 1.53125-11.609375 60.261719-20.980469 109.429688-79.230469 111.929688-82.230469 1.234375-1.484375 1.234375-3.636719 0-5.117187-1.148438-1.378906-12.140625-14.414063-29.523438-30.140625l21.59375-19.195313c5.171875-4.597656 5.640625-12.550781 1.039063-17.722656-2.226563-2.503906-5.296875-3.996094-8.648438-4.191406-3.324219-.179688-6.570312.925781-9.070312 3.152344l-24.34375 21.640624c-9.945313-7.722656-21.046875-15.363281-32.933594-22.042968l16.046875-22.921875c1.917969-2.746094 2.660156-6.078125 2.078125-9.378907-.582031-3.304687-2.414063-6.179687-5.164063-8.105468-5.667968-3.960938-13.511718-2.574219-17.480468 3.085937l-18.382813 26.257813c-11.527343-4.621094-23.527343-7.957032-35.742187-9.367188v-26.796875c0-6.917969-5.628906-12.546875-12.550782-12.546875-6.917968 0-12.550781 5.628906-12.550781 12.546875v26.796875c-12.210937 1.410156-24.207031 4.742188-35.738281 9.367188l-18.382812-26.257813c-3.972657-5.667969-11.8125-7.054687-17.480469-3.085937-2.746094 1.921875-4.578125 4.800781-5.164063 8.101562-.582031 3.300782.15625 6.632813 2.082032 9.375l16.042968 22.921875c-11.882812 6.675781-22.988281 14.320313-32.933594 22.042969l-24.34375-21.640625c-2.503906-2.230469-5.738281-3.335937-9.074218-3.152344-3.34375.195313-6.417969 1.683594-8.644532 4.191407-2.226562 2.503906-3.34375 5.730468-3.148437 9.078124.195313 3.347657 1.683594 6.414063 4.1875 8.644532l21.597656 19.195312c-17.382812 15.726563-28.375 28.761719-29.523437 30.140625-1.238282 1.484375-1.238282 3.636719 0 5.117188 2.515625 3.003906 51.683594 61.257812 111.941406 82.238281zm0 0" fill="#e6e7e8"/><path d="m22.359375 206.070312c0-20.3125 16.472656-36.785156 36.789063-36.785156h4.445312c4.9375 0 8.941406-4.003906 8.941406-8.945312s-4.003906-8.945313-8.941406-8.945313h-4.445312c-30.195313 0-54.675782 24.480469-54.675782 54.675781v155.96875c0-20.796874 6.640625-40.027343 17.886719-55.738281zm0 0" fill="#0089ef"/><path d="m396.269531 151.394531h-4.445312c-4.941407 0-8.945313 4.003907-8.945313 8.945313s4.003906 8.945312 8.945313 8.945312h4.445312c20.316407 0 36.785157 16.472656 36.785157 36.785156v100.230469c11.25 15.710938 17.890624 34.941407 17.890624 55.738281v-155.96875c0-30.195312-24.480468-54.675781-54.675781-54.675781zm0 0" fill="#0089ef"/><path d="m269.058594 381.355469h-.847656c-3.523438 0-6.464844-2.253907-7.964844-5.445313-4.089844-8.707031-17.667969-15.304687-33.253906-15.304687-15.589844 0-29.167969 6.597656-33.257813 15.304687-1.496094 3.191406-4.4375 5.445313-7.960937 5.445313h-.847657c-6.089843 0-10.292969-6.210938-7.925781-11.820313 6.625-15.710937 26.226562-26.816406 49.996094-26.816406 23.769531 0 43.371094 11.105469 49.996094 26.816406 2.359374 5.613282-1.84375 11.820313-7.933594 11.820313zm0 0" fill="#fff"/><g fill="#0089ef"><path d="m226.988281 350.722656c-23.363281 0-42.671875 10.742188-49.617187 26.03125 1.417968 2.660156 4.164062 4.605469 7.542968 4.605469h.851563c3.523437 0 6.460937-2.253906 7.960937-5.445313 4.09375-8.707031 17.667969-15.304687 33.257813-15.304687s29.167969 6.597656 33.257813 15.304687c1.5 3.191407 4.441406 5.445313 7.964843 5.445313h.847657c3.386718 0 6.128906-1.945313 7.546874-4.605469-6.9375-15.289062-26.25-26.03125-49.613281-26.03125zm0 0"/><path d="m227.707031 42.570312c2.855469 0 5.707031.160157 8.554688.398438v-30.417969c0-4.722656-3.828125-8.550781-8.554688-8.550781-4.722656 0-8.550781 3.828125-8.550781 8.550781v30.417969c2.847656-.238281 5.695312-.398438 8.550781-.398438zm0 0"/><path d="m293 61.226562 18.667969-26.667968c2.707031-3.867188 1.769531-9.199219-2.101563-11.90625-3.875-2.707032-9.199218-1.765625-11.90625 2.101562l-19.617187 28.019532c-.214844.3125-.371094.640624-.542969.964843 5.28125 2.25 10.449219 4.777344 15.5 7.488281zm0 0"/><path d="m345.152344 98.207031 25.042968-22.257812c3.527344-3.136719 3.847657-8.542969.707032-12.074219-3.136719-3.53125-8.542969-3.847656-12.070313-.707031l-25.5625 22.71875c-.46875.417969-.871093.875-1.226562 1.355469 4.660156 3.699218 9.035156 7.382812 13.109375 10.964843zm0 0"/><path d="m110.265625 98.207031c4.070313-3.578125 8.445313-7.265625 13.101563-10.960937-.351563-.480469-.753907-.941406-1.222657-1.355469l-25.566406-22.71875c-3.527344-3.140625-8.933594-2.820313-12.070313.707031-3.136718 3.527344-2.820312 8.9375.707032 12.074219zm0 0"/><path d="m162.414062 61.226562c5.054688-2.710937 10.222657-5.238281 15.5-7.488281-.171874-.328125-.320312-.660156-.542968-.964843l-19.613282-28.019532c-2.710937-3.867187-8.042968-4.808594-11.910156-2.101562-3.867187 2.707031-4.808594 8.039062-2.101562 11.90625zm0 0"/></g><path d="m227.707031 42.570312c-76.445312 0-150 88.265626-150 88.265626s73.554688 88.265624 150 88.265624c76.449219 0 150-88.265624 150-88.265624s-73.550781-88.265626-150-88.265626zm0 0" fill="#ffd7e5"/><path d="m227.707031 58.15625c-65.417969 0-128.359375 72.679688-128.359375 72.679688s62.941406 72.675781 128.359375 72.675781c65.421875 0 128.359375-72.679688 128.359375-72.679688s-62.9375-72.675781-128.359375-72.675781zm0 0" fill="#6dc9f7"/><path d="m281.242188 118.175781c-6.984376-29.566406-36.613282-47.878906-66.179688-40.894531-29.570312 6.980469-47.878906 36.609375-40.898438 66.179688 6.984376 29.566406 36.613282 47.875 66.179688 40.894531 29.570312-6.980469 47.878906-36.613281 40.898438-66.179688zm0 0" fill="#0089ef"/><path d="m254.574219 130.835938c0 14.839843-12.027344 26.867187-26.867188 26.867187-14.835937 0-26.867187-12.027344-26.867187-26.867187 0-14.839844 12.03125-26.867188 26.867187-26.867188 14.839844 0 26.867188 12.027344 26.867188 26.867188zm0 0" fill="#d4fbff"/><path d="m264.492188 216.378906-10.949219-10.945312c-2.214844-2.21875-5.8125-2.21875-8.027344 0l-17.808594 17.804687-17.808593-17.804687c-2.214844-2.21875-5.808594-2.21875-8.027344 0l-10.945313 10.945312c-2.21875 2.21875-2.21875 5.8125 0 8.027344l17.804688 17.808594-17.804688 17.808594c-2.21875 2.214843-2.21875 5.8125 0 8.027343l10.945313 10.949219c2.21875 2.214844 5.8125 2.214844 8.027344 0l17.808593-17.808594 17.808594 17.808594c2.214844 2.214844 5.8125 2.214844 8.027344 0l10.949219-10.949219c2.214843-2.214843 2.214843-5.8125 0-8.027343l-17.808594-17.808594 17.808594-17.808594c2.214843-2.21875 2.214843-5.808594 0-8.027344zm0 0" fill="#fff"/><path d="m264.492188 268.050781c2.214843-2.214843 2.214843-5.8125 0-8.027343l-17.808594-17.808594 17.808594-17.808594c2.214843-2.214844 2.214843-5.808594 0-8.027344l-8.964844-8.964844-15.820313 15.824219-6-6-6 6-15.824219-15.824219-8.960937 8.964844c-2.21875 2.21875-2.21875 5.8125 0 8.027344l17.804687 17.808594-17.804687 17.808594c-2.21875 2.214843-2.21875 5.8125 0 8.027343l8.960937 8.960938 15.824219-15.820313 6 6 6-6 15.824219 15.824219zm0 0" fill="#fa759e"/><path d="m450.945312 252.714844c-2.210937 0-4 1.792968-4 4v24.226562c0 2.207032 1.789063 4 4 4 2.207032 0 4-1.792968 4-4v-24.226562c0-2.207032-1.792968-4-4-4zm0 0" fill="#3a2c60"/><path d="m455.023438 362.039062c0-.140624-.0625-.257812-.078126-.394531v-64.699219c0-2.210937-1.792968-4-4-4-2.210937 0-4 1.789063-4 4v25.882813c-1.179687-2.757813-2.507812-5.457031-3.945312-8.109375-.054688-.097656-.105469-.203125-.160156-.304688-.636719-1.171874-1.3125-2.320312-2-3.46875-.164063-.277343-.324219-.5625-.492188-.835937-.636718-1.039063-1.300781-2.0625-1.976562-3.078125-.238282-.363281-.476563-.726562-.71875-1.085938-.203125-.300781-.390625-.613281-.601563-.910156v-98.960937c0-22.488281-18.296875-40.785157-40.785156-40.785157h-4.441406c-2.726563 0-4.945313-2.21875-4.945313-4.945312s2.21875-4.945312 4.945313-4.945312h4.441406c27.941406 0 50.675781 22.734374 50.675781 50.671874v34.648438c0 2.210938 1.789063 4 4 4 2.207032 0 4-1.789062 4-4v-34.648438c0-32.351562-26.324218-58.671874-58.675781-58.671874h-4.441406c-7.136719 0-12.945313 5.808593-12.945313 12.945312s5.808594 12.945312 12.945313 12.945312h4.441406c18.078125 0 32.785156 14.707032 32.785156 32.785157v88.945312c-18.289062-20.179687-44.695312-32.875-74.015625-32.875-49.253906 0-90.171875 35.875-98.308594 82.84375-8.691406-4.003906-18.914062-6.261719-29.742187-6.261719-10.285156 0-20.003906 2.0625-28.398437 5.695313-8.367188-46.691406-49.152344-82.277344-98.214844-82.277344-29.316406 0-55.722656 12.695313-74.015625 32.875v-88.949219c0-18.078124 14.707031-32.785156 32.789062-32.785156h4.441407c7.132812 0 12.941406-5.808594 12.941406-12.945312 0-7.136719-5.808594-12.945313-12.941406-12.945313h-4.441407c-32.351562 0-58.675781 26.320313-58.675781 58.671875v155.96875c0 55.085938 44.816406 99.90625 99.902344 99.90625 50.84375 0 92.898437-38.195312 99.078125-87.390625 5.109375-5.832031 16.054687-9.945312 27.539062-9.945312 13.136719 0 25.570313 5.378906 29.355469 12.566406 7.320312 47.921875 48.761719 84.769531 98.695312 84.769531 54.933594 0 99.644532-44.574218 99.894532-99.449218.015625-.15625.089844-.292969.089844-.453126zm-446.550782-39.214843v-116.753907c0-27.9375 22.730469-50.671874 50.675782-50.671874h4.441406c2.726562 0 4.941406 2.21875 4.941406 4.945312s-2.214844 4.945312-4.941406 4.945312h-4.441406c-22.492188 0-40.789063 18.296876-40.789063 40.785157v98.960937c-.207031.300782-.394531.609375-.597656.910156-.246094.359376-.480469.726563-.722657 1.085938-.675781 1.019531-1.339843 2.039062-1.976562 3.078125-.167969.273437-.328125.554687-.492188.835937-.6875 1.148438-1.359374 2.300782-2 3.46875-.054687.101563-.101562.207032-.160156.304688-1.425781 2.652344-2.753906 5.347656-3.9375 8.105469zm218.515625 33.785156c-16.839843 0-32.003906 7.238281-36.878906 17.601563-.925781 1.96875-2.550781 3.144531-4.339844 3.144531h-.847656c-1.566406 0-2.960937-.75-3.832031-2.0625-.851563-1.28125-1-2.8125-.414063-4.203125 6.148438-14.578125 24.757813-24.371094 46.3125-24.371094 21.554688 0 40.167969 9.792969 46.3125 24.371094.585938 1.394531.4375 2.921875-.410156 4.203125-.871094 1.3125-2.265625 2.0625-3.832031 2.0625h-.847656c-1.796876 0-3.417969-1.175781-4.34375-3.144531-4.871094-10.363282-20.035157-17.601563-36.878907-17.601563zm0 0" fill="#3a2c60"/><path d="m167.804688 299.671875-105.472657 145.992187c8.003907 3.65625 16.613281 6.191407 25.640625 7.414063l94.902344-131.363281c-3.960938-8.070313-9.023438-15.507813-15.070312-22.042969zm0 0" fill="#6dc9f7"/><path d="m119.628906 272.238281-98.476562 136.304688c6.109375 10.367187 14.179687 19.4375 23.71875 26.6875l107.511718-148.804688c-9.738281-6.730469-20.808593-11.625-32.753906-14.1875zm0 0" fill="#6dc9f7"/><path d="m431.515625 311.148438-100.796875 139.515624c7.753906 2.128907 15.902344 3.28125 24.320312 3.28125.109376 0 .214844-.007812.316407-.007812l87.019531-120.449219c-2.609375-7.980469-6.277344-15.488281-10.859375-22.339843zm0 0" fill="#6dc9f7"/><path d="m371.992188 271.730469-97.3125 134.699219c7.460937 13.449218 18.175781 24.824218 31.105468 33.074218l107.359375-148.605468c-11.675781-9.554688-25.746093-16.28125-41.152343-19.167969zm0 0" fill="#6dc9f7"/><path d="m186.574219 215.601562c-2.109375 3.695313-1.628907 8.484376 1.523437 11.632813l14.976563 14.980469-14.976563 14.980468c-3.773437 3.773438-3.773437 9.914063 0 13.683594l10.945313 10.949219c1.828125 1.828125 4.261719 2.835937 6.84375 2.835937 2.585937 0 5.015625-1.007812 6.839843-2.835937l14.980469-14.980469 14.980469 14.980469c3.773438 3.773437 9.914062 3.773437 13.683594 0l10.949218-10.949219c3.773438-3.769531 3.773438-9.910156 0-13.683594l-14.980468-14.980468 14.980468-14.980469c3.152344-3.148437 3.632813-7.9375 1.519532-11.632813 60.265625-20.976562 109.441406-79.207031 111.941406-82.207031 1.234375-1.484375 1.234375-3.636719 0-5.117187-1.148438-1.378906-12.140625-14.414063-29.523438-30.140625l21.59375-19.195313c2.503907-2.230468 3.992188-5.296875 4.1875-8.644531.195313-3.34375-.917968-6.570313-3.148437-9.074219-2.226563-2.507812-5.296875-4-8.648437-4.195312-3.34375-.1875-6.566407.925781-9.070313 3.152344l-24.347656 21.640624c-9.945313-7.722656-21.042969-15.363281-32.933594-22.042968l16.046875-22.921875c3.964844-5.667969 2.582031-13.507813-3.089844-17.484375-5.667968-3.960938-13.507812-2.574219-17.476562 3.085937l-18.382813 26.257813c-11.527343-4.621094-23.527343-7.957032-35.742187-9.367188v-26.796875c0-6.917969-5.628906-12.550781-12.550782-12.550781-6.917968 0-12.550781 5.632812-12.550781 12.550781v26.796875c-12.210937 1.410156-24.210937 4.742188-35.742187 9.367188l-18.382813-26.261719c-3.972656-5.667969-11.820312-7.054687-17.480469-3.082031-5.667968 3.96875-7.046874 11.808594-3.082031 17.480468l16.046875 22.921876c-11.882812 6.675781-22.988281 14.320312-32.933594 22.042968l-24.347656-21.640625c-2.503906-2.226562-5.742187-3.367187-9.074218-3.152343-3.34375.195312-6.417969 1.6875-8.640626 4.191406-2.226562 2.503906-3.347656 5.730468-3.152343 9.078125.195312 3.34375 1.683593 6.414062 4.1875 8.644531l21.601562 19.195312c-17.382812 15.726563-28.375 28.761719-29.523437 30.140626-1.238282 1.484374-1.238282 3.636718 0 5.117187 2.515625 3.003906 51.691406 61.234375 111.953125 82.210937zm75.089843 5.976563-17.808593 17.808594c-1.5625 1.566406-1.5625 4.09375 0 5.65625l17.808593 17.808593c.652344.65625.652344 1.714844 0 2.371094l-10.949218 10.949219c-.652344.652344-1.71875.652344-2.371094 0l-17.808594-17.808594c-1.5625-1.5625-4.089844-1.5625-5.65625 0l-17.8125 17.808594c-.851562.859375-1.511718.851563-2.371094 0l-10.949218-10.949219c-.648438-.65625-.648438-1.714844 0-2.371094l17.808594-17.808593c1.566406-1.5625 1.566406-4.089844 0-5.65625l-17.808594-17.808594c-.652344-.652344-.652344-1.71875 0-2.371094l10.949218-10.941406c.328126-.328125.757813-.492187 1.1875-.492187.433594 0 .859376.164062 1.183594.492187l17.808594 17.804687c1.566406 1.566407 4.09375 1.566407 5.65625 0l17.808594-17.804687c.652344-.652344 1.71875-.652344 2.371094 0l10.949218 10.945313c.660156.648437.660156 1.714843.003906 2.367187zm-31.398437-6.550781c-.855469.027344-1.707031.074218-2.558594.074218-.851562 0-1.703125-.042968-2.554687-.074218l-8.203125-8.203125c3.570312.402343 7.152343.6875 10.753906.6875 3.605469 0 7.1875-.285157 10.757813-.6875zm-2.558594-15.515625c-55.847656 0-110.992187-55.8125-122.953125-68.679688 11.953125-12.867187 67.054688-68.675781 122.953125-68.675781 55.847657 0 110.988281 55.8125 122.953125 68.679688-11.964844 12.867187-67.105468 68.675781-122.953125 68.675781zm133.789063-133.359375c.835937-.75 1.898437-1.152344 3.011718-1.152344.09375 0 .179688.003906.273438.007812 1.210938.070313 2.328125.613282 3.132812 1.523438.808594.910156 1.214844 2.078125 1.144532 3.289062-.070313 1.210938-.609375 2.328126-1.519532 3.132813l-22.328124 19.847656c-2.261719-1.957031-4.601563-3.933593-7.035157-5.921875zm-60.5625-39.109375c.882812-1.257813 2.296875-1.933594 3.734375-1.933594.898437 0 1.8125.261719 2.601562.820313.996094.695312 1.664063 1.738281 1.871094 2.933593.210937 1.195313-.054687 2.40625-.753906 3.402344l-16.582031 23.691406c-2.734376-1.40625-5.488282-2.757812-8.289063-4.03125zm-77.777344-14.492188c0-2.507812 2.039062-4.550781 4.550781-4.550781s4.554688 2.039062 4.554688 4.550781v26.171875c-1.519531-.0625-3.035157-.152344-4.554688-.152344s-3.035156.09375-4.550781.15625zm-76.132812 19.714844c-1.433594-2.058594-.933594-4.902344 1.121093-6.335937.792969-.558594 1.699219-.824219 2.601563-.824219 1.4375 0 2.851562.675781 3.738281 1.933593l17.414063 24.882813c-2.796876 1.273437-5.554688 2.625-8.285157 4.03125zm-59.144532 40.691406c-.910156-.808593-1.445312-1.921875-1.519531-3.132812-.070313-1.210938.332031-2.378907 1.144531-3.289063.808594-.910156 1.921875-1.445312 3.136719-1.519531.085937-.003906.179687-.007813.269531-.007813 1.113282 0 2.175782.402344 3.015625 1.152344l23.3125 20.726563c-2.429687 1.988281-4.769531 3.964843-7.035156 5.921875zm139.828125-26.386719c66.425781 0 131.929688 69.886719 144.699219 84.265626-10.480469 11.816406-56.546875 61.078124-109.511719 78.289062l-5.902343-5.90625c54.449218-15.394531 99.871093-67.191406 102.101562-69.761719 1.300781-1.503906 1.300781-3.738281 0-5.242187-2.625-3.023438-64.902344-74.058594-131.386719-74.058594s-128.757812 71.035156-131.378906 74.058594c-1.304687 1.503906-1.304687 3.738281 0 5.242187 2.226563 2.570313 47.648437 54.367188 102.101563 69.761719l-5.902344 5.902344c-52.941406-17.214844-99.027344-66.472656-109.515625-78.285156 12.761719-14.378907 78.21875-84.265626 144.695312-84.265626zm0 0" fill="#3a2c60"/><path d="m227.707031 71.820312c-32.539062 0-59.011719 26.472657-59.011719 59.011719 0 32.539063 26.472657 59.011719 59.011719 59.011719 32.539063 0 59.011719-26.472656 59.011719-59.011719 0-32.535156-26.472656-59.011719-59.011719-59.011719zm0 110.027344c-28.128906 0-51.011719-22.882812-51.011719-51.011718 0-28.128907 22.882813-51.015626 51.011719-51.015626 28.128907 0 51.011719 22.882813 51.011719 51.011719 0 28.128907-22.882812 51.015625-51.011719 51.015625zm0 0" fill="#3a2c60"/></svg>