<svg height="479pt" viewBox="0 -8 479.24 479" width="479pt" xmlns="http://www.w3.org/2000/svg"><path d="m326.171875 215.097656v-12.03125c4.4375-1.085937 8.160156-3.914062 10.453125-7.734375 15.433594-1.519531 27.535156-14.570312 27.535156-30.398437 0-9.601563-4.460937-18.167969-11.40625-23.777344 1.042969-6.023438 1.628906-12.128906 1.628906-18.269531 0-29.40625-12.359374-57.828125-33.90625-77.972657-21.832031-20.414062-50.304687-30.558593-80.203124-28.539062-54.019532 3.640625-96.707032 47.203125-99.289063 101.332031-.375 7.898438.171875 15.742188 1.511719 23.449219-6.949219 5.605469-11.40625 14.175781-11.40625 23.777344 0 15.828125 12.097656 28.878906 27.535156 30.398437 2.960938 4.929688 8.300781 8.269531 14.449219 8.269531 5.878906 0 11.054687-3.023437 14.085937-7.585937 5.988282 12.714844 15.8125 23.265625 28.035156 30.078125-2.132812.355469-4.261718.738281-6.367187 1.253906-.625.152344-1.144531.472656-1.605469.859375-14.617187 4.203125-27.609375 12.226563-37.851562 22.933594-.316406.242187-.566406.542969-.804688.882813-14.082031 15.144531-22.769531 35.367187-22.769531 57.632812v61.648438c0 2.207031 1.789063 4 4 4h195.65625c2.210937 0 4-1.792969 4-4v-61.648438c0-22.269531-8.691406-42.492188-22.78125-57.640625-.230469-.332031-.480469-.632813-.792969-.871094-8.964844-9.378906-20.046875-16.664062-32.484375-21.164062h17.890625c8.207032 0 14.886719-6.675781 14.886719-14.882813zm-14.886719 6.882813h-24.816406c9.253906-6.640625 16.722656-15.570313 21.621094-25.964844 2.3125 3.488281 5.902344 6.03125 10.082031 7.054687v12.027344c0 3.792969-3.09375 6.882813-6.886719 6.882813zm-149.417968-99.09375c0-23.574219 9.902343-46.375 27.152343-62.554688 17.488281-16.390625 40.324219-24.566406 64.277344-23.019531 41.972656 2.710938 76.265625 36.34375 79.777344 78.238281.453125 5.425781.375 10.8125-.175781 16.140625-2.867188-2.382812-6.492188-3.871094-10.492188-3.925781-2.410156-35.171875-29.011719-63.703125-63.320312-68.960937.179687-1.59375.488281-3.460938 1.046874-5.230469 1.464844-4.632813 4.238282-8.667969 2.777344-9.394531-2.78125-1.390626-15.09375 11.667968-15.09375 11.667968s-9.230468-8.421875-12.296875-6.429687c-1.054687.691406-.09375 5.621093.8125 9.363281-34.398437 5.191406-61.085937 33.75-63.5 68.984375-3.988281.054687-7.605469 1.539063-10.472656 3.910156-.296875-2.914062-.492187-5.847656-.492187-8.789062zm0 0" fill="#e6e7e8"/><path d="m123.902344 388.550781c-6.410156-6.691406-14.617188-11.617187-23.84375-14.058593 8.347656-5.773438 14.53125-14.582032 16.746094-24.898438 4.335937-1.941406 7.253906-6.28125 7.253906-11.203125 0-3.140625-1.207032-6.03125-3.207032-8.226563v-9.375c0-21.902343-16.082031-40.046874-37.085937-43.265624.101563-.925782.285156-2.019532.609375-3.050782.855469-2.703125 2.472656-5.058594 1.625-5.484375-1.625-.8125-8.808594 6.808594-8.808594 6.808594s-5.386718-4.917969-7.171875-3.75c-.617187.402344-.054687 3.28125.476563 5.460937-21.050782 3.175782-37.1875 21.34375-37.1875 43.28125v8.609376c-2.460938 2.261718-4 5.480468-4 8.992187 0 5.308594 3.324218 9.828125 8.113281 11.523437 2.253906 10.222657 8.199219 18.796876 16.289063 24.464844-.363282.128906-.722657.261719-1.027344.476563-8.648438 2.554687-16.332032 7.339843-22.414063 13.6875-.179687.152343-.324219.335937-.476562.523437-8.523438 9.140625-13.789063 21.367188-13.789063 34.816406v35.96875c0 2.207032 1.789063 4 4 4h114.15625c2.210938 0 4-1.792968 4-4v-35.96875c0-13.464843-5.273437-25.695312-13.808594-34.835937-.140624-.175781-.277343-.351563-.449218-.496094zm0 0" fill="#e6e7e8"/><path d="m465.457031 389.066406c-.152343-.1875-.296875-.371094-.480469-.527344-6.414062-6.6875-14.617187-11.609374-23.835937-14.050781 8.347656-5.773437 14.527344-14.578125 16.746094-24.898437 4.332031-1.941406 7.253906-6.28125 7.253906-11.203125 0-2.746094-.921875-5.308594-2.488281-7.378907 2.011718-1.972656 3.269531-4.710937 3.269531-7.75 0-3.34375-1.511719-6.320312-3.882813-8.316406 2.367188-1.992187 3.882813-4.976562 3.882813-8.3125 0-5.144531-3.582031-9.445312-8.386719-10.570312.8125-1.320313 1.304688-2.855469 1.304688-4.519532 0-4.789062-3.878906-8.667968-8.667969-8.667968-.792969 0-1.542969.140625-2.277344.339844-.65625-4.140626-4.207031-7.3125-8.53125-7.3125-1.972656 0-3.765625.683593-5.222656 1.792968-.925781-3.792968-4.320313-6.617187-8.402344-6.617187-3.28125 0-6.101562 1.851562-7.574219 4.539062-1.472656-2.695312-4.292968-4.539062-7.574218-4.539062-4.078125 0-7.472656 2.824219-8.402344 6.617187-1.457031-1.109375-3.25-1.792968-5.222656-1.792968-4.324219 0-7.875 3.171874-8.53125 7.3125-.730469-.199219-1.484375-.339844-2.277344-.339844-4.789062 0-8.667969 3.878906-8.667969 8.667968 0 1.664063.492188 3.199219 1.304688 4.519532-4.804688 1.125-8.386719 5.421875-8.386719 10.570312 0 3.339844 1.507812 6.320313 3.882812 8.3125-2.367187 1.992188-3.882812 4.972656-3.882812 8.316406 0 2.816407 1.105469 5.367188 2.871094 7.296876-1.796875 2.144531-2.886719 4.886718-2.886719 7.832031 0 5.3125 3.324219 9.828125 8.117187 11.523437 2.253907 10.222656 8.195313 18.796875 16.289063 24.464844-.363281.128906-.730469.261719-1.03125.476562-8.652344 2.554688-16.335937 7.34375-22.421875 13.691407-.171875.144531-.304688.320312-.453125.496093-8.535156 9.144532-13.804687 21.371094-13.804687 34.835938v35.96875c0 2.207031 1.785156 4 4 4h114.152343c2.214844 0 4-1.792969 4-4v-35.96875c0-13.441406-5.257812-25.667969-13.78125-34.808594zm0 0" fill="#e6e7e8"/><path d="m361.976562 198.449219-2.617187 17.300781c-.332031 2.1875 1.171875 4.226562 3.355469 4.554688.207031.03125.40625.042968.601562.042968 1.945313 0 3.652344-1.417968 3.949219-3.402344l1.171875-7.757812 11.550781 15.671875c.78125 1.066406 1.996094 1.628906 3.222657 1.628906.824218 0 1.65625-.253906 2.375-.78125 1.773437-1.3125 2.152343-3.816406.84375-5.589843l-11.554688-15.671876 7.753906 1.171876c2.175782.332031 4.222656-1.171876 4.550782-3.355469.332031-2.1875-1.171876-4.226563-3.355469-4.554688l-17.300781-2.613281c-1.046876-.160156-2.121094.101562-2.972657.734375-.847656.628906-1.417969 1.570313-1.574219 2.621094zm0 0" fill="#e6e7e8"/><path d="m388.0625 254.691406c-.332031 2.183594 1.171875 4.222656 3.359375 4.550782l17.296875 2.617187c.203125.027344.402344.042969.597656.042969.847656 0 1.683594-.265625 2.375-.777344.851563-.628906 1.421875-1.574219 1.582032-2.621094l2.613281-17.304687c.332031-2.183594-1.171875-4.222657-3.355469-4.550781-2.179688-.332032-4.222656 1.171874-4.550781 3.355468l-1.171875 7.761719-11.550782-15.671875c-1.304687-1.78125-3.816406-2.15625-5.59375-.851562-1.777343 1.3125-2.15625 3.816406-.84375 5.59375l11.550782 15.671874-7.753906-1.171874c-2.195313-.347657-4.226563 1.167968-4.554688 3.355468zm0 0" fill="#e6e7e8"/><path d="m112.617188 205.621094 7.75-1.171875-11.550782 15.671875c-1.3125 1.773437-.933594 4.277344.84375 5.589844.714844.523437 1.546875.78125 2.371094.78125 1.230469 0 2.441406-.5625 3.226562-1.628907l11.550782-15.671875 1.171875 7.757813c.296875 1.984375 2.003906 3.402343 3.949219 3.402343.199218 0 .398437-.011718.597656-.042968 2.183594-.332032 3.6875-2.367188 3.355468-4.550782l-2.613281-17.304687c-.15625-1.050781-.730469-1.992187-1.582031-2.621094-.855469-.632812-1.921875-.894531-2.972656-.734375l-17.300782 2.613282c-2.183593.332031-3.6875 2.367187-3.355468 4.554687.332031 2.183594 2.378906 3.6875 4.558594 3.355469zm0 0" fill="#e6e7e8"/><path d="m83.550781 261.125c.691407.511719 1.527344.777344 2.378907.777344.199218 0 .398437-.015625.59375-.042969l17.300781-2.617187c2.183593-.332032 3.6875-2.367188 3.355469-4.550782-.328126-2.183594-2.359376-3.703125-4.550782-3.355468l-7.757812 1.171874 11.554687-15.671874c1.308594-1.777344.929688-4.28125-.847656-5.59375-1.773437-1.304688-4.285156-.929688-5.589844.851562l-11.550781 15.671875-1.171875-7.761719c-.328125-2.183594-2.378906-3.691406-4.554687-3.355468-2.183594.332031-3.6875 2.367187-3.355469 4.550781l2.617187 17.304687c.160156 1.046875.730469 1.992188 1.578125 2.621094zm0 0" fill="#e6e7e8"/><path d="m263.777344 214.320312c-1.378906 1.578126-3.378906 2.59375-5.632813 2.59375h-9.214843c-2.898438 0-5.382813-1.65625-6.628907-4.058593h-27.699219c-44.625 0-80.800781 36.175781-80.800781 80.800781v61.644531h195.65625v-61.644531c-.003906-39.449219-28.292969-72.25-65.679687-79.335938zm0 0" fill="#fff"/><path d="m259.707031 223.914062h-34.054687c-44.625 0-80.800782 36.179688-80.800782 80.800782v50.589844h184.597657v-61.648438c0-19.496094-6.910157-37.375-18.40625-51.335938-13.953125-11.496093-31.839844-18.40625-51.335938-18.40625zm0 0" fill="#fa759e"/><path d="m256.425781 209.070312c-7.90625 3.535157-16.652343 5.511719-25.871093 5.511719-8.226563 0-16.078126-1.578125-23.292969-4.425781l17.671875 31.789062-2.574219 2.519532c5.039063 7.496094 9.320313 13.039062 9.320313 13.039062s4.28125-5.542968 9.320312-13.039062l-2.570312-2.519532 17.835937-32.082031c.0625-.273437.097656-.523437.160156-.792969zm0 0" fill="#fff"/><path d="m193.796875 215.273438 9.238281 48.089843 21.898438-21.417969-16.089844-28.917968c-5.160156.28125-10.1875 1.046875-15.046875 2.246094zm0 0" fill="#ffd7e5"/><path d="m263.613281 214.519531c-1.371093 1.46875-3.304687 2.398438-5.472656 2.398438h-5.8125l-13.902344 25.023437 21.894531 21.417969 9.132813-47.527344c-1.914063-.523437-3.878906-.929687-5.839844-1.3125zm0 0" fill="#ffd7e5"/><path d="m275.761719 99.191406s-8.289063 10.773438-17.207031 17.203125c-6.753907 4.875-17.625 9.484375-18.070313 9.386719-.617187-.140625 5.488281-8.855469 6.863281-12.683594 1.0625-2.96875.957032-6.945312.957032-6.945312s-4.828126 5.546875-10.773438 9.171875c-5.664062 3.453125-12.441406 5-13.054688 4.796875-.757812-.253906 2.253907-1.949219 4.109376-5.898438 1.222656-2.601562 1.46875-8.070312 1.46875-8.070312s-7.859376 6.308594-15.808594 10.242187c-5.933594 2.941407-12.453125 3.828125-12.886719 3.726563-.550781-.136719 1.359375-2.25 2.199219-5.980469.707031-3.125.332031-7.984375.332031-7.984375s-4.160156 8.148438-9.195313 13.71875c-4.164062 4.609375-9.328124 6.828125-9.644531 6.777344-.371093-.058594 1.921875-3 3.390625-8.429688 1.28125-4.738281 1.75-12.066406 1.75-12.066406s-4.875 11.71875-9.308594 18.234375c-3.351562 4.933594-8.558593 10.449219-10.894531 12.84375v-8.582031c0-1.9375-.457031-3.757813-1.21875-5.40625v28.429687c0 34.714844 28.136719 62.855469 62.855469 62.855469 34.714844 0 62.855469-28.144531 62.855469-62.855469v-32.144531zm0 0" fill="#fff"/><path d="m319.882812 122.492188c4.609376.390624 8.886719 1.945312 12.515626 4.386718 1.300781-6.5625 1.984374-13.242187 1.984374-19.996094 0-59.003906-49.988281-106.550781-109.835937-102.519531-51.660156 3.480469-93.09375 45.816407-95.5625 97.535157-.40625 8.445312.226563 16.8125 1.851563 24.992187 3.617187-2.429687 7.863281-3.988281 12.445312-4.390625-.910156-5.136719-1.414062-10.347656-1.414062-15.609375 0-51.453125 43.519531-92.933594 95.6875-89.566406 43.972656 2.839843 79.832031 37.988281 83.507812 81.894531.65625 7.859375.191406 15.648438-1.179688 23.273438zm0 0" fill="#ffd7e5"/><path d="m317.605469 122.375v53.109375c14.664062 0 26.554687-11.886719 26.554687-26.554687 0-14.667969-11.890625-26.554688-26.554687-26.554688zm0 0" fill="#fa759e"/><path d="m119.09375 148.933594c0 14.664062 11.886719 26.554687 26.554688 26.554687v-53.113281c-14.667969 0-26.554688 11.890625-26.554688 26.558594zm0 0" fill="#fa759e"/><path d="m157.078125 115.738281c-7.125 0-12.90625 5.78125-12.90625 12.910157v42.042968c0 7.128906 5.78125 12.910156 12.90625 12.910156 7.128906 0 12.910156-5.78125 12.910156-12.910156v-42.042968c0-7.132813-5.78125-12.910157-12.910156-12.910157zm0 0" fill="#fa759e"/><path d="m258.140625 216.914062h-9.214844c-4.140625 0-7.5-3.355468-7.5-7.5 0-4.136718 3.355469-7.5 7.5-7.5h9.214844c4.140625 0 7.5 3.359376 7.5 7.5 0 4.144532-3.355469 7.5-7.5 7.5zm0 0" fill="#fa759e"/><path d="m306.171875 115.738281c-7.128906 0-12.90625 5.78125-12.90625 12.910157v42.042968c0 7.128906 5.777344 12.910156 12.90625 12.910156s12.90625-5.78125 12.90625-12.910156v-42.042968c0-7.132813-5.777344-12.910157-12.90625-12.910157zm0 0" fill="#fa759e"/><path d="m71.019531 360.738281h-19.867187c-26.035156 0-47.144532 21.109375-47.144532 47.144531v35.96875h114.15625v-35.96875c0-26.035156-21.109374-47.144531-47.144531-47.144531zm0 0" fill="#6dc9f7"/><path d="m75.554688 358.535156c-4.609376 2.0625-9.714844 3.214844-15.089844 3.214844-4.800782 0-9.378906-.921875-13.59375-2.582031l10.308594 18.546875-1.5 1.46875c2.941406 4.371094 5.4375 7.609375 5.4375 7.609375s2.496093-3.238281 5.433593-7.609375l-1.5-1.46875 10.40625-18.71875c.042969-.164063.0625-.308594.097657-.460938zm0 0" fill="#fff"/><path d="m99.914062 316.773438c-.765624 0-1.492187.230468-2.152343.636718v-11.121094l-10.925781-11.871093s-4.835938 6.285156-10.035157 10.039062c-3.941406 2.84375-10.285156 5.53125-10.542969 5.476563-.363281-.082032 3.203126-5.167969 4.003907-7.402344.617187-1.730469.554687-4.050781.554687-4.050781s-2.816406 3.234375-6.285156 5.351562c-3.304688 2.015625-7.257812 2.914063-7.617188 2.796875-.4375-.148437 1.316407-1.136718 2.398438-3.441406.710938-1.519531.859375-4.707031.859375-4.707031s-4.582031 3.679687-9.222656 5.976562c-3.464844 1.714844-7.269531 2.230469-7.519531 2.171875-.320313-.082031.789062-1.3125 1.28125-3.492187.414062-1.824219.191406-4.660157.191406-4.660157s-2.425782 4.753907-5.363282 8.003907c-2.425781 2.6875-5.441406 3.984375-5.628906 3.957031-.214844-.039062 1.121094-1.753906 1.976563-4.917969.75-2.769531 1.019531-7.039062 1.019531-7.039062s-2.84375 6.839843-5.429688 10.640625c-2.589843 3.796875-7.074218 8.210937-7.074218 8.210937v.074219c-.664063-.402344-1.386719-.636719-2.15625-.636719-1.910156 0-3.589844 1.390625-4.566406 3.496094h-.058594c-.183594.679687-.3125 1.382813-.3125 2.121094 0 4.328125 3.332031 7.839843 7.5625 8.214843 2.683594 17.605469 17.847656 31.113282 36.207031 31.113282 18.390625 0 33.574219-13.546875 36.222656-31.195313 3.84375-.714843 6.757813-4.074219 6.757813-8.128906 0-1.683594-.527344-3.230469-1.394532-4.535156-.804687-.675781-1.738281-1.082031-2.75-1.082031zm0 0" fill="#fff"/><path d="m412.101562 360.738281h-19.871093c-26.035157 0-47.140625 21.109375-47.140625 47.144531v35.96875h114.152344v-35.96875c0-26.035156-21.105469-47.144531-47.140626-47.144531zm0 0" fill="#6dc9f7"/><path d="m416.636719 358.535156c-4.613281 2.0625-9.714844 3.214844-15.09375 3.214844-4.800781 0-9.378907-.921875-13.589844-2.582031l10.308594 18.546875-1.5 1.46875c2.9375 4.371094 5.433593 7.609375 5.433593 7.609375s2.496094-3.238281 5.4375-7.609375l-1.5-1.46875 10.402344-18.71875c.042969-.164063.066406-.308594.101563-.460938zm0 0" fill="#fff"/><path d="m439.058594 318.121094c-.175782 0-.34375-.015625-.515625-.027344v-15.519531c-1.398438.972656-3.09375 1.550781-4.925781 1.550781-4.789063 0-8.667969-3.882812-8.667969-8.667969 0-.019531.007812-.042969.007812-.066406-1.441406 1.066406-3.203125 1.714844-5.128906 1.714844-4.28125 0-7.8125-3.109375-8.519531-7.1875-1.292969 3.8125-4.894532 6.5625-9.140625 6.5625-4.246094 0-7.847657-2.75-9.140625-6.5625-.707032 4.078125-4.238282 7.1875-8.519532 7.1875-1.929687 0-3.6875-.648438-5.128906-1.714844 0 .019531.007813.042969.007813.066406 0 4.785157-3.878907 8.667969-8.667969 8.667969-1.832031 0-3.527344-.578125-4.925781-1.550781v15.519531c-.171875.007812-.34375.027344-.515625.027344-1.742188 0-3.363282-.449219-4.816406-1.171875-1.28125 1.445312-2.0625 3.351562-2.0625 5.441406 0 4.328125 3.332031 7.839844 7.566406 8.214844 2.683594 17.605469 17.847656 31.113281 36.207031 31.113281 18.386719 0 33.570313-13.546875 36.21875-31.195312 3.84375-.714844 6.761719-4.074219 6.761719-8.128907 0-1.949219-.679688-3.738281-1.808594-5.148437-1.320312.558594-2.765625.875-4.285156.875zm0 0" fill="#fff"/><g fill="#3a2c60"><path d="m133.796875 332.289062c2.210937 0 4-1.792968 4-4v-16.285156c0-2.207031-1.789063-4-4-4s-4 1.792969-4 4v16.285156c0 2.207032 1.789063 4 4 4zm0 0"/><path d="m210.175781 142.871094c0 3.472656-2.8125 6.285156-6.285156 6.285156-3.46875 0-6.28125-2.8125-6.28125-6.285156 0-3.46875 2.8125-6.28125 6.28125-6.28125 3.472656 0 6.285156 2.8125 6.285156 6.28125zm0 0"/><path d="m265.640625 142.871094c0 3.472656-2.8125 6.285156-6.285156 6.285156-3.46875 0-6.285157-2.8125-6.285157-6.285156 0-3.46875 2.816407-6.28125 6.285157-6.28125 3.472656 0 6.285156 2.8125 6.285156 6.28125zm0 0"/><path d="m231.625 174.851562c6.148438 0 11.148438-5 11.148438-11.148437v-4.191406c0-2.207031-1.789063-4-4-4-2.214844 0-4 1.792969-4 4v4.191406c0 1.738281-1.417969 3.148437-3.148438 3.148437-1.734375 0-3.148438-1.410156-3.148438-3.148437v-4.191406c0-2.207031-1.789062-4-4-4-2.210937 0-4 1.792969-4 4v4.191406c0 6.144531 5 11.148437 11.148438 11.148437zm0 0"/><path d="m254.359375 131.902344 12.308594 2.144531c.234375.042969.464843.0625.691406.0625 1.914063 0 3.597656-1.371094 3.9375-3.3125.378906-2.175781-1.082031-4.25-3.253906-4.628906l-12.308594-2.144531c-2.210937-.363282-4.25 1.085937-4.625 3.253906-.382813 2.175781 1.078125 4.242187 3.25 4.625zm0 0"/><path d="m207.511719 124.019531-12.308594 2.144531c-2.175781.378907-3.632813 2.453126-3.25 4.628907.339844 1.941406 2.027344 3.3125 3.933594 3.3125.230469 0 .457031-.023438.691406-.0625l12.308594-2.144531c2.175781-.378907 3.632812-2.449219 3.253906-4.625-.378906-2.171876-2.421875-3.621094-4.628906-3.253907zm0 0"/><path d="m248.738281 183.261719c1.328125-1.753907.984375-4.230469-.75-5.570313s-4.246093-1.015625-5.601562.707032c-.15625.203124-3.914063 4.882812-10.757813 4.882812-6.941406 0-10.5-4.539062-10.699218-4.804688-1.300782-1.769531-3.785157-2.164062-5.570313-.875-1.792969 1.289063-2.195313 3.789063-.90625 5.582032.238281.332031 5.96875 8.097656 17.171875 8.097656 10.914062 0 16.871094-7.699219 17.113281-8.019531zm0 0"/><path d="m310.171875 199.097656v-12.03125c.015625-.003906.027344-.011718.039063-.015625 1.089843-.265625 2.128906-.640625 3.125-1.105469.027343-.011718.050781-.03125.074218-.046874.984375-.46875 1.910156-1.027344 2.777344-1.671876.015625-.011718.027344-.023437.042969-.035156 1.765625-1.320312 3.25-2.964844 4.390625-4.859375 0 0 0-.003906.003906-.003906 15.433594-1.519531 27.535156-14.570313 27.535156-30.398437 0-9.597657-4.457031-18.164063-11.398437-23.769532 1.050781-6.023437 1.621093-12.132812 1.621093-18.277344 0-29.40625-12.359374-57.828124-33.90625-77.976562-21.835937-20.414062-50.3125-30.550781-80.199218-28.535156-54.019532 3.640625-96.707032 47.203125-99.289063 101.335937-.375 7.890625.203125 15.722657 1.554688 23.417969-6.972657 5.601562-11.449219 14.1875-11.449219 23.808594 0 15.828125 12.097656 28.878906 27.53125 30.398437 2.960938 4.929688 8.300781 8.269531 14.449219 8.269531 5.878906 0 11.054687-3.023437 14.085937-7.585937 6.035156 12.820313 15.96875 23.449219 28.332032 30.257813-39.566407 7.144531-69.695313 41.785156-69.695313 83.386718 0 2.207032 1.789063 4 4 4s4-1.792968 4-4c0-19.296875 7.207031-36.902344 19-50.410156 12.324219 6.402344 20.199219 19.042969 20.199219 33.09375v74.960938h-39.199219v-7.164063c0-2.207031-1.789063-4-4-4s-4 1.792969-4 4v11.164063c0 2.207031 1.789063 4 4 4h195.65625c2.210937 0 4-1.792969 4-4v-61.648438c0-36.6875-23.464844-67.898438-56.140625-79.679688h17.972656c8.207032.003907 14.886719-6.671874 14.886719-14.878906zm-12.910156-70.453125c0-.613281.0625-1.210937.179687-1.792969.832032-4.054687 4.425782-7.117187 8.726563-7.117187 4.910156 0 8.90625 3.996094 8.90625 8.910156v42.042969c0 4.914062-3.996094 8.910156-8.90625 8.910156-4.914063 0-8.910157-3.996094-8.910157-8.910156v-42.042969zm42.898437 20.289063c0 10.539062-7.300781 19.335937-17.085937 21.796875 0-.011719.003906-.027344.003906-.039063v-42.046875c0-.53125-.105469-1.03125-.152344-1.550781 9.859375 2.402344 17.234375 11.242188 17.234375 21.839844zm-199.984375 21.792968c-9.785156-2.460937-17.082031-11.257812-17.082031-21.792968 0-10.597656 7.371094-19.433594 17.234375-21.839844-.046875.519531-.15625 1.019531-.15625 1.550781v42.042969c0 .015625.003906.027344.003906.039062zm-2.3125-63.839843c0 4.128906.382813 8.226562.9375 12.292969-1.6875.386718-3.332031.898437-4.90625 1.554687-.875-6.144531-1.21875-12.375-.917969-18.640625 2.390626-50.074219 41.871094-90.371094 91.839844-93.738281 27.585938-1.855469 53.992188 7.511719 74.195313 26.402343 19.9375 18.636719 31.371093 44.925782 31.371093 72.128907 0 4.640625-.449218 9.246093-1.105468 13.820312-1.53125-.636719-3.128906-1.132812-4.769532-1.511719.890626-6.691406 1.113282-13.480468.539063-20.308593-3.839844-45.816407-41.34375-82.59375-87.234375-85.558594-26.144531-1.667969-51.144531 7.242187-70.261719 25.167969-18.863281 17.683594-29.6875 42.613281-29.6875 68.390625zm28.125 63.804687c0 4.914063-3.996093 8.910156-8.914062 8.910156-4.910157 0-8.90625-3.996093-8.90625-8.910156v-42.042968c0-4.914063 3.996093-8.910157 8.90625-8.910157 3.300781 0 6.152343 1.820313 7.695312 4.492188v27.441406c0 4.285156.441407 8.464844 1.21875 12.527344zm-9.089843-58.933594c-4 .042969-7.621094 1.523438-10.5 3.890626-.308594-2.910157-.53125-5.824219-.53125-8.765626 0-23.574218 9.902343-46.375 27.152343-62.554687 17.488281-16.390625 40.328125-24.589844 64.277344-23.019531 41.972656 2.710937 76.265625 36.34375 79.777344 78.238281.457031 5.414063.367187 10.796875-.199219 16.117187-.710938-.589843-1.464844-1.121093-2.261719-1.589843-.039062-.019531-.074219-.035157-.109375-.058594-.773437-.441406-1.5625-.839844-2.402344-1.15625-.152343-.058594-.316406-.089844-.46875-.144531-1.667968-.574219-3.425781-.945313-5.28125-.96875-2.417968-35.164063-28.957031-63.691406-63.261718-68.949219.179687-1.59375.488281-3.460937 1.046875-5.230469 1.464843-4.632812 4.238281-8.667968 2.777343-9.394531-2.78125-1.390625-15.09375 11.667969-15.09375 11.667969s-9.230468-8.425782-12.296874-6.429688c-1.054688.691406-.09375 5.621094.8125 9.363282-34.386719 5.195312-61.015626 33.757812-63.4375 68.984374zm17.089843 51.84375v-30.644531c2.300781-2.558593 4.914063-5.65625 6.894531-8.570312 4.433594-6.515625 9.308594-18.234375 9.308594-18.234375s-.46875 7.328125-1.75 12.066406c-1.46875 5.429688-3.761718 8.363281-3.390625 8.429688.316407.050781 5.480469-2.167969 9.644531-6.777344 5.035157-5.570313 9.195313-13.71875 9.195313-13.71875s.375 4.859375-.332031 7.984375c-.84375 3.730469-2.75 5.847656-2.199219 5.980469.433594.101562 6.953125-.785157 12.886719-3.726563 7.949218-3.933594 15.808594-10.242187 15.808594-10.242187s-.246094 5.46875-1.46875 8.070312c-1.855469 3.949219-4.867188 5.640625-4.109376 5.898438.613282.203124 7.390626-1.339844 13.054688-4.796876 5.949219-3.625 10.773438-9.171874 10.773438-9.171874s.105468 3.976562-.957032 6.945312c-1.375 3.824219-7.480468 12.542969-6.863281 12.683594.445313.097656 11.316406-4.511719 18.070313-9.386719 8.917968-6.425781 17.207031-17.203125 17.207031-17.203125l13.5 14.667969v49.753906c-3.132813 15.09375-12.097657 28.0625-24.398438 36.519531-1.894531-1.378906-4.207031-2.214844-6.722656-2.214844h-9.21875c-6.34375 0-11.5 5.160157-11.5 11.5 0 .257813.058594.496094.074219.75-1.9375.210938-3.882813.363282-5.875.363282-28.363282 0-52.105469-20.171875-57.632813-46.925782zm80.738281 57.3125h3.417969c2.453125 0 4.710938-.78125 6.578125-2.09375.011719.003907.023438.003907.039063.007813l-6.992188 36.386719-14.3125-14.007813zm-9.300781-11.5c0-1.925781 1.570313-3.5 3.5-3.5h9.21875c1.925781 0 3.496094 1.574219 3.496094 3.5 0 1.929688-1.570313 3.5-3.496094 3.5h-9.21875c-1.929687 0-3.5-1.566406-3.5-3.5zm-38.839843 7.867188 13.3125 23.929688-14.3125 14.003906-7.042969-36.644532c2.636719-.558593 5.316406-1.007812 8.042969-1.289062zm21.039062 134.023438h-42.628906v-74.960938c0-16.238281-8.613282-31-22.34375-39.082031 7.996094-7.371094 17.515625-13.089844 28.074218-16.554688l8.339844 43.421875c.28125 1.460938 1.34375 2.652344 2.761719 3.089844.398437.125.804687.183594 1.207031.183594 1.039063 0 2.0625-.402344 2.824219-1.152344l15.894531-15.542969c2.59375 3.722657 4.746094 6.636719 5.875 8.132813v92.464844zm-.019531-106.324219.152343-.152344c.648438-.636719 1.050782-1.453125 1.175782-2.308594.121094-.855469-.027344-1.75-.46875-2.546875l-.96875-1.742187-11.820313-21.265625c7.046875 1.597656 14.386719 1.996094 21.589844 1.273437 1.285156-.113281 2.5625-.265625 3.828125-.453125 1.304688 1.222656 2.902344 2.117188 4.671875 2.628906l-10.871094 19.5625c-.886719 1.589844-.59375 3.578126.710938 4.851563l.152343.152344c-1.523437 2.199219-2.917968 4.160156-4.078124 5.75-1.15625-1.589844-2.554688-3.550781-4.074219-5.75zm97.847656 48.675781v57.644531h-39.199219v-74.960937c0-14.039063 7.863282-26.675782 20.175782-33.078125 11.800781 13.496093 19.023437 31.09375 19.023437 50.394531zm-24.878906-56.386719c-13.71875 8.085938-22.320313 22.839844-22.320313 39.070313v74.960937h-42.628906v-92.316406c1.089844-1.449219 3.300781-4.429687 5.984375-8.28125l15.886719 15.542969c.765625.753906 1.785156 1.152344 2.824218 1.152344.402344 0 .808594-.058594 1.207032-.183594 1.417968-.441406 2.480468-1.632813 2.761718-3.089844l8.335938-43.375c10.515625 3.460938 19.980469 9.1875 27.949219 16.519531zm-30.128907-31.289062c9.253907-6.636719 16.738282-15.574219 21.640626-25.960938 0 0 .003906.003907.003906.003907.460937.699218 1.015625 1.328124 1.578125 1.953124.144531.160157.261719.34375.40625.496094.679687.691406 1.425781 1.308594 2.210937 1.875.054688.039063.097656.09375.15625.128906 1.6875 1.195313 3.601563 2.058594 5.667969 2.574219.019531.003907.035156.015625.054687.019531v12.027344c0 3.792969-3.089843 6.882813-6.886718 6.882813zm0 0"/><path d="m107.769531 372.464844c-6.410156-6.625-14.570312-11.523438-23.75-13.945313 8.367188-5.769531 14.566407-14.589843 16.789063-24.929687 4.332031-1.941406 7.25-6.28125 7.25-11.203125 0-3.140625-1.207032-6.03125-3.207032-8.226563v-9.371094c0-21.902343-16.082031-40.046874-37.085937-43.265624.101563-.925782.285156-2.019532.609375-3.050782.855469-2.703125 2.472656-5.058594 1.625-5.484375-1.625-.8125-8.808594 6.808594-8.808594 6.808594s-5.386718-4.917969-7.171875-3.75c-.617187.402344-.054687 3.28125.476563 5.460937-21.050782 3.175782-37.1875 21.34375-37.1875 43.28125v8.605469c-2.460938 2.261719-4 5.480469-4 8.992188 0 5.3125 3.324218 9.828125 8.113281 11.523437 2.253906 10.222656 8.199219 18.796875 16.289063 24.464844-.425782.148438-.832032.335938-1.175782.605469-8.523437 2.546875-16.101562 7.238281-22.136718 13.472656-.261719.203125-.472657.445313-.683594.714844-8.488282 9.117187-13.714844 21.296875-13.714844 34.710937v35.96875c0 2.207032 1.789062 4 4 4h114.15625c2.210938 0 4-1.792968 4-4v-35.96875c0-13.421875-5.234375-25.605468-13.730469-34.726562-.199219-.257813-.40625-.488282-.65625-.6875zm-21.144531 25.320312v42.070313h-51.085938v-42.070313c0-9.3125-4.605468-17.792968-12.023437-22.992187 3.667969-3.070313 7.867187-5.503907 12.421875-7.230469l4.496094 23.410156c.277344 1.460938 1.34375 2.652344 2.757812 3.089844.402344.125.804688.183594 1.207032.183594 1.042968 0 2.0625-.402344 2.824218-1.148438l7.855469-7.691406c1.625 2.273438 2.761719 3.757812 2.832031 3.851562.765625.988282 1.945313 1.570313 3.203125 1.570313 1.253907 0 2.429688-.585937 3.199219-1.570313.070312-.09375 1.207031-1.578124 2.832031-3.847656l7.855469 7.6875c.765625.75 1.785156 1.148438 2.824219 1.148438.402343 0 .808593-.058594 1.207031-.183594 1.417969-.441406 2.480469-1.628906 2.761719-3.089844l4.492187-23.382812c4.527344 1.71875 8.707032 4.144531 12.359375 7.203125-7.414062 5.195312-12.019531 13.679687-12.019531 22.992187zm-25.195312-18.28125c-.105469.152344-.214844.300782-.3125.445313-.101563-.148438-.210938-.296875-.3125-.449219.136718-.28125.242187-.570312.3125-.871094.066406.300782.171874.59375.3125.875zm-.3125-2.710937c-.085938-.351563-.21875-.695313-.398438-1.023438-.003906-.007812-.003906-.019531-.007812-.027343l-1.054688-1.898438-4.679688-8.417969c4.097657.550781 8.34375.476563 12.402344-.214843l-5.855468 10.535156c-.191407.332031-.328126.6875-.40625 1.046875zm8.960937.1875 3.421875-6.15625 3.101562-5.578125c.617188.085937 1.234376.1875 1.847657.300781l-3.175781 16.519531zm-24.515625-11.835938 6.582031 11.835938-5.191406 5.078125-3.199219-16.632813c.601563-.105469 1.207032-.203125 1.808594-.28125zm-20.816406-48.152343c-.007813.003906-.007813.007812-.011719.011718.003906 0 .011719-.007812.011719-.011718zm4.082031 13.003906c-.277344-1.824219-1.765625-3.21875-3.605469-3.378906-2.230468-.199219-3.910156-2.011719-3.910156-4.230469 0-2.089844 1.578125-3.902344 3.671875-4.203125 1.964844-.285156 3.421875-1.972656 3.421875-3.960938v-1.1875c1.078125-1.242187 2.1875-2.609375 3.074219-3.914062 2.582031-3.804688 5.429687-10.640625 5.429687-10.640625s-.269531 4.277343-1.019531 7.039062c-.855469 3.167969-2.191406 4.878907-1.976563 4.917969.1875.03125 3.199219-1.265625 5.628907-3.957031 2.9375-3.253907 5.363281-8.003907 5.363281-8.003907s.222656 2.835938-.191406 4.660157c-.492188 2.179687-1.605469 3.410156-1.28125 3.492187.25.058594 4.054687-.457031 7.519531-2.171875 4.636719-2.296875 9.222656-5.976562 9.222656-5.976562s-.144531 3.1875-.859375 4.707031c-1.082031 2.304688-2.839844 3.292969-2.394531 3.441406.355469.117188 4.308594-.785156 7.613281-2.796875 3.46875-2.117187 6.285156-5.351562 6.285156-5.351562s.0625 2.320312-.554687 4.050781c-.804687 2.238281-4.367187 7.320312-4.003906 7.402344.257812.058594 6.601562-2.632813 10.542969-5.476563 5.199218-3.753906 10.035156-10.039062 10.035156-10.039062l6.925781 7.527343v12.425782c0 1.839844 1.25 3.445312 3.042969 3.886718 1.917968.472657 3.257812 2.175782 3.257812 4.132813 0 2.058594-1.464844 3.824219-3.492187 4.203125-1.675781.308594-2.964844 1.648438-3.222657 3.335938-2.378906 15.839843-16.25 27.785156-32.261718 27.785156-15.980469 0-29.851563-11.914063-32.261719-27.71875zm-20.820313 77.886718c0-10.367187 3.679688-19.890624 9.800782-27.34375 5.988281 3.613282 9.734375 10.105469 9.734375 17.242188v42.070312h-19.535157zm106.15625 31.96875h-19.539062v-42.070312c0-7.136719 3.746094-13.628906 9.734375-17.242188 6.121094 7.449219 9.800781 16.972657 9.800781 27.34375v31.96875zm0 0"/><path d="m61.085938 355.4375c10.085937 0 13.75-9.328125 13.75-15.59375 0-2.207031-1.789063-4-4-4h-19.5c-1.0625 0-2.082032.421875-2.832032 1.171875-.746094.753906-1.171875 1.773437-1.167968 2.832031.011718 6.269532 3.683593 15.589844 13.75 15.589844zm5-11.597656c-.734376 1.84375-2.171876 3.59375-5 3.59375-2.820313 0-4.261719-1.75-4.992188-3.59375zm0 0"/><path d="m425.101562 358.519531c8.367188-5.769531 14.5625-14.589843 16.785157-24.929687 4.332031-1.941406 7.257812-6.28125 7.257812-11.203125 0-2.746094-.921875-5.3125-2.488281-7.378907 2.011719-1.972656 3.265625-4.710937 3.265625-7.746093 0-3.34375-1.511719-6.320313-3.882813-8.3125 2.367188-1.992188 3.882813-4.976563 3.882813-8.316407 0-5.144531-3.582031-9.445312-8.386719-10.570312.8125-1.320312 1.304688-2.855469 1.304688-4.519531 0-4.785157-3.878906-8.667969-8.667969-8.667969-.792969 0-1.542969.140625-2.277344.339844-.65625-4.140625-4.207031-7.3125-8.53125-7.3125-1.972656 0-3.765625.6875-5.222656 1.792968-.925781-3.792968-4.320313-6.617187-8.402344-6.617187-3.28125 0-6.101562 1.851563-7.574219 4.539063-1.472656-2.691407-4.292968-4.539063-7.574218-4.539063-4.078125 0-7.472656 2.824219-8.402344 6.617187-1.457031-1.105468-3.25-1.792968-5.222656-1.792968-4.324219 0-7.875 3.171875-8.53125 7.3125-.730469-.199219-1.484375-.339844-2.277344-.339844-4.789062 0-8.667969 3.882812-8.667969 8.667969 0 1.660156.492188 3.199219 1.304688 4.519531-4.804688 1.125-8.386719 5.421875-8.386719 10.570312 0 3.339844 1.507812 6.320313 3.882812 8.316407-2.367187 1.992187-3.882812 4.976562-3.882812 8.3125 0 2.816406 1.105469 5.367187 2.871094 7.296875-1.796875 2.144531-2.886719 4.886718-2.886719 7.832031 0 5.3125 3.324219 9.828125 8.117187 11.523437 2.253907 10.222657 8.195313 18.796876 16.289063 24.464844-.429687.148438-.832031.335938-1.175781.605469-21.089844 6.304687-36.535156 25.789063-36.535156 48.898437v35.96875c0 2.207032 1.785156 4 4 4h114.152343c2.214844 0 4-1.792968 4-4v-35.96875c0-23.695312-16.230469-43.589843-38.136719-49.363281zm2.601563 39.265625v42.070313h-51.078125v-42.070313c0-9.3125-4.609375-17.796875-12.023438-22.992187 3.667969-3.070313 7.867188-5.503907 12.417969-7.230469l4.496094 23.410156c.28125 1.460938 1.34375 2.652344 2.761719 3.089844.398437.125.800781.183594 1.207031.183594 1.039063 0 2.058594-.402344 2.824219-1.148438l7.855468-7.6875c1.621094 2.273438 2.761719 3.757813 2.832032 3.847656.765625.988282 1.945312 1.570313 3.199218 1.570313 1.253907 0 2.433594-.582031 3.199219-1.570313.074219-.09375 1.214844-1.578124 2.832031-3.851562l7.859376 7.691406c.761718.75 1.78125 1.148438 2.820312 1.148438.40625 0 .8125-.058594 1.210938-.183594 1.417968-.441406 2.480468-1.628906 2.757812-3.089844l4.492188-23.390625c4.527343 1.722657 8.707031 4.152344 12.363281 7.210938-7.417969 5.195312-12.027344 13.679687-12.027344 22.992187zm-25.191406-18.285156c-.105469.152344-.210938.300781-.316407.445312-.097656-.144531-.207031-.292968-.3125-.445312.140626-.28125.25-.574219.316407-.875.066406.304688.167969.597656.3125.875zm-.316407-2.707031c-.082031-.351563-.214843-.695313-.394531-1.023438-.003906-.007812-.003906-.019531-.007812-.027343l-1.296875-2.332032-4.441406-7.984375c4.109374.550781 8.339843.472657 12.40625-.21875l-5.855469 10.539063c-.195313.332031-.324219.6875-.410157 1.046875zm8.96875.1875.414063-.75 6.109375-10.988281c.621094.089843 1.234375.1875 1.84375.300781l-3.171875 16.519531zm-24.515624-11.835938 6.578124 11.835938-5.195312 5.082031-3.199219-16.636719c.605469-.105469 1.207031-.203125 1.816407-.28125zm56.277343-47.765625c.101563-.039062.214844-.054687.3125-.09375-.097656.042969-.210937.058594-.3125.09375zm-1.699219.523438c-.699218.144531-1.421874.222656-2.167968.222656.746094-.003906 1.46875-.082031 2.167968-.222656zm-4.503906-14.417969c.636719-.25 1.269532-.515625 1.824219-.902344-.558594.386719-1.175781.679688-1.824219.902344zm-73.726562 14.390625c-.121094-.023438-.226563-.074219-.34375-.105469.117187.027344.222656.078125.34375.105469zm-2.148438-.710938c-.046875-.019531-.085937-.050781-.136718-.070312.050781.019531.089843.050781.136718.070312zm9.058594 12.832032c-.273438-1.824219-1.761719-3.21875-3.601562-3.378906-2.234376-.199219-3.917969-2.011719-3.917969-4.230469 0-2.125 1.550781-3.894531 3.675781-4.203125 1.964844-.285156 3.425781-1.972656 3.425781-3.960938v-10.285156c.40625.058594.796875.191406 1.21875.191406 4.789063 0 8.667969-3.882812 8.667969-8.667968 0-.019532-.007812-.042969-.007812-.066407 1.441406 1.066407 3.203124 1.714844 5.128906 1.714844 4.28125 0 7.8125-3.109375 8.519531-7.183594 1.292969 3.808594 4.890625 6.558594 9.140625 6.558594 4.246094 0 7.847656-2.75 9.140625-6.558594.707031 4.074219 4.238281 7.183594 8.519531 7.183594 1.925782 0 3.6875-.648437 5.128906-1.714844 0 .019531-.007812.042969-.007812.066407 0 4.785156 3.878906 8.667968 8.667969 8.667968.425781 0 .808593-.132812 1.21875-.191406v10.429688c0 1.839843 1.253906 3.445312 3.042969 3.882812 1.921874.472656 3.265624 2.175781 3.265624 4.136719 0 2.058593-1.46875 3.820312-3.496093 4.203125-1.675781.308594-2.96875 1.648437-3.226563 3.335937-2.378906 15.839844-16.25 27.785157-32.261718 27.785157-15.964844.003906-29.828126-11.910157-32.242188-27.714844zm-4.121094-27.417969c.554688.386719 1.1875.652344 1.824219.902344-.652344-.21875-1.269531-.511719-1.824219-.902344zm-16.699218 105.304687c0-10.371093 3.683593-19.894531 9.800781-27.34375 5.992187 3.613282 9.738281 10.105469 9.738281 17.242188v42.070312h-19.539062zm106.152343 31.96875h-19.535156v-42.070312c0-7.136719 3.746094-13.632812 9.738281-17.242188 6.117188 7.449219 9.796875 16.972657 9.796875 27.34375zm0 0"/><path d="m402.164062 355.4375c10.089844 0 13.75-9.328125 13.75-15.59375 0-2.207031-1.785156-4-4-4h-19.503906c-1.0625 0-2.082031.421875-2.832031 1.171875-.746094.753906-1.171875 1.773437-1.167969 2.832031.015625 6.269532 3.6875 15.589844 13.753906 15.589844zm5.003907-11.597656c-.730469 1.84375-2.171875 3.59375-5.003907 3.59375-2.820312 0-4.261718-1.75-4.992187-3.59375zm0 0"/><path d="m345.976562 182.449219-2.617187 17.300781c-.332031 2.1875 1.171875 4.226562 3.355469 4.554688.207031.03125.40625.042968.601562.042968 1.945313 0 3.652344-1.417968 3.949219-3.402344l1.171875-7.757812 11.550781 15.671875c.78125 1.066406 1.996094 1.628906 3.222657 1.628906.824218 0 1.65625-.253906 2.375-.78125 1.773437-1.3125 2.152343-3.816406.84375-5.589843l-11.554688-15.671876 7.761719 1.171876c2.1875.339843 4.222656-1.171876 4.550781-3.355469.332031-2.1875-1.171875-4.226563-3.355469-4.554688l-17.304687-2.613281c-2.183594-.34375-4.222656 1.171875-4.550782 3.355469zm0 0"/><path d="m372.0625 238.6875c-.332031 2.183594 1.171875 4.222656 3.359375 4.554688l17.296875 2.621093c.203125.027344.402344.042969.597656.042969.847656 0 1.683594-.265625 2.375-.777344.851563-.632812 1.421875-1.578125 1.582032-2.625l2.613281-17.304687c.332031-2.183594-1.171875-4.222657-3.355469-4.550781-2.1875-.347657-4.222656 1.171874-4.550781 3.355468l-1.171875 7.757813-11.550782-15.667969c-1.3125-1.78125-3.816406-2.160156-5.59375-.847656-1.777343 1.3125-2.15625 3.816406-.84375 5.59375l11.550782 15.667968-7.753906-1.171874c-2.179688-.339844-4.226563 1.167968-4.554688 3.351562zm0 0"/><path d="m96.617188 189.621094 7.753906-1.171875-11.550782 15.671875c-1.3125 1.773437-.933593 4.277344.84375 5.589844.714844.527343 1.546876.78125 2.371094.78125 1.230469 0 2.4375-.5625 3.226563-1.628907l11.550781-15.671875 1.171875 7.757813c.296875 1.984375 2.003906 3.402343 3.949219 3.402343.199218 0 .398437-.011718.597656-.042968 2.183594-.332032 3.6875-2.367188 3.355469-4.550782l-2.613281-17.304687c-.15625-1.050781-.730469-1.992187-1.582032-2.621094-.851562-.632812-1.921875-.886719-2.972656-.734375l-17.296875 2.613282c-2.1875.332031-3.691406 2.367187-3.359375 4.554687.328125 2.183594 2.367188 3.695313 4.554688 3.355469zm0 0"/><path d="m67.550781 245.128906c.691407.507813 1.527344.777344 2.378907.777344.199218 0 .398437-.015625.59375-.042969l17.304687-2.621093c2.183594-.332032 3.6875-2.367188 3.355469-4.550782-.328125-2.183594-2.371094-3.691406-4.550782-3.355468l-7.761718 1.175781 11.554687-15.671875c1.308594-1.777344.929688-4.28125-.847656-5.59375-1.773437-1.304688-4.285156-.929688-5.589844.851562l-11.550781 15.671875-1.171875-7.761719c-.328125-2.183593-2.367187-3.703124-4.554687-3.355468-2.183594.332031-3.6875 2.367187-3.355469 4.550781l2.617187 17.304687c.160156 1.042969.726563 1.988282 1.578125 2.621094zm0 0"/></g></svg>