<svg height="459pt" viewBox="-24 0 459 459.208" width="459pt" xmlns="http://www.w3.org/2000/svg"><path d="m411.101562 453.246094c-7.101562-12.640625-15.878906-24.515625-26.066406-35.277344-25.339844-26.960938-57.71875-45.371094-93.636718-53.253906-4.464844-.984375-8.972657-1.746094-13.476563-2.386719-3.085937-.445313-6.179687-.863281-9.257813-1.144531 43.171876-17.898438 75.78125-56.277344 85.632813-102.957032 2.367187 1.011719 4.808594 1.582032 7.3125 1.582032 13.671875 0 24.789063-14.964844 24.789063-33.355469 0-18.394531-11.117188-33.355469-24.789063-33.355469-1.425781 0-2.824219.203125-4.210937.519532v-34.085938c0-79.140625-64.386719-143.523438-143.527344-143.523438s-143.519532 64.378907-143.519532 143.519532v34.085937c-1.382812-.316406-2.785156-.519531-4.210937-.519531-13.667969 0-24.789063 14.960938-24.789063 33.355469 0 18.390625 11.121094 33.355469 24.789063 33.355469 2.503906 0 4.941406-.570313 7.3125-1.582032 9.851563 46.679688 42.453125 85.058594 85.628906 102.960938-4.945312.457031-9.910156 1.195312-14.863281 2.0625-2.617188.460937-5.242188.898437-7.835938 1.46875-35.972656 7.894531-68.375 26.304687-93.695312 53.246094-10.195312 10.769531-18.96875 22.644531-26.070312 35.285156-.699219 1.242187-.679688 2.753906.035156 3.980468.71875 1.226563 2.03125 1.980469 3.453125 1.980469h387.503906c1.417969 0 2.734375-.75 3.449219-1.980469.722656-1.222656.738281-2.738281.042968-3.980468zm0 0" fill="#e6e7e8"/><path d="m345.609375 181.09375c-2.917969 0-5.691406.863281-8.210937 2.394531v29.0625c0 7.957031-.699219 15.75-1.980469 23.339844 3.027343 2.421875 6.46875 3.914063 10.191406 3.914063 11.480469 0 20.789063-13.144532 20.789063-29.355469 0-16.214844-9.308594-29.355469-20.789063-29.355469zm0 0" fill="#fff"/><path d="m58.347656 212.546875v-29.0625c-2.519531-1.53125-5.292968-2.394531-8.207031-2.394531-11.484375 0-20.792969 13.140625-20.792969 29.355468 0 16.210938 9.308594 29.355469 20.792969 29.355469 3.722656 0 7.167969-1.492187 10.1875-3.914062-1.277344-7.589844-1.980469-15.378907-1.980469-23.339844zm0 0" fill="#fff"/><path d="m391.613281 439.207031h-387.503906c7.035156-12.527343 15.609375-24.066406 25.484375-34.5 24.132812-25.671875 55.914062-44.246093 91.644531-52.085937 7.285157-1.605469 14.75-2.777344 22.339844-3.457032 5.433594-.492187 10.925781-.800781 16.476563-.800781h75.601562c2.34375 0 4.691406.0625 7.035156.183594 1.421875.0625 2.839844.125 4.195313.25 1.789062.058594 3.582031.183594 5.308593.367187 7.59375.679688 15.054688 1.851563 22.339844 3.457032 35.734375 7.835937 67.453125 26.410156 91.585938 52.085937 9.878906 10.433594 18.453125 21.972657 25.492187 34.5zm0 0" fill="#fff"/><path d="m274.539062 364.625c-7.285156-1.605469-14.75-2.777344-22.339843-3.457031-1.726563-.183594-3.515625-.308594-5.308594-.367188-1.355469-.125-2.773437-.183593-4.195313-.25-2.34375-.121093-4.691406-.183593-7.035156-.183593h-75.601562c-5.554688 0-11.046875.308593-16.476563.800781-7.589843.679687-15.058593 1.851562-22.339843 3.457031-35.730469 7.835938-67.515626 26.410156-91.640626 52.085938-6.625 7-12.609374 14.542968-17.992187 22.5h372.511719c-5.386719-7.957032-11.371094-15.5-17.992188-22.5-24.132812-25.675782-55.855468-44.25-91.589844-52.085938zm0 0" fill="#fa759e"/><path d="m197.875 421.203125c39.703125 0 72.371094-30.003906 76.640625-68.570313-7.289063-1.609374-14.730469-2.785156-22.320313-3.480468-3.253906 27.128906-26.3125 48.171875-54.320312 48.171875s-51.0625-21.039063-54.320312-48.171875c-7.585938.691406-15.035157 1.867187-22.320313 3.480468 4.269531 38.566407 36.9375 68.570313 76.640625 68.570313zm0 0" fill="#6dc9f7"/><path d="m197.875 397.324219c28.007812 0 51.066406-21.039063 54.320312-48.171875-5.445312-.496094-10.949218-.789063-16.523437-.789063h-75.59375c-5.574219 0-11.078125.292969-16.523437.789063 3.257812 27.132812 26.3125 48.171875 54.320312 48.171875zm0 0" fill="#fff"/><path d="m197.875 4c77.0625 0 139.523438 62.46875 139.523438 139.523438v69.019531c0 77.0625-62.464844 139.523437-139.523438 139.523437s-139.523438-62.464844-139.523438-139.523437v-69.015625c-.003906-77.058594 62.464844-139.527344 139.523438-139.527344zm0 0" fill="#fff"/><path d="m197.875 4c77.0625 0 139.523438 62.46875 139.523438 139.523438v69.019531c0 77.0625-62.464844 139.523437-139.523438 139.523437s-139.523438-62.464844-139.523438-139.523437v-69.015625c-.003906-77.058594 62.464844-139.527344 139.523438-139.527344zm0 0" fill="#fff"/><path d="m197.085938 31.566406s-33.585938-15.359375-36.710938 7.929688c0 0-39.054688-.566406-16.402344 23.5l-7.066406-6.652344s-27.296875 2.476562-17.148438 23.785156c0 0-31.863281 14.003906-2.261718 26.328125 0 0-11.8125 19.753907 33.5 26.695313 0 0 16.410156 14.769531 46.089844 2.921875zm0 0" fill="#fa759e"/><path d="m198.632812 31.566406s33.585938-15.359375 36.710938 7.929688c0 0 39.054688-.566406 16.402344 23.5l7.066406-6.652344s27.300781 2.476562 17.148438 23.785156c0 0 31.863281 14.003906 2.261718 26.328125 0 0 11.8125 19.753907-33.5 26.695313 0 0-16.410156 14.769531-46.089844 2.921875zm0 0" fill="#ffd7e5"/><g fill="#3a2c60"><path d="m395.105469 437.246094c-7.101563-12.640625-15.878907-24.515625-26.066407-35.277344-25.34375-26.960938-57.722656-45.375-93.640624-53.253906-4.691407-1.035156-9.425782-1.816406-14.15625-2.472656-2.859376-.398438-5.71875-.796876-8.574219-1.058594 43.1875-17.90625 75.800781-56.304688 85.640625-103.007813 2.363281 1.035157 4.800781 1.625 7.304687 1.625 13.667969 0 24.785157-14.964843 24.785157-33.351562 0-18.394531-11.117188-33.355469-24.785157-33.355469-1.425781 0-2.832031.167969-4.214843.484375v-34.050781c0-79.140625-64.382813-143.527344-143.523438-143.527344s-143.527344 64.386719-143.527344 143.527344v34.050781c-1.378906-.320313-2.785156-.484375-4.207031-.484375-13.671875 0-24.792969 14.960938-24.792969 33.355469 0 18.390625 11.121094 33.351562 24.792969 33.351562 2.46875 0 4.917969-.605469 7.296875-1.640625 9.839844 46.707032 42.453125 85.113282 85.644531 103.019532-4.671875.429687-9.359375 1.113281-14.03125 1.914062-2.894531.492188-5.796875.992188-8.664062 1.621094-35.972657 7.890625-68.375 26.304687-93.699219 53.246094-10.203125 10.777343-18.972656 22.65625-26.070312 35.285156-.6992192 1.242187-.679688 2.753906.035156 3.980468.71875 1.226563 2.03125 1.980469 3.453125 1.980469h387.507812c1.417969 0 2.734375-.75 3.449219-1.980469.722656-1.222656.738281-2.738281.042969-3.980468zm-148.0625-82.398438c-.222657.898438-.4375 1.800782-.707031 2.675782-.1875.609374-.414063 1.199218-.621094 1.800781-.289063.824219-.570313 1.648437-.894532 2.449219-.25.601562-.523437 1.191406-.796874 1.78125-.347657.765624-.695313 1.53125-1.078126 2.273437-.304687.585937-.632812 1.160156-.957031 1.730469-.40625.71875-.816406 1.429687-1.253906 2.121094-.355469.558593-.726563 1.105468-1.101563 1.648437-.460937.667969-.929687 1.332031-1.421874 1.976563-.402344.527343-.820313 1.042968-1.242188 1.554687-.511719.621094-1.035156 1.234375-1.578125 1.824219-.445313.492187-.90625.976562-1.371094 1.449218-.558593.570313-1.136719 1.128907-1.722656 1.671876-.488281.453124-.984375.894531-1.488281 1.328124-.609375.519532-1.238282 1.023438-1.867188 1.515626-.527344.40625-1.054687.8125-1.59375 1.195312-.65625.46875-1.328125.914062-2.007812 1.351562-.554688.359376-1.113282.71875-1.679688 1.058594-.699218.414063-1.421875.796875-2.140625 1.179688-.578125.304687-1.160156.617187-1.75.902344-.75.359374-1.519531.679687-2.28125 1.003906-.597656.253906-1.191406.515625-1.800781.746094-.800781.296874-1.621094.554687-2.4375.8125-.601562.195312-1.199219.402343-1.808594.574218-.871094.238282-1.757812.425782-2.640625.625-.589843.125-1.164062.28125-1.761719.390625-.992187.179688-2 .300781-3.007812.421875-.507812.0625-1.003906.15625-1.515625.203125-1.527344.140625-3.070313.214844-4.636719.214844-1.5625 0-3.101562-.074219-4.636718-.214844-.511719-.050781-1.007813-.140625-1.515626-.203125-1.007812-.121094-2.019531-.242187-3.007812-.421875-.59375-.109375-1.171875-.265625-1.757812-.390625-.886719-.199218-1.773438-.386718-2.640626-.625-.613281-.167968-1.207031-.378906-1.8125-.574218-.816406-.257813-1.636718-.515626-2.4375-.8125-.605468-.230469-1.199218-.492188-1.796874-.746094-.769532-.324219-1.539063-.644532-2.285157-1.003906-.59375-.285157-1.171875-.601563-1.753906-.902344-.71875-.382813-1.4375-.765625-2.140625-1.179688-.570312-.339844-1.121094-.699218-1.679688-1.058594-.675781-.433593-1.351562-.878906-2.007812-1.351562-.539062-.386719-1.066406-.792969-1.589844-1.195312-.632812-.492188-1.261718-.992188-1.867187-1.515626-.507813-.433593-1-.875-1.488281-1.328124-.589844-.542969-1.164063-1.101563-1.726563-1.671876-.464844-.476562-.921875-.957031-1.371094-1.449218-.539062-.59375-1.0625-1.203125-1.574219-1.824219-.425781-.511719-.839843-1.027344-1.246093-1.554687-.492188-.644532-.960938-1.304688-1.417969-1.972657-.378906-.542969-.753906-1.09375-1.109375-1.652343-.4375-.691407-.847656-1.402344-1.25-2.121094-.324219-.570313-.652344-1.144532-.957031-1.726563-.386719-.742187-.734375-1.511719-1.082032-2.277343-.265624-.589844-.546874-1.175782-.789062-1.777344-.328125-.800782-.613281-1.625-.898438-2.449219-.207031-.601563-.433593-1.1875-.621093-1.800781-.265625-.875-.484375-1.773438-.707031-2.675782-.144532-.582031-.3125-1.15625-.433594-1.742187-.019532-.085937-.027344-.171875-.046875-.257813 1.078125-.074218 2.191406-.171874 3.238281-.226562.449219-.023438.910156-.054688 1.359375-.074219 2.367187-.105469 4.664063-.167969 6.90625-.171875.117187 0 .234375-.007812.347656-.007812h5.503907c10.390624 2.402344 21.191406 3.707031 32.296874 3.707031 11.109376 0 21.910157-1.308594 32.296876-3.707031h5.503906c1.398437 0 2.820312.039062 4.234375.078125.902343.027343 1.804687.058593 2.746093.105469 1.3125.0625 2.625.113281 4.09375.246093.257813.007813.519532.042969.773438.054688-.015625.085937-.023438.171875-.042969.257812-.132812.578125-.296875 1.152344-.445312 1.734375zm98.570312-169.753906c9.097657 0 16.785157 11.609375 16.785157 25.355469 0 13.742187-7.6875 25.351562-16.785157 25.351562-1.957031 0-3.90625-.585937-5.828125-1.738281.496094-3.28125.84375-6.609375 1.109375-9.957031.046875-.554688.089844-1.105469.128907-1.65625.222656-3.277344.378906-6.570313.378906-9.902344v-26.613281c1.378906-.558594 2.785156-.839844 4.210937-.839844zm-295.46875 50.707031c-9.101562 0-16.792969-11.613281-16.792969-25.351562 0-13.746094 7.691407-25.355469 16.792969-25.355469 1.417969 0 2.828125.277344 4.207031.839844v26.613281c0 3.335937.15625 6.632813.378907 9.914063.039062.535156.082031 1.066406.125 1.601562.269531 3.367188.617187 6.707031 1.117187 10-1.925781 1.152344-3.878906 1.738281-5.828125 1.738281zm12.203125-23.253906v-69.019531c0-74.730469 60.796875-135.527344 135.527344-135.527344s135.523438 60.796875 135.523438 135.527344v69.019531c0 68.4375-51 125.152344-116.984376 134.226563v-24.933594c0-5.828125-4.726562-10.554688-10.554687-10.554688h-15.96875c-5.828125 0-10.554687 4.726563-10.554687 10.554688v24.933594c-65.984376-9.070313-116.988282-65.785157-116.988282-134.226563zm55.617188 144.96875c6.484375 38.875 40.023437 67.683594 79.910156 67.683594 11.128906 0 21.914062-2.210938 32.046875-6.578125 2.03125-.875 2.964844-3.230469 2.09375-5.257813-.875-2.03125-3.242187-2.960937-5.257813-2.089843-9.128906 3.929687-18.847656 5.921874-28.882812 5.921874-36.082031 0-66.480469-26.125-72.164062-61.347656 4.816406-.957031 9.652343-1.703125 14.496093-2.242187.042969.226562.113281.441406.15625.667969.171875.847656.382813 1.675781.589844 2.511718.21875.890625.441406 1.777344.703125 2.652344.242188.816406.519531 1.617188.800781 2.417969.292969.855469.597657 1.703125.929688 2.539062.3125.785157.652343 1.550781.996093 2.3125.367188.820313.75 1.632813 1.152344 2.433594.375.738281.773438 1.46875 1.175782 2.1875.441406.78125.894531 1.550781 1.363281 2.308594.4375.699219.890625 1.382812 1.351562 2.0625.507813.738281 1.027344 1.460937 1.5625 2.171875.492188.652344.992188 1.296875 1.511719 1.929687.566406.691407 1.152344 1.363281 1.75 2.027344.546875.605469 1.09375 1.199219 1.65625 1.78125.628906.644531 1.277344 1.257813 1.9375 1.875.589844.546875 1.175781 1.089844 1.785156 1.617187.6875.589844 1.398438 1.15625 2.113282 1.714844.625.488282 1.25.980469 1.894531 1.445313.746093.535156 1.515625 1.039062 2.285156 1.539062.660156.425781 1.3125.863281 1.988281 1.261719.804688.476562 1.628906.914062 2.457032 1.351562.6875.367188 1.363281.742188 2.066406 1.082032.859375.414062 1.742187.78125 2.621094 1.152344.703124.300781 1.398437.613281 2.117187.882812.921875.347656 1.875.644531 2.820313.945312.703124.226563 1.398437.476563 2.117187.675782 1.007813.28125 2.039063.496094 3.0625.722656.683594.152344 1.355469.335938 2.046875.460938 1.152344.210937 2.328125.347656 3.503906.492187.589844.070313 1.164063.179687 1.761719.234375 1.773437.164062 3.574219.253906 5.390625.253906s3.613281-.089844 5.394531-.253906c.589844-.054688 1.171875-.164062 1.757813-.234375 1.175781-.144531 2.351562-.28125 3.503906-.492187.691406-.128907 1.363281-.3125 2.046875-.460938 1.03125-.226562 2.0625-.441406 3.066406-.722656.714844-.199219 1.410157-.453125 2.113281-.675782.949219-.304687 1.898438-.597656 2.820313-.945312.71875-.269531 1.414063-.582031 2.117187-.882812.878907-.371094 1.765626-.742188 2.625-1.152344.699219-.335938 1.378907-.714844 2.0625-1.082032.828126-.4375 1.652344-.875 2.457032-1.351562.675781-.402344 1.328125-.835938 1.988281-1.261719.773437-.5 1.539063-1.003906 2.289063-1.539062.640624-.464844 1.265624-.957031 1.890624-1.445313.714844-.558594 1.429688-1.125 2.117188-1.714844.605469-.527343 1.195312-1.070312 1.78125-1.617187.65625-.613281 1.304688-1.230469 1.9375-1.875.566406-.582031 1.117188-1.175781 1.65625-1.78125.59375-.664063 1.183594-1.335937 1.75-2.027344.523438-.632812 1.023438-1.277343 1.515625-1.929687.535156-.710938 1.054687-1.433594 1.558594-2.171875.464843-.679688.914062-1.363281 1.351562-2.0625.472657-.757813.925781-1.527344 1.363281-2.308594.410157-.71875.800782-1.449219 1.175782-2.1875.40625-.800781.785156-1.613281 1.152344-2.433594.34375-.761719.683593-1.53125.996093-2.3125.332031-.835937.636719-1.683593.933594-2.539062.277344-.804688.554687-1.601563.796875-2.417969.261719-.875.484375-1.761719.707031-2.652344.207031-.832031.414063-1.664062.585938-2.511718.050781-.230469.117187-.449219.160156-.675782 2.277344.253906 4.558594.488282 6.832031.835938.246094.035156.488282.070312.734375.109375 2.3125.363281 4.621094.839843 6.925781 1.296875-1.445312 8.929687-4.496093 17.402344-9.105468 25.246094-1.117188 1.902343-.484375 4.355468 1.417968 5.472656 1.914063 1.125 4.355469.484375 5.476563-1.417969 5.042969-8.582031 8.304687-17.878906 9.929687-27.640625 30.921876 7.5625 58.945313 23.355469 81.582032 45.984375-14.664063 7.332031-27.085938 18.1875-36.28125 31.714844h-250.351563c-9.25-13.539063-21.691406-24.394531-36.335937-31.71875 22.613281-22.597657 50.640625-38.382813 81.59375-45.964844zm-87.386719 52.082031c12.695313 5.914063 23.703125 14.640625 32.261719 25.609375h-51.730469c5.585937-9.042969 12.136719-17.609375 19.46875-25.609375zm302.34375 25.609375c8.515625-10.960937 19.503906-19.691406 32.21875-25.613281 7.328125 7.992188 13.878906 16.558594 19.476563 25.613281zm0 0"/><path d="m239.886719 412.765625c.753906 0 1.503906-.210937 2.179687-.648437 6.882813-4.480469 13.023438-9.960938 18.269532-16.292969 1.410156-1.699219 1.175781-4.222657-.527344-5.632813-1.699219-1.410156-4.226563-1.167968-5.628906.527344-4.734376 5.714844-10.277344 10.65625-16.480469 14.691406-1.851563 1.207032-2.375 3.6875-1.167969 5.539063.769531 1.175781 2.046875 1.816406 3.355469 1.816406zm0 0"/><path d="m136.320312 179.066406c-7.703124 0-13.953124 6.25-13.953124 13.953125s6.25 13.953125 13.953124 13.953125c7.703126 0 13.953126-6.25 13.953126-13.953125s-6.25-13.953125-13.953126-13.953125zm0 0"/><path d="m259.433594 179.066406c-7.707032 0-13.953125 6.25-13.953125 13.953125s6.246093 13.953125 13.953125 13.953125c7.703125 0 13.949218-6.25 13.949218-13.953125s-6.246093-13.953125-13.949218-13.953125zm0 0"/><path d="m182.007812 225.953125c-2.210937 0-4 1.789063-4 4v9.300781c0 10.953125 8.914063 19.867188 19.867188 19.867188s19.867188-8.914063 19.867188-19.867188v-9.300781c0-2.210937-1.785157-4-4-4-2.210938 0-4 1.789063-4 4v9.300781c0 6.542969-5.324219 11.867188-11.867188 11.867188s-11.867188-5.324219-11.867188-11.867188v-9.300781c0-2.210937-1.789062-4-4-4zm0 0"/><path d="m277.882812 160.734375-27.324218-4.757813c-2.210938-.359374-4.25 1.078126-4.625 3.253907-.378906 2.175781 1.078125 4.25 3.25 4.628906l27.324218 4.761719c.234376.039062.464844.058594.691407.058594 1.914062 0 3.597656-1.367188 3.9375-3.316407.378906-2.175781-1.078125-4.246093-3.253907-4.628906zm0 0"/><path d="m149.816406 159.226562c-.378906-2.171874-2.417968-3.613281-4.628906-3.25l-27.320312 4.757813c-2.175782.382813-3.632813 2.453125-3.25 4.628906.339843 1.945313 2.027343 3.3125 3.933593 3.3125.230469 0 .457031-.019531.691407-.058593l27.320312-4.761719c2.175781-.378907 3.632812-2.449219 3.253906-4.628907zm0 0"/><path d="m197.875 280.0625c17.75 0 27.335938 12.191406 27.730469 12.699219.78125 1.035156 1.976562 1.582031 3.191406 1.582031.839844 0 1.6875-.265625 2.410156-.8125 1.761719-1.332031 2.109375-3.839844.773438-5.601562-.488281-.648438-12.269531-15.867188-34.101563-15.867188-22.398437 0-33.691406 15.289062-34.160156 15.941406-1.285156 1.789063-.886719 4.269532.894531 5.566406 1.78125 1.300782 4.277344.90625 5.582031-.867187.375-.519531 9.5-12.640625 27.679688-12.640625zm0 0"/><path d="m149.324219 136.9375c2.855469 2.160156 11.609375 7.757812 25.558593 7.757812 6.535157 0 14.234376-1.269531 22.976563-4.664062 8.75 3.394531 16.441406 4.664062 22.976563 4.664062 13.945312 0 22.703124-5.597656 25.558593-7.757812 19.527344-3.136719 31.527344-9.191406 35.671875-17.996094 1.785156-3.792968 1.777344-7.5 1.15625-10.371094 7.746094-3.859374 11.546875-8.375 11.59375-13.746093.078125-7.878907-8.503906-13.769531-13.761718-16.636719 1.824218-5.496094 1.535156-10.394531-.863282-14.609375-3.988281-7-12.824218-9.710937-17.679687-10.699219.550781-2.539062.347656-4.90625-.617188-7.09375-3.636719-8.253906-16.652343-9.925781-23.285156-10.234375-1.65625-5.792969-5.148437-8.847656-8.019531-10.425781-11.125-6.144531-28.320313.519531-32.726563 2.410156-4.402343-1.894531-21.609375-8.554687-32.730469-2.410156-2.867187 1.578125-6.359374 4.632812-8.015624 10.425781-6.636719.308594-19.652344 1.980469-23.289063 10.234375-.964844 2.1875-1.167969 4.554688-.617187 7.09375-4.855469.988282-13.691407 3.699219-17.679688 10.699219-2.398438 4.214844-2.6875 9.113281-.863281 14.609375-5.257813 2.863281-13.839844 8.753906-13.761719 16.636719.054688 5.371093 3.851562 9.886719 11.59375 13.746093-.621094 2.875-.628906 6.582032 1.15625 10.371094 4.144531 8.804688 16.144531 14.859375 35.667969 17.996094zm5.671875-5.773438v-13.777343c.621094-1.132813 2.332031-3.667969 5.507812-4.527344 4.414063-1.191406 10.546875 1.140625 17.6875 6.765625 1.746094 1.371094 4.253906 1.066406 5.617188-.667969 1.363281-1.738281 1.070312-4.253906-.664063-5.617187-9.34375-7.355469-17.664062-10.117188-24.734375-8.203125-8.023437 2.171875-11.015625 9.566406-11.136718 9.878906-.1875.46875-.277344.964844-.277344 1.464844v11.914062c-18.859375-3.589843-24.433594-9.429687-26.050782-12.746093-1.050781-2.148438-.921874-4.109376-.613281-5.4375 10.945313-1.054688 27.105469-3.726563 30.125-10.382813 1.03125-2.277344.6875-4.839844-.945312-7.039063-.546875-.738281-.898438-1.425781-1.050781-2.054687-.246094-.996094 1.230468-1.980469 1.875-2.359375 3.6875-2.160156 10.332031-2.472656 13.355468.355469.710938.664062 1.164063 1.40625 1.382813 2.265625 3.113281 12.132812 23.105469 10.414062 25.382812 10.175781 1.070313-.113281 1.988281-.644531 2.628907-1.40625v33.539063c-21.113282 7.523437-34.105469.585937-38.089844-2.140626zm119.832031-15.628906c-1.578125 3.347656-7.097656 9.25-26.105469 12.867188v-11.917969c0-.5-.089844-1-.273437-1.464844-.125-.3125-3.117188-7.707031-11.140625-9.878906-7.054688-1.914063-15.390625.84375-24.734375 8.203125-1.734375 1.367188-2.03125 3.882812-.664063 5.617188 1.367188 1.734374 3.878906 2.039062 5.617188.667968 7.097656-5.59375 13.195312-7.929687 17.605468-6.789062 3.234376.839844 4.957032 3.402344 5.585938 4.550781v13.773437c-4.007812 2.738282-16.988281 9.65625-38.085938 2.148438v-33.539062c.644532.761718 1.558594 1.292968 2.632813 1.40625 2.277344.246093 22.265625 1.949218 25.378906-10.179688.21875-.855469.671875-1.59375 1.382813-2.257812 3.027344-2.832032 9.664062-2.519532 13.355468-.359376.644532.378907 2.117188 1.363282 1.875 2.363282-.148437.625-.503906 1.3125-1.054687 2.050781-1.628906 2.199219-1.972656 4.761719-.9375 7.039063 3.019531 6.65625 19.1875 9.328124 30.128906 10.382812.300781 1.296875.429688 3.207031-.566406 5.316406zm-20.253906-66.519531c.980469 2.226563-1.109375 6.324219-5.742188 11.242187-1.480469 1.574219-1.441406 4.042969.082031 5.570313 1.535157 1.53125 4 1.5625 5.574219.082031l5.675781-5.34375c3.800782.675782 10.632813 2.691406 13.074219 6.976563 1.554688 2.722656 1.253907 6.378906-.886719 10.863281-.464843.976562-.515624 2.097656-.140624 3.113281s1.148437 1.832031 2.136718 2.269531c5.050782 2.234376 12.507813 7.261719 12.46875 10.964844-.027344 2.269532-3.480468 5.085938-9.257812 7.617188-10.914063-.980469-21.578125-3.359375-24.492188-5.425782.949219-1.410156 1.609375-2.855468 1.964844-4.3125 1.050781-4.316406-1.042969-8.488281-5.609375-11.160156-2.636719-1.546875-6.027344-2.488281-9.511719-2.699218-1.316406-3.5625-4.554687-9.15625-12.554687-14.242188-2.460938-1.5625-3.878907-3.085938-3.898438-4.179688-.023437-1.339843 1.597657-4.066406 9.476563-9.449218 3.027344-2.066406 6.003906-4.457032 7.253906-7.1875 6.152344.566406 13.039062 2.234375 14.386719 5.300781zm-27.839844-16.882813c2.605469 1.4375 4.125 4.023438 4.644531 7.890626.003906.027343.023438.050781.027344.082031.042969.257812.15625.492187.25.734375.078125.214844.128906.445312.242188.644531.015624.023437.015624.054687.035156.082031-.667969.632813-1.757813 1.539063-3.515625 2.734375-7.851563 5.363281-13.0625 10.171875-12.957031 16.183594.066406 4.054687 2.554687 7.585937 7.605468 10.796875 4.921875 3.125 7.335938 6.304688 8.558594 8.574219-1.867188.683593-3.59375 1.667969-5.050781 3.027343-1.839844 1.714844-3.074219 3.777344-3.675781 6.125-1.039063 4.070313-11.453126 4.738282-16.808594 4.207032-1.398438-.125-2.632813.503906-3.449219 1.503906v-60.488281c6.128906-2.363281 17.746094-5.605469 24.09375-2.097657zm-57.75 0c6.351563-3.515624 17.972656-.269531 24.097656 2.09375v60.480469c-.816406-1.007812-2.054687-1.644531-3.457031-1.492187-5.335938.558594-15.753906-.109375-16.800781-4.203125-.597657-2.347657-1.832031-4.40625-3.671875-6.128907-1.457032-1.359374-3.183594-2.34375-5.046875-3.027343 1.222656-2.285157 3.632812-5.453125 8.550781-8.574219 5.054688-3.210938 7.542969-6.746094 7.609375-10.796875.097656-6.011719-5.109375-10.820313-12.960937-16.183594-1.753907-1.195312-2.84375-2.101562-3.511719-2.734375.011719-.015625.011719-.039062.019531-.054687.144531-.246094.214844-.53125.304688-.8125.0625-.199219.160156-.382813.191406-.59375.003906-.03125.023437-.054688.027344-.085938.523437-3.863281 2.042968-6.445312 4.648437-7.886719zm-60.082031 62.621094c-.039063-3.703125 7.417968-8.730468 12.46875-10.964844.988281-.4375 1.761718-1.257812 2.136718-2.269531s.324219-2.136719-.140624-3.113281c-2.132813-4.480469-2.433594-8.132812-.894532-10.851562 2.4375-4.308594 9.199219-6.3125 13.082032-6.992188l5.675781 5.34375c1.574219 1.484375 4.042969 1.449219 5.574219-.082031 1.527343-1.527344 1.566406-3.996094.082031-5.570313-4.628907-4.917968-6.722657-9.015625-5.742188-11.242187 1.347657-3.066407 8.234375-4.734375 14.386719-5.296875 1.253906 2.730468 4.226562 5.121094 7.257812 7.1875 7.875 5.382812 9.5 8.105468 9.476563 9.449218-.023437 1.09375-1.4375 2.617188-3.902344 4.179688-8 5.085938-11.238281 10.679688-12.554687 14.242188-3.484375.210937-6.871094 1.15625-9.515625 2.699218-4.566407 2.671875-6.65625 6.84375-5.605469 11.15625.347656 1.4375.996094 2.871094 1.964844 4.3125-2.914063 2.066406-13.582032 4.445313-24.492188 5.425782-5.777344-2.527344-9.234375-5.347657-9.257812-7.613282zm0 0"/></g></svg>