<svg height="438pt" viewBox="0 -25 438.25942 438" width="438pt" xmlns="http://www.w3.org/2000/svg"><path d="m436.214844 297.550781-.289063-.824219c-5.777343-18.09375-20.199219-31.925781-38.574219-36.996093-7.863281-2.191407-16.039062-4.191407-23.628906-5.933594-.140625-1.960937-.660156-3.914063-1.671875-5.746094l-46.203125-83.601562 1.660156-.910157c.363282-.203124.683594-.445312 1.003907-.691406 3.554687 6.21875 10.179687 10.082032 17.355469 10.082032h50.445312c3.28125 0 6.347656-1.300782 8.628906-3.660157s3.476563-5.46875 3.367188-8.746093l-2.003906-59.484376c-.21875-6.5-5.488282-11.597656-11.996094-11.597656h-86.378906c-4.304688 0-8.171876 2.214844-10.347657 5.925782-2.175781 3.710937-2.222656 8.171874-.125 11.925781l3.257813 5.824219c-.300782.121093-.605469.21875-.898438.375l-1.628906.898437-27.324219-49.4375c-2.464843-4.460937-7.160156-7.226563-12.253906-7.226563h-40.675781c-2.621094-1.707031-5.726563-2.726562-9.070313-2.726562-9.195312 0-16.726562 7.527344-16.726562 16.726562 0 9.195313 7.527343 16.722657 16.726562 16.722657 3.34375 0 6.449219-1.015625 9.070313-2.722657h32.417968l23.28125 42.125-4.566406 2.503907c-3.875 2.121093-5.292968 6.984375-3.167968 10.859375 1.457031 2.65625 4.195312 4.15625 7.023437 4.15625 1.300781 0 2.617187-.320313 3.835937-.988282l4.621094-2.53125 12.179688 22.039063-4.492188 2.464844c-3.875 2.121093-5.292968 6.984375-3.167968 10.859375 1.457031 2.65625 4.195312 4.15625 7.023437 4.15625 1.300781 0 2.617187-.320313 3.835937-.988282l4.539063-2.488281 38.570313 69.777344c-1.5 0-2.984376.050781-4.433594.207031-48.488282 5.1875-43.90625 59.121094-43.871094 59.550782 0 .703124-.359375 1.171874-.582031 1.390624-.214844.21875-.683594.585938-1.386719.585938h-64.660156c-.621094 0-1.019532-.300781-1.25-.550781-.203125-.226563-.527344-.703125-.460938-1.425781 2.230469-23.007813-5.136718-40.835938-21.296875-51.558594-12.019531-7.96875-34.949219-12.933594-58.355469-16.957032v-56.503906h27.722657c7.789062 0 14.125-6.335937 14.125-14.125 0-4.558594-2.210938-8.582031-5.574219-11.167968 7.695312-3.507813 13.0625-11.253907 13.0625-20.246094 0-6.292969-2.675781-12.316406-7.347656-16.53125-4.667969-4.210938-10.929688-6.257813-17.191406-5.613282l-66.667969 6.867188v-14.140625c0-3.691406 2.996093-6.6875 6.6875-6.6875h62.347656c3.691406 0 6.6875-2.996094 6.6875-6.6875s-2.996094-6.6875-6.6875-6.6875h-69.039063v-.148437l-4.519531.035156c-7.429687.058594-13.671875 5.378906-15.074219 12.589844l-23.878906-73.265626c-2.039062-6.265624-7.835937-10.472656-14.425781-10.472656-4.914063 0-9.386719 2.28125-12.273437 6.257813-2.890626 3.980469-3.671876 8.9375-2.148438 13.613281l34.125 104.695312c2.609375 8.023438 8.746094 14.082032 16.351562 16.8125-3.089843 2.59375-5.097656 6.433594-5.097656 10.769532 0 7.789062 6.335938 14.125 14.125 14.125h27.722656v52.128906c-2.84375-.460938-5.632812-.921875-8.332031-1.378906-26.113281-4.429688-52.730469 5.230468-71.171875 25.835937-9.226562 10.324219-14.730468 17.578125-16.820312 22.167969-10.355469 22.730469-1.175782 51.160156 19.644531 60.835938 2.710937 1.265624 5.796875 1.167968 8.449219-.25 2.738281-1.46875 4.65625-4.195313 5.128906-7.300782 3.519531-23.003906 23.75-40.351562 47.058594-40.351562 24.429687 0 44.8125 18.273437 47.40625 42.507812.535156 4.957032 4.679687 8.691406 9.652344 8.691406h155.925781c4.972656 0 9.121093-3.738281 9.648437-8.695312 2.59375-24.230469 22.964844-42.503906 47.367188-42.503906 20.789062 0 39.019531 13.269531 45.367187 33.019531 1.183594 3.671875 4.304688 6.203125 8.148438 6.605469 3.859375.40625 7.453125-1.441406 9.4375-4.917969 5.183593-9.027344 6.183593-20.386719 2.703125-31.246094zm-128.703125-170.011719c.328125-.179687.613281-.410156.90625-.625l12.390625 22.171876c-.332032.128906-.667969.242187-.992188.417968l-1.707031.9375-12.179687-22.039062zm0 0" fill="#e6e7e8"/><path d="m100.277344 301.394531c-23.867188 0-43.285156 19.417969-43.285156 43.289063s19.417968 43.289062 43.285156 43.289062c23.871094 0 43.292968-19.417968 43.292968-43.289062s-19.421874-43.289063-43.292968-43.289063zm0 0" fill="#e6e7e8"/><path d="m371.570312 301.394531c-23.871093 0-43.292968 19.417969-43.292968 43.289063s19.421875 43.289062 43.292968 43.289062c23.867188 0 43.289063-19.417968 43.289063-43.289062.003906-23.871094-19.417969-43.289063-43.289063-43.289063zm0 0" fill="#e6e7e8"/><path d="m192.863281 65.738281h43.847657l94.257812 170.546875c.664062.105469 1.328125.199219 1.988281.328125 4.796875.945313 12.164063 2.441407 20.574219 4.328125.5-2.285156.238281-4.746094-.980469-6.957031l-101.1875-183.082031c-1.761719-3.183594-5.113281-5.164063-8.753906-5.164063h-49.746094c-5.523437 0-10 4.476563-10 10 0 5.523438 4.480469 10 10 10zm0 0" fill="#6dc9f7"/><path d="m386.308594 85.183594c-.140625-4.3125-3.683594-7.734375-7.996094-7.734375h-86.382812c-6.105469 0-9.964844 6.574219-6.984376 11.90625l30.957032 55.386719c2.828125 5.058593 8.171875 8.195312 13.96875 8.195312h50.453125c4.523437 0 8.144531-3.746094 7.992187-8.269531zm0 0" fill="#6dc9f7"/><path d="m123.570312 226.3125v-63.902344h-18.976562v60.828125c6.179688.988281 12.578125 2 18.976562 3.074219zm0 0" fill="#d4fbff"/><path d="m414.039062 310.824219-.066406.113281c-2.421875 4.246094-8.738281 3.617188-10.234375-1.035156-6.683593-20.792969-26.160156-35.796875-49.175781-35.796875-26.628906 0-48.566406 20.171875-51.34375 46.082031-.3125 2.90625-2.75 5.117188-5.671875 5.117188h-155.933594c-2.921875 0-5.359375-2.210938-5.671875-5.117188-2.773437-25.910156-24.71875-46.082031-51.382812-46.082031-25.8125 0-47.222656 18.957031-51.011719 43.746093-.578125 3.769532-4.480469 6.132813-7.941406 4.527344-18.398438-8.558594-27.386719-34.265625-17.6875-55.554687 2.199219-4.839844 8.761719-12.878907 16.160156-21.160157 17.640625-19.71875 42.761719-28.757812 67.519531-24.558593 31.480469 5.359375 74.679688 10.558593 92.121094 22.121093 17.996094 11.9375 21.152344 31.0625 19.527344 47.839844-.328125 3.398438 2.277344 6.359375 5.691406 6.359375h64.65625c3.292969 0 5.976562-2.695312 5.964844-5.988281v-.25s-4.816406-50.480469 40.300781-55.308594c4.378906-.46875 8.777344-.109375 13.097656.738282 9.585938 1.882812 29.4375 5.984374 47.316407 10.96875 16.960937 4.679687 30.480468 17.558593 35.839843 34.359374l.320313.921876c2.964844 9.238281 2.445312 19.519531-2.394532 27.957031zm0 0" fill="#fff"/><path d="m414.039062 310.824219-.066406.113281c-2.421875 4.246094-8.738281 3.617188-10.234375-1.035156-6.683593-20.792969-26.160156-35.796875-49.175781-35.796875-26.628906 0-48.566406 20.171875-51.34375 46.082031-.3125 2.90625-2.75 5.117188-5.671875 5.117188h-155.933594c-2.921875 0-5.359375-2.210938-5.671875-5.117188-2.773437-25.910156-24.71875-46.082031-51.382812-46.082031-25.8125 0-47.222656 18.957031-51.011719 43.746093-.578125 3.769532-4.480469 6.132813-7.941406 4.527344-18.398438-8.558594-27.386719-34.265625-17.6875-55.554687 2.199219-4.839844 8.761719-12.878907 16.160156-21.160157 17.640625-19.71875 42.761719-28.757812 67.519531-24.558593 31.480469 5.359375 74.679688 10.558593 92.121094 22.121093 17.996094 11.9375 21.152344 31.0625 19.527344 47.839844-.328125 3.398438 2.277344 6.359375 5.691406 6.359375h64.65625c3.292969 0 5.976562-2.695312 5.964844-5.988281v-.25s-4.816406-50.480469 40.300781-55.308594c4.378906-.46875 8.777344-.109375 13.097656.738282 9.585938 1.882812 29.4375 5.984374 47.316407 10.96875 16.960937 4.679687 30.480468 17.558593 35.839843 34.359374l.320313.921876c2.964844 9.238281 2.445312 19.519531-2.394532 27.957031zm0 0" fill="#fff"/><path d="m183.71875 255.226562c-17.441406-11.5625-60.640625-16.761718-92.121094-22.121093-24.757812-4.199219-49.878906 4.839843-67.519531 24.558593-7.398437 8.28125-13.960937 16.320313-16.160156 21.160157-1.824219 4.003906-2.988281 8.164062-3.550781 12.335937 1.796874 13.617188 9.644531 25.824219 21.234374 31.21875 3.460938 1.605469 7.363282-.757812 7.941407-4.527344 3.789062-24.789062 25.199219-43.746093 51.011719-43.746093 26.667968 0 48.609374 20.171875 51.382812 46.082031.3125 2.90625 2.75 5.117188 5.671875 5.117188h155.925781c2.925782 0 5.359375-2.210938 5.671875-5.117188 2.773438-25.910156 24.714844-46.082031 51.34375-46.082031 22.953125 0 42.382813 14.921875 49.121094 35.621093 1.503906 4.613282 7.878906 5.421876 10.289063 1.210938.019531-.035156.046874-.074219.066406-.113281 1.859375-3.238281 3.066406-6.75 3.699218-10.375-.308593-1.882813-.714843-3.757813-1.300781-5.582031l-.320312-.921876c-5.359375-16.800781-18.878907-29.679687-35.839844-34.359374-22.582031-6.296876-48.3125-11.183594-52.523437-11.96875-.394532-.070313-.808594-.113282-1.210938-.109376-52.265625.355469-46.988281 55.683594-46.988281 55.683594v.25c.023437 3.269532-2.453125 5.988282-5.71875 5.988282h-64.890625c-3.414063 0-6.019532-2.960938-5.691406-6.359376.296874-3.078124.433593-6.230468.34375-9.40625-.296876-.800781-.4375-1.679687-.34375-2.59375.042968-.464843.070312-.9375.109374-1.402343-1.140624-12.84375-6.316406-25.609375-19.632812-34.441407zm0 0" fill="#fa759e"/><path d="m123.574219 328.683594c0 21.699218-17.589844 39.289062-39.292969 39.289062-21.699219 0-39.289062-17.589844-39.289062-39.289062 0-21.703125 17.589843-39.292969 39.289062-39.292969 21.703125 0 39.292969 17.589844 39.292969 39.292969zm0 0" fill="#0089ef"/><path d="m104.59375 328.683594c0 11.21875-9.09375 20.3125-20.316406 20.3125-11.21875 0-20.316406-9.09375-20.316406-20.3125 0-11.222656 9.097656-20.316406 20.316406-20.316406 11.222656 0 20.316406 9.09375 20.316406 20.316406zm0 0" fill="#d4fbff"/><path d="m394.863281 328.683594c0 21.699218-17.59375 39.289062-39.292969 39.289062-21.699218 0-39.292968-17.589844-39.292968-39.289062 0-21.703125 17.59375-39.292969 39.292968-39.292969 21.699219 0 39.292969 17.589844 39.292969 39.292969zm0 0" fill="#0089ef"/><path d="m375.886719 328.683594c0 11.21875-9.097657 20.3125-20.316407 20.3125s-20.316406-9.09375-20.316406-20.3125c0-11.222656 9.097656-20.316406 20.316406-20.316406s20.316407 9.09375 20.316407 20.316406zm0 0" fill="#d4fbff"/><path d="m155.292969 142.164062h-82.417969c-5.570312 0-10.125 4.558594-10.125 10.125 0 5.570313 4.554688 10.125 10.125 10.125h82.417969c5.570312 0 10.125-4.554687 10.125-10.125 0-5.566406-4.554688-10.125-10.125-10.125zm0 0" fill="#6dc9f7"/><path d="m70.785156 111.152344-32.367187-99.304688c-1.5-4.601562-5.785157-7.710937-10.621094-7.710937-7.589844 0-12.972656 7.414062-10.617187 14.632812l34.121093 104.695313c3.050781 9.34375 11.761719 15.671875 21.589844 15.671875h81.753906c10.085938 0 18.261719-8.175781 18.261719-18.257813 0-10.824218-9.363281-19.277344-20.132812-18.164062zm0 0" fill="#0089ef"/><g fill="#3a2c60"><path d="m212.601562 321.304688h-25.925781c-2.210937 0-4 1.792968-4 4 0 2.210937 1.789063 4 4 4h25.925781c2.207032 0 4-1.789063 4-4 0-2.207032-1.792968-4-4-4zm0 0"/><path d="m420.214844 281.554688-.289063-.824219c-5.769531-18.09375-20.199219-31.925781-38.574219-36.996094-7.875-2.195313-16.070312-4.199219-23.675781-5.945313-.125-1.957031-.613281-3.90625-1.625-5.734374l-46.203125-83.605469 1.660156-.910157c.363282-.203124.683594-.445312 1.003907-.691406 3.554687 6.21875 10.183593 10.082032 17.355469 10.082032h50.445312c3.285156 0 6.347656-1.300782 8.628906-3.660157 2.285156-2.359375 3.476563-5.464843 3.367188-8.746093l-2.003906-59.484376c-.21875-6.5-5.488282-11.597656-11.996094-11.597656h-86.378906c-4.304688 0-8.171876 2.214844-10.347657 5.929688-2.175781 3.710937-2.222656 8.167968-.125 11.921875l3.257813 5.828125c-.300782.121094-.605469.21875-.898438.375l-1.628906.898437-27.324219-49.4375c-2.464843-4.460937-7.160156-7.226562-12.253906-7.226562h-40.671875c-2.621094-1.707031-5.726562-2.726563-9.070312-2.726563-9.195313 0-16.726563 7.527344-16.726563 16.726563 0 9.195312 7.527344 16.722656 16.726563 16.722656 3.34375 0 6.449218-1.015625 9.070312-2.722656h32.417969l23.28125 42.125-4.566407 2.503906c-3.875 2.121094-5.292968 6.988281-3.167968 10.859375 1.457031 2.65625 4.195312 4.15625 7.023437 4.15625 1.300781 0 2.617188-.320312 3.835938-.988281l4.621093-2.53125 12.179688 22.039062-4.492188 2.460938c-3.875 2.121093-5.292968 6.984375-3.167968 10.859375 1.457031 2.65625 4.195312 4.15625 7.023437 4.15625 1.300781 0 2.617188-.320313 3.835938-.988282l4.539062-2.488281 38.570313 69.78125c-1.5 0-2.984375.050781-4.433594.207031-48.496094 5.207032-43.910156 59.140626-43.878906 59.570313 0 .703125-.359375 1.171875-.582032 1.394531-.214843.214844-.683593.582032-1.386718.582032h-64.65625c-.621094 0-1.019532-.300782-1.25-.550782-.203125-.226562-.527344-.703125-.460938-1.425781 2.230469-23.007813-5.136718-40.835937-21.300781-51.558594-12.015625-7.964843-34.949219-12.933593-58.355469-16.953125v-56.53125h27.722656c7.789063 0 14.125-6.335937 14.125-14.125 0-4.558594-2.207031-8.578125-5.574218-11.164062 7.691406-3.507813 13.0625-11.253906 13.0625-20.246094 0-6.289062-2.675782-12.3125-7.347656-16.527344-4.667969-4.214844-10.925782-6.257812-17.195313-5.617187l-66.667969 6.867187v-14.144531c0-3.691406 2.996094-6.6875 6.6875-6.6875h62.347656c3.691407 0 6.6875-2.996094 6.6875-6.6875s-2.996093-6.6875-6.6875-6.6875h-69.03125v-.148437l-4.519531.035156c-7.429687.058594-13.671875 5.378906-15.074219 12.589844l-23.878906-73.265626c-2.039062-6.265624-7.835937-10.472656-14.425781-10.472656-4.914063 0-9.390625 2.28125-12.273437 6.261719-2.890626 3.980469-3.667969 8.9375-2.148438 13.613281l34.125 104.695313c2.609375 8.023437 8.746094 14.082031 16.351562 16.816406-3.089843 2.589844-5.097656 6.429687-5.097656 10.765625 0 7.789062 6.335938 14.125 14.125 14.125h27.722656v52.132812c-2.84375-.460937-5.632812-.921874-8.332031-1.378906-26.113281-4.429687-52.734375 5.230469-71.171875 25.835938-9.230468 10.328125-14.730468 17.582031-16.820312 22.167968-10.355469 22.730469-1.179688 51.15625 19.640625 60.835938 2.714843 1.261719 5.796875 1.171875 8.453125-.246094 2.738281-1.46875 4.65625-4.195312 5.128906-7.300781 3.519531-23.003906 23.75-40.347656 47.058594-40.347656 24.429687 0 44.8125 18.273437 47.40625 42.507812.535156 4.957031 4.679687 8.691407 9.652344 8.691407h23.804687c2.207031 0 4-1.789063 4-4 0-2.207032-1.792969-4-4-4h-23.804687c-.871094 0-1.597657-.664063-1.695313-1.542969-3.03125-28.308594-26.832031-49.65625-55.359375-49.65625-27.226562 0-50.855469 20.265625-54.96875 47.140625-.09375.628906-.472656 1.171875-1 1.457031-.425781.234375-.859375.25-1.300781.046875-16.984375-7.898438-24.335938-31.386719-15.730469-50.269531 1.183594-2.605469 4.835938-8.21875 15.5-20.152344 16.597656-18.546875 40.484375-27.25 63.867188-23.28125 5.128906.871094 10.566406 1.742187 16.148437 2.628906 28.378906 4.539063 60.546875 9.679688 74.433594 18.878907 13.734375 9.109374 19.710937 23.953124 17.753906 44.117187-.265625 2.769531.640625 5.53125 2.496094 7.574219 1.832031 2.015625 4.445312 3.171875 7.171875 3.171875h64.660156c2.664062 0 5.167969-1.042969 7.054688-2.9375 1.890624-1.890625 2.921874-4.402344 2.914062-7.082031 0-.117188-.007812-.484376-.019531-.601563-.179688-1.898437-3.972657-46.589844 36.742187-50.949219 3.65625-.390625 7.554688-.171875 11.90625.6875 10.019532 1.964844 29.449219 6 47.023438 10.898438 15.773437 4.351562 28.144531 16.210937 33.128906 31.820312l.285156.828125c2.761719 8.628907 2.007813 17.648438-2.125 24.867188-.464844.8125-1.207031.859375-1.601562.820312-.386719-.039062-1.085938-.234375-1.355469-1.097656-7.417969-23.070313-28.710937-38.570313-52.988281-38.570313-28.503906 0-52.289063 21.34375-55.324219 49.65625-.097656.878907-.824219 1.542969-1.695313 1.542969h-64.121093c-2.207031 0-4 1.792969-4 4s1.792969 4 4 4h64.121093c4.972657 0 9.121094-3.738281 9.648438-8.691406 2.59375-24.230469 22.960938-42.503906 47.367188-42.503906 20.789062 0 39.019531 13.269531 45.367187 33.019531 1.179687 3.671875 4.304687 6.203125 8.144531 6.605469 3.839844.394531 7.449219-1.441407 9.4375-4.917969 5.191406-9.042969 6.191406-20.40625 2.710938-31.257812zm-267.03125-174.867188c4.070312-.421875 7.984375.859375 11.011718 3.59375 3.035157 2.742188 4.707032 6.5 4.707032 10.589844 0 7.863281-6.398438 14.257812-14.261719 14.257812h-68.945313v-21.496094zm-98.082032 15.535156-34.125-104.695312c-.71875-2.210938-.347656-4.558594 1.019532-6.4375 1.363281-1.878906 3.476562-2.960938 5.800781-2.960938 3.113281 0 5.851563 1.988282 6.820313 4.953125l32.242187 98.914063.785156 22.355468c-5.832031-1.703124-10.589843-6.128906-12.542969-12.128906zm11.648438 30.0625c0-3.375 2.75-6.121094 6.125-6.121094h82.417969c3.378906 0 6.125 2.75 6.125 6.121094 0 3.375-2.746094 6.125-6.125 6.125h-82.421875c-3.371094 0-6.121094-2.75-6.121094-6.125zm52.820312 14.125v55.183594c-.019531-.003906-.039062-.007812-.058593-.007812-3.496094-.570313-6.976563-1.128907-10.40625-1.675782-.167969-.027344-.34375-.054687-.511719-.085937v-53.414063zm168.910157-82.984375c.351562-.59375 1.382812-1.976562 3.449219-1.976562h86.382812c2.167969 0 3.925781 1.695312 4 3.863281l2.003906 59.484375c.039063 1.09375-.359375 2.128906-1.117187 2.917969-.761719.78125-1.785157 1.21875-2.875 1.21875h-50.453125c-4.339844 0-8.355469-2.355469-10.476563-6.144532l-30.957031-55.386718c-1.007812-1.804688-.308594-3.378906.042969-3.976563zm3.03125 28.113281c.328125-.179687.613281-.410156.90625-.625l12.390625 22.171876c-.332032.128906-.667969.242187-.992188.417968l-1.710937.9375-12.179688-22.039062zm-51.300781-47.734374c-.703126-1.269532-2.042969-2.0625-3.5-2.0625h-28.289063c.726563-1.867188 1.164063-3.878907 1.164063-6 0-2.121094-.441407-4.132813-1.164063-6h34.1875c2.183594 0 4.195313 1.183593 5.253906 3.09375l27.308594 49.414062-10.527344 5.769531zm32.179687 58.21875 10.523437-5.769532 12.179688 22.039063-10.523438 5.769531zm19.917969 36.042968 10.527344-5.769531 46.179687 83.558594c-6.070313-1.316407-11.390625-2.398438-15.285156-3.160157-.0625-.011718-.128907-.023437-.191407-.035156zm0 0"/><path d="m84.277344 285.390625c-23.867188 0-43.285156 19.417969-43.285156 43.292969 0 23.871094 19.417968 43.289062 43.285156 43.289062 23.871094 0 43.292968-19.417968 43.292968-43.289062 0-23.875-19.421874-43.292969-43.292968-43.292969zm0 78.582031c-19.460938 0-35.285156-15.832031-35.285156-35.289062 0-19.460938 15.832031-35.292969 35.285156-35.292969 19.457031 0 35.292968 15.832031 35.292968 35.292969 0 19.457031-15.832031 35.289062-35.292968 35.289062zm0 0"/><path d="m84.277344 304.367188c-13.40625 0-24.316406 10.90625-24.316406 24.316406 0 13.40625 10.910156 24.3125 24.316406 24.3125 13.410156 0 24.316406-10.90625 24.316406-24.3125 0-13.410156-10.902344-24.316406-24.316406-24.316406zm0 40.628906c-8.996094 0-16.316406-7.320313-16.316406-16.3125 0-8.996094 7.320312-16.316406 16.316406-16.316406s16.316406 7.320312 16.316406 16.316406c0 8.992187-7.316406 16.3125-16.316406 16.3125zm0 0"/><path d="m355.570312 285.390625c-23.871093 0-43.292968 19.417969-43.292968 43.292969 0 23.871094 19.421875 43.289062 43.292968 43.289062 23.867188 0 43.289063-19.417968 43.289063-43.289062 0-23.875-19.417969-43.292969-43.289063-43.292969zm0 78.582031c-19.460937 0-35.292968-15.832031-35.292968-35.289062 0-19.460938 15.832031-35.292969 35.292968-35.292969 19.460938 0 35.289063 15.832031 35.289063 35.292969 0 19.457031-15.828125 35.289062-35.289063 35.289062zm0 0"/><path d="m355.570312 304.367188c-13.40625 0-24.316406 10.90625-24.316406 24.316406 0 13.40625 10.910156 24.3125 24.316406 24.3125s24.316407-10.90625 24.316407-24.3125c0-13.410156-10.910157-24.316406-24.316407-24.316406zm0 40.628906c-8.996093 0-16.316406-7.320313-16.316406-16.3125 0-8.996094 7.320313-16.316406 16.316406-16.316406 8.996094 0 16.316407 7.320312 16.316407 16.316406 0 8.992187-7.320313 16.3125-16.316407 16.3125zm0 0"/></g></svg>