<svg height="492pt" viewBox="0 -14 492.83746 492" width="492pt" xmlns="http://www.w3.org/2000/svg"><path d="m489.132812 338.902344c2.386719-6.691406 3.703126-13.746094 3.703126-20.898438 0-43.417968-45.578126-78.746094-101.59375-78.746094-2.210938 0-4 1.792969-4 4v31.039063c-.527344-.027344-1.050782-.078125-1.585938-.078125-16.625 0-30.160156 13.53125-30.160156 30.164062 0 3.367188.582031 6.589844 1.601562 9.621094h-49.449218c-1.285157-10.28125-5.078126-26.828125-16.3125-38.128906-6.714844-6.757812-15.121094-10.636719-25.023438-11.625.199219-2.921875-.183594-5.882812-1.292969-8.652344l-41.132812-102.523437c-6.089844-15.261719-19.96875-26.25-36.226563-28.675781l-20.390625-3.042969c-2.71875-.40625-4.769531-2.78125-4.769531-5.527344v-2.339844c0-1.957031 1.097656-3.75 2.941406-4.785156 15.546875-8.789063 25.160156-25.324219 25.085938-43.15625-.105469-26.042969-21.351563-48.058594-47.351563-49.078125-13.582031-.582031-26.402343 4.34375-36.160156 13.734375-9.757813 9.386719-15.132813 22.011719-15.132813 35.550781 0 17.78125 9.644532 34.253906 25.167969 42.992188 1.761719.996094 2.863281 2.8125 2.863281 4.75v2.335937c0 2.75-2.050781 5.125-4.855468 5.542969l-20.304688 3.027344c-16.253906 2.429687-30.132812 13.417968-36.222656 28.667968l-41.132812 102.53125c-2.011719 5.035157-1.84375 10.742188.449218 15.652344 2.300782 4.914063 6.582032 8.691406 11.738282 10.371094 9.855468 3.207031 20.570312-1.832031 24.382812-11.421875l35.15625-86.40625c1.121094-2.75 4.296875-4.09375 7.039062-3.019531 2.742188 1.074218 4.125 4.089844 3.15625 6.867187l-46.5625 133.574219c-1.367187 4.03125-.730468 8.332031 1.746094 11.792969 2.480469 3.460937 6.339844 5.445312 10.597656 5.445312h33.570313v106.863281c0 10.769532 8.765625 19.539063 19.542969 19.539063 10.773437 0 19.539062-8.765625 19.539062-19.539063v-106.863281h5.75v106.863281c0 10.769532 8.765625 19.539063 19.542969 19.539063h1.160156c10.769531 0 19.539063-8.765625 19.539063-19.539063v-106.863281h33.566406c4.257812 0 8.121094-1.988281 10.601562-5.445312 2.480469-3.464844 3.117188-7.761719 1.730469-11.84375l-47.460937-133.425781c-.980469-2.769532.445312-5.871094 3.199218-6.917969l.414063-.15625c2.792969-1.074219 5.851563.265625 6.980469 3.015625l35.660156 86.492187c3.824219 9.628907 14.550781 14.660157 24.394531 11.449219 4.847657-1.574219 8.851563-5.050781 11.234375-9.53125 8.652344.570312 15.90625 3.707031 21.574219 9.398438 9.207031 9.242187 12.636719 23.296874 13.917969 32.511718h-5.921875c-2.210938 0-4 1.789063-4 4 0 41.425782 41.503906 75.460938 93.976562 78.496094l-6.972656 9.707031c-11.839844 1.078125-21.148437 11.050781-21.148437 23.167969 0 12.832031 10.441406 23.277344 23.277343 23.277344 12.832031 0 23.273438-10.441406 23.273438-23.277344 0-10.386719-6.84375-19.203125-16.253907-22.1875l7.53125-10.480469c1.121094-.015625 2.242188-.027343 3.351563-.078125.941406-.039062 1.875-.105468 2.804687-.167968.816407-.050782 1.632813-.089844 2.441407-.15625 1.234375-.097657 2.464843-.230469 3.6875-.363282.46875-.050781.941406-.09375 1.40625-.152344 1.394531-.167968 2.777343-.363281 4.15625-.574218.117187-.019532.238281-.03125.359375-.046875.140625.183593.230468.390625.40625.550781l13.375 12.039062c-8.59375 3.425782-14.699219 11.816407-14.699219 21.617188 0 12.832031 10.441406 23.277344 23.277344 23.277344 12.832031 0 23.269531-10.441406 23.269531-23.277344 0-12.285156-9.574219-22.351562-21.648438-23.191406l-14.347656-12.917969c4.808594-1.148437 9.53125-2.550781 14.121094-4.261719.085938-.035156.136719-.101562.214844-.136718 6.871094-2.589844 13.296875-5.769532 19.199218-9.441407.207032-.082031.421876-.152343.617188-.273437 7.746094-4.878906 14.390625-10.59375 19.953125-16.949219.191406-.214844.371094-.4375.558594-.65625.816406-.953125 1.679687-1.871094 2.441406-2.851563.085937-.113281.109375-.25.183594-.367187 4.539062-5.867187 8.191406-12.445313 10.683593-19.425781zm0 0" fill="#e6e7e8"/><g fill="#fa759e"><path d="m350.296875 302.003906c13.773437 0 24.941406-11.167968 24.941406-24.941406v-14.230469c-1.800781-.394531-3.664062-.613281-5.585937-.613281-14.445313 0-26.160156 11.710938-26.160156 26.164062 0 4.996094 1.425781 9.648438 3.855468 13.621094zm0 0"/><path d="m382.042969 413.375c0 10.644531-8.632813 19.277344-19.277344 19.277344s-19.277344-8.632813-19.277344-19.277344 8.632813-19.277344 19.277344-19.277344 19.277344 8.632813 19.277344 19.277344zm0 0"/><path d="m425.277344 395.5625c-9.832032-4.074219-21.109375.597656-25.183594 10.433594-4.074219 9.835937.597656 21.109375 10.429688 25.183594 9.835937 4.074218 21.113281-.59375 25.1875-10.429688 4.074218-9.835938-.597657-21.113281-10.433594-25.1875zm0 0"/></g><path d="m472.835938 302.003906c0 41.269532-43.667969 74.742188-97.597657 74.742188-53.894531 0-97.601562-33.472656-97.601562-74.742188h72.660156c13.773437 0 24.941406-11.164062 24.941406-24.941406v-49.804688c53.929688 0 97.597657 33.445313 97.597657 74.746094zm0 0" fill="#fff"/><path d="m289.636719 314.003906c0 14.34375 5.289062 27.738282 14.441406 39.117188 17.808594 14.535156 43.09375 23.625 71.160156 23.625 53.929688 0 97.597657-33.472656 97.597657-74.742188 0-14.359375-5.285157-27.761718-14.433594-39.140625-17.800782-14.519531-43.085938-23.605469-71.164063-23.605469v49.804688c0 13.773438-11.164062 24.941406-24.941406 24.941406zm0 0" fill="#6dc9f7"/><path d="m209.613281 152.117188-5.441406-13.5625c-5.585937-14-18.191406-23.976563-33.097656-26.199219l-20.304688-3.03125-.085937-.015625c-4.699219-.699219-8.179688-4.734375-8.179688-9.484375v-2.339844c0-3.464844 1.957032-6.566406 4.972656-8.269531 13.816407-7.808594 23.128907-22.640625 23.058594-39.65625-.101562-23.929688-19.597656-44.160156-43.503906-45.097656-25.863281-1.011719-47.140625 19.652343-47.140625 45.289062 0 16.964844 9.328125 31.742188 23.125 39.503906 2.996094 1.6875 4.902344 4.796875 4.902344 8.238282v2.335937c0 4.75-3.480469 8.785156-8.179688 9.484375l-.085937.015625-20.308594 3.03125c-14.90625 2.222656-27.511719 12.203125-33.097656 26.199219l-41.136719 102.527344c-3.359375 8.421874 1.09375 17.929687 9.714844 20.738281 7.875 2.5625 16.386719-1.433594 19.441406-9.128907l35.15625-86.402343c1.949219-4.789063 7.386719-7.121094 12.203125-5.234375 4.726562 1.855468 7.144531 7.113281 5.472656 11.90625l-46.546875 133.542968c-1.996093 5.863282 2.363281 11.949219 8.558594 11.949219h37.566406v110.867188c0 8.582031 6.957031 15.539062 15.542969 15.539062 8.582031 0 15.539062-6.957031 15.539062-15.539062v-110.867188h13.753907v110.867188c0 8.582031 6.957031 15.539062 15.542969 15.539062h1.160156c8.582031 0 15.539062-6.957031 15.539062-15.539062v-110.867188h37.566406c6.195313 0 10.558594-6.085937 8.5625-11.949219l-47.464843-133.425781c-1.71875-4.839843.734375-10.167969 5.535156-12l.417969-.160156c4.78125-1.824219 10.148437.492187 12.101562 5.230469l35.679688 86.539062c3.058594 7.695313 11.566406 11.691406 19.441406 9.128906 8.621094-2.808593 13.074219-12.316406 9.714844-20.738281zm0 0" fill="#fa759e"/><path d="m455.960938 337.78125c-5.511719 7.078125-12.542969 13.332031-20.910157 18.597656-1.871093 1.175782-2.429687 3.648438-1.253906 5.515625.761719 1.207031 2.066406 1.867188 3.394531 1.867188.726563 0 1.460938-.199219 2.125-.617188 9.148438-5.757812 16.878906-12.640625 22.957032-20.449219 1.355468-1.746093 1.042968-4.257812-.699219-5.613281-1.746094-1.355469-4.257813-1.046875-5.613281.699219zm0 0" fill="#3a2c60"/><path d="m375.238281 223.257812c-2.210937 0-4 1.792969-4 4v31.039063c-.527343-.027344-1.046875-.078125-1.585937-.078125-16.632813 0-30.164063 13.53125-30.164063 30.164062 0 3.371094.605469 6.589844 1.636719 9.621094h-49.46875c-1.285156-10.277344-5.09375-26.835937-16.320312-38.128906-6.710938-6.753906-15.125-10.621094-25.027344-11.601562.203125-2.929688-.179688-5.898438-1.289063-8.671876l-41.128906-102.527343c-6.09375-15.261719-19.972656-26.25-36.230469-28.675781l-20.390625-3.042969c-2.714843-.40625-4.765625-2.78125-4.765625-5.527344v-2.339844c0-1.957031 1.097656-3.75 2.9375-4.785156 15.550782-8.789063 25.164063-25.328125 25.089844-43.160156-.109375-26.042969-21.355469-48.058594-47.351562-49.078125-13.5625-.589844-26.402344 4.34375-36.160157 13.734375-9.757812 9.386719-15.132812 22.011719-15.132812 35.550781 0 17.785156 9.640625 34.257812 25.164062 42.992188 1.761719.996093 2.863281 2.8125 2.863281 4.75v2.335937c0 2.75-2.050781 5.125-4.851562 5.542969l-20.308594 3.027344c-16.253906 2.429687-30.132812 13.414062-36.21875 28.667968l-41.136718 102.539063c-2.011719 5.035156-1.84375 10.746093.453124 15.652343 2.300782 4.910157 6.582032 8.6875 11.738282 10.367188 9.871094 3.214844 20.574218-1.824219 24.378906-11.417969l35.15625-86.40625c1.121094-2.746093 4.265625-4.097656 7.042969-3.019531 2.742187 1.078125 4.125 4.09375 3.15625 6.875l-46.558594 133.566406c-1.375 4.03125-.738281 8.332032 1.738281 11.792969 2.480469 3.460937 6.347656 5.445313 10.605469 5.445313h33.566406v106.863281c0 10.769531 8.765625 19.539062 19.546875 19.539062 10.769532 0 19.539063-8.765625 19.539063-19.539062v-106.867188h5.75v106.863281c0 10.769532 8.765625 19.539063 19.542969 19.539063h1.15625c10.773437 0 19.542968-8.765625 19.542968-19.539063v-106.863281h33.566406c4.257813 0 8.125-1.988281 10.605469-5.445312 2.476563-3.464844 3.113281-7.761719 1.722657-11.84375l-47.464844-133.425781c-.984375-2.769532.445312-5.871094 3.203125-6.917969l.414062-.15625c2.789063-1.070313 5.851563.265625 6.980469 3.015625l35.660156 86.492187c3.824219 9.621094 14.527344 14.667969 24.394532 11.449219 4.84375-1.574219 8.847656-5.050781 11.234374-9.53125 8.652344.570312 15.90625 3.707031 21.574219 9.398438 9.226563 9.257812 12.632813 23.304687 13.90625 32.511718h-5.914062c-2.210938 0-4 1.789063-4 4 0 41.425782 41.503906 75.460938 93.976562 78.496094l-6.972656 9.707031c-11.839844 1.078125-21.148437 11.050781-21.148437 23.167969 0 12.832031 10.441406 23.277344 23.277343 23.277344 12.835938 0 23.277344-10.441406 23.277344-23.277344 0-10.386719-6.84375-19.203125-16.257813-22.1875l7.53125-10.484375c6.179688-.097656 12.257813-.613281 18.199219-1.539063.144531.183594.234375.394532.414063.554688l13.371094 12.039062c-8.59375 3.425782-14.695313 11.8125-14.695313 21.617188 0 12.832031 10.441406 23.277344 23.273437 23.277344 12.835938 0 23.273438-10.441406 23.273438-23.277344 0-12.285156-9.574219-22.351562-21.652344-23.191406l-14.34375-12.917969c4.808594-1.148437 9.53125-2.550781 14.121094-4.261719 2.070312-.773437 3.121094-3.078125 2.351562-5.144531-.769531-2.074219-3.082031-3.121094-5.148437-2.351563-12.890625 4.800782-26.765625 7.238282-41.25 7.238282-49.835937 0-90.699219-29.585938-93.453125-66.742188h68.515625c15.957031 0 28.9375-12.984375 28.9375-28.941406v-45.738281c49.761719 1.585937 89.597656 32.679687 89.597656 70.675781 0 6.191406-1.0625 12.335938-3.160156 18.261719-.738281 2.085937.355469 4.367187 2.433594 5.105469 2.09375.734374 4.371093-.355469 5.105469-2.4375 2.402343-6.785157 3.617187-13.828126 3.617187-20.929688.007813-43.417969-45.566406-78.742188-101.589844-78.742188zm-133.917969 28.605469c-1.386718 2.960938-3.859374 5.144531-6.960937 6.15625-5.851563 1.898438-12.21875-1.085937-14.5-6.847656l-35.683594-86.542969c-2.796875-6.785156-10.375-10.058594-17.234375-7.433594l-.414062.15625c-6.777344 2.582032-10.3125 10.246094-7.886719 17.074219l47.441406 133.371094c.527344 1.5625.285157 3.222656-.675781 4.558594-.957031 1.339843-2.453125 2.105469-4.097656 2.105469h-37.566406c-2.210938 0-4 1.792968-4 4v110.863281c0 6.363281-5.179688 11.539062-11.542969 11.539062h-1.15625c-6.367188 0-11.542969-5.175781-11.542969-11.539062v-110.867188c0-2.207031-1.785156-4-4-4h-13.75c-2.210938 0-4 1.792969-4 4v110.863281c0 6.363282-5.179688 11.539063-11.542969 11.539063-6.367187 0-11.542969-5.175781-11.542969-11.539063v-110.863281c0-2.207031-1.785156-4-4-4h-37.566406c-1.644531 0-3.140625-.765625-4.097656-2.105469-.957031-1.335937-1.203125-3-.683594-4.527343l46.554688-133.542969c2.386718-6.851562-1.035156-14.296875-7.789063-16.949219-6.835937-2.675781-14.613281.671875-17.371093 7.449219l-35.171876 86.433594c-2.265624 5.714844-8.632812 8.695312-14.480468 6.800781-3.105469-1.011719-5.582032-3.195313-6.964844-6.15625-1.386719-2.957031-1.484375-6.257813-.277344-9.285156l41.144532-102.535157c5.039062-12.628906 16.523437-21.71875 29.972656-23.730468l20.386718-3.042969c6.609376-.980469 11.59375-6.757813 11.59375-13.441406v-2.335938c0-4.820312-2.660156-9.3125-6.941406-11.722656-13.007812-7.320313-21.082031-21.125-21.082031-36.019531 0-11.34375 4.503906-21.917969 12.683594-29.789063 8.171875-7.859375 18.917969-11.9375 30.300781-11.503906 21.773438.851563 39.566406 19.296875 39.660156 41.117187.0625 14.941407-7.996094 28.796876-21.03125 36.160157-4.3125 2.441406-7 6.941406-7 11.753906v2.339844c0 6.683593 4.984375 12.460937 11.671875 13.453125l20.304688 3.027344c13.449219 2.007812 24.933593 11.101562 29.980469 23.738281l41.132812 102.523437c1.210938 3.039063 1.117188 6.339844-.273438 9.296875zm191.839844 161.511719c0 8.421875-6.851562 15.277344-15.273437 15.277344s-15.273438-6.855469-15.273438-15.277344c0-8.425781 6.851563-15.277344 15.273438-15.277344s15.273437 6.851563 15.273437 15.277344zm-55.113281 0c0 8.421875-6.851563 15.277344-15.277344 15.277344s-15.277343-6.855469-15.277343-15.277344c0-8.425781 6.851562-15.277344 15.277343-15.277344s15.277344 6.851563 15.277344 15.277344zm-27.75-115.371094h-.527344c-1.425781-2.917968-2.285156-6.160156-2.285156-9.621094 0-12.21875 9.941406-22.164062 22.164063-22.164062.535156 0 1.058593.066406 1.585937.109375v10.730469c.003906 11.550781-9.390625 20.945312-20.9375 20.945312zm0 0" fill="#3a2c60"/></svg>