<svg height="496pt" viewBox="-106 0 496 496.20314" width="496pt" xmlns="http://www.w3.org/2000/svg"><path d="m282.527344 272.242188-44.09375-109.917969c-6.496094-16.269531-21.289063-27.980469-38.613282-30.570313l-21.863281-3.261718c-3.054687-.453126-5.359375-3.125-5.359375-6.21875v-2.507813c0-2.203125 1.234375-4.214844 3.300782-5.382813 16.578124-9.367187 26.828124-27 26.75-46.015624-.113282-27.773438-22.757813-51.246094-50.488282-52.328126-14.472656-.574218-28.152344 4.632813-38.554687 14.640626-10.410157 10.007812-16.140625 23.472656-16.140625 37.910156 0 18.964844 10.285156 36.53125 26.832031 45.839844 1.984375 1.121093 3.214844 3.167968 3.214844 5.34375v2.503906c0 3.089844-2.300781 5.761718-5.445313 6.230468l-21.773437 3.25c-17.324219 2.585938-32.121094 14.296876-38.613281 30.5625l-44.101563 109.929688c-2.125 5.324219-1.949219 11.355469.484375 16.550781 2.429688 5.191407 6.953125 9.191407 12.410156 10.964844 10.417969 3.398437 21.753906-1.921875 25.785156-12.082031l37.691407-92.636719c1.261719-3.097656 4.820312-4.609375 7.917969-3.398437 3.085937 1.207031 4.640624 4.601562 3.554687 7.726562l-49.921875 143.199219c-1.4375 4.234375-.769531 8.75 1.828125 12.382812 2.605469 3.632813 6.664063 5.722657 11.136719 5.722657h36.28125v114.859374c0 11.390626 9.265625 20.660157 20.660156 20.660157 11.390625 0 20.660156-9.269531 20.660156-20.660157v-114.855468h6.746094v114.859375c0 11.390625 9.269531 20.660156 20.664062 20.660156h1.242188c11.394531 0 20.664062-9.269531 20.664062-20.660156v-114.859375h36.265626c4.472656 0 8.53125-2.085938 11.132812-5.722656 2.605469-3.636719 3.269531-8.148438 1.8125-12.433594l-50.878906-143.046875c-1.109375-3.117188.5-6.609375 3.578125-7.78125l.460937-.171875c3.128906-1.191406 6.582032.296875 7.855469 3.390625l38.234375 92.734375c4.046875 10.1875 15.375 15.519531 25.796875 12.113281 5.453125-1.773437 9.976563-5.769531 12.414063-10.964844 2.433593-5.199219 2.601562-11.226562.472656-16.558593zm0 0" fill="#e6e7e8"/><path d="m224.550781 162.34375-5.832031-14.539062c-5.992188-15.007813-19.503906-25.710938-35.488281-28.09375l-21.773438-3.246094-.089843-.015625c-5.039063-.746094-8.769532-5.074219-8.769532-10.171875v-2.511719c0-3.714844 2.09375-7.035156 5.328125-8.863281 14.8125-8.367188 24.796875-24.273438 24.71875-42.519532-.101562-25.65625-21.007812-47.347656-46.640625-48.351562-27.722656-1.085938-50.539062 21.070312-50.539062 48.554688 0 18.1875 10 34.027343 24.796875 42.355468 3.210937 1.808594 5.253906 5.144532 5.253906 8.828125v2.503907c0 5.097656-3.730469 9.425781-8.769531 10.171874l-.089844.015626-21.769531 3.246093c-15.984375 2.382813-29.496094 13.085938-35.488281 28.09375l-44.105469 109.929688c-3.605469 9.027343 1.171875 19.21875 10.417969 22.234375 8.4375 2.746094 17.5625-1.539063 20.839843-9.789063l37.691407-92.636719c2.089843-5.136718 7.921874-7.640624 13.085937-5.617187 5.070313 1.988281 7.660156 7.628906 5.867187 12.769531l-49.910156 143.175782c-2.140625 6.289062 2.535156 12.816406 9.175782 12.816406h40.28125v118.859375c0 9.199219 7.457031 16.660156 16.660156 16.660156 9.199218 0 16.660156-7.460937 16.660156-16.660156v-118.859375h14.746094v118.859375c0 9.199219 7.460937 16.660156 16.660156 16.660156h1.246094c9.199218 0 16.65625-7.460937 16.65625-16.660156v-118.859375h40.277344c6.640624 0 11.316406-6.527344 9.175781-12.816406l-50.878907-143.046876c-1.84375-5.1875.792969-10.902343 5.9375-12.863281l.445313-.175781c5.132813-1.953125 10.886719.53125 12.980469 5.605469l38.257812 92.785156c3.273438 8.25 12.398438 12.535156 20.839844 9.789063 9.242188-3.011719 14.019531-13.207032 10.414062-22.234376zm0 0" fill="#fff"/><path d="m262.820312 257.730469-38.269531-95.386719-4.667969-11.640625c-7.609374-10.128906-19.386718-17.128906-32.859374-18.996094l-23.449219-3.246093-.097657-.015626c-5.425781-.746093-9.449218-5.074218-9.449218-10.171874v-2.511719c0-1.15625.285156-2.246094.691406-3.289063-1.320312-1.738281-2.121094-3.878906-2.121094-6.199218v-2.511719c0-3.714844 2.09375-7.039063 5.328125-8.863281 14.8125-8.367188 24.796875-24.273438 24.71875-42.519532-.007812-2.332031-.246093-4.613281-.585937-6.863281-7.832032-16.640625-25.457032-28.742187-45.90625-29.484375-22.332032-.8125-41.699219 11.375-50.050782 29.066406-.378906 2.449219-.640624 4.9375-.640624 7.488282 0 18.1875 10 34.027343 24.796874 42.355468 3.210938 1.808594 5.253907 5.144532 5.253907 8.828125v2.503907c0 2.320312-.796875 4.457031-2.117188 6.195312.402344 1.050781.6875 2.140625.6875 3.296875v2.503906c0 5.097657-4.019531 9.421875-9.449219 10.171875l-.097656.015625-23.449218 3.246094c-13.472657 1.867187-25.253907 8.867187-32.855469 18.996094l-42.9375 107.03125c-3.605469 9.027343 1.171875 19.21875 10.417969 22.234375 5.472656 1.78125 11.214843.566406 15.480468-2.734375l34.726563-79.226563 8.328125-20.464844c2.089844-5.136718 7.921875-7.640624 13.085937-5.613281 5.070313 1.988281 7.660157 7.628907 5.867188 12.769531l-2.640625 7.585938c.167968 1.449219.039062 2.949219-.507813 4.414062l-14.367187 38.253907-32.390625 92.921875c-2.140625 6.289062 2.535156 12.816406 9.175781 12.816406h40.28125v118.859375c0 9.199219 7.460938 16.660156 16.660156 16.660156 7.71875 0 14.15625-5.28125 16.042969-12.40625v-111.117187h.617187v-12h14.746094v12h.519532v110.808594c1.78125 7.285156 8.304687 12.710937 16.140624 12.710937h1.246094c9.199219 0 16.660156-7.460937 16.660156-16.660156v-118.859375h40.265626c6.640624 0 11.316406-6.527344 9.175781-12.816406l-31.203125-87.730469-16.597656-43.316407c-.597657-1.570312-.710938-3.175781-.492188-4.722656l-2.585938-7.277344c-1.84375-5.1875.792969-10.902343 5.9375-12.863281l.445313-.175781c5.132813-1.953125 10.886719.53125 12.980469 5.605469l9.792968 23.753906 33.769532 76.042969c4.273437 3.328125 10.035156 4.558594 15.53125 2.773437 9.242187-3.007812 14.023437-13.199219 10.417968-22.226562zm0 0" fill="#fa759e"/><path d="m227.882812 181.382812 8.574219 21.371094c.625 1.5625 2.125 2.511719 3.710938 2.511719.496093 0 1-.089844 1.488281-.285156 2.054688-.824219 3.046875-3.152344 2.226562-5.207031l-8.578124-21.371094c-.820313-2.046875-3.152344-3.039063-5.199219-2.222656-2.050781.824218-3.046875 3.15625-2.222657 5.203124zm0 0" fill="#3a2c60"/><path d="m266.527344 256.238281-15.464844-38.558593c-.820312-2.046876-3.148438-3.042969-5.203125-2.222657-2.050781.816407-3.046875 3.148438-2.222656 5.203125l15.464843 38.550782c1.328126 3.328124 1.222657 6.949218-.296874 10.191406-1.519532 3.246094-4.234376 5.644531-7.640626 6.753906-6.414062 2.078125-13.394531-1.183594-15.902343-7.507812l-38.253907-92.78125c-2.941406-7.136719-10.910156-10.570313-18.101562-7.816407l-.445312.167969c-7.121094 2.714844-10.835938 10.765625-8.28125 17.945312l50.867187 142.996094c.59375 1.757813.316406 3.636719-.761719 5.148438-1.082031 1.511718-2.769531 2.378906-4.628906 2.378906h-40.285156c-2.210938 0-4 1.792969-4 4v118.859375c0 6.980469-5.679688 12.660156-12.660156 12.660156h-1.242188c-6.980469 0-12.664062-5.679687-12.664062-12.660156v-118.863281c0-2.207032-1.792969-4-4-4h-14.746094c-2.210938 0-4 1.792968-4 4v118.859375c0 6.980469-5.679688 12.660156-12.660156 12.660156-6.980469 0-12.660157-5.679687-12.660157-12.660156v-118.859375c0-2.207032-1.792969-4-4-4h-40.28125c-1.859375 0-3.546875-.867188-4.628906-2.378906-1.078125-1.511719-1.359375-3.390626-.765625-5.121094l49.910156-143.171875c2.507813-7.203125-1.085937-15.023438-8.183594-17.8125-7.160156-2.804688-15.347656.703125-18.253906 7.832031l-37.707031 92.667969c-2.492187 6.273437-9.457031 9.546875-15.882813 7.460937-3.410156-1.113281-6.121093-3.507812-7.644531-6.753906-1.519531-3.242188-1.625-6.863281-.300781-10.183594l44.105469-109.933594c5.445312-13.636718 17.84375-23.453124 32.363281-25.617187l21.855469-3.265625c6.945312-1.03125 12.183593-7.101562 12.183593-14.128906v-2.503906c0-5.0625-2.789062-9.777344-7.289062-12.3125-14.039062-7.902344-22.757812-22.792969-22.757812-38.871094 0-12.238282 4.859374-23.65625 13.6875-32.144532 8.824218-8.476562 20.4375-12.886718 32.695312-12.410156 23.5.921875 42.703125 20.824219 42.800781 44.367188.070313 16.125-8.628906 31.078125-22.683593 39.019531-4.546876 2.566406-7.367188 7.296875-7.367188 12.347656v2.507813c0 7.027344 5.238281 13.097656 12.269531 14.144531l21.769531 3.253906c14.519532 2.167969 26.917969 11.984375 32.367188 25.625l5.832031 14.539063c.820313 2.050781 3.148438 3.039062 5.199219 2.222656 2.054688-.824219 3.050781-3.152344 2.226562-5.199219l-5.828124-14.535156c-6.496094-16.269531-21.289063-27.980469-38.613282-30.570313l-21.863281-3.261718c-3.054687-.453125-5.359375-3.125-5.359375-6.21875v-2.507813c0-2.203125 1.234375-4.214843 3.300781-5.382812 16.578125-9.367188 26.828125-27 26.75-46.015625-.113281-27.773438-22.757812-51.246094-50.488281-52.3281252-14.472656-.5742188-28.152344 4.6328122-38.554688 14.6406252-10.410156 10.007812-16.140624 23.472656-16.140624 37.910156 0 18.964844 10.285156 36.53125 26.832031 45.839844 1.984375 1.121094 3.214843 3.167968 3.214843 5.34375v2.503906c0 3.089844-2.304687 5.761719-5.445312 6.230469l-21.773438 3.25c-17.324218 2.585937-32.121093 14.296875-38.613281 30.5625l-44.097656 109.921875c-2.125 5.328125-1.949219 11.359375.484375 16.554687 2.429688 5.191407 6.953125 9.1875 12.410156 10.960938 10.417969 3.398437 21.753906-1.921875 25.785156-12.082031l37.691407-92.636719c1.261719-3.085938 4.816406-4.613281 7.917969-3.398438 3.085937 1.207031 4.640624 4.601563 3.554687 7.726563l-49.921875 143.199218c-1.4375 4.234376-.769531 8.75 1.828125 12.378907 2.605469 3.636719 6.664063 5.726562 11.136719 5.726562h36.28125v114.859375c0 11.390625 9.265625 20.660156 20.660156 20.660156 11.390625 0 20.660156-9.269531 20.660156-20.660156v-114.851562h6.746094v114.859375c0 11.390625 9.269531 20.660156 20.664062 20.660156h1.242188c11.394531 0 20.664062-9.269531 20.664062-20.660156v-114.859375h36.265626c4.472656 0 8.53125-2.085938 11.132812-5.722656 2.605469-3.636719 3.269531-8.148438 1.8125-12.433594l-50.878906-143.046875c-1.109375-3.117188.503906-6.609375 3.589844-7.789063l.445312-.167968c3.128906-1.191407 6.582031.296874 7.855469 3.390624l38.234375 92.734376c4.046875 10.1875 15.375 15.519531 25.796875 12.113281 5.453125-1.773438 9.976562-5.769531 12.414062-10.964844 2.433594-5.199219 2.605469-11.226563.476563-16.558594zm0 0" fill="#3a2c60"/><path d="m133.6875 218.054688c-26.644531 0-48.246094 21.605468-48.246094 48.25 0 26.644531 21.605469 48.25 48.246094 48.25 26.648438 0 48.25-21.605469 48.25-48.25.003906-26.644532-21.601562-48.25-48.25-48.25zm0 0" fill="#6dc9f7"/><path d="m160.386719 246.566406c-6.542969-6.539062-17.148438-6.539062-23.691407 0l-3.003906 3.003906-3.003906-3.003906c-6.539062-6.539062-17.144531-6.539062-23.6875 0-6.539062 6.539063-6.539062 17.148438 0 23.6875l26.691406 26.691406 23.691406-23.6875 3.003907-3.003906c6.539062-6.539062 6.539062-17.148437 0-23.6875zm0 0" fill="#ffd7e5"/></svg>