<svg height="489pt" viewBox="0 -74 489.544 489" width="489pt" xmlns="http://www.w3.org/2000/svg"><path d="m482.351562 167.238281-73.992187-122.582031c-8.09375-13.414062-20.933594-22.878906-36.152344-26.640625-15.214843-3.761719-30.988281-1.371094-44.398437 6.730469l-3.804688 2.292968c-6.109375 3.691407-8.078125 11.660157-4.390625 17.769532 3.683594 6.113281 11.664063 8.085937 17.765625 4.390625l3.804688-2.292969c15.484375-9.339844 35.671875-4.351562 44.867187 10.859375l54.132813 107.417969-141.058594-.269532c-10.296875 0-20.222656 4.328126-27.226562 11.875-1.636719 1.765626-3.109376 3.707032-4.375 5.777344-3.039063 4.964844-8.089844 7.933594-13.507813 7.933594h-2.480469c-5.414062 0-10.46875-2.96875-13.507812-7.929688-1.261719-2.070312-2.738282-4.011718-4.375-5.777343-7.003906-7.546875-16.929688-11.875-27.230469-11.875l-141.058594.269531 53.984375-107.15625c9.34375-15.476562 29.539063-20.460938 45.015625-11.125l3.804688 2.292969c2.960937 1.785156 6.445312 2.308593 9.796875 1.488281 3.355468-.832031 6.1875-2.914062 7.976562-5.878906 1.785156-2.960938 2.316406-6.4375 1.484375-9.792969s-2.917969-6.1875-5.878906-7.976563l-3.804687-2.292968c-13.414063-8.101563-29.1875-10.496094-44.398438-6.730469-15.214844 3.761719-28.054688 13.222656-36.152344 26.640625l-74.007812 122.585938c-4.273438 2.484374-7.183594 7.058593-7.183594 12.347656v11.914062c0 7.90625 6.429688 14.332032 14.332031 14.332032h15.289063l-.003906 7.644531c-.054688 27.710937-.105469 56.363281 7.1875 81.835937 6.398437 23.585938 23.753906 39.371094 46.316406 42.222656 30.140625 4.765626 60.871094 4.746094 90.65625.035157 22.996094-2.703125 40.425781-18.617188 46.652344-42.632813l.132812-.554687c2.894531-12.847657 5-26.050781 6.265625-39.242188.5-5.226562 4.777344-9.167969 9.945313-9.167969 5.167968 0 9.441406 3.941407 9.941406 9.167969 1.269531 13.207031 3.378906 26.414063 6.28125 39.308594l.132812.546875c6.207032 23.960938 23.640625 39.875 46.480469 42.558594 15.039063 2.375 30.300781 3.582031 45.367187 3.582031 15.078126 0 30.367188-1.207031 45.324219-3.574219 22.679688-2.871094 40.039063-18.660156 46.421875-42.183594 7.308594-25.53125 7.257813-54.183593 7.207032-81.941406l-.007813-7.597656h15.289063c7.90625 0 14.332031-6.425781 14.332031-14.332031v-11.925781c-.007813-5.289063-2.917969-9.863282-7.191407-12.347657zm0 0" fill="#e6e7e8"/><path d="m14.332031 153.257812 28.519531-.058593 57.058594-113.230469c10.5-17.394531 33.113282-22.984375 50.511719-12.484375l3.800781 2.296875c4.230469 2.550781 9.726563 1.191406 12.28125-3.035156 2.550782-4.230469 1.191406-9.726563-3.035156-12.28125l-3.804688-2.296875c-25.851562-15.601563-59.460937-7.296875-75.0625 18.558593l-74.535156 123.46875c1.304688-.589843 2.742188-.9375 4.265625-.9375zm0 0" fill="#0089ef"/><path d="m319.3125 29.78125 3.804688-2.296875c17.394531-10.5 40.007812-4.910156 50.507812 12.484375l57.058594 113.230469 28.519531.058593c1.523437 0 2.960937.347657 4.265625.941407l-74.53125-123.46875c-15.605469-25.855469-49.214844-34.160157-75.066406-18.558594l-3.804688 2.296875c-4.226562 2.550781-5.585937 8.046875-3.035156 12.28125 2.558594 4.222656 8.054688 5.582031 12.28125 3.03125zm0 0" fill="#0089ef"/><path d="m459.203125 153.257812-176.082031-.339843c-9.1875 0-18.042969 3.863281-24.292969 10.59375-1.476563 1.59375-2.78125 3.316406-3.894531 5.144531-3.65625 5.972656-9.921875 9.84375-16.925782 9.84375h-2.480468c-7 0-13.265625-3.875-16.921875-9.84375-1.121094-1.828125-2.421875-3.550781-3.898438-5.144531-6.25-6.730469-15.101562-10.59375-24.292969-10.59375l-176.082031.339843c-5.703125 0-10.332031 4.625-10.332031 10.332032v11.917968c0 5.703126 4.625 10.332032 10.332031 10.332032h19.28125c-.003906.675781-.027343 1.351562.007813 2.027344.007812 3.175781 0 6.382812-.003906 9.597656-.054688 27.441406-.105469 55.816406 7.050781 80.808594 5.964843 21.988281 22.046875 36.660156 43.078125 39.320312 14.871094 2.351562 29.945312 3.542969 44.820312 3.542969 14.855469 0 29.902344-1.1875 44.746094-3.535157 21.304688-2.5 37.449219-17.277343 43.226562-39.605468l.121094-.492188c2.890625-12.851562 4.941406-25.785156 6.183594-38.742187.691406-7.226563 6.671875-12.785157 13.929688-12.785157 7.253906 0 13.234374 5.558594 13.925781 12.785157 1.246093 12.957031 3.292969 25.890625 6.183593 38.742187l.121094.492188c5.785156 22.328125 21.929688 37.105468 43.226563 39.605468 14.84375 2.34375 29.894531 3.535157 44.746093 3.535157 14.875 0 29.953126-1.191407 44.820313-3.542969 21.03125-2.65625 37.113281-17.328125 43.078125-39.320312 7.15625-24.992188 7.105469-53.363282 7.054688-80.808594-.003907-3.21875-.015626-6.425782-.003907-9.597656.035157-.679688.011719-1.351563.007813-2.027344h19.277344c5.703124 0 10.332031-4.621094 10.332031-10.332032v-11.917968c-.007813-5.707032-4.632813-10.332032-10.339844-10.332032zm0 0" fill="#fff"/><path d="m469.53125 175.542969c-.023438-5.6875-4.636719-10.289063-10.328125-10.289063l-176.082031-.339844c-9.1875 0-18.042969 3.863282-24.292969 10.59375-1.476563 1.59375-2.78125 3.316407-3.894531 5.144532-3.65625 5.972656-9.921875 9.84375-16.925782 9.84375h-2.480468c-7 0-13.265625-3.875-16.921875-9.84375-1.121094-1.828125-2.421875-3.550782-3.898438-5.144532-6.25-6.730468-15.101562-10.59375-24.292969-10.59375l-176.082031.34375c-5.691406 0-10.304687 4.601563-10.328125 10.292969.023438 5.6875 4.636719 10.289063 10.328125 10.289063h19.28125c-.003906.675781-.027343 1.351562.007813 2.027344.007812 3.175781 0 6.382812-.003906 9.597656v.738281c-.007813.554687-.023438 1.109375.007812 1.664063.003906 2.878906 0 5.785156-.003906 8.703124.066406 23.902344.855468 48.070313 7.050781 69.703126 5.964844 21.988281 22.046875 36.660156 43.082031 39.320312 14.867188 2.351562 29.941406 3.542969 44.816406 3.542969 14.855469 0 29.902344-1.1875 44.746094-3.53125 21.304688-2.5 37.449219-17.277344 43.226563-39.605469l.121093-.492188c2.890626-12.851562 4.941407-25.785156 6.183594-38.742187.691406-7.226563 6.671875-12.785156 13.929688-12.785156 7.253906 0 13.234375 5.558593 13.925781 12.785156 1.246094 12.957031 3.292969 25.890625 6.183594 38.742187l.121093.492188c5.785157 22.328125 21.929688 37.105469 43.226563 39.605469 14.84375 2.34375 29.894531 3.53125 44.746094 3.53125 14.875 0 29.953125-1.191407 44.820312-3.542969 21.03125-2.65625 37.113281-17.328125 43.078125-39.320312 6.195313-21.632813 6.984375-45.800782 7.054688-69.703126-.003906-2.917968-.011719-5.820312-.003906-8.703124.03125-.554688.011718-1.105469.007812-1.664063 0-.246094 0-.496094 0-.738281-.003906-3.21875-.011719-6.425782-.003906-9.597656.035156-.679688.011718-1.351563.007812-2.027344h19.277344c5.675781-.003906 10.289062-4.605469 10.3125-10.296875zm0 0" fill="#fa759e"/><path d="m302.351562 301.992188c28.414063 4.523437 56.828126 4.523437 85.242188 0 13.941406-1.675782 25.636719-11.320313 30.109375-27.949219 7.425781-25.835938 6.402344-57.429688 6.46875-86.691407.753906-10.089843-7.230469-18.691406-17.347656-18.691406h-123.703125c-10.121094 0-18.105469 8.601563-17.347656 18.691406-2.226563 29.445313.082031 58.320313 6.464843 86.691407 4.148438 16.019531 14.816407 26.273437 30.113281 27.949219zm0 0" fill="#fff"/><path d="m406.824219 168.660156h-65.125l-74.476563 76.46875c1.210938 9.695313 2.855469 19.335938 5.011719 28.914063 2.554687 9.863281 7.597656 17.515625 14.652344 22.351562l124.25-127.136719c-1.378907-.355468-2.8125-.597656-4.3125-.597656zm0 0" fill="#d4fbff"/><path d="m424.171875 187.351562c.402344-5.40625-1.75-10.335937-5.351563-13.789062l-123.542968 126.851562c2.242187.71875 4.570312 1.304688 7.074218 1.578126 7.15625 1.140624 14.308594 1.988281 21.460938 2.558593l100.363281-102.699219c0-4.871093-.011719-9.71875-.003906-14.5zm0 0" fill="#d4fbff"/><path d="m318.921875 245.148438c-4.976563 0-9.011719-4.03125-9.011719-9.007813v-.28125c0-4.972656 4.035156-9.007813 9.011719-9.007813h53.632813c4.976562 0 9.007812 4.035157 9.007812 9.007813v.28125c0 4.976563-4.03125 9.007813-9.007812 9.007813zm0 0" fill="#0089ef"/><path d="m171.183594 301.992188c-28.410156 4.523437-56.828125 4.523437-85.238282 0-13.945312-1.675782-25.640624-11.320313-30.113281-27.949219-7.429687-25.835938-6.398437-57.429688-6.46875-86.691407-.75-10.089843 7.234375-18.691406 17.347657-18.691406h123.703124c10.121094 0 18.105469 8.601563 17.351563 18.691406 2.222656 29.445313-.085937 58.320313-6.46875 86.691407-4.148437 16.019531-14.816406 26.273437-30.113281 27.949219zm0 0" fill="#fff"/><path d="m119.414062 168.660156-69.089843 70.945313c.855469 12.074219 2.4375 23.757812 5.507812 34.4375 2.234375 8.308593 6.273438 14.871093 11.492188 19.570312l122.117187-124.953125zm0 0" fill="#d4fbff"/><path d="m207.769531 187.351562c.519531-6.941406-3.152343-13.109374-8.761719-16.324218l-124.238281 127.566406c3.476563 1.734375 7.21875 2.921875 11.175781 3.398438 5.367188.855468 10.734376 1.496093 16.101563 2.027343l106.171875-108.636719c-.125-2.675781-.25-5.347656-.449219-8.03125zm0 0" fill="#d4fbff"/><path d="m128.914062 271.761719c-4.972656 0-9.007812-4.03125-9.007812-9.007813v-17.601562h-17.738281c-4.976563 0-9.007813-4.03125-9.007813-9.007813v-.28125c0-4.972656 4.03125-9.007812 9.007813-9.007812h17.738281v-17.738281c0-4.976563 4.035156-9.007813 9.007812-9.007813 4.976563 0 9.011719 4.03125 9.011719 9.007813v17.738281h17.878907c4.976562 0 9.007812 4.035156 9.007812 9.007812v.28125c0 4.976563-4.03125 9.007813-9.007812 9.007813h-17.878907v17.601562c.003907 4.972656-4.035156 9.007813-9.011719 9.007813zm0 0" fill="#0089ef"/><g fill="#3a2c60"><path d="m372.859375 157.089844h.007813c2.203124 0 3.996093-1.785156 4-3.992188.003906-2.207031-1.78125-4.003906-3.992188-4.007812l-28.28125-.054688s-.003906 0-.007812 0c-2.207032 0-3.996094 1.785156-4 3.992188-.007813 2.210937 1.78125 4.003906 3.988281 4.007812zm0 0"/><path d="m466.351562 151.238281-73.988281-122.582031c-8.097656-13.417969-20.9375-22.878906-36.15625-26.640625s-30.984375-1.371094-44.398437 6.730469l-3.804688 2.292968c-6.109375 3.691407-8.078125 11.660157-4.390625 17.769532 3.6875 6.113281 11.664063 8.082031 17.765625 4.390625l3.804688-2.292969c7.503906-4.523438 16.3125-5.855469 24.8125-3.761719 8.5 2.101563 15.675781 7.386719 20.054687 14.621094l54.132813 107.417969-31.96875-.058594s-.003906 0-.007813 0c-2.203125 0-3.996093 1.785156-4 3.992188-.003906 2.207031 1.785157 4.003906 3.992188 4.007812l67.007812.128906c3.492188 0 6.332031 2.839844 6.332031 6.332032v11.917968c0 3.492188-2.839843 6.332032-6.332031 6.332032h-19.277343c-1.070313 0-2.089844.425781-2.839844 1.183593-.753906.757813-1.167969 1.785157-1.160156 2.851563l.003906.480468c.003906.433594.015625.867188-.011719 1.507813l.003906 9.613281c.050781 27.160156.101563 55.246094-6.914062 79.753906-5.515625 20.34375-20.367188 33.949219-39.84375 36.414063-29.320313 4.636719-58.886719 4.660156-88.472657-.007813-19.589843-2.300781-34.480468-15.996093-39.8125-36.578124l-.101562-.425782c-2.816406-12.5-4.871094-25.371094-6.105469-38.246094-.894531-9.355468-8.597656-16.40625-17.910156-16.40625s-17.011719 7.050782-17.914063 16.40625c-1.230468 12.859376-3.285156 25.726563-6.085937 38.179688l-.105469.429688c-5.34375 20.644531-20.230468 34.335937-39.984375 36.660156-29.269531 4.628906-58.871093 4.644531-88.4375-.027344-19.351562-2.445312-34.203125-16.050781-39.734375-36.453125-7-24.4375-6.949218-52.515625-6.894531-79.71875v-9.800781c-.023437-.414063-.011719-.824219-.007813-1.234375l.003907-.554688c.003906-1.0625-.414063-2.085937-1.164063-2.84375-.753906-.753906-1.773437-1.179687-2.835937-1.179687h-19.28125c-3.492188 0-6.332031-2.839844-6.332031-6.332032v-11.921874c0-3.492188 2.839843-6.332032 6.335937-6.332032l176.078125-.339844c8.082031 0 15.867188 3.394532 21.363281 9.316407 1.273438 1.375 2.425781 2.894531 3.414063 4.511719 4.507812 7.359374 12.109375 11.753906 20.332031 11.753906h2.480469c8.226562 0 15.828125-4.394532 20.332031-11.753906.988281-1.617188 2.140625-3.136719 3.414063-4.511719 5.496093-5.921875 13.285156-9.316407 21.355468-9.316407l43.066406.082032h.007813c2.203125 0 3.996094-1.785156 4-3.992188.003906-2.207031-1.785156-4.003906-3.992187-4.007812l-43.074219-.082032c-10.296875 0-20.222657 4.328126-27.226563 11.875-1.640625 1.765626-3.109375 3.707032-4.375 5.777344-3.039062 4.964844-8.089844 7.929688-13.507812 7.929688h-2.480469c-5.414063 0-10.46875-2.96875-13.507813-7.929688-1.265624-2.070312-2.738281-4.011718-4.375-5.777344-7.003906-7.546874-16.929687-11.875-27.234374-11.875l-141.054688.269532 53.984375-107.15625c4.527344-7.5 11.699219-12.78125 20.203125-14.886719 8.503906-2.097656 17.316406-.765625 24.8125 3.761719l3.804688 2.289062c2.960937 1.789063 6.441406 2.316406 9.792968 1.488282 3.355469-.832032 6.1875-2.914063 7.972656-5.875 3.691407-6.109376 1.71875-14.082032-4.390624-17.769532l-3.804688-2.292968c-13.414062-8.101563-29.179688-10.496094-44.398438-6.730469-15.214843 3.761719-28.054687 13.222656-36.152343 26.640625l-73.984375 122.589844c-4.273438 2.484374-7.183594 7.058593-7.183594 12.347656v11.914062c0 7.90625 6.429688 14.332032 14.332031 14.332032h15.289063l-.003906 7.644531c-.054688 27.710937-.105469 56.363281 7.1875 81.835937 6.398437 23.585938 23.753906 39.371094 46.316406 42.222656 30.140625 4.765626 60.871094 4.746094 90.65625.035157 22.996094-2.703125 40.425781-18.617188 46.652344-42.632813l.132812-.554687c2.894531-12.847657 5-26.050781 6.265625-39.242188.5-5.226562 4.777344-9.167969 9.945313-9.167969 5.167968 0 9.441406 3.941407 9.941406 9.167969 1.269531 13.207031 3.378906 26.414063 6.28125 39.308594l.132812.546875c6.207032 23.960938 23.640625 39.875 46.480469 42.558594 15.039063 2.375 30.300781 3.582031 45.367187 3.582031 15.078126 0 30.367188-1.207031 45.324219-3.574219 22.679688-2.871094 40.039063-18.660156 46.421875-42.183594 7.3125-25.542968 7.257813-54.203124 7.207032-81.941406l-.007813-7.59375h15.289063c7.90625 0 14.332031-6.425781 14.332031-14.332031v-11.929687c-.007813-5.289063-2.917969-9.863282-7.191407-12.347657zm-378.328124-118.445312c6.996093-11.589844 18.085937-19.761719 31.222656-23.007813 4.066406-1.003906 8.167968-1.5 12.253906-1.5 9.117188 0 18.09375 2.480469 26.097656 7.3125l3.800782 2.296875c2.332031 1.410157 3.085937 4.453125 1.675781 6.785157-1.40625 2.335937-4.449219 3.085937-6.785157 1.671874l-3.804687-2.289062c-19.253906-11.625-44.375-5.417969-56.144531 14.105469l-55.953125 111.035156-17.632813.039063-5.027344.007812zm345.125 116.410156-56.101563-111.300781c-11.617187-19.257813-36.746094-25.46875-55.996094-13.839844l-3.804687 2.292969c-2.339844 1.414062-5.378906.65625-6.785156-1.675781-1.414063-2.332032-.65625-5.378907 1.675781-6.785157l3.804687-2.296875c11.589844-6.996094 25.210938-9.058594 38.347656-5.8125 13.140626 3.246094 24.230469 11.417969 31.226563 23.007813l70.296875 116.460937-4.773438-.007812zm0 0"/><path d="m318.921875 249.152344h53.632813c7.171874 0 13.007812-5.835938 13.007812-13.289063 0-7.171875-5.835938-13.007812-13.007812-13.007812h-53.632813c-7.175781 0-13.011719 5.835937-13.011719 13.289062-.003906 7.171875 5.832032 13.007813 13.011719 13.007813zm0-18.300782h53.632813c2.761718 0 5.007812 2.25 5.007812 5.289063 0 2.761719-2.246094 5.007813-5.007812 5.007813h-53.632813c-2.761719 0-5.011719-2.246094-5.011719-5.289063-.003906-2.757813 2.246094-5.007813 5.011719-5.007813zm0 0"/><path d="m102.167969 249.152344h13.738281v13.601562c0 7.171875 5.835938 13.007813 13.007812 13.007813 7.175782 0 13.011719-5.835938 13.011719-13.007813v-13.601562h13.878907c7.171874 0 13.007812-5.835938 13.007812-13.289063 0-7.171875-5.835938-13.007812-13.007812-13.007812h-13.878907v-13.738281c0-7.171876-5.835937-13.007813-13.011719-13.007813-7.171874 0-13.007812 5.835937-13.007812 13.007813v13.738281h-13.738281c-7.171875 0-13.007813 5.835937-13.007813 13.289062 0 7.171875 5.835938 13.007813 13.007813 13.007813zm0-18.300782h17.738281c2.210938 0 4-1.789062 4-4v-17.738281c0-2.761719 2.25-5.007812 5.007812-5.007812 2.761719 0 5.011719 2.246093 5.011719 5.007812v17.738281c0 2.210938 1.789063 4 4 4h17.878907c2.757812 0 5.007812 2.25 5.007812 5.289063 0 2.761719-2.25 5.007813-5.007812 5.007813h-17.878907c-2.210937 0-4 1.792968-4 4v17.601562c0 2.757812-2.25 5.007812-5.011719 5.007812-2.757812 0-5.007812-2.25-5.007812-5.007812v-17.601562c0-2.207032-1.789062-4-4-4h-17.738281c-2.761719 0-5.007813-2.246094-5.007813-5.289063 0-2.757813 2.246094-5.007813 5.007813-5.007813zm0 0"/><path d="m267.4375 171.5c-3.964844 4.273438-6.027344 10.023438-5.675781 15.832031-2.167969 29.097657.042969 58.566407 6.601562 87.71875 4.609375 17.78125 16.800781 29.042969 33.453125 30.910157 14.335938 2.277343 28.769532 3.414062 43.183594 3.414062s28.8125-1.132812 43.066406-3.40625c16.296875-1.960938 28.820313-13.503906 33.480469-30.816406 6.734375-23.417969 6.679687-50.996094 6.628906-77.664063-.003906-3.398437-.011719-6.777343-.015625-9.839843.441406-5.914063-1.621094-11.800782-5.65625-16.148438-4.03125-4.347656-9.75-6.839844-15.679687-6.839844h-123.703125c-5.933594 0-11.648438 2.492188-15.683594 6.839844zm149.207031 5.445312c2.5625 2.757813 3.824219 6.351563 3.53125 10.398438-.007812 3.359375 0 6.753906.003907 10.164062.050781 26.109376.101562 53.105469-6.335938 75.5-3.851562 14.320313-13.597656 23.4375-26.878906 25.035157-27.859375 4.4375-56.117188 4.4375-83.984375 0-.066407-.007813-.128907-.015625-.191407-.023438-13.414062-1.46875-22.886718-10.339843-26.648437-24.851562-6.378906-28.34375-8.523437-57.113281-6.382813-85.511719.015626-.199219.015626-.398438 0-.59375-.28125-3.761719.976563-7.351562 3.542969-10.113281 2.5625-2.761719 6.050781-4.285157 9.820313-4.285157h123.703125c3.769531-.003906 7.253906 1.515626 9.820312 4.28125zm0 0"/><path d="m51.96875 275.085938c4.675781 17.375 17.195312 28.917968 33.34375 30.859374 14.347656 2.285157 28.800781 3.421876 43.246094 3.421876 14.417968 0 28.835937-1.132813 43.15625-3.410157 16.65625-1.863281 28.84375-13.128906 33.480468-31.035156 6.53125-29.023437 8.746094-58.492187 6.578126-87.589844.347656-5.808593-1.714844-11.5625-5.671876-15.832031-4.039062-4.347656-9.753906-6.839844-15.6875-6.839844h-123.703124c-5.929688 0-11.648438 2.492188-15.679688 6.839844-4.035156 4.347656-6.09375 10.238281-5.667969 15.859375.007813 3.359375 0 6.742187-.003906 10.144531-.050781 26.664063-.097656 54.234375 6.609375 77.582032zm4.921875-98.140626c2.566406-2.761718 6.054687-4.285156 9.820313-4.285156h123.703124c3.769532 0 7.257813 1.519532 9.824219 4.285156 2.566407 2.761719 3.820313 6.351563 3.542969 10.109376-.015625.199218-.015625.398437 0 .597656 2.144531 28.402344-.003906 57.167968-6.351562 85.386718-3.792969 14.636719-13.265626 23.503907-26.675782 24.976563-.066406.007813-.128906.015625-.195312.023437-27.855469 4.441407-56.113282 4.441407-84.128906-.019531-13.132813-1.578125-22.878907-10.699219-26.75-25.082031-6.414063-22.324219-6.367188-49.316406-6.320313-75.421875.003906-3.414063.011719-6.8125-.007813-10.460937-.28125-3.757813.976563-7.351563 3.539063-10.109376zm0 0"/></g></svg>