<svg height="488pt" viewBox="-143 0 488 488.088" width="488pt" xmlns="http://www.w3.org/2000/svg"><path d="m203.003906 390.015625c-2.242187-6.824219-9.5-17.714844-16.515625-28.25-4.4375-6.664063-8.632812-12.960937-10.171875-16.289063-1.800781-3.890624-8.375-7.5-25.332031-16.074218-8.644531-4.371094-18.445313-9.328125-26.132813-14.125-.355468-.222656-.738281-.390625-1.109374-.589844 2.152343-2.464844 3.5-5.648438 3.5-9.167969v-9.324219c0-5.289062-2.976563-9.84375-7.308594-12.230468 1.421875-1.953125 2.292968-4.335938 2.292968-6.933594v-6.015625c0-1.289063-.261718-2.507813-.644531-3.667969 13.015625-6.046875 19.441407-17.679687 19.441407-35.125l1.773437-42.234375c.09375-2.207031 2.277344-63.621093 2.355469-65.828125l2.121094-55.429687c0-29.074219-23.65625-52.730469-52.734376-52.730469-29.078124 0-52.734374 23.65625-52.730468 52.882812l6.246094 163.171876c0 17.554687 6.429687 29.226562 19.449218 35.285156-.382812 1.164062-.644531 2.382812-.644531 3.675781v6.015625c0 2.597656.871094 4.980469 2.292969 6.933594-4.332032 2.386718-7.3125 6.941406-7.3125 12.230468v9.324219c0 4.066407 1.769531 7.699219 4.539062 10.265625l-3.023437 4.136719c-1.582031 1.90625-19.109375 23.425781-25.757813 48.378906l-6.667968 25.019531c-.292969 1.085938-.050782 2.210938.550781 3.152344-6.164063 13.171875-13.902344 30.480469-15.164063 41.296875-1.128906 9.683594 1.335938 16.402344 6.59375 17.96875 1.789063.539063 3.40625.820313 4.925782.820313 4.339843 0 7.925781-2.3125 12.683593-7.6875 5.457031-6.160156 11.453125-17.972656 17.078125-30.800782-1.585937 14.699219-2.96875 32.042969-1.054687 42.5625.902343 4.933594 3.820312 16.488282 11.519531 17.074219.5625.046875 1.097656.066407 1.613281.066407 7.195313 0 10.28125-4.109376 13.511719-11.890626 4.582031-11.011718 6.753906-34.027343 8.0625-55.066406.617188 18.78125 1.765625 43.390625 5.828125 57.523438 2.015625 7.03125 6.5 18.933594 13.828125 19.648437.675781.066407 1.316406.101563 1.925781.101563 7.65625 0 10.347657-5.167969 12.441407-14.398438 2.914062-12.859375 1.636718-39.667968-.277344-64.5625 4.539062 16.820313 10.328125 36.414063 16.410156 47.832032 3.351562 6.292968 9.925781 16.695312 16.761719 16.695312.144531 0 .289062-.003906.433593-.011719 9.996094-.648437 10.738282-8.144531 10.648438-16.433593-.140625-12.636719-7.046875-37.625-14.230469-61 .453125-.839844.683594-1.785157.46875-2.734376-.175781-.777343-2.203125-9.601562-6.832031-22.554687 2.78125 1.894531 4.660156 3.628906 4.871094 4.949219 1.363281 8.570312 14.953125 21.507812 27.96875 26.632812 2.546875 1 5.234375 1.488282 7.824218 1.488282 4.3125 0 8.355469-1.347657 11.058594-3.902344 2.882813-2.71875 3.839844-6.390625 2.625-10.074219zm0 0" fill="#e6e7e8"/><path d="m99.835938 249.414062c-5.980469 1.984376-13.105469 2.878907-21.292969 2.878907-8.183594 0-15.308594-.894531-21.289063-2.878907-1.46875 1.425782-2.394531 3.40625-2.394531 5.601563v6.019531c0 4.296875 3.515625 7.8125 7.816406 7.8125h31.738281c4.292969 0 7.8125-3.515625 7.8125-7.8125v-6.019531c.003907-2.195313-.921874-4.175781-2.390624-5.601563zm0 0" fill="#d4fbff"/><path d="m78.542969 3.996094c-26.800781 0-48.730469 21.929687-48.730469 48.730468l6.25 163.324219c0 26.804688 15.683594 36.242188 42.488281 36.242188 26.800781 0 42.484375-9.4375 42.484375-36.242188l6.25-163.324219c-.003906-26.796874-21.9375-48.730468-48.742187-48.730468zm0 0" fill="#fff"/><path d="m97.230469 270.175781h-37.363281c-5.511719 0-10.019532 4.507813-10.019532 10.019531v9.324219c0 5.511719 4.507813 10.019531 10.019532 10.019531h37.363281c5.511719 0 10.019531-4.507812 10.019531-10.019531v-9.324219c-.003906-5.511718-4.511719-10.019531-10.019531-10.019531zm0 0" fill="#6dc9f7"/><path d="m118.597656 25.09375c-7.867187-5.457031-17.394531-8.683594-27.636718-8.683594-26.804688 0-48.730469 21.929688-48.730469 48.734375l6.246093 163.324219c0 7.65625 1.320313 13.851562 3.773438 18.859375 6.84375 3.457031 15.683594 4.96875 26.300781 4.96875 26.800781 0 42.484375-9.4375 42.484375-36.242187l6.25-163.324219c-.003906-10.246094-3.226562-19.769531-8.6875-27.636719zm0 0" fill="#6dc9f7"/><g fill="#fa759e"><path d="m183.203125 375.265625c-3.523437-10.730469-22.460937-35.351563-26.519531-44.105469-2.414063-5.214844-31.523438-16.980468-49.949219-28.488281-1.808594-1.128906-3.804687-1.824219-5.800781-2.175781 10.65625 15.644531 18.441406 31.746094 23.90625 45.226562 8.703125 4.546875 15.988281 9.398438 16.644531 13.519532 1.078125 6.78125 13.328125 18.753906 25.480469 23.539062 8.84375 3.476562 18.394531-.953125 16.238281-7.515625zm0 0"/><path d="m20.902344 378.351562c-6.222656 13.199219-15.296875 32.632813-16.609375 43.882813-.753907 6.449219.234375 12.625 3.765625 13.675781 5.011718 1.496094 7.75.773438 13.46875-5.6875 8.449218-9.539062 18.90625-35.050781 25.503906-51.871094zm0 0"/><path d="m49.460938 378.351562c-.871094 1.402344-1.503907 2.988282-1.6875 4.769532-1.425782 13.875-6.085938 45.464844-3.292969 60.792968 1.296875 7.117188 4.167969 13.523438 7.878906 13.800782 5.273437.402344 7.671875-1.039063 11.136719-9.367188 5.136718-12.347656 7.179687-42.503906 8.25-62.183594.160156-2.925781-.742188-5.605468-2.21875-7.816406h-20.066406zm0 0"/><path d="m103.445312 378.351562h-24.738281c.710938 17.023438.941407 54.519532 6.214844 72.886719 2.476563 8.621094 6.476563 16.390625 10.375 16.773438 5.539063.542969 7.800781-1.171875 10.074219-11.203125 3.375-14.871094.710937-51.304688-1.308594-75.085938-.097656-1.15625-.316406-2.277344-.617188-3.371094zm0 0"/><path d="m134.273438 378.351562h-25.042969c4.757812 18.203126 12.070312 46.382813 19.710937 60.726563 4.226563 7.9375 9.6875 14.816406 13.410156 14.574219 5.289063-.34375 7.015626-2.351563 6.90625-12.394532-.144531-12.953124-8.175781-40.933593-14.984374-62.90625zm0 0"/><path d="m50.515625 306.382812s-18.382813 21.929688-25.050781 46.949219c-6.664063 25.019531-6.664063 25.019531-6.664063 25.019531h116.796875s-9.207031-40.964843-35.304687-78.8125h-44.777344zm0 0"/></g><path d="m91.84375 45.59375h-26.59375c-9.804688 0-17.828125 8.019531-17.828125 17.828125 0 9.800781 8.019531 17.824219 17.828125 17.824219h26.59375c9.804688 0 17.828125-8.019532 17.828125-17.824219 0-9.808594-8.023437-17.828125-17.828125-17.828125zm0 0" fill="#d4fbff"/><path d="m124.550781 124.144531c-2.144531-.027343-4.066406 1.640625-4.152343 3.84375l-.917969 23.980469c-.082031 2.207031 1.640625 4.0625 3.84375 4.152344h.15625c2.140625 0 3.914062-1.691406 3.996093-3.847656l.917969-23.980469c.082031-2.203125-1.640625-4.0625-3.84375-4.148438zm0 0" fill="#3a2c60"/><path d="m187.003906 374.015625c-2.242187-6.824219-9.5-17.714844-16.515625-28.25-4.4375-6.664063-8.632812-12.960937-10.171875-16.289063-1.800781-3.890624-8.375-7.5-25.332031-16.074218-8.644531-4.371094-18.445313-9.328125-26.132813-14.125-.355468-.222656-.738281-.390625-1.105468-.589844 2.152344-2.464844 3.5-5.648438 3.5-9.171875v-9.324219c0-5.289062-2.976563-9.84375-7.3125-12.230468 1.421875-1.953126 2.292968-4.332032 2.292968-6.933594v-6.015625c0-1.277344-.222656-2.507813-.617187-3.679688 13-6.050781 19.417969-17.679687 19.417969-35.113281l1.773437-42.234375c.09375-2.207031-1.621093-4.074219-3.828125-4.164063-2.1875-.0625-4.070312 1.621094-4.164062 3.828126l-1.777344 42.402343c0 22.597657-11.507812 32.242188-38.488281 32.242188-26.976563 0-38.484375-9.644531-38.484375-32.394531l-6.25-163.171876c0-24.667968 20.066406-44.730468 44.734375-44.730468s44.734375 20.066406 44.738281 44.578125l-2.113281 55.277343c-.082031 2.207032 1.640625 4.0625 3.84375 4.152344 2.1875.152344 4.070312-1.640625 4.148437-3.84375l2.117188-55.429687c0-29.074219-23.65625-52.730469-52.734375-52.730469s-52.734375 23.65625-52.730469 52.882812l6.246094 163.171876c0 17.542968 6.421875 29.210937 19.421875 35.273437-.398438 1.171875-.621094 2.410156-.621094 3.6875v6.015625c0 2.597656.871094 4.980469 2.292969 6.933594-4.332032 2.386718-7.3125 6.941406-7.3125 12.230468v9.324219c0 4.066407 1.769531 7.699219 4.539062 10.261719l-3.023437 4.140625c-1.582031 1.910156-19.113281 23.425781-25.761719 48.378906l-6.667969 25.019531c-.292969 1.085938-.050781 2.214844.550781 3.15625-6.164062 13.175782-13.902343 30.480469-15.164062 41.296876-1.128906 9.683593 1.335938 16.402343 6.59375 17.96875 1.789062.539062 3.40625.820312 4.925781.820312 4.34375 0 7.925781-2.308594 12.683594-7.6875 5.457031-6.164062 11.453125-17.976562 17.078125-30.804688-1.589844 14.695313-2.96875 32.042969-1.058594 42.566407.902344 4.933593 3.820313 16.488281 11.519532 17.070312.5625.046875 1.097656.066407 1.617187.066407 7.195313 0 10.277344-4.109376 13.511719-11.886719 4.582031-11.015625 6.757812-34.023438 8.0625-55.058594.617187 18.773437 1.765625 43.382813 5.828125 57.515625 2.015625 7.03125 6.5 18.933594 13.832031 19.648438.675781.066406 1.316406.101562 1.925781.101562 7.65625 0 10.34375-5.167969 12.4375-14.398438 2.914063-12.859374 1.636719-39.675781-.277343-64.570312 4.542968 16.824219 10.332031 36.417969 16.414062 47.839844 3.351562 6.292968 9.925781 16.695312 16.765625 16.695312.144531 0 .289063-.003906.433594-.011718 9.992187-.648438 10.738281-8.144532 10.648437-16.433594-.140625-12.644532-7.046875-37.636719-14.226562-61 .453125-.839844.679687-1.785156.46875-2.734375-.175782-.777344-2.203125-9.601563-6.832032-22.554688 2.785157 1.894531 4.660157 3.625 4.867188 4.945313 1.363281 8.570312 14.953125 21.507812 27.96875 26.632812 2.550781 1 5.234375 1.488282 7.824219 1.488282 4.308593 0 8.351562-1.34375 11.0625-3.898438 2.875-2.722656 3.832031-6.394531 2.617187-10.078125zm-128.140625-119c0-.3125.042969-.621094.113281-.914063 5.589844 1.472657 12.027344 2.195313 19.566407 2.195313 7.546875 0 13.980469-.722656 19.570312-2.195313.074219.292969.117188.601563.117188.914063v6.015625c0 2.105469-1.714844 3.816406-3.816407 3.816406h-31.738281c-2.101562 0-3.816406-1.710937-3.816406-3.816406v-6.015625zm-5.015625 25.179687c0-3.320312 2.703125-6.019531 6.019532-6.019531h37.363281c3.320312 0 6.019531 2.699219 6.019531 6.019531v9.324219c0 3.320313-2.699219 6.019531-6.019531 6.019531h-37.363281c-3.316407 0-6.019532-2.699218-6.019532-6.019531zm-35.3125 147.375c-5.105468 5.773438-6.34375 5.402344-9.230468 4.558594-.523438-.40625-1.742188-3.390625-1.039063-9.429687 1.167969-10.015625 9.140625-27.492188 15.175781-40.347657h17.703125c-6.71875 16.816407-15.542969 37.246094-22.609375 45.21875zm41.269532 19.246094c-3.003907 7.230469-4.136719 7.148438-7.007813 6.941406-.929687-.386718-3.164063-3.878906-4.378906-10.558593-2.199219-12.082031.539062-35.488281 2.351562-50.972657.386719-3.320312.734375-6.277343.984375-8.699218.042969-.414063.152344-.796875.257813-1.175782h15.117187c.4375 1.144532.695313 2.359376.628906 3.597657-1.121093 20.613281-3.160156 49.347656-7.953124 60.867187zm41.667968 9.109375c-1.917968 8.476563-2.894531 8.390625-5.660156 8.125-1.066406-.390625-4.328125-4.4375-7.046875-13.914062-4.269531-14.863281-5.144531-43.257813-5.726563-62.042969-.0625-2.058594-.121093-3.953125-.183593-5.742188h17.246093c2.109376 24.980469 4.535157 59.625 1.371094 73.574219zm-77.46875-81.574219 5.328125-19.992187c6.347657-23.832031 24.078125-45.195313 24.253907-45.40625.054687-.070313.109374-.136719.164062-.210937l3.800781-5.203126h40.628907c19.351562 28.71875 29.019531 59.191407 32.25 70.8125zm121.253906 66.949219c.085938 8.152344-.664062 8.199219-2.988281 8.363281-1.113281-.230468-5.128906-3.695312-9.796875-12.46875-6.753906-12.6875-13.363281-36.96875-18.058594-54.847656h16.90625c6.730469 21.910156 13.808594 47.1875 13.9375 58.953125zm33.636719-63.027343c-1.804687 1.695312-6.210937 2.449218-10.460937.78125-11.628906-4.574219-22.234375-15.640626-22.996094-20.4375-.855469-5.386719-7.480469-10.4375-17.394531-15.71875-4.074219-9.902344-9.378907-21.117188-16.125-32.550782 6.328125 3.542969 13.179687 7.023438 19.453125 10.199219 9.003906 4.558594 20.210937 10.222656 21.683594 12.292969 1.796874 3.886718 5.953124 10.132812 10.769531 17.359375 6.089843 9.144531 13.667969 20.519531 15.574219 26.3125.203124.605469.1875 1.109375-.503907 1.761719zm0 0" fill="#3a2c60"/><path d="m91.84375 41.59375h-26.59375c-12.039062 0-21.828125 9.789062-21.828125 21.828125 0 12.035156 9.789063 21.824219 21.828125 21.824219h26.59375c12.035156 0 21.828125-9.789063 21.828125-21.824219 0-12.039063-9.792969-21.828125-21.828125-21.828125zm0 35.648438h-26.59375c-7.625 0-13.828125-6.203126-13.828125-13.828126 0-7.621093 6.203125-13.824218 13.828125-13.824218h26.59375c7.625 0 13.828125 6.203125 13.828125 13.824218 0 7.625-6.203125 13.828126-13.828125 13.828126zm0 0" fill="#3a2c60"/><path d="m78.542969 204.59375c-6.453125 0-11.734375 5.277344-11.734375 11.734375s5.28125 11.734375 11.734375 11.734375c6.457031 0 11.738281-5.277344 11.738281-11.734375s-5.28125-11.734375-11.738281-11.734375zm0 0" fill="#ffd7e5"/><path d="m78.542969 95.976562c-6.453125 0-11.734375 5.28125-11.734375 11.734376 0 6.457031 5.28125 11.738281 11.734375 11.738281 6.457031 0 11.738281-5.28125 11.738281-11.738281 0-6.453126-5.28125-11.734376-11.738281-11.734376zm0 0" fill="#ffd7e5"/><path d="m80.097656 314.40625c-4.4375 0-8.070312 3.632812-8.070312 8.070312 0 4.433594 3.632812 8.066407 8.070312 8.066407 4.433594 0 8.066406-3.632813 8.066406-8.066407 0-4.4375-3.632812-8.070312-8.066406-8.070312zm0 0" fill="#ffd7e5"/></svg>