<svg height="466pt" viewBox="-131 0 466 466.68506" width="466pt" xmlns="http://www.w3.org/2000/svg"><path d="m203.480469 434.269531c-2.492188-4.597656-7.171875-7.234375-12.832031-7.234375-16.730469 0-52.761719-15.597656-63.394532-24.316406-3.421875-2.808594-7.589844-4.289062-12.050781-4.289062h-1.988281v-123.632813c16.050781-7.253906 27.269531-23.386719 27.269531-42.117187 0-5.039063-.84375-9.882813-2.34375-14.429688 21.980469-17.195312 34.019531-50.96875 34.019531-98.265625 0-56.914063 0-82.894531-13.859375-95.519531-10.074219-9.179688-26.601562-9.617188-51.402343-7.285156-10.667969.015624-19.347657 8.710937-19.347657 19.378906v29.675781c0 6.46875-5.265625 11.738281-11.742187 11.738281h-38.683594c-10.050781 0-18.5 7.617188-19.652344 17.714844-.753906 6.65625-1.132812 21.871094-1.132812 28.511719 0 41.195312 12.953125 73.128906 35.128906 91.019531-2.207031 5.390625-3.445312 11.277344-3.445312 17.457031 0 18.730469 11.214843 34.859375 27.261718 42.117188v123.65625c-7.648437.121093-14.160156 6.398437-15.191406 14.726562l-1.664062 13.472657c-.449219 3.65625-1.523438 8.964843-2.476563 13.652343-.363281 1.804688-.707031 3.5-.984375 4.945313-.855469 4.5.375 9.160156 3.375 12.785156 4.667969 5.640625 12.976562 8.5 24.695312 8.5h62.453126l25.597656-.011719c1.332031.109375 2.640625.164063 3.921875.164063 11.734375 0 21.320312-4.511719 26.648437-12.679688 4.148438-6.363281 4.863282-14.105468 1.820313-19.734375zm0 0" fill="#e6e7e8"/><path d="m93.21875 386.429688v-130.296876c-4.65625 1.769532-9.6875 2.78125-14.964844 2.78125-5.273437 0-10.308594-1.011718-14.964844-2.78125v130.296876zm0 0" fill="#6dc9f7"/><path d="m90.910156 5.179688c-8.484375.011718-15.355468 6.894531-15.355468 15.378906v29.675781c0 8.691406-7.046876 15.738281-15.738282 15.738281h-38.6875c-8.082031 0-14.757812 6.132813-15.675781 14.164063-.726563 6.386719-1.109375 21.382812-1.109375 28.0625 0 43.085937 13.886719 73.628906 36.085938 89.777343 6.90625-13.929687 21.226562-23.53125 37.824218-23.53125 17.667969 0 32.785156 10.859376 39.085938 26.257813 22.867187-16.171875 34.828125-50.230469 34.828125-96.71875 0-92.566406 0-104.523437-61.257813-98.804687zm0 0" fill="#fa759e"/><path d="m120.488281 216.679688c0 23.324218-18.910156 42.234374-42.234375 42.234374-23.324218 0-42.230468-18.910156-42.230468-42.234374 0-23.324219 18.90625-42.230469 42.230468-42.230469 23.324219 0 42.234375 18.90625 42.234375 42.230469zm0 0" fill="#0089ef"/><path d="m78.25 199.761719c-9.328125 0-16.917969 7.589843-16.917969 16.917969 0 9.328124 7.585938 16.917968 16.917969 16.917968s16.921875-7.589844 16.921875-16.917968c0-9.328126-7.589844-16.917969-16.921875-16.917969zm0 0" fill="#ffd7e5"/><path d="m48.066406 397.671875-1.664062 13.476563c-.648438 5.261718-2.507813 13.664062-3.5 18.851562-1.183594 6.199219 2.605468 16.542969 24.140625 16.542969h88.375c33.0625 2.703125 37.613281-31.5 19.230469-31.5-18.464844 0-55.101563-16.351563-65.929688-25.226563-2.761719-2.257812-6.109375-3.382812-9.515625-3.382812h-39.699219c-5.761718-.003906-10.640625 4.792968-11.4375 11.238281zm0 0" fill="#fff"/><path d="m155.417969 446.535156c16.265625 1.328125 25.597656-6.273437 28.722656-14.34375-1.742187-2.6875-4.667969-4.5-8.835937-4.5-18.460938 0-55.097657-16.347656-65.925782-25.222656-2.761718-2.257812-6.109375-3.382812-9.515625-3.382812h-39.699219c-5.761718 0-10.640624 4.796874-11.4375 11.242187l-1.664062 13.476563c-.484375 3.910156-1.632812 9.550781-2.601562 14.324218 2.777343 4.472656 9.292968 8.414063 22.585937 8.414063h88.371094zm0 0" fill="#fa759e"/><g fill="#3a2c60"><path d="m187.480469 418.269531c-2.492188-4.597656-7.171875-7.234375-12.832031-7.234375-16.730469 0-52.761719-15.597656-63.394532-24.316406-3.421875-2.808594-7.589844-4.289062-12.050781-4.289062h-1.988281v-123.632813c16.050781-7.253906 27.269531-23.386719 27.269531-42.117187 0-5.101563-.867187-10.003907-2.402344-14.597657 22.289063-17.492187 34.082031-51.28125 34.082031-98.09375 0-56.914062 0-82.894531-13.859374-95.519531-10.054688-9.15625-26.527344-9.613281-51.59375-7.28125-10.582032.117188-19.15625 8.769531-19.15625 19.378906v29.675782c0 6.472656-5.265626 11.738281-11.738282 11.738281h-38.6875c-10.050781 0-18.5 7.617187-19.648437 17.714843-.757813 6.644532-1.136719 21.863282-1.136719 28.519532 0 40.738281 12.472656 72.84375 35.144531 90.964844-2.222656 5.40625-3.46875 11.3125-3.46875 17.507812 0 18.734375 11.214844 34.863281 27.265625 42.121094v123.652344c-7.648437.121093-14.164062 6.398437-15.191406 14.730468l-1.664062 13.472656c-.449219 3.652344-1.523438 8.960938-2.472657 13.644532-.367187 1.808594-.707031 3.503906-.988281 4.957031-.855469 4.5.375 9.160156 3.375 12.785156 4.667969 5.636719 12.976562 8.5 24.695312 8.5h6.390626c2.207031 0 4-1.792969 4-4 0-2.210937-1.792969-4-4-4h-6.390626c-11.488281 0-16.421874-3.046875-18.53125-5.601562-2.097656-2.53125-1.871093-5.171875-1.675781-6.1875.269531-1.425781.605469-3.089844.964844-4.863281.976563-4.824219 2.085937-10.292969 2.578125-14.253907l1.664062-13.472656c.542969-4.40625 3.75-7.730469 7.46875-7.730469h39.699219c2.585938 0 5.003907.855469 6.980469 2.476563 10.765625 8.832031 48.4375 26.132812 68.464844 26.132812 2.75 0 4.699218 1.023438 5.792968 3.042969 1.644532 3.03125 1.050782 7.675781-1.484374 11.550781-4.253907 6.527344-12.734376 9.777344-23.539063 8.90625h-25.921875c-2.210938 0-4 1.789063-4 4 0 2.207031 1.789062 4 4 4l25.597656-.015625c1.332032.109375 2.640625.164063 3.921875.164063 11.734375 0 21.320313-4.511719 26.648438-12.679688 4.140625-6.378906 4.855469-14.121093 1.8125-19.75zm-148.253907-226.308593c-19.957031-16.761719-30.882812-46.273438-30.882812-83.757813 0-6.308594.371094-21.355469 1.082031-27.609375.6875-6.058594 5.722657-10.621094 11.703125-10.621094h38.6875c10.882813 0 19.738282-8.855468 19.738282-19.738281v-29.675781c0-6.265625 5.097656-11.371094 11.359374-11.378906.121094 0 .246094-.003907.363282-.015626 22.929687-2.140624 37.75-1.976562 45.640625 5.21875 11.246093 10.242188 11.246093 36.761719 11.246093 89.601563 0 43.066406-10.128906 74.203125-29.355468 90.515625-.070313-.132812-.167969-.246094-.238282-.375-.792968-1.40625-1.660156-2.761719-2.585937-4.070312-.4375-.617188-.890625-1.214844-1.355469-1.804688-.628906-.804688-1.289062-1.582031-1.96875-2.339844-.566406-.632812-1.109375-1.277344-1.703125-1.875-1.078125-1.078125-2.210937-2.101562-3.390625-3.074218-.738281-.609376-1.515625-1.152344-2.289062-1.710938-.675782-.488281-1.355469-.964844-2.054688-1.421875-.777344-.5-1.550781-.984375-2.359375-1.433594-.917969-.515625-1.863281-.980469-2.820312-1.4375-.777344-.367187-1.539063-.742187-2.339844-1.066406-1.421875-.585937-2.878906-1.09375-4.367187-1.535156-.613282-.179688-1.234376-.324219-1.851563-.472657-1.261719-.316406-2.542969-.582031-3.835937-.789062-.582032-.09375-1.152344-.191406-1.738282-.265625-1.859375-.226563-3.738281-.382813-5.664062-.382813-1.824219 0-3.617188.132813-5.382813.339844-.613281.070313-1.210937.183594-1.820312.28125-1.136719.179688-2.257813.386719-3.363281.648438-.730469.167968-1.445313.351562-2.15625.554687-.949219.273438-1.875.585938-2.800782.914063-.757812.269531-1.515625.519531-2.253906.828125-.90625.382812-1.78125.824219-2.664062 1.261719-1.34375.664062-2.640626 1.390624-3.914063 2.183593-.632813.394531-1.273437.777344-1.878906 1.199219-.765625.53125-1.5 1.097656-2.238281 1.671875-.652344.511719-1.285157 1.046875-1.910157 1.589844-.625.546875-1.246093 1.085937-1.839843 1.671875-1.03125 1.003906-2.011719 2.058594-2.949219 3.15625-.148438.175781-.316407.328125-.460938.507812-1.171875 1.414063-2.226562 2.917969-3.226562 4.46875-.042969.085938-.109375.15625-.160157.238282zm.796876 24.71875c0-21.078126 17.152343-38.230469 38.230468-38.230469 21.085938 0 38.234375 17.152343 38.234375 38.230469 0 21.085937-17.152343 38.234374-38.234375 38.234374-21.082031 0-38.230468-17.152343-38.230468-38.234374zm32.066406 45.773437c.292968.039063.582031.101563.871094.132813 1.742187.199218 3.496093.328124 5.289062.328124s3.546875-.128906 5.289062-.328124c.296876-.035157.585938-.097657.882813-.136719 1.507813-.203125 2.996094-.476563 4.457031-.820313.113282-.027344.222656-.035156.335938-.0625v120.859375h-21.929688v-120.855469c.109375.027344.222656.035157.332032.058594 1.46875.347656 2.957031.621094 4.472656.824219zm0 0"/><path d="m114.035156 442.535156h-23.347656c-2.207031 0-4 1.792969-4 4 0 2.210938 1.792969 4 4 4h23.347656c2.207032 0 4-1.789062 4-4 0-2.207031-1.792968-4-4-4zm0 0"/></g></svg>