<svg height="492.26pt" viewBox="0 0 492.26 492.26" width="492.26pt" xmlns="http://www.w3.org/2000/svg"><path d="m185.019531 142.203125h31.34375v55.058594c0 8.460937 6.890625 15.351562 15.351563 15.351562h44.824218c8.464844 0 15.351563-6.890625 15.351563-15.351562v-55.058594h31.339844c6.644531 0 12.613281-3.695313 15.574219-9.644531 2.960937-5.945313 2.3125-12.9375-1.695313-18.238282l-69.105469-91.417968c-3.320312-4.386719-8.375-6.902344-13.875-6.902344s-10.5625 2.515625-13.875 6.90625l-69.109375 91.414062c-4.003906 5.300782-4.65625 12.292969-1.695312 18.238282 2.957031 5.949218 8.925781 9.644531 15.570312 9.644531zm0 0" fill="#e6e7e8"/><path d="m323.234375 366.050781h-31.339844v-55.054687c0-8.464844-6.886719-15.351563-15.351562-15.351563h-44.828125c-8.460938 0-15.351563 6.886719-15.351563 15.351563v55.054687h-31.34375c-6.644531 0-12.613281 3.695313-15.570312 9.644531-2.960938 5.949219-2.3125 12.941407 1.695312 18.242188l69.109375 91.414062c3.316406 4.386719 8.375 6.910157 13.875 6.910157s10.554688-2.519531 13.875-6.910157l69.109375-91.414062c4.007813-5.300781 4.65625-12.292969 1.695313-18.242188-2.960938-5.949218-8.929688-9.644531-15.574219-9.644531zm0 0" fill="#e6e7e8"/><path d="m485.351562 240.253906-91.414062-69.105468c-5.300781-4.007813-12.285156-4.664063-18.238281-1.699219-5.953125 2.957031-9.648438 8.925781-9.648438 15.574219v31.34375h-55.050781c-8.464844 0-15.351562 6.890624-15.351562 15.351562v44.824219c0 8.464843 6.886718 15.351562 15.351562 15.351562h55.054688v31.34375c0 6.648438 3.699218 12.613281 9.648437 15.578125 2.476563 1.230469 5.128906 1.835938 7.765625 1.835938 3.703125 0 7.375-1.195313 10.472656-3.535156l91.414063-69.105469c4.386719-3.320313 6.90625-8.375 6.90625-13.875s-2.523438-10.570313-6.910157-13.882813zm0 0" fill="#e6e7e8"/><path d="m212.613281 276.539062v-44.824218c0-8.460938-6.890625-15.351563-15.351562-15.351563h-55.058594v-31.34375c0-6.644531-3.695313-12.613281-9.648437-15.570312-5.945313-2.964844-12.9375-2.3125-18.238282 1.695312l-91.410156 69.109375c-4.390625 3.3125-6.90625 8.371094-6.90625 13.875s2.515625 10.558594 6.90625 13.875l91.417969 69.105469c3.097656 2.339844 6.769531 3.535156 10.472656 3.535156 2.640625 0 5.292969-.605469 7.765625-1.835937 5.953125-2.960938 9.648438-8.929688 9.648438-15.574219v-31.34375h55.058593c8.453125 0 15.34375-6.886719 15.34375-15.351563zm0 0" fill="#e6e7e8"/><path d="m317.921875 100.730469-69.109375-91.414063c-5.359375-7.089844-16.011719-7.089844-21.367188 0l-69.109374 91.414063c-6.671876 8.824219-.375 21.472656 10.683593 21.472656h35.34375v59.058594c0 6.265625 5.085938 11.351562 11.351563 11.351562h44.824218c6.269532 0 11.351563-5.085937 11.351563-11.351562v-59.058594h35.34375c11.0625 0 17.359375-12.648437 10.6875-21.472656zm0 0" fill="#fa759e"/><path d="m158.335938 375.523438 69.109374 91.417968c5.359376 7.085938 16.011719 7.085938 21.367188 0l69.109375-91.417968c6.671875-8.824219.375-21.472657-10.6875-21.472657h-35.34375v-59.054687c0-6.269532-5.082031-11.351563-11.351563-11.351563h-44.824218c-6.265625 0-11.351563 5.082031-11.351563 11.351563v59.054687h-35.34375c-11.058593 0-17.351562 12.648438-10.683593 21.472657zm0 0" fill="#fa759e"/><path d="m375.523438 317.921875 91.417968-69.109375c7.085938-5.359375 7.085938-16.011719 0-21.367188l-91.417968-69.109374c-8.824219-6.671876-21.472657-.375-21.472657 10.683593v35.34375h-59.054687c-6.269532 0-11.351563 5.085938-11.351563 11.351563v44.824218c0 6.269532 5.082031 11.351563 11.351563 11.351563h59.054687v35.34375c0 11.0625 12.648438 17.355469 21.472657 10.6875zm0 0" fill="#fff"/><path d="m365.738281 180.707031v35.34375h-59.050781c-6.265625 0-11.351562 5.085938-11.351562 11.351563v44.488281h58.714843v11.6875h11.6875v35.347656c0 .546875.058594 1.070313.117188 1.59375 3.238281.40625 6.671875-.335937 9.667969-2.597656l91.417968-69.109375c4.886719-3.695312 6.324219-9.878906 4.46875-15.136719l-84.199218-63.652343c-8.824219-6.667969-21.472657-.375-21.472657 10.683593zm0 0" fill="#fa759e"/><path d="m100.730469 158.335938-91.410157 69.109374c-7.089843 5.359376-7.089843 16.011719 0 21.367188l91.414063 69.109375c8.824219 6.671875 21.472656.375 21.472656-10.6875v-35.34375h59.058594c6.265625 0 11.351563-5.082031 11.351563-11.351563v-44.824218c0-6.265625-5.085938-11.351563-11.351563-11.351563h-59.0625v-35.34375c0-11.058593-12.648437-17.355469-21.472656-10.683593zm0 0" fill="#fa759e"/><g fill="#3a2c60"><path d="m169.019531 126.203125h31.34375v55.058594c0 8.460937 6.890625 15.347656 15.351563 15.347656h44.824218c8.464844 0 15.351563-6.890625 15.351563-15.347656v-55.058594h31.34375c6.644531 0 12.613281-3.695313 15.574219-9.648437 2.960937-5.945313 2.3125-12.933594-1.695313-18.238282l-69.109375-91.414062c-3.316406-4.386719-8.371094-6.902344-13.875-6.902344s-10.5625 2.515625-13.875 6.90625l-69.105468 91.414062c-4.007813 5.300782-4.660157 12.289063-1.695313 18.238282 2.953125 5.949218 8.921875 9.644531 15.566406 9.644531zm-7.492187-23.058594 69.109375-91.417969c1.789062-2.367187 4.523437-3.726562 7.492187-3.726562s5.703125 1.359375 7.496094 3.730469l69.101562 91.414062c2.203126 2.90625 2.542969 6.585938.917969 9.851563s-4.769531 5.207031-8.414062 5.207031h-35.34375c-2.207031 0-4 1.792969-4 4v59.058594c0 4.050781-3.296875 7.347656-7.351563 7.347656h-44.820312c-4.050782 0-7.351563-3.296875-7.351563-7.347656v-59.058594c0-2.207031-1.792969-4-4-4h-35.34375c-3.644531 0-6.789062-1.945313-8.410156-5.207031-1.625-3.261719-1.28125-6.945313.917969-9.851563zm0 0"/><path d="m307.234375 350.050781h-31.34375v-55.054687c0-8.464844-6.886719-15.351563-15.351563-15.351563h-44.824218c-8.460938 0-15.351563 6.886719-15.351563 15.351563v55.054687h-31.34375c-6.648437 0-12.613281 3.695313-15.574219 9.648438-2.960937 5.949219-2.308593 12.9375 1.699219 18.238281l69.101563 91.414062c3.320312 4.386719 8.378906 6.910157 13.878906 6.910157s10.558594-2.519531 13.875-6.910157l69.105469-91.414062c4.007812-5.300781 4.660156-12.289062 1.699219-18.238281-2.957032-5.953125-8.921876-9.648438-15.570313-9.648438zm7.492187 23.0625-69.101562 91.414063c-1.792969 2.371094-4.523438 3.734375-7.496094 3.734375s-5.703125-1.363281-7.496094-3.734375l-69.105468-91.414063c-2.195313-2.910156-2.539063-6.589843-.914063-9.847656 1.621094-3.261719 4.765625-5.210937 8.410157-5.210937h35.34375c2.207031 0 4-1.789063 4-4v-59.058594c0-4.050782 3.300781-7.351563 7.351562-7.351563h44.824219c4.054687 0 7.351562 3.300781 7.351562 7.351563v59.054687c0 2.210938 1.792969 4 4 4h35.34375c3.644531 0 6.789063 1.949219 8.414063 5.210938 1.625 3.257812 1.273437 6.941406-.925782 9.851562zm0 0"/><path d="m469.351562 224.253906-91.414062-69.109375c-5.300781-4.003906-12.285156-4.660156-18.242188-1.695312-5.949218 2.957031-9.644531 8.925781-9.644531 15.570312v31.34375h-55.054687c-8.464844 0-15.351563 6.890625-15.351563 15.351563v44.824218c0 8.464844 6.886719 15.351563 15.351563 15.351563h55.054687v31.34375c0 6.644531 3.695313 12.613281 9.644531 15.574219 2.476563 1.230468 5.132813 1.839844 7.769532 1.839844 3.703125 0 7.375-1.195313 10.472656-3.535157l28.195312-21.316406c1.757813-1.332031 2.109376-3.839844.777344-5.605469-1.335937-1.761718-3.84375-2.113281-5.601562-.78125l-28.195313 21.316406c-2.910156 2.199219-6.589843 2.546876-9.851562.917969-3.261719-1.625-5.210938-4.765625-5.210938-8.414062v-35.34375c0-2.207031-1.789062-4-4-4h-59.054687c-4.050782 0-7.351563-3.296875-7.351563-7.351563v-44.820312c0-4.050782 3.300781-7.351563 7.351563-7.351563h59.054687c2.210938 0 4-1.792969 4-4v-35.34375c0-3.644531 1.949219-6.789062 5.210938-8.410156 3.253906-1.628906 6.941406-1.285156 9.851562.914063l91.414063 69.113281c2.371094 1.792969 3.734375 4.519531 3.734375 7.496093 0 2.96875-1.363281 5.699219-3.734375 7.492188l-22.984375 17.375c-1.757813 1.332031-2.109375 3.839844-.777344 5.605469 1.332031 1.757812 3.839844 2.105469 5.601563.777343l22.984374-17.375c4.386719-3.320312 6.910157-8.375 6.910157-13.875-.003907-5.503906-2.523438-10.566406-6.910157-13.878906zm0 0"/><path d="m427.714844 273.449219-12.988282 9.820312c-1.757812 1.332031-2.109374 3.839844-.777343 5.601563.785156 1.039062 1.984375 1.589844 3.195312 1.589844.839844 0 1.6875-.265626 2.40625-.808594l12.988281-9.820313c1.761719-1.332031 2.113282-3.839843.78125-5.605469-1.335937-1.761718-3.847656-2.109374-5.605468-.777343zm0 0"/><path d="m196.613281 260.539062v-44.824218c0-8.460938-6.890625-15.351563-15.351562-15.351563h-55.058594v-31.34375c0-6.644531-3.695313-12.613281-9.644531-15.570312-5.949219-2.964844-12.9375-2.316407-18.238282 1.695312l-91.414062 69.109375c-4.390625 3.3125-6.90625 8.375-6.90625 13.875s2.515625 10.554688 6.90625 13.875l91.417969 69.109375c3.097656 2.339844 6.769531 3.535157 10.472656 3.535157 2.640625 0 5.296875-.609376 7.765625-1.839844 5.949219-2.960938 9.644531-8.929688 9.644531-15.574219v-31.34375h55.058594c8.457031 0 15.347656-6.886719 15.347656-15.351563zm-74.410156 7.351563c-2.207031 0-4 1.792969-4 4v35.34375c0 3.644531-1.945313 6.789063-5.207031 8.414063-3.269532 1.628906-6.949219 1.28125-9.851563-.917969l-91.414062-69.109375c-2.371094-1.792969-3.730469-4.523438-3.730469-7.492188 0-2.972656 1.359375-5.703125 3.730469-7.496094l91.414062-69.105468c2.902344-2.199219 6.582031-2.542969 9.851563-.914063 3.261718 1.621094 5.207031 4.765625 5.207031 8.410157v35.34375c0 2.207031 1.792969 4 4 4h59.058594c4.050781 0 7.351562 3.300781 7.351562 7.351562v44.824219c0 4.054687-3.300781 7.351562-7.351562 7.351562h-59.058594zm0 0"/></g></svg>