<svg height="448pt" viewBox="0 0 448.248 448" width="448pt" xmlns="http://www.w3.org/2000/svg"><path d="m415.054688 69.371094h-24.027344v-29.175782c0-13.269531-10.800782-24.070312-24.074219-24.070312h-156.304687c-11.761719 0-21.5625 8.484375-23.648438 19.644531-4.632812 3.675781-7.660156 9.289063-7.660156 15.664063v17.9375h-130.148438c-18.304687 0-33.191406 14.890625-33.191406 33.191406v237.425781c0 18.304688 14.886719 33.191407 33.191406 33.191407h127.164063v36.085937h-56.40625c-12.609375 0-22.871094 10.257813-22.871094 22.867187v11.347657c0 2.207031 1.792969 4 4 4h262.089844c2.207031 0 4-1.792969 4-4v-11.347657c0-12.609374-10.257813-22.867187-22.867188-22.867187h-56.40625v-36.085937h127.160157c18.304687 0 33.191406-14.886719 33.191406-33.191407v-237.425781c0-18.300781-14.886719-33.191406-33.191406-33.191406zm0 0" fill="#e6e7e8"/><path d="m164.351562 353.175781h103.539063v44.089844h-103.539063zm0 0" fill="#0089ef"/><path d="m328.300781 397.265625h-224.351562c-10.421875 0-18.871094 8.445313-18.871094 18.867187v11.351563h262.089844v-11.351563c0-10.421874-8.449219-18.867187-18.867188-18.867187zm0 0" fill="#6dc9f7"/><path d="m399.054688 57.371094h-28.027344v60.390625c0 11.089843-8.988282 20.078125-20.074219 20.078125h-98.96875l-46.101563 40.878906v-40.878906h-11.234374c-11.089844 0-20.078126-8.988282-20.078126-20.078125v-60.390625h-141.378906c-16.125 0-29.191406 13.070312-29.191406 29.191406v237.425781c0 16.121094 13.066406 29.191407 29.191406 29.191407h365.863282c16.121093 0 29.191406-13.066407 29.191406-29.191407v-237.425781c0-16.121094-13.066406-29.191406-29.191406-29.191406zm0 0" fill="#6dc9f7"/><path d="m379.238281 77.191406h-8.207031v40.570313c0 11.089843-8.988281 20.078125-20.074219 20.078125h-98.972656l-46.101563 40.878906v-40.878906h-11.234374c-11.089844 0-20.078126-8.988282-20.078126-20.078125v-40.570313h-121.5625c-16.121093 0-29.191406 13.070313-29.191406 29.191406v179.878907c0 16.117187 13.066406 29.191406 29.191406 29.191406h326.226563c16.121094 0 29.195313-13.070313 29.195313-29.191406v-179.878907c0-16.121093-13.070313-29.191406-29.191407-29.191406zm0 0" fill="#d4fbff"/><path d="m216.125 323.738281c-4.652344 0-8.425781 3.773438-8.425781 8.425781 0 4.652344 3.773437 8.425782 8.425781 8.425782s8.421875-3.773438 8.421875-8.425782c0-4.652343-3.769531-8.425781-8.421875-8.425781zm0 0" fill="#fff"/><path d="m78.589844 169.445312v-57.597656l.777344-.515625c-.257813-.007812-.515626-.039062-.777344-.039062-16.214844 0-29.359375 13.144531-29.359375 29.355469 0 16.210937 13.144531 29.355468 29.359375 29.355468.261718 0 .515625-.03125.777344-.039062zm0 0" fill="#fa759e"/><path d="m124.441406 122.617188v36.058593c9.957032 0 18.03125-8.070312 18.03125-18.03125-.003906-9.957031-8.078125-18.027343-18.03125-18.027343zm0 0" fill="#fa759e"/><path d="m124.441406 122.617188v36.058593c9.957032 0 18.03125-8.070312 18.03125-18.03125-.003906-9.957031-8.078125-18.027343-18.03125-18.027343zm0 0" fill="#fa759e"/><path d="m113.046875 89.007812-34.457031 22.839844v57.597656l34.457031 22.839844c4.878906 3.230469 11.394531-.265625 11.394531-6.117187v-91.042969c0-5.851562-6.515625-9.347656-11.394531-6.117188zm0 0" fill="#ffd7e5"/><path d="m194.648438 137.839844c-11.089844 0-20.078126-8.988282-20.078126-20.078125v-93.566407c0-11.078124 8.988282-20.070312 20.078126-20.070312h156.304687c11.085937 0 20.074219 8.992188 20.074219 20.070312v93.566407c0 11.089843-8.988282 20.078125-20.074219 20.078125h-98.96875l-46.101563 40.878906v-40.878906zm0 0" fill="#fff"/><path d="m339.714844 15.359375h-156.304688c-2.613281 0-5.097656.535156-7.390625 1.449219-.910156 2.292968-1.449219 4.777344-1.449219 7.386718v93.566407c0 11.089843 8.988282 20.078125 20.078126 20.078125h11.234374v40.882812l46.101563-40.882812h98.972656c2.613281 0 5.097657-.535156 7.390625-1.449219.914063-2.289063 1.449219-4.777344 1.449219-7.394531v-93.5625c-.003906-11.082032-8.988281-20.074219-20.082031-20.074219zm0 0" fill="#fa759e"/><g fill="#3a2c60"><path d="m399.054688 53.371094h-24.027344v-29.175782c0-13.269531-10.800782-24.070312-24.074219-24.070312h-156.304687c-13.277344 0-24.078126 10.800781-24.078126 24.070312v29.175782h-22.179687c-2.207031 0-4 1.792968-4 4 0 2.207031 1.792969 4 4 4h22.179687v56.390625c0 13.273437 10.800782 24.078125 24.078126 24.078125h7.234374v36.882812c0 1.578125.925782 3 2.359376 3.648438.527343.238281 1.085937.351562 1.640624.351562.960938 0 1.910157-.34375 2.65625-1.007812l44.964844-39.875h97.453125c13.273438 0 24.074219-10.804688 24.074219-24.078125v-56.390625h24.027344c13.894531 0 25.195312 11.300781 25.195312 25.191406v237.421875c0 13.890625-11.300781 25.191406-25.195312 25.191406h-365.867188c-13.890625 0-25.191406-11.300781-25.191406-25.191406v-237.421875c0-13.890625 11.300781-25.191406 25.191406-25.191406h44.203125c2.210938 0 4-1.792969 4-4 0-2.207032-1.789062-4-4-4h-44.203125c-18.304687 0-33.191406 14.890625-33.191406 33.191406v237.421875c0 18.304687 14.886719 33.191406 33.191406 33.191406h127.160156v36.089844h-56.402343c-12.609375 0-22.871094 10.257813-22.871094 22.867187v11.347657c0 2.207031 1.792969 4 4 4h262.089844c2.207031 0 4-1.792969 4-4v-11.347657c0-12.609374-10.261719-22.867187-22.867188-22.867187h-56.40625v-36.089844h127.160157c18.304687 0 33.191406-14.886719 33.191406-33.191406v-237.421875c0-18.300781-14.886719-33.191406-33.191406-33.191406zm-32.027344 64.390625c0 8.867187-7.210938 16.078125-16.074219 16.078125h-98.96875c-.980469 0-1.921875.355468-2.65625 1.007812l-39.445313 34.980469v-31.988281c0-2.207032-1.789062-4-4-4h-11.234374c-8.863282 0-16.078126-7.210938-16.078126-16.078125v-93.566407c0-8.859374 7.214844-16.070312 16.078126-16.070312h156.308593c8.863281 0 16.074219 7.210938 16.074219 16.070312v93.566407zm-23.859375 298.375v7.347656h-254.089844v-7.347656c0-8.199219 6.667969-14.867188 14.871094-14.867188h224.351562c8.199219-.003906 14.867188 6.667969 14.867188 14.867188zm-79.273438-22.871094h-95.542969v-36.089844h95.542969zm0 0"/><path d="m98.988281 61.371094h27.070313c2.210937 0 4-1.792969 4-4 0-2.207032-1.789063-4-4-4h-27.070313c-2.207031 0-4 1.792968-4 4 0 2.207031 1.792969 4 4 4zm0 0"/><path d="m361.460938 175.261719c2.207031 0 4-1.792969 4-4 0-2.210938-1.792969-4-4-4h-110.90625c-2.207032 0-4 1.789062-4 4 0 2.207031 1.792968 4 4 4zm0 0"/><path d="m60.289062 208.789062c0 2.207032 1.789063 4 4 4h297.167969c2.207031 0 4-1.792968 4-4 0-2.210937-1.792969-4-4-4h-297.167969c-2.210937 0-4 1.785157-4 4zm0 0"/><path d="m361.460938 242.3125h-297.171876c-2.210937 0-4 1.792969-4 4s1.789063 4 4 4h297.167969c2.207031 0 4-1.792969 4-4s-1.789062-4-3.996093-4zm0 0"/><path d="m361.460938 279.835938h-297.171876c-2.210937 0-4 1.792968-4 4 0 2.207031 1.789063 4 4 4h297.167969c2.207031 0 4-1.792969 4-4 0-2.207032-1.789062-4-3.996093-4zm0 0"/><path d="m128.441406 118.996094v-23.871094c0-4.183594-2.289062-8.011719-5.976562-9.992188-3.683594-1.972656-8.140625-1.773437-11.625.539063l-32.648438 21.640625c-18.207031.214844-32.960937 15.074219-32.960937 33.332031 0 18.253907 14.753906 33.117188 32.960937 33.332031l32.648438 21.640626c1.890625 1.253906 4.074218 1.890624 6.261718 1.890624 1.839844 0 3.679688-.449218 5.363282-1.351562 3.683594-1.980469 5.976562-5.808594 5.976562-9.992188v-23.871093c10.242188-1.890625 18.03125-10.867188 18.03125-21.648438s-7.792968-19.761719-18.03125-21.648437zm-75.210937 21.648437c0-12.617187 9.273437-23.082031 21.359375-25.007812v50.011719c-12.085938-1.925782-21.359375-12.382813-21.359375-25.003907zm67.210937 45.523438c0 1.804687-1.234375 2.660156-1.761718 2.941406-.527344.277344-1.917969.835937-3.417969-.160156l-32.667969-21.65625v-53.296875l32.667969-21.65625c1.5-.996094 2.890625-.445313 3.417969-.160156.527343.285156 1.761718 1.140624 1.761718 2.941406zm8-32.070313v-26.90625c5.792969 1.730469 10.03125 7.105469 10.03125 13.453125 0 6.347657-4.242187 11.726563-10.03125 13.453125zm0 0"/></g><path d="m319.636719 56.15625c-8.144531 0-14.75 6.605469-14.75 14.746094 0 8.144531 6.605469 14.75 14.75 14.75s14.746093-6.605469 14.746093-14.75c0-8.140625-6.601562-14.746094-14.746093-14.746094zm0 0" fill="#fff"/><path d="m272.800781 56.15625c-8.144531 0-14.75 6.605469-14.75 14.746094 0 8.144531 6.605469 14.75 14.75 14.75s14.746094-6.605469 14.746094-14.75c.003906-8.140625-6.597656-14.746094-14.746094-14.746094zm0 0" fill="#fff"/><path d="m225.96875 56.15625c-8.144531 0-14.75 6.605469-14.75 14.746094 0 8.144531 6.605469 14.75 14.75 14.75s14.746094-6.605469 14.746094-14.75c0-8.140625-6.601563-14.746094-14.746094-14.746094zm0 0" fill="#fff"/></svg>