<svg height="483pt" viewBox="-26 0 483 483.84981" width="483pt" xmlns="http://www.w3.org/2000/svg"><path d="m430.917969 383.832031c-.453125-1.316406-1.636719-2.3125-3.003907-2.609375-.085937-.019531-8.917968-2.148437-14.632812-22.265625-1.964844-6.917969-2.222656-11.441406-2.464844-15.820312-.582031-10.25-1.078125-19.105469-21.015625-49.171875-16.679687-25.15625-49.441406-33.550782-79.992187-36.46875v-.601563c0-2.136719-1.679688-3.898437-3.8125-3.996093-80.21875-3.738282-109.925782-15.945313-110.097656-16.027344-1.234376-.722656-2.761719-.726563-4.007813-.011719-.488281.277344-.875.675781-1.199219 1.109375-2.183594-1.53125-4.300781-3.140625-6.367187-4.816406l.519531-.328125c5.457031-3.433594 7.585938-10.179688 5.453125-16.007813l139.109375-194.492187c1.285156-1.792969.875-4.292969-.921875-5.578125-1.800781-1.285156-4.296875-.871094-5.585937.925781l-137.761719 192.605469c-4.28125-2.847656-10.011719-3.128906-14.632813-.21875l-5.285156 3.328125c-4.796875-6.347657-9.007812-13.144531-12.367188-20.40625-9.121093-19.691407-15.433593-38.242188-17.722656-46.097657-3.136718-10.761718-7.316406-17.632812-12.417968-20.421874-1.664063-.914063-3.625-1.011719-5.375-.265626-1.75.742188-3.035157 2.222657-3.535157 4.066407l-4.558593 16.925781c-3.351563.847656-10.660157 2.53125-21.820313 4.207031-11.496094 1.722657-14.78125 8.324219-17.421875 13.625-1.722656 3.460938-3.210938 6.449219-6.84375 8.476563-11.78125 6.585937-16.511719 8.753906-27.261719 8.851562-.492187-.03125-2.03125-.480468-3.046875-.777344-3.085937-.90625-6.285156-1.835937-9-1.21875-4.1875.953126-5.988281 3.511719-6.757812 5.480469-2.632813 6.753907 3.402344 16.480469 5.089844 19 .972656 2.054688 6.699218 13.90625 14.347656 25.386719 7.230468 10.84375 21.972656 8.507812 32.734375 6.8125 3.765625-.597656 7.316406-1.160156 9.417969-.964844 2.777343.25 4.453124 18.136719 5.351562 27.738282.019531.222656.042969.460937.0625.679687l-12.171875 7.667969c-3.039063 1.917968-5.148437 4.902344-5.945313 8.40625-.792968 3.503906-.179687 7.105468 1.738282 10.148437 2.550781 4.054688 6.929687 6.277344 11.40625 6.277344 2.445312 0 4.921875-.667969 7.144531-2.066406l1.414063-.886719c4.023437 23.402344 14.980468 55.746094 22.289062 63.527344 1.484375 2.929687 3.140625 5.679687 5.046875 8.359375 1.226563 9.359375 2.929687 18.324219 4.582031 27.003906 4.570313 24.015625 8.53125 44.847656-.15625 61.488281-3.4375 1.015625-11.40625 3.636719-17.941406 7.734375-3.058594 1.921875-4.4375 5.558594-3.433594 9.050781 1.019532 3.546876 4.171875 5.925782 7.84375 5.925782h31.214844c3.25 0 6.269531-1.019532 8.753906-2.75 1.507813 1.71875 3.703125 2.75 6.121094 2.75h31.210938c8.453124 0 15.332031-6.878906 15.332031-15.332032v-78.308593c7.667969-2.675781 15.078125-6.121094 20.664062-9.628907 16.589844-10.398437 36.71875-2.214843 41.035157-.242187 18.03125 26.105469 38.734374 41.042969 59.878906 43.203125l1.160156.121094c2.75.28125 5.511719.554687 8.261719.960937 2.085937 2.179688 3.742187 3.914063 4.699219 4.929688 1.566406 16.097656 2.421874 34.636719 1.320312 39.707031-4.625 1.574219-7.832031 5.066406-8.898438 9.796875-.402343 1.8125.039063 3.683594 1.203126 5.132813 1.171874 1.464843 2.921874 2.300781 4.796874 2.300781h20.242188c7.3125 0 10.578125-7.195313 11.34375-11.449219.046875-.234375.070312-.476562.070312-.714844v-49.273437c2.019532.320312 3.671876.628906 4.941407.929687 5.847656 1.378906 14.460937 11.664063 19.613281 17.808594 3.398438 4.050781 5.402344 6.402344 6.808594 7.378906 2.179687 3.160156.929687 20.203125-1.132813 23.921875-4.09375 2.265625-5.109375 7.34375-5.34375 10.238281-.117187 1.34375.335938 2.679688 1.25 3.675782.914063 1 2.21875 1.574218 3.578125 1.574218h12.449219c7.613281 0 16.707031-5.703124 17.71875-6.351562 1.144531-.734375 1.835937-2.003906 1.835937-3.363281v-47.347657c0-9.625-8.222656-15.460937-15.324218-19.425781-2.265625-1.667969-5.964844-12.113281-9.222656-24.140625.125.082032.238281.164063.332031.222656 6.921875 6.113282 13.429687 8.964844 19.410156 8.523438 5.761719-.4375 8.753906-3.875 9.078125-4.261719.871094-1.082031 1.0625-2.558593.605469-3.875zm-278.472657 4.996094c3.273438.523437 6.679688.816406 10.175782.886719l.152344.535156c6.441406 22.40625 11.140624 38.746094 2.367187 64.28125-2.722656.820312-7.710937 2.480469-12.695313 4.929688zm0 0" fill="#e6e7e8"/><path d="m8.742188 168.253906c2.855468-.652344 8.785156 2.097656 11.117187 2.097656 12.09375.015626 17.628906-2.859374 29.257813-9.359374 11.148437-6.234376 6.578124-19.191407 22.90625-21.640626 16.328124-2.449218 24.488281-4.898437 24.488281-4.898437l5.15625-19.152344c.363281-1.355469 1.890625-2.007812 3.125-1.332031 2.652343 1.453125 6.894531 5.695312 10.496093 18.03125 2.765626 9.488281 9.363282 28.160156 17.933594 46.660156 11.019532 23.78125 29.742188 43.160156 53.097656 55.050782 15.742188 8.015624 37.863282 8.804687 50.289063 9.699218 25.925781 1.867188 105.710937-5.683594 133.859375 36.761719 28.148438 42.449219 16.292969 40.402344 22.960938 63.875 6.667968 23.472656 17.78125 25.101563 17.78125 25.101563s-7.40625 8.980468-22.964844-4.894532c0 0-8.886719-5.714844-10.371094-11.429687 0 0 8.148438 38.253906 14.816406 41.984375 6.667969 3.734375 13.335938 8.628906 13.335938 15.976562v47.347656s-8.886719 5.71875-15.554688 5.71875h-12.449218c-.492188 0-.878907-.410156-.839844-.898437.152344-1.847656.808594-6.007813 3.660156-7.265625 3.703125-1.632812 5.929688-26.941406 1.480469-30.207031-4.445313-3.261719-17.78125-23.671875-28.148438-26.121094-2.847656-.671875-10.476562-1.503906-9.867187-1.417969v53.660156s-1.480469 8.164063-7.410156 8.164063h-20.242188c-1.355469 0-2.390625-1.242187-2.09375-2.566406.558594-2.480469 2.28125-6.039063 7.519531-7.230469 4.410157-1.003906 0-44.894531 0-44.894531l-7.910156-7.128907c-3.21875-.476562-6.445313-.78125-9.65625-1.109374-32.003906-3.265626-54.410156-37.863282-57.597656-42.371094 0 0-25.019531-13.058594-45.84375 0-5.375 3.371094-13.320313 7.171875-22.539063 10.140625v81.191406c0 6.261719-5.070312 11.332031-11.332031 11.332031h-31.207031c-4.101563 0-5.757813-5.40625-2.285156-7.585937 7.988281-5.011719 18.511718-7.734375 18.511718-7.734375 10.617188-29.195313 4.683594-46.671875-2.585937-72.09375-5.78125.109375-11.578125-.410156-17.1875-1.75v77.832031c0 6.261719-5.074219 11.332031-11.332031 11.332031h-31.210938c-4.097656 0-5.753906-5.40625-2.28125-7.585937 7.988281-5.011719 18.511719-7.734375 18.511719-7.734375 14.085937-24.539063 1.394531-56.542969-3.285157-93.402344-1.992187-2.714844-3.851562-5.699219-5.519531-9.054688-3.265625-.816406-17.144531-33.0625-22.039062-63.878906-4.902344-30.816406-3.265625-58.570312-12.246094-59.386718-8.980469-.816407-31.019531 8.164062-39.183594-4.082032-8.164062-12.242187-14.191406-25.148437-14.191406-25.148437s-11.167969-16.261719-.929687-18.601563zm0 0" fill="#fff"/><path d="m406.027344 458.132812s0-40 0-47.347656-6.667969-12.242187-13.335938-15.976562c-6.667968-3.730469-14.816406-41.984375-14.816406-41.984375 1.480469 5.71875 10.371094 11.429687 10.371094 11.429687 15.558594 13.875 22.964844 4.894532 22.964844 4.894532s-11.113282-1.628907-17.78125-25.101563c-6.667969-23.472656 5.1875-21.425781-22.960938-63.875-28.148438-42.445313-107.9375-34.894531-133.859375-36.761719-12.425781-.894531-34.546875-1.683594-50.289063-9.699218-23.355468-11.890626-42.078124-31.269532-53.097656-55.050782-8.570312-18.5-15.167968-37.171875-17.933594-46.660156-.628906-2.152344-1.28125-3.980469-1.9375-5.671875-.1875-.117187-.382812-.261719-.558593-.359375-1.234375-.671875-2.761719-.023438-3.125 1.332031l-4.554688 16.929688c-.378906 1.398437-1.460937 2.476562-2.867187 2.835937-3.453125.878906-10.863282 2.582032-22.222656 4.289063-16.328126 2.445312-11.757813 15.40625-22.90625 21.640625-11.628907 6.5-17.164063 9.375-29.257813 9.359375-2.332031-.003907-8.261719-2.753907-11.117187-2.101563-10.238282 2.339844.925781 18.601563.925781 18.601563s3.242187 6.933593 8.183593 15.449219c9.304688 8.667968 28.859376 1.023437 37.191407 1.78125 8.980469.816406 7.347656 28.570312 12.246093 59.386718 4.898438 30.816406 18.773438 63.0625 22.039063 63.878906 1.667969 3.351563 3.527344 6.339844 5.519531 9.054688 4.679688 36.859375 17.367188 68.859375 3.285156 93.402344 0 0-10.4375 2.695312-18.410156 7.667968-3.53125 2.203126-1.980468 7.652344 2.179688 7.652344h31.210937c6.257813 0 11.332031-5.070312 11.332031-11.332031v-77.835937c5.609376 1.339843 11.40625 1.859374 17.1875 1.75 7.269532 25.421874 13.207032 42.898437 2.589844 72.097656 0 0-10.433594 2.695312-18.410156 7.667968-3.53125 2.203126-1.980469 7.652344 2.179688 7.652344h31.207031c6.261719 0 11.332031-5.070312 11.332031-11.332031v-81.191406c9.21875-2.96875 17.164062-6.769531 22.539062-10.140625 20.824219-13.058594 45.84375 0 45.84375 0 3.179688 4.507812 25.589844 39.105468 57.597657 42.371094 3.210937.328124 6.4375.636718 9.65625 1.109374l7.910156 7.128907s4.410156 43.894531 0 44.894531c-5.1875 1.179688-6.925781 4.675781-7.503906 7.15625-.3125 1.351562.6875 2.640625 2.074219 2.640625h20.242187c5.929687 0 7.410156-8.164063 7.410156-8.164063v-53.660156s7.019531.746094 9.863281 1.417969c10.371094 2.445313 23.703126 22.855469 28.148438 26.121094 4.441406 3.265625 2.222656 28.574219-1.480469 30.207031-2.855469 1.257812-3.511719 5.433594-3.660156 7.273438-.039063.488281.351563.886718.839844.886718h12.449219c6.675781.003906 15.566406-5.714844 15.566406-5.714844zm0 0" fill="#6dc9f7"/><path d="m140.445312 446.011719c-2.261718 1.007812-4.589843 2.183593-6.738281 3.53125-3.472656 2.179687-1.816406 7.585937 2.285157 7.585937h4.453124zm0 0" fill="#6dc9f7"/><path d="m390.46875 467.851562h-12.445312c-1.351563 0-2.652344-.570312-3.566407-1.5625-.914062-.984374-1.375-2.316406-1.265625-3.65625.414063-4.964843 2.300782-8.570312 5.351563-10.265624 2.066406-3.71875 3.3125-20.761719 1.128906-23.921876-1.414063-.980468-3.417969-3.332031-6.808594-7.382812-5.148437-6.144531-13.765625-16.425781-19.609375-17.804688-1.097656-.261718-3.054687-.554687-4.945312-.804687v49.152344c0 .242187-.019532.476562-.066406.714843-.769532 4.25-4.03125 11.449219-11.34375 11.449219h-20.246094c-1.878906 0-3.628906-.839843-4.800782-2.308593-1.164062-1.449219-1.597656-3.324219-1.191406-5.136719 1.0625-4.71875 4.257813-8.210938 8.894532-9.785157 1.097656-5.054687.25-23.46875-1.300782-39.527343l-5.851562-5.273438c-2.40625-.324219-4.8125-.570312-7.214844-.808593l-1.082031-.109376c-21.140625-2.160156-41.847657-17.09375-59.875-43.203124-4.316407-1.960938-24.457031-10.148438-41.035157.242187-5.605468 3.515625-13.011718 6.953125-20.664062 9.625v78.316406c0 8.453125-6.878906 15.332031-15.335938 15.332031h-31.207031c-2.417969 0-4.613281-1.035156-6.121093-2.753906-2.484376 1.738282-5.507813 2.753906-8.757813 2.753906h-31.210937c-3.671876 0-6.824219-2.382812-7.84375-5.929687-1.003907-3.492187.375-7.125 3.433593-9.046875 6.539063-4.097656 14.5-6.71875 17.933594-7.738281 8.691406-16.636719 4.730469-37.46875.160156-61.488281-1.644531-8.679688-3.351562-17.644532-4.578125-27-1.882812-2.648438-3.527344-5.367188-5-8.269532-7.847656-8.074218-19.246094-43.972656-22.671875-65.550781-1.601562-10.058594-2.507812-19.746094-3.308593-28.292969-.898438-9.601562-2.574219-27.492187-5.351563-27.742187-2.097656-.203125-5.652344.367187-9.417969.964843-10.765625 1.699219-25.503906 4.027344-32.730468-6.808593-7.652344-11.480469-13.378907-23.332031-14.351563-25.382813-1.691406-2.527344-7.726563-12.25-5.089844-19.003906.773438-1.972656 2.574219-4.53125 6.761719-5.484375 2.71875-.621094 5.914062.308594 8.996094 1.21875 1.019531.296875 2.558594.75 3.046875.777344h.097656c10.792969 0 15.421875-2.28125 27.167969-8.851563 3.628906-2.027344 5.113281-5.015625 6.84375-8.476562 2.640625-5.300782 5.925781-11.90625 17.421875-13.628906 11.160156-1.671876 18.46875-3.351563 21.820312-4.203126l4.558594-16.925781c.492187-1.832031 1.769531-3.316406 3.519531-4.0625 1.757813-.753906 3.714844-.652343 5.386719.253907 5.101563 2.800781 9.277344 9.671874 12.417969 20.425781 2.285156 7.855469 8.59375 26.402343 17.722656 46.097656 10.582031 22.839844 28.796875 41.722656 51.28125 53.160156 13.605469 6.929688 32.609375 8.199219 45.191406 9.035157l3.574219.246093c4.132813.296875 9.828125.351563 16.421875.410157 35.824219.332031 95.78125.894531 120.480469 38.132812 19.933593 30.070312 20.433593 38.917969 21.015625 49.171875.246094 4.378906.5 8.898437 2.464844 15.816406 5.714843 20.117188 14.546874 22.246094 14.632812 22.261719 1.367188.296875 2.550781 1.292969 3.003906 2.609375.457032 1.316406.261719 2.792969-.621094 3.875-.320312.386719-3.3125 3.824219-9.078124 4.261719-5.96875.460937-12.492188-2.414063-19.414063-8.519532-.09375-.0625-.210937-.140624-.332031-.226562 3.253906 12.027344 6.953125 22.46875 9.226562 24.136719 7.105469 3.96875 15.324219 9.808593 15.324219 19.425781v47.347656c0 1.359375-.691406 2.628906-1.835937 3.363282-1 .65625-10.09375 6.359374-17.710938 6.359374zm-8.433594-8h8.433594c3.570312 0 8.5625-2.332031 11.558594-3.996093v-45.070313c0-4.257812-3.480469-8.113281-11.289063-12.488281-7.441406-4.164063-14.210937-32.597656-16.773437-44.636719-.453125-2.121094.878906-4.226562 2.996094-4.726562 2.121093-.46875 4.246093.785156 4.785156 2.890625.824218 3.171875 6.195312 7.480469 8.664062 9.074219.175782.113281.34375.238281.5.378906 4.21875 3.757812 7.703125 5.625 10.445313 6.363281-3.976563-3.96875-8.445313-10.785156-11.769531-22.496094-2.207032-7.769531-2.5-12.964843-2.753907-17.554687-.535156-9.464844-.953125-16.941406-19.691406-45.199219-22.351563-33.707031-79.65625-34.242187-113.894531-34.558594-6.730469-.0625-12.539063-.113281-16.921875-.429687l-3.527344-.242188c-13.234375-.882812-33.222656-2.214844-48.289063-9.882812-24.078124-12.25-43.582031-32.472656-54.914062-56.925782-8.15625-17.617187-14.988281-36.414062-18.140625-47.226562-2.363281-8.085938-4.90625-12.082031-6.660156-14.027344l-4.417969 16.394532c-.359375 1.339843-1.386719 2.398437-2.714844 2.792968-.34375.101563-8.625 2.5625-25.042968 5.019532-7.382813 1.105468-9 4.359374-11.453126 9.28125-1.921874 3.859374-4.316406 8.664062-10.097656 11.898437-11.90625 6.65625-18.21875 9.867187-31.109375 9.867187-1.496093.132813-3.304687-.5-5.359375-1.101562-1.4375-.421875-4.085937-1.191406-4.984375-1.089844-.917969.214844-1.027343.488282-1.070312.589844-.789063 2.015625 1.699219 7.859375 4.421875 11.84375.117187.179688.230468.371094.324218.566406.058594.128906 6.007813 12.792969 13.898438 24.628906 4.382812 6.578126 15.710938 4.78125 24.824219 3.34375 4.453125-.703124 8.289062-1.304687 11.394531-1.03125 9.398438.855469 10.667969 14.425782 12.589844 34.964844.789062 8.425782 1.683594 17.980469 3.242187 27.78125 4.570313 28.714844 16.703125 57.171875 20.058594 61.019532.691406.390624 1.253906.980468 1.613281 1.703124 1.492188 2.996094 3.179688 5.765626 5.164063 8.46875.402343.546876.65625 1.191407.746093 1.863282 1.203126 9.480468 2.945313 18.65625 4.632813 27.527344 4.992187 26.261718 9.300781 48.941406-1.855469 68.371093-.535156.929688-1.421875 1.609375-2.460937 1.882813-.097657.027344-10.046875 2.636718-17.394531 7.246094l31.371093.199218c4.042969 0 7.332031-3.285156 7.332031-7.332031v-77.835937c0-1.222657.5625-2.382813 1.523438-3.140626.953125-.753906 2.203125-1.035156 3.40625-.75 5.03125 1.203126 10.488281 1.792969 16.179688 1.640626 1.910156.039062 3.425781 1.152343 3.925781 2.898437l.976562 3.414063c6.757813 23.5 12.101563 42.0625 1.523438 71.15625-.449219 1.238281-1.480469 2.171874-2.753907 2.503906-.09375.027344-10.042968 2.636718-17.390624 7.246094l31.367187.199218c4.046875 0 7.335937-3.285156 7.335937-7.332031v-81.191406c0-1.738281 1.121094-3.273438 2.773438-3.808594 8.011719-2.578125 15.898438-6.117187 21.640625-9.722656 22.515625-14.109375 48.71875-.730469 49.820313-.15625.5625.296875 1.050781.71875 1.414062 1.238281l.601562.871094c16.421876 23.796875 35.652344 37.945312 54.128907 39.832031l1.078125.105469c2.914062.296875 5.84375.59375 8.757812 1.023437.78125.113281 1.507813.457031 2.097656.984375l7.910157 7.128906c.742187.667969 1.203125 1.585938 1.300781 2.578126 4.757812 47.410156.226562 48.4375-3.089844 49.195312-1.527344.351562-2.65625.96875-3.425781 1.898438h17.355469c2.039062 0 3.140625-3.613282 3.410156-4.621094v-53.203125c0-1.132813.480469-2.214844 1.324219-2.972657.84375-.753906 1.972656-1.125 3.09375-1.003906.75.082032 7.359375.792969 10.363281 1.5 8.429688 1.992188 17.378906 12.664063 23.90625 20.453125 2.203125 2.628907 4.699219 5.605469 5.695312 6.339844 5.105469 3.753906 4.261719 16.859375 3.664063 22.320313-1.398437 12.78125-4.550781 14.171874-5.898437 14.765624-.113282.042969-.265626.210938-.425782.5zm-2.808594-7.824218c-.003906 0-.007812.003906-.007812.003906s.003906-.003906.007812-.003906zm-242.785156-79.203125v70.636719c4.984375-2.457032 9.972656-4.113282 12.695313-4.933594 8.777343-25.539063 4.078125-41.886719-2.375-64.292969l-.144531-.523437c-3.492188-.070313-6.890626-.359376-10.175782-.886719zm-38.144531-37.355469h.011719c-.003906 0-.007813 0-.011719 0zm0 0" fill="#3a2c60"/><path d="m166.710938 213.4375-98.578126 62.101562c-4.417968 2.78125-10.253906 1.453126-13.039062-2.960937-2.78125-4.417969-1.453125-10.253906 2.960938-13.035156l98.582031-62.097657c4.414062-2.785156 10.25-1.457031 13.035156 2.960938 2.78125 4.410156 1.457031 10.246094-2.960937 13.03125zm0 0" fill="#fa759e"/><g fill="#3a2c60"><path d="m112.386719 251.65625c-1.328125 0-2.628907-.660156-3.390625-1.867188-1.175782-1.871093-.613282-4.339843 1.25-5.519531l13.882812-8.738281c1.882813-1.167969 4.339844-.609375 5.519532 1.25 1.175781 1.871094.609374 4.339844-1.253907 5.519531l-13.878906 8.742188c-.664063.417969-1.402344.613281-2.128906.613281zm0 0"/><path d="m63.121094 280.992188c-1 0-2.007813-.105469-3.003906-.335938-3.507813-.792969-6.488282-2.910156-8.410157-5.945312-3.949219-6.273438-2.0625-14.59375 4.210938-18.554688l98.585937-62.09375c3.035156-1.917969 6.644532-2.539062 10.144532-1.742188 3.503906.796876 6.488281 2.910157 8.402343 5.945313 1.917969 3.039063 2.535157 6.644531 1.742188 10.148437-.792969 3.503907-2.910157 6.488282-5.945313 8.402344l-27.445312 17.289063c-1.871094 1.179687-4.335938.625-5.515625-1.246094-1.179688-1.875-.613281-4.339844 1.25-5.515625l27.441406-17.289062c1.234375-.777344 2.085937-1.988282 2.414063-3.410157.324218-1.417969.074218-2.882812-.703126-4.109375-.78125-1.230468-1.984374-2.085937-3.410156-2.414062-1.414062-.316406-2.882812-.070313-4.105468.703125l-98.585938 62.101562c-2.542969 1.605469-3.308594 4.976563-1.707031 7.519531.773437 1.238282 1.988281 2.089844 3.40625 2.417969 1.421875.316407 2.886719.074219 4.113281-.710937l31.472656-19.824219c1.882813-1.175781 4.34375-.609375 5.515625 1.25 1.179688 1.871094.617188 4.339844-1.25 5.515625l-31.472656 19.828125c-2.179687 1.371094-4.636719 2.070313-7.144531 2.070313zm0 0"/><path d="m169.664062 204.402344c-.804687 0-1.617187-.246094-2.324218-.75-1.796875-1.28125-2.210938-3.78125-.925782-5.582032l140.488282-196.402343c1.285156-1.789063 3.78125-2.207031 5.585937-.921875 1.796875 1.285156 2.210938 3.785156.921875 5.582031l-140.492187 196.402344c-.777344 1.085937-2.007813 1.671875-3.253907 1.671875zm0 0"/></g><path d="m289.808594 269.253906v-28.359375c-77.058594-3.589843-109.609375-15.214843-111.929688-16.570312v44.929687c0 30.90625 25.058594 55.964844 55.964844 55.964844s55.964844-25.058594 55.964844-55.964844zm0 0" fill="#0089ef"/><path d="m233.84375 329.21875c-33.066406 0-59.964844-26.902344-59.964844-59.964844v-44.929687c0-1.429688.765625-2.75 2.007813-3.464844 1.25-.71875 2.773437-.710937 4.003906.011719.171875.082031 29.894531 12.285156 110.105469 16.027344 2.132812.097656 3.8125 1.859374 3.8125 3.996093v28.359375c0 33.0625-26.898438 59.964844-59.964844 59.964844zm-51.964844-99.164062v39.199218c0 28.652344 23.3125 51.964844 51.964844 51.964844s51.964844-23.3125 51.964844-51.964844v-24.550781c-58.148438-2.964844-91.085938-10.601563-103.929688-14.648437zm0 0" fill="#3a2c60"/><path d="m255.878906 271.691406-14.472656-1.644531 1.644531-14.472656c.285157-2.492188-1.507812-4.742188-3.996093-5.019531l-8.699219-.988282c-2.492188-.285156-4.738281 1.507813-5.019531 3.996094l-1.644532 14.472656-14.472656-1.644531c-2.492188-.285156-4.738281 1.507813-5.019531 3.996094l-.988281 8.699219c-.285157 2.492187 1.507812 4.738281 3.996093 5.019531l14.472657 1.644531-1.644532 14.472656c-.285156 2.492188 1.507813 4.738282 3.996094 5.019532l8.699219.988281c2.492187.285156 4.742187-1.507813 5.019531-3.996094l1.644531-14.472656 14.472657 1.644531c2.492187.285156 4.742187-1.507812 5.019531-3.996094l.988281-8.699218c.28125-2.488282-1.507812-4.742188-3.996094-5.019532zm0 0" fill="#fff"/></svg>