<svg height="464pt" viewBox="0 -24 464.88569 464" width="464pt" xmlns="http://www.w3.org/2000/svg"><path d="m464.886719 73.417969v-24.464844c0-17.925781-14.589844-32.511719-32.519531-32.511719h-222.046876c-17.925781 0-32.515624 14.585938-32.515624 32.511719v126.125c0 17.933594 14.589843 32.523437 32.515624 32.523437h27.960938v25.578126c-13.324219-3.6875-25.425781-2.582032-34.667969 6.25l-19.480469 18.621093c-6.179687 5.910157-15.855468 5.917969-22.03125.015625l-19.5-18.636718c-5.988281-5.722657-13.472656-8.460938-22.367187-8.226563-32.644531.976563-77.390625 44.074219-101.152344 69.679687-2.167969 2.335938-3.257812 5.421876-3.0625 8.691407l.074219 1.476562c.503906 10.332031 1.140625 13.667969 2.941406 15.507813 37.285156 38.113281 76.285156 62.523437 102.4375 76.289062 16.179688 8.519532 34.046875 12.792969 51.882813 12.792969 16.511719 0 33.007812-3.664063 48.132812-11.015625 28.660157-13.921875 70.941407-38.789062 109.609375-78.179688 4.289063-4.371093 3.882813-20.832031-.628906-25.519531h-.003906c-17.050782-17.699219-40.996094-40.285156-64.515625-54.886719l43.339843-38.433593h123.078126c17.925781 0 32.519531-14.585938 32.519531-32.523438v-34.019531c0-2.210938 0-65.4375 0-67.644531zm-294.726563 224.332031c18.425782 0 53.15625 6.207031 86.75 12.210938 13.113282 2.347656 25.777344 4.609374 37.222656 6.464843-12.265624 3.5-25.890624 7.921875-40.007812 12.503907-30.652344 9.957031-62.347656 20.253906-79.082031 20.253906-17.097657 0-50.375-10.679688-82.554688-21.011719-13.703125-4.402344-26.925781-8.644531-38.699219-12.011719 9.726563-1.707031 20.410157-3.734375 31.445313-5.832031 31.027344-5.894531 66.199219-12.578125 84.925781-12.578125zm0 0" fill="#e6e7e8"/><path d="m243.195312 230.683594-16.914062 14.996094v-23.042969c-13.988281-5.0625-26.710938-5.101563-35.902344 3.683593l-19.480468 18.617188c-7.710938 7.375-19.84375 7.390625-27.558594.015625-5-4.777344-11.371094-10.871094-19.496094-18.632813-28.894531-27.621093-90.46875 31.808594-117.824219 61.28125-1.53125 1.644532-2.121093 3.734376-2.003906 5.734376.179687 3.097656.460937 12.972656 1.878906 14.417968 35.714844 36.503906 73.007813 60.578125 101.441407 75.550782 30.097656 15.84375 65.816406 16.582031 96.410156 1.71875 30.53125-14.835938 71.191406-39.382813 108.5-77.382813 2.714844-2.769531 2.339844-16.832031-.65625-19.945313-15.820313-16.417968-42.695313-42.199218-68.394532-57.011718zm-84.15625 106.5c-29.34375 0-102.429687-29.640625-140.898437-37.9375 37.167969-5.109375 105.789063-21.496094 136.019531-21.496094 30.503906 0 103.992188 16.539062 144.375 21.632812-39.667968 8.320313-110.117187 37.800782-139.496094 37.800782zm0 0" fill="#fa759e"/><path d="m194.320312 187.601562c-15.75 0-28.515624-12.765624-28.515624-28.523437v-126.125c0-15.742187 12.769531-28.515625 28.515624-28.515625h222.046876c15.75 0 28.519531 12.773438 28.519531 28.515625v126.125c0 15.757813-12.769531 28.523437-28.519531 28.523437h-124.597657l-65.488281 58.082032v-58.082032zm0 0" fill="#6dc9f7"/><path d="m357.226562 59.179688-15.363281-15.363282c-3.113281-3.113281-8.15625-3.113281-11.269531 0l-24.992188 24.992188-24.992187-24.992188c-3.113281-3.113281-8.15625-3.113281-11.269531 0l-15.363282 15.363282c-3.109374 3.109374-3.109374 8.15625 0 11.265624l24.992188 24.992188-24.992188 24.992188c-3.109374 3.113281-3.109374 8.15625 0 11.269531l15.363282 15.363281c3.113281 3.113281 8.15625 3.113281 11.269531 0l24.992187-24.992188 24.992188 24.992188c3.113281 3.113281 8.15625 3.113281 11.269531 0l15.363281-15.363281c3.109376-3.113281 3.109376-8.15625 0-11.269531l-24.992187-24.992188 24.992187-24.992188c3.109376-3.109374 3.109376-8.15625 0-11.265624zm0 0" fill="#fff"/><path d="m332.234375 95.4375 24.992187-24.992188c3.109376-3.109374 3.109376-8.15625 0-11.265624l-14.617187-14.617188-24.242187 24.246094-6.386719-6.386719-6.382813 6.386719-24.242187-24.246094-14.617188 14.617188c-3.113281 3.109374-3.113281 8.15625 0 11.265624l24.992188 24.992188-24.992188 24.992188c-3.113281 3.113281-3.113281 8.15625 0 11.269531l14.617188 14.617187 24.242187-24.246094 6.382813 6.382813 6.386719-6.382813 24.242187 24.246094 14.617187-14.617187c3.109376-3.113281 3.109376-8.15625 0-11.269531zm0 0" fill="#fa759e"/><g fill="#3a2c60"><path d="m67.742188 286.472656c-18.804688 3.570313-36.566407 6.945313-50.144532 8.8125-1.925781.265625-3.378906 1.875-3.453125 3.8125-.070312 1.941406 1.257813 3.652344 3.15625 4.066406 15.042969 3.242188 35.300781 9.746094 56.746094 16.628907 32.761719 10.523437 66.648437 21.398437 84.996094 21.398437 18 0 50.308593-10.492187 81.554687-20.640625 21.019532-6.828125 42.753906-13.886719 58.761719-17.242187 1.914063-.402344 3.25-2.125 3.175781-4.078125-.082031-1.953125-1.5625-3.5625-3.496094-3.808594-15.421874-1.941406-35.484374-5.53125-56.726562-9.328125-33.929688-6.066406-69.015625-12.335938-88.152344-12.335938-19.476562-.007812-53.511718 6.457032-86.417968 12.714844zm210.386718 13.953125c-12.265625 3.5-25.890625 7.921875-40.003906 12.503907-30.65625 9.957031-62.347656 20.253906-79.082031 20.253906-17.097657 0-50.375-10.679688-82.554688-21.011719-13.703125-4.402344-26.925781-8.644531-38.703125-12.011719 9.722656-1.707031 20.410156-3.734375 31.449219-5.832031 31.03125-5.898437 66.199219-12.582031 84.925781-12.582031 18.425782 0 53.15625 6.207031 86.746094 12.210937 13.113281 2.351563 25.777344 4.613281 37.222656 6.46875zm0 0"/><path d="m416.367188.441406h-222.046876c-17.925781 0-32.515624 14.585938-32.515624 32.511719v126.125c0 17.933594 14.589843 32.523437 32.515624 32.523437h27.960938v25.628907c-13.320312-3.6875-25.429688-2.632813-34.667969 6.195312l-19.480469 18.621094c-6.179687 5.90625-15.851562 5.910156-22.027343.015625l-19.5-18.636719c-5.988281-5.722656-13.488281-8.457031-22.367188-8.226562-32.644531.976562-77.386719 44.074219-101.152343 69.679687-2.167969 2.335938-3.257813 5.421875-3.0625005 8.6875l.0742187 1.480469c.5039058 10.332031 1.1406248 13.664063 2.9414058 15.5 37.289063 38.117187 76.289063 62.523437 102.4375 76.289063 16.179688 8.519531 34.042969 12.789062 51.882813 12.789062 16.511719 0 33.007813-3.664062 48.132813-11.011719 28.660156-13.921875 70.9375-38.789062 109.609374-78.179687 4.289063-4.371094 3.882813-20.832032-.628906-25.519532 0 0 0 0-.003906 0-17.070312-17.71875-41.042969-40.226562-64.589844-54.820312l43.410156-38.5h123.082032c17.925781 0 32.515625-14.585938 32.515625-32.523438v-34.019531c0-2.207031-1.789063-4-4-4-2.214844 0-4 1.792969-4 4v34.019531c0 13.519532-10.996094 24.523438-24.515625 24.523438h-124.601563c-.976562 0-1.917969.355469-2.652343 1.007812l-58.835938 52.183594v-49.183594c0-2.207031-1.792969-4-4-4h-31.960938c-13.519531 0-24.515624-11-24.515624-24.523437v-126.125c0-13.515625 11-24.511719 24.515624-24.511719h222.050782c13.519531 0 24.515625 10.996094 24.515625 24.511719v24.464844c0 2.207031 1.785156 4 4 4 2.210937 0 4-1.792969 4-4v-24.464844c-.003907-17.925781-14.589844-32.511719-32.519531-32.511719zm-172.800782 235.257813c26.292969 15.882812 53.523438 42.710937 65.105469 54.738281 1.5625 2.117188 1.957031 12.296875.71875 14.402344-37.867187 38.574218-79.304687 62.9375-107.394531 76.585937-29.1875 14.179688-63.878906 13.5625-92.792969-1.664062-25.558594-13.449219-63.628906-37.265625-100.085937-74.425781-.402344-1.320313-.75-4.910157-1.03125-10.671876l-.082032-1.5625c-.042968-.753906.085938-1.851562.941406-2.777343 18.449219-19.878907 64.683594-66.207031 95.527344-67.128907 6.726563-.222656 12.160156 1.761719 16.605469 6.015626l19.5 18.636718c9.273437 8.863282 23.804687 8.855469 33.082031-.015625l19.480469-18.621093c7.339844-7.011719 17.636719-7.289063 29.140625-3.617188v20.089844c0 1.574218.925781 3 2.359375 3.648437.523437.234375 1.085937.351563 1.640625.351563.960938 0 1.910156-.34375 2.65625-1.007813zm0 0"/><path d="m444.882812 75.160156c-2.214843 0-4 1.789063-4 4v25.359375c0 2.207031 1.785157 4 4 4 2.210938 0 4-1.792969 4-4v-25.359375c0-2.210937-1.789062-4-4-4zm0 0"/><path d="m363.5625 64.8125c0-3.199219-1.25-6.203125-3.507812-8.460938l-15.363282-15.367187c-4.664062-4.664063-12.261718-4.65625-16.925781 0l-22.164063 22.164063-22.164062-22.167969c-4.664062-4.664063-12.261719-4.65625-16.921875 0l-15.367187 15.363281c-2.257813 2.257812-3.507813 5.261719-3.507813 8.464844 0 3.199218 1.25 6.199218 3.507813 8.457031l22.164062 22.167969-22.164062 22.164062c-2.257813 2.261719-3.507813 5.269532-3.507813 8.464844s1.25 6.203125 3.507813 8.464844l15.367187 15.367187c2.328125 2.332031 5.398437 3.496094 8.457031 3.496094 3.070313 0 6.132813-1.167969 8.464844-3.5l22.164062-22.167969 22.164063 22.167969c4.667969 4.667969 12.265625 4.660156 16.925781 0l15.363282-15.363281c2.257812-2.261719 3.507812-5.269532 3.507812-8.464844s-1.25-6.199219-3.507812-8.460938l-22.164063-22.164062 22.164063-22.164062c2.261718-2.257813 3.507812-5.261719 3.507812-8.460938zm-9.164062 2.804688-24.992188 24.996093c-1.566406 1.566407-1.566406 4.09375 0 5.65625l24.992188 24.996094c.75.75 1.164062 1.746094 1.164062 2.804687 0 1.058594-.417969 2.054688-1.164062 2.808594l-15.363282 15.363282c-1.550781 1.546874-4.070312 1.546874-5.613281 0l-24.992187-24.996094c-1.5-1.5-4.15625-1.5-5.65625 0l-24.992188 24.992187c-1.542969 1.546875-4.066406 1.550781-5.613281 0l-15.363281-15.367187c-.75-.75-1.164063-1.746094-1.164063-2.804688s.417969-2.054687 1.164063-2.804687l24.992187-24.992188c1.566406-1.5625 1.566406-4.089843 0-5.65625l-24.992187-24.996093c-.75-.746094-1.164063-1.742188-1.164063-2.800782 0-1.0625.417969-2.058594 1.164063-2.804687l15.363281-15.363281c.773437-.777344 1.789062-1.160157 2.808593-1.160157 1.015626 0 2.03125.382813 2.804688 1.160157l24.992188 24.992187c1.5625 1.5625 4.09375 1.5625 5.65625 0l24.992187-24.992187c1.546875-1.550782 4.066406-1.554688 5.613281 0l15.363282 15.363281c.75.746093 1.164062 1.742187 1.164062 2.804687 0 1.058594-.414062 2.050782-1.164062 2.800782zm0 0"/></g></svg>