<svg height="449pt" viewBox="-28 0 449 449.18" width="449pt" xmlns="http://www.w3.org/2000/svg"><path d="m392.089844 57.878906c0-23.089844-18.789063-41.882812-41.882813-41.882812h-292.234375c-23.09375.003906-41.882812 18.792968-41.882812 41.882812v349.417969c0 23.089844 18.789062 41.882813 41.882812 41.882813h292.234375c23.09375 0 41.882813-18.789063 41.882813-41.882813zm0 0" fill="#e6e7e8"/><path d="m41.972656 429.175781c-20.886718 0-37.882812-16.996093-37.882812-37.882812v-349.414063c0-20.886718 16.996094-37.882812 37.882812-37.882812h292.234375c20.890625 0 37.882813 16.996094 37.882813 37.882812v349.417969c0 20.886719-16.996094 37.882813-37.882813 37.882813h-292.234375zm0 0" fill="#fff"/><path d="m366.277344 21.8125c-5.828125-3.660156-12.695313-5.8125-20.070313-5.8125h-292.234375c-20.886718 0-37.882812 16.996094-37.882812 37.882812v349.417969c0 7.375 2.152344 14.242188 5.8125 20.070313 5.828125 3.660156 12.695312 5.8125 20.070312 5.8125h292.234375c20.890625 0 37.882813-16.996094 37.882813-37.882813v-349.421875c0-7.375-2.152344-14.238281-5.8125-20.066406zm-12.1875 363.386719c0 13.742187-11.238282 24.980469-24.980469 24.980469h-282.039063c-13.742187 0-24.980468-11.238282-24.980468-24.980469v-337.222657c0-13.742187 11.238281-24.980468 24.980468-24.980468h282.039063c13.742187 0 24.980469 11.238281 24.980469 24.980468zm0 0" fill="#0089ef"/><path d="m47.070312 22.996094c-13.742187 0-24.980468 11.238281-24.980468 24.980468v337.222657c0 13.742187 11.238281 24.980469 24.980468 24.980469h282.039063c13.742187 0 24.980469-11.238282 24.980469-24.980469v-337.222657c0-13.742187-11.238282-24.980468-24.980469-24.980468zm0 0" fill="#3a2c60"/><path d="m334.207031 0h-292.234375c-23.09375 0-41.8828122 18.789062-41.8828122 41.878906v349.417969c0 23.089844 18.7890622 41.882813 41.8828122 41.882813h292.234375c23.09375 0 41.882813-18.789063 41.882813-41.882813v-151.53125c0-2.210937-1.792969-4-4-4-2.207032 0-4 1.789063-4 4v151.527344c0 18.683593-15.199219 33.882812-33.882813 33.882812h-292.234375c-18.683594 0-33.882812-15.199219-33.882812-33.882812v-349.414063c0-18.683594 15.199218-33.882812 33.882812-33.882812h292.234375c18.683594 0 33.882813 15.199218 33.882813 33.882812v130.554688c0 2.207031 1.792968 4 4 4 2.207031 0 4-1.792969 4-4v-130.554688c0-23.089844-18.789063-41.878906-41.882813-41.878906zm0 0" fill="#3a2c60"/><path d="m372.089844 190.433594c-2.207032 0-4 1.789062-4 4v22.382812c0 2.207032 1.792968 4 4 4 2.207031 0 4-1.792968 4-4v-22.382812c0-2.210938-1.792969-4-4-4zm0 0" fill="#3a2c60"/><path d="m233.988281 163.804688c-5.660156 2.433593-15.855469 4.238281-26.625 2.425781-3.257812-.546875-3.542969-4.695313-6.507812-6.140625-3.292969-1.605469-7.058594.609375-6.664063 18l.113282 5.105468.003906.21875c-2.425782-6.078124-14.304688-10.21875-19.234375-10.105468-6.226563.140625-8.21875 7.214844-8.023438 15.878906.195313 8.664062 2.507813 15.640625 8.734375 15.5 2.703125-.058594 14.757813-3.511719 19.855469-6.492188 3.34375-1.957031 7.574219.21875 8.011719 4.070313.601562 5.257813 2.191406 8.738281 6.882812 8.546875l26.238282-1.132812c4.433593-.179688 8.230468-3.546876 10.304687-8.484376 1.8125-4.3125 1.363281-9.210937-.566406-13.472656-.453125-.996094-.796875-1.925781-.808594-2.488281-.019531-.871094.445313-2.46875 1-4.042969 1.386719-3.949218 1.8125-8.222656.804687-12.285156-2.382812-9.566406-8.863281-7.105469-13.519531-5.101562zm0 0" fill="#fa759e"/><g fill="#fff"><path d="m208.976562 106.398438c-5.527343 2.730468-15.609374 5.0625-26.460937 3.816406-3.28125-.375-3.78125-4.503906-6.820313-5.792969-3.375-1.433594-7.015624.972656-5.71875 18.320313l.386719 5.097656.015625.21875c-2.746094-5.941406-14.820312-9.453125-19.738281-9.085938-6.210937.464844-7.832031 7.632813-7.183594 16.273438.648438 8.644531 3.320313 15.488281 9.53125 15.027344 2.703125-.207032 14.558594-4.277344 19.488281-7.519532 3.242188-2.128906 7.578126-.179687 8.21875 3.644532.875 5.222656 2.640626 8.617187 7.316407 8.175781l26.144531-2.5c4.417969-.410157 8.035156-3.96875 9.847656-9.011719 1.582032-4.398438.878906-9.269531-1.269531-13.421875-.503906-.972656-.894531-1.882813-.9375-2.445313-.0625-.871093.316406-2.492187.785156-4.085937 1.179688-4.015625 1.378907-8.308594.160157-12.308594-2.875-9.445312-9.214844-6.644531-13.765626-4.402343zm0 0"/><path d="m201.109375 48.796875c-5.28125 3.175781-15.136719 6.339844-26.054687 6-3.300782-.105469-4.140626-4.175781-7.277344-5.207031-3.480469-1.148438-6.910156 1.554687-4.175782 18.734375l.804688 5.046875.035156.21875c-3.226562-5.699219-15.554687-8.199219-20.421875-7.421875-6.152343.980469-7.171875 8.257812-5.808593 16.820312 1.363281 8.558594 4.59375 15.160157 10.746093 14.179688 2.671875-.425781 14.148438-5.472657 18.796875-9.113281 3.050782-2.386719 7.53125-.800782 8.488282 2.953124 1.304687 5.128907 3.34375 8.367188 7.972656 7.539063l25.847656-4.660156c4.367188-.777344 7.675781-4.625 9.0625-9.792969 1.214844-4.519531.109375-9.3125-2.378906-13.273438-.582032-.925781-1.046875-1.804687-1.136719-2.359374-.136719-.863282.109375-2.511719.445313-4.140626.839843-4.101562.683593-8.390624-.863282-12.28125-3.648437-9.171874-9.738281-5.855468-14.082031-3.242187zm0 0"/><path d="m209.707031 280.957031c-5.90625 1.765625-16.238281 2.390625-26.734375-.648437-3.171875-.921875-2.976562-5.074219-5.757812-6.851563-3.085938-1.972656-7.082032-.203125-8.6875 17.113281l-.472656 5.089844-.019532.214844c-1.71875-6.316406-13.039062-11.796875-17.945312-12.246094-6.199219-.578125-8.996094 6.222656-9.796875 14.851563-.800781 8.632812.691406 15.824219 6.898437 16.398437 2.695313.253906 15.0625-1.789062 20.464844-4.167968 3.550781-1.558594 7.496094 1.089843 7.492188 4.964843-.007813 5.292969 1.167968 8.9375 5.855468 9.285157l26.199219 1.890624c4.421875.328126 8.582031-2.578124 11.207031-7.242187 2.292969-4.078125 2.410156-8.996094.984375-13.449219-.335937-1.039062-.570312-2.007812-.515625-2.566406.078125-.871094.726563-2.40625 1.457032-3.902344 1.828124-3.761718 2.742187-7.960937 2.207031-12.113281-1.261719-9.777344-7.980469-8.078125-12.835938-6.621094zm0 0"/><path d="m199.433594 337.800781c-6.042969 1.203125-16.390625.847657-26.550782-3.167969-3.074218-1.210937-2.484374-5.332031-5.089843-7.363281-2.882813-2.257812-7.03125-.875-10.261719 16.21875l-.953125 5.023438-.039063.214843c-1.113281-6.449218-11.867187-12.96875-16.710937-13.886718-6.117187-1.160156-9.542969 5.34375-11.152344 13.863281-1.613281 8.515625-.804687 15.820313 5.3125 16.980469 2.660157.503906 15.164063-.363282 20.773438-2.214844 3.679687-1.214844 7.359375 1.792969 6.992187 5.648438-.507812 5.265624.320313 9.003906 4.953125 9.789062l25.902344 4.359375c4.371094.742187 8.789063-1.757813 11.84375-6.15625 2.667969-3.839844 3.253906-8.730469 2.25-13.296875-.238281-1.070312-.378906-2.050781-.273437-2.605469.164062-.855469.953124-2.324219 1.816406-3.746093 2.175781-3.574219 3.484375-7.664063 3.339844-11.847657-.332032-9.867187-7.183594-8.804687-12.152344-7.8125zm0 0"/><path d="m212.257812 222.796875c-5.886718 1.820313-16.214843 2.523437-26.734374-.425781-3.179688-.890625-3.019532-5.046875-5.816407-6.804688-3.101562-1.945312-7.085937-.140625-8.546875 17.191406l-.425781 5.089844-.019531.21875c-1.769532-6.300781-13.136719-11.683594-18.050782-12.097656-6.207031-.523438-8.941406 6.296875-9.671874 14.933594-.726563 8.636718.824218 15.820312 7.035156 16.34375 2.695312.230468 15.046875-1.914063 20.433594-4.339844 3.535156-1.585938 7.507812 1.03125 7.53125 4.902344.039062 5.292968 1.242187 8.921875 5.933593 9.230468l26.210938 1.671876c4.429687.292968 8.5625-2.652344 11.148437-7.335938 2.261719-4.09375 2.339844-9.015625.871094-13.453125-.34375-1.042969-.582031-2.007813-.535156-2.5625.074218-.867187.707031-2.410156 1.425781-3.910156 1.800781-3.78125 2.679687-7.984375 2.105469-12.128907-1.347656-9.777343-8.050782-8.019531-12.894532-6.523437zm0 0"/></g></svg>