<svg height="467pt" viewBox="0 -24 467.99489 467" width="467pt" xmlns="http://www.w3.org/2000/svg"><path d="m467.996094 125.648438c0-5.296876-4.308594-9.601563-9.605469-9.601563h-132.886719c-9.085937 0-16.472656 7.386719-16.472656 16.46875v40.472656c.007812.640625-.207031 1.230469-.585938 1.613281-.269531.277344-.59375.410157-.992187.410157h-44.132813c-9.085937 0-16.476562 7.390625-16.476562 16.472656v40.472656c.007812.640625-.203125 1.226563-.585938 1.613281-.269531.273438-.59375.410157-.992187.410157h-44.128906c-9.085938 0-16.472657 7.394531-16.472657 16.476562v40.472657c.007813.644531-.207031 1.230468-.585937 1.613281-.269531.273437-.59375.410156-.992187.410156h-44.136719c-9.082031 0-16.46875 7.386719-16.46875 16.472656v40.472657c.007812.644531-.207031 1.230468-.585938 1.609374-.273437.277344-.59375.414063-.992187.414063h-44.136719c-9.082031 0-16.472656 7.386719-16.472656 16.472656v34.738281c0 9.085938 7.390625 16.476563 16.472656 16.476563h381.625c5.296875 0 9.605469-4.308594 9.605469-9.605469zm0 0" fill="#e6e7e8"/><path d="m85.082031 159.597656c8.847657 0 16.050781-7.199218 16.050781-16.046875 0-8.851562-7.203124-16.046875-16.050781-16.046875-8.847656 0-16.046875 7.195313-16.046875 16.046875 0 8.847657 7.199219 16.046875 16.046875 16.046875zm0 0" fill="#e6e7e8"/><path d="m29.078125 209.789062c0 7.253907 5.902344 13.152344 13.152344 13.152344h145.238281c7.25 0 13.152344-5.898437 13.152344-13.152344 0-7.253906-5.898438-13.152343-13.152344-13.152343h-84.660156c22.210937-7.441407 38.277344-28.402344 38.277344-53.082031 0-1.824219-.101563-3.621094-.269532-5.402344h9.605469v32.542968c0 7.554688 6.144531 13.699219 13.695313 13.699219 7.554687 0 13.699218-6.144531 13.699218-13.699219v-41.703124c0-10.054688-8.179687-18.234376-18.238281-18.234376h-29.195313c-2.785156-3.832031-5.996093-7.332031-9.636718-10.351562l-8.175782-39.113281c-.988281-4.714844-3.625-8.832031-7.355468-11.679688 3.101562-4.699219 4.285156-10.523437 3.113281-16.136719-2.414063-11.523437-13.753906-18.933593-25.269531-16.527343-11.519532 2.410156-18.9375 13.742187-16.527344 25.269531 1.089844 5.234375 4.191406 9.753906 8.429688 12.832031l-16.515626 13.308594c-6.0625 4.886719-7.019531 13.792969-2.132812 19.859375l4.125 5.117188c-18.542969 9.140624-31.363281 28.183593-31.363281 50.21875 0 24.679687 16.070312 45.640624 38.28125 53.082031h-25.128907c-7.246093 0-13.148437 5.898437-13.148437 13.152343zm46.640625-97.695312c2.101562 2.113281 4.863281 3.265625 7.695312 3.265625 2.402344 0 4.816407-.785156 6.828126-2.40625.582031-.46875 1.101562-.984375 1.5625-1.539063 14.890624 3.105469 26.117187 16.335938 26.117187 32.140626 0 18.105468-14.730469 32.835937-32.835937 32.835937-18.105469 0-32.835938-14.734375-32.835938-32.835937-.003906-14.855469 9.914062-27.421876 23.46875-31.460938zm0 0" fill="#e6e7e8"/><path d="m221.015625 163.773438c2.851563 0 5.710937-1.042969 7.941406-3.148438l42.914063-40.425781-3.132813 13.011719c-.921875 3.816406.136719 7.808593 2.832031 10.671874 1.546876 1.636719 3.523438 2.785157 5.71875 3.3125 3.019532.722657 6.125.234376 8.765626-1.378906 2.640624-1.617187 4.496093-4.164062 5.21875-7.171875l12.265624-50.867187c.914063-3.824219-.144531-7.808594-2.832031-10.660156-2.691406-2.855469-6.609375-4.152344-10.480469-3.46875l-51.503906 9.203124c-6.292968 1.128907-10.496094 7.160157-9.371094 13.445313.539063 3.046875 2.238282 5.703125 4.78125 7.476563 2.542969 1.777343 5.628907 2.449218 8.671876 1.902343l13.171874-2.351562-42.914062 40.425781c-4.652344 4.382812-4.867188 11.730469-.488281 16.386719 2.28125 2.417969 5.355469 3.636719 8.441406 3.636719zm0 0" fill="#e6e7e8"/><path d="m81.148438 336.589844c6.289062-1.128906 10.496093-7.160156 9.367187-13.449219-.398437-2.21875-1.421875-4.261719-2.96875-5.90625-2.695313-2.867187-6.609375-4.164063-10.484375-3.46875l-13.175781 2.351563 42.917969-40.425782c4.648437-4.382812 4.871093-11.730468.488281-16.382812-2.121094-2.25-4.992188-3.546875-8.089844-3.640625-3.058594-.066407-6.039063 1.023437-8.296875 3.148437l-42.914062 40.429688 3.132812-13.007813c.730469-3.011719.238281-6.128906-1.378906-8.773437-1.613282-2.640625-4.167969-4.492188-7.171875-5.214844-6.226563-1.5-12.488281 2.335938-13.988281 8.550781l-12.257813 50.867188c-.917969 3.820312.144531 7.804687 2.835937 10.664062 2.214844 2.347657 5.253907 3.644531 8.421876 3.644531.679687 0 1.367187-.058593 2.054687-.179687zm0 0" fill="#e6e7e8"/><path d="m441.121094 104.046875h-131.617188c-6.859375 0-12.472656 5.609375-12.472656 12.46875v40.425781c.039062 3.28125-2.300781 6.066406-5.578125 6.066406h-44.132813c-6.863281 0-12.472656 5.613282-12.472656 12.472657v40.425781c.039063 3.277344-2.300781 6.066406-5.578125 6.066406h-44.132812c-6.863281 0-12.472657 5.613282-12.472657 12.472656v40.421876c.039063 3.28125-2.300781 6.070312-5.578124 6.070312h-44.136719c-6.859375 0-12.46875 5.613281-12.46875 12.472656v40.421875c.039062 3.28125-2.300781 6.070313-5.578125 6.070313h-44.136719c-6.859375 0-12.472656 5.609375-12.472656 12.472656v34.738281c0 6.859375 5.613281 12.472657 12.472656 12.472657h381.621094c3.097656 0 5.605469-2.507813 5.605469-5.605469v-284.332031c0-3.09375-2.507813-5.601563-5.605469-5.601563zm0 0" fill="#fff"/><path d="m236.390625 399.605469h206c3.097656 0 5.605469-2.507813 5.605469-5.605469v-277.953125h-126.492188c-6.859375 0-12.472656 5.609375-12.472656 12.46875v40.425781c.039062 3.28125-2.300781 6.066406-5.578125 6.066406h-44.132813c-6.863281 0-12.472656 5.613282-12.472656 12.472657v40.425781c.039063 3.277344-2.300781 6.066406-5.578125 6.066406h-44.132812c-6.863281 0-12.472657 5.613282-12.472657 12.472656v40.421876c.039063 3.28125-2.300781 6.070312-5.578124 6.070312h-44.136719c-6.859375 0-12.46875 5.613281-12.46875 12.472656v40.421875c.039062 3.28125-2.300781 6.070313-5.578125 6.070313h-44.136719c-6.859375 0-12.472656 5.609375-12.472656 12.472656v34.738281c0 .148438.042969.285157.046875.429688.144531.003906.28125.042969.425781.042969h175.625zm0 0" fill="#6dc9f7"/><path d="m143.578125 98.757812h-31.203125c3.835938 5.753907 6.527344 12.328126 7.816406 19.390626h18.226563v36.542968c0 5.359375 4.339843 9.699219 9.695312 9.699219 5.359375 0 9.699219-4.339844 9.699219-9.699219v-41.699218c.003906-7.863282-6.371094-14.234376-14.234375-14.234376zm0 0" fill="#fa759e"/><path d="m65.894531 38.273438c-3.566406 3.644531-5.316406 8.945312-4.195312 14.3125l4.828125 23.089843c.851562-.039062 1.691406-.125 2.550781-.125 12.101563 0 23.207031 4.167969 32.042969 11.097657h.003906l-8.472656-40.535157c-1.125-5.367187-4.84375-9.523437-9.578125-11.433593 4.398437-4 6.636719-10.144532 5.332031-16.382813-1.960938-9.378906-11.152344-15.390625-20.53125-13.433594-9.378906 1.960938-15.390625 11.152344-13.433594 20.535157 1.308594 6.238281 5.820313 10.96875 11.453125 12.875zm0 0" fill="#fa759e"/><path d="m69.082031 75.546875c-28.71875 0-52.003906 23.28125-52.003906 52.003906 0 28.71875 23.285156 52.003907 52.003906 52.003907 28.722657 0 52.003907-23.285157 52.003907-52.003907 0-28.722656-23.28125-52.003906-52.003907-52.003906zm0 88.84375c-20.34375 0-36.835937-16.492187-36.835937-36.835937s16.492187-36.835938 36.835937-36.835938 36.835938 16.492188 36.835938 36.835938-16.492188 36.835937-36.835938 36.835937zm0 0" fill="#0089ef"/><path d="m81.132812 127.554688c0 6.652343-5.394531 12.046874-12.050781 12.046874-6.652343 0-12.046875-5.394531-12.046875-12.046874 0-6.65625 5.394532-12.050782 12.046875-12.050782 6.65625 0 12.050781 5.394532 12.050781 12.050782zm0 0" fill="#0089ef"/><path d="m73.8125 49.933594-17.34375 13.980468 16.300781 20.230469c2.390625 2.964844 1.925781 7.304688-1.039062 9.695313-2.964844 2.390625-7.304688 1.925781-9.695313-1.039063l-18.609375-23.085937c-3.507812-4.355469-2.824219-10.726563 1.527344-14.234375l20.203125-16.28125zm0 0" fill="#fa759e"/><path d="m171.46875 184.632812h-145.238281c-5.03125 0-9.152344 4.121094-9.152344 9.152344s4.121094 9.152344 9.152344 9.152344h145.238281c5.035156 0 9.148438-4.121094 9.148438-9.152344s-4.117188-9.152344-9.148438-9.152344zm0 0" fill="#6dc9f7"/><path d="m271.390625 121.710938 12.261719-50.867188c.597656-2.496094-.101563-5.117188-1.859375-6.988281-1.753907-1.867188-4.335938-2.714844-6.863281-2.265625l-51.503907 9.203125c-4.121093.738281-6.875 4.683593-6.136719 8.8125.734376 4.128906 4.683594 6.875 8.8125 6.140625l26.402344-4.71875-52.695312 49.632812c-3.054688 2.875-3.199219 7.679688-.320313 10.734375 2.875 3.050781 7.679688 3.195313 10.730469.320313l52.695312-49.636719-6.28125 26.070313c-.625 2.589843.15625 5.1875 1.859376 6.992187.976562 1.035156 2.253906 1.8125 3.738281 2.167969 4.078125.984375 8.175781-1.523438 9.160156-5.597656zm0 0" fill="#ffd7e5"/><path d="m64.4375 316.652344-51.503906 9.199218c-2.523438.449219-5.105469-.402343-6.863282-2.265624-1.753906-1.863282-2.457031-4.492188-1.855468-6.988282l12.265625-50.863281c.980469-4.074219 5.082031-6.585937 9.160156-5.601563 4.074219.976563 6.585937 5.082032 5.597656 9.160157l-6.285156 26.070312 52.699219-49.628906c3.050781-2.878906 7.855468-2.734375 10.730468.320313 2.875 3.050781 2.730469 7.855468-.320312 10.730468l-52.695312 49.636719 26.398437-4.714844c2.621094-.46875 5.167969.464844 6.871094 2.273438.972656 1.035156 1.675781 2.359375 1.9375 3.863281.742187 4.125-2.007813 8.070312-6.136719 8.808594zm0 0" fill="#ffd7e5"/><g fill="#3a2c60"><path d="m447.996094 226.492188c-2.214844 0-4 1.792968-4 4v23.105468c0 2.207032 1.785156 4 4 4 2.210937 0 4-1.792968 4-4v-23.105468c0-2.207032-1.789063-4-4-4zm0 0"/><path d="m442.390625 100.050781h-132.886719c-9.085937 0-16.472656 7.386719-16.472656 16.46875v40.472657c.007812.640624-.207031 1.230468-.585938 1.613281-.269531.277343-.59375.410156-.992187.410156h-44.132813c-9.085937 0-16.476562 7.390625-16.476562 16.472656v40.472657c.007812.640624-.203125 1.226562-.585938 1.613281-.269531.273437-.59375.410156-.992187.410156h-44.128906c-9.085938 0-16.472657 7.394531-16.472657 16.476563v40.472656c.007813.644531-.207031 1.230468-.585937 1.613281-.269531.273437-.59375.410156-.992187.410156h-44.136719c-9.082031 0-16.46875 7.386719-16.46875 16.472657v40.472656c.007812.644531-.207031 1.230468-.585938 1.609375-.273437.277343-.59375.414062-.992187.414062h-44.136719c-9.082031 0-16.472656 7.386719-16.472656 16.472657v34.738281c0 9.085937 7.390625 16.476562 16.472656 16.476562h381.625c5.296875 0 9.605469-4.308593 9.605469-9.605469v-119.359374c0-2.207032-1.789063-4-4-4-2.214844 0-4 1.792968-4 4v119.351562c0 .886719-.722656 1.605469-1.605469 1.605469h-381.625c-4.671875 0-8.472656-3.800781-8.472656-8.476563v-34.738281c0-4.671875 3.800781-8.472656 8.472656-8.472656h44.136719c2.53125 0 4.910156-.992188 6.679687-2.789063 1.871094-1.894531 2.929688-4.566406 2.898438-7.363281v-40.339844c0-4.671875 3.796875-8.472656 8.46875-8.472656h44.136719c2.53125 0 4.910156-.992187 6.679687-2.789063 1.875-1.894531 2.929687-4.566406 2.898437-7.363281v-40.34375c0-4.671875 3.796876-8.476562 8.472657-8.476562h44.132812c2.535157 0 4.910157-.992188 6.683594-2.789063 1.875-1.890625 2.925781-4.5625 2.894531-7.363281v-40.339844c0-4.671875 3.804688-8.472656 8.476563-8.472656h44.128906c2.539063 0 4.910156-.992187 6.6875-2.785156 1.871094-1.898438 2.921875-4.570313 2.894531-7.367188v-40.34375c0-4.671875 3.800782-8.46875 8.472656-8.46875h132.886719c.886719 0 1.605469.71875 1.605469 1.601563v100.480468c0 2.207032 1.785156 4 4 4 2.210938 0 4-1.792968 4-4v-100.484374c-.003906-5.292969-4.3125-9.597657-9.609375-9.597657zm0 0"/><path d="m53.035156 127.554688c0 8.847656 7.199219 16.046874 16.046875 16.046874 8.847657 0 16.050781-7.199218 16.050781-16.046874 0-8.847657-7.203124-16.046876-16.050781-16.046876-8.847656 0-16.046875 7.199219-16.046875 16.046876zm16.046875-8.050782c4.4375 0 8.050781 3.609375 8.050781 8.046875 0 4.433594-3.609374 8.046875-8.050781 8.046875-4.4375 0-8.046875-3.609375-8.046875-8.046875 0-4.433593 3.613282-8.046875 8.046875-8.046875zm0 0"/><path d="m13.074219 193.789062c0 7.253907 5.902343 13.152344 13.152343 13.152344h145.234376c7.253906 0 13.15625-5.898437 13.15625-13.152344 0-7.253906-5.898438-13.152343-13.15625-13.152343h-84.652344c22.210937-7.441407 38.277344-28.402344 38.277344-53.082031 0-1.824219-.101563-3.621094-.269532-5.402344h9.605469v32.542968c0 7.554688 6.144531 13.699219 13.695313 13.699219 7.554687 0 13.699218-6.144531 13.699218-13.699219v-41.703124c0-10.054688-8.179687-18.234376-18.238281-18.234376h-29.195313c-2.785156-3.832031-5.996093-7.332031-9.636718-10.351562l-8.175782-39.113281c-.988281-4.714844-3.625-8.832031-7.355468-11.679688 3.101562-4.699219 4.285156-10.523437 3.113281-16.136719-2.414063-11.523437-13.753906-18.925781-25.269531-16.527343-11.519532 2.410156-18.9375 13.742187-16.527344 25.269531 1.089844 5.234375 4.191406 9.753906 8.429688 12.832031l-16.515626 13.308594c-6.0625 4.886719-7.019531 13.792969-2.132812 19.859375l4.105469 5.097656c-18.539063 9.136719-31.34375 28.203125-31.34375 50.238282 0 24.679687 16.070312 45.640624 38.28125 53.082031h-25.128907c-7.246093 0-13.152343 5.898437-13.152343 13.152343zm130.503906-91.03125c5.644531 0 10.238281 4.589844 10.238281 10.234376v41.699218c0 3.140625-2.558594 5.699219-5.699218 5.699219-3.136719 0-5.695313-2.558594-5.695313-5.699219v-36.542968c0-2.207032-1.789063-4-4-4h-15.023437c-.984376-3.984376-2.386719-7.792969-4.175782-11.390626zm-96.109375-44.167968 20.199219-16.28125.070312.089844c.328125-.449219.617188-.921876 1.011719-1.324219.964844-.984375 1.351562-2.394531 1.03125-3.734375s-1.304688-2.414063-2.609375-2.855469c-4.476563-1.511719-7.851563-5.308594-8.8125-9.902344-1.507813-7.203125 3.128906-14.292969 10.332031-15.800781 7.203125-1.515625 14.292969 3.128906 15.800782 10.332031.960937 4.597657-.613282 9.429688-4.109376 12.609375-1.015624.921875-1.488281 2.308594-1.246093 3.664063.242187 1.355469 1.164062 2.492187 2.4375 3.003906 3.671875 1.484375 6.347656 4.675781 7.15625 8.539063l6.511719 31.140624c-7.628907-4.054687-16.292969-6.382812-25.488282-6.492187l-2.367187-11.335937 8.933593-7.195313c1.71875-1.390625 1.992188-3.90625.601563-5.625-1.390625-1.726563-3.90625-1.992187-5.621094-.605469l-17.347656 13.980469c-.828125.667969-1.351563 1.632813-1.464844 2.6875-.117187 1.058594.195313 2.113281.859375 2.9375l16.308594 20.230469c1 1.246094.800781 3.070312-.4375 4.074218-.601562.484376-1.335938.699219-2.125.621094-.765625-.082031-1.457031-.457031-1.941406-1.0625l-18.609375-23.089844c-2.121094-2.625-1.703125-6.484374.925781-8.605468zm26.773438 38.363281c.5625-.453125 1.0625-.957031 1.507812-1.488281 14.914062 3.089844 26.171875 16.273437 26.171875 32.089844 0 18.105468-14.730469 32.835937-32.835937 32.835937-18.105469 0-32.835938-14.734375-32.835938-32.835937 0-14.859376 9.933594-27.40625 23.496094-31.441407 2.097656 2.101563 4.851562 3.246094 7.671875 3.246094 2.398437 0 4.8125-.785156 6.824219-2.40625zm-53.167969 30.601563c0-19.53125 11.75-36.320313 28.527343-43.804688l4.6875 5.816406c-15.214843 5.9375-26.046874 20.695313-26.046874 37.988282 0 22.515624 18.320312 40.835937 40.835937 40.835937s40.835937-18.320313 40.835937-40.835937c0-19.363282-13.554687-35.574219-31.667968-39.746094-.128906-2.183594-.890625-4.34375-2.363282-6.171875l-1.421874-1.761719c23.945312 2.6875 42.625 23.035156 42.625 47.679688 0 26.46875-21.535157 48.003906-48.003907 48.003906s-48.007812-21.539063-48.007812-48.003906zm150.394531 61.082031c2.839844 0 5.152344 2.3125 5.152344 5.152343 0 2.839844-2.308594 5.152344-5.152344 5.152344h-145.238281c-2.839844 0-5.152344-2.3125-5.152344-5.152344 0-2.839843 2.3125-5.152343 5.152344-5.152343zm0 0"/><path d="m205.015625 147.773438c2.851563 0 5.710937-1.042969 7.941406-3.148438l42.914063-40.425781-3.132813 13.011719c-.921875 3.816406.136719 7.808593 2.832031 10.671874 1.546876 1.636719 3.523438 2.785157 5.71875 3.3125 3.019532.722657 6.125.234376 8.765626-1.378906 2.640624-1.617187 4.496093-4.164062 5.21875-7.171875l12.265624-50.867187c.914063-3.824219-.144531-7.808594-2.832031-10.660156-2.691406-2.855469-6.609375-4.152344-10.480469-3.46875l-51.503906 9.203124c-6.292968 1.128907-10.496094 7.160157-9.371094 13.445313.539063 3.046875 2.238282 5.703125 4.78125 7.476563 2.542969 1.777343 5.628907 2.449218 8.671876 1.902343l13.171874-2.351562-42.914062 40.425781c-4.652344 4.382812-4.867188 11.730469-.488281 16.386719 2.28125 2.417969 5.355469 3.636719 8.441406 3.636719zm-2.464844-14.199219 52.695313-49.636719c1.289062-1.210938 1.625-3.128906.832031-4.707031-.6875-1.371094-2.082031-2.207031-3.574219-2.207031-.234375 0-.46875.023437-.703125.066406l-26.40625 4.714844c-.945312.175781-1.898437-.039063-2.6875-.585938-.785156-.550781-1.3125-1.371094-1.480469-2.320312-.347656-1.949219.953126-3.816407 2.90625-4.167969l51.5-9.207031c1.1875-.207032 2.414063.1875 3.25 1.078124.832032.882813 1.160157 2.121094.878907 3.304688l-12.257813 50.867188c-.003906 0-.003906 0-.003906 0-.226562.925781-.796875 1.71875-1.613281 2.21875-.820313.5-1.78125.65625-2.71875.429687-.679688-.164063-1.292969-.515625-1.769531-1.023437-.835938-.890626-1.167969-2.125-.882813-3.308594l6.285156-26.078125c.414063-1.71875-.351562-3.507813-1.882812-4.394531-1.527344-.886719-3.460938-.667969-4.75.546874l-52.6875 49.636719c-1.441407 1.359375-3.722657 1.292969-5.082031-.152343-1.355469-1.4375-1.292969-3.71875.152343-5.074219zm0 0"/><path d="m65.148438 320.589844c6.289062-1.128906 10.496093-7.160156 9.367187-13.449219-.398437-2.21875-1.421875-4.261719-2.96875-5.90625-2.695313-2.867187-6.609375-4.164063-10.484375-3.46875l-13.175781 2.351563 42.917969-40.425782c4.648437-4.382812 4.871093-11.730468.488281-16.382812-2.121094-2.25-4.992188-3.546875-8.089844-3.640625-3.058594-.066407-6.039063 1.023437-8.296875 3.148437l-42.914062 40.429688 3.132812-13.007813c.730469-3.011719.238281-6.128906-1.378906-8.773437-1.613282-2.640625-4.167969-4.492188-7.171875-5.214844-6.226563-1.5-12.488281 2.335938-13.988281 8.550781l-12.261719 50.867188c-.917969 3.820312.144531 7.804687 2.835937 10.664062 2.214844 2.347657 5.253906 3.644531 8.421875 3.644531.679688 0 1.367188-.058593 2.054688-.179687zm-52.914063 1.328125c-1.195313.210937-2.414063-.1875-3.25-1.074219-.832031-.886719-1.164063-2.121094-.882813-3.308594l12.261719-50.863281c.394531-1.644531 1.871094-2.746094 3.496094-2.746094.277344 0 .558594.03125.84375.097657.929687.226562 1.71875.796874 2.21875 1.617187s.65625 1.785156.429687 2.71875l-6.285156 26.074219c-.414062 1.71875.347656 3.507812 1.878906 4.394531 1.535157.890625 3.464844.667969 4.753907-.546875l52.695312-49.640625c1.445313-1.359375 3.722657-1.289063 5.082031.152344 1.355469 1.441406 1.285157 3.71875-.152343 5.074219l-52.703125 49.640624c-1.285156 1.214844-1.625 3.128907-.832032 4.714844.796876 1.578125 2.542969 2.449219 4.277344 2.136719l26.40625-4.714844c1.183594-.210937 2.410156.1875 3.25 1.082031.480469.507813.796875 1.136719.917969 1.828126.347656 1.945312-.953125 3.820312-2.90625 4.167968zm0 0"/></g></svg>