<svg height="456pt" viewBox="0 0 456 456" width="456pt" xmlns="http://www.w3.org/2000/svg"><path d="m404 16h-336c-28.671875 0-52 23.328125-52 52v336c0 28.671875 23.328125 52 52 52h336c28.671875 0 52-23.328125 52-52v-336c0-28.671875-23.328125-52-52-52zm0 0" fill="#e6e7e8"/><path d="m388 4h-336c-26.398438 0-48 21.601562-48 48v336c0 26.398438 21.601562 48 48 48h336c26.398438 0 48-21.601562 48-48v-336c0-26.398438-21.601562-48-48-48zm0 0" fill="#d4fbff"/><path d="m322.253906 359.800781h-205.921875c-8.359375 0-15.195312 6.839844-15.195312 15.199219v9.503906c0 8.359375 6.839843 15.195313 15.195312 15.195313h205.921875c8.359375 0 15.195313-6.839844 15.195313-15.195313v-9.503906c.003906-8.359375-6.835938-15.199219-15.195313-15.199219zm0 0" fill="#0089ef"/><path d="m378.910156 112.378906c0-.082031-.011718-.167968-.011718-.25v-1.75h-.089844c-2.238282-40.984375-72.785156-70.078125-159.53125-70.078125-86.710938 0-157.257813 29.09375-159.492188 70.078125h-.070312v1.25c-.003906.25-.039063.5-.039063.75 0 .679688 0 1.320313.039063 2v22.421875c0 13.257813 10.75 24.007813 24.007812 24.007813h51.957032c13.261718 0 24.007812-10.75 24.007812-24.007813v-4.800781c0-9.730469 7.886719-17.621094 17.621094-17.621094h84c9.730468 0 17.621094 7.890625 17.621094 17.621094v4.800781c0 13.257813 10.746093 24.007813 24.007812 24.007813h51.953125c13.261719 0 24.007813-10.75 24.007813-24.007813v-23.75c0-.222656.011718-.441406.011718-.671875zm0 0" fill="#fff"/><path d="m378.898438 122.378906h-.089844c-2.238282-40.984375-72.785156-70.078125-159.53125-70.078125-86.710938 0-157.257813 29.09375-159.492188 70.078125h-.070312v14.421875c0 13.257813 10.75 24.007813 24.007812 24.007813h51.957032c13.261718 0 24.007812-10.75 24.007812-24.007813v-4.800781c0-9.730469 7.886719-17.621094 17.621094-17.621094h84c9.730468 0 17.621094 7.890625 17.621094 17.621094v4.800781c0 13.257813 10.746093 24.007813 24.007812 24.007813h51.953125c13.261719 0 24.007813-10.75 24.007813-24.007813zm0 0" fill="#fa759e"/><path d="m106.5625 204.386719h-23c-4.949219 0-9 4.054687-9 9v13.425781c0 4.953125 4.050781 9 9 9h23c4.949219 0 9-4.046875 9-9v-13.425781c0-4.949219-4.050781-9-9-9zm0 0" fill="#6dc9f7"/><path d="m168.675781 204.386719h-23c-4.949219 0-9 4.054687-9 9v13.425781c0 4.953125 4.050781 9 9 9h23c4.949219 0 9-4.046875 9-9v-13.425781c0-4.949219-4.046875-9-9-9zm0 0" fill="#6dc9f7"/><path d="m230.792969 204.386719h-23c-4.949219 0-9 4.054687-9 9v13.425781c0 4.953125 4.050781 9 9 9h23c4.949219 0 9-4.046875 9-9v-13.425781c0-4.949219-4.050781-9-9-9zm0 0" fill="#6dc9f7"/><path d="m292.90625 204.386719h-23c-4.945312 0-9 4.054687-9 9v13.425781c0 4.953125 4.054688 9 9 9h23c4.949219 0 9-4.046875 9-9v-13.425781c0-4.949219-4.046875-9-9-9zm0 0" fill="#6dc9f7"/><path d="m355.023438 204.386719h-23c-4.949219 0-9 4.054687-9 9v13.425781c0 4.953125 4.050781 9 9 9h23c4.953124 0 9-4.046875 9-9v-13.425781c0-4.949219-4.050782-9-9-9zm0 0" fill="#6dc9f7"/><path d="m137.621094 255.558594h-23c-4.949219 0-9 4.054687-9 9v13.425781c0 4.949219 4.050781 9 9 9h23c4.945312 0 9-4.050781 9-9v-13.425781c0-4.945313-4.050782-9-9-9zm0 0" fill="#6dc9f7"/><path d="m199.734375 255.558594h-23c-4.945313 0-9 4.054687-9 9v13.425781c0 4.949219 4.054687 9 9 9h23c4.949219 0 9-4.050781 9-9v-13.425781c0-4.945313-4.050781-9-9-9zm0 0" fill="#6dc9f7"/><path d="m261.851562 255.558594h-23c-4.953124 0-9 4.054687-9 9v13.425781c0 4.949219 4.046876 9 9 9h23c4.949219 0 9-4.050781 9-9v-13.425781c0-4.945313-4.050781-9-9-9zm0 0" fill="#6dc9f7"/><path d="m323.96875 255.558594h-23c-4.949219 0-9 4.054687-9 9v13.425781c0 4.949219 4.050781 9 9 9h23c4.945312 0 9-4.050781 9-9v-13.425781c0-4.945313-4.054688-9-9-9zm0 0" fill="#6dc9f7"/><path d="m106.5625 308.386719h-23c-4.949219 0-9 4.054687-9 9v13.425781c0 4.953125 4.050781 9 9 9h23c4.949219 0 9-4.046875 9-9v-13.425781c0-4.949219-4.050781-9-9-9zm0 0" fill="#6dc9f7"/><path d="m168.675781 308.386719h-23c-4.949219 0-9 4.054687-9 9v13.425781c0 4.953125 4.050781 9 9 9h23c4.949219 0 9-4.046875 9-9v-13.425781c0-4.949219-4.046875-9-9-9zm0 0" fill="#6dc9f7"/><path d="m230.792969 308.386719h-23c-4.949219 0-9 4.054687-9 9v13.425781c0 4.953125 4.050781 9 9 9h23c4.949219 0 9-4.046875 9-9v-13.425781c0-4.949219-4.050781-9-9-9zm0 0" fill="#6dc9f7"/><path d="m292.90625 308.386719h-23c-4.945312 0-9 4.054687-9 9v13.425781c0 4.953125 4.054688 9 9 9h23c4.949219 0 9-4.046875 9-9v-13.425781c0-4.949219-4.046875-9-9-9zm0 0" fill="#6dc9f7"/><path d="m355.023438 308.386719h-23c-4.949219 0-9 4.054687-9 9v13.425781c0 4.953125 4.050781 9 9 9h23c4.953124 0 9-4.046875 9-9v-13.425781c0-4.949219-4.050782-9-9-9zm0 0" fill="#6dc9f7"/><g fill="#3a2c60"><path d="m388 0h-336c-28.671875 0-52 23.328125-52 52v336c0 28.671875 23.328125 52 52 52h336c28.671875 0 52-23.328125 52-52v-336c0-28.671875-23.328125-52-52-52zm44 388c0 24.261719-19.738281 44-44 44h-336c-24.261719 0-44-19.738281-44-44v-336c0-24.261719 19.738281-44 44-44h336c24.261719 0 44 19.738281 44 44zm0 0"/><path d="m322.253906 355.804688h-205.921875c-10.585937 0-19.199219 8.609374-19.199219 19.195312v9.5c0 10.585938 8.609376 19.199219 19.199219 19.199219h205.921875c10.582032 0 19.199219-8.609375 19.199219-19.199219v-9.5c0-10.585938-8.613281-19.195312-19.199219-19.195312zm11.199219 28.699218c0 6.175782-5.023437 11.199219-11.199219 11.199219h-205.921875c-6.175781 0-11.199219-5.023437-11.199219-11.199219v-9.5c0-6.171875 5.023438-11.195312 11.199219-11.195312h205.921875c6.175782 0 11.199219 5.023437 11.199219 11.195312zm0 0"/><path d="m203.332031 44.632812c.054688 0 .113281 0 .167969-.003906 9.355469-.394531 19.085938-.433594 28.445312-.117187 2.171876.105469 4.058594-1.65625 4.128907-3.863281.078125-2.207032-1.652344-4.058594-3.863281-4.132813-9.5625-.324219-19.492188-.28125-29.050782.121094-2.207031.089843-3.921875 1.957031-3.828125 4.164062.097657 2.152344 1.867188 3.832031 4 3.832031zm0 0"/><path d="m382.898438 120.71875v-10.339844c0-.371094-.054688-.730468-.152344-1.070312-2.78125-36.59375-55.746094-65.367188-132.289063-71.738282-2.25-.183593-4.136719 1.457032-4.316406 3.65625-.183594 2.203126 1.449219 4.136719 3.652344 4.320313 71.84375 5.980469 123.253906 32.730469 125.027343 65.054687.011719.21875.039063.433594.085938.640626v5.558593h-95.980469c-.667969 0-1.269531.203125-1.820312.492188-3.949219-4.242188-9.566407-6.914063-15.800781-6.914063h-84c-6.238282 0-11.851563 2.671875-15.800782 6.914063-.550781-.289063-1.152344-.492188-1.820312-.492188h-95.976563v-2.648437c-.035156-.601563-.03125-1.167969-.023437-1.871094.007812-.101562.03125-.554688.03125-.652344v-.515625c.03125-.167969.054687-.335937.0625-.507812 1.761718-32.304688 53.121094-59.054688 124.902344-65.046875 2.203124-.183594 3.835937-2.113282 3.65625-4.320313-.183594-2.203125-2.121094-3.847656-4.320313-3.652343-76.539063 6.390624-129.472656 35.199218-132.175781 71.8125-.078125.316406-.121094.644531-.121094.984374l-.007812 1.304688c-.015626.234375-.03125.464844-.03125.695312 0 .757813 0 1.472657.039062 2v22.417969c0 15.441407 12.566406 28.007813 28.007812 28.007813h51.957032c15.445312 0 28.007812-12.566406 28.007812-28.007813v-4.800781c0-7.507812 6.113282-13.621094 13.621094-13.621094h84c7.511719 0 13.621094 6.109375 13.621094 13.621094v4.800781c0 15.441407 12.5625 28.007813 28.007812 28.007813h51.953125c15.445313 0 28.007813-12.566406 28.007813-28.007813v-15.925781c0-.027344.019531-.046875.019531-.074219 0-.027343-.023437-.054687-.023437-.082031zm-227.214844 16.082031c0 11.03125-8.976563 20.007813-20.007813 20.007813h-51.957031c-11.03125 0-20.007812-8.976563-20.007812-20.007813l-.003907-12h93.238281c-.800781 2.253907-1.261718 4.671875-1.261718 7.199219zm199.207031 20.007813h-51.957031c-11.035156 0-20.007813-8.976563-20.007813-20.007813v-4.800781c0-2.527344-.460937-4.945312-1.261719-7.199219h93.234376l-.003907 12c.003907 11.03125-8.972656 20.007813-20.003906 20.007813zm0 0"/><path d="m106.5625 200.386719h-23c-7.167969 0-13 5.832031-13 13v13.425781c0 7.167969 5.832031 13 13 13h23c7.167969 0 13-5.832031 13-13v-13.425781c0-7.167969-5.832031-13-13-13zm5 26.425781c0 2.753906-2.242188 5-5 5h-23c-2.753906 0-5-2.246094-5-5v-13.425781c0-2.753907 2.246094-5 5-5h23c2.757812 0 5 2.246093 5 5zm0 0"/><path d="m168.675781 200.386719h-23c-7.167969 0-13 5.832031-13 13v13.425781c0 7.167969 5.832031 13 13 13h23c7.167969 0 13-5.832031 13-13v-13.425781c0-7.167969-5.832031-13-13-13zm5 26.425781c0 2.753906-2.242187 5-5 5h-23c-2.753906 0-5-2.246094-5-5v-13.425781c0-2.753907 2.246094-5 5-5h23c2.757813 0 5 2.246093 5 5zm0 0"/><path d="m230.792969 200.386719h-23c-7.167969 0-13 5.832031-13 13v13.425781c0 7.167969 5.832031 13 13 13h23c7.167969 0 13-5.832031 13-13v-13.425781c0-7.167969-5.832031-13-13-13zm5 26.425781c0 2.753906-2.246094 5-5 5h-23c-2.757813 0-5-2.246094-5-5v-13.425781c0-2.753907 2.242187-5 5-5h23c2.753906 0 5 2.246093 5 5zm0 0"/><path d="m292.910156 200.386719h-23c-7.167968 0-13 5.832031-13 13v13.425781c0 7.167969 5.832032 13 13 13h23c7.167969 0 13-5.832031 13-13v-13.425781c0-7.167969-5.832031-13-13-13zm5 26.425781c0 2.753906-2.242187 5-5 5h-23c-2.753906 0-5-2.246094-5-5v-13.425781c0-2.753907 2.246094-5 5-5h23c2.757813 0 5 2.246093 5 5zm0 0"/><path d="m355.023438 200.386719h-23c-7.167969 0-13 5.832031-13 13v13.425781c0 7.167969 5.832031 13 13 13h23c7.167968 0 13-5.832031 13-13v-13.425781c0-7.167969-5.832032-13-13-13zm5 26.425781c0 2.753906-2.242188 5-5 5h-23c-2.753907 0-5-2.246094-5-5v-13.425781c0-2.753907 2.246093-5 5-5h23c2.757812 0 5 2.246093 5 5zm0 0"/><path d="m101.621094 264.5625v13.421875c0 7.167969 5.832031 13 13 13h23c7.167968 0 13-5.832031 13-13v-13.421875c0-7.167969-5.832032-13-13-13h-23c-7.167969 0-13 5.832031-13 13zm41 0v13.421875c0 2.753906-2.246094 5-5 5h-23c-2.757813 0-5-2.246094-5-5v-13.421875c0-2.753906 2.242187-5 5-5h23c2.757812 0 5 2.242188 5 5zm0 0"/><path d="m163.734375 264.5625v13.421875c0 7.167969 5.832031 13 13 13h23c7.167969 0 13-5.832031 13-13v-13.421875c0-7.167969-5.832031-13-13-13h-23c-7.167969 0-13 5.832031-13 13zm41 0v13.421875c0 2.753906-2.242187 5-5 5h-23c-2.753906 0-5-2.246094-5-5v-13.421875c0-2.753906 2.246094-5 5-5h23c2.761719 0 5 2.242188 5 5zm0 0"/><path d="m225.851562 264.5625v13.421875c0 7.167969 5.832032 13 13 13h23c7.167969 0 13-5.832031 13-13v-13.421875c0-7.167969-5.832031-13-13-13h-23c-7.167968 0-13 5.832031-13 13zm41 0v13.421875c0 2.753906-2.242187 5-5 5h-23c-2.753906 0-5-2.246094-5-5v-13.421875c0-2.753906 2.246094-5 5-5h23c2.757813 0 5 2.242188 5 5zm0 0"/><path d="m336.964844 277.984375v-13.421875c0-7.167969-5.832032-13-13-13h-23c-7.167969 0-13 5.832031-13 13v13.421875c0 7.167969 5.832031 13 13 13h23c7.167968 0 13-5.832031 13-13zm-41 0v-13.421875c0-2.753906 2.242187-5 5-5h23c2.753906 0 5 2.246094 5 5v13.421875c0 2.753906-2.246094 5-5 5h-23c-2.757813 0-5-2.242187-5-5zm0 0"/><path d="m119.5625 330.8125v-13.425781c0-7.167969-5.832031-13-13-13h-23c-7.167969 0-13 5.832031-13 13v13.425781c0 7.167969 5.832031 13 13 13h23c7.167969 0 13-5.832031 13-13zm-41 0v-13.425781c0-2.753907 2.246094-5 5-5h23c2.757812 0 5 2.246093 5 5v13.425781c0 2.753906-2.242188 5-5 5h-23c-2.757812 0-5-2.246094-5-5zm0 0"/><path d="m145.675781 304.386719c-7.167969 0-13 5.832031-13 13v13.425781c0 7.167969 5.832031 13 13 13h23c7.167969 0 13-5.832031 13-13v-13.425781c0-7.167969-5.832031-13-13-13zm28 13v13.425781c0 2.753906-2.242187 5-5 5h-23c-2.753906 0-5-2.246094-5-5v-13.425781c0-2.753907 2.246094-5 5-5h23c2.761719 0 5 2.242187 5 5zm0 0"/><path d="m207.792969 304.386719c-7.167969 0-13 5.832031-13 13v13.425781c0 7.167969 5.832031 13 13 13h23c7.167969 0 13-5.832031 13-13v-13.425781c0-7.167969-5.832031-13-13-13zm28 13v13.425781c0 2.753906-2.246094 5-5 5h-23c-2.757813 0-5-2.246094-5-5v-13.425781c0-2.753907 2.242187-5 5-5h23c2.757812 0 5 2.242187 5 5zm0 0"/><path d="m269.910156 304.386719c-7.167968 0-13 5.832031-13 13v13.425781c0 7.167969 5.832032 13 13 13h23c7.167969 0 13-5.832031 13-13v-13.425781c0-7.167969-5.832031-13-13-13zm28 13v13.425781c0 2.753906-2.242187 5-5 5h-23c-2.753906 0-5-2.246094-5-5v-13.425781c0-2.753907 2.246094-5 5-5h23c2.757813 0 5 2.242187 5 5zm0 0"/><path d="m355.023438 304.386719h-23c-7.167969 0-13 5.832031-13 13v13.425781c0 7.167969 5.832031 13 13 13h23c7.167968 0 13-5.832031 13-13v-13.425781c0-7.167969-5.832032-13-13-13zm5 26.425781c0 2.753906-2.242188 5-5 5h-23c-2.753907 0-5-2.246094-5-5v-13.425781c0-2.753907 2.246093-5 5-5h23c2.757812 0 5 2.246093 5 5zm0 0"/></g></svg>