<svg height="463pt" viewBox="-39 0 463 463.29245" width="463pt" xmlns="http://www.w3.org/2000/svg"><path d="m350.960938 32.273438c-2.769532-2.078126-6.066407-3.171876-9.527344-3.171876-4.988282 0-9.75 2.382813-12.746094 6.378907-5.253906 7.027343-3.816406 17.023437 3.210938 22.285156 13.574218 10.160156 21.679687 26.332031 21.679687 43.261719 0 16.339844-7.425781 31.621094-19.980469 41.863281v-15.65625c4.636719-7.832031 7.175782-16.84375 7.175782-26.207031 0-17.136719-8.488282-33.078125-22.703126-42.644532-2.636718-1.769531-5.703124-2.710937-8.878906-2.710937-5.304687 0-10.25 2.628906-13.222656 7.039063-4.890625 7.285156-2.945312 17.191406 4.320312 22.085937 1.457032.980469 2.738282 2.144531 3.855469 3.429687h-23.464843c-3.875-10.636718-13.421876-18.546874-24.976563-20.054687v-37.238281c0-5.507813-3.015625-10.550782-7.867187-13.15625-4.859376-2.601563-10.71875-2.332032-15.3125.710937l-49.085938 32.53125c-.011719 0-.027344 0-.039062 0-22.699219 0-41.714844 15.945313-46.523438 37.214844h-93.238281c-15.160157 0-27.492188 12.328125-27.492188 27.484375v320.085938c0 15.15625 12.332031 27.488281 27.492188 27.488281h262.46875c15.160156 0 27.492187-12.332031 27.492187-27.488281v-261.664063c1.609375.535156 3.300782.84375 5.042969.84375 3.1875 0 6.265625-.945313 8.917969-2.734375 23.707031-16.035156 37.859375-42.65625 37.859375-71.222656-.003907-26.914063-12.882813-52.617188-34.457031-68.753906zm0 0" fill="#e6e7e8"/><path d="m303.878906 121.332031c-2.140625 1.800781-4.859375 2.789063-7.652344 2.789063-3.53125 0-6.859374-1.550782-9.136718-4.253906-4.222656-5.042969-3.558594-12.574219 1.472656-16.789063 5.320312-4.464844 8.371094-11.042969 8.371094-18.042969 0-2.832031-.523438-5.582031-1.472656-8.160156-1.722657-.402344-3.511719-.632812-5.355469-.632812h-28.367188c.519531 2.085937.828125 4.261718.828125 6.515624 0 14.832032-12.023437 26.859376-26.859375 26.859376v40.953124c0 8.714844-9.703125 13.925782-16.96875 9.109376l-50.175781-33.253907c-.386719.011719-.769531.058594-1.160156.058594-24.152344 0-43.726563-19.574219-43.726563-43.726563 0-2.222656.21875-4.386718.535157-6.515624h-96.574219c-12.96875 0-23.488281 10.515624-23.488281 23.484374v320.085938c0 12.972656 10.519531 23.488281 23.488281 23.488281h262.46875c12.972656 0 23.488281-10.515625 23.488281-23.488281v-309.703125c-2.605469 4.179687-5.847656 7.984375-9.714844 11.222656zm0 0" fill="#fff"/><path d="m303.878906 121.332031c-2.140625 1.800781-4.859375 2.789063-7.652344 2.789063-3.53125 0-6.859374-1.550782-9.136718-4.253906-4.222656-5.042969-3.558594-12.574219 1.472656-16.789063 4.496094-3.773437 7.351562-9.066406 8.132812-14.839844h-34.691406c-2.535156 12.203125-13.339844 21.375-26.296875 21.375v40.949219c0 8.71875-9.703125 13.929688-16.96875 9.113281l-50.167969-33.25c-.390624.011719-.773437.054688-1.167968.054688-22.289063 0-40.644532-16.6875-43.347656-38.242188h-84.417969c-12.96875 0-23.488281 10.515625-23.488281 23.484375v320.085938c0 3.375.726562 6.578125 2.011718 9.480468 2.898438 1.285157 6.101563 2.007813 9.476563 2.007813h262.46875c12.972656 0 23.488281-10.515625 23.488281-23.488281v-309.699219c-2.597656 4.175781-5.847656 7.984375-9.714844 11.222656zm0 0" fill="#6dc9f7"/><path d="m167.40625 125.648438v-85.800782l1.160156-.765625c-.386718-.011719-.769531-.0625-1.160156-.0625-24.152344 0-43.726562 19.578125-43.726562 43.730469s19.574218 43.726562 43.726562 43.726562c.390625 0 .773438-.046874 1.160156-.058593zm0 0" fill="#fa759e"/><path d="m235.710938 55.886719v53.722656c14.835937 0 26.859374-12.023437 26.859374-26.859375s-12.027343-26.863281-26.859374-26.863281zm0 0" fill="#fa759e"/><path d="m235.710938 55.886719v53.722656c14.835937 0 26.859374-12.023437 26.859374-26.859375s-12.027343-26.863281-26.859374-26.863281zm0 0" fill="#fa759e"/><path d="m218.742188 5.824219-51.335938 34.023437v85.800782l51.335938 34.023437c7.265624 4.816406 16.96875-.394531 16.96875-9.113281v-135.621094c0-8.722656-9.703126-13.929688-16.96875-9.113281zm0 0" fill="#ffd7e5"/><path d="m296.226562 124.117188c-3.53125 0-6.859374-1.554688-9.136718-4.253907-4.222656-5.042969-3.558594-12.574219 1.472656-16.789062 5.320312-4.464844 8.371094-11.042969 8.371094-18.042969 0-7.855469-3.890625-15.164062-10.410156-19.546875-5.449219-3.664063-6.898438-11.082031-3.238282-16.535156 2.230469-3.304688 5.925782-5.269531 9.902344-5.269531 2.375 0 4.671875.699218 6.644531 2.027343 13.109375 8.820313 20.933594 23.527344 20.933594 39.324219 0 14.074219-6.15625 27.304688-16.890625 36.300781-2.136719 1.796875-4.851562 2.785157-7.648438 2.785157zm0 0" fill="#fa759e"/><path d="m322.636719 154.984375c-3.964844 0-7.65625-1.960937-9.875-5.242187-1.789063-2.632813-2.429688-5.808594-1.832031-8.933594.605468-3.128906 2.382812-5.832032 5.019531-7.613282 16.050781-10.851562 25.628906-28.859374 25.628906-48.167968 0-18.183594-8.703125-35.554688-23.289063-46.46875-5.257812-3.9375-6.335937-11.421875-2.402343-16.683594 2.238281-2.992188 5.808593-4.773438 9.542969-4.773438 2.589843 0 5.054687.820313 7.136718 2.375 20.570313 15.382813 32.847656 39.890626 32.847656 65.550782 0 27.234375-13.496093 52.617187-36.101562 67.910156-1.980469 1.339844-4.285156 2.046875-6.675781 2.046875zm0 0" fill="#fa759e"/><g fill="#3a2c60"><path d="m313.59375 231.816406c-2.210938 0-4 1.792969-4 4v23.949219c0 2.207031 1.789062 4 4 4s4-1.792969 4-4v-23.949219c0-2.207031-1.789062-4-4-4zm0 0"/><path d="m261.753906 175.328125h-198.722656c-2.210938 0-4 1.792969-4 4s1.789062 4 4 4h198.726562c2.210938 0 4-1.792969 4-4s-1.792968-4-4.003906-4zm0 0"/><path d="m261.753906 225.238281h-198.722656c-2.210938 0-4 1.789063-4 4 0 2.207031 1.789062 4 4 4h198.726562c2.210938 0 4-1.792969 4-4 0-2.210937-1.792968-4-4.003906-4zm0 0"/><path d="m261.753906 275.140625h-198.722656c-2.210938 0-4 1.792969-4 4s1.789062 4 4 4h198.726562c2.210938 0 4-1.792969 4-4s-1.792968-4-4.003906-4zm0 0"/><path d="m261.753906 325.046875h-198.722656c-2.210938 0-4 1.792969-4 4 0 2.210937 1.789062 4 4 4h198.726562c2.210938 0 4-1.789063 4-4 0-2.207031-1.792968-4-4.003906-4zm0 0"/><path d="m261.753906 374.957031h-198.722656c-2.210938 0-4 1.792969-4 4s1.789062 4 4 4h198.726562c2.210938 0 4-1.792969 4-4s-1.792968-4-4.003906-4zm0 0"/><path d="m334.960938 16.273438c-2.769532-2.078126-6.066407-3.171876-9.527344-3.171876-4.988282 0-9.75 2.382813-12.746094 6.378907-5.253906 7.027343-3.816406 17.023437 3.210938 22.285156 13.574218 10.160156 21.679687 26.332031 21.679687 43.261719 0 16.339844-7.429687 31.621094-19.984375 41.867187v-15.65625c4.636719-7.832031 7.175781-16.847656 7.175781-26.210937 0-17.140625-8.484375-33.078125-22.699219-42.644532-2.636718-1.769531-5.707031-2.710937-8.882812-2.710937-5.304688 0-10.246094 2.628906-13.21875 7.039063-4.890625 7.285156-2.949219 17.195312 4.320312 22.085937 1.457032.980469 2.738282 2.144531 3.855469 3.429687h-23.464843c-3.875-10.636718-13.421876-18.550781-24.976563-20.054687v-37.238281c0-5.507813-3.015625-10.550782-7.867187-13.15625-4.859376-2.601563-10.71875-2.332032-15.3125.710937l-49.085938 32.53125c-.011719 0-.027344 0-.039062 0-22.699219 0-41.714844 15.945313-46.523438 37.214844h-93.238281c-15.160157 0-27.492188 12.328125-27.492188 27.484375v320.085938c0 15.15625 12.332031 27.488281 27.492188 27.488281h262.46875c15.15625 0 27.488281-12.332031 27.488281-27.488281v-140.039063c0-2.210937-1.789062-4-4-4s-4 1.789063-4 4v140.042969c0 10.746094-8.742188 19.488281-19.488281 19.488281h-262.46875c-10.746094 0-19.492188-8.746094-19.492188-19.488281v-320.089844c0-10.746094 8.746094-19.484375 19.492188-19.484375h92.164062c-.042969.839844-.125 1.667969-.125 2.515625 0 26.3125 21.410157 47.726562 47.726563 47.726562h.039062l49.085938 32.53125c2.496094 1.65625 5.367187 2.488282 8.246094 2.488282 2.421874 0 4.847656-.585938 7.070312-1.777344 4.851562-2.605469 7.867188-7.644531 7.867188-13.15625v-37.238281c15.128906-1.972657 26.859374-14.910157 26.859374-30.566407 0-.847656-.058593-1.683593-.128906-2.515624h23.667969c.78125 0 1.527344.121093 2.28125.222656.355469 1.480468.550781 3.011718.550781 4.574218 0 5.816407-2.53125 11.273438-6.941406 14.976563-6.722656 5.632813-7.601562 15.691406-1.960938 22.4375 3.039063 3.601563 7.484376 5.671875 12.195313 5.671875 3.734375 0 7.367187-1.324219 10.222656-3.71875 1.109375-.929688 2.128907-1.9375 3.144531-2.945312v12.53125c-1.253906 1.804687-2.160156 3.847656-2.589843 6.078124-.800781 4.183594.074219 8.417969 2.445312 11.917969.046875.066407.101563.125.144531.1875v63.648438c0 2.207031 1.789063 4 4 4 2.210938 0 4-1.792969 4-4v-57.679688c1.609376.535157 3.304688.847657 5.046876.847657 3.1875 0 6.265624-.945313 8.917968-2.734376 23.707032-16.035156 37.859375-42.65625 37.859375-71.222656-.011719-26.921875-12.886719-52.625-34.464843-68.761718zm-207.28125 66.476562c0-20.558594 15.691406-37.511719 35.726562-39.527344v79.050782c-20.035156-2.011719-35.726562-18.96875-35.726562-39.523438zm104.027343 67.808594c0 2.597656-1.367187 4.882812-3.652343 6.109375-2.285157 1.222656-4.9375 1.105469-7.105469-.332031l-49.542969-32.835938v-81.507812l49.542969-32.835938c2.160156-1.433594 4.820312-1.554688 7.105469-.332031 2.285156 1.226562 3.652343 3.511719 3.652343 6.109375zm8-45.300782v-45.019531c10.703125 1.898438 18.859375 11.265625 18.859375 22.511719 0 11.238281-8.15625 20.609375-18.859375 22.507812zm61.597657 13.011719c-3.210938 2.703125-8.445313 2.230469-11.144532-.96875-2.804687-3.351562-2.371094-8.359375.972656-11.164062 6.234376-5.226563 9.804688-12.921875 9.804688-21.105469 0-9.1875-4.550781-17.734375-12.179688-22.867188-3.613281-2.429687-4.578124-7.359374-2.148437-10.980468 1.480469-2.195313 3.9375-3.503906 6.582031-3.503906 1.578125 0 3.101563.46875 4.414063 1.347656 12.003906 8.078125 19.167969 21.535156 19.167969 36.003906-.003907 12.882812-5.640626 24.996094-15.46875 33.238281zm25.765624 31.351563c-3.507812 2.378906-8.632812 1.375-10.996093-2.128906-1.183594-1.738282-1.613281-3.847657-1.21875-5.921876.402343-2.082031 1.585937-3.878906 3.339843-5.0625 17.144532-11.59375 27.382813-30.84375 27.382813-51.484374 0-19.4375-9.304687-38.007813-24.886719-49.667969-3.496094-2.613281-4.214844-7.585938-1.597656-11.082031 1.488281-1.988282 3.855469-3.171876 6.339844-3.171876 1.71875 0 3.355468.542969 4.742187 1.578126 19.5625 14.632812 31.242188 37.941406 31.242188 62.347656-.003907 25.90625-12.84375 50.054687-34.347657 64.59375zm0 0"/></g></svg>