<svg height="485pt" viewBox="-14 0 485 485.744" width="485pt" xmlns="http://www.w3.org/2000/svg"><path d="m146.8125 329.554688c-17.34375-3.160157-34.007812 8.40625-37.15625 25.746093-3.144531 17.339844 8.402344 34.007813 25.742188 37.15625 1.921874.347657 3.832031.515625 5.71875.515625 15.148437 0 28.640624-10.839844 31.441406-26.261718 3.144531-17.339844-8.402344-34.007813-25.746094-37.15625zm0 0" fill="#e6e7e8"/><path d="m455.285156 35.929688c-1.402344-.664063-3.0625-.453126-4.25.535156-29.363281 24.257812-59.503906 11.433594-91.421875-2.136719-30.164062-12.828125-61.308593-26.019531-93.765625-9.214844v-5.113281c0-2.207031-1.789062-4-4-4-2.210937 0-4 1.792969-4 4v203.167969h-24.128906l-1.023438-38.503907c-.3125-11.667968-5.585937-22.5-14.347656-29.9375 10.449219-8.605468 16.542969-21.691406 16.179688-35.351562-.082032-3-.464844-5.917969-1.109375-8.738281h5.707031c5.78125 0 11.042969-3.417969 13.402344-8.707031l1.164062-2.621094c1.4375-3.238282 1.144532-6.945313-.785156-9.917969-1.925781-2.96875-5.199219-4.746094-8.742188-4.746094h-13.109374v-18.667969c0-7.351562-5.984376-13.332031-13.335938-13.332031h-2.0625c-5.960938 0-11.726562 1.277344-17.125 3.792969l-24.613281 11.460938c-2.492188 1.160156-5.144531 1.75-7.886719 1.75h-13.976562c-7.167969 0-13 5.832031-13 13 0 5.671874 3.675781 10.457031 8.753906 12.226562v11.773438c0 .324218.109375.613281.183594.910156-1.382813 4.480468-2.105469 9.238281-1.972657 14.171875.363281 13.472656 6.980469 26.035156 17.613281 34.089843l-49.664062 27.054688c-13.3125 7.253906-18.246094 23.984375-10.988281 37.300781l10.449219 19.183594c-15.339844 3.492187-30.023438 9.90625-43.34375 19.132813-27.382813 18.972656-45.738282 47.472656-51.6875 80.25-12.269532 67.667968 32.785156 132.707031 100.449218 144.984374 7.496094 1.363282 14.960938 2.015626 22.324219 2.015626 59.101563 0 111.742187-42.292969 122.660156-102.460938 1.390625-7.667969 2.035157-15.355469 2.007813-22.988281l4.957031.898437c7.632813 1.386719 13.933594 6.507813 16.851563 13.699219l27.394531 67.601563c4.386719 10.828124 14.847656 17.402343 25.863281 17.402343 3.480469 0 7.019531-.65625 10.4375-2.039062 6.898438-2.796875 12.296875-8.113281 15.199219-14.96875 2.898437-6.855469 2.957031-14.429688.160156-21.332031l-33.0625-81.582032c-6.582031-16.246094-20.804687-27.808594-38.050781-30.933594l-29.738282-5.394531v-38.863281c11.261719-.257812 20.359376-9.457031 20.359376-20.78125s-9.097657-20.523438-20.359376-20.78125v-75.261719c30.453126-18.113281 59.699219-5.734375 90.640626 7.421875 19.148437 8.144532 38.675781 16.449219 58.222656 16.449219 13.84375 0 27.695312-4.167969 41.421875-15.507813.917969-.761718 1.449219-1.890624 1.449219-3.085937v-113.6875c-.003907-1.546875-.894532-2.957031-2.300782-3.617187zm-232.6875 323.191406c.125 5.40625-.289062 10.910156-1.292968 16.433594-.476563 2.636718-1.097657 5.210937-1.8125 7.734374-.207032.71875-.46875 1.414063-.6875 2.125-.566407 1.804688-1.152344 3.597657-1.835938 5.339844-.304688.777344-.660156 1.539063-.988281 2.304688-.703125 1.636718-1.425781 3.257812-2.226563 4.832031-.378906.75-.789062 1.480469-1.195312 2.21875-3.410156 6.222656-7.574219 11.914063-12.382813 16.964844-.402343.421875-.792969.847656-1.199219 1.257812-1.472656 1.480469-3 2.894531-4.578124 4.257813-.332032.285156-.652344.585937-.988282.867187-5.734375 4.796875-12.113281 8.785157-18.949218 11.863281-.324219.144532-.640626.300782-.964844.441407-6.996094 3.042969-14.449219 5.125-22.167969 6.105469-.324219.039062-.652344.066406-.976563.101562-2.128906.242188-4.273437.394531-6.4375.46875-.628906.019531-1.253906.035156-1.882812.039062-1.929688.019532-3.867188-.042968-5.8125-.160156-.675781-.042968-1.355469-.058594-2.03125-.121094-2.535156-.214843-5.082031-.523437-7.632812-.988281-21.417969-3.886719-40.046876-15.882812-52.449219-33.777343-12.398438-17.898438-17.082031-39.550782-13.195313-60.972657 3.886719-21.425781 15.882813-40.050781 33.777344-52.449219 12.246094-8.484374 26.261719-13.261718 40.746094-14.246093l.46875.855469c3.625 6.65625 10.507812 10.429687 17.601562 10.429687 3.230469 0 6.503906-.78125 9.535156-2.433594 2.089844-1.136719 3.828126-2.644531 5.324219-4.328125 11.304688 4.011719 21.367188 10.304688 29.617188 18.363282 14.96875 14.640624 24.121093 34.828124 24.617187 56.472656zm-70.207031-131.859375-8.304687-15.238281 7.785156-4.238282zm97.960937 73.5625c-2.046874-3.703125-4.289062-7.324219-6.726562-10.851563-2.621094-3.785156-5.441406-7.375-8.414062-10.804687l-.382813-14.351563h23.019531v37.363282zm0 0" fill="#e6e7e8"/><path d="m249.375 211.164062h-35.554688l.894532 33.65625h34.660156c9.292969 0 16.828125-7.53125 16.828125-16.828124 0-9.292969-7.53125-16.828126-16.828125-16.828126zm0 0" fill="#fa759e"/><path d="m346.988281 407.050781-33.0625-81.582031c-6.03125-14.878906-19.257812-25.636719-35.054687-28.5l-47.167969-8.5625c8.257813 15.523438 13.167969 32.90625 13.984375 51.0625l9.816406 1.777344c8.941406 1.625 16.429688 7.714844 19.84375 16.132812l27.394532 67.601563c4.953124 12.21875 18.871093 18.109375 31.089843 13.15625 12.21875-4.949219 18.105469-18.867188 13.15625-31.085938zm0 0" fill="#fa759e"/><path d="m195.558594 138.691406c11.699218-7.3125 19.359375-20.417968 18.964844-35.210937-.121094-4.515625-1.011719-8.820313-2.492188-12.835938h-75.535156c-1.722656 4.660157-2.628906 9.707031-2.484375 14.980469.390625 14.789062 8.738281 27.472656 20.8125 34.152344-9.664063 6.84375-15.847657 18.21875-15.507813 30.945312l1.449219 54.589844c1.960937.257812 3.925781.558594 5.890625.914062 27.609375 5.011719 51.285156 19.066407 68.589844 38.53125l-2.554688-95.988281c-.335937-12.726562-7.121094-23.761719-17.132812-30.078125zm0 0" fill="#fa759e"/><path d="m136.046875 75.644531h75v-25.667969c0-5.15625-4.179687-9.332031-9.332031-9.332031h-2.0625c-5.332032 0-10.601563 1.167969-15.4375 3.414063l-24.617188 11.464844c-2.996094 1.398437-6.261718 2.121093-9.570312 2.121093h-13.980469c-4.972656 0-9 4.027344-9 9 0 4.972657 4.03125 9 9 9zm0 0" fill="#0089ef"/><path d="m135.800781 75.644531h75.25v15h-75.25zm0 0" fill="#6dc9f7"/><path d="m223.117188 90.632812h-12.058594v-17.988281h17.101562c4.652344 0 7.757813 4.789063 5.871094 9.035157l-1.164062 2.621093c-1.714844 3.851563-5.535157 6.332031-9.75 6.332031zm0 0" fill="#0089ef"/><path d="m146.65625 226.226562c-2.421875-.4375-4.835938-.777343-7.25-1.066406l12.113281 22.230469c2.867188 5.261719 2.40625 11.390625-.558593 16.128906 40.441406 12.78125 66.050781 53.921875 58.277343 96.753907-8.429687 46.464843-52.933593 77.296874-99.398437 68.871093-46.46875-8.433593-77.300782-52.9375-68.871094-99.402343 7.289062-40.179688 41.554688-68.644532 80.734375-70.171876l-18.171875-33.351562c-48.058594 8.734375-87.96875 46.328125-97.203125 97.238281-11.90625 65.597657 31.625 128.425781 97.226563 140.332031 65.601562 11.902344 128.429687-31.628906 140.332031-97.230468 11.898437-65.601563-31.632813-128.429688-97.230469-140.332032zm0 0" fill="#0089ef"/><path d="m130.8125 317.628906c-15.117188-3.15625-29.929688 6.542969-33.085938 21.660156-3.15625 15.117188 6.542969 29.929688 21.660157 33.085938 15.117187 3.15625 29.933593-6.542969 33.085937-21.660156 3.15625-15.117188-6.539062-29.933594-21.660156-33.085938zm0 0" fill="#0089ef"/><path d="m168.070312 169.679688-45.40625 24.742187 28.855469 52.964844c4.226563 7.761719 1.363281 17.480469-6.394531 21.714843-7.761719 4.226563-17.480469 1.363282-21.714844-6.398437l-32.925781-60.441406c-6.210937-11.398438-2.003906-25.664063 9.390625-31.875l52.882812-28.8125zm0 0" fill="#fa759e"/><path d="m437.582031 23.546875c-61.09375 50.476563-124.25-49.476563-191.050781-8v113.6875c66.800781-41.46875 129.957031 58.476563 191.050781 8 0-45.472656 0-68.214844 0-113.6875zm0 0" fill="#fff"/><path d="m437.582031 36.46875c-61.09375 50.476562-124.25-49.476562-191.050781-8v100.765625c66.800781-41.46875 129.957031 58.476563 191.050781 8 0-2.84375 0-24.300781 0-30.550781 0-14.03125 0-67.375 0-70.214844zm0 0" fill="#6dc9f7"/><path d="m343.03125 52.59375 7.3125 17.296875 18.710938 1.609375c1.769531.152344 2.480468 2.351562 1.140624 3.515625l-14.195312 12.300781 4.253906 18.292969c.402344 1.726563-1.472656 3.085937-2.988281 2.171875l-16.082031-9.703125-16.085938 9.703125c-1.519531.914062-3.390625-.445312-2.988281-2.171875l4.257813-18.292969-14.195313-12.300781c-1.339844-1.160156-.625-3.363281 1.140625-3.515625l18.710938-1.609375 7.3125-17.296875c.6875-1.632812 3.003906-1.632812 3.695312 0zm0 0" fill="#fa759e"/><g fill="#3a2c60"><path d="m186.539062 398.597656c-3.136718 3.585938-6.617187 6.925782-10.34375 9.917969-1.71875 1.382813-1.992187 3.898437-.609374 5.625.789062.984375 1.949218 1.496094 3.121093 1.496094.878907 0 1.761719-.289063 2.503907-.882813 4.085937-3.285156 7.90625-6.949218 11.351562-10.894531 1.453125-1.664063 1.285156-4.1875-.378906-5.644531-1.660156-1.445313-4.183594-1.28125-5.644532.382812zm0 0"/><path d="m130.8125 313.554688c-17.339844-3.160157-34.007812 8.40625-37.15625 25.746093-3.144531 17.339844 8.402344 34.007813 25.742188 37.15625 1.921874.347657 3.832031.515625 5.71875.515625 15.148437 0 28.640624-10.839844 31.441406-26.261718 3.144531-17.339844-8.402344-34.011719-25.746094-37.15625zm17.871094 35.726562c-2.359375 13-14.878906 21.667969-27.855469 19.304688-6.296875-1.144532-11.773437-4.671876-15.417969-9.933594-3.644531-5.261719-5.023437-11.628906-3.878906-17.925782 2.359375-13 14.855469-21.660156 27.851562-19.300781 6.300782 1.140625 11.777344 4.667969 15.421876 9.929688 3.640624 5.265625 5.023437 11.628906 3.878906 17.925781zm0 0"/><path d="m369.394531 67.515625-16.3125-1.398437-6.371093-15.082032s0 0 0-.003906c-.941407-2.222656-3.113282-3.664062-5.53125-3.664062-2.421876 0-4.589844 1.441406-5.53125 3.667968l-6.375 15.082032-16.308594 1.398437c-2.414063.207031-4.449219 1.828125-5.199219 4.128906-.746094 2.300781-.050781 4.8125 1.78125 6.394531l12.371094 10.71875-3.707031 15.941407c-.550782 2.355469.359374 4.796875 2.316406 6.222656 1.050781.761719 2.285156 1.148437 3.527344 1.148437 1.074218 0 2.144531-.285156 3.105468-.863281l14.015625-8.449219 14.015625 8.449219c2.074219 1.253907 4.667969 1.140625 6.628906-.277343 1.953126-1.421876 2.871094-3.863282 2.324219-6.222657l-3.714843-15.941406 12.378906-10.722656c1.828125-1.582031 2.523437-4.09375 1.773437-6.394531-.734375-2.308594-2.773437-3.929688-5.1875-4.132813zm-16.011719 16.773437c-1.125.972657-1.613281 2.484376-1.277343 3.925782l3.191406 13.695312-12.046875-7.261718c-.636719-.382813-1.351562-.578126-2.066406-.578126s-1.429688.195313-2.070313.578126l-12.039062 7.257812 3.183593-13.695312c.335938-1.441407-.152343-2.957032-1.273437-3.925782l-10.625-9.210937 14.011719-1.199219c1.476562-.128906 2.761718-1.0625 3.339844-2.425781l5.472656-12.953125 5.472656 12.953125c.578125 1.367187 1.863281 2.304687 3.339844 2.425781l14.011718 1.199219zm0 0"/><path d="m439.285156 19.929688c-1.40625-.664063-3.058594-.453126-4.25.535156-29.359375 24.257812-59.503906 11.4375-91.421875-2.136719-30.160156-12.828125-61.3125-26.023437-93.765625-9.214844v-5.113281c0-2.207031-1.789062-4-4-4-2.210937 0-4 1.792969-4 4v203.167969h-24.128906l-1.023438-38.503907c-.3125-11.667968-5.582031-22.5-14.347656-29.9375 10.449219-8.605468 16.542969-21.691406 16.179688-35.351562-.082032-2.9375-.492188-5.855469-1.164063-8.738281h5.761719c5.78125 0 11.042969-3.417969 13.402344-8.707031l1.164062-2.621094c1.4375-3.238282 1.144532-6.945313-.785156-9.917969-1.925781-2.96875-5.199219-4.746094-8.742188-4.746094h-13.109374v-18.667969c0-7.351562-5.984376-13.332031-13.335938-13.332031h-2.0625c-5.960938 0-11.726562 1.277344-17.125 3.792969l-24.613281 11.460938c-2.492188 1.160156-5.144531 1.75-7.886719 1.75h-13.976562c-7.167969 0-13 5.832031-13 13 0 5.667968 3.675781 10.429687 8.753906 12.199218v11.800782c0 .347656.113281.660156.195312.980468-1.414062 4.59375-2.113281 9.324219-1.988281 14.101563.363281 13.472656 6.980469 26.035156 17.613281 34.089843l-49.664062 27.054688c-13.3125 7.253906-18.246094 23.984375-10.988282 37.300781l10.46875 19.222657c-15.34375 3.488281-30.042968 9.863281-43.367187 19.09375-27.382813 18.96875-45.738281 47.46875-51.691406 80.246093-12.273438 67.667969 32.785156 132.707031 100.449219 144.984375 7.496093 1.363282 14.960937 2.015625 22.324218 2.015625 59.101563 0 111.742188-42.292969 122.660156-102.460937 1.390626-7.667969 2.035157-15.355469 2.007813-22.988282l4.953125.898438c7.636719 1.386719 13.9375 6.507812 16.855469 13.699219l27.394531 67.601562c4.386719 10.828125 14.847656 17.402344 25.863281 17.402344 3.480469 0 7.019531-.65625 10.4375-2.039063 14.238281-5.773437 21.132813-22.050781 15.363281-36.296874l-33.066406-81.582032c-6.582031-16.246094-20.804687-27.808594-38.050781-30.933594l-29.738281-5.394531v-38.863281c11.261718-.257812 20.359375-9.457031 20.359375-20.78125s-9.097657-20.523438-20.359375-20.78125v-75.261719c30.457031-18.113281 59.699218-5.734375 90.640625 7.421875 19.148437 8.144532 38.675781 16.449219 58.222656 16.449219 13.84375 0 27.695313-4.167969 41.421875-15.507813.917969-.761718 1.449219-1.890624 1.449219-3.085937v-113.6875c.007812-1.546875-.882813-2.957031-2.289063-3.617187zm-221.355468 195.234374h23.917968v25.65625h-23.234375l-.550781-20.679687zm-82.058594-23.382812.519531 19.480469-8.304687-15.242188zm3.929687-112.136719h67.25v7h-67.25zm75.257813-3h13.097656c1.1875 0 1.816406.769531 2.035156 1.101563.214844.332031.664063 1.222656.179688 2.308594l-1.160156 2.617187c-1.074219 2.402344-3.464844 3.960937-6.09375 3.960937h-8.058594zm-79.007813-15h13.976563c3.859375 0 7.75-.859375 11.257812-2.492187l24.613282-11.464844c4.339843-2.019531 8.964843-3.042969 13.753906-3.042969h2.0625c2.941406 0 5.335937 2.390625 5.335937 5.332031v21.667969h-71c-2.753906 0-5-2.246093-5-5 0-2.757812 2.242188-5 5-5zm-34.265625 112.25 52.890625-28.808593c.5-.273438.90625-.636719 1.234375-1.0625.410156-.332032.792969-.679688 1.226563-.988282 1.117187-.796875 1.753906-2.109375 1.679687-3.488281-.078125-1.375-.851562-2.609375-2.058594-3.277344-11.226562-6.214843-18.410156-18-18.75-30.761719-.097656-3.671874.367188-7.320312 1.386719-10.871093h69.746094c.839844 2.933593 1.304687 5.929687 1.386719 8.9375.339844 12.761719-6.207032 24.914062-17.085938 31.714843-1.164062.730469-1.875 2.007813-1.878906 3.382813s.703125 2.660156 1.863281 3.390625c9.269531 5.851562 14.980469 15.875 15.269531 26.800781l2.28125 85.652344c-6.386718-6.078125-13.375-11.417969-20.847656-15.984375-.382812-.230469-.757812-.46875-1.136718-.691406-2.339844-1.390625-4.71875-2.726563-7.148438-3.96875-.289062-.148438-.585938-.273438-.875-.417969-2.085938-1.042969-4.203125-2.011719-6.34375-2.9375-.699219-.300781-1.394531-.59375-2.09375-.882813-2.398438-.980468-4.828125-1.914062-7.296875-2.75-.308594-.101562-.625-.1875-.929687-.289062-2.265626-.746094-4.566407-1.417969-6.882813-2.035156-.699219-.1875-1.398437-.367188-2.105469-.542969-2.621094-.652344-5.261718-1.25-7.941406-1.734375-.019531-.003906-.035156-.003906-.054688-.007812-.878906-.160157-1.761718-.308594-2.636718-.449219l-.917969-34.355469 26.226563-14.289062c1.9375-1.054688 2.65625-3.484376 1.59375-5.421876-1.058594-1.9375-3.476563-2.664062-5.421876-1.597656l-45.417968 24.746094c-.925782.503906-1.617188 1.367188-1.917969 2.382812-.300781 1.015626-.183594 2.109376.324219 3.042969l28.859375 52.96875c3.164062 5.816407 1.011719 13.121094-4.800781 16.289063-5.808594 3.164062-13.117188 1.007812-16.285157-4.800782l-32.925781-60.445312c-5.144531-9.441406-1.648438-21.304688 7.785156-26.449219zm138.160156 191.949219c-10.214843 56.316406-59.46875 95.898438-114.785156 95.894531-6.890625 0-13.882812-.613281-20.894531-1.886719-63.324219-11.492187-105.496094-72.355468-94.003906-135.679687 5.566406-30.675781 22.746093-57.347656 48.371093-75.105469 13.109376-9.082031 27.644532-15.195312 42.808594-18.324218l13.835938 25.402343c-14.621094 1.578125-28.71875 6.679688-41.152344 15.292969-19.652344 13.613281-32.824219 34.070312-37.09375 57.59375s.878906 47.304688 14.496094 66.957031c13.617187 19.652344 34.070312 32.824219 57.589844 37.089844 5.402343.980469 10.804687 1.464844 16.183593 1.464844 13.882813 0 27.527344-3.246094 40.140625-9.628907 1.972656-1 2.761719-3.402343 1.765625-5.375-1.003906-1.972656-3.410156-2.753906-5.375-1.761718-15.9375 8.058594-33.683593 10.621094-51.285156 7.429687-21.417969-3.886719-40.046875-15.882812-52.449219-33.777343-12.398437-17.898438-17.082031-39.550782-13.195312-60.972657 3.882812-21.421875 15.878906-40.050781 33.777344-52.449219 12.238281-8.484374 26.246093-13.300781 40.726562-14.289062l.488281.898438c3.625 6.65625 10.507813 10.429687 17.601563 10.429687 3.230468 0 6.503906-.78125 9.535156-2.433594 2.082031-1.136719 3.824219-2.636719 5.316406-4.320312 36.96875 13.113281 60.175782 51.441406 52.953125 91.261719-1.765625 9.742187-5.222656 18.949218-10.265625 27.371093-1.136718 1.894531-.523437 4.351563 1.371094 5.484375 1.902344 1.140625 4.351562.523438 5.488281-1.371094 5.546875-9.246093 9.339844-19.359374 11.28125-30.050781 7.839844-43.222656-16.976562-84.851562-56.765625-99.714843 1.664063-5.066407 1.363282-10.757813-1.382812-15.796876l-8.25-15.140624c30.320312 5.726562 56.671875 22.808593 74.261718 48.195312 17.765626 25.628906 24.476563 56.636719 18.90625 87.3125zm70.273438-38.875 33.066406 81.582031c4.113282 10.15625-.796875 21.765625-10.953125 25.882813-10.152343 4.117187-21.761719-.796875-25.882812-10.953125l-27.394531-67.601563c-3.949219-9.746094-12.488282-16.6875-22.835938-18.566406l-6.671875-1.207031c-1.019531-14.628907-4.652344-28.921875-10.730469-42.339844l39.339844 7.132813c14.53125 2.640624 26.519531 12.386718 32.0625 26.070312zm-75.867188-42.144531c-2.046874-3.699219-4.289062-7.324219-6.726562-10.847657-2.621094-3.785156-5.445312-7.375-8.417969-10.808593l-.382812-14.347657h23.019531v37.363282zm27.855469-56.832031c0 6.910156-5.507812 12.523437-12.359375 12.78125v-25.5625c6.851563.253906 12.359375 5.867187 12.359375 12.78125zm171.375-92.671876c-28.90625 22.667969-58.578125 10.042969-89.96875-3.304687-19.996093-8.503906-40.414062-17.1875-61.363281-17.1875-10.4375 0-21.011719 2.15625-31.722656 7.566406v-104.585937c30.199218-17.527344 59.242187-5.179688 89.957031 7.882812 30.558594 12.992188 62.082031 26.394532 93.09375 5.8125v103.816406zm0 0"/></g></svg>