<svg height="438pt" viewBox="0 -16 438.67104 438" width="438pt" xmlns="http://www.w3.org/2000/svg"><path d="m437.75 195.777344c-1.585938-1.910156-16.902344-20.066406-41.070312-41.886719l33.296874-29.59375c6.589844-5.863281 7.191407-15.996094 1.328126-22.589844-2.839844-3.195312-6.753907-5.089843-11.023438-5.34375-4.222656-.21875-8.375 1.175781-11.566406 4.015625l-35.875 31.886719c-.292969.261719-.519532.582031-.792969.863281-14.46875-11.363281-30.742187-22.652344-48.25-32.386718l24.65625-35.226563c2.449219-3.5 3.394531-7.75 2.648437-11.957031-.742187-4.207032-3.078124-7.875-6.582031-10.332032-7.238281-5.050781-17.230469-3.28125-22.285156 3.933594l-27.53125 39.328125c-.035156.050781-.0625.117188-.101563.167969-16.511718-6.714844-33.734374-11.488281-51.257812-13.371094v-40.949218c0-8.824219-7.175781-16-16-16s-16 7.175781-16 16v40.949218c-17.523438 1.882813-34.753906 6.65625-51.265625 13.371094-.035156-.050781-.0625-.117188-.097656-.171875l-27.53125-39.328125c-5.070313-7.226562-15.0625-8.988281-22.28125-3.929688-3.503907 2.453126-5.839844 6.121094-6.585938 10.328126-.742187 4.207031.199219 8.457031 2.648438 11.957031l24.660156 35.222656c-17.511719 9.734375-33.789063 21.027344-48.25 32.386719-.273437-.28125-.5-.597656-.792969-.859375l-35.871094-31.886719c-3.199218-2.839844-7.292968-4.269531-11.578124-4.015625-4.261719.253906-8.179688 2.152344-11.015626 5.34375-5.863281 6.597656-5.265624 16.726563 1.328126 22.589844l33.296874 29.59375c-24.167968 21.820312-39.484374 39.976562-41.074218 41.886719-1.234375 1.480468-1.234375 3.636718 0 5.117187 3.433594 4.121094 70.792968 83.941406 153.339844 112.972656-.582032 1.425781-.894532 2.960938-.894532 4.542969 0 3.199219 1.25 6.203125 3.507813 8.460938l22.164062 22.164062-22.164062 22.164062c-2.257813 2.261719-3.507813 5.265626-3.507813 8.464844 0 3.199219 1.25 6.199219 3.507813 8.460938l15.363281 15.367187c2.332031 2.332031 5.402344 3.496094 8.460938 3.496094 3.066406 0 6.132812-1.167969 8.464843-3.5l22.167969-22.15625 22.164062 22.167969c4.671876 4.664062 12.265626 4.664062 16.921876 0l15.367187-15.363282c2.257813-2.261718 3.507813-5.265624 3.507813-8.464843s-1.25-6.199219-3.507813-8.460938l-22.164063-22.167969 22.164063-22.164062c2.257813-2.257812 3.507813-5.265625 3.507813-8.464844 0-1.582031-.308594-3.117187-.898438-4.542968 81.171875-28.546876 147.597656-106.128907 153.046875-112.625.148437-.175782.261719-.308594.292969-.347657.617187-.738281.925781-1.652343.925781-2.558593.003906-.910157-.304687-1.816407-.921875-2.558594zm0 0" fill="#e6e7e8"/><g fill="#0089ef"><path d="m211.34375 60.335938c3.988281 0 7.972656.226562 11.941406.5625.011719-.191407.058594-.367188.058594-.5625v-44c0-6.628907-5.371094-12-12-12s-12 5.371093-12 12v44c0 .191406.046875.371093.054688.5625 3.972656-.335938 7.957031-.5625 11.945312-.5625zm0 0"/><path d="m301.84375 86.257812 27.332031-39.039062c3.800781-5.425781 2.480469-12.910156-2.949219-16.710938-5.441406-3.804687-12.914062-2.476562-16.714843 2.949219l-27.527344 39.324219c-.6875.980469-1.152344 2.046875-1.511719 3.128906 7.28125 3.113282 14.410156 6.605469 21.371094 10.347656zm0 0"/><path d="m374.460938 137.914062c.324218-.234374.671874-.445312.980468-.722656l35.878906-31.886718c4.949219-4.40625 5.398438-11.988282.996094-16.941407-4.410156-4.957031-11.992187-5.398437-16.941406-.996093l-35.875 31.886718c-1.214844 1.082032-2.148438 2.355469-2.816406 3.730469 6.300781 5.039063 12.257812 10.0625 17.777344 14.929687zm0 0"/><path d="m47.246094 137.195312c.3125.277344.652344.484376.984375.722657 5.515625-4.871094 11.472656-9.890625 17.78125-14.929688-.667969-1.375-1.605469-2.648437-2.816407-3.730469l-35.875-31.886718c-4.953124-4.40625-12.542968-3.957032-16.941406.996094-4.398437 4.953124-3.957031 12.539062.996094 16.941406zm0 0"/><path d="m120.84375 86.257812c6.964844-3.746093 14.089844-7.234374 21.371094-10.351562-.359375-1.082031-.824219-2.148438-1.511719-3.128906l-27.527344-39.324219c-3.800781-5.425781-11.285156-6.753906-16.714843-2.949219-5.429688 3.800782-6.753907 11.285156-2.949219 16.710938zm0 0"/></g><path d="m211.34375 60.335938c-105.671875 0-207.332031 122-207.332031 122s101.664062 122 207.332031 122 207.332031-122 207.332031-122-101.660156-122-207.332031-122zm0 0" fill="#ffd7e5"/><path d="m211.34375 80.335938c-91.8125 0-180.144531 102-180.144531 102s88.332031 102 180.144531 102 180.144531-102 180.144531-102-88.332031-102-180.144531-102zm0 0" fill="#6dc9f7"/><path d="m288.546875 182.335938c0 42.636718-34.566406 77.203124-77.203125 77.203124-42.640625 0-77.203125-34.566406-77.203125-77.203124 0-42.640626 34.5625-77.203126 77.203125-77.203126 42.636719 0 77.203125 34.5625 77.203125 77.203126zm0 0" fill="#0089ef"/><path d="m249.050781 182.335938c0 20.824218-16.882812 37.707031-37.707031 37.707031-20.828125 0-37.707031-16.882813-37.707031-37.707031 0-20.824219 16.878906-37.707032 37.707031-37.707032 20.824219 0 37.707031 16.882813 37.707031 37.707032zm0 0" fill="#d4fbff"/><path d="m262.96875 296.78125-15.367188-15.367188c-3.109374-3.109374-8.15625-3.109374-11.265624 0l-24.992188 24.992188-24.992188-24.992188c-3.113281-3.109374-8.15625-3.109374-11.269531 0l-15.363281 15.367188c-3.113281 3.109375-3.113281 8.152344 0 11.265625l24.992188 24.992187-24.992188 24.992188c-3.113281 3.113281-3.113281 8.15625 0 11.269531l15.363281 15.363281c3.113281 3.113282 8.15625 3.113282 11.269531 0l24.992188-24.992187 24.992188 24.992187c3.109374 3.113282 8.15625 3.113282 11.265624 0l15.367188-15.363281c3.109375-3.113281 3.109375-8.15625 0-11.269531l-24.992188-24.992188 24.992188-24.992187c3.109375-3.113281 3.109375-8.15625 0-11.265625zm0 0" fill="#fff"/><path d="m237.976562 333.039062 24.992188-24.992187c3.109375-3.113281 3.109375-8.15625 0-11.265625l-14.617188-14.617188-24.246093 24.242188-6.382813-6.382812-6.378906 6.382812-24.246094-24.242188-14.613281 14.617188c-3.113281 3.109375-3.113281 8.152344 0 11.265625l24.992187 24.992187-24.992187 24.992188c-3.113281 3.113281-3.113281 8.15625 0 11.269531l14.613281 14.613281 24.246094-24.242187 6.382812 6.382813 6.382813-6.382813 24.246094 24.242187 14.617187-14.613281c3.109375-3.113281 3.109375-8.15625 0-11.269531zm0 0" fill="#fa759e"/><path d="m421.75 179.777344c-1.585938-1.910156-16.902344-20.066406-41.070312-41.886719l33.296874-29.59375c6.589844-5.863281 7.191407-15.996094 1.328126-22.589844-2.839844-3.195312-6.753907-5.089843-11.023438-5.34375-4.222656-.21875-8.375 1.175781-11.566406 4.015625l-35.875 31.886719c-.296875.261719-.527344.574219-.796875.859375-14.464844-11.359375-30.738281-22.652344-48.253907-32.386719l24.660157-35.226562c2.449219-3.5 3.394531-7.75 2.648437-11.957031-.742187-4.207032-3.078125-7.875-6.582031-10.332032-7.238281-5.050781-17.230469-3.28125-22.285156 3.933594l-27.53125 39.328125c-.035157.050781-.0625.113281-.101563.167969-16.511718-6.71875-33.734375-11.488282-51.257812-13.371094v-40.945312c0-8.824219-7.175782-16-16-16-8.824219 0-16 7.175781-16 16v40.949218c-17.523438 1.882813-34.753906 6.65625-51.265625 13.371094-.035157-.050781-.0625-.117188-.097657-.171875l-27.53125-39.328125c-5.070312-7.226562-15.0625-8.988281-22.28125-3.929688-3.503906 2.453126-5.839843 6.121094-6.585937 10.328126-.742187 4.207031.199219 8.457031 2.648437 11.957031l24.660157 35.222656c-17.507813 9.734375-33.785157 21.023437-48.25 32.386719-.269531-.285156-.5-.597656-.796875-.859375l-35.871094-31.886719c-3.199219-2.839844-7.292969-4.269531-11.578125-4.015625-4.261719.253906-8.179687 2.152344-11.015625 5.34375-5.863281 6.597656-5.265625 16.726563 1.328125 22.589844l33.296875 29.59375c-24.167969 21.820312-39.484375 39.976562-41.074219 41.886719-1.234375 1.480468-1.234375 3.636718 0 5.117187 3.433594 4.121094 70.816407 83.882813 153.363281 112.910156-.597656 1.4375-.917968 3-.917968 4.605469 0 3.199219 1.246094 6.203125 3.507812 8.460938l22.164063 22.164062-22.164063 22.164062c-2.261718 2.261719-3.507812 5.265626-3.507812 8.464844 0 3.199219 1.246094 6.199219 3.507812 8.460938l15.363282 15.367187c2.332031 2.332031 5.402343 3.496094 8.460937 3.496094 3.066406 0 6.132813-1.167969 8.464844-3.5l22.175781-22.15625 22.164062 22.167969c4.671876 4.664062 12.265626 4.664062 16.921876 0l15.367187-15.363282c2.257813-2.261718 3.507813-5.265624 3.507813-8.464843s-1.25-6.199219-3.507813-8.460938l-22.164063-22.167969 22.164063-22.164062c2.257813-2.257812 3.507813-5.265625 3.507813-8.464844 0-1.621094-.328126-3.195312-.941407-4.648437 25.167969-8.886719 51.382813-23.308594 78.464844-43.40625 1.769531-1.320313 2.144531-3.824219.828125-5.597657-1.320312-1.773437-3.824219-2.140624-5.59375-.828124-27.417969 20.355468-53.835938 34.738281-79.039062 43.246093l-9.347657-9.347656c75.171875-22.03125 137.742188-93.304687 140.832031-96.867187 1.300782-1.503907 1.300782-3.738282 0-5.242188-3.65625-4.222656-90.589843-103.382812-183.164062-103.382812-92.578125 0-179.507812 99.160156-183.164062 103.378906-1.300782 1.503906-1.300782 3.738281 0 5.242187 3.085937 3.566407 65.664062 74.835938 140.832031 96.867188l-9.265625 9.261719c-74.125-25.195313-137.929688-94.519532-150.445313-108.75 15.359375-17.464844 107.914063-118 202.042969-118 94.136719 0 186.707031 100.5625 202.050781 118.003906-4.078125 4.660156-13.617187 15.222656-27.121093 28.128906-1.59375 1.527344-1.65625 4.058594-.125 5.65625 1.523437 1.59375 4.058593 1.65625 5.652343.125 18.550781-17.722656 29.496094-30.808594 29.949219-31.359375 1.234375-1.480469 1.234375-3.632813 0-5.113281zm-161.609375 125.441406-24.992187 24.992188c-1.566407 1.566406-1.566407 4.09375 0 5.65625l24.992187 24.996093c.75.75 1.164063 1.746094 1.164063 2.804688 0 1.058593-.417969 2.054687-1.164063 2.804687l-15.367187 15.363282c-1.542969 1.546874-4.0625 1.550781-5.609376 0l-24.992187-24.992188c-1.566406-1.5625-4.09375-1.5625-5.65625 0l-24.992187 24.992188c-1.542969 1.546874-4.0625 1.550781-5.613282 0l-15.363281-15.367188c-.75-.75-1.164063-1.746094-1.164063-2.804688 0-1.058593.417969-2.054687 1.164063-2.804687l24.992187-24.996094c1.5625-1.5625 1.5625-4.089843 0-5.65625l-24.992187-24.996093c-.75-.746094-1.164063-1.742188-1.164063-2.804688 0-1.058594.417969-2.054688 1.164063-2.808594l15.363281-15.363281c.773438-.773437 1.789063-1.160156 2.808594-1.160156 1.015625 0 2.03125.386719 2.804688 1.160156l24.992187 24.996094c1.5 1.5 4.15625 1.5 5.65625 0l24.992187-24.992188c1.542969-1.546875 4.0625-1.550781 5.609376 0l15.367187 15.367188c.75.746093 1.164063 1.742187 1.164063 2.800781 0 1.066406-.414063 2.0625-1.164063 2.8125zm-48.375-4.894531c-.136719 0-.28125.011719-.421875.011719-.144531 0-.285156-.011719-.429688-.011719l-12.746093-12.75c4.375.445312 8.761719.765625 13.175781.765625 4.410156 0 8.800781-.320313 13.175781-.765625zm-175.175781-117.988281c14.570312-15.84375 94.019531-98 174.753906-98 80.730469 0 160.1875 82.15625 174.75 98-12.488281 13.582031-72.679688 75.867187-140.476562 93.371093-4.003907-1.277343-8.519532-.421875-11.773438 2.601563-7.457031 1.308594-14.972656 2.027344-22.5 2.027344s-15.042969-.714844-22.496094-2.023438c-3.257812-3.023438-7.777344-3.882812-11.777344-2.601562-67.800781-17.503907-127.992187-79.789063-140.480468-93.375zm361.441406-91.980469c1.589844-1.421875 3.65625-2.128907 5.78125-2.007813 2.128906.125 4.085938 1.074219 5.511719 2.671875 1.414062 1.597657 2.125 3.652344 2.003906 5.785157-.125 2.128906-1.074219 4.085937-2.667969 5.507812l-34.039062 30.199219c-3.914063-3.421875-8.027344-6.898438-12.320313-10.402344zm-85.246094-54.609375c2.535156-3.609375 7.535156-4.492188 11.144532-1.960938 1.753906 1.222656 2.917968 3.058594 3.289062 5.164063.371094 2.101562-.097656 4.226562-1.324219 5.972656l-25.210937 36.011719c-4.789063-2.488282-9.648438-4.851563-14.589844-7.054688zm-109.441406 20.851562v-40.261718c0-4.414063 3.585938-8 8-8 4.410156 0 8 3.585937 8 8l.007812 40.261718c-2.886718-.179687-5.496093-.261718-8.007812-.261718s-5.117188.082031-8 .261718zm-106.558594-11.671875c-1.226562-1.75-1.695312-3.875-1.320312-5.976562.371094-2.105469 1.539062-3.941407 3.285156-5.167969 1.398438-.976562 2.992188-1.445312 4.582031-1.445312 2.523438 0 5.011719 1.1875 6.566407 3.40625l26.691406 38.132812c-4.9375 2.203125-9.804688 4.566406-14.585938 7.054688zm-82.757812 57.390625c-3.296875-2.929687-3.59375-7.996094-.664063-11.292968 1.417969-1.597657 3.378907-2.546876 5.511719-2.671876.160156-.007812.320312-.011718.480469-.011718 1.960937 0 3.828125.707031 5.304687 2.023437l35.722656 31.757813c-4.308593 3.507812-8.429687 6.996094-12.351562 10.421875zm0 0" fill="#3a2c60"/><path d="m375.621094 220.359375c-7.144532 6.445313-14.445313 12.648437-21.707032 18.4375-1.726562 1.378906-2.007812 3.894531-.628906 5.617187.789063.992188 1.953125 1.503907 3.128906 1.503907.875 0 1.753907-.28125 2.492188-.871094 7.378906-5.886719 14.804688-12.195313 22.078125-18.75 1.636719-1.480469 1.765625-4.007813.289063-5.648437-1.488282-1.640626-4.011719-1.765626-5.652344-.289063zm0 0" fill="#3a2c60"/><path d="m211.34375 263.542969c44.773438 0 81.207031-36.425781 81.207031-81.203125s-36.433593-81.207032-81.207031-81.207032c-44.777344 0-81.207031 36.425782-81.207031 81.203126 0 44.777343 36.429687 81.207031 81.207031 81.207031zm0-154.410157c40.367188 0 73.207031 32.839844 73.207031 73.203126 0 40.363281-32.839843 73.207031-73.207031 73.207031s-73.207031-32.839844-73.207031-73.203125c0-40.363282 32.839843-73.207032 73.207031-73.207032zm0 0" fill="#3a2c60"/></svg>