<svg height="437pt" viewBox="-38 0 437 437.756" width="437pt" xmlns="http://www.w3.org/2000/svg"><path d="m332.550781 338.730469-7.351562-212.046875c0-50.714844-33.308594-91.976563-74.25-92-2.953125-10.75-12.785157-18.683594-24.460938-18.683594h-87.960937c-11.679688 0-21.515625 7.933594-24.464844 18.683594-40.945312.019531-74.25 41.285156-74.246094 91.859375l-7.976562 230.238281c-4.578125 2.097656-7.980469 6.699219-8.742188 12.488281l-6.566406 50.105469c-.652344 4.996094.785156 9.929688 3.953125 13.535156 2.742187 3.121094 6.417969 4.84375 10.359375 4.84375h44.175781c3.941407 0 7.621094-1.722656 10.367188-4.84375 3.164062-3.605468 4.601562-8.542968 3.945312-13.535156l-6.5625-50.105469c-.875-6.691406-5.28125-11.785156-10.960937-13.261719l2.050781-59.066406h217.292969l1.375 39.613282c-20.195313 7.1875-34.71875 26.441406-34.71875 49.074218 0 28.742188 23.386718 52.128906 52.125 52.128906 28.738281 0 52.125-23.386718 52.125-52.128906.007812-20.636718-12.074219-38.457031-29.507813-46.898437zm-218.457031-256.046875h5.257812c4.660157 5.371094 11.519532 8.792968 19.167969 8.792968h87.96875c7.652344 0 14.507813-3.417968 19.167969-8.792968h5.261719c18.929687 0 34.335937 19.742187 34.339843 44.140625l1.335938 38.511719h-208.171875l1.339844-38.652344c-.003907-24.261719 15.398437-44 34.332031-44zm-36.863281 117.019531h210.554687l2.179688 62.863281h-214.914063zm0 0" fill="#e6e7e8"/><g fill="#ffd7e5"><path d="m274.734375 153.335938h-216.453125l-.910156 26.367187h218.277344zm0 0"/><path d="m278.105469 250.566406h-222.667969c-.179688 0-.347656.050782-.527344.054688l-.910156 26.167968c.476562.050782.945312.144532 1.4375.144532h223.578125zm0 0"/><path d="m101.136719 50.085938v-24.699219c0-.925781.160156-1.8125.277343-2.707031h-3.316406c-38.753906 0-70.28125 39.480468-70.28125 88l-8.074218 233.019531c.546874-.101563 1.101562-.175781 1.671874-.175781h30.28125l8.066407-232.84375c0-26.398438 17.25-48 38.335937-48h7.25c-2.613281-3.542969-4.210937-7.875-4.210937-12.59375zm0 0"/><path d="m305.203125 110.679688c0-48.519532-31.535156-88-70.28125-88h-3.316406c.117187.894531.277343 1.78125.277343 2.707031v24.699219c0 4.714843-1.597656 9.050781-4.214843 12.59375h7.253906c21.082031 0 38.335937 21.601562 38.335937 48l7.371094 212.742187c4.238282-1.230469 8.691406-1.925781 13.3125-1.925781 6.625 0 12.945313 1.355468 18.699219 3.804687zm0 0"/></g><path d="m210.492188 71.472656h-87.964844c-11.765625 0-21.390625-9.625-21.390625-21.386718v-24.699219c0-11.761719 9.625-21.386719 21.390625-21.386719h87.964844c11.765624 0 21.390624 9.625 21.390624 21.386719v24.699219c0 11.761718-9.625 21.386718-21.390624 21.386718zm0 0" fill="#fff"/><path d="m134.527344 16c-11.765625 0-21.390625 9.625-21.390625 21.386719v24.699219c0 2.769531.574219 5.40625 1.542969 7.84375 2.4375.96875 5.074218 1.542968 7.847656 1.542968h87.964844c11.765624 0 21.390624-9.625 21.390624-21.386718v-24.699219c0-2.769531-.574218-5.40625-1.546874-7.84375-2.433594-.972657-5.070313-1.542969-7.84375-1.542969zm0 0" fill="#0089ef"/><path d="m69.375 403.890625-6.566406-50.105469c-.769532-5.898437-5.171875-10.257812-10.347656-10.257812h-31.046876c-5.175781 0-9.578124 4.359375-10.347656 10.257812l-6.566406 50.105469c-.953125 7.292969 3.949219 13.855469 10.347656 13.855469h44.183594c6.394531.007812 11.296875-6.558594 10.34375-13.855469zm0 0" fill="#6dc9f7"/><path d="m293.9375 321.5c-26.46875 0-48.125 21.65625-48.125 48.125s21.65625 48.121094 48.125 48.121094 48.125-21.652344 48.125-48.121094c.003906-26.46875-21.652344-48.125-48.125-48.125zm0 0" fill="#6dc9f7"/><path d="m142.804688 75.472656h23.707031c2.214843 0 4-1.792968 4-4 0-2.207031-1.785157-4-4-4h-23.707031c-2.210938 0-4 1.792969-4 4 0 2.207032 1.789062 4 4 4zm0 0" fill="#3a2c60"/><path d="m316.550781 322.730469-7.347656-212.046875c0-50.714844-33.308594-91.976563-74.25-92-2.953125-10.75-12.789063-18.683594-24.464844-18.683594h-87.96875c-11.675781 0-21.507812 7.933594-24.457031 18.683594-40.941406.023437-74.246094 41.285156-74.242188 91.859375l-7.980468 230.238281c-4.578125 2.097656-7.980469 6.699219-8.738282 12.484375l-6.566406 50.105469c-.65625 4.992187.78125 9.925781 3.945313 13.535156 2.746093 3.125 6.421875 4.839844 10.363281 4.839844h44.183594c3.9375 0 7.613281-1.71875 10.355468-4.835938 3.167969-3.605468 4.609376-8.542968 3.953126-13.539062l-6.566407-50.105469c-.875-6.6875-5.28125-11.785156-10.960937-13.261719l2.050781-59.066406h217.292969l1.375 39.613281c-20.195313 7.1875-34.71875 26.441407-34.71875 49.074219 0 28.742188 23.390625 52.128906 52.128906 52.128906s52.125-23.386718 52.125-52.128906c.003906-20.636719-12.078125-38.453125-29.511719-46.894531zm-211.414062-297.34375c0-9.585938 7.800781-17.386719 17.390625-17.386719h87.964844c9.589843 0 17.394531 7.800781 17.394531 17.386719v24.699219c0 9.585937-7.800781 17.386718-17.394531 17.386718h-24.152344c-2.210938 0-4 1.792969-4 4 0 2.207032 1.789062 4 4 4h24.152344c7.652343 0 14.511718-3.417968 19.167968-8.792968h5.261719c18.929687 0 34.335937 19.742187 34.339844 44.140624l1.335937 38.511719h-208.175781l1.339844-38.652343c0-24.257813 15.402343-44 34.335937-44h5.261719c4.65625 5.371093 11.515625 8.792968 19.167969 8.792968 2.210937 0 4-1.792968 4-4 0-2.207031-1.789063-4-4-4-9.585938 0-17.390625-7.800781-17.390625-17.386718zm-43.90625 158.316406h210.554687l2.179688 62.863281h-214.910156zm.273437-8 .636719-18.367187h208.730469l.632812 18.367187zm35.632813-148.960937v23.34375c0 3.019531.558593 5.90625 1.53125 8.59375h-.566407c-23.34375 0-42.335937 23.328124-42.332031 51.859374l-7.9375 228.984376h-23.941406l7.929687-228.84375c-.003906-45.902344 29.214844-83.277344 65.316407-83.9375zm-38.296875 327.5625 6.570312 50.105468c.347656 2.675782-.417968 5.378906-2.039062 7.226563-1.199219 1.363281-2.742188 2.117187-4.34375 2.117187h-44.183594c-1.601562 0-3.148438-.753906-4.347656-2.117187-1.621094-1.851563-2.382813-4.546875-2.035156-7.222657l6.570312-50.109374c.503906-3.859376 3.25-6.773438 6.382812-6.773438h31.046876c3.132812-.003906 5.871093 2.914062 6.378906 6.773438zm-.703125-81.367188.636719-18.371094h215.46875l.636718 18.371094zm219.121093-162.253906c0-28.671875-18.992187-52-42.335937-52h-.570313c.972657-2.6875 1.535157-5.574219 1.535157-8.59375v-23.34375c36.097656.660156 65.320312 38.035156 65.324219 84.078125l7.230468 208.773437c-4.609375-1.339844-9.464844-2.09375-14.5-2.09375-3.242187 0-6.402344.335938-9.484375.90625zm16.683594 303.070312c-24.332031 0-44.128906-19.796875-44.128906-44.128906s19.796875-44.125 44.128906-44.125c24.332032 0 44.125 19.796875 44.125 44.125 0 24.332031-19.792968 44.128906-44.125 44.128906zm0 0" fill="#3a2c60"/><path d="m293.9375 341.5c-15.507812 0-28.125 12.617188-28.125 28.125s12.617188 28.128906 28.125 28.128906 28.125-12.617187 28.125-28.128906c.003906-15.507812-12.617188-28.125-28.125-28.125zm0 0" fill="#3a2c60"/></svg>