<svg height="479pt" viewBox="-161 0 479 479.004" width="479pt" xmlns="http://www.w3.org/2000/svg"><path d="m144.457031 36.480469c-8.214843-8.226563-19.570312-13.253907-31.613281-14.171875-3.214844-3.820313-7.96875-6.308594-13.339844-6.308594h-66c-9.648437 0-17.5 7.847656-17.5 17.5s7.851563 17.5 17.5 17.5h66c5.148438 0 9.742188-2.28125 12.945313-5.832031 11.320312.171875 20.480469 8.410156 20.480469 18.542969 0 13.417968-6.371094 26.242187-17.480469 35.175781l-23.167969 18.640625c-2.519531 2.027344-3.886719 5.097656-3.742188 8.328125-.179687.808593-.269531 1.578125-.269531 2.335937v290c-4.871093.882813-8.707031 5.070313-9.429687 10.617188l-4.691406 35.78125c-.511719 3.890625.617187 7.742187 3.09375 10.570312 2.175781 2.480469 5.109374 3.84375 8.253906 3.84375h31.550781c3.148437 0 6.078125-1.363281 8.25-3.84375 2.480469-2.824218 3.609375-6.675781 3.101563-10.570312l-4.6875-35.785156c-.746094-5.648438-4.707032-9.859376-9.703126-10.640626 0 0 0-196.1875 0-198.394531v-84.921875c0-2.027344.886719-3.957031 2.496094-5.425781 3.859375-3.535156 10.15625-9.324219 16.570313-15.253906 15.460937-14.320313 23.988281-31.125 24.011719-47.296875l.003906-.488282c.019531-11.101562-4.464844-21.722656-12.632813-29.902343zm0 0" fill="#e6e7e8"/><path d="m94.820312 10.207031c1.371094 2.109375 2.1875 4.609375 2.1875 7.296875 0 2.832032-.894531 5.457032-2.398437 7.636719h1.492187c13.710938 0 24.832032 10.105469 24.832032 22.574219 0 14.644531-6.90625 28.589844-18.972656 38.292968l-23.167969 18.636719c-1.789063 1.445313-2.457031 3.53125-2.210938 5.550781-.183593.640626-.308593 1.304688-.308593 1.992188v293.8125h17.742187v-287.152344c0-3.140625 1.359375-6.152344 3.789063-8.378906 3.855468-3.53125 10.152343-9.316406 16.558593-15.242188 12.980469-12.019531 22.707031-27.628906 22.730469-44.390624v-.460938c.035156-21.628906-18.734375-39.238281-42.273438-40.167969zm0 0" fill="#ffd7e5"/><path d="m108.4375 449.109375-4.6875-35.78125c-.550781-4.210937-3.691406-7.324219-7.386719-7.324219h-22.171875c-3.699218 0-6.835937 3.113282-7.390625 7.324219l-4.6875 35.78125c-.683593 5.207031 2.816407 9.894531 7.390625 9.894531h31.546875c4.570313 0 8.070313-4.6875 7.386719-9.894531zm0 0" fill="#fff"/><path d="m108.4375 449.109375-4.6875-35.78125c-.550781-4.210937-3.691406-7.324219-7.386719-7.324219h-10.171875c-3.699218 0-6.835937 3.113282-7.390625 7.324219l-4.6875 35.78125c-.683593 5.207031 2.816407 9.894531 7.390625 9.894531h19.546875c4.570313 0 8.070313-4.6875 7.386719-9.894531zm0 0" fill="#6dc9f7"/><path d="m83.507812 4.003906h-66c-7.425781 0-13.5 6.074219-13.5 13.5 0 7.425782 6.074219 13.5 13.5 13.5h66c7.421876 0 13.5-6.074218 13.5-13.5 0-7.425781-6.078124-13.5-13.5-13.5zm0 0" fill="#fa759e"/><g fill="#3a2c60"><path d="m94.011719 216.957031c-2.214844 0-4 1.789063-4 4v24.296875c0 2.207032 1.785156 4 4 4 2.210937 0 4-1.792968 4-4v-24.296875c0-2.210937-1.789063-4-4-4zm0 0"/><path d="m128.457031 20.480469c-8.214843-8.226563-19.570312-13.253907-31.613281-14.171875-3.214844-3.820313-7.96875-6.308594-13.339844-6.308594h-66c-9.648437 0-17.49999975 7.847656-17.49999975 17.5s7.85156275 17.5 17.49999975 17.5h66c5.148438 0 9.742188-2.28125 12.945313-5.832031 11.320312.171875 20.476562 8.40625 20.476562 18.542969 0 13.421874-6.371093 26.242187-17.476562 35.175781l-23.167969 18.640625c-2.519531 2.027344-3.882812 5.09375-3.742188 8.328125-.183593.8125-.273437 1.585937-.273437 2.335937v290c-4.867187.882813-8.703125 5.070313-9.429687 10.617188l-4.691407 35.785156c-.507812 3.890625.621094 7.742188 3.101563 10.566406 2.175781 2.480469 5.105468 3.84375 8.25 3.84375h31.550781c3.148437 0 6.082031-1.363281 8.253906-3.84375 2.476563-2.828125 3.605469-6.675781 3.09375-10.566406l-4.6875-35.78125c-.738281-5.648438-4.710937-9.863281-9.703125-10.644531v-141.195313c0-2.207031-1.789062-4-4-4-2.214844 0-4 1.792969-4 4v141.03125h-9.734375v-289.8125c0-.230468.050781-.519531.15625-.890625.148438-.515625.191407-1.0625.125-1.59375-.097656-.8125.152344-1.46875.75-1.945312l23.167969-18.636719c13.003906-10.464844 20.460938-25.558594 20.460938-41.414062 0-13.269532-10.621094-24.253907-24.425782-26.21875.300782-1.289063.5-2.613282.5-3.992188 0-.902344-.136718-1.777344-.269531-2.644531 8.441406 1.515625 16.214844 5.425781 22.058594 11.277343 6.652343 6.667969 10.3125 15.269532 10.296875 24.242188v.457031c-.023438 13.949219-7.640625 28.675781-21.453125 41.464844-6.390625 5.917969-12.6875 11.699219-16.539063 15.226563-3.234375 2.96875-5.085937 7.09375-5.085937 11.328124v84.921876c0 2.207031 1.785156 4 4 4 2.210937 0 4-1.792969 4-4v-84.921876c0-2.023437.886719-3.957031 2.496093-5.425781 3.859376-3.539062 10.164063-9.324219 16.570313-15.253906 15.460937-14.316406 23.988281-31.125 24.015625-47.328125v-.457031c.015625-11.105469-4.46875-21.726563-12.636719-29.90625zm-28.671875 393.367187 4.6875 35.785156c.210938 1.582032-.234375 3.171876-1.179687 4.25-.445313.511719-1.203125 1.125-2.242188 1.125h-31.546875c-1.042968 0-1.792968-.609374-2.246094-1.121093-.949218-1.078125-1.390624-2.667969-1.183593-4.25l4.6875-35.78125c.289062-2.191407 1.761719-3.84375 3.425781-3.84375h22.171875c1.667969-.007813 3.136719 1.644531 3.425781 3.835937zm-82.28125-386.84375c-5.242187 0-9.5-4.261718-9.5-9.5 0-5.238281 4.257813-9.5 9.5-9.5h66c5.238282 0 9.5 4.261719 9.5 9.5 0 5.238282-4.261718 9.5-9.5 9.5zm0 0"/></g></svg>