<svg height="479pt" viewBox="-25 0 479 479.24197" width="479pt" xmlns="http://www.w3.org/2000/svg"><path d="m374.855469 314.660156c-7.394531-18.246094-23.371094-31.234375-42.742188-34.75l-51.550781-9.351562c-2.34375-4.257813-4.910156-8.425782-7.714844-12.476563-3-4.328125-6.226562-8.433593-9.632812-12.351562l-2.855469-107.355469c-.351563-13.296875-6.449219-25.625-16.570313-33.972656 12.023438-9.648438 19.058594-24.523438 18.648438-40.0625-.730469-27.375-23.679688-49.027344-50.96875-48.320313-13.261719.351563-25.59375 5.847657-34.722656 15.472657-9.125 9.628906-13.957032 22.234374-13.601563 35.496093.410157 15.394531 8.097657 29.730469 20.414063 38.742188l-57.039063 31.074219c-7.1875 3.917968-12.417969 10.398437-14.730469 18.25-2.316406 7.851562-1.433593 16.132812 2.484376 23.320312l12.214843 22.417969c-53.644531 11.988281-97.65625 54.984375-108.066406 112.371093-13.871094 76.4375 37.035156 149.910157 113.46875 163.777344 8.492187 1.539063 17 2.300782 25.449219 2.300782 28.398437 0 56.101562-8.601563 79.941406-25.117188 30.929688-21.429688 51.667969-53.628906 58.382812-90.65625 1.613282-8.878906 2.347657-17.777344 2.273438-26.609375l6.246094 1.128906c8.84375 1.605469 16.136718 7.535157 19.507812 15.863281l31.070313 76.652344c3.113281 7.691406 9.042969 13.707032 16.683593 16.941406 3.894532 1.648438 8 2.472657 12.101563 2.472657 3.949219 0 7.90625-.761719 11.671875-2.292969 7.691406-3.113281 13.710938-9.042969 16.945312-16.683594 3.234376-7.640625 3.300782-16.082031.179688-23.777344zm-204.417969-125.785156-10.738281-19.703125 10.066406-5.484375zm-104.863281 132.851562c.46875-2.585937 1.070312-5.113281 1.738281-7.605468 9.820312-36.488282 43.203125-64.65625 80.765625-68.308594.40625-.039062.804687-.082031 1.207031-.117188.535156-.046874 1.082032-.039062 1.621094-.074218l.703125 1.289062c4.011719 7.367188 11.628906 11.546875 19.488281 11.546875 3.574219 0 7.199219-.867187 10.558594-2.695312 2.4375-1.328125 4.5-3.058594 6.203125-5.050781 18.390625 6.425781 34.285156 18.347656 45.597656 34.671874 14.140625 20.410157 19.488281 45.101563 15.054688 69.535157-.460938 2.523437-1.042969 5.003906-1.699219 7.464843-5.34375 20.007813-17.613281 38.03125-34.207031 50.414063-18.160157 13.546875-41.304688 20.167969-63.878907 18.097656-.546874-.046875-1.089843-.113281-1.636718-.171875-2.214844-.246094-4.425782-.53125-6.636719-.933594-50.441406-9.152343-84.027344-57.628906-74.878906-108.0625zm0 0" fill="#e6e7e8"/><path d="m423.773438 146.429688-49.84375-37.683594c-3.449219-2.601563-7.992188-3.023438-11.855469-1.101563-3.867188 1.925781-6.265625 5.800781-6.265625 10.121094v15.273437h-60.199219c-5.621094 0-10.1875 4.570313-10.1875 10.1875v24.4375c0 5.621094 4.570313 10.191407 10.1875 10.191407h60.199219v15.269531c0 4.320312 2.398437 8.195312 6.265625 10.121094 1.609375.800781 3.332031 1.195312 5.050781 1.195312 2.40625 0 4.789062-.777344 6.804688-2.296875l49.84375-37.683593c2.851562-2.15625 4.488281-5.441407 4.488281-9.015626 0-3.570312-1.640625-6.859374-4.488281-9.015624zm0 0" fill="#e6e7e8"/><path d="m150.667969 373.453125c2.148437.390625 4.28125.582031 6.390625.582031 16.925781 0 31.996094-12.113281 35.121094-29.335937 1.703124-9.386719-.347657-18.875-5.78125-26.714844-5.429688-7.839844-13.589844-13.09375-22.976563-14.796875-19.371094-3.515625-37.992187 9.390625-41.511719 28.757812-1.703125 9.382813.351563 18.871094 5.78125 26.710938 5.433594 7.839844 13.589844 13.09375 22.976563 14.796875zm0 0" fill="#e6e7e8"/><path d="m392.640625 392.675781-37.492187-92.511719c-6.835938-16.871093-21.839844-29.066406-39.753907-32.3125l-53.484375-9.707031c9.363282 17.601563 14.929688 37.308594 15.859375 57.898438l11.125 2.019531c10.140625 1.839844 18.632813 8.742188 22.503907 18.296875l31.066406 76.652344c5.613281 13.855469 21.394531 20.53125 35.25 14.917969 13.859375-5.617188 20.542968-21.398438 14.925781-35.253907zm0 0" fill="#fa759e"/><path d="m158.804688 186.59375c2.222656.292969 4.445312.632812 6.675781 1.039062 31.3125 5.679688 58.15625 21.617188 77.78125 43.6875l-2.898438-108.839843c-.382812-14.425781-8.070312-26.9375-19.425781-34.101563 13.265625-8.292968 21.949219-23.152344 21.503906-39.929687-.671875-25.210938-21.65625-45.101563-46.871094-44.429688-25.210937.671875-45.101562 21.652344-44.429687 46.863281.449219 16.769532 9.90625 31.152344 23.597656 38.722657-1.035156.738281-2.003906 1.554687-2.964843 2.378906l-59.339844 32.328125c-12.921875 7.042969-17.691406 23.222656-10.648438 36.140625l37.339844 68.539063c4.796875 8.800781 15.816406 12.050781 24.613281 7.253906 8.800781-4.796875 12.050781-15.816406 7.253907-24.617188l-32.71875-60.058594 19.316406-10.523437zm0 0" fill="#fa759e"/><path d="m355.511719 95.9375 49.847656 37.683594c3.863281 2.925781 3.863281 8.734375 0 11.652344l-49.847656 37.683593c-4.8125 3.636719-11.707031.203125-11.707031-5.828125v-19.269531h-64.199219c-3.421875 0-6.191407-2.773437-6.191407-6.1875v-24.441406c0-3.421875 2.773438-6.1875 6.191407-6.1875h64.199219v-19.273438c0-6.035156 6.894531-9.46875 11.707031-5.832031zm0 0" fill="#6dc9f7"/><path d="m165.480469 187.632812c-2.746094-.5-5.484375-.882812-8.21875-1.210937l13.734375 25.210937c3.25 5.96875 2.730468 12.914063-.636719 18.289063 45.863281 14.492187 74.898437 61.140625 66.085937 109.707031-9.5625 52.6875-60.023437 87.652344-112.714843 78.09375-52.6875-9.5625-87.652344-60.023437-78.089844-112.710937 8.265625-45.5625 47.121094-77.839844 91.546875-79.570313l-20.605469-37.820312c-54.503906 9.910156-99.753906 52.539062-110.226562 110.261718-13.496094 74.382813 35.863281 145.628907 110.25 159.125 74.382812 13.496094 145.625-35.867187 159.121093-110.25 13.496094-74.386718-35.863281-145.628906-110.246093-159.125zm0 0" fill="#fff"/><path d="m165.480469 199.632812c-.371094-.066406-.746094-.105468-1.117188-.171874l6.632813 12.171874c3.265625 5.988282 2.726562 12.964844-.671875 18.34375 42.226562 13.34375 70.199219 53.894532 67.484375 98.160157.484375 7.691406.070312 15.566406-1.363282 23.492187-9.5625 52.6875-60.023437 87.652344-112.714843 78.09375-48.839844-8.859375-82.421875-52.871094-79.457031-101.21875-.484376-7.695312-.074219-15.570312 1.363281-23.492187 8.265625-45.5625 47.121093-77.839844 91.546875-79.570313l-14.578125-26.761718c-57.164063 7.757812-105.394531 51.371093-116.253907 111.207031-1.128906 6.21875-1.78125 12.410156-2.050781 18.550781 2.738281 62.441406 48.210938 116.941406 112.300781 128.574219 74.382813 13.496093 145.625-35.867188 159.121094-110.25 1.128906-6.21875 1.78125-12.410157 2.054688-18.550781-2.738282-62.445313-48.210938-116.949219-112.296875-128.578126zm0 0" fill="#0089ef"/><path d="m172.75 322.320312c0 17.511719-14.195312 31.710938-31.707031 31.710938s-31.707031-14.199219-31.707031-31.710938c0-17.511718 14.195312-31.707031 31.707031-31.707031s31.707031 14.195313 31.707031 31.707031zm0 0" fill="#0089ef"/><g fill="#3a2c60"><path d="m358.855469 298.664062c-7.394531-18.246093-23.371094-31.234374-42.742188-34.75l-51.550781-9.351562c-2.347656-4.261719-4.910156-8.429688-7.714844-12.480469-3-4.328125-6.226562-8.433593-9.632812-12.351562l-2.855469-107.355469c-.351563-13.296875-6.453125-25.621094-16.574219-33.96875 12.027344-9.652344 19.0625-24.523438 18.652344-40.0625-.355469-13.261719-5.847656-25.59375-15.476562-34.722656-9.628907-9.128906-22.226563-13.957032-35.496094-13.6015628-13.261719.3515628-25.589844 5.8476568-34.71875 15.4726568-9.125 9.628906-13.957032 22.234374-13.601563 35.492187.40625 15.394531 8.09375 29.730469 20.414063 38.746094l-57.039063 31.074219c-7.1875 3.917968-12.417969 10.398437-14.730469 18.25-2.316406 7.851562-1.433593 16.136718 2.488282 23.324218l12.21875 22.425782c-17.585938 3.90625-34.433594 11.148437-49.683594 21.71875-30.933594 21.429687-51.667969 53.625-58.386719 90.65625-6.722656 37.027343 1.378907 74.441406 22.8125 105.375 21.433594 30.929687 53.625 51.667968 90.652344 58.386718 8.46875 1.535156 16.898437 2.277344 25.21875 2.277344 66.761719 0 126.226563-47.78125 138.558594-115.75 1.613281-8.878906 2.347656-17.777344 2.273437-26.605469l6.246094 1.128907c8.839844 1.605468 16.136719 7.535156 19.507812 15.863281l31.066407 76.65625c4.890625 12.066406 16.546875 19.398437 28.832031 19.398437 3.878906 0 7.816406-.730468 11.628906-2.277344 7.691406-3.113281 13.710938-9.039062 16.941406-16.683593 3.230469-7.644531 3.300782-16.082031.179688-23.773438zm-205.089844-150.976562.671875 25.191406-10.738281-19.707031zm-50.304687-6.378906c1.707031-5.796875 5.574218-10.585938 10.886718-13.484375l59.96875-32.667969c.511719-.277344.921875-.660156 1.253906-1.09375.488282-.40625.960938-.824219 1.480469-1.191406 1.125-.796875 1.761719-2.113282 1.683594-3.484375-.074219-1.375-.851563-2.613281-2.054687-3.28125-12.894532-7.136719-21.148438-20.675781-21.535157-35.332031-.296875-11.125 3.753907-21.699219 11.414063-29.769532 7.65625-8.078125 18-12.691406 29.128906-12.984375 11.09375-.25 21.699219 3.753907 29.777344 11.414063 8.074218 7.65625 12.683594 18 12.984375 29.128906.390625 14.65625-7.132813 28.617188-19.628907 36.421875-1.167968.734375-1.875 2.007813-1.878906 3.386719-.003906 1.375.699219 2.65625 1.863282 3.390625 10.664062 6.730469 17.230468 18.253906 17.566406 30.828125l2.621094 98.402344c-7.296876-7.078126-15.316407-13.277344-23.902344-18.574219-.425782-.265625-.855469-.523438-1.285156-.78125-5.296876-3.191407-10.808594-6.03125-16.507813-8.5-.769531-.332031-1.539063-.660157-2.316406-.980469-2.671875-1.097656-5.371094-2.140625-8.121094-3.082031-.25-.085938-.5-.171875-.75-.257813-2.777344-.929687-5.601563-1.75-8.449219-2.511718-.78125-.207032-1.5625-.410157-2.351562-.605469-3.003906-.75-6.03125-1.441407-9.105469-1.996094-.011719 0-.019531-.003906-.03125-.003906-1.152344-.210938-2.304687-.402344-3.453125-.582031l-1.054688-39.726563 30.023438-16.359375c1.941406-1.058594 2.65625-3.488281 1.597656-5.425781-1.058594-1.941407-3.488281-2.660157-5.425781-1.59375l-51.492187 28.050781c-1.9375 1.054688-2.65625 3.488281-1.59375 5.421875l32.722656 60.066406c1.808594 3.320313 2.214844 7.140625 1.148437 10.761719-1.070312 3.625-3.484375 6.617188-6.804687 8.425781-3.316406 1.808594-7.136719 2.21875-10.765625 1.148438-3.621094-1.070313-6.613281-3.484375-8.421875-6.804688l-37.355469-68.539062c-2.894531-5.308594-3.546875-11.429688-1.835937-17.234375zm168.335937 204.734375c-13.085937 72.09375-82.367187 120.089843-154.476563 107.027343-34.925781-6.335937-65.292968-25.894531-85.507812-55.074218-20.214844-29.175782-27.855469-64.476563-21.519531-99.402344 6.335937-34.921875 25.894531-65.292969 55.070312-85.507812 15.039063-10.421876 31.730469-17.398438 49.136719-20.9375l16.214844 29.761718c-16.765625 1.699219-32.929688 7.554688-47.167969 17.414063-22.167969 15.363281-37.027344 38.429687-41.839844 64.964843-4.816406 26.535157.992188 53.355469 16.347657 75.523438 15.359374 22.167969 38.429687 37.027344 64.964843 41.839844 6.089844 1.105468 12.183594 1.652344 18.25 1.652344 15.660157 0 31.046875-3.664063 45.277344-10.859376 1.972656-1 2.761719-3.402343 1.765625-5.375-1-1.972656-3.410156-2.761718-5.375-1.765624-18.171875 9.191406-38.394531 12.128906-58.488281 8.476562-24.433594-4.429688-45.675781-18.117188-59.820313-38.523438-14.144531-20.40625-19.488281-45.105468-15.058594-69.535156 4.433594-24.433594 18.113282-45.675781 38.527344-59.816406 14.054688-9.742188 30.148438-15.253906 46.785156-16.324219l.726563 1.324219c2.832031 5.195312 7.511719 8.976562 13.1875 10.648438 2.070313.609374 4.1875.914062 6.292969.914062 3.648437 0 7.265625-.914062 10.5625-2.710938 2.390625-1.304687 4.441406-3.035156 6.167968-5.039062 42.335938 14.855469 68.945313 58.675781 60.6875 104.195312-2.015624 11.113282-5.957031 21.613282-11.710937 31.210938-1.136719 1.898438-.519531 4.351562 1.371094 5.488281 1.894531 1.136719 4.347656.519531 5.488281-1.371093 6.253906-10.429688 10.535156-21.835938 12.722656-33.898438 8.882813-48.945312-19.316406-96.148438-64.492187-112.746094.125-.351562.308593-.667968.417969-1.027344 1.671874-5.671874 1.03125-11.660156-1.796876-16.855468l-9.898437-18.171875c.050781.007812.105469.015625.160156.023437 34.921875 6.335938 65.289063 25.894532 85.507813 55.070313 20.214844 29.175781 27.855468 64.480469 21.519531 99.40625zm117.003906 65.789062c-2.40625 5.675781-6.867187 10.074219-12.582031 12.390625-11.785156 4.78125-25.265625-.925781-30.042969-12.710937l-31.0625-76.65625c-4.414062-10.886719-13.941406-18.632813-25.496093-20.730469l-7.964844-1.441406c-1.136719-17.007813-5.410156-33.621094-12.59375-49.171875l45.625 8.273437c16.660156 3.023438 30.398437 14.195313 36.757812 29.886719l37.492188 92.507813c2.3125 5.707031 2.265625 11.976562-.132813 17.652343zm0 0"/><path d="m407.773438 130.429688-49.847657-37.679688c-3.441406-2.605469-7.980469-3.03125-11.855469-1.105469-3.867187 1.925781-6.265624 5.804688-6.265624 10.121094v15.273437h-60.199219c-5.621094 0-10.191407 4.570313-10.191407 10.1875v24.4375c0 5.621094 4.574219 10.195313 10.191407 10.195313h60.199219v15.269531c0 4.320313 2.402343 8.195313 6.265624 10.121094 1.609376.800781 3.332032 1.195312 5.050782 1.195312 2.40625 0 4.789062-.773437 6.804687-2.296874l49.847657-37.683594c2.851562-2.15625 4.488281-5.4375 4.488281-9.015625 0-3.574219-1.636719-6.863281-4.488281-9.019531zm-4.824219 11.652343-49.847657 37.683594c-1.476562 1.113281-2.917968.597656-3.464843.324219-.546875-.273438-1.832031-1.113282-1.832031-2.957032v-19.269531c0-2.210937-1.792969-4-4-4h-64.199219c-1.210938 0-2.191407-.984375-2.191407-2.191406v-24.441406c0-1.207031.984376-2.1875 2.191407-2.1875h64.199219c2.207031 0 4-1.792969 4-4v-19.273438c0-1.847656 1.277343-2.683593 1.832031-2.960937.546875-.273438 1.988281-.789063 3.464843.324218l49.84375 37.679688c.832032.632812 1.3125 1.59375 1.3125 2.640625 0 1.035156-.476562 1.996094-1.308593 2.628906zm0 0"/><path d="m211.105469 383.441406c-3.578125 4.09375-7.546875 7.902344-11.796875 11.316406-1.726563 1.382813-1.996094 3.902344-.613282 5.625.792969.984376 1.949219 1.496094 3.121094 1.496094.878906 0 1.761719-.289062 2.503906-.886718 4.617188-3.707032 8.921876-7.84375 12.808594-12.28125 1.449219-1.664063 1.28125-4.191407-.382812-5.644532-1.667969-1.457031-4.1875-1.289062-5.640625.375zm0 0"/><path d="m147.414062 287.1875c-9.394531-1.714844-18.871093.351562-26.710937 5.777344-7.839844 5.433594-13.09375 13.59375-14.800781 22.980468-3.511719 19.371094 9.390625 37.996094 28.761718 41.507813 2.152344.394531 4.3125.585937 6.453126.585937 7.195312 0 14.21875-2.179687 20.257812-6.363281 7.839844-5.433593 13.097656-13.59375 14.800781-22.980469 3.515625-19.375-9.386719-37.992187-28.761719-41.507812zm20.894532 40.078125c-1.324219 7.285156-5.402344 13.617187-11.484375 17.832031-6.085938 4.214844-13.441407 5.808594-20.726563 4.488282-7.28125-1.320313-13.613281-5.398438-17.828125-11.484376-4.21875-6.082031-5.808593-13.445312-4.488281-20.726562 1.324219-7.285156 5.398438-13.617188 11.484375-17.832031 4.6875-3.25 10.132813-4.941407 15.71875-4.941407 1.664063 0 3.335937.152344 5.003906.453126 15.03125 2.730468 25.042969 17.179687 22.320313 32.210937zm0 0"/></g></svg>