<svg height="502pt" viewBox="0 -45 502.676 502" width="502pt" xmlns="http://www.w3.org/2000/svg"><path d="m498.675781 404.089844h-51.785156c8.816406-5.679688 14.679687-15.5625 14.679687-26.8125v-6.941406h16.6875c10.097657 0 18.3125-8.21875 18.3125-18.316407v-17.367187c0-7.871094-5.015624-14.539063-12-17.121094v-275.773438c0-14.015624-11.402343-25.417968-25.414062-25.417968h-249.160156c-14.019532 0-25.421875 11.402344-25.421875 25.417968v188.769532c-5.042969-2.328125-10.703125-3.242188-16.425781-2.402344l-23.640626 3.457031c-1.523437-1.355469-3.09375-2.675781-4.746093-3.90625-1.867188-1.390625-3.785157-2.671875-5.75-3.859375l-17.273438-47.101562c-2.089843-5.722656-6.257812-10.332032-11.578125-13.015625 3.246094-6.316407 3.789063-13.8125 1.304688-20.582031-4.871094-13.289063-19.648438-20.125-32.917969-15.257813-6.433594 2.359375-11.570313 7.082031-14.449219 13.300781-2.886718 6.21875-3.167968 13.1875-.808594 19.621094 2.363282 6.449219 7.257813 11.597656 13.386719 14.425781l-18.855469 20.351563c-3.019531 3.257812-4.589843 7.5-4.421874 11.945312.171874 4.4375 2.0625 8.550782 5.320312 11.566406l6.941406 6.425782c-21.585937 14.296875-34.269531 40.167968-30.28125 67.4375 4.59375 31.390625 29.804688 54.71875 59.878906 58.390625l-55.753906 19.851562c-4.226562 1.503907-7.066406 5.527344-7.066406 10.011719v14.589844c0 3.261718 1.542969 6.304687 4.082031 8.3125h-11.511719c-2.210937 0-4 1.792968-4 4 0 2.207031 1.789063 4 4 4h478.667969c2.210938 0 4-1.792969 4-4 0-2.207032-1.792969-4-4-4zm-417.25-159.445313c2.332031 1.9375 5.167969 2.9375 8.019531 2.9375 3.390626 0 6.765626-1.355469 9.25-4.03125.710938-.773437 1.277344-1.621093 1.761719-2.5 19.707031.875 36.71875 15.601563 39.683594 35.832031 3.351563 22.910157-12.566406 44.273438-35.472656 47.632813-22.902344 3.339844-44.277344-12.566406-47.632813-35.472656-1.621094-11.101563 1.171875-22.167969 7.875-31.160157 4.351563-5.851562 10.03125-10.34375 16.515625-13.238281zm85.363281 28.335938c-.515624-3.519531-1.363281-6.929688-2.390624-10.269531l.585937-.085938c3.503906-.5 6.964844.785156 9.269531 3.46875l10.3125 12.007812v39.429688c-.777344.285156-1.519531.644531-2.242187 1.03125l-34.183594 12.167969c14.273437-14.84375 21.851563-35.84375 18.648437-57.75zm114.78125 104.300781v-6.941406h106v6.941406c0 11.25 5.867188 21.128906 14.6875 26.8125h-135.367187c8.816406-5.683594 14.679687-15.566406 14.679687-26.8125zm-107.6875-18.558594c2.683594 6.789063 9.277344 11.617188 17.007813 11.617188h16.683594v6.941406c0 11.25 5.867187 21.128906 14.6875 26.8125h-175.851563zm0 0" fill="#e6e7e8"/><path d="m98.566406 302.003906c.917969 0 1.839844-.070312 2.769532-.207031 5.035156-.734375 9.476562-3.386719 12.515624-7.460937 3.035157-4.082032 4.304688-9.097657 3.570313-14.128907-.738281-5.03125-3.386719-9.476562-7.464844-12.515625-4.085937-3.039062-9.09375-4.3125-14.128906-3.570312-10.390625 1.519531-17.601563 11.207031-16.085937 21.597656 1.386718 9.457031 9.539062 16.285156 18.824218 16.285156zm0 0" fill="#e6e7e8"/><path d="m172.574219 221.773438c-5.460938-4.597657-12.664063-6.738282-19.851563-5.6875l-25.554687 3.738281c6.875 6.496093 12.359375 14.511719 15.894531 23.628906l5.347656-.78125c4.835938-.710937 9.703125 1.109375 12.886719 4.816406l11.277344 13.132813zm0 0" fill="#fa759e"/><path d="m96.988281 162.089844c-2.355469-6.429688-7.707031-10.886719-13.894531-12.390625 4.707031-5.738281 6.363281-13.734375 3.621094-21.207031-4.113282-11.230469-16.558594-17-27.789063-12.882813-11.234375 4.117187-17 16.5625-12.886719 27.792969 2.742188 7.472656 9.167969 12.503906 16.46875 13.835937-.355468.488281-.664062 1.003907-.976562 1.519531l-21.785156 23.511719c-4.742188 5.121094-4.433594 13.117188.6875 17.859375l27.160156 25.160156c3.484375 3.234376 8.929688 3.023438 12.164062-.464843 3.230469-3.484375 3.023438-8.929688-.464843-12.164063l-23.800781-22.046875 7.09375-7.65625 7.464843 20.371094c1.046875-.203125 2.070313-.460937 3.132813-.617187 14.949218-2.1875 29.425781.953124 41.59375 7.921874h.003906zm0 0" fill="#fa759e"/><path d="m146.828125 257.5625c-5.191406-35.484375-38.164063-60.039062-73.644531-54.847656-1.296875.1875-2.546875.492187-3.816406.753906l9.929687 9.195312c2.371094 2.199219 3.1875 5.414063 2.476563 8.351563 22.8125-.429687 42.929687 16.117187 46.320312 39.285156 3.675781 25.132813-13.71875 48.488281-38.855469 52.164063-25.132812 3.675781-48.484375-13.714844-52.164062-38.851563-3.179688-21.734375 9.417969-42.109375 29.128906-49.609375l-14.949219-13.855468c-23.015625 12.703124-36.945312 38.664062-32.917968 66.207031 5.191406 35.484375 38.164062 60.039062 73.644531 54.847656s60.039062-38.160156 54.847656-73.640625zm0 0" fill="#0089ef"/><path d="m95.898438 259.957031c-3.859376-7.351562-12.953126-10.183593-20.304688-6.320312-7.355469 3.863281-10.1875 12.953125-6.324219 20.308593 3.863281 7.351563 12.957031 10.183594 20.308594 6.320313 7.355469-3.863281 10.183594-12.953125 6.320313-20.308594zm0 0" fill="#0089ef"/><path d="m160.574219 336.023438v-17.371094c0-5.328125 2.945312-9.917969 7.261719-12.382813l-147.992188 52.671875c-2.640625.941406-4.40625 3.441406-4.40625 6.246094v14.589844c0 4.582031 4.535156 7.78125 8.851562 6.246094l136.429688-48.5625c-.046875-.476563-.144531-.941407-.144531-1.4375zm0 0" fill="#6dc9f7"/><path d="m174.890625 304.339844h287.371094c.789062 0 1.554687.105468 2.3125.230468v-278.8125c0-11.828124-9.589844-21.417968-21.417969-21.417968h-249.160156c-11.832032 0-21.421875 9.589844-21.421875 21.417968v278.8125c.757812-.125 1.523437-.230468 2.316406-.230468zm0 0" fill="#0089ef"/><path d="m462.261719 304.339844h-287.371094c-7.90625 0-14.316406 6.40625-14.316406 14.3125v17.371094c0 7.90625 6.410156 14.316406 14.316406 14.316406h287.371094c7.90625 0 14.3125-6.410156 14.3125-14.316406v-17.371094c0-7.90625-6.410157-14.3125-14.3125-14.3125zm0 0" fill="#fff"/><path d="m476.574219 336.023438v-17.371094c0-.71875-.105469-1.410156-.210938-2.101563-.691406-.105469-1.382812-.210937-2.101562-.210937h-287.371094c-7.90625 0-14.316406 6.40625-14.316406 14.3125v5.371094c0 7.90625 6.410156 14.316406 14.316406 14.316406h275.371094c7.902343 0 14.3125-6.414063 14.3125-14.316406zm0 0" fill="#6dc9f7"/><path d="m295.242188 84.511719h-90.9375c-7.585938 0-13.730469 6.144531-13.730469 13.726562v100.539063c0 7.585937 6.148437 13.730468 13.730469 13.730468h90.9375c7.585937 0 13.730468-6.148437 13.730468-13.730468v-100.539063c.003906-7.582031-6.144531-13.726562-13.730468-13.726562zm0 0" fill="#d4fbff"/><path d="m289.722656 84.511719h-46l-53.148437 103.882812v10.386719c0 7.585938 6.148437 13.730469 13.730469 13.730469h19.929687zm0 0" fill="#fff"/><path d="m264.234375 212.511719 44.742187-87.445313v-26.828125c0-3.539062-1.378906-6.742187-3.582031-9.171875l-63.160156 123.445313zm0 0" fill="#fff"/><path d="m432.84375 84.511719h-90.941406c-7.582032 0-13.726563 6.144531-13.726563 13.726562v100.539063c0 7.585937 6.148438 13.730468 13.726563 13.730468h90.941406c7.585938 0 13.726562-6.148437 13.726562-13.730468v-100.539063c.003907-7.582031-6.140624-13.726562-13.726562-13.726562zm0 0" fill="#d4fbff"/><path d="m371.722656 84.511719-43.546875 85.117187v29.152344c0 7.585938 6.148438 13.730469 13.726563 13.730469h10.332031l65.488281-128zm0 0" fill="#fff"/><path d="m392.234375 212.511719 54.339844-106.210938v-8.0625c0-6.644531-4.71875-12.183593-10.988281-13.453125l-65.351563 127.726563zm0 0" fill="#fff"/><path d="m375.34375 29.179688h-113.539062c-7.585938 0-13.730469 6.144531-13.730469 13.726562v11.539062c0 7.585938 6.148437 13.730469 13.730469 13.730469h113.539062c7.585938 0 13.726562-6.148437 13.726562-13.730469v-11.539062c.003907-7.585938-6.140624-13.726562-13.726562-13.726562zm0 0" fill="#ffd7e5"/><path d="m254.574219 257.84375c0 13.253906-10.742188 24-24 24-13.253907 0-24-10.746094-24-24 0-13.257812 10.746093-24 24-24 13.257812 0 24 10.742188 24 24zm0 0" fill="#fa759e"/><path d="m240.574219 257.84375c0 5.519531-4.476563 10-10 10-5.519531 0-10-4.480469-10-10 0-5.523438 4.480469-10 10-10 5.523437 0 10 4.476562 10 10zm0 0" fill="#ffd7e5"/><path d="m430.574219 257.84375c0 13.253906-10.742188 24-24 24-13.253907 0-24-10.746094-24-24 0-13.257812 10.746093-24 24-24 13.257812 0 24 10.742188 24 24zm0 0" fill="#fa759e"/><path d="m416.574219 257.84375c0 5.519531-4.476563 10-10 10-5.519531 0-10-4.480469-10-10 0-5.523438 4.480469-10 10-10 5.523437 0 10 4.476562 10 10zm0 0" fill="#ffd7e5"/><g fill="#3a2c60"><path d="m63.742188 269.71875c1.386718 9.457031 9.539062 16.285156 18.824218 16.285156.917969 0 1.839844-.070312 2.769532-.207031 5.03125-.734375 9.476562-3.386719 12.515624-7.460937 3.039063-4.082032 4.308594-9.097657 3.574219-14.132813-1.523437-10.390625-11.273437-17.613281-21.59375-16.085937-10.390625 1.519531-17.609375 11.210937-16.089843 21.601562zm17.242187-13.683594c.539063-.082031 1.074219-.117187 1.605469-.117187 5.386718 0 10.109375 3.960937 10.914062 9.445312.425782 2.914063-.308594 5.828125-2.070312 8.191407-1.765625 2.363281-4.339844 3.902343-7.257813 4.332031-6.042969.886719-11.640625-3.304688-12.523437-9.328125-.871094-6.023438 3.3125-11.640625 9.332031-12.523438zm0 0"/><path d="m172.574219 96.175781c2.214843 0 4-1.792969 4-4v-24.417969c0-2.207031-1.785157-4-4-4-2.210938 0-4 1.792969-4 4v24.417969c0 2.207031 1.789062 4 4 4zm0 0"/><path d="m186.574219 98.238281v100.539063c0 9.777344 7.953125 17.734375 17.730469 17.734375h90.941406c9.773437 0 17.730468-7.953125 17.730468-17.734375v-100.539063c0-9.777343-7.953124-17.726562-17.730468-17.726562h-90.945313c-9.773437 0-17.726562 7.953125-17.726562 17.726562zm118.398437 0v100.539063c0 5.363281-4.363281 9.734375-9.730468 9.734375h-90.941407c-5.363281 0-9.730469-4.367188-9.730469-9.734375v-100.539063c0-5.363281 4.367188-9.726562 9.730469-9.726562h90.941407c5.371093 0 9.730468 4.363281 9.730468 9.726562zm0 0"/><path d="m450.574219 198.78125v-100.542969c0-9.777343-7.949219-17.726562-17.730469-17.726562h-90.941406c-9.773438 0-17.730469 7.949219-17.730469 17.726562v100.539063c0 9.777344 7.953125 17.734375 17.730469 17.734375h90.941406c9.78125 0 17.730469-7.953125 17.730469-17.730469zm-8 0c0 5.363281-4.363281 9.734375-9.730469 9.734375h-90.941406c-5.367188 0-9.730469-4.367187-9.730469-9.734375v-100.542969c0-5.363281 4.363281-9.726562 9.730469-9.726562h90.941406c5.367188 0 9.730469 4.363281 9.730469 9.726562zm0 0"/><path d="m375.34375 25.179688h-113.542969c-9.773437 0-17.730469 7.949218-17.730469 17.726562v11.542969c0 9.777343 7.953126 17.730469 17.730469 17.730469h113.542969c9.777344 0 17.730469-7.953126 17.730469-17.730469v-11.542969c0-9.777344-7.949219-17.726562-17.730469-17.726562zm9.730469 29.269531c0 5.363281-4.363281 9.730469-9.730469 9.730469h-113.542969c-5.363281 0-9.730469-4.367188-9.730469-9.730469v-11.542969c0-5.363281 4.367188-9.726562 9.730469-9.726562h113.542969c5.367188 0 9.730469 4.363281 9.730469 9.726562zm0 0"/><path d="m202.574219 257.84375c0 15.4375 12.566406 28 28 28 15.4375 0 28-12.5625 28-28 0-15.441406-12.5625-28-28-28-15.433594 0-28 12.558594-28 28zm48 0c0 11.027344-8.96875 20-20 20-11.027344 0-20-8.972656-20-20 0-11.03125 8.972656-20 20-20 11.03125 0 20 8.96875 20 20zm0 0"/><path d="m406.574219 229.84375c-15.433594 0-28 12.558594-28 28 0 15.4375 12.566406 28 28 28 15.4375 0 28-12.5625 28-28 0-15.441406-12.5625-28-28-28zm0 48c-11.027344 0-20-8.972656-20-20 0-11.03125 8.972656-20 20-20 11.03125 0 20 8.96875 20 20 0 11.027344-8.96875 20-20 20zm0 0"/><path d="m366.238281 242.511719c0-2.210938-1.785156-4-4-4h-87.332031c-2.210938 0-4 1.789062-4 4 0 2.207031 1.789062 4 4 4h87.332031c2.214844 0 4-1.792969 4-4zm0 0"/><path d="m358.238281 258.511719c0-2.210938-1.785156-4-4-4h-71.332031c-2.210938 0-4 1.789062-4 4 0 2.207031 1.789062 4 4 4h71.332031c2.214844 0 4-1.792969 4-4zm0 0"/><path d="m294.90625 270.511719c-2.210938 0-4 1.789062-4 4 0 2.207031 1.789062 4 4 4h47.332031c2.214844 0 4-1.792969 4-4 0-2.210938-1.785156-4-4-4zm0 0"/><path d="m482.671875 388.089844h-51.78125c8.816406-5.679688 14.683594-15.5625 14.683594-26.8125v-6.941406h16.6875c10.097656 0 18.3125-8.21875 18.3125-18.316407v-17.367187c0-7.871094-5.015625-14.539063-12-17.121094v-275.773438c0-14.015624-11.402344-25.417968-25.417969-25.417968h-249.160156c-14.015625 0-25.417969 11.402344-25.417969 25.417968v24.5c0 2.207032 1.789063 4 4 4 2.214844 0 4-1.792968 4-4v-24.5c0-9.605468 7.8125-17.417968 17.417969-17.417968h249.160156c9.605469 0 17.417969 7.8125 17.417969 17.417968v274.582032h-284v-190.582032c0-2.207031-1.785157-4-4-4-2.210938 0-4 1.792969-4 4v104.800782c-5.089844-2.363282-10.785157-3.265625-16.429688-2.429688l-23.640625 3.460938c-1.523437-1.355469-3.09375-2.675782-4.746094-3.90625-1.867187-1.390625-3.78125-2.667969-5.746093-3.855469l-17.273438-47.113281c-2.089843-5.722656-6.253906-10.332032-11.578125-13.011719 3.246094-6.316406 3.792969-13.8125 1.308594-20.585937-4.867188-13.277344-19.640625-20.125-32.921875-15.257813-13.28125 4.871094-20.132813 19.636719-15.257813 32.921875 2.367188 6.445312 7.261719 11.59375 13.386719 14.421875l-18.851562 20.351563c-3.019531 3.257812-4.589844 7.5-4.421875 11.941406.171875 4.441406 2.0625 8.554687 5.320312 11.570312l6.945313 6.429688c-6.59375 4.347656-12.503907 9.761718-17.359375 16.285156-11 14.769531-15.589844 32.933594-12.921875 51.152344 2.664062 18.21875 12.265625 34.308594 27.035156 45.308594 9.761719 7.269531 21.015625 11.683593 32.777344 13.109374l-55.695313 19.824219c-4.226562 1.5-7.066406 5.523438-7.066406 10.011719v14.589844c0 3.261718 1.542969 6.304687 4.082031 8.3125h-11.519531c-2.210938 0-4 1.792968-4 4 0 2.207031 1.789062 4 4 4h478.667969c2.210937 0 4-1.792969 4-4 0-2.207032-1.785157-4-3.996094-4zm-96.414063 0h-135.367187c8.816406-5.679688 14.683594-15.5625 14.683594-26.8125v-6.941406h106v6.941406c0 11.25 5.867187 21.132812 14.683593 26.8125zm86.316407-69.4375v17.371094c0 5.6875-4.625 10.316406-10.3125 10.316406h-287.371094c-5.6875 0-10.316406-4.628906-10.316406-10.316406v-17.371094c0-5.6875 4.628906-10.3125 10.316406-10.3125h287.371094c5.6875 0 10.3125 4.625 10.3125 10.3125zm-319.273438-98.609375c5.363281-.789063 10.84375.550781 15.273438 3.6875v26.085937l-4.25-4.941406c-3.511719-4.085938-8.535157-6.363281-13.816407-6.363281-.890624 0-1.785156.0625-2.679687.195312l-2.257813.328125c-.597656-1.359375-1.257812-2.6875-1.945312-4.003906-.136719-.257812-.273438-.511719-.410156-.769531-2.113282-3.925781-4.605469-7.632813-7.457032-11.082031-.140624-.167969-.261718-.351563-.40625-.515626zm-112.90625-28.84375c-.085937-2.308594.730469-4.507813 2.292969-6.203125l22.011719-23.757813s0-.003906.003906-.003906c.3125-.558594.65625-1.105469 1.039063-1.628906.8125-1.113281.996093-2.5625.484374-3.839844-.511718-1.277344-1.636718-2.203125-2.996093-2.453125-6.140625-1.121094-11.289063-5.441406-13.433594-11.277344-3.351563-9.144531 1.363281-19.308594 10.503906-22.660156 9.144531-3.351562 19.308594 1.359375 22.664063 10.5 2.136718 5.835938 1.003906 12.460938-2.960938 17.285156-.875 1.066406-1.140625 2.5-.703125 3.808594.429688 1.304688 1.511719 2.296875 2.847657 2.621094 5.128906 1.25 9.273437 4.941406 11.082031 9.878906l14.40625 39.304688c-.035157-.015626-.078125-.023438-.117188-.039063-1.675781-.65625-3.375-1.222656-5.09375-1.742187-.4375-.128907-.875-.273438-1.308593-.398438-1.460938-.40625-2.933594-.746094-4.417969-1.058594-.730469-.15625-1.460938-.3125-2.195313-.441406-1.269531-.21875-2.539062-.390625-3.820312-.542969-.960938-.117187-1.921875-.214843-2.886719-.289062-1.128906-.082031-2.261719-.132813-3.402344-.160157-.570312-.015624-1.132812-.078124-1.707031-.078124-.691406 0-1.386719.054687-2.078125.074218-.632813.019532-1.261719.03125-1.898437.066406-2.019532.117188-4.046876.292969-6.074219.59375l-5.449219-14.863281 10.148438-10.957031c1.503906-1.621094 1.40625-4.152344-.214844-5.652344s-4.148438-1.40625-5.652344.21875l-18.90625 20.402344c-1.503906 1.621094-1.40625 4.152344.21875 5.652344l23.796875 22.046875c1.867187 1.730469 1.976563 4.648437.253906 6.511719-1.71875 1.863281-4.65625 1.976562-6.515625.253906l-27.15625-25.164063c-1.695312-1.574219-2.679687-3.703125-2.765625-6.007812zm42.300781 36.351562c.714844-.777343 1.28125-1.632812 1.769532-2.519531 8.332031.355469 16.367187 3.160156 23.203125 8.246094 8.996093 6.699218 14.84375 16.5 16.46875 27.601562 3.351562 22.910156-12.566407 44.273438-35.472657 47.632813-11.09375 1.617187-22.164062-1.171875-31.160156-7.875-8.996094-6.699219-14.84375-16.5-16.46875-27.597657-2.777344-19 7.730469-36.863281 24.457032-44.339843 2.320312 1.898437 5.128906 2.882812 7.953124 2.882812 3.386719 0 6.769532-1.355469 9.25-4.03125zm-60.398437 48.230469c-2.355469-16.101562 1.703125-32.164062 11.417969-45.214844 4.699218-6.3125 10.523437-11.433594 17.042968-15.421875l8.402344 7.789063c-6.457031 3.414062-12.179687 8.136718-16.671875 14.164062-7.976562 10.707032-11.304687 23.882813-9.371093 37.097656 1.925781 13.214844 8.894531 24.882813 19.597656 32.859376 8.726562 6.496093 19.082031 9.90625 29.757812 9.90625 2.429688 0 4.886719-.175782 7.339844-.535157 27.277344-3.992187 46.21875-29.429687 42.230469-56.699219-1.925781-13.210937-8.894531-24.882812-19.597657-32.859374-7.855468-5.851563-17.050781-9.15625-26.59375-9.753907-.40625-2.730469-1.65625-5.355469-3.835937-7.375l-3.828125-3.546875c1.511719-.113281 3.019531-.167968 4.523438-.167968 13.015624 0 25.636718 4.160156 36.265624 12.074218 13.050782 9.71875 21.539063 23.945313 23.894532 40.046875 2.355468 16.105469-1.699219 32.164063-11.417969 45.21875-9.722656 13.050781-23.941406 21.535157-40.050781 23.894531-16.101563 2.355469-32.160156-1.699218-45.214844-11.417968-13.050781-9.734375-21.539062-23.957032-23.890625-40.058594zm115.570313 32.347656c10.996093-14.761718 15.585937-32.929687 12.917968-51.148437-.515625-3.519531-1.363281-6.929688-2.390625-10.269531l.585938-.085938c3.503906-.492188 6.96875.789062 9.273437 3.46875l10.3125 12.007812v39.429688c-.777344.285156-1.511718.640625-2.234375 1.027344l-34.101562 12.136718c1.988281-2.074218 3.898437-4.230468 5.636719-6.566406zm-118.425782 57.058594c0-1.109375.703125-2.105469 1.746094-2.476562l135.964844-48.394532c-.34375 1.398438-.578125 2.835938-.578125 4.335938v16.042968l-133.621094 47.558594c-1.152344.40625-2.070313-.09375-2.402344-.328125-.335937-.234375-1.109375-.914062-1.109375-2.148437zm138.441406-22.46875c2.683594 6.789062 9.277344 11.617188 17.007813 11.617188h16.683594v6.941406c0 11.25 5.867187 21.128906 14.683593 26.8125h-175.84375zm0 0"/></g></svg>