<svg height="442pt" viewBox="0 -2 442.084 442" width="442pt" xmlns="http://www.w3.org/2000/svg"><path d="m333.164062 16.042969h-281.3125c-19.765624 0-35.851562 16.082031-35.851562 35.851562v350.25c0 19.769531 16.085938 35.851563 35.851562 35.851563h281.316407c19.769531 0 35.855469-16.082032 35.855469-35.851563v-350.25c-.003907-19.769531-16.085938-35.851562-35.859376-35.851562zm0 0" fill="#e6e7e8"/><path d="m429.421875 166.339844h-37.335937c-6.984376 0-12.664063 5.679687-12.664063 12.667968v90.667969c0 6.980469 5.679687 12.667969 12.664063 12.667969h37.335937c6.980469 0 12.664063-5.6875 12.664063-12.667969v-90.667969c0-6.988281-5.683594-12.667968-12.664063-12.667968zm0 0" fill="#e6e7e8"/><path d="m45.882812 36.527344c-5.191406 0-9.398437 4.207031-9.398437 9.398437v330.191407c0 5.191406 4.207031 9.402343 9.398437 9.402343h261.253907c5.191406 0 9.398437-4.210937 9.398437-9.402343v-330.191407c0-5.191406-4.207031-9.398437-9.398437-9.398437zm0 0" fill="#fff"/><path d="m57.882812 48.527344c-5.191406 0-9.398437 4.207031-9.398437 9.398437v327.59375h258.652344c5.191406 0 9.398437-4.210937 9.398437-9.402343v-327.589844zm0 0" fill="#d4fbff"/><path d="m317.164062 4.042969h-281.3125c-17.589843 0-31.851562 14.257812-31.851562 31.851562v350.25c0 17.59375 14.261719 31.851563 31.851562 31.851563h281.316407c17.59375 0 31.851562-14.257813 31.851562-31.851563v-350.25c0-17.59375-14.261719-31.851562-31.855469-31.851562zm-.628906 372.074219c0 5.191406-4.207031 9.402343-9.398437 9.402343h-261.253907c-5.191406 0-9.398437-4.210937-9.398437-9.402343v-330.191407c0-5.191406 4.207031-9.398437 9.398437-9.398437h261.253907c5.191406 0 9.398437 4.207031 9.398437 9.398437zm0 0" fill="#6dc9f7"/><path d="m285.421875 343.550781-21.222656-52.359375c-3.871094-9.550781-12.359375-16.453125-22.5-18.292968l-30.320313-5.5c5.304688 9.964843 8.453125 21.113281 8.980469 32.773437l6.34375 1.148437c5.742187 1.042969 10.542969 4.949219 12.738281 10.359376l17.582032 43.382812c3.179687 7.839844 12.113281 11.625 19.953124 8.445312 7.84375-3.183593 11.625-12.117187 8.445313-19.957031zm0 0" fill="#fa759e"/><path d="m199.226562 190.617188c-.214843-8.167969-4.566406-15.246094-10.996093-19.304688 7.511719-4.691406 12.425781-13.101562 12.171875-22.597656-.378906-14.269532-12.253906-25.527344-26.523438-25.148438-14.265625.378906-25.527344 12.253906-25.148437 26.523438.253906 9.492187 5.609375 17.632812 13.359375 21.921875-.589844.414062-1.136719.878906-1.683594 1.347656l-33.582031 18.292969c-7.3125 3.984375-10.011719 13.144531-6.027344 20.457031l21.136719 38.792969c2.714844 4.980468 8.949218 6.820312 13.929687 4.105468 4.980469-2.71875 6.820313-8.953124 4.105469-13.933593l-18.519531-33.996094 10.929687-5.957031.6875 25.882812c1.261719.160156 2.511719.257813 3.777344.484375 17.742188 3.222657 32.914062 12.285157 44.019531 24.796875h.003907zm0 0" fill="#fa759e"/><path d="m156.847656 227.496094c-1.539062-.277344-3.066406-.410156-4.605468-.59375l7.726562 14.179687c1.84375 3.386719 1.542969 7.335938-.378906 10.378907 25.957031 8.199218 42.410156 34.578124 37.421875 62.066406-5.410157 29.824218-33.972657 49.609375-63.796875 44.199218-29.824219-5.414062-49.609375-33.972656-44.199219-63.796874 4.679687-25.789063 26.679687-44.039063 51.828125-45.015626l-11.636719-21.355468c-30.855469 5.597656-56.5 29.65625-62.425781 62.335937-7.640625 42.101563 20.296875 82.421875 62.398438 90.0625 42.105468 7.640625 82.425781-20.300781 90.0625-62.398437 7.644531-42.101563-20.292969-82.425782-62.394532-90.0625zm0 0" fill="#0089ef"/><path d="m160.964844 303.730469c0 9.910156-8.035156 17.949219-17.949219 17.949219-9.910156 0-17.949219-8.039063-17.949219-17.949219 0-9.914063 8.039063-17.949219 17.949219-17.949219 9.914063 0 17.949219 8.035156 17.949219 17.949219zm0 0" fill="#0089ef"/><path d="m413.414062 262.339844h-37.328124c-4.789063 0-8.671876-3.882813-8.671876-8.667969v-90.664063c0-4.789062 3.882813-8.667968 8.671876-8.667968h37.328124c4.789063 0 8.671876 3.878906 8.671876 8.667968v90.667969c0 4.78125-3.882813 8.664063-8.671876 8.664063zm0 0" fill="#6dc9f7"/><g fill="#3a2c60"><path d="m307.132812 32.527344h-261.253906c-7.386718 0-13.398437 6.011718-13.398437 13.398437v330.1875c0 7.390625 6.011719 13.402344 13.398437 13.402344h261.253906c7.390626 0 13.402344-6.011719 13.402344-13.402344v-330.1875c0-7.386719-6.011718-13.398437-13.402344-13.398437zm-144.453124 144.152344c.199218-.109376.332031-.289063.503906-.425782.394531-.335937.789062-.675781 1.214844-.980468 1.125-.796876 1.761718-2.113282 1.6875-3.484376-.078126-1.375-.855469-2.609374-2.058594-3.277343-6.757813-3.746094-11.085938-10.839844-11.296875-18.527344-.15625-5.832031 1.972656-11.375 5.988281-15.609375 4.015625-4.238281 9.4375-6.652344 15.273438-6.808594 5.828124-.09375 11.375 1.96875 15.613281 5.984375 4.234375 4.015625 6.652343 9.4375 6.804687 15.269531.207032 7.6875-3.738281 15.003907-10.292968 19.101563-1.167969.730469-1.878907 2.007813-1.882813 3.382813 0 1.378906.703125 2.65625 1.867187 3.394531 5.542969 3.5 8.957032 9.492187 9.128907 16.023437l1.375 51.679688c-.21875-.1875-.445313-.355469-.660157-.542969-1.164062-1-2.332031-1.988281-3.550781-2.917969-1.003906-.769531-2.039062-1.484375-3.074219-2.203125-1.332031-.925781-2.6875-1.808593-4.074218-2.648437-1.167969-.710938-2.351563-1.398438-3.554688-2.050782-.78125-.421874-1.554687-.839843-2.347656-1.238281-1.988281-.992187-4.003906-1.917969-6.070312-2.742187-.34375-.136719-.703126-.25-1.046876-.378906-1.90625-.734376-3.851562-1.386719-5.824218-1.96875-.597656-.179688-1.199219-.355469-1.804688-.519532-2.308594-.632812-4.644531-1.203125-7.03125-1.632812-.195312-.035156-.390625-.070313-.582031-.101563l-.53125-19.992187 16.058594-8.75c1.941406-1.058594 2.65625-3.484375 1.597656-5.425782-1.054687-1.9375-3.484375-2.660156-5.425781-1.59375l-29.144532 15.875c-.929687.503907-1.625 1.363282-1.917968 2.378907-.300782 1.015625-.183594 2.113281.324218 3.042969l18.519532 33.996093c1.65625 3.039063.527344 6.855469-2.503906 8.507813-1.472657.800781-3.164063.984375-4.773438.511718-1.601562-.472656-2.929688-1.546874-3.734375-3.019531l-21.136719-38.789062c-2.921875-5.363281-.9375-12.109375 4.425782-15.035157zm-14.125 31.085937.113281 4.214844-1.796875-3.292969zm-14.109376 37.761719c-8.867187 1.277344-17.386718 4.554687-24.960937 9.808594-12.929687 8.953124-21.59375 22.410156-24.398437 37.886718-2.808594 15.476563.578124 31.117188 9.535156 44.042969 8.953125 12.925781 22.410156 21.59375 37.886718 24.398437 3.535157.640626 7.085938.960938 10.613282.960938 8.636718 0 17.15625-1.90625 25.074218-5.664062 1.996094-.945313 2.847657-3.332032 1.90625-5.328126-.953124-1.996093-3.332031-2.847656-5.328124-1.902343-9.640626 4.566406-20.304688 5.976562-30.832032 4.0625-13.375-2.425781-25-9.914063-32.742187-21.082031-7.738281-11.171876-10.667969-24.6875-8.238281-38.0625 2.421874-13.371094 9.914062-25 21.082031-32.738282 7.402343-5.128906 15.828125-8.082031 24.5625-8.816406 1.835937 3.195312 4.761719 5.542969 8.308593 6.59375 1.339844.394531 2.703126.585938 4.058594.585938 2.351563 0 4.683594-.585938 6.808594-1.746094 1.191406-.652344 2.203125-1.488282 3.125-2.402344 9.636719 3.59375 17.953125 9.996094 23.933594 18.628906 7.738281 11.167969 10.667968 24.6875 8.238281 38.058594-.960937 5.320312-2.742187 10.40625-5.28125 15.105469-1.050781 1.945312-.328125 4.371093 1.613281 5.421875 1.949219 1.046875 4.375.324218 5.421875-1.617188 2.945313-5.449218 5-11.332031 6.117188-17.480468 5.078125-27.996094-10.683594-54.949219-36.148438-65.101563.742188-3.269531.402344-6.800781-1.320312-9.976563l-3.761719-6.898437c17.785156 4.140625 33.21875 14.5 43.691406 29.617187 11.179688 16.132813 15.40625 35.652344 11.902344 54.964844-3.503906 19.308594-14.320312 36.101563-30.453125 47.277344-16.132813 11.179688-35.660156 15.402344-54.964844 11.902344-19.308593-3.503906-36.101562-14.320313-47.277343-30.453125-11.175782-16.132813-15.40625-35.652344-11.902344-54.964844s14.320312-36.097656 30.449218-47.28125c7.964844-5.515625 16.777344-9.210937 25.957032-11.242187zm147.199219 108.1875c-1.175781 2.78125-3.367187 4.941406-6.171875 6.078125-2.792968 1.136719-5.878906 1.113281-8.664062-.066407-2.785156-1.179687-4.941406-3.371093-6.082032-6.171874l-17.582031-43.382813c-2.714843-6.714844-8.59375-11.496094-15.730469-12.792969l-3.265624-.59375c0-.003906 0-.007812 0-.011718-.164063-1.949219-.410157-3.875-.710938-5.800782-.046875-.273437-.09375-.550781-.136719-.828125-1.003906-5.960937-2.640625-11.800781-4.96875-17.421875l22.652344 4.105469c8.839844 1.605469 16.132813 7.535156 19.507813 15.863281l21.21875 52.359375c1.136718 2.804688 1.113281 5.882813-.066407 8.664063zm30.890625 22.398437c0 2.980469-2.417968 5.402344-5.402344 5.402344h-139.753906c7.75-2.4375 15.171875-6.058594 22.042969-10.816406 17.886719-12.398438 29.878906-31.011719 33.761719-52.429688.804687-4.441406 1.15625-8.882812 1.230468-13.308593l1.574219.285156c4.414063.804687 8.058594 3.765625 9.742188 7.917968l17.585937 43.386719c1.9375 4.785157 5.621094 8.523438 10.375 10.535157 2.421875 1.023437 4.972656 1.539062 7.527344 1.539062 2.457031 0 4.917969-.476562 7.261719-1.421875 4.78125-1.9375 8.523437-5.625 10.53125-10.378906 2.011719-4.75 2.050781-10.003907.113281-14.785157l-21.222656-52.359374c-4.410156-10.886719-13.9375-18.632813-25.492188-20.730469l-28.382812-5.148438c-1.242188-2.207031-2.578125-4.375-4.039063-6.488281-1.613281-2.328125-3.34375-4.542969-5.160156-6.667969l-1.601563-60.140625c-.191406-7.339844-3.28125-14.1875-8.480468-19.160156 6.277344-5.785156 9.886718-14.09375 9.65625-22.746094-.210938-7.972656-3.511719-15.378906-9.296875-20.863281-5.785157-5.488281-13.414063-8.390625-21.332031-8.175781-16.453126.433594-29.480469 14.175781-29.042969 30.628906.226562 8.347656 4.027343 16.160156 10.199219 21.589844l-30.023438 16.351562c-4.472656 2.4375-7.730469 6.472656-9.171875 11.359375-1.4375 4.890625-.890625 10.050781 1.550781 14.523438l5.882813 10.792969c-9.371094 2.351562-18.371094 6.265624-26.550781 11.933593-17.890626 12.394531-29.882813 31.011719-33.765626 52.421875-3.886718 21.417969.800782 43.0625 13.195313 60.949219 10.515625 15.175781 25.539063 26.042969 42.914063 31.382813h-73.082032c-2.980468 0-5.398437-2.417969-5.398437-5.398438v-330.167969c0-2.980469 2.417969-5.398437 5.398437-5.398437h261.253906c2.980469 0 5.402344 2.417968 5.402344 5.398437zm0 0"/><path d="m317.164062.0429688h-281.3125c-19.765624 0-35.851562 16.0820312-35.851562 35.8515622v350.25c0 19.769531 16.085938 35.851563 35.851562 35.851563h281.316407c19.769531 0 35.855469-16.082032 35.855469-35.851563v-350.25c-.003907-19.769531-16.085938-35.8515622-35.859376-35.8515622zm27.855469 386.1015622c0 15.363281-12.496093 27.851563-27.855469 27.851563h-281.3125c-15.359374 0-27.851562-12.492188-27.851562-27.851563v-350.25c0-15.359375 12.496094-27.851562 27.851562-27.851562h281.316407c15.359375 0 27.855469 12.496093 27.855469 27.851562v350.25zm0 0"/><path d="m177.414062 350.488281c.882813 0 1.765626-.285156 2.5-.878906 2.683594-2.152344 5.199219-4.5625 7.472657-7.164063 1.453125-1.664062 1.285156-4.1875-.378907-5.644531-1.660156-1.445312-4.1875-1.28125-5.644531.382813-1.964843 2.246094-4.140625 4.332031-6.457031 6.191406-1.722656 1.382812-2 3.898438-.613281 5.621094.792969.980468 1.949219 1.492187 3.121093 1.492187zm0 0"/><path d="m146.9375 282.132812c-11.917969-2.167968-23.351562 5.765626-25.511719 17.671876-2.160156 11.910156 5.765625 23.351562 17.671875 25.511718 1.316406.242188 2.628906.359375 3.925782.359375 10.40625 0 19.664062-7.445312 21.585937-18.035156 2.164063-11.898437-5.769531-23.347656-17.671875-25.507813zm9.800781 24.085938c-1.371093 7.570312-8.644531 12.617188-16.210937 11.234375-7.566406-1.371094-12.601563-8.648437-11.230469-16.210937 1.375-7.566407 8.660156-12.613282 16.210937-11.230469 7.5625 1.367187 12.605469 8.640625 11.230469 16.207031zm0 0"/><path d="m413.414062 150.339844h-37.328124c-6.984376 0-12.671876 5.679687-12.671876 12.667968v90.667969c0 6.980469 5.6875 12.667969 12.671876 12.667969h37.328124c6.984376 0 12.671876-5.6875 12.671876-12.667969v-90.667969c0-6.984374-5.6875-12.667968-12.671876-12.667968zm4.671876 103.332031c0 2.574219-2.09375 4.667969-4.671876 4.667969h-37.328124c-2.578126 0-4.671876-2.09375-4.671876-4.667969v-90.664063c0-2.574218 2.09375-4.667968 4.671876-4.667968h37.328124c2.578126 0 4.671876 2.089844 4.671876 4.667968zm0 0"/><path d="m381.855469 194.335938h25.792969c2.511718 0 4.0625-2.738282 2.773437-4.894532l-12.898437-21.53125c-1.253907-2.097656-4.289063-2.097656-5.542969 0l-12.894531 21.53125c-1.292969 2.15625.257812 4.894532 2.769531 4.894532zm0 0"/><path d="m407.644531 222.34375h-25.792969c-2.511718 0-4.0625 2.738281-2.773437 4.890625l12.898437 21.53125c1.253907 2.097656 4.292969 2.097656 5.542969 0l12.894531-21.53125c1.292969-2.15625-.257812-4.890625-2.769531-4.890625zm0 0"/><path d="m407 204.339844h-24.5c-2.210938 0-4 1.789062-4 4 0 2.207031 1.789062 4 4 4h24.5c2.210938 0 4-1.792969 4-4 0-2.210938-1.789062-4-4-4zm0 0"/></g></svg>