<svg height="468pt" viewBox="0 -5 468.89902 468" width="468pt" xmlns="http://www.w3.org/2000/svg"><path d="m134.84375 321.144531c1.46875 0 2.957031-.109375 4.445312-.328125 16.703126-2.441406 28.296876-18.019531 25.855469-34.714844-2.441406-16.699218-18.011719-28.28125-34.714843-25.851562-8.085938 1.179688-15.234376 5.445312-20.113282 12-4.886718 6.554688-6.921875 14.625-5.738281 22.710938 2.226563 15.210937 15.332031 26.183593 30.265625 26.183593zm0 0" fill="#e6e7e8"/><path d="m462.300781 300.5c-4.140625-2.933594-9.46875-3.675781-14.25-1.992188l-237.289062 83.527344c7.175781-5.976562 13.707031-12.828125 19.425781-20.503906 18.964844-25.460938 26.875-56.785156 22.28125-88.195312-1.074219-7.324219-2.824219-14.382813-5.132812-21.148438l4.542968-.664062c7.230469-1.070313 14.410156 1.621093 19.179688 7.171874l45.226562 52.640626c4.648438 5.410156 11.128906 8.6875 18.246094 9.226562.6875.050781 1.375.082031 2.058594.082031 6.378906 0 12.476562-2.253906 17.363281-6.453125 5.417969-4.652344 8.695313-11.128906 9.234375-18.246094.539062-7.113281-1.722656-14.011718-6.375-19.421874l-54.582031-63.53125c-10.90625-12.703126-27.304688-18.835938-43.875-16.414063l-43.28125 6.332031c-6.136719-5.605468-12.84375-10.546875-20.003907-14.765625l-30.972656-84.492187c-3.816406-10.410156-11.808594-18.574219-21.917968-22.667969 6.734374-10.953125 8.21875-24.574219 3.75-36.761719-8.03125-21.90625-32.382813-33.203125-54.292969-25.167968-21.910157 8.03125-33.199219 32.386718-25.167969 54.296874 4.398438 12 14.105469 21.300782 26.0625 25.40625l-36.363281 39.257813c-9.878907 10.660156-9.242188 27.367187 1.417969 37.242187l15.0625 13.953126c-12.707032 7.804687-23.945313 18.011718-33.117188 30.328124-18.964844 25.460938-26.875 56.785157-22.28125 88.195313 4.59375 31.417969 21.148438 59.160156 46.613281 78.125 20.332031 15.144531 44.40625 23.1875 69.277344 23.496094l-90.09375 31.710937c-4.34375 1.527344-6.832031 5.769532-6.058594 10.308594.773438 4.535156 4.53125 7.707031 9.132813 7.707031h418.777344c2.207031 0 4-1.792969 4-4v-141.804687c.011718-5.070313-2.460938-9.847656-6.597657-12.777344zm-356.664062-80.734375c3.582031 3.320313 8.191406 5.125 13.046875 5.125.25 0 .5-.003906.75-.015625 5.132812-.195312 9.882812-2.378906 13.371094-6.148438 1.519531-1.640624 2.652343-3.519531 3.511718-5.515624 16.0625.269531 31.609375 5.492187 44.75 15.28125 16.574219 12.339843 27.34375 30.398437 30.335938 50.84375 6.171875 42.203124-23.140625 81.5625-65.34375 87.742187-42.242188 6.175781-81.566406-23.144531-87.742188-65.34375-5.21875-35.652344 14.9375-69.1875 46.742188-82.492187zm-7.652344-70.304687 5.992187 16.355468-11.378906-10.542968zm0 0" fill="#e6e7e8"/><path d="m337.773438 263.121094-54.578126-63.527344c-9.957031-11.585938-25.148437-17.265625-40.265624-15.054688l-45.125 6.605469c12.152343 11.488281 21.859374 25.671875 28.109374 41.792969l9.394532-1.371094c8.554687-1.25 17.15625 1.964844 22.789062 8.523438l45.226563 52.640625c8.175781 9.515625 22.511719 10.601562 32.027343 2.429687 9.511719-8.179687 10.597657-22.523437 2.421876-32.039062zm0 0" fill="#fa759e"/><path d="m96.652344 161.851562c1.84375-.363281 3.707031-.6875 5.585937-.964843 26.421875-3.863281 52.035157 1.621093 73.546875 13.917969l-31.441406-85.773438c-4.167969-11.371094-13.632812-19.265625-24.582031-21.921875 8.332031-10.148437 11.261719-24.285156 6.414062-37.507813-7.285156-19.867187-29.292969-30.070312-49.164062-22.785156-19.867188 7.28125-30.074219 29.289063-22.789063 49.164063 4.84375 13.21875 16.21875 22.117187 29.136719 24.472656-.628906.867187-1.175781 1.777344-1.722656 2.691406l-38.535157 41.59375c-8.390624 9.054688-7.847656 23.199219 1.210938 31.59375l48.042969 44.507813c6.167969 5.714844 15.804687 5.347656 21.519531-.824219 5.714844-6.167969 5.347656-15.804687-.824219-21.519531l-42.101562-39.003906 12.546875-13.542969zm0 0" fill="#fa759e"/><path d="m232.511719 257.910156c-9.179688-62.765625-67.507813-106.207031-130.273438-97.023437-2.316406.339843-4.59375.765625-6.859375 1.234375l17.671875 16.375c4.195313 3.886718 5.640625 9.574218 4.378907 14.761718 40.351562-.753906 75.941406 28.515626 81.9375 69.5 6.503906 44.460938-24.265626 85.773438-68.722657 92.277344-44.460937 6.503906-85.773437-24.265625-92.277343-68.722656-5.625-38.449219 16.652343-74.496094 51.527343-87.761719l-26.535156-24.585937c-40.695313 22.472656-65.269531 68.488281-58.144531 117.195312 9.183594 62.765625 67.507812 106.207032 130.277344 97.023438 62.761718-9.179688 106.203124-67.507813 97.019531-130.273438zm0 0" fill="#0089ef"/><path d="m145.46875 274.535156c0 14.691406-11.914062 26.601563-26.605469 26.601563-14.691406 0-26.605469-11.910157-26.605469-26.601563 0-14.695312 11.914063-26.605468 26.605469-26.605468 14.691407 0 26.605469 11.910156 26.605469 26.605468zm0 0" fill="#0089ef"/><path d="m448.910156 439.082031h-418.773437c-5.929688 0-7.339844-8.269531-1.75-10.238281l404.996093-142.566406c7.585938-2.667969 15.53125 2.957031 15.53125 10.996094v141.808593zm0 0" fill="#fff"/><path d="m445.378906 298.28125-399.996094 140.804688h403.527344v-141.40625c-1.167968.035156-2.347656.1875-3.53125.601562zm0 0" fill="#6dc9f7"/><g fill="#3a2c60"><path d="m88.582031 278.960938c2.226563 15.207031 15.332031 26.183593 30.261719 26.183593 1.46875 0 2.957031-.109375 4.445312-.328125 8.089844-1.183594 15.238282-5.445312 20.117188-12 4.878906-6.558594 6.921875-14.621094 5.738281-22.710937-1.179687-8.085938-5.445312-15.234375-12-20.113281-6.558593-4.882813-14.617187-6.929688-22.714843-5.738282-16.695313 2.441406-28.289063 18.011719-25.847657 34.707032zm27.007813-26.792969c1.113281-.164063 2.222656-.246094 3.320312-.246094 4.832032 0 9.511719 1.542969 13.457032 4.480469 4.84375 3.605468 7.992187 8.882812 8.867187 14.855468.871094 5.976563-.632813 11.933594-4.238281 16.773438-3.609375 4.84375-8.886719 7.992188-14.855469 8.867188-12.320313 1.785156-23.835937-6.761719-25.640625-19.097657-1.804688-12.335937 6.757812-23.832031 19.089844-25.632812zm0 0"/><path d="m446.300781 284.503906c-4.140625-2.933594-9.46875-3.671875-14.253906-1.992187l-237.710937 83.675781c31-25.605469 48.363281-66.253906 42.132812-108.855469-1.074219-7.324219-2.824219-14.378906-5.128906-21.144531l4.542968-.664062c7.234376-1.058594 14.40625 1.625 19.175782 7.171874l45.226562 52.640626c4.648438 5.410156 11.128906 8.6875 18.246094 9.226562.6875.050781 1.375.082031 2.058594.082031 6.378906 0 12.476562-2.253906 17.363281-6.453125 11.175781-9.597656 12.453125-26.496094 2.855469-37.667968l-54.582032-63.53125c-10.910156-12.699219-27.308593-18.84375-43.875-16.410157l-43.277343 6.332031c-6.136719-5.601562-12.847657-10.550781-20.007813-14.769531l-30.972656-84.492187c-3.816406-10.410156-11.808594-18.574219-21.917969-22.667969 6.734375-10.953125 8.21875-24.574219 3.75-36.761719-3.890625-10.613281-11.679687-19.074218-21.933593-23.828125-10.257813-4.75-21.75-5.226562-32.359376-1.335937-10.613281 3.890625-19.078124 11.679687-23.828124 21.9375-4.753907 10.25-5.230469 21.746094-1.335938 32.359375 4.394531 12 14.105469 21.304687 26.066406 25.40625l-36.363281 39.257812c-4.785156 5.164063-7.273437 11.882813-7.003906 18.914063.265625 7.03125 3.257812 13.546875 8.421875 18.328125l15.179687 14.066406c-39.230469 24.140625-62.589843 70.015625-55.511719 118.410156 8.558594 58.476563 58.582032 100.820313 115.878907 101.625l-90.078125 31.707031c-4.339844 1.527344-6.832032 5.765626-6.058594 10.304688s4.53125 7.710938 9.140625 7.710938h212.902344c2.207031 0 4-1.792969 4-4 0-2.207032-1.792969-4-4-4h-212.90625c-.714844 0-1.132813-.355469-1.253907-1.054688-.121093-.699219.160157-1.171875.832032-1.414062l404.996094-142.5625c2.375-.832032 4.921874-.480469 6.972656.972656 2.054687 1.457031 3.230468 3.730468 3.230468 6.25v137.808594h-129.300781c-2.207031 0-4 1.792968-4 4 0 2.207031 1.792969 4 4 4h133.292969c2.207031 0 4-1.792969 4-4v-141.808594c.003906-5.070313-2.46875-9.847656-6.605469-12.773438zm-202.789062-96.007812c13.835937-2.03125 27.535156 3.097656 36.652343 13.707031l54.578126 63.527344c6.726562 7.828125 5.828124 19.664062-2 26.386719-3.792969 3.257812-8.613282 4.84375-13.605469 4.464843-4.984375-.375-9.523438-2.671875-12.78125-6.464843l-45.226563-52.636719c-5.621094-6.542969-13.660156-10.191407-22.113281-10.191407-1.421875 0-2.855469.105469-4.292969.316407l-6.257812.917969c-1.238282-2.949219-2.617188-5.8125-4.078125-8.621094-.199219-.390625-.390625-.789063-.601563-1.171875-1.339844-2.515625-2.777344-4.964844-4.285156-7.359375-.449219-.710938-.902344-1.421875-1.359375-2.121094-1.460937-2.214844-2.988281-4.378906-4.589844-6.484375-.550781-.726563-1.125-1.433594-1.695312-2.152344-1.679688-2.101562-3.40625-4.167969-5.214844-6.148437-.148437-.164063-.28125-.34375-.429687-.503906zm-161.527344-55.035156 5.996094 16.355468-11.382813-10.542968zm-40.824219 7.164062c-.1875-4.898438 1.542969-9.578125 4.875-13.171875l38.941406-42.03125c.382813-.414063.65625-.890625.832032-1.390625.257812-.410156.492187-.828125.777344-1.21875.8125-1.113281.992187-2.566406.484374-3.84375-.511718-1.273438-1.644531-2.203125-2.996093-2.449219-11.9375-2.179687-21.9375-10.582031-26.09375-21.917969-3.15625-8.601562-2.769531-17.921874 1.082031-26.242187 3.855469-8.316406 10.714844-14.632813 19.324219-17.789063 8.605469-3.152343 17.925781-2.769531 26.242187 1.085938 8.3125 3.855469 14.632813 10.714844 17.785156 19.324219 4.15625 11.339843 1.957032 24.210937-5.746093 33.589843-.871094 1.0625-1.140625 2.5-.699219 3.808594.433594 1.304688 1.511719 2.296875 2.847656 2.621094 10.070313 2.441406 18.207032 9.699219 21.765625 19.410156l27.914063 76.140625c-.972656-.449219-1.960938-.84375-2.941406-1.265625-.253907-.109375-.511719-.222656-.773438-.332031-1.625-.6875-3.261719-1.335937-4.914062-1.945313-.085938-.035156-.167969-.0625-.25-.09375-12.984376-4.785156-26.613282-7.257812-40.480469-7.257812-.617188 0-1.234375.058594-1.851563.066406-1.832031.023438-3.667968.09375-5.507812.199219-.820313.050781-1.632813.105469-2.453125.171875-2.542969.207031-5.085938.464844-7.644531.839844-.007813 0-.015626 0-.019532.003906-.808594.117188-1.613281.246094-2.414062.382812l-11.15625-30.4375 19.230468-20.757812c1.5-1.617188 1.40625-4.152344-.21875-5.652344-1.617187-1.503906-4.152343-1.40625-5.652343.21875l-33.433594 36.089844c-.726563.78125-1.105469 1.8125-1.066406 2.875.042969 1.058594.5 2.058594 1.28125 2.777344l42.101562 39.003906c4.542969 4.207031 4.816407 11.324219.605469 15.863281-4.207031 4.542969-11.328125 4.8125-15.863281.609375l-48.042969-44.519531c-3.601562-3.328125-5.683594-7.863281-5.871094-12.765625zm75.648438 62.105469c1.53125-1.65625 2.640625-3.535157 3.480468-5.496094 37.160157.667969 69.566407 28.152344 75.117188 66.105469 6.171875 42.207031-23.140625 81.566406-65.34375 87.742187-42.230469 6.164063-81.566406-23.144531-87.742188-65.347656-5.21875-35.652344 14.9375-69.183594 46.75-82.488281l.566407.519531c3.691406 3.421875 8.378906 5.117187 13.058593 5.113281 5.167969.003906 10.328126-2.0625 14.113282-6.148437zm-107.636719 87.851562c-6.71875-45.925781 15.9375-89.425781 53.6875-111.621093l19.8125 18.359374c-33.175781 15.570313-53.839844 51.480469-48.269531 89.570313 6.199218 42.402344 42.757812 73.007813 84.40625 73.007813 4.09375 0 8.238281-.296876 12.410156-.90625 46.570312-6.8125 78.917969-50.246094 72.105469-96.8125-3.300781-22.5625-15.1875-42.484376-33.472657-56.105469-14.113281-10.507813-30.746093-16.148438-47.96875-16.707031-.078124-5.070313-2.109374-10.101563-6.113281-13.808594l-11.726562-10.863282c28.902343-3.898437 57.625 3.492188 81.039062 20.929688 23.75 17.691406 39.1875 43.566406 43.476563 72.863281 4.285156 29.296875-3.09375 58.515625-20.78125 82.261719-17.6875 23.75-43.5625 39.1875-72.859375 43.476562-5.417969.792969-10.796875 1.175782-16.117188 1.175782-54.089843-.007813-101.574219-39.753906-109.628906-94.820313zm0 0"/><path d="m295.71875 435.085938h-32.679688c-2.207031 0-4 1.792968-4 4 0 2.207031 1.792969 4 4 4h32.679688c2.207031 0 4-1.792969 4-4 0-2.207032-1.792969-4-4-4zm0 0"/></g></svg>