<svg height="487pt" viewBox="-52 0 487 487.55501" width="487pt" xmlns="http://www.w3.org/2000/svg"><path d="m383.742188 481.597656c-6.609376-11.765625-14.769532-22.816406-24.253907-32.828125-23.578125-25.085937-53.710937-42.222656-87.128906-49.554687-4.566406-1.007813-9.1875-1.753906-13.796875-2.375-2.085938-.285156-4.167969-.570313-6.25-.773438 39.582031-16.796875 69.433594-52.15625 78.617188-95.085937 2.136718.867187 4.335937 1.34375 6.589843 1.34375 12.859375 0 23.316407-14.027344 23.316407-31.269531 0-6.476563-1.476563-12.496094-4-17.492188v-53.773438c0-77.613281-57.003907-141.917968-131.429688-153.324218.371094-3.292969 1.011719-7.15625 2.167969-10.8125 3.027343-9.585938 8.761719-17.925782 5.746093-19.433594-5.753906-2.878906-31.214843 24.125-31.214843 24.125s-19.089844-17.417969-25.425781-13.289062c-2.183594 1.425781-.195313 11.621093 1.683593 19.355468-74.601562 11.257813-131.792969 75.636719-131.792969 153.378906v49.148438c-4.226562 5.664062-6.84375 13.484375-6.84375 22.109375 0 17.242187 10.453126 31.269531 23.3125 31.269531 2.253907 0 4.453126-.472656 6.589844-1.34375 9.183594 42.929688 39.03125 78.289063 78.613282 95.089844-3.210938.320312-6.429688.703125-9.644532 1.207031-3.476562.546875-6.941406 1.191407-10.363281 1.945313-33.46875 7.339844-63.621094 24.476562-87.1875 49.542968-9.484375 10.019532-17.648437 21.074219-24.257813 32.839844-.695312 1.242188-.679687 2.753906.035157 3.976563.722656 1.230469 2.03125 1.980469 3.453125 1.980469h359.976562c1.417969 0 2.734375-.75 3.453125-1.980469.714844-1.226563.730469-2.738281.035157-3.976563zm0 0" fill="#e6e7e8"/><path d="m321.515625 227.773438c-2.707031 0-5.28125.800781-7.621094 2.226562v27c0 7.390625-.652343 14.628906-1.839843 21.683594 2.804687 2.246094 6.007812 3.636718 9.460937 3.636718 10.667969 0 19.316406-12.210937 19.316406-27.269531 0-15.058593-8.648437-27.277343-19.316406-27.277343zm0 0" fill="#d4fbff"/><path d="m54.664062 257v-26.996094c-2.339843-1.425781-4.914062-2.226562-7.621093-2.226562-10.667969 0-19.316407 12.210937-19.316407 27.269531s8.648438 27.269531 19.316407 27.269531c3.457031 0 6.652343-1.390625 9.460937-3.636718-1.1875-7.050782-1.839844-14.289063-1.839844-21.679688zm0 0" fill="#ffd7e5"/><path d="m149.148438 383.167969c-5.160157 0-10.261719.285156-15.308594.742187-7.050782.632813-13.988282 1.722656-20.75 3.210938-33.195313 7.28125-62.71875 24.539062-85.136719 48.390625-9.171875 9.6875-17.144531 20.40625-23.675781 32.046875h177.75v-84.390625zm0 0" fill="#fff"/><path d="m182.027344 467.554688v-72.390626h-20.878906c-5.160157 0-10.261719.285157-15.308594.742188-7.050782.632812-13.988282 1.722656-20.75 3.210938-33.195313 7.28125-62.71875 24.539062-85.136719 48.390624-5.914063 6.246094-11.273437 12.972657-16.125 20.046876zm0 0" fill="#fa759e"/><path d="m340.578125 435.507812c-22.417969-23.847656-51.886719-41.105468-85.078125-48.390624-6.761719-1.488282-13.703125-2.578126-20.75-3.210938-1.605469-.171875-3.269531-.289062-4.933594-.34375-1.257812-.117188-2.578125-.171875-3.898437-.226562-2.179688-.117188-4.355469-.171876-6.535157-.171876h-37.351562v84.390626h182.226562c-6.539062-11.636719-14.507812-22.359376-23.679687-32.046876zm0 0" fill="#fff"/><path d="m340.578125 435.507812c-22.417969-23.847656-51.886719-41.105468-85.078125-48.390624-6.761719-1.488282-13.703125-2.578126-20.75-3.210938-1.605469-.171875-3.269531-.289062-4.933594-.34375-1.257812-.117188-2.578125-.171875-3.898437-.226562-2.179688-.117188-4.355469-.171876-6.535157-.171876h-37.351562v84.390626h182.226562c-6.539062-11.636719-14.507812-22.359376-23.679687-32.046876zm0 0" fill="#fff"/><path d="m328.578125 447.507812c-22.417969-23.847656-51.886719-41.105468-85.078125-48.390624-6.761719-1.488282-13.703125-2.578126-20.75-3.210938-1.605469-.171875-3.269531-.289062-4.933594-.34375-1.257812-.117188-2.578125-.171875-3.898437-.226562-2.179688-.117188-4.355469-.171876-6.535157-.171876h-25.351562v72.390626h162.671875c-4.859375-7.074219-10.210937-13.800782-16.125-20.046876zm0 0" fill="#6dc9f7"/><path d="m133.816406 383.898438c-7.050781.644531-13.96875 1.738281-20.734375 3.234374 3.882813 35.089844 33.089844 62.476563 68.945313 63.589844v-22.179687c-24.984375-1.097657-45.273438-20.175781-48.210938-44.644531zm0 0" fill="#fa759e"/><path d="m149.164062 383.167969c-5.179687 0-10.289062.265625-15.347656.730469 2.9375 24.46875 23.226563 43.546874 48.210938 44.644531v-45.375zm0 0" fill="#ffd7e5"/><path d="m219.390625 383.167969h-37.363281v45.375c.753906.03125 1.492187.105469 2.25.105469 26.015625 0 47.4375-19.550782 50.460937-44.75-5.058593-.464844-10.167969-.730469-15.347656-.730469zm0 0" fill="#d4fbff"/><path d="m170.917969 190.324219c-1.566407-.523438 4.660156-4.023438 8.492187-12.1875 1.414063-3.023438 2.199219-7.894531 2.613282-11.597657v-4.761718c-2.546876 2.007812-17.304688 13.4375-32.257813 20.84375-12.273437 6.082031-25.757813 7.917968-26.648437 7.703125-1.140626-.28125 2.808593-4.648438 4.550781-12.371094 1.460937-6.457031.6875-16.511719.6875-16.511719s-8.597657 16.847656-19.011719 28.371094c-8.609375 9.527344-19.289062 14.117188-19.9375 14.011719-.769531-.128907 3.96875-6.207031 7.007812-17.429688 2.652344-9.804687 3.617188-24.957031 3.617188-24.957031s-10.085938 24.238281-19.246094 37.710938c-9.164062 13.46875-25.054687 29.101562-25.054687 29.101562v.273438c-.347657-.210938-.710938-.378907-1.066407-.570313v29.039063c0 70.832031 56.824219 128.351562 127.363282 129.554687v-198.851563c-5.875 1.996094-10.414063 2.859376-11.109375 2.628907zm0 0" fill="#ffd7e5"/><path d="m276.964844 147.054688s-17.140625 22.277343-35.570313 35.574218c-13.96875 10.074219-36.453125 19.605469-37.371093 19.402344-1.273438-.289062 11.351562-18.3125 14.195312-26.226562 2.203125-6.136719 1.972656-14.359376 1.972656-14.359376s-9.976562 11.46875-22.273437 18.96875c-5.292969 3.230469-11.042969 5.640626-15.890625 7.285157v198.859375c.753906.011718 1.496094.054687 2.25.054687 71.582031 0 129.617187-58.03125 129.617187-129.613281v-64.121094c0-1.96875-.0625-3.917968-.148437-5.867187zm0 0" fill="#d4fbff"/><g fill="#3a2c60"><path d="m131.148438 463.554688h-16.566407c-2.210937 0-4 1.789062-4 4 0 2.210937 1.789063 4 4 4h16.566407c2.210937 0 4-1.789063 4-4 0-2.210938-1.792969-4-4-4zm0 0"/><path d="m367.742188 465.597656c-6.601563-11.757812-14.765626-22.808594-24.257813-32.839844-23.578125-25.082031-53.707031-42.214843-87.125-49.546874-4.269531-.941407-8.578125-1.65625-12.878906-2.265626-2.390625-.339843-4.785157-.648437-7.167969-.886718 39.582031-16.796875 69.433594-52.15625 78.617188-95.085938 2.140624.867188 4.339843 1.339844 6.59375 1.339844 12.859374 0 23.3125-14.03125 23.3125-31.269531 0-6.476563-1.476563-12.5-4-17.496094v-53.761719c0-77.613281-57.003907-141.917968-131.429688-153.324218.371094-3.292969 1.015625-7.15625 2.167969-10.8125 3.027343-9.585938 8.761719-17.925782 5.746093-19.433594-5.753906-2.878906-31.214843 24.125-31.214843 24.125s-19.089844-17.417969-25.425781-13.289063c-2.183594 1.425781-.195313 11.617188 1.683593 19.355469-74.601562 11.257812-131.792969 75.636719-131.792969 153.378906v49.144532c-4.226562 5.664062-6.84375 13.484374-6.84375 22.109374 0 17.242188 10.453126 31.269532 23.3125 31.269532 2.222657 0 4.4375-.484375 6.589844-1.359375 9.179688 42.941406 39.03125 78.304687 78.617188 95.105469-3.914063.386718-7.832032.941406-11.75 1.605468-2.761719.46875-5.527344.941406-8.261719 1.546875-33.46875 7.339844-63.621094 24.476563-87.1875 49.542969-9.492187 10.03125-17.65625 21.085938-24.257813 32.84375-.695312 1.242188-.679687 2.753906.035157 3.976562.722656 1.230469 2.03125 1.980469 3.453125 1.980469h90.304687c2.210938 0 4-1.789062 4-4 0-2.210937-1.789062-4-4-4h-26.429687c-8.519532-12.421875-19.910156-22.429687-33.328125-29.21875 20.835937-20.71875 46.566406-35.21875 74.996093-42.242187 5.835938 33.636718 34.085938 59.488281 68.210938 62.328125v9.132812h-26.75c-2.210938 0-4 1.789063-4 4 0 2.210938 1.789062 4 4 4h212.976562c1.417969 0 2.734376-.75 3.453126-1.980469.710937-1.214843.726562-2.730468.03125-3.972656zm-190.363282-41.53125c-1.109375-.164062-2.210937-.351562-3.292968-.589844-.453126-.101562-.894532-.230468-1.339844-.339843-.828125-.210938-1.652344-.421875-2.460938-.671875-.492187-.152344-.972656-.324219-1.457031-.492188-.746094-.261718-1.488281-.53125-2.21875-.824218-.488281-.199219-.96875-.40625-1.449219-.621094-.707031-.316406-1.402344-.644532-2.089844-.992188-.464843-.230468-.929687-.472656-1.382812-.71875-.691406-.378906-1.363281-.78125-2.03125-1.195312-.417969-.257813-.847656-.511719-1.257812-.78125-.710938-.46875-1.394532-.964844-2.070313-1.46875-.34375-.253906-.695313-.492188-1.03125-.757813-.957031-.75-1.886719-1.535156-2.78125-2.359375-.050781-.046875-.101563-.089844-.15625-.144531-.910156-.84375-1.777344-1.730469-2.621094-2.644531-.292969-.316406-.5625-.65625-.839843-.980469-.554688-.636719-1.097657-1.273437-1.613282-1.941406-.308594-.394531-.597656-.808594-.890625-1.210938-.457031-.628906-.902343-1.261719-1.324219-1.910156-.289062-.441406-.566406-.894531-.839843-1.347656-.394531-.648438-.769531-1.308594-1.132813-1.980469-.253906-.464844-.5-.9375-.742187-1.417969-.347657-.699219-.667969-1.414062-.976563-2.132812-.207031-.46875-.414062-.9375-.601562-1.414063-.316406-.796875-.597656-1.613281-.867188-2.433594-.140625-.425781-.296875-.835937-.425781-1.265624-.339844-1.125-.636719-2.273438-.890625-3.433594-.027344-.136719-.074219-.265625-.101562-.402344 0-.003906 0-.003906 0-.007812.945312-.0625 1.933593-.152344 2.847656-.199219.351562-.015625.710937-.039063 1.0625-.054688 2.304687-.105469 4.542968-.167969 6.722656-.167969h5.128906c7.699219 1.773438 15.644532 2.910157 23.789063 3.285157v33.722656c-.015625 0-.023438 0-.035157-.003906-.21875-.023438-.421874-.074219-.628906-.101563zm52.378906-35.25c-.234374.957032-.46875 1.914063-.757812 2.847656-.160156.519532-.355469 1.019532-.53125 1.527344-.273438.785156-.542969 1.566406-.855469 2.332032-.21875.539062-.472656 1.066406-.710937 1.597656-.320313.707031-.640625 1.410156-.992188 2.09375-.277344.535156-.574218 1.054687-.867187 1.582031-.371094.648437-.746094 1.296875-1.140625 1.929687-.324219.515626-.664063 1.015626-1.003906 1.515626-.417969.609374-.84375 1.203124-1.285157 1.789062-.367187.488281-.742187.96875-1.132812 1.4375-.464844.5625-.941407 1.113281-1.433594 1.660156-.40625.445313-.8125.894532-1.234375 1.324219-.515625.535156-1.050781 1.042969-1.589844 1.546875-.4375.402344-.867187.816406-1.3125 1.203125-.578125.5-1.175781.96875-1.773437 1.4375-.449219.351563-.890625.714844-1.351563 1.050781-.65625.476563-1.339844.914063-2.019531 1.359375-.441406.285157-.863281.589844-1.316406.859375-.871094.527344-1.777344 1.007813-2.683594 1.480469-.28125.144531-.546875.3125-.832031.453125-1.195313.585938-2.425782 1.128906-3.675782 1.617188-.386718.148437-.796874.265624-1.1875.410156-.882812.316406-1.765624.628906-2.667968.890625-.5.148437-1.011719.257812-1.519532.390625-.820312.207031-1.636718.417968-2.472656.582031-.550781.109375-1.109375.1875-1.664062.277344-.8125.132812-1.628906.253906-2.453125.34375-.574219.0625-1.160157.097656-1.742188.140625-.503906.035156-1.007812.050781-1.519531.070312v-33.996094c9.714844-.128906 19.171875-1.300781 28.28125-3.398437h5.089844c2.984375 0 6.039062.136719 9.15625.316406.367187.023438.722656.042969 1.117187.074219.132813.003906.265625.023438.398438.027344-.003907.019531-.003907.042968-.007813.0625-.09375.390625-.214844.769531-.308594 1.164062zm-43.730468 43.800782c.644531-.019532 1.269531-.097657 1.910156-.140626.710938-.050781 1.425781-.085937 2.132812-.160156.949219-.101562 1.886719-.25 2.824219-.398437.675781-.105469 1.351563-.195313 2.019531-.328125.964844-.191406 1.910157-.433594 2.859376-.675782.617187-.15625 1.234374-.285156 1.84375-.464843 1.03125-.296875 2.039062-.664063 3.046874-1.019531.496094-.175782 1.003907-.324219 1.492188-.515626 1.480469-.574218 2.929688-1.207031 4.34375-1.90625.179688-.089843.351562-.199218.527344-.289062 1.234375-.625 2.445312-1.285156 3.621094-1.996094.492187-.296875.953124-.632812 1.433593-.945312.839844-.542969 1.679688-1.085938 2.488281-1.675782.53125-.386718 1.035157-.8125 1.550782-1.21875.714844-.5625 1.4375-1.125 2.125-1.722656.523437-.457031 1.019531-.941406 1.523437-1.417968.640625-.601563 1.28125-1.203126 1.890625-1.832032.496094-.511718.96875-1.046875 1.445313-1.578125.570312-.640625 1.140625-1.28125 1.683593-1.949219.460938-.5625.898438-1.148437 1.335938-1.730468.507812-.679688 1.007812-1.367188 1.488281-2.070313.410157-.605469.8125-1.226562 1.199219-1.851562.449219-.71875.878906-1.453125 1.296875-2.195313.363281-.648437.710937-1.300781 1.046875-1.964844.390625-.761718.753906-1.539062 1.105469-2.324218.304687-.679688.601562-1.359375.882812-2.050782.324219-.808593.617188-1.628906.902344-2.457031.242187-.703125.484375-1.402343.703125-2.121093.253906-.855469.476562-1.730469.691406-2.605469.175782-.710938.363282-1.421875.511719-2.148438.035156-.175781.089844-.34375.125-.515625 2.039063.230469 4.078125.433594 6.125.746094.203125.035156.402344.0625.605469.09375 2.070312.324219 4.125.75 6.179687 1.15625-5.269531 31.878906-32.441406 55.640625-64.964843 56.464844v-14.191406zm135.488281-154.300782c-1.703125 0-3.414063-.496094-5.105469-1.476562.449219-3.03125.769532-6.105469 1.019532-9.199219.039062-.496094.078124-.992187.113281-1.488281.207031-3.03125.347656-6.074219.347656-9.152344v-24.53125c1.1875-.460938 2.402344-.695312 3.621094-.695312 8.300781 0 15.3125 10.65625 15.3125 23.269531.007812 12.617187-7.003907 23.273437-15.308594 23.273437zm-141.652344-101.257812c-.140625.378906-.289062.742187-.449219 1.078125-.175781.375-.382812.695312-.566406 1.050781.191406-.355469.390625-.675781.566406-1.050781.15625-.339844.308594-.703125.449219-1.078125zm.007813-13.613282c.035156-.023437.058594-.046874.09375-.070312-.035156.023438-.058594.042969-.09375.070312zm1.339844-1.027343c.070312-.054688.136718-.105469.203124-.160157-.074218.0625-.128906.101563-.203124.160157zm.8125-.636719c.074218-.054688.171874-.132812.226562-.175781-.066406.054687-.121094.097656-.226562.175781zm-.203126 25.980469c-.007812.003906-.015624.003906-.023437.007812.007813 0 .015625-.003906.023437-.007812zm.636719-26.320313s-.082031.070313-.117187.09375c.050781-.039062.117187-.09375.117187-.09375zm-135.417969 116.875c-8.300781 0-15.3125-10.65625-15.3125-23.269531s7.011719-23.269531 15.3125-23.269531c1.222657 0 2.429688.234375 3.621094.695312v24.53125c0 3.078125.144532 6.125.347656 9.148438.039063.5.074219.996094.117188 1.496094.246094 3.089843.5625 6.167968 1.019531 9.199218-1.6875.972656-3.394531 1.46875-5.105469 1.46875zm13.390626-.449218c-.554688-3.328126-.972657-6.664063-1.265626-9.988282-.027343-.347656-.050781-.695312-.078124-1.039062-.265626-3.300782-.421876-6.589844-.421876-9.835938v-31.714844c5.019532-5.160156 15.382813-16.21875 22.121094-26.128906 9.164063-13.476562 19.246094-37.710937 19.246094-37.710937s-.960938 15.152343-3.617188 24.957031c-3.035156 11.226562-7.773437 17.300781-7.007812 17.429688.652344.105468 11.332031-4.484376 19.9375-14.011719 10.414062-11.519531 19.011719-28.371094 19.011719-28.371094s.773437 10.054687-.6875 16.515625c-1.742188 7.71875-5.691407 12.085938-4.550781 12.367188.894531.21875 14.378906-1.621094 26.648437-7.699219 11.214844-5.558594 22.332031-13.386719 28.273437-17.804688-.007812.003907-.011718.003907-.015624.007813v15.875c-3.761719 6.328125-8.5 9.152344-7.109376 9.617187.527344.175781 3.265626-.28125 7.109376-1.378906v72.988281c0 2.214844 1.789062 4 4 4 2.214843 0 4-1.785156 4-4v-75.714844c-.003907 0-.007813.003907-.011719.003907 3.859375-1.515625 8-3.445313 11.898437-5.820313 12.296875-7.496094 22.273438-18.96875 22.273438-18.96875s.230468 8.222656-1.972656 14.359375c-2.847657 7.917969-15.472657 25.9375-14.195313 26.226563.917969.207031 23.402344-9.328125 37.371094-19.40625 18.429687-13.289063 35.570312-35.570313 35.570312-35.570313l32.453125 35.257813c.292969 3.488281.476563 7.007812.476563 10.570312v64.117188c0 3.253906-.15625 6.542968-.425781 9.84375-.027344.34375-.046876.691406-.078126 1.035156-.296874 3.355469-.71875 6.71875-1.28125 10.070312-9.914062 58.757813-60.746093 103.769532-122.085937 104.617188v-46.175781c9.160156-.882813 31.542969-5.15625 41.308594-25.886719.941406-1.996094.085937-4.382812-1.914063-5.320312-2.003906-.945313-4.386718-.085938-5.320312 1.914062-7.703125 16.351562-25.980469 20.277344-34.078125 21.222656v-23.882812c9.691406-1.875 17.039062-10.402344 17.039062-20.628906v-9.984376c0-2.214843-1.789062-4-4-4-2.214843 0-4 1.785157-4 4v9.984376c0 7.1875-5.847656 13.035156-13.039062 13.035156-7.1875 0-13.035157-5.847656-13.035157-13.035156v-9.984376c0-2.214843-1.789062-4-4-4-2.210937 0-4 1.785157-4 4v9.984376c0 10.226562 7.347657 18.75 17.035157 20.628906v22.019531c-12.75-1.960937-24.039063 3.835937-33.730469 9.5625-1.902344 1.125-2.53125 3.578125-1.410156 5.480469.746094 1.257812 2.082031 1.964844 3.445312 1.964844.691406 0 1.394532-.183594 2.03125-.558594 9.175782-5.421875 19.015625-10.4375 29.660156-8.269532v47.820313c-59.324218-2.921875-107.941406-47.226563-117.578124-104.585937zm-2.199219 185.6875h-46.941407c5.089844-8.171876 11.023438-15.914063 17.644532-23.164063 11.492187 5.390625 21.472656 13.285156 29.296875 23.164063zm59.339843-73.207032c2.164063-.425781 4.324219-.878906 6.496094-1.214844h.003906c2.136719-.332031 4.269532-.542968 6.402344-.785156.03125.160156.082032.316406.113282.476563.125.609375.277343 1.207031.421874 1.808593.222657.929688.449219 1.855469.71875 2.765626.183594.621093.386719 1.230468.589844 1.835937.289063.867187.589844 1.726563.917969 2.574219.234375.605468.484375 1.203125.738281 1.796875.355469.824219.730469 1.632812 1.121094 2.433593.285156.578126.570312 1.15625.875 1.722657.425781.789062.867188 1.5625 1.328125 2.324219.324219.542968.644531 1.082031.984375 1.605468.503906.777344 1.035156 1.523438 1.574219 2.273438.351562.476562.683593.960937 1.042969 1.429687.609374.792969 1.257812 1.546875 1.910156 2.300781.332031.382813.648437.785157.988281 1.15625.933594 1.019532 1.910156 2 2.917969 2.945313.085937.082031.164062.171875.25.25 1.105468 1.019531 2.253906 1.992187 3.441406 2.921875.363281.28125.75.539062 1.121094.8125.835937.621094 1.679687 1.238281 2.550781 1.808594.484375.316406.984375.605468 1.476563.910156.792968.488281 1.589843.96875 2.414062 1.414062.542969.296876 1.105469.570313 1.660156.84375.808594.40625 1.617188.796876 2.445313 1.160157.582031.257812 1.175781.496093 1.765625.734375.835937.332031 1.675781.644531 2.535156.933594.605469.210937 1.21875.410156 1.839844.597656.871094.261718 1.753906.5 2.644531.722656.625.15625 1.242187.3125 1.875.445312.929687.195313 1.875.355469 2.824219.507813.605468.09375 1.210937.203125 1.824218.28125.214844.027344.425782.074219.640626.097656v14.234375c-30.363282-2.820312-55.433594-26.066406-60.453126-56.125zm68.457032 64.398438c36.296875-.832032 66.613281-27.171875 72.710937-62.664063 28.398438 7.011719 54.117188 21.515625 74.964844 42.25-13.433594 6.804688-24.808594 16.808594-33.277344 29.21875h-114.398437zm124.300781 8.808594c7.785156-9.875 17.753906-17.769532 29.265625-23.164063 6.621094 7.246094 12.554688 14.988281 17.648438 23.164063zm0 0"/><path d="m140.503906 236.671875c0 7.15625-5.800781 12.960937-12.957031 12.960937-7.160156 0-12.960937-5.804687-12.960937-12.960937 0-7.160156 5.800781-12.960937 12.960937-12.960937 7.15625 0 12.957031 5.800781 12.957031 12.960937zm0 0"/><path d="m120.816406 200.628906 21.683594 13.914063c.667969.429687 1.417969.632812 2.15625.632812 1.316406 0 2.605469-.648437 3.371094-1.839843 1.195312-1.859376.652344-4.332032-1.207032-5.527344l-21.683593-13.917969c-1.859375-1.199219-4.332031-.65625-5.527344 1.207031-1.191406 1.863282-.652344 4.332032 1.207031 5.53125zm0 0"/><path d="m249.644531 236.671875c0 7.15625-5.800781 12.960937-12.960937 12.960937-7.15625 0-12.957032-5.804687-12.957032-12.960937 0-7.160156 5.800782-12.960937 12.957032-12.960937 7.160156 0 12.960937 5.800781 12.960937 12.960937zm0 0"/><path d="m227.117188 201.203125 25.382812 4.417969c.238281.042968.464844.0625.691406.0625 1.914063 0 3.597656-1.371094 3.9375-3.3125.378906-2.175782-1.078125-4.253906-3.25-4.628906l-25.386718-4.417969c-2.210938-.378907-4.25 1.082031-4.628907 3.25-.378906 2.171875 1.078125 4.25 3.253907 4.628906zm0 0"/></g></svg>