<svg height="388pt" viewBox="0 0 388 388" width="388pt" xmlns="http://www.w3.org/2000/svg"><path d="m387.996094 74.601562c0-32.3125-26.289063-58.601562-58.601563-58.601562h-254.796875c-32.3125 0-58.597656 26.289062-58.597656 58.601562v254.796876c0 32.3125 26.285156 58.601562 58.597656 58.601562h254.796875c32.3125 0 58.601563-26.289062 58.601563-58.601562v-109.40625c0-2.210938 0-145.390626 0-145.390626zm0 0" fill="#e6e7e8"/><path d="m313.394531 368h-254.796875c-30.03125 0-54.601562-24.566406-54.601562-54.601562v-254.796876c0-30.03125 24.566406-54.601562 54.601562-54.601562h254.796875c30.03125 0 54.601563 24.566406 54.601563 54.601562v254.796876c0 30.03125-24.570313 54.601562-54.601563 54.601562zm0 0" fill="#fff"/><path d="m325.394531 16h-254.796875c-30.035156 0-54.601562 24.566406-54.601562 54.601562v254.796876c0 11.96875 3.949218 23.035156 10.542968 32.058593 9.023438 6.59375 20.089844 10.542969 32.058594 10.542969h254.796875c30.035157 0 54.601563-24.566406 54.601563-54.601562v-254.796876c0-11.96875-3.949219-23.035156-10.542969-32.058593-9.023437-6.59375-20.089844-10.542969-32.058594-10.542969zm0 0" fill="#fa759e"/><path d="m328.996094 186c0 78.976562-64.023438 143-143 143-78.976563 0-143-64.023438-143-143s64.023437-143 143-143c78.976562 0 143 64.023438 143 143zm0 0" fill="#d4fbff"/><path d="m300.996094 186c0 63.511719-51.488282 115-115 115-63.511719 0-115-51.488281-115-115s51.488281-115 115-115c63.511718 0 115 51.488281 115 115zm0 0" fill="#6dc9f7"/><path d="m158.695312 229.953125c2.703126 12.59375 13.894532 22.046875 27.300782 22.046875s24.597656-9.453125 27.300781-22.050781h-54.601563zm0 0" fill="#ffd7e5"/><path d="m232.40625 202.273438c0 3.882812-.273438 7.695312-.847656 11.382812h-91.125c-.578125-3.6875-.847656-7.5-.847656-11.382812 0-33.296876 20.773437-68.507813 46.398437-68.507813s46.421875 35.210937 46.421875 68.507813zm0 0" fill="#0089ef"/><path d="m244.320312 213.65625h-116.648437c-3.105469 0-5.644531 2.539062-5.644531 5.644531v5.003907c0 3.101562 2.539062 5.644531 5.644531 5.644531h116.648437c3.105469 0 5.644532-2.542969 5.644532-5.644531v-5.003907c0-3.105469-2.539063-5.644531-5.644532-5.644531zm0 0" fill="#fa759e"/><g fill="#3a2c60"><path d="m313.394531 0h-254.796875c-32.3125 0-58.597656 26.289062-58.597656 58.601562v254.796876c0 32.3125 26.285156 58.601562 58.597656 58.601562h254.796875c32.3125 0 58.601563-26.289062 58.601563-58.601562v-109.40625c0-2.207032-1.789063-4-4-4-2.210938 0-4 1.792968-4 4v109.40625c0 27.902343-22.699219 50.601562-50.601563 50.601562h-254.796875c-27.902344 0-50.597656-22.699219-50.597656-50.601562v-254.796876c0-27.902343 22.699219-50.601562 50.597656-50.601562h254.796875c27.90625 0 50.601563 22.699219 50.601563 50.601562v87.71875c0 2.207032 1.789062 4 4 4 2.210937 0 4-1.792968 4-4v-87.71875c0-32.3125-26.289063-58.601562-58.601563-58.601562zm0 0"/><path d="m367.996094 161.46875c-2.210938 0-4 1.792969-4 4v20.382812c0 2.207032 1.789062 4 4 4 2.210937 0 4-1.792968 4-4v-20.382812c0-2.210938-1.789063-4-4-4zm0 0"/><path d="m185.996094 39c-81.054688 0-147 65.945312-147 147s65.945312 147 147 147c81.054687 0 147-65.945312 147-147s-65.945313-147-147-147zm0 286c-76.644532 0-139-62.355469-139-139s62.355468-139 139-139c76.644531 0 139 62.355469 139 139s-62.355469 139-139 139zm0 0"/><path d="m185.996094 67c-65.617188 0-119 53.382812-119 119s53.382812 119 119 119c65.617187 0 119-53.382812 119-119s-53.382813-119-119-119zm0 230c-61.207032 0-111-49.796875-111-111s49.792968-111 111-111c61.207031 0 111 49.796875 111 111s-49.792969 111-111 111zm0 0"/><path d="m244.320312 209.65625h-8.300781c.226563-2.417969.386719-4.871094.386719-7.382812 0-32.617188-19.597656-68.832032-46.414062-72.179688v-27.960938c0-2.207031-1.789063-4-4-4-2.210938 0-4 1.792969-4 4v27.960938c-26.8125 3.332031-46.414063 39.554688-46.414063 72.179688 0 2.519531.160156 4.96875.386719 7.382812h-8.300782c-5.316406 0-9.644531 4.328125-9.644531 9.644531v5.003907c0 5.320312 4.328125 9.644531 9.644531 9.644531h28.015626c4.175781 12.773437 16.164062 22.050781 30.316406 22.050781 14.15625 0 26.140625-9.277344 30.3125-22.050781h28.011718c5.316407 0 9.644532-4.328125 9.644532-9.644531v-5.003907c0-5.316406-4.328125-9.644531-9.644532-9.644531zm-100.734374-7.382812c0-33.160157 20.601562-64.507813 42.398437-64.507813 21.808594 0 42.421875 31.347656 42.421875 64.507813 0 2.515624-.121094 4.988281-.367188 7.382812h-84.085937c-.246094-2.390625-.367187-4.859375-.367187-7.382812zm42.410156 45.726562c-9.667969 0-17.972656-5.78125-21.738282-14.050781h43.480469c-3.765625 8.269531-12.074219 14.050781-21.742187 14.050781zm59.96875-23.695312c0 .890624-.753906 1.644531-1.644532 1.644531h-116.648437c-.890625 0-1.644531-.753907-1.644531-1.644531v-5.003907c0-.894531.753906-1.644531 1.644531-1.644531h116.648437c.890626 0 1.644532.75 1.644532 1.644531zm0 0"/></g></svg>