<svg height="463pt" viewBox="-98 0 463 463.404" width="463pt" xmlns="http://www.w3.org/2000/svg"><path d="m266.207031 273.757812c0-12.917968-9.867187-23.566406-22.460937-24.8125v-41.632812c0-.824219-.125-1.613281-.242188-2.402344 6.191406-3.050781 10.5-9.367187 10.5-16.722656 0-10.3125-8.394531-18.703125-18.707031-18.703125h-1.390625v-19.636719c5.753906-5.542968 9.359375-13.3125 9.359375-21.910156v-81.484375c0-16.792969-13.664063-30.453125-30.453125-30.453125 0 0-110.1875 0-112.394531 0h-29.378907c-16.792968 0-30.453124 13.664062-30.453124 30.453125v81.484375c0 10.402344 5.253906 19.59375 13.234374 25.089844v15.992187h-5.390624c-10.3125 0-18.703126 8.390625-18.703126 18.703125 0 7.890625 4.921876 14.617188 11.851563 17.363282-.0625.585937-.179687 1.15625-.179687 1.761718v41.96875h-.257813c-13.75 0-24.9375 11.1875-24.9375 24.941406 0 13.347657 10.546875 24.25 23.742187 24.878907-.011718.285156-.082031.550781-.082031.839843v145.96875c0 9.902344 8.054688 17.953126 17.953125 17.953126 9.902344 0 17.957032-8.054688 17.957032-17.953126v-96.175781c4.257812 6.546875 9.597656 12.0625 15.75 16.160157l3.042968 16.558593c2.066406 11.25 10.964844 19.414063 21.15625 19.414063h50.960938c10.191406 0 19.085937-8.164063 21.15625-19.414063l3.042968-16.558593c6.148438-4.09375 11.492188-9.613282 15.746094-16.160157v96.179688c0 9.902343 8.058594 17.953125 17.957032 17.953125 9.898437 0 17.957031-8.054688 17.957031-17.953125v-145.972657c0-.289062-.074219-.554687-.085938-.839843 13.199219-.628907 23.75-11.53125 23.75-24.878907zm-66.976562-37.117187c-21.933594-4.671875-52.808594-4.886719-58.023438-4.886719-4.804687 0-31.398437.179688-52.703125 3.863282v-77.234376h110.726563zm0 0" fill="#e6e7e8"/><path d="m55.042969 138.386719c-4.820313 0-9.324219-1.308594-13.21875-3.5625v99.222656h26.683593v-95.660156zm0 0" fill="#fa759e"/><path d="m198.902344 191.3125c0-1.644531.335937-3.203125.914062-4.636719.699219.105469 1.394532.214844 2.117188.214844h11.976562v-54.789063c-4.613281 3.910157-10.570312 6.28125-17.097656 6.28125h-9.582031v101.953126h11.671875zm0 0" fill="#fa759e"/><path d="m73.207031 296.769531c0 18.214844 12.558594 33.035157 28 33.035157h48c15.4375 0 28-14.820313 28-33.035157v-16.378906c0-.570313-.050781-1.125-.074219-1.691406h-103.855468c-.023438.5625-.070313 1.121093-.070313 1.691406zm0 0" fill="#6dc9f7"/><path d="m149.207031 353.398438h-48c-7.949219 0-15.445312-2.34375-22.066406-6.421876l3.363281 18.289063c1.726563 9.40625 8.90625 16.132813 17.21875 16.132813h50.960938c8.308594 0 15.492187-6.726563 17.21875-16.132813l3.359375-18.289063c-6.613281 4.078126-14.109375 6.421876-22.054688 6.421876zm0 0" fill="#6dc9f7"/><path d="m177.132812 278.695312c.023438.566407.074219 1.125.074219 1.695313v16.378906c0 18.214844-12.5625 33.035157-28 33.035157h-48c-15.441406 0-28-14.820313-28-33.035157v-16.378906c0-.570313.046875-1.125.070313-1.691406h-20c-.011719.566406-.070313 1.117187-.070313 1.6875v16.382812c0 31.144531 21.597657 56.628907 48 56.628907h48c26.398438 0 48-25.484376 48-56.628907v-16.382812c0-.570313-.0625-1.121094-.074219-1.691407zm0 0" fill="#0089ef"/><path d="m198.902344 230.328125c-8.765625-6.089844-38.390625-10.570313-73.695313-10.570313-32.226562 0-59.734375 3.734376-70.960937 9.015626v8.042968h144.65625zm0 0" fill="#6dc9f7"/><g fill="#fa759e"><path d="m49.796875 186.425781h-17.367187c-.722657 0-1.417969-.113281-2.117188-.21875-.578125 1.4375-.914062 2.996094-.914062 4.636719v78.289062c0 6.859376 5.558593 12.417969 12.417968 12.417969 6.863282 0 12.421875-5.558593 12.421875-12.417969v-78.285156c0-1.730468-.359375-3.378906-1-4.875-1.105469.265625-2.25.453125-3.441406.453125zm0 0"/><path d="m52.753906 274.921875c-2.082031 3.929687-6.171875 6.636719-10.933594 6.636719-4.757812 0-8.84375-2.707032-10.929687-6.636719-1.863281 2.371094-3.027344 5.320313-3.027344 8.554687v145.96875c0 7.675782 6.277344 13.953126 13.953125 13.953126 7.675782 0 13.957032-6.277344 13.957032-13.953126v-145.96875c.007812-3.234374-1.15625-6.183593-3.019532-8.554687zm0 0"/><path d="m195.535156 278.695312c-.554687 1.5-.90625 3.097657-.90625 4.78125v145.96875c0 7.675782 6.28125 13.953126 13.957032 13.953126 7.675781 0 13.957031-6.277344 13.957031-13.953126v-145.96875c0-1.683593-.347657-3.285156-.90625-4.78125zm0 0"/><path d="m225.265625 236.816406h-200.121094c-11.515625 0-20.9375 9.421875-20.9375 20.941406 0 11.515626 9.421875 20.9375 20.9375 20.9375h200.121094c11.515625 0 20.941406-9.421874 20.941406-20.9375 0-11.519531-9.425781-20.941406-20.941406-20.941406zm0 0"/></g><path d="m196.8125 3.996094h-141.769531c-14.609375 0-26.453125 11.84375-26.453125 26.453125v81.484375c0 14.605468 11.84375 26.449218 26.453125 26.449218h141.773437c14.609375 0 26.453125-11.84375 26.453125-26.449218v-81.480469c0-14.613281-11.84375-26.457031-26.457031-26.457031zm0 0" fill="#fff"/><path d="m67.042969 15.996094c-14.609375 0-26.453125 11.84375-26.453125 26.453125v81.480469c0 4.207031 1.007812 8.167968 2.757812 11.699218 3.53125 1.746094 7.492188 2.753906 11.699219 2.753906h141.773437c14.609376 0 26.453126-11.84375 26.453126-26.449218v-81.480469c0-4.210937-1.007813-8.167969-2.753907-11.699219-3.535156-1.75-7.492187-2.757812-11.703125-2.757812zm0 0" fill="#ffd7e5"/><path d="m49.796875 157.019531h-17.367187c-8.085938 0-14.703126 6.617188-14.703126 14.703125 0 8.089844 6.617188 14.707032 14.703126 14.707032h17.367187c8.089844 0 14.707031-6.617188 14.707031-14.707032 0-8.085937-6.617187-14.703125-14.707031-14.703125zm0 0" fill="#ffd7e5"/><path d="m219.300781 186.890625h-17.367187c-.722656 0-1.417969-.109375-2.117188-.214844-.578125 1.4375-.914062 2.996094-.914062 4.636719v78.292969c0 6.859375 5.558594 12.417969 12.417968 12.417969 6.863282 0 12.421876-5.558594 12.421876-12.417969v-78.292969c0-1.734375-.359376-3.378906-1-4.875-1.105469.269531-2.25.453125-3.441407.453125zm0 0" fill="#fa759e"/><path d="m219.300781 157.484375h-17.367187c-8.085938 0-14.703125 6.617187-14.703125 14.703125 0 8.089844 6.617187 14.703125 14.703125 14.703125h17.367187c8.089844 0 14.707031-6.613281 14.707031-14.703125 0-8.085938-6.621093-14.703125-14.707031-14.703125zm0 0" fill="#ffd7e5"/><path d="m250.207031 257.757812c0-12.917968-9.867187-23.570312-22.460937-24.816406v-41.628906c0-.824219-.125-1.613281-.242188-2.402344 6.191406-3.050781 10.5-9.367187 10.5-16.722656 0-10.3125-8.394531-18.703125-18.707031-18.703125h-1.390625v-19.636719c5.753906-5.542968 9.359375-13.3125 9.359375-21.910156v-81.484375c0-16.792969-13.664063-30.453125-30.453125-30.453125h-43.148438c-2.207031 0-4 1.792969-4 4s1.792969 4 4 4h43.152344c12.382813 0 22.453125 10.070312 22.453125 22.453125v81.484375c0 12.378906-10.070312 22.449219-22.453125 22.449219h-141.777344c-12.382812 0-22.453124-10.070313-22.453124-22.449219v-81.484375c0-12.382813 10.070312-22.453125 22.453124-22.453125h29.378907c2.207031 0 4-1.792969 4-4s-1.792969-4-4-4h-29.378907c-16.792968 0-30.453124 13.664062-30.453124 30.453125v81.484375c0 10.402344 5.253906 19.59375 13.234374 25.089844v15.992187h-5.390624c-10.3125 0-18.703126 8.390625-18.703126 18.703125 0 7.890625 4.921876 14.617188 11.847657 17.363282-.070313.582031-.175781 1.15625-.175781 1.761718v41.96875h-.257813c-13.75 0-24.9375 11.1875-24.9375 24.941406 0 13.351563 10.550781 24.25 23.746094 24.878907-.011719.285156-.085938.550781-.085938.839843v145.96875c0 9.902344 8.054688 17.953126 17.953125 17.953126 9.902344 0 17.957032-8.054688 17.957032-17.953126v-96.136718c4.253906 6.539062 9.613281 12.03125 15.75 16.125l3.042968 16.554687c2.066406 11.246094 10.964844 19.410157 21.15625 19.410157h50.960938c10.1875 0 19.082031-8.164063 21.15625-19.410157l3.042968-16.554687c6.136719-4.09375 11.496094-9.585938 15.746094-16.125v96.132812c0 9.902344 8.058594 17.953125 17.957032 17.953125 9.898437 0 17.957031-8.054687 17.957031-17.953125v-145.964844c0-.289062-.054688-.5625-.070313-.84375 13.191406-.636718 23.734375-11.53125 23.734375-24.875zm-173 24.9375h96v14.074219c0 16.011719-10.765625 29.035157-24 29.035157h-48c-13.238281 0-24-13.023438-24-29.035157zm-19.855469-8c-.035156-.050781-.0625-.101562-.089843-.15625.597656-1.699218.988281-3.5.988281-5.398437v-28.324219h136.660156v28.789063c0 1.785156.359375 3.480469.890625 5.089843zm-23.949218-83.847656c0-.148437.050781-.277344.058594-.417968h16.335937c.128906 0 .25-.039063.378906-.042969.007813.15625.066407.300781.066407.460937v78.292969c0 4.644531-3.777344 8.417969-8.421876 8.417969-4.640624 0-8.417968-3.773438-8.417968-8.417969zm24.84375 41.96875v-1.425781c10.03125-3.613281 33.167968-7.632813 66.960937-7.632813 37.242188 0 61.621094 4.882813 69.695313 8.726563v.332031zm136.65625-41.503906v32.648438c-1.15625-.449219-2.382813-.867188-3.671875-1.269532v-35.207031c1.1875.835937 2.476562 1.523437 3.847656 2.0625-.070313.585937-.175781 1.160156-.175781 1.765625zm-11.671875 29.324219c-21.933594-4.671875-52.8125-4.878907-58.023438-4.878907-4.808593 0-31.402343.183594-52.703125 3.871094v-77.242187h110.726563zm-118.726563.640625c-2.199218.527344-4.324218 1.082031-6.257812 1.71875v-32.148438c0-.820312-.125-1.609375-.242188-2.398437 2.554688-1.261719 4.761719-3.078125 6.5-5.304688zm155.242188-29.964844v78.289062c0 4.640626-3.777344 8.417969-8.421875 8.417969-4.640625 0-8.417969-3.777343-8.417969-8.417969v-78.289062c0-.148438.050781-.277344.058594-.421875h16.335937c.132813 0 .253907-.035156.382813-.039063.007812.160157.0625.300782.0625.460938zm10.257812-19.125c0 5.90625-4.800781 10.703125-10.707031 10.703125h-17.363281c-5.902344 0-10.703125-4.796875-10.703125-10.703125 0-5.902344 4.800781-10.703125 10.703125-10.703125h17.363281c5.90625 0 10.707031 4.800781 10.707031 10.703125zm-20.09375-32.800781v14.101562h-7.976562c-3.984375 0-7.664063 1.277344-10.703125 3.40625v-14.503906h5.582031c4.695312-.003906 9.121094-1.101563 13.097656-3.003906zm-164.089844 1.566406c2.910157.925781 6.003907 1.433594 9.21875 1.433594h9.464844v17.914062c-3.425781-4.402343-8.710937-7.285156-14.707031-7.285156h-3.976563zm-24.089843 30.765625c0-5.902344 4.800781-10.703125 10.703125-10.703125h17.367187c5.90625 0 10.707031 4.800781 10.707031 10.703125 0 5.90625-4.800781 10.707031-10.707031 10.707031h-17.367187c-5.902344 0-10.703125-4.800781-10.703125-10.707031zm3.414062 102.976562c-9.339843 0-16.9375-7.597656-16.9375-16.9375 0-9.34375 7.597657-16.941406 16.9375-16.941406h.257813v28.324219c0 1.898437.386718 3.699219.988281 5.398437-.03125.054688-.0625.105469-.09375.15625zm26.636719 154.75c0 5.492188-4.46875 9.953126-9.957031 9.953126-5.484375 0-9.953125-4.464844-9.953125-9.953126v-145.96875c0-.273437.089844-.515624.113281-.78125h.601563c2.636718 1.800782 5.816406 2.863282 9.238281 2.863282 3.425781 0 6.605469-1.058594 9.242187-2.863282h.597656c.027344.265626.117188.507813.117188.78125zm112.191406-64.902343c-1.371094 7.449219-6.957031 12.855469-13.285156 12.855469h-50.960938c-6.328124 0-11.917968-5.40625-13.289062-12.855469l-1.902344-10.367188c5.234375 2.078125 10.839844 3.222657 16.671875 3.222657h48c5.832031 0 11.433594-1.144532 16.671875-3.222657zm-14.765625-15.144531h-48c-19.105469 0-35.359375-14.667969-41.425781-35.0625v-30.859376c0-.269531-.070312-.515624-.082031-.78125h9.507812v14.074219c0 20.417969 14.355469 37.035157 32 37.035157h48c17.644531 0 32-16.617188 32-37.035157v-14.074219h9.480469c-.011719.265626-.058594.515626-.058594.78125v30.859376c-6.0625 20.394531-22.320312 35.0625-41.421875 35.0625zm59.382813 90c-5.492188 0-9.957032-4.464844-9.957032-9.953126v-145.96875c0-.273437.085938-.515624.109376-.78125h2.78125c2.742187 2.0625 6.113281 3.328126 9.800781 3.328126 2.605469 0 5.035156-.664063 7.222656-1.746094v145.167968c0 5.488282-4.46875 9.953126-9.957031 9.953126zm18.320312-164.871094c.496094-1.5625.839844-3.199219.839844-4.925782v-28.539062c8.160156 1.214844 14.460938 8.203125 14.460938 16.695312-.003907 8.777344-6.742188 15.929688-15.300782 16.769532zm0 0" fill="#3a2c60"/><path d="m105.875 8h26.890625c2.207031 0 4-1.792969 4-4s-1.792969-4-4-4h-26.890625c-2.210938 0-4 1.792969-4 4s1.789062 4 4 4zm0 0" fill="#3a2c60"/></svg>