<svg height="470pt" viewBox="-120 0 470 470.516" width="470pt" xmlns="http://www.w3.org/2000/svg"><path d="m222.878906 24.015625c-5.015625-5.027344-11.667968-7.800781-18.726562-7.8125l-161.339844-.203125c-.011719 0-.023438 0-.035156 0-14.601563 0-26.5 11.875-26.519532 26.496094v.945312c-.015624 13.265625 9.773438 24.269532 22.503907 26.21875v.085938c3.171875 49.148437 28.371093 131.84375 46.769531 192.226562 9.855469 32.351563 18.371094 60.296875 18.363281 67.070313l-.117187 91.363281c-7.15625 3.636719-12.074219 11.050781-12.074219 19.609375v21.207031c0 5.125 4.167969 9.292969 9.289063 9.292969h42.417968c5.125 0 9.292969-4.167969 9.292969-9.292969v-21.207031c0-8.65625-5.035156-16.136719-12.320313-19.726563l.058594-93.929687c0-4.320313 8.011719-30.679687 16.496094-58.585937 18.136719-59.6875 45.550781-149.894532 49.265625-196.597657.027344-.34375.03125-.71875.050781-1.078125 6.242188-.5 12.0625-3.160156 16.570313-7.660156 5.03125-5.011719 7.804687-11.664062 7.8125-18.730469v-.945312c.011719-7.058594-2.742188-13.71875-7.757813-18.746094zm-46.308594 46.148437c-1.582031 18.839844-4.910156 38.59375-9.234374 58.207032l-90.878907-.113282c-3.75-19.113281-6.617187-38.757812-7.992187-58.230468zm-16.433593 87.640626c-10.476563 39.027343-23.503907 75.054687-32.730469 98.714843-1.121094 2.867188-3.535156 4.582031-6.472656 4.582031h-.003906c-2.953126 0-5.386719-1.730468-6.511719-4.617187-8.886719-22.839844-21.515625-58.5-31.4375-98.78125zm0 0" fill="#e6e7e8"/><path d="m61.871094 137.699219 87.445312.113281c1.835938-7.03125 3.578125-14.15625 5.203125-21.316406-.398437-.046875-.785156-.125-1.199219-.125l-94.894531-.117188c-.429687 0-.835937.074219-1.246093.121094 1.453124 7.214844 3.027343 14.324219 4.691406 21.324219zm0 0" fill="#fa759e"/><path d="m164.726562 50.171875c.058594.652344.101563 1.3125.050782 1.988281-5.230469 68.292969-33.980469 149.65625-49.648438 189.820313-3.714844 9.523437-16.734375 9.484375-20.4375-.039063-15.992187-41.09375-41.6875-116.898437-46.40625-189.941406-.042968-.671875.007813-1.328125.074219-1.976562l-21.609375-.027344c-.011719 0-.027344-.003906-.039062-.003906-.042969 1.160156-.027344 2.328124.046874 3.496093 4.960938 76.824219 65.164063 239.417969 65.140626 259.554688l-.121094 94.050781c1.863281-.652344 3.835937-1.082031 5.925781-1.082031h17c1.996094 0 3.882813.398437 5.675781 1 .015625-22.8125.046875-65.300781.058594-96.65625.003906-14.296875 60.171875-184.996094 65.777344-255.5.125-1.550781.136718-3.109375.085937-4.660157zm0 0" fill="#6dc9f7"/><path d="m114.703125 406.011719h-17c-9.941406 0-18 8.058593-18 18v21.207031c0 2.925781 2.367187 5.292969 5.289063 5.292969h42.417968c2.925782 0 5.292969-2.367188 5.292969-5.292969v-21.207031c0-9.941407-8.0625-18-18-18zm0 0" fill="#fa759e"/><path d="m188.148438 4.203125-161.339844-.203125c-12.386719-.015625-22.535156 10.105469-22.550782 22.492188v.953124c-.015624 12.386719 10.105469 22.535157 22.492188 22.550782l161.339844.207031c12.386718.015625 22.535156-10.101563 22.550781-22.492187v-.949219c.015625-12.394531-10.101563-22.542969-22.492187-22.558594zm0 0" fill="#fff"/><path d="m38.808594 16c-12.386719-.015625-22.535156 10.105469-22.550782 22.492188v.953124c-.003906 3.105469.632813 6.070313 1.78125 8.769532 2.683594 1.140625 5.628907 1.777344 8.714844 1.78125l161.339844.207031c12.386719.015625 22.535156-10.101563 22.550781-22.492187v-.949219c.003907-3.109375-.628906-6.074219-1.777343-8.773438-2.683594-1.140625-5.628907-1.777343-8.71875-1.78125zm0 0" fill="#fa759e"/><g fill="#3a2c60"><path d="m119.453125 46.113281-26.324219-.023437s0 0-.003906 0c-2.207031 0-4 1.785156-4 3.996094 0 2.207031 1.789062 4 3.996094 4.003906l26.324218.023437h.003907c2.207031 0 4-1.789062 4-3.996093 0-2.210938-1.789063-4-3.996094-4.003907zm0 0"/><path d="m206.878906 8.015625c-5.015625-5.027344-11.667968-7.800781-18.726562-7.8125l-161.339844-.203125c-.011719 0-.023438 0-.035156 0-14.605469 0-26.5 11.875-26.519532 26.484375v.957031c-.015624 13.265625 9.773438 24.269532 22.503907 26.21875v.085938c3.171875 49.152344 28.371093 131.847656 46.769531 192.226562 9.859375 32.351563 18.371094 60.296875 18.363281 67.070313l-.117187 91.363281c-7.15625 3.636719-12.074219 11.050781-12.074219 19.609375v21.207031c0 5.125 4.167969 9.292969 9.289063 9.292969h42.417968c5.125 0 9.292969-4.167969 9.292969-9.292969v-21.207031c0-8.65625-5.035156-16.136719-12.320313-19.726563l.058594-93.929687c0-4.320313 8.011719-30.679687 16.496094-58.585937 18.136719-59.6875 45.550781-149.894532 49.265625-196.597657.027344-.34375.03125-.71875.050781-1.078125 6.242188-.5 12.0625-3.160156 16.570313-7.660156 5.03125-5.011719 7.804687-11.664062 7.8125-18.730469v-.945312c.011719-7.058594-2.742188-13.71875-7.757813-18.746094zm-78.179687 415.996094v21.207031c0 .714844-.582031 1.292969-1.292969 1.292969h-42.414062c-.710938 0-1.289063-.578125-1.289063-1.292969v-21.207031c0-7.71875 6.277344-14 14-14h17c7.714844 0 13.996094 6.285156 13.996094 14zm4.578125-174.566407c-11.371094 37.414063-16.839844 55.640626-16.839844 60.910157l-.054688 91.734375c-.566406-.050782-1.125-.078125-1.679687-.078125h-17c-.640625 0-1.277344.03125-1.921875.09375l.117188-89.058594c.007812-7.601563-6.753907-30.171875-18.707032-69.410156-18.1875-59.6875-43.0625-141.320313-46.390625-189.640625l4.753907.003906 8.863281.011719c1.460937 21.105469 4.679687 42.410156 8.84375 63.015625.007812.046875-.011719.09375 0 .136718.171875.847657.363281 1.710938.539062 2.5625.402344 1.929688.800781 3.84375 1.21875 5.761719.507813 2.355469 1.039063 4.703125 1.574219 7.0625.367188 1.613281.726562 3.234375 1.109375 4.832031.09375.414063.183594.828126.28125 1.242188.007813.035156.039063.066406.046875.101562 10.1875 42.722657 23.601562 80.675782 32.933594 104.65625 2.296875 5.898438 7.777344 9.710938 13.964844 9.714844h.007812c6.261719 0 11.597656-3.707031 13.925781-9.667968 9.691407-24.84375 23.515625-63.226563 34.296875-104.53125.011719-.027344.03125-.050782.039063-.078126.136719-.527343.261719-1.054687.398437-1.585937.695313-2.691406 1.375-5.382813 2.042969-8.09375.257813-1.039063.5-2.070313.75-3.109375.6875-2.851562 1.367187-5.695312 2.015625-8.5625.007812-.03125.015625-.0625.019531-.09375 0-.003906 0-.007812 0-.011719 4.808594-21.230469 8.539063-42.746093 10.210938-63.191406l11.953125.011719 1.667968.003906c-.007812.117188-.015624.234375-.027343.347656-3.644531 45.847656-30.910157 135.554688-48.953125 194.910156zm12.96875-115.742187c-.007813.035156-.019532.070313-.027344.105469l-81.179688-.105469c-1.046874-4.476563-2.042968-8.976563-2.980468-13.441406l87.449218.144531c-1.03125 4.402344-2.121093 8.851562-3.261718 13.296875zm-2.109375 8.105469c-10.476563 39.027344-23.503907 75.054687-32.730469 98.714844-1.121094 2.867187-3.535156 4.582031-6.472656 4.582031 0 0 0 0-.003906 0-2.953126 0-5.386719-1.730469-6.507813-4.617188-8.886719-22.839843-21.515625-58.5-31.4375-98.78125zm62.503906-114.105469c-.011719 10.203125-8.320313 18.5-18.519531 18.5-.007813 0-.015625 0-.023438 0l-49.691406-.066406h-.003906c-2.207032 0-4 1.789062-4 3.996093 0 2.207032 1.785156 4.003907 3.996094 4.003907l22.175781.027343c-1.582031 18.839844-4.90625 38.59375-9.234375 58.207032l-90.882813-.113282c-3.75-19.113281-6.617187-38.757812-7.992187-58.230468l22.929687.027344h.003907c2.207031 0 4-1.785157 4-3.996094 0-2.207032-1.785157-4.003906-3.996094-4.003906l-48.652344-.0625c-10.210938-.011719-18.511719-8.332032-18.5-18.542969v-.957031c.011719-10.203126 8.320312-18.5 18.519531-18.5h.023438l161.339843.207031c4.925782.003906 9.566407 1.945312 13.074219 5.460937 3.503907 3.515625 5.429688 8.164063 5.421875 13.085938v.957031zm0 0"/></g></svg>