<svg height="494pt" viewBox="0 -2 494.332 494" width="494pt" xmlns="http://www.w3.org/2000/svg"><path d="m433.785156 103.382812c-43.152344-53.160156-108.972656-87.21875-182.621094-87.21875-129.671874 0-235.164062 105.492188-235.164062 235.164063 0 106.972656 71.820312 197.425781 169.757812 225.84375 24.207032 8.601563 50.25 13.324219 77.410157 13.324219 127.667969 0 231.164062-103.492188 231.164062-231.160156-.003906-60.105469-22.953125-114.84375-60.546875-155.953126zm0 0" fill="#e6e7e8"/><path d="m466.328125 235.328125c0 127.671875-103.496094 231.164063-231.164063 231.164063-127.667968 0-231.164062-103.492188-231.164062-231.164063 0-127.667969 103.496094-231.164063 231.164062-231.164063 127.667969 0 231.164063 103.496094 231.164063 231.164063zm0 0" fill="#fff"/><path d="m466.175781 241.328125c0-124.351563-103.425781-225.164063-231.011719-225.164063-127.585937 0-231.011718 100.8125-231.011718 225.164063 0 124.355469 103.425781 225.164063 231.011718 225.164063 127.585938 0 231.011719-100.808594 231.011719-225.164063zm0 0" fill="#0089ef"/><path d="m435.164062 235.328125c0 110.457031-89.542968 200-200 200-110.457031 0-200-89.542969-200-200 0-110.453125 89.542969-200 200-200 110.457032 0 200 89.546875 200 200zm0 0" fill="#d4fbff"/><g fill="#3a2c60"><path d="m464.03125 268.292969c-2.195312-.359375-4.234375 1.136719-4.582031 3.316406-1.402344 8.71875-3.328125 17.433594-5.734375 25.894531-.601563 2.121094.628906 4.335938 2.757812 4.9375.363282.105469.730469.15625 1.089844.15625 1.746094 0 3.34375-1.148437 3.84375-2.90625 2.488281-8.761718 4.484375-17.78125 5.933594-26.808594.355468-2.1875-1.128906-4.242187-3.308594-4.589843zm0 0"/><path d="m235.164062.164062c-129.671874 0-235.164062 105.492188-235.164062 235.164063 0 129.675781 105.492188 235.167969 235.164062 235.167969 96.480469 0 182.128907-57.8125 218.195313-147.285156.828125-2.050782-.164063-4.382813-2.210937-5.203126-2.042969-.828124-4.378907.164063-5.203126 2.210938-34.847656 86.429688-117.582031 142.277344-210.78125 142.277344-125.261718 0-227.167968-101.90625-227.167968-227.167969 0-125.257813 101.90625-227.164063 227.167968-227.164063 125.261719 0 227.167969 101.910157 227.167969 227.171876 0 3.683593-.089843 7.398437-.265625 11.039062-.101562 2.207031 1.597656 4.082031 3.804688 4.1875 2.175781.046875 4.085937-1.597656 4.1875-3.804688.179687-3.769531.273437-7.613281.273437-11.421874 0-129.679688-105.496093-235.171876-235.167969-235.171876zm0 0"/><path d="m163.117188 166.140625c-4.835938 26.664063 12.917968 52.292969 39.578124 57.128906 2.957032.535157 5.898438.796875 8.796876.796875 23.292968 0 44.03125-16.667968 48.332031-40.375.558593-3.097656.820312-6.203125.792969-9.285156l2.179687.394531c3.082031.5625 5.628906 2.628907 6.808594 5.535157l10.835937 26.738281c1.707032 4.207031 5.769532 6.769531 10.058594 6.769531 1.351562 0 2.726562-.257812 4.054688-.792969 2.683593-1.089843 4.78125-3.15625 5.910156-5.820312 1.128906-2.664063 1.148437-5.613281.0625-8.292969l-13.074219-32.265625c-2.582031-6.367187-8.152344-10.898437-14.910156-12.121094l-17.984375-3.265625c-.820313-1.484375-1.710938-2.9375-2.691406-4.351562-1.042969-1.507813-2.171876-2.941406-3.359376-4.308594l-.996093-37.449219c-.125-4.640625-2.25-8.9375-5.78125-11.851562 4.199219-3.367188 6.648437-8.554688 6.503906-13.972657-.121094-4.625-2.039063-8.929687-5.398437-12.113281-3.355469-3.183593-7.738282-4.863281-12.378907-4.746093-4.625.125-8.929687 2.042968-12.113281 5.398437-3.183594 3.359375-4.867188 7.753906-4.742188 12.378906.140626 5.371094 2.824219 10.371094 7.121094 13.515625l-19.894531 10.839844c-5.175781 2.820312-7.09375 9.324219-4.273437 14.5l4.25 7.800781c-6.132813 1.363281-12 3.914063-17.320313 7.597657-10.792969 7.46875-18.027344 18.703124-20.367187 31.617187zm54.398437-53.257813-.425781 13.203126-5.621094-10.785157zm-8.925781 28.332032.984375 1.8125c1.402343 2.566406 4.058593 4.027344 6.796875 4.027344 1.25 0 2.511718-.304688 3.683594-.941407 1.285156-.699219 2.300781-1.730469 3.003906-2.972656 15.210937 5.53125 24.675781 21.351563 21.695312 37.808594-3.339844 18.378906-20.9375 30.578125-39.316406 27.242187-18.382812-3.335937-30.578125-20.9375-27.242188-39.316406 2.78125-15.363281 15.542969-26.398438 30.394532-27.660156zm0 0"/><path d="m209.242188 187.171875c.75.132813 1.492187.199219 2.230468.199219 5.902344 0 11.160156-4.226563 12.25-10.238282 1.226563-6.753906-3.273437-13.25-10.03125-14.480468-6.777344-1.226563-13.253906 3.277344-14.480468 10.035156-1.222657 6.761719 3.277343 13.253906 10.03125 14.484375zm0 0"/><path d="m84.984375 246.574219c0 6.210937 5.035156 11.242187 11.242187 11.242187h277.871094c6.210938 0 11.242188-5.035156 11.242188-11.242187s-5.03125-11.246094-11.238282-11.246094h-277.871093c-6.210938 0-11.246094 5.039063-11.246094 11.246094zm0 0"/></g><path d="m236.101562 358.925781h-25.476562v38.867188c0 5.558593-1.308594 9.773437-3.9375 12.644531-2.625 2.871094-5.929688 4.308594-9.921875 4.308594-4.1875 0-7.558594-1.421875-10.117187-4.261719-2.558594-2.839844-3.839844-7.011719-3.839844-12.503906v-105.832031c0-6.117188 1.402344-10.492188 4.214844-13.109376 2.808593-2.625 7.273437-3.9375 13.390624-3.9375h35.6875c10.550782 0 18.667969.8125 24.351563 2.4375 5.617187 1.558594 10.472656 4.152344 14.5625 7.773438s7.195313 8.054688 9.320313 13.300781c2.125 5.246094 3.183593 11.144531 3.183593 17.699219 0 13.984375-4.308593 24.585938-12.921875 31.796875-8.621094 7.210937-21.449218 10.816406-38.496094 10.816406zm-6.746093-62.9375h-18.730469v41.960938h18.730469c6.554687 0 12.035156-.683594 16.4375-2.058594 4.398437-1.371094 7.753906-3.621094 10.066406-6.746094 2.308594-3.121093 3.464844-7.210937 3.464844-12.265625 0-6.058594-1.78125-10.988281-5.339844-14.796875-3.992187-4.0625-12.199219-6.09375-24.628906-6.09375zm0 0" fill="#fa759e"/></svg>