<svg height="473pt" viewBox="0 -46 473.62745 473" width="473pt" xmlns="http://www.w3.org/2000/svg"><path d="m453.3125 211.277344c11.398438-1.199219 20.316406-10.867188 20.316406-22.578125 0-12.523438-10.1875-22.710938-22.710937-22.710938h-3.753907c6.988282-14.652343 11.007813-31.605469 11.007813-49.6875 0-55.132812-37.191406-99.988281-82.90625-99.988281s-82.90625 44.851562-82.90625 99.988281c0 18.082031 4.019531 35.039063 11.007813 49.6875h-3.753907c-12.523437 0-22.710937 10.1875-22.710937 22.710938 0 11.710937 8.917968 21.378906 20.316406 22.578125 2.246094 21.535156 14.574219 40.316406 32.480469 52.292968l-12.878907 40.789063c-2.730468.136719-5.265624.945313-7.472656 2.277344l-20.355468-50.234375c-5.714844-14.101563-18.066407-24.140625-33.03125-26.855469l-38.488282-6.984375c-1.730468-3.109375-3.621094-6.148438-5.671875-9.113281-2.222656-3.203125-4.605469-6.246094-7.117187-9.160157l-2.148438-80.773437c-.265625-9.933594-4.65625-19.175781-11.984375-25.632813 8.773438-7.492187 13.863281-18.664062 13.550781-30.316406-.5625-21.226562-18.167968-38.039062-39.523437-37.472656-21.226563.5625-38.035156 18.296875-37.464844 39.519531.300781 11.425781 5.785157 22.085938 14.625 29.109375l-41.796875 22.769532c-5.660156 3.085937-9.78125 8.191406-11.605468 14.375-1.824219 6.183593-1.128907 12.703124 1.957031 18.367187l8.617187 15.824219c-40.335937 9.53125-73.292968 42.082031-81.15625 85.40625-5.121094 28.242187 1.058594 56.785156 17.402344 80.375 16.34375 23.59375 40.898438 39.410156 69.140625 44.53125 6.457031 1.171875 12.886719 1.734375 19.230469 1.734375 50.921875 0 96.269531-36.441407 105.675781-88.277344 1.15625-6.375 1.707031-12.765625 1.722656-19.113281l3.582031.648437c6.347657 1.152344 11.585938 5.410157 14.011719 11.390625l23.480469 57.929688c2.453125 6.054687 7.121094 10.789062 13.136719 13.335937 3.066406 1.292969 6.292969 1.945313 9.527343 1.945313 3.105469 0 6.21875-.597656 9.1875-1.804688 9.101563-3.6875 14.757813-12.269531 15.214844-21.492187h113.820313c8.933593 0 16.199219-7.265625 16.199219-16.199219 0-8.648438-6.828126-15.675781-15.367188-16.113281l-12.878906-40.789063c17.902344-11.976562 30.226562-30.757812 32.472656-52.289062zm-263.15625 82.152344c-.214844.769531-.496094 1.511718-.738281 2.273437-.414063 1.304687-.824219 2.609375-1.308594 3.882813-.367187.945312-.789063 1.855468-1.195313 2.785156-.449218 1.035156-.894531 2.074218-1.394531 3.085937-.503906 1.015625-1.0625 2.003907-1.617187 2.996094-2.585938 4.632813-5.691406 8.953125-9.292969 12.882813-.738281.804687-1.484375 1.597656-2.257813 2.367187-.816406.8125-1.664062 1.589844-2.527343 2.363281-.710938.640625-1.421875 1.285156-2.15625 1.894532-1.527344 1.261718-3.085938 2.492187-4.734375 3.632812-3.289063 2.28125-6.753906 4.191406-10.308594 5.851562-.8125.378907-1.621094.773438-2.445312 1.117188-1.25.523438-2.515626.984375-3.789063 1.429688-.675781.242187-1.34375.515624-2.023437.734374-1.914063.605469-3.851563 1.125-5.8125 1.558594-.652344.144532-1.3125.242188-1.964844.367188-1.402344.273437-2.808594.519531-4.230469.703125-.746094.09375-1.5.160156-2.25.230469-1.363281.128906-2.726563.21875-4.097656.269531-.757813.027343-1.507813.046875-2.265625.046875-1.441406.003906-2.890625-.054688-4.339844-.144532-.664062-.039062-1.328125-.058593-1.992188-.121093-2.097656-.1875-4.199218-.445313-6.296874-.832031-18.210938-3.304688-34.042969-13.5-44.578126-28.710938-10.539062-15.210938-14.523437-33.617188-11.21875-51.820312 5.742188-31.660157 32.308594-54.320313 62.992188-56.636719l.210938.390625c2.265624 4.15625 6.007812 7.179687 10.546874 8.515625 1.660157.488281 3.347657.730469 5.03125.730469 2.921876 0 5.816407-.730469 8.453126-2.167969 1.714843-.9375 3.179687-2.171875 4.472656-3.5625 13.464844 4.835937 25.097656 13.648437 33.40625 25.644531 10.539062 15.210938 14.523437 33.609375 11.222656 51.816406-.410156 2.1875-.914062 4.324219-1.5 6.425782zm-57.640625-135.757813-5.703125-10.464844 5.347656-2.914062zm0 0" fill="#e6e7e8"/><path d="m128.472656 247.132812c-7.347656-1.335937-14.777344.273438-20.917968 4.527344-6.140626 4.253906-10.25 10.644532-11.585938 17.996094-2.753906 15.167969 7.351562 29.753906 22.519531 32.503906 1.679688.304688 3.347657.453125 5 .453125 13.25 0 25.054688-9.484375 27.5-22.972656 1.332031-7.347656-.273437-14.777344-4.527343-20.914063-4.25-6.144531-10.640626-10.261718-17.988282-11.59375zm0 0" fill="#e6e7e8"/><path d="m424.6875 153.984375c8.515625-15.324219 13.488281-33.796875 13.488281-53.6875 0-53.011719-35.328125-95.988281-78.90625-95.988281-43.574219 0-78.902343 42.976562-78.902343 95.988281 0 19.890625 4.972656 38.363281 13.488281 53.6875zm0 0" fill="#fff"/><path d="m424.65625 153.984375c7.652344-13.769531 12.457031-30.082031 13.347656-47.6875-2.546875-50.214844-36.816406-89.988281-78.738281-89.988281-41.917969 0-76.1875 39.773437-78.734375 89.988281.890625 17.605469 5.695312 33.917969 13.347656 47.6875zm0 0" fill="#6dc9f7"/><g fill="#d4fbff"><path d="m328.734375 153.984375h61.070313c13.980468-11.789063 23.15625-31.421875 23.15625-53.6875 0-36.070313-24.039063-65.3125-53.691407-65.3125-29.648437 0-53.6875 29.242187-53.6875 65.3125 0 22.265625 9.171875 41.902344 23.152344 53.6875zm0 0"/><path d="m414.753906 292.273438-14.636718-46.355469c-11.71875 7.183593-25.746094 11.375-40.851563 11.375-15.101563 0-29.125-4.191407-40.847656-11.375l-14.636719 46.355469zm0 0"/><path d="m285.015625 191.40625c1.839844 36.664062 34.328125 65.886719 74.253906 65.886719 39.929688 0 72.414063-29.222657 74.257813-65.886719zm0 0"/></g><path d="m416.882812 292.273438h-115.226562c-4.082031 0-7.671875 2.023437-9.890625 5.101562l5.859375 14.441406c.597656 1.480469.964844 2.984375 1.207031 4.496094.910157.21875 1.847657.359375 2.828125.359375h115.226563c6.742187 0 12.199219-5.460937 12.199219-12.199219 0-6.734375-5.460938-12.199218-12.203126-12.199218zm0 0" fill="#6dc9f7"/><path d="m434.917969 153.984375h-151.296875c-10.332032 0-18.710938 8.378906-18.710938 18.710937 0 10.332032 8.378906 18.707032 18.710938 18.707032h151.300781c10.332031 0 18.710937-8.375 18.710937-18.707032 0-10.332031-8.378906-18.710937-18.714843-18.710937zm0 0" fill="#6dc9f7"/><path d="m297.625 311.816406-28.332031-69.910156c-5.167969-12.753906-16.503907-21.96875-30.042969-24.425781l-40.417969-7.332031c7.070313 13.300781 11.285157 28.199218 11.984375 43.757812l8.410156 1.527344c7.664063 1.390625 14.082032 6.609375 17.003907 13.824218l23.476562 57.929688c4.246094 10.46875 16.171875 15.519531 26.640625 11.273438 10.472656-4.242188 15.519532-16.171876 11.277344-26.644532zm0 0" fill="#fa759e"/><path d="m120.898438 156.074219c1.679687.21875 3.359374.480469 5.050781.785156 23.664062 4.289063 43.949219 16.335937 58.777343 33.015625l-2.1875-82.257812c-.292968-10.902344-6.097656-20.359376-14.683593-25.777344 10.027343-6.265625 16.59375-17.5 16.253906-30.175782-.511719-19.050781-16.367187-34.085937-35.417969-33.578124-19.050781.507812-34.089844 16.363281-33.578125 35.414062.335938 12.675781 7.484375 23.542969 17.835938 29.269531-.785157.554688-1.519531 1.175781-2.246094 1.800781l-44.84375 24.4375c-9.765625 5.320313-13.367187 17.550782-8.046875 27.3125l28.21875 51.796876c3.625 6.652343 11.953125 9.105468 18.605469 5.484374 6.652343-3.621093 9.101562-11.953124 5.484375-18.605468l-24.730469-45.390625 14.597656-7.953125zm0 0" fill="#fa759e"/><path d="m125.949219 156.863281c-2.078125-.378906-4.144531-.667969-6.214844-.917969l10.382813 19.050782c2.460937 4.527344 2.0625 9.792968-.503907 13.863281 34.65625 10.949219 56.625 46.164063 49.964844 82.871094-7.222656 39.820312-45.359375 66.242187-85.179687 59.019531-39.820313-7.222656-66.242188-45.359375-59.019532-85.179688 6.25-34.4375 35.625-58.804687 69.203125-60.105468l-15.585937-28.609375c-41.191406 7.480469-75.386719 39.703125-83.304688 83.328125-10.199218 56.214844 27.105469 110.054687 83.320313 120.253906 56.214843 10.199219 110.054687-27.105469 120.253906-83.320312 10.203125-56.214844-27.101563-110.054688-83.316406-120.253907zm0 0" fill="#0089ef"/><path d="m131.445312 258.648438c0 13.234374-10.730468 23.964843-23.964843 23.964843s-23.964844-10.730469-23.964844-23.964843c0-13.234376 10.730469-23.960938 23.964844-23.960938s23.964843 10.726562 23.964843 23.960938zm0 0" fill="#0089ef"/><path d="m437.140625 195.292969c11.484375-1.121094 20.492187-10.824219 20.492187-22.59375 0-12.523438-10.1875-22.710938-22.714843-22.710938h-3.800781c7-14.652343 11.054687-31.59375 11.054687-49.6875 0-55.132812-37.191406-99.988281-82.90625-99.988281-45.710937 0-82.898437 44.851562-82.898437 99.984375 0 18.09375 4.054687 35.03125 11.054687 49.6875h-3.800781c-12.527344 0-22.714844 10.1875-22.714844 22.710937 0 11.769532 9.007812 21.472657 20.492188 22.59375 2.257812 21.5 14.464843 40.269532 32.316406 52.242188l-12.890625 40.824219c-2.664063.140625-5.207031.949219-7.457031 2.3125l-20.371094-50.269531c-5.714844-14.101563-18.066406-24.140626-33.03125-26.855469l-38.488282-6.984375c-1.730468-3.109375-3.621093-6.148438-5.671874-9.113282-2.222657-3.203124-4.605469-6.25-7.117188-9.160156l-2.152344-80.765625c-.265625-9.933593-4.652344-19.171875-11.980468-25.636719 8.769531-7.492187 13.859374-18.664062 13.554687-30.316406-.570313-21.226562-18.246094-38.121094-39.523437-37.472656-21.226563.5625-38.035157 18.296875-37.46875 39.523438.300781 11.425781 5.785156 22.085937 14.625 29.109374l-41.796876 22.769532c-11.6875 6.371094-16.015624 21.054687-9.644531 32.742187l8.609375 15.808594c-12.949218 3.039063-25.359375 8.476563-36.621094 16.28125-23.59375 16.34375-39.410156 40.898437-44.535156 69.136719-5.121094 28.242187 1.058594 56.785156 17.40625 80.375 16.347656 23.59375 40.898438 39.410156 69.140625 44.53125 6.476563 1.175781 12.960938 1.753906 19.410157 1.753906 21.660156 0 42.785156-6.558594 60.96875-19.160156 23.589843-16.34375 39.40625-40.898438 44.527343-69.140625 1.15625-6.375 1.707031-12.765625 1.722657-19.113281l3.582031.648437c6.347656 1.148437 11.585937 5.410156 14.011719 11.390625l23.476562 57.925781c2.453125 6.058594 7.121094 10.792969 13.136719 13.339844 3.066406 1.292969 6.292969 1.945313 9.527343 1.945313 3.105469 0 6.21875-.597657 9.1875-1.804688 6.054688-2.449219 10.792969-7.113281 13.335938-13.128906 1.140625-2.699219 1.753906-5.523438 1.890625-8.359375h113.808594c8.933593 0 16.203125-7.265625 16.203125-16.199219 0-8.648438-6.832032-15.675781-15.371094-16.113281l-12.890625-40.824219c17.84375-11.972656 30.054687-30.738281 32.3125-52.238281zm-152.773437-94.996094c0-50.722656 33.601562-91.988281 74.902343-91.988281 41.304688 0 74.90625 41.265625 74.90625 91.988281 0 18.308594-4.429687 35.339844-11.972656 49.6875h-125.867187c-7.539063-14.34375-11.96875-31.375-11.96875-49.6875zm-15.460938 72.402344c0-8.113281 6.601562-14.710938 14.714844-14.710938h151.296875c8.113281 0 14.714843 6.597657 14.714843 14.710938 0 8.109375-6.601562 14.707031-14.714843 14.707031h-151.296875c-8.113282 0-14.714844-6.601562-14.714844-14.707031zm20.539062 22.707031h139.648438c-3.925781 32.5-33.652344 57.890625-69.824219 57.890625-36.167969 0-65.898437-25.390625-69.824219-57.890625zm-173.285156-67.117188.355469 13.382813-5.703125-10.46875zm-28.390625-15.765624 45.320313-24.695313c.488281-.265625.898437-.617187 1.222656-1.03125.316406-.25.609375-.523437.941406-.757813 1.125-.796874 1.761719-2.113281 1.6875-3.484374-.078125-1.378907-.855468-2.613282-2.058594-3.28125-9.441406-5.222657-15.488281-15.140626-15.769531-25.871094-.449219-16.816406 12.871094-30.863282 29.6875-31.3125 16.867188-.308594 30.863281 12.871094 31.3125 29.6875.28125 10.730468-5.226562 20.953125-14.378906 26.671875-1.167969.734375-1.875 2.007812-1.878906 3.382812-.003907 1.378907.699219 2.660157 1.863281 3.394531 7.785156 4.910157 12.578125 13.324219 12.820312 22.5l1.917969 72.042969c-3.695312-3.429687-7.605469-6.582031-11.71875-9.441406-.125-.089844-.261719-.175781-.390625-.265625-1.839844-1.265625-3.714844-2.472656-5.628906-3.617188-.242188-.148437-.484375-.300781-.726562-.445312-1.96875-1.152344-3.96875-2.25-6.011719-3.277344-.433594-.222656-.878907-.421875-1.3125-.632812-1.613281-.785156-3.25-1.527344-4.90625-2.234375-.582031-.25-1.164063-.503907-1.75-.742188-2.023438-.820312-4.070313-1.589843-6.152344-2.289062-.410156-.132813-.832031-.253907-1.242187-.386719-1.777344-.570312-3.574219-1.097656-5.390626-1.578125-.625-.164063-1.246093-.328125-1.875-.484375-2.195312-.542969-4.40625-1.042969-6.652343-1.449219-.011719-.003906-.023438-.003906-.035157-.007812-.621093-.113281-1.238281-.21875-1.855468-.320313l-.761719-28.613281 22.167969-12.074219c1.941406-1.054687 2.65625-3.484375 1.597656-5.425781-1.058594-1.933594-3.488281-2.660156-5.425781-1.59375l-38.914063 21.199219c-1.941406 1.054687-2.65625 3.484375-1.597656 5.425781l24.726562 45.390625c1.246094 2.277344 1.523438 4.902344.789063 7.390625-.730469 2.488281-2.390625 4.542969-4.667969 5.785156-2.277344 1.238281-4.90625 1.519531-7.394531.789063-2.488281-.734375-4.542969-2.394532-5.785156-4.671875l-28.21875-51.796875c-4.257813-7.804688-1.363281-17.625 6.445312-21.878906zm117.5625 163.878906c-4.746093 26.140625-19.378906 48.863281-41.214843 63.992187-21.835938 15.132813-48.257813 20.855469-74.394532 16.105469-26.140625-4.742188-48.863281-19.378906-63.992187-41.210938-15.128907-21.835937-20.847657-48.253906-16.105469-74.390624 4.742188-26.140626 19.378906-48.863282 41.214844-63.992188 11.050781-7.660156 23.289062-12.84375 36.054687-15.539062l11.285157 20.710937c-32.714844 3.988281-60.550782 28.683594-66.734376 62.777344-7.609374 41.925781 20.3125 82.222656 62.238282 89.832031 4.660156.84375 9.332031 1.261719 13.96875 1.261719 11.988281 0 23.761718-2.804688 34.660156-8.3125 1.972656-1 2.757812-3.402344 1.761719-5.375-1-1.972657-3.40625-2.765625-5.375-1.765625-13.539063 6.851562-28.605469 9.035156-43.582031 6.316406-37.589844-6.820312-62.617188-42.941406-55.800782-80.53125 5.742188-31.664062 32.304688-54.324219 62.992188-56.632812l.207031.382812c2.265625 4.15625 6.007813 7.179688 10.546875 8.515625 1.660156.488281 3.347656.730469 5.03125.730469 2.921875 0 5.816406-.730469 8.453125-2.167969 1.710937-.933594 3.171875-2.167969 4.464844-3.554687 31.207031 11.269531 50.746093 43.746093 44.632812 77.453124-1.5 8.285157-4.441406 16.109376-8.730469 23.265626-1.132812 1.894531-.519531 4.351562 1.375 5.488281 1.894532 1.140625 4.351563.519531 5.488282-1.371094 4.785156-7.984375 8.0625-16.71875 9.738281-25.949219 6.734375-37.117187-14.453125-72.8125-48.472656-85.824218.003906-.019532.015625-.035157.023437-.054688 1.335938-4.539062.828125-9.328125-1.433594-13.484375l-6.476562-11.890625c25.328125 5.097656 47.320312 19.519531 62.074219 40.816406 15.125 21.84375 20.84375 48.261719 16.101562 74.398438zm88.488281 49.511718c-1.710937 4.046876-4.902343 7.1875-8.972656 8.835938-4.070312 1.65625-8.542968 1.621094-12.597656-.097656-4.046875-1.710938-7.183594-4.898438-8.835938-8.976563l-23.480468-57.921875c-3.457032-8.535156-10.933594-14.617187-20-16.261718l-5.285156-.957032c-.898438-12.085937-3.835938-23.90625-8.746094-35.039062l32.628906 5.921875c12.257812 2.222656 22.367188 10.445312 27.046875 21.988281l28.332031 69.914062c1.65625 4.074219 1.621094 8.550782-.089844 12.59375zm131.265626-21.441406c0 4.519532-3.679688 8.199219-8.203126 8.199219h-114.734374c-.234376-.792969-.503907-1.582031-.820313-2.359375l-4.914063-12.121094c1.460938-1.238281 3.289063-1.917968 5.242188-1.917968h115.226562c4.523438 0 8.203126 3.679687 8.203126 8.199218zm-15.785157-16.199218h-100.0625l11.53125-36.511719c11.382813 6.027343 24.492188 9.53125 38.5 9.53125 14.011719 0 27.117188-3.503907 38.5-9.53125zm0 0" fill="#3a2c60"/><path d="m159.691406 304.199219c-2.664062 3.050781-5.621094 5.886719-8.789062 8.429687-1.722656 1.386719-1.996094 3.902344-.609375 5.625.785156.984375 1.945312 1.496094 3.117187 1.496094.882813 0 1.765625-.289062 2.503906-.882812 3.535157-2.835938 6.832032-6 9.800782-9.40625 1.453125-1.664063 1.285156-4.191407-.378906-5.644532-1.660157-1.453125-4.1875-1.277344-5.644532.382813zm0 0" fill="#3a2c60"/><path d="m112.472656 231.132812c-7.347656-1.335937-14.777344.273438-20.917968 4.527344-6.140626 4.257813-10.253907 10.644532-11.585938 17.996094-2.753906 15.167969 7.351562 29.753906 22.519531 32.503906 1.679688.304688 3.351563.453125 5 .453125 13.25 0 25.054688-9.484375 27.5-22.972656 1.332031-7.347656-.273437-14.777344-4.527343-20.914063-4.25-6.144531-10.640626-10.261718-17.988282-11.59375zm14.652344 31.082032c-1.964844 10.832031-12.371094 18.042968-23.210938 16.078125-10.832031-1.964844-18.042968-12.375-16.078124-23.207031 1.96875-10.832032 12.359374-18.023438 23.207031-16.082032 5.25.953125 9.808593 3.890625 12.84375 8.273438 3.039062 4.382812 4.183593 9.6875 3.238281 14.9375zm0 0" fill="#3a2c60"/></svg>