<svg height="455pt" viewBox="-32 0 455 455.84837" width="455pt" xmlns="http://www.w3.org/2000/svg"><path d="m387.917969 192.128906c-5.386719-30.585937-15.589844-58.179687-30.332031-82.019531-16.074219-25.992187-34.480469-47.417969-54.71875-63.683594-17.398438-13.992187-35.566407-23.792969-53.996094-29.125-9.867188-2.859375-20.234375-.945312-28.441406 5.25-3.753907 2.832031-6.734376 6.371094-8.90625 10.328125-1.527344-.011718-3.085938-.015625-4.691407.007813-.566406.007812-1.125.058593-1.6875.070312-37.886719.792969-75.230469 10.816407-105.972656 33.707031-33.960937 25.289063-57.707031 63.371094-63.1875 105.398438-.085937.632812-.148437 1.269531-.222656 1.902344-.324219 2.730468-.574219 5.480468-.753907 8.238281-.050781.8125-.117187 1.617187-.160156 2.429687-.167968 3.359376-.261718 6.730469-.222656 10.128907.046875 3.71875.339844 7.355469.746094 10.945312-12.195313 13.375-18.941406 30.515625-18.941406 48.734375 0 19.359375 7.539062 37.558594 21.226562 51.25 10.886719 10.890625 24.648438 17.808594 39.558594 20.21875-3.085938 10.167969-6.03125 20.546875-7.828125 30.921875-5.574219 32.1875 5.839843 63.925781 29.796875 82.832031 13.652344 10.773438 29.539062 16.183594 46.386718 16.183594 14.925782 0 30.601563-4.25 46.128907-12.777344 22.578125-12.40625 46.304687-41.570312 62.234375-63.851562 9.28125-12.980469 18.574218-27.367188 27.097656-41.773438 5.691406 7.976563 14.78125 12.734376 24.644531 12.734376 21.941407 0 42.855469-8.238282 58.886719-23.203126 16.054688-14.980468 25.683594-35.277343 27.109375-57.148437 1.777344-27.3125.515625-53.457031-3.753906-77.699219zm0 0" fill="#e6e7e8"/><path d="m265.675781 293.125c14.625-32.285156 30.328125-78.492188 21.152344-132.71875-10.890625-64.375-50.695313-90.941406-74-101.164062-4.265625-1.875-7.882813-4.710938-10.730469-8.144532-19.785156-.941406-50.804687 1.011719-82.183594 16.703125-41.15625 20.574219-65.945312 59.648438-67.222656 105.199219 6.390625-1.972656 13.175782-3.039062 20.210938-3.039062 37.820312 0 68.480468 30.660156 68.480468 68.480468 0 37.820313-30.660156 68.480469-68.480468 68.480469-2.191406 0-4.355469-.128906-6.496094-.328125-3.511719 11.390625-7.058594 23.261719-9.078125 34.921875-11.007813 63.546875 47.75 119.789063 116.441406 82.046875 30.511719-16.761719 66.761719-67.46875 91.367188-110.226562-2.421875-6.207032-2.554688-13.378907.539062-20.210938zm0 0" fill="#6dc9f7"/><path d="m167.96875 113.53125c-56.21875-4.925781-78.949219 49.421875-78.949219 49.421875-1.15625 2.878906-2.046875 5.632813-2.808593 8.324219 31.445312 6.199218 55.167968 33.898437 55.167968 67.160156 0 29.617188-18.84375 54.773438-45.167968 64.320312-1.933594 4.933594-4.277344 10.109376-7.191407 15.613282-16.113281 30.453125 14.609375 69.925781 54.523438 45.539062 27.253906-16.652344 64.652343-58.167968 86.453125-112.460937 20.609375-51.324219 8.039062-131.777344-62.027344-137.917969zm0 0" fill="#d4fbff"/><path d="m195.519531 33.105469v-.65625c0-4.152344.917969-8.027344 2.472657-11.53125-23.53125-.5-57.074219 2.886719-91.484376 20.089843-52.476562 26.242188-84.621093 79.003907-83.886718 137.703126.054687 4.367187.429687 8.417968.9375 12.320312 7.941406-8.257812 17.902344-14.5625 29.128906-18.027344 1.277344-45.550781 26.066406-84.621094 67.21875-105.199218 31.382812-15.691407 62.402344-17.644532 82.1875-16.703126-4.121094-4.980468-6.574219-11.257812-6.574219-17.996093zm0 0" fill="#ffd7e5"/><path d="m195.519531 32.449219v.65625c0 11.394531 6.867188 21.558593 17.304688 26.140625 23.300781 10.226562 63.105469 36.792968 74 101.164062 9.175781 54.226563-6.527344 100.433594-21.152344 132.71875-7.871094 17.375 4.921875 37.050782 23.996094 37.050782 43.230469 0 79.1875-33.46875 82.003906-76.609376 3.019531-46.242187-1.703125-105.960937-33.488281-157.359374-34.0625-55.085938-73.980469-81.683594-106.417969-91.070313-18.148437-5.253906-36.246094 8.417969-36.246094 27.308594zm0 0" fill="#fff"/><path d="m219.765625 9.140625c-3.574219-1.03125-7.132813-1.3125-10.566406-.984375-8.078125 4.921875-13.679688 13.792969-13.679688 24.292969v.65625c0 11.394531 6.867188 21.558593 17.304688 26.140625 23.300781 10.226562 63.105469 36.792968 74 101.164062 9.175781 54.226563-6.527344 100.433594-21.152344 132.71875-7.871094 17.375 4.921875 37.050782 23.996094 37.050782 6.945312 0 13.667969-.949219 20.132812-2.574219 27.707031-11.769531 47.796875-38.25 49.871094-70.03125 3.019531-46.242188-1.703125-105.960938-33.488281-157.359375-34.0625-55.089844-73.980469-81.6875-106.417969-91.074219zm0 0" fill="#fa759e"/><path d="m121.324219 190.015625c-26.742188-26.742187-70.101563-26.742187-96.84375 0-26.742188 26.742187-26.742188 70.101563 0 96.84375 26.742187 26.742187 70.101562 26.742187 96.84375 0 26.742187-26.742187 26.742187-70.101563 0-96.84375zm0 0" fill="#ffd7e5"/><path d="m91.058594 220.28125c-10.027344-10.03125-26.285156-10.03125-36.316406 0-10.027344 10.027344-10.027344 26.285156 0 36.316406 10.03125 10.027344 26.289062 10.027344 36.316406 0 10.03125-10.03125 10.03125-26.289062 0-36.316406zm0 0" fill="#fa759e"/><g fill="#3a2c60"><path d="m142.703125 308.390625c1.113281 0 2.21875-.457031 3.007813-1.359375 22.785156-25.933594 33.324218-52.015625 31.316406-77.519531-2.65625-33.765625-26.355469-53.808594-27.363282-54.644531-1.695312-1.40625-4.210937-1.171876-5.625.519531-1.410156 1.699219-1.183593 4.21875.507813 5.632812.222656.183594 22.171875 18.863281 24.511719 49.238281 1.789062 23.230469-8.085938 47.28125-29.359375 71.496094-1.453125 1.660156-1.292969 4.1875.363281 5.644532.761719.664062 1.707031.992187 2.640625.992187zm0 0"/><path d="m85.136719 57.9375c.8125 0 1.628906-.25 2.335937-.757812 6.542969-4.71875 13.546875-8.960938 20.828125-12.59375 1.976563-.988282 2.777344-3.394532 1.789063-5.371094-.992188-1.972656-3.386719-2.773438-5.371094-1.785156-7.660156 3.832031-15.035156 8.289062-21.925781 13.261718-1.792969 1.292969-2.195313 3.792969-.90625 5.585938.785156 1.082031 2.007812 1.660156 3.25 1.660156zm0 0"/><path d="m341.589844 94.109375c-40.207032-65.015625-85.375-86.058594-108.71875-92.8125-9.847656-2.851563-20.199219-.949219-28.402344 5.214844-3.792969 2.851562-6.800781 6.417969-8.984375 10.421875-20.097656-.179688-46.617187 2.445312-74.691406 13.367187-2.0625.800781-3.082031 3.121094-2.277344 5.179688.804687 2.058593 3.125 3.078125 5.179687 2.277343 25.632813-9.972656 49.851563-12.757812 68.695313-12.871093-.574219 2.441406-.875 4.972656-.875 7.5625v.65625c0 4.890625 1.132813 9.605469 3.179687 13.871093-20.214843-.089843-48.332031 3.125-76.578124 17.246094-41.671876 20.835938-67.027344 60.054688-69.25 105.917969-8.078126 2.851563-15.542969 7.027344-22.027344 12.375-.066406-1.292969-.203125-2.515625-.21875-3.859375-.53125-42.503906 17.023437-83.039062 48.167968-111.214844 1.640626-1.484375 1.761719-4.011718.28125-5.652344-1.480468-1.640624-4.007812-1.765624-5.648437-.285156-32.84375 29.714844-51.363281 72.449219-50.800781 117.253906.046875 3.859376.363281 7.457032.773437 10.957032-11.742187 12.886718-18.96875 29.953125-18.96875 48.71875 0 35.984375 26.382813 65.839844 60.800781 71.445312-3.089843 10.175782-6.046874 20.554688-7.847656 30.941406-5.773437 33.339844 7.074219 66.71875 32.734375 85.035157 12.976563 9.265625 27.855469 13.90625 43.523438 13.90625 14.960937 0 30.636719-4.230469 46.050781-12.703125 30.238281-16.609375 64.863281-64.183594 89.332031-105.628906 5.691407 7.980468 14.777344 12.738281 24.644531 12.738281 45.28125 0 83.054688-35.296875 85.996094-80.351563 2.820313-43.15625-.804687-105.90625-34.070312-159.707031zm-333.164063 144.332031c0-35.554687 28.921875-64.480468 64.476563-64.480468 35.558594 0 64.480468 28.921874 64.480468 64.480468 0 35.554688-28.921874 64.480469-64.480468 64.480469-35.554688 0-64.476563-28.929687-64.476563-64.480469zm90.800781 67.449219c26.972657-10.5625 46.152344-36.78125 46.152344-67.453125 0-33.613281-23.03125-61.867188-54.113281-70.03125.433594-1.285156.914063-2.597656 1.449219-3.933594.53125-1.234375 22.574218-51.574218 74.902344-46.960937 23.386718 2.046875 41.925781 13.195312 53.621093 32.242187 16.121094 26.246094 18.195313 67.449219 5.042969 100.203125-21.582031 53.742188-58.152344 94.242188-84.824219 110.535157-15.8125 9.660156-31.78125 9.289062-42.71875-.996094-10.597656-9.964844-13.144531-26.109375-6.1875-39.253906 2.660157-5.023438 4.839844-9.78125 6.675781-14.351563zm72.613282 114.164063c-28.761719 15.800781-58.320313 15.550781-81.078125-.703126-23.171875-16.539062-34.75-46.828124-29.496094-77.15625 1.804687-10.4375 4.878906-21.046874 8.0625-31.457031 1.191406.058594 2.367187.179688 3.570313.179688 5.59375 0 11.015624-.699219 16.246093-1.902344-1.113281 2.433594-2.296875 4.910156-3.660156 7.488281-8.636719 16.324219-5.4375 36.402344 7.78125 48.828125 7.242187 6.8125 16.113281 10.230469 25.6875 10.230469 8.558594 0 17.675781-2.738281 26.675781-8.234375 27.800782-16.984375 65.816406-58.941406 88.078125-114.382813 14.257813-35.507812 11.988281-78.65625-5.648437-107.371093-13.074219-21.289063-33.730469-33.746094-59.742188-36.023438-58.464844-5.109375-82.753906 51.289063-82.988281 51.863281-.007813.015626-.015625.035157-.019531.050782-.730469 1.824218-1.355469 3.59375-1.925782 5.347656-3.429687-.5-6.910156-.847656-10.484374-.847656-5.464844 0-10.773438.660156-15.898438 1.8125 2.957031-41.75 26.519531-77.308594 64.695312-96.394532 29.660157-14.835937 59.191407-17.023437 78.554688-16.308593 3.027344 3.257812 6.710938 5.964843 10.964844 7.835937 22.210937 9.746094 61.054687 35.460938 71.664062 98.171875 9.316406 55.050781-7.433594 100.785157-20.851562 130.398438-3.101563 6.855469-3.484375 14.457031-1.292969 21.433593-24.75 42.679688-60.132813 91.34375-88.894531 107.140626zm195.839844-166.75c-2.667969 40.859374-36.929688 72.871093-78.011719 72.871093-7.625 0-14.644531-3.828125-18.777344-10.234375-4.101563-6.363281-4.691406-14.277344-1.570313-21.167968 13.84375-30.570313 31.132813-77.824219 21.449219-135.035157-11.238281-66.410156-52.648437-93.765625-76.332031-104.15625-9.0625-3.976562-14.917969-12.796875-14.917969-22.476562v-.65625c0-7.757813 3.558594-14.875 9.757813-19.535157 4.289062-3.230468 9.367187-4.90625 14.550781-4.90625 2.273437 0 4.5625.324219 6.820313.976563 22.238281 6.4375 65.335937 26.601563 104.132812 89.332031 32.160156 52 35.644531 112.988282 32.898438 154.988282zm0 0"/><path d="m102.585938 238.441406c0-16.363281-13.316407-29.679687-29.683594-29.679687-16.363282 0-29.679688 13.316406-29.679688 29.679687 0 16.363282 13.316406 29.679688 29.679688 29.679688 16.367187 0 29.683594-13.316406 29.683594-29.679688zm-51.363282 0c0-11.957031 9.726563-21.679687 21.679688-21.679687 11.957031 0 21.683594 9.722656 21.683594 21.679687 0 11.953125-9.726563 21.679688-21.683594 21.679688-11.953125 0-21.679688-9.730469-21.679688-21.679688zm0 0"/><path d="m85.015625 280.777344v-.09375c0-1.683594-1.363281-3.042969-3.042969-3.042969h-18.136718c-1.683594 0-3.042969 1.363281-3.042969 3.042969v.097656c0 1.683594 1.363281 3.042969 3.042969 3.042969h18.132812c1.683594 0 3.046875-1.363281 3.046875-3.046875zm0 0"/><path d="m63.835938 195.53125h5.996093v5.949219c0 1.683593 1.363281 3.042969 3.042969 3.042969s3.046875-1.363282 3.046875-3.042969v-5.949219h6.042969c1.683594 0 3.042968-1.363281 3.042968-3.042969v-.097656c0-1.683594-1.363281-3.042969-3.042968-3.042969h-6.042969v-5.996094c0-1.683593-1.367187-3.042968-3.046875-3.042968s-3.042969 1.363281-3.042969 3.042968v5.996094h-5.996093c-1.683594 0-3.042969 1.363282-3.042969 3.042969v.097656c0 1.679688 1.363281 3.042969 3.042969 3.042969zm0 0"/></g><path d="m305.371094 285.238281c-3.9375 0-7.132813 3.191407-7.132813 7.128907 0 3.941406 3.195313 7.132812 7.132813 7.132812 3.941406 0 7.132812-3.191406 7.132812-7.132812 0-3.9375-3.191406-7.128907-7.132812-7.128907zm0 0" fill="#ffd7e5"/><path d="m331.40625 264.910156c-3.9375 0-7.128906 3.191406-7.128906 7.128906 0 3.941407 3.191406 7.132813 7.128906 7.132813 3.941406 0 7.132812-3.191406 7.132812-7.132813 0-3.9375-3.191406-7.128906-7.132812-7.128906zm0 0" fill="#ffd7e5"/><path d="m306.085938 258.488281c-3.941407 0-7.132813 3.191407-7.132813 7.132813 0 3.9375 3.191406 7.132812 7.132813 7.132812 3.9375 0 7.128906-3.195312 7.128906-7.132812 0-3.941406-3.191406-7.132813-7.128906-7.132813zm0 0" fill="#ffd7e5"/></svg>