<svg height="479pt" viewBox="0 -127 479.66793 479" width="479pt" xmlns="http://www.w3.org/2000/svg"><path d="m466.429688 84.941406-141.050782-57.882812c-7.386718-3.03125-15.738281-2.613282-22.789062 1.136718l-31.8125 16.933594c-2.355469 1.25-3.824219 3.699219-3.824219 6.367188 0 5.039062 5.035156 8.523437 9.75 6.753906l21.179687-7.964844c7.117188-2.675781 15.027344-2.207031 21.78125 1.289063l63.726563 33.007812h-262.410156l63.726562-33.007812c6.75-3.496094 14.664063-3.964844 21.78125-1.289063l21.179688 7.964844c4.714843 1.769531 9.75-1.714844 9.75-6.753906 0-2.667969-1.46875-5.117188-3.820313-6.367188l-31.816406-16.933594c-7.050781-3.75-15.402344-4.167968-22.789062-1.136718l-141.046876 57.882812c-9.28125 1.878906-15.386718 11.429688-12.527343 20.949219l27.800781 92.492187c4.828125 16.0625 19.617188 27.0625 36.390625 27.0625h105.691406c16.738281 0 31.507813-10.957031 36.363281-26.976562l15.03125-49.605469c1.648438-5.433593 9.339844-5.433593 10.988282 0l15.03125 49.605469c4.855468 16.019531 19.625 26.976562 36.363281 26.976562h105.695313c16.769531 0 31.558593-10.996093 36.386718-27.0625l27.800782-92.492187c2.855468-9.519531-3.25-19.070313-12.53125-20.949219zm0 0" fill="#e6e7e8"/><path d="m256.003906 37.542969 21.179688-7.960938c7.117187-2.675781 15.027344-2.210937 21.78125 1.285157l63.726562 33.007812h79.714844c1.148438 0 2.25.140625 3.320312.355469l-141.046874-57.878907c-7.386719-3.03125-15.738282-2.613281-22.789063 1.136719l-31.816406 16.933594c-2.351563 1.25-3.824219 3.699219-3.824219 6.367187 0 5.039063 5.039062 8.527344 9.753906 6.753907zm0 0" fill="#6dc9f7"/><path d="m20.558594 63.878906h79.71875l63.726562-33.007812c6.746094-3.496094 14.664063-3.960938 21.78125-1.285156l21.179688 7.960937c4.714844 1.773437 9.75-1.710937 9.75-6.75 0-2.664063-1.472656-5.117187-3.824219-6.367187l-31.816406-16.933594c-7.046875-3.75-15.398438-4.167969-22.785157-1.136719l-141.050781 57.878906c1.074219-.21875 2.171875-.359375 3.320313-.359375zm0 0" fill="#6dc9f7"/><path d="m442.402344 63.878906h-421.84375c-11.085938 0-19.035156 10.695313-15.84375 21.308594l27.800781 92.492188c4.828125 16.0625 19.617187 27.0625 36.386719 27.0625h105.695312c16.738282 0 31.507813-10.957032 36.363282-26.976563l15.03125-49.605469c1.648437-5.4375 9.339843-5.4375 10.988281 0l15.03125 49.605469c4.855469 16.019531 19.625 26.976563 36.363281 26.976563h105.691406c16.773438 0 31.5625-10.996094 36.390625-27.0625l27.796875-92.492188c3.1875-10.617188-4.761718-21.308594-15.851562-21.308594zm0 0" fill="#fff"/><path d="m68.902344 204.738281h105.695312c16.738282 0 31.507813-10.957031 36.363282-26.976562l15.03125-49.605469c1.648437-5.4375 9.339843-5.4375 10.988281 0l15.03125 49.605469c4.855469 16.019531 19.625 26.976562 36.363281 26.976562h105.691406c16.773438 0 31.5625-10.996093 36.390625-27.0625l27.671875-92.058593c-2.140625-6.472657-8.199218-11.390626-15.71875-11.390626h-421.851562c-7.515625 0-13.574219 4.917969-15.714844 11.390626l27.671875 92.058593c4.828125 16.066407 19.617187 27.0625 36.386719 27.0625zm0 0" fill="#0089ef"/><g fill="#fff"><path d="m74.804688 108.070312c0 5.066407-4.109376 9.175782-9.175782 9.175782-5.070312 0-9.175781-4.109375-9.175781-9.175782 0-5.070312 4.105469-9.179687 9.175781-9.179687 5.066406 0 9.175782 4.109375 9.175782 9.179687zm0 0"/><path d="m92.996094 127.484375c-5.066406 0-9.175782 4.109375-9.175782 9.175781s4.109376 9.175782 9.175782 9.175782 9.175781-4.109376 9.175781-9.175782-4.109375-9.175781-9.175781-9.175781zm0 0"/><path d="m150.996094 127.484375c-5.066406 0-9.175782 4.109375-9.175782 9.175781s4.109376 9.175782 9.175782 9.175782 9.175781-4.109376 9.175781-9.175782-4.109375-9.175781-9.175781-9.175781zm0 0"/><path d="m122.503906 98.890625c-5.066406 0-9.175781 4.109375-9.175781 9.179687 0 5.066407 4.109375 9.175782 9.175781 9.175782s9.175782-4.109375 9.175782-9.175782c0-5.070312-4.109376-9.179687-9.175782-9.179687zm0 0"/><path d="m189.492188 108.070312c0 5.066407-4.109376 9.175782-9.175782 9.175782-5.070312 0-9.175781-4.109375-9.175781-9.175782 0-5.070312 4.105469-9.179687 9.175781-9.179687 5.066406 0 9.175782 4.109375 9.175782 9.179687zm0 0"/><path d="m72.25 157.835938c-5.066406 0-9.175781 4.109374-9.175781 9.175781 0 5.070312 4.109375 9.175781 9.175781 9.175781 5.070312 0 9.179688-4.105469 9.179688-9.175781 0-5.066407-4.109376-9.175781-9.179688-9.175781zm0 0"/><path d="m130.300781 167.011719c0 5.070312-4.109375 9.175781-9.175781 9.175781-5.070312 0-9.175781-4.105469-9.175781-9.175781 0-5.066407 4.105469-9.175781 9.175781-9.175781 5.066406 0 9.175781 4.109374 9.175781 9.175781zm0 0"/><path d="m170.941406 157.835938c-5.070312 0-9.175781 4.109374-9.175781 9.175781 0 5.070312 4.105469 9.175781 9.175781 9.175781 5.066406 0 9.175782-4.105469 9.175782-9.175781 0-5.066407-4.109376-9.175781-9.175782-9.175781zm0 0"/><path d="m284.023438 98.011719c-5.066407 0-9.175782 4.109375-9.175782 9.175781 0 5.070312 4.109375 9.175781 9.175782 9.175781 5.066406 0 9.175781-4.105469 9.175781-9.175781 0-5.066406-4.109375-9.175781-9.175781-9.175781zm0 0"/><path d="m311.390625 126.605469c-5.066406 0-9.175781 4.105469-9.175781 9.175781 0 5.066406 4.109375 9.175781 9.175781 9.175781 5.070313 0 9.175781-4.109375 9.175781-9.175781 0-5.070312-4.105468-9.175781-9.175781-9.175781zm0 0"/><path d="m369.390625 126.605469c-5.066406 0-9.175781 4.105469-9.175781 9.175781 0 5.066406 4.109375 9.175781 9.175781 9.175781 5.070313 0 9.175781-4.109375 9.175781-9.175781 0-5.070312-4.105468-9.175781-9.175781-9.175781zm0 0"/><path d="m340.894531 98.011719c-5.066406 0-9.175781 4.109375-9.175781 9.175781 0 5.070312 4.109375 9.175781 9.175781 9.175781 5.070313 0 9.175781-4.105469 9.175781-9.175781 0-5.066406-4.105468-9.175781-9.175781-9.175781zm0 0"/><path d="m398.710938 98.011719c-5.066407 0-9.175782 4.109375-9.175782 9.175781 0 5.070312 4.109375 9.175781 9.175782 9.175781 5.070312 0 9.175781-4.105469 9.175781-9.175781 0-5.066406-4.105469-9.175781-9.175781-9.175781zm0 0"/><path d="m290.648438 156.957031c-5.070313 0-9.175782 4.105469-9.175782 9.175781 0 5.066407 4.105469 9.175782 9.175782 9.175782 5.066406 0 9.175781-4.109375 9.175781-9.175782 0-5.070312-4.109375-9.175781-9.175781-9.175781zm0 0"/><path d="m339.519531 156.957031c-5.066406 0-9.175781 4.105469-9.175781 9.175781 0 5.066407 4.109375 9.175782 9.175781 9.175782 5.066407 0 9.175781-4.109375 9.175781-9.175782 0-5.070312-4.109374-9.175781-9.175781-9.175781zm0 0"/><path d="m389.335938 156.957031c-5.066407 0-9.175782 4.105469-9.175782 9.175781 0 5.066407 4.109375 9.175782 9.175782 9.175782 5.066406 0 9.175781-4.109375 9.175781-9.175782 0-5.070312-4.109375-9.175781-9.175781-9.175781zm0 0"/></g><path d="m458.890625 68.164062c-3.007813-4.046874-7.261719-6.75-12.046875-7.792968l-140.648438-57.71875c-8.519531-3.5-18.0625-3.015625-26.183593 1.308594l-31.816407 16.929687c-3.667968 1.953125-5.945312 5.746094-5.945312 9.902344 0 3.675781 1.804688 7.125 4.828125 9.214843 3.027344 2.097657 6.886719 2.578126 10.332031 1.28125l21.179688-7.964843c6.042968-2.277344 12.796875-1.871094 18.53125 1.101562l49.148437 25.453125h-31.019531c-2.207031 0-4 1.792969-4 4 0 2.210938 1.792969 4 4 4h127.15625c4.007812 0 7.675781 1.84375 10.070312 5.0625 2.390626 3.214844 3.097657 7.257813 1.945313 11.09375l-27.796875 92.492188c-4.351562 14.484375-17.4375 24.214844-32.5625 24.214844h-105.691406c-15.082032 0-28.164063-9.703126-32.535156-24.136719l-15.03125-49.605469c-1.253907-4.136719-5-6.914062-9.324219-6.914062s-8.070313 2.773437-9.324219 6.914062l-15.03125 49.605469c-4.378906 14.433593-17.453125 24.136719-32.539062 24.136719h-105.683594c-15.117188 0-28.203125-9.730469-32.554688-24.214844l-27.800781-92.492188c-1.152344-3.835937-.441406-7.878906 1.949219-11.09375 2.390625-3.21875 6.058594-5.0625 10.066406-5.0625h237.683594c2.210937 0 4-1.789062 4-4 0-2.207031-1.789063-4-4-4h-141.550782l49.148438-25.453125c5.734375-2.96875 12.488281-3.371093 18.527344-1.097656l21.183594 7.964844c3.445312 1.300781 7.304687.820312 10.328124-1.277344 3.023438-2.09375 4.828126-5.539063 4.828126-9.21875 0-4.15625-2.273438-7.949219-5.941407-9.902344l-31.816406-16.929687c-8.125-4.324219-17.667969-4.804688-26.183594-1.308594l-140.644531 57.710938c-4.785156 1.042968-9.042969 3.746093-12.050781 7.792968-3.914063 5.265625-5.078125 11.890625-3.1875 18.175782l27.800781 92.492187c5.375 17.886719 21.539062 29.910156 40.214844 29.910156h105.695312c18.632813 0 34.78125-11.984375 40.191406-29.816406l15.03125-49.605469c.328126-1.074218 1.183594-1.234375 1.667969-1.234375s1.339844.160157 1.667969 1.234375l15.03125 49.605469c5.402344 17.832031 21.554688 29.816406 40.191406 29.816406h105.6875c18.679688 0 34.839844-12.023437 40.222656-29.910156l27.796876-92.492187c1.882812-6.285157.722656-12.90625-3.195313-18.171876zm-158.089844-40.84375c-4.425781-2.292968-9.296875-3.453124-14.183593-3.453124-3.667969 0-7.339844.652343-10.839844 1.96875l-21.179688 7.964843c-1 .375-2.085937.246094-2.960937-.367187-.882813-.609375-1.386719-1.574219-1.386719-2.640625 0-1.1875.652344-2.277344 1.707031-2.835938l31.816407-16.933593c6.015624-3.203126 13.085937-3.550782 19.386718-.96875l121.410156 49.824218h-60.90625zm-140.992187-17.265624c6.300781-2.585938 13.367187-2.234376 19.386718.96875l31.816407 16.933593c1.050781.558594 1.703125 1.648438 1.703125 2.835938 0 1.070312-.503906 2.03125-1.382813 2.640625-.882812.609375-1.964843.742187-2.960937.367187l-21.179688-7.964843c-8.167968-3.070313-17.285156-2.523438-25.023437 1.484374l-62.863281 32.558594h-60.910157zm0 0" fill="#3a2c60"/><path d="m299.460938 67.875c2.207031 0 4-1.789062 4-4 0-2.207031-1.792969-4-4-4h-25.882813c-2.207031 0-4 1.792969-4 4 0 2.210938 1.792969 4 4 4zm0 0" fill="#3a2c60"/></svg>